<svg xmlns="http://www.w3.org/2000/svg" version="1" viewBox="0 0 512 512" id="Quality">
  <path fill="none" stroke="#4f75ff" stroke-linecap="round" stroke-linejoin="round" stroke-miterlimit="10" stroke-width="15" d="M297.104 168.044c-9.727-9.727-25.676-9.115-34.63 1.328v0c-14.862 17.335-43.227 5.586-41.478-17.181v0c1.053-13.716-9.792-25.426-23.548-25.426h-20.525c-13.756 0-24.601 11.71-23.548 25.426h0c1.748 22.766-26.616 34.515-41.478 17.181h0c-8.954-10.444-24.903-11.055-34.63-1.328l-14.513 14.514c-9.727 9.727-9.116 25.676 1.328 34.63h0c17.335 14.862 5.586 43.226-17.181 41.478h0c-13.716-1.053-25.426 9.792-25.426 23.548v20.525c0 13.756 11.71 24.601 25.426 23.548v0c22.766-1.749 34.515 26.616 17.181 41.478h0c-10.444 8.954-11.055 24.903-1.328 34.63l14.513 14.513c9.727 9.727 25.676 9.116 34.63-1.328h0c14.862-17.335 43.226-5.586 41.478 17.181h0c-1.053 13.716 9.792 25.426 23.548 25.426h20.525c13.756 0 24.601-11.71 23.548-25.426v0-19.231m-47.088-65.43c-25.173-5.986-43.897-28.619-43.897-55.624 0-31.576 25.598-57.174 57.174-57.174m242.271-3.44h0c6.357 7.414 17.68 7.849 24.585.943l10.304-10.304c6.906-6.906 6.471-18.229-.943-24.585h0c-12.307-10.551-3.965-30.688 12.197-29.447v0c9.738.748 18.051-6.952 18.051-16.718v-14.572c0-9.766-8.314-17.466-18.051-16.718h0c-16.163 1.241-24.504-18.896-12.197-29.447h0c7.414-6.357 7.849-17.68.943-24.585l-10.304-10.304c-6.906-6.906-18.229-6.472-24.585.943v0c-10.551 12.307-30.688 3.966-29.447-12.197v0c.748-9.738-6.952-18.051-16.718-18.051h-14.572c-9.766 0-17.466 8.314-16.718 18.051h0c1.241 16.163-18.896 24.504-29.447 12.197h0c-6.357-7.414-17.68-7.848-24.585-.943l-10.304 10.304c-6.906 6.906-6.472 18.229.943 24.585h0c12.307 10.551 3.965 30.688-12.197 29.447h0c-9.738-.748-18.051 6.952-18.051 16.718m117.645 47.876c-22.417 0-40.59-18.173-40.59-40.59s18.173-40.59 40.59-40.59c22.417 0 40.59 18.173 40.59 40.59s-18.173 40.59-40.59 40.59z" class="colorStroke474747 svgStroke"></path>
  <circle cx="306.6" cy="306.581" r="104.949" fill="none" stroke="#4f75ff" stroke-linecap="round" stroke-linejoin="round" stroke-miterlimit="10" stroke-width="15" class="colorStroke474747 svgStroke"></circle>
  <path fill="none" stroke="#4f75ff" stroke-linecap="round" stroke-linejoin="round" stroke-miterlimit="10" stroke-width="15" d="M306.6 235.56c26.304 0 49.268 14.3 61.542 35.55m9.112 28.209a71.98 71.98 0 0 1 .367 7.261M381.579 381.56l103.129 103.128" class="colorStroke474747 svgStroke"></path>
</svg>
