<svg xmlns="http://www.w3.org/2000/svg" enable-background="new 0 0 66 66" viewBox="0 0 66 66" id="Puzzle">
  <path d="M63.35,17.03L48.48,3.56c-0.17-0.15-0.39-0.23-0.61-0.22c-0.23,0.01-0.44,0.11-0.59,0.28l-5.14,5.67
	c-0.22-0.35-0.49-0.68-0.81-0.97c-0.91-0.82-2.08-1.22-3.31-1.15c-1.22,0.09-2.33,0.65-3.12,1.59c-0.75,0.9-1.11,2.13-0.97,3.36
	c0.14,1.23,0.76,2.35,1.7,3.07c0.23,0.18,0.48,0.33,0.74,0.46l-5.14,5.67c-0.32,0.35-0.29,0.89,0.06,1.2l6.67,6.04
	c0.24,0.21,0.57,0.28,0.87,0.17c0.3-0.11,0.51-0.38,0.54-0.7c0.07-0.57,0.31-1.1,0.7-1.53c0.51-0.56,1.21-0.89,1.97-0.91
	c0.79-0.03,1.48,0.26,2.02,0.79c0.51,0.5,0.8,1.23,0.79,2.01c-0.01,0.78-0.32,1.51-0.85,2c-0.37,0.34-0.8,0.56-1.28,0.67
	c-0.31,0.07-0.56,0.3-0.64,0.61c-0.08,0.31,0.02,0.64,0.25,0.85l5.03,4.56h-5.44c0.12-0.4,0.18-0.82,0.18-1.25
	c0-1.23-0.49-2.37-1.37-3.22c-0.88-0.85-2.06-1.29-3.28-1.24c-1.18,0.05-2.32,0.61-3.14,1.53c-0.82,0.93-1.24,2.14-1.13,3.32
	c0.03,0.29,0.08,0.58,0.16,0.85H26.7v-7.99c0-0.32-0.18-0.61-0.46-0.76c-0.29-0.15-0.63-0.12-0.88,0.07
	c-0.41,0.29-0.86,0.46-1.36,0.5c-0.71,0.06-1.47-0.2-2.05-0.71c-0.58-0.51-0.93-1.22-0.96-1.93c-0.03-0.76,0.24-1.48,0.77-2.03
	c0.93-0.97,2.52-1.11,3.6-0.34c0.26,0.19,0.6,0.21,0.88,0.07c0.28-0.15,0.46-0.44,0.46-0.76V14.2c0-0.47-0.38-0.85-0.85-0.85H5.79
	c-2.58,0-4.67,2.1-4.67,4.67v20.06v0v19.93c0,2.56,2.08,4.65,4.65,4.65H25.7h0h20.06c2.58,0,4.67-2.1,4.67-4.67V38.25l13.25-14.62
	c0,0,0,0,0,0C65.41,21.72,65.26,18.76,63.35,17.03z M5.79,15.05H25v6.8c-0.4-0.12-0.82-0.18-1.25-0.18c-1.23,0-2.37,0.49-3.22,1.37
	c-0.85,0.88-1.29,2.05-1.24,3.27c0.05,1.18,0.61,2.32,1.53,3.14c0.93,0.82,2.14,1.23,3.32,1.13c0.29-0.03,0.58-0.08,0.85-0.16v6.8
	h-8.24c-0.32,0-0.61,0.18-0.76,0.46c-0.15,0.28-0.12,0.62,0.07,0.88c0.33,0.46,0.51,1.01,0.51,1.59c0,0.75-0.3,1.46-0.84,1.98
	c-0.54,0.52-1.26,0.78-2.01,0.76c-0.71-0.03-1.4-0.37-1.91-0.95c-0.1-0.12-0.19-0.25-0.27-0.38c-0.05-0.08-0.1-0.17-0.14-0.26
	c-0.02-0.03-0.03-0.06-0.04-0.09c-0.13-0.33-0.21-0.68-0.21-1.05c0-0.58,0.18-1.13,0.51-1.6c0.19-0.26,0.21-0.6,0.07-0.88
	c-0.15-0.28-0.44-0.46-0.76-0.46h-0.05c0,0,0,0-0.01,0H2.82V18.02C2.82,16.38,4.15,15.05,5.79,15.05z M2.82,58.01V38.93h6.74
	c-0.08,0.27-0.13,0.56-0.16,0.84c-0.06,0.69,0.08,1.39,0.36,2.04c0.04,0.1,0.08,0.19,0.13,0.28c0.06,0.12,0.13,0.25,0.2,0.37
	c0.12,0.19,0.25,0.38,0.4,0.55c0.02,0.02,0.03,0.04,0.04,0.06c0.01,0.01,0.03,0.02,0.04,0.03c0.08,0.09,0.15,0.2,0.24,0.29
	c0.84,0.81,1.93,1.25,3.09,1.25c0.06,0,0.12,0,0.18,0c1.18-0.05,2.32-0.61,3.14-1.53c0.82-0.93,1.24-2.14,1.13-3.32
	c-0.03-0.29-0.08-0.58-0.16-0.85h6.65v7.99c0,0,0,0,0,0.01v0.09c0,0.32,0.18,0.61,0.46,0.76c0.29,0.14,0.63,0.12,0.88-0.07
	c1.07-0.77,2.64-0.62,3.57,0.34c0.52,0.54,0.79,1.26,0.76,2.01c-0.01,0.34-0.11,0.68-0.26,1c-0.16,0.31-0.39,0.61-0.67,0.85
	c-0.59,0.52-1.33,0.78-2.05,0.71c-0.49-0.04-0.95-0.21-1.35-0.5c-0.26-0.19-0.6-0.21-0.88-0.07c-0.28,0.15-0.46,0.44-0.46,0.76v8.14
	H5.76C4.14,60.96,2.82,59.64,2.82,58.01z M48.73,57.99c0,1.64-1.33,2.97-2.97,2.97H26.55v-6.74c0.27,0.08,0.56,0.13,0.84,0.16
	c1.18,0.1,2.38-0.31,3.3-1.13c0.47-0.41,0.84-0.91,1.1-1.46c0.27-0.55,0.43-1.14,0.46-1.74c0.05-1.23-0.39-2.39-1.24-3.28
	c-0.85-0.88-1.99-1.37-3.22-1.37c-0.43,0-0.85,0.06-1.25,0.18v-6.8h8.14c0.32,0,0.61-0.18,0.76-0.46c0.15-0.28,0.12-0.63-0.07-0.88
	c-0.29-0.4-0.46-0.86-0.5-1.35c-0.06-0.72,0.2-1.47,0.71-2.05c0.51-0.58,1.22-0.93,1.93-0.96c0.76-0.03,1.48,0.24,2.03,0.77
	c0.55,0.53,0.85,1.23,0.85,1.99c0,0.58-0.18,1.14-0.51,1.6c-0.19,0.26-0.21,0.6-0.07,0.88c0.15,0.28,0.44,0.46,0.76,0.46h8.14V57.99
	z M62.42,22.49l-12.9,14.24l-5.04-4.56c0.25-0.15,0.48-0.33,0.69-0.53c0.87-0.8,1.37-1.98,1.39-3.22c0.02-1.24-0.45-2.42-1.29-3.24
	c-0.88-0.86-2.06-1.33-3.26-1.28c-1.23,0.04-2.36,0.56-3.18,1.47c-0.29,0.32-0.52,0.67-0.71,1.04l-5.04-4.56l5.47-6.04
	c0.21-0.24,0.28-0.57,0.17-0.87c-0.11-0.3-0.38-0.51-0.7-0.54c-0.49-0.06-0.94-0.24-1.34-0.54c-0.57-0.44-0.95-1.13-1.04-1.91
	c-0.09-0.77,0.13-1.53,0.58-2.07c0.49-0.58,1.18-0.94,1.93-0.99c0.76-0.06,1.49,0.2,2.05,0.71c0.43,0.39,0.72,0.89,0.84,1.45
	c0.07,0.31,0.3,0.56,0.61,0.64c0.31,0.08,0.64-0.01,0.85-0.25l5.47-6.04l14.24,12.9C63.42,19.39,63.51,21.27,62.42,22.49z" fill="#4f75ff" class="color000000 svgShape"></path>
</svg>
