<svg xmlns="http://www.w3.org/2000/svg" viewBox="0 0 16.933 16.933" id="Quality">
  <path d="m 8.4666678,280.59582 c -3.3577493,0 -6.0859334,2.72818 -6.0859334,6.08593 0,1.7557 0.7466071,3.3379 1.938383,4.44882 l -1.5792318,3.76515 c -0.090698,0.21659 0.1246857,0.43523 0.3426148,0.34778 l 1.8515666,-0.74311 0.7322551,1.8247 c 0.088325,0.21919 0.3978195,0.22148 0.4893757,0.004 l 1.5167033,-3.61618 c 0.2601637,0.034 0.5249175,0.0527 0.7942667,0.0527 0.2693493,0 0.5341031,-0.0187 0.7942668,-0.0527 l 1.5167034,3.6158 c 0.09156,0.21786 0.40105,0.21557 0.489376,-0.004 l 0.732255,-1.8247 1.851566,0.74311 c 0.217929,0.0874 0.433313,-0.13119 0.342615,-0.34778 l -1.579232,-3.76566 c 1.191624,-1.11092 1.938383,-2.69274 1.938383,-4.44831 0,-3.35775 -2.728184,-6.08593 -6.0859332,-6.08593 z m 0,0.52968 c 3.0717662,0 5.5567652,2.48448 5.5567672,5.55625 0,3.07177 -2.485001,5.5547 -5.5567672,5.5547 -3.0717662,0 -5.5567667,-2.48293 -5.5567667,-5.5547 0,-3.07177 2.4850005,-5.55625 5.5567667,-5.55625 z m 0,0.79272 c -2.627122,0 -4.7614665,2.13641 -4.7614665,4.76353 0,2.62712 2.1343445,4.76198 4.7614665,4.76198 2.6271222,0 4.7619832,-2.13486 4.7619832,-4.76198 0,-2.62712 -2.134861,-4.76353 -4.7619832,-4.76353 z m 0,0.52916 c 2.3411392,0 4.2323002,1.89323 4.2323002,4.23437 0,2.34114 -1.891161,4.2323 -4.2323002,4.2323 -2.3411391,0 -4.2343668,-1.89116 -4.2343668,-4.2323 0,-2.34114 1.8932277,-4.23437 4.2343668,-4.23437 z m -0.2304769,1.36736 -0.701249,1.85725 -1.9859255,0.0605 c -0.2452092,0.008 -0.3478853,0.31715 -0.1565796,0.47078 l 1.5487428,1.2423 -0.5544881,1.90634 c -0.069936,0.23717 0.1947002,0.43214 0.4004924,0.29507 l 1.6582966,-1.08985 1.6422765,1.11673 c 0.203592,0.13956 0.470503,-0.051 0.404627,-0.28888 l -0.5234823,-1.91616 1.5683793,-1.21439 c 0.197004,-0.14997 0.09853,-0.4642 -0.148828,-0.47491 l -1.9843746,-0.0935 -0.6717938,-1.86758 c -0.036406,-0.10289 -0.13223,-0.17847 -0.2545064,-0.17596 -0.1166728,0.002 -0.205673,0.0752 -0.2415873,0.17234 z m 0.2402954,0.85731 0.4904094,1.35961 c 0.035877,0.10099 0.1291241,0.17036 0.2361613,0.1757 l 1.441256,0.0682 -1.1404991,0.8847 c -0.08501,0.0656 -0.1219626,0.17604 -0.093535,0.27957 l 0.3829225,1.39423 -1.1957926,-0.81442 c -0.088691,-0.0603 -0.2050269,-0.0611 -0.2945558,-0.002 l -1.2071615,0.79323 0.4041098,-1.38699 c 0.030042,-0.10317 -0.00529,-0.21426 -0.0894,-0.28112 l -1.1270628,-0.90227 1.4453899,-0.045 c 0.1067618,-0.004 0.2007328,-0.0715 0.2382282,-0.17157 z m -3.734139,6.81768 c 0.6949191,0.53901 1.5089624,0.93063 2.3962363,1.12861 l -1.2211143,2.91093 -0.5906616,-1.47174 c -0.054531,-0.13555 -0.2085999,-0.20125 -0.344165,-0.14676 l -1.5099853,0.60616 z m 7.4491577,5.2e-4 1.269173,3.02669 -1.509985,-0.60616 c -0.135565,-0.0545 -0.289634,0.0112 -0.344165,0.14676 l -0.590662,1.47174 -1.2211139,-2.91093 c 0.8872909,-0.19793 1.7018049,-0.58911 2.3967529,-1.1281 z" color="#000" enable-background="accumulate" font-family="sans-serif" font-weight="400" overflow="visible" style="line-height:normal;font-variant-ligatures:normal;font-variant-position:normal;font-variant-caps:normal;font-variant-numeric:normal;font-variant-alternates:normal;font-feature-settings:normal;text-indent:0;text-align:start;text-decoration-line:none;text-decoration-style:solid;text-decoration-color:#000;text-transform:none;text-orientation:mixed;white-space:normal;shape-padding:0;isolation:auto;mix-blend-mode:normal;solid-color:#000;solid-opacity:1" transform="translate(0 -280.067)" fill="#4f75ff" class="color000000 svgShape"></path>
</svg>
