<svg xmlns="http://www.w3.org/2000/svg" viewBox="0 0 48 48" id="security">
  <path fill="#4f75ff" d="M41.43,13.6l-17-8a1,1,0,0,0-.86,0l-17,8a1,1,0,0,0-.57.9c0,22.3,16.25,29,18,29s18-6.7,18-29A1,1,0,0,0,41.43,13.6ZM24.07,41.5c-.15,0-15.76-5-16.07-26.37L24,7.61l16,7.52C39.69,36.5,24.09,41.48,24.07,41.5Z" class="color646464 svgShape"></path>
  <path fill="#4f75ff" d="M19.71,22.79a1,1,0,0,0-1.42,1.42l4,4a1.05,1.05,0,0,0,.71.29h0a1,1,0,0,0,.72-.34l7-8a1,1,0,0,0-1.5-1.32L23,26Z" class="color646464 svgShape"></path>
</svg>
