<svg xmlns="http://www.w3.org/2000/svg" viewBox="0 0 32 32" id="Time">
  <path d="M11.344 1a.515.515 0 0 0-.344.5v2c0 .262.238.5.5.5h1v1h1V4h1a.52.52 0 0 0 .5-.5v-2a.52.52 0 0 0-.5-.5h-3a.501.501 0 0 0-.156 0zM13 5C5.826 5 0 10.826 0 18s5.826 13 13 13 13-5.826 13-13c0-1.242-.173-2.455-.5-3.594l3.688-2.156a.501.501 0 0 0 .125-.094l1.5-.844c1.138-.662 1.538-2.142.875-3.28l-.657-1.095a2.315 2.315 0 0 0-1.437-1.093c-.594-.156-1.247-.11-1.813.218l-1.531.907a.5.5 0 0 0-.031.031l-.094.031a.501.501 0 0 0-.125.094l-3.5 2.031C20.128 6.61 16.754 5 13 5zm-1-3h2v1h-2zM6.094 3a.5.5 0 0 0-.125.063l-1.719 1a.52.52 0 0 0-.188.687l.75 1.281c.131.23.459.319.688.188a.524.524 0 0 0 .188-.688l-.5-.875.875-.5.5.875c.097.278.473.415.726.265.254-.15.314-.546.117-.765l-.75-1.281A.515.515 0 0 0 6.094 3zm13.531 0a.506.506 0 0 0-.281.25l-.75 1.281c-.197.22-.137.614.117.765.253.15.629.013.727-.265l.5-.875.875.5-.5.875a.524.524 0 0 0 .187.688c.23.13.557.041.688-.188l.75-1.281a.52.52 0 0 0-.188-.688l-1.719-1A.507.507 0 0 0 19.625 3zM13 6c3.373 0 6.382 1.447 8.563 3.688l-4.5 2.624A6.936 6.936 0 0 0 13 11c-3.86 0-7 3.14-7 7s3.14 7 7 7 7-3.14 7-7c0-.114.004-.229 0-.344L24.531 15c.253.969.469 1.952.469 3 0 6.633-5.367 12-12 12S1 24.633 1 18 6.367 6 13 6zm16.063.75c.087.005.163.009.25.031.345.09.679.32.875.657l.625 1.093a1.38 1.38 0 0 1-.5 1.906l-1.22.72-2.03-3.532 1.218-.688a1.4 1.4 0 0 1 .782-.187zM12.5 7v2h1V7zm13.688 1.125L27 9.5l-9.969 5.75-.75-1.281 6.375-3.75a.502.502 0 0 0 .188-.156zm-18.25.094-.875.5 1 1.719.874-.5zm10.125 0-1 1.719.875.5 1-1.72zm9.437 2.156.75 1.281-3.469 2.031a.494.494 0 0 0-.062.032l-.063.031-5.312 3.094-.094.031a.487.487 0 0 0-.031.031l-.938.532-.25-.438-.5-.875zM13 12c1.129 0 2.135.368 3.031.906l-.718.438c-.183.022-.22.281-.22.281l-1.468 2.219a2.36 2.36 0 0 0-.813-.156 2.508 2.508 0 0 0-2.5 2.5c0 1.374 1.126 2.5 2.5 2.5 1.156 0 2.097-.807 2.376-1.875l2.718-.188.563-.125.5-.281C18.849 21.432 16.243 24 13 24c-3.32 0-6-2.68-6-6s2.68-6 6-6zm-9.281.063-.5.843 1.75 1 .5-.844zM15.53 14.75l1.719 2.938-2.344.156-1.469.093.813-1.218a.5.5 0 0 0 .031-.094zm-2.719 1.938c.081 0 .145.05.22.062l-.97 1.469a.487.487 0 0 0-.03.031.5.5 0 0 0-.032.063.5.5 0 0 0 0 .03.501.501 0 0 0 0 .063.487.487 0 0 0-.031.032.5.5 0 0 0 0 .062.501.501 0 0 0 0 .063l.031.03a.501.501 0 0 0 0 .063.5.5 0 0 0 0 .032c.009.021.02.042.031.062a.5.5 0 0 0 .063.063.5.5 0 0 0 0 .03.5.5 0 0 0 .031 0c.009.022.02.043.031.063a.5.5 0 0 0 .063.032.5.5 0 0 0 .031 0 .5.5 0 0 0 0 .03.5.5 0 0 0 .031 0A.501.501 0 0 0 12.5 19l1.5-.094c-.253.44-.636.782-1.188.782-.834 0-1.5-.666-1.5-1.5 0-.835.666-1.5 1.5-1.5zM2 17.5v1h2v-1zm20 0v1h2v-1zM4.969 22.063l-1.75 1 .5.843 1.75-1zm16.062 0-.5.843 1.75 1 .5-.843zM8.063 25.53l-1 1.719.875.5 1-1.719zm9.874 0-.875.5 1 1.719.875-.5zM12.5 27v2h1v-2z" style="text-indent:0;text-align:start;line-height:normal;text-transform:none;block-progression:tb;marker:none;-inkscape-font-specification:Sans" font-size="medium" font-style="normal" font-variant="normal" font-weight="400" font-stretch="normal" text-decoration="none" letter-spacing="normal" word-spacing="normal" direction="ltr" writing-mode="lr-tb" text-anchor="start" baseline-shift="baseline" color="#000" fill="#4f75ff" fill-opacity="1" stroke="none" stroke-width="1.00000012" visibility="visible" display="inline" overflow="visible" enable-background="accumulate" font-family="Sans" class="color000000 svgShape"></path>
</svg>
