<svg xmlns="http://www.w3.org/2000/svg" enable-background="new 0 0 64 64" viewBox="0 0 64 64" id="Training">
  <path d="M48.052 10.738c-.119.355-.029.748.232 1.016l1.647 1.688-.391 2.396c-.062.378.098.758.411.979.313.221.726.242 1.06.058L53 15.776l1.988 1.099C55.14 16.958 55.306 17 55.472 17c.202 0 .404-.062.576-.183.313-.22.473-.601.411-.979l-.391-2.396 1.647-1.688c.262-.268.352-.66.232-1.016s-.427-.615-.797-.671l-2.236-.342-1.009-2.15C53.741 7.224 53.388 7 53 7s-.741.224-.905.575l-1.009 2.15-2.236.342C48.479 10.124 48.171 10.383 48.052 10.738zM51.915 11.622c.33-.051.613-.262.754-.564L53 10.354l.331.705c.142.302.424.513.754.564l.84.128-.641.657c-.222.227-.322.546-.271.859l.141.862-.67-.37c-.15-.083-.317-.125-.484-.125s-.333.042-.484.125l-.67.37.141-.862c.051-.313-.049-.632-.271-.859l-.641-.657L51.915 11.622zM26 26c-6.617 0-12 5.383-12 12s5.383 12 12 12 12-5.383 12-12S32.617 26 26 26zM20.297 46.203c.47-1.49 1.485-2.717 2.811-3.45C23.444 44.042 24.608 45 26 45c1.396 0 2.562-.962 2.895-2.255.488.27.943.607 1.348 1.012.687.687 1.179 1.524 1.468 2.441C30.09 47.33 28.123 48 26 48 23.88 48 21.916 47.333 20.297 46.203zM22.027 36.268C23.205 35.451 24.563 35 26 35s2.795.451 3.973 1.268C29.832 38.347 28.114 40 26 40S22.168 38.347 22.027 36.268zM22.839 33.577C23.571 32.625 24.709 32 26 32s2.429.625 3.161 1.577C28.16 33.2 27.097 33 26 33S23.84 33.2 22.839 33.577zM26 42c.333 0 .66.033.983.086C26.937 42.595 26.521 43 26 43c-.521 0-.936-.405-.982-.913C25.339 42.033 25.666 42 26 42zM33.311 44.8c-.397-.908-.943-1.746-1.654-2.457-.627-.627-1.343-1.129-2.115-1.511C31.029 39.738 32 37.983 32 36c0-3.309-2.691-6-6-6s-6 2.691-6 6c0 1.985.973 3.743 2.463 4.836-1.668.827-3.021 2.221-3.784 3.954C17.022 43.004 16 40.622 16 38c0-5.514 4.486-10 10-10s10 4.486 10 10C36 40.627 34.974 43.014 33.311 44.8z" fill="#4f75ff" class="color000000 svgShape"></path>
  <path d="M43.854 41.241l.25-.063c.402-.102.699-.44.748-.852C44.951 39.472 45 38.711 45 38s-.049-1.472-.149-2.326c-.048-.412-.346-.75-.748-.852l-.249-.063c-1.311-.331-2.66-.672-3.492-1.044-.089-.302-.183-.591-.284-.87.463-.837 1.399-1.975 2.308-3.079l.083-.101c.26-.316.302-.759.104-1.118-.718-1.305-1.607-2.543-2.642-3.683-.284-.312-.73-.412-1.122-.252l-.131.054c-1.328.548-2.812 1.161-3.722 1.313-.161-.12-.324-.236-.488-.35-.145-.922-.03-2.566.073-4.037l.012-.17c.029-.411-.197-.797-.57-.974-1.391-.658-2.819-1.139-4.246-1.43-.409-.083-.851.129-1.07.488-.792 1.294-1.756 2.873-2.441 3.499-.149-.008-.302-.008-.451 0-.684-.626-1.649-2.206-2.458-3.528-.22-.359-.639-.545-1.052-.458-1.426.29-2.854.771-4.246 1.43-.373.176-.599.562-.57.974l.012.171c.103 1.47.218 3.113.073 4.036-.165.113-.328.23-.489.35-.911-.152-2.398-.767-3.729-1.317l-.123-.051c-.39-.159-.838-.06-1.122.252-1.036 1.14-1.925 2.379-2.643 3.683-.198.359-.156.802.104 1.118l.08.097c.91 1.105 1.848 2.245 2.311 3.083-.101.278-.195.567-.284.87-.833.373-2.186.715-3.499 1.047l-.242.061c-.402.102-.699.44-.748.852C7.049 36.528 7 37.289 7 38s.049 1.472.149 2.326c.048.412.346.75.748.853l.234.059c1.316.332 2.671.674 3.506 1.048.089.302.183.591.284.87-.463.837-1.399 1.975-2.308 3.079l-.083.101c-.26.316-.302.759-.104 1.118.718 1.305 1.607 2.543 2.642 3.683.284.312.733.414 1.122.252l.128-.053c1.329-.549 2.813-1.162 3.724-1.314.16.12.323.237.488.35.145.923.03 2.566-.073 4.036l-.012.171c-.029.411.197.797.57.974 1.391.658 2.819 1.139 4.246 1.43.412.083.852-.129 1.07-.488.792-1.294 1.756-2.873 2.441-3.499.149.008.302.008.451 0 .685.627 1.651 2.208 2.459 3.528C28.869 56.823 29.194 57 29.538 57c.066 0 .133-.006.199-.02 1.426-.29 2.854-.771 4.246-1.43.373-.176.599-.562.57-.974l-.012-.165c-.103-1.472-.218-3.118-.073-4.042.165-.113.328-.23.489-.35.91.152 2.395.765 3.724 1.314l.128.053c.392.163.839.061 1.122-.252 1.036-1.14 1.925-2.378 2.643-3.682.197-.359.156-.802-.104-1.118l-.086-.104c-.908-1.103-1.843-2.239-2.305-3.076.101-.279.195-.567.284-.87C41.194 41.913 42.543 41.572 43.854 41.241zM38.069 43.596c.427 1.004 1.371 2.201 2.416 3.475-.46.761-.988 1.496-1.576 2.194-1.62-.665-3.126-1.246-4.217-1.279-.232-.014-.465.069-.65.214-.323.255-.658.495-1.004.719-.199.129-.346.324-.415.552-.32 1.062-.237 2.737-.114 4.55-.825.353-1.659.636-2.493.845-1.012-1.645-1.979-3.125-2.941-3.737-.161-.102-.347-.156-.537-.156-.013 0-.025 0-.038 0l-.246.015c-.169.012-.339.012-.508 0L25.5 50.973c-.202-.007-.403.047-.575.156-.958.61-1.921 2.08-2.941 3.737-.834-.21-1.669-.493-2.494-.845.124-1.813.207-3.488-.114-4.55-.068-.227-.215-.422-.415-.551-.346-.224-.681-.463-1.003-.718-.185-.147-.422-.229-.651-.215-1.091.033-2.597.614-4.217 1.279-.587-.698-1.115-1.433-1.575-2.195 1.044-1.274 1.989-2.471 2.416-3.475.104-.244.106-.518.008-.764-.185-.459-.344-.948-.489-1.495-.068-.257-.236-.476-.466-.609-.919-.532-2.36-.922-3.918-1.318C9.021 38.906 9 38.44 9 38s.021-.906.065-1.411c1.559-.396 3-.786 3.918-1.318.23-.133.397-.352.466-.609.145-.548.305-1.037.489-1.495.099-.245.096-.52-.007-.764-.426-1.004-1.371-2.201-2.416-3.475.46-.762.988-1.496 1.575-2.195 1.621.666 3.126 1.247 4.218 1.279.229.006.465-.069.65-.214.323-.255.658-.495 1.004-.719.199-.129.346-.324.415-.551.32-1.062.238-2.737.114-4.55.825-.353 1.659-.636 2.494-.845 1.012 1.645 1.978 3.125 2.941 3.737.172.109.371.164.575.156l.245-.015c.168-.012.34-.012.508 0l.245.015c.202.009.403-.047.575-.156.959-.61 1.921-2.08 2.942-3.737.834.21 1.669.493 2.494.845-.124 1.813-.207 3.488.114 4.55.068.227.215.422.415.551.347.224.681.463 1.004.719.185.146.404.224.65.214 1.091-.033 2.597-.614 4.218-1.279.587.698 1.115 1.433 1.575 2.195-1.044 1.274-1.989 2.471-2.416 3.475-.104.244-.106.518-.008.764.185.459.344.948.489 1.495.068.257.236.476.466.609.919.532 2.36.922 3.918 1.317C42.979 37.094 43 37.56 43 38s-.021.906-.065 1.411c-1.559.396-3 .785-3.919 1.318-.23.133-.397.352-.465.609-.145.548-.305 1.037-.489 1.495C37.963 43.077 37.965 43.352 38.069 43.596zM46.744 4.198l1.252 1.56c.467-.375.976-.697 1.513-.958L48.635 3C47.963 3.327 47.327 3.729 46.744 4.198zM53.01 20v2c.749 0 1.497-.084 2.224-.25l-.445-1.95C54.207 19.933 53.609 20 53.01 20zM45.202 13.796l-1.949.446c.167.729.417 1.44.744 2.114l1.8-.873C45.535 14.946 45.335 14.378 45.202 13.796zM46.775 19.827l1.246-1.564c-.468-.373-.895-.798-1.269-1.265l-1.561 1.25C45.659 18.831 46.191 19.362 46.775 19.827zM59.24 19.815l-1.249-1.562c-.468.375-.978.696-1.514.955l.87 1.801C58.018 20.685 58.654 20.283 59.24 19.815zM48.671 21.016c.674.325 1.386.573 2.116.738l.441-1.951c-.583-.131-1.151-.33-1.69-.589L48.671 21.016zM60.196 8.501c.261.537.462 1.104.598 1.687l1.948-.453c-.169-.729-.421-1.438-.748-2.11L60.196 8.501zM62.013 16.337l-1.802-.868c-.259.538-.58 1.048-.954 1.516l1.563 1.247C61.288 17.647 61.688 17.01 62.013 16.337zM59.208 4.16l-1.242 1.567c.469.372.896.796 1.271 1.262l1.559-1.254C60.327 5.154 59.793 4.624 59.208 4.16zM46.732 7.028l-1.565-1.244C44.7 6.37 44.301 7.009 43.978 7.682l1.804.864C46.04 8.008 46.359 7.497 46.732 7.028zM63 11.971l-.331-.003L61 12c0 .601-.067 1.2-.198 1.78l1.95.442C62.917 13.498 63 12.75 63 11.971zM52.975 4l-.006-2c-.75.002-1.498.088-2.223.255l.449 1.949C51.775 4.071 52.373 4.002 52.975 4zM43 12v.019L45 12c0-.596.065-1.189.195-1.764l-1.951-.438C43.082 10.516 43 11.257 43 12zM57.31 2.975c-.675-.323-1.388-.57-2.118-.733l-.437 1.952c.583.13 1.152.327 1.691.585L57.31 2.975z" fill="#4f75ff" class="color000000 svgShape"></path>
  <path d="M26,62c13.233,0,24-10.767,24-24h-2c0,12.131-9.869,22-22,22S4,50.131,4,38s9.869-22,22-22h11.15l-2.774,2.219l1.249,1.562
	l5-4l-0.004-0.005c0.143-0.114,0.26-0.263,0.324-0.444c0.14-0.401,0.013-0.847-0.319-1.112l-5-4l-1.249,1.562L37.149,14H26
	C12.767,14,2,24.767,2,38S12.767,62,26,62z" fill="#4f75ff" class="color000000 svgShape"></path>
  <rect width="2" height="2" x="48" y="34" fill="#4f75ff" class="color000000 svgShape"></rect>
</svg>
