<svg xmlns="http://www.w3.org/2000/svg" xml:space="preserve" id="email-marketing" x="0" y="0" style="enable-background:new 0 0 300 300" version="1.1" viewBox="0 0 300 300">
  <g id="Email_Marketing">
    <path d="M110.165 148.983c.287-.008.558.522.702 1.605l.061 2.759c-.095 1.087-.342 1.63-.636 1.635-.294.006-.559-.526-.709-1.606l-.061-2.754c.102-1.087.342-1.63.643-1.639zM109.532 136.997c.286-.026.58.488.774 1.567l.188 2.765c-.045 1.094-.267 1.644-.561 1.659-.294.014-.582-.508-.782-1.578l-.186-2.741c.052-1.089.267-1.646.567-1.672zM107.806 125.125c.28-.06.64.413.97 1.465.196.908.312 1.827.471 2.74.059 1.098-.112 1.666-.403 1.707-.291.041-.627-.451-.925-1.494-.157-.898-.271-1.806-.463-2.698-.087-1.079.055-1.656.35-1.72zM104.29 113.663c.264-.11.685.298 1.166 1.289l.938 2.625c.255 1.07.189 1.654-.093 1.74s-.703-.345-1.183-1.314l-.918-2.569c-.242-1.055-.189-1.655.09-1.77zM98.444 103.212c.228-.17.766.104 1.49.944.527.77 1.03 1.555 1.51 2.354.463 1.006.49 1.608.235 1.75-.26.143-.732-.206-1.388-1.057a44.636 44.636 0 0 0-1.467-2.286c-.501-.95-.624-1.523-.38-1.705zM89.96 94.785c.166-.23.764-.134 1.708.457.734.58 1.447 1.187 2.137 1.819.732.835.924 1.41.718 1.615-.21.21-.758.004-1.627-.623a37.07 37.07 0 0 0-2.063-1.756c-.758-.757-1.05-1.264-.872-1.512zM79.218 89.577c.073-.274.668-.397 1.761-.166.893.294 1.771.627 2.633.997.97.55 1.336 1.033 1.207 1.294-.131.267-.715.247-1.738-.057a30.534 30.534 0 0 0-2.522-.956c-.968-.449-1.42-.817-1.341-1.112zM67.306 88.718c-.02-.285.498-.586 1.588-.758.928-.044 1.86-.069 2.795-.06 1.104.132 1.632.434 1.614.724-.018.297-.561.507-1.626.622-.904-.01-1.81.014-2.72.057-1.079-.073-1.631-.283-1.651-.585zM55.327 89.073c.03-.289.582-.48 1.647-.55.9.04 1.804.043 2.71.02 1.073.089 1.622.311 1.637.607.016.292-.507.58-1.602.737a39.67 39.67 0 0 1-2.805-.02c-1.103-.178-1.618-.498-1.587-.794zM44.166 85.01c.163-.241.74-.147 1.71.284a24.4 24.4 0 0 0 2.39 1.224c.916.534 1.33.944 1.229 1.225-.098.272-.703.339-1.775.004a25.74 25.74 0 0 1-2.52-1.29c-.9-.674-1.2-1.2-1.034-1.447zM36 76.346c.252-.146.73.191 1.414 1.004.5.745 1.04 1.463 1.615 2.151.588.886.776 1.44.56 1.645-.21.2-.779-.01-1.593-.782a26.778 26.778 0 0 1-1.698-2.264c-.515-1-.556-1.606-.299-1.754zM32.966 67.896c.284-.043.599.18.832.676l.293 1.321c0 .548-.191.882-.473.966-.283.083-.585-.114-.83-.635l-.312-1.4c.002-.577.192-.883.49-.928zM55.682 178.82c.295.01.508.548.708 1.562.072.87.242 1.725.509 2.548.206 1.002.24 1.572-.032 1.709-.252.13-.763-.238-1.248-1.293a12.67 12.67 0 0 1-.57-2.848c.037-1.151.341-1.69.633-1.678zM59.368 167.524c.252.144.205.73-.18 1.73a33.27 33.27 0 0 0-1.14 2.45c-.514.931-.919 1.35-1.2 1.254-.275-.094-.349-.697-.042-1.771.36-.867.759-1.717 1.187-2.548.62-.923 1.116-1.263 1.375-1.115zM66.387 157.823c.216.188.078.775-.5 1.69l-1.707 2.13c-.765.765-1.308 1.029-1.546.855s-.105-.742.478-1.673l1.739-2.171c.781-.774 1.308-1.029 1.536-.831zM74.785 149.268c.194.212-.017.774-.712 1.608l-1.974 1.9c-.86.661-1.43.85-1.64.644-.21-.207-.002-.756.695-1.602l1.998-1.922c.872-.664 1.43-.85 1.633-.628zM83.972 141.556c.175.227-.083.768-.85 1.539l-2.138 1.722c-.916.585-1.5.722-1.689.496-.19-.225.068-.755.835-1.536l2.157-1.737c.927-.585 1.5-.722 1.685-.484zM93.692 134.531c.16.239-.133.76-.952 1.477l-2.253 1.573c-.954.52-1.545.617-1.717.378-.172-.238.12-.75.94-1.476l2.268-1.583c.964-.52 1.546-.618 1.714-.369zM103.823 128.104c.147.247-.177.75-1.036 1.419l-2.342 1.44c-.984.464-1.579.526-1.737.278-.157-.249.165-.743 1.025-1.42l2.356-1.449c.993-.462 1.58-.527 1.734-.268zM114.282 122.231c.134.254-.215.74-1.109 1.362l-2.414 1.315c-1.007.413-1.604.443-1.748.187-.145-.257.204-.734 1.097-1.364l2.429-1.323c1.015-.41 1.605-.443 1.745-.177zM125.026 116.888c.121.26-.252.727-1.176 1.303l-2.48 1.19c-1.028.358-1.62.372-1.752.107-.13-.261.235-.735 1.161-1.315l2.493-1.197c1.036-.357 1.627-.36 1.754-.088zM136.023 112.087c.108.266-.289.714-1.24 1.245l-2.534 1.068c-1.042.31-1.64.28-1.758.011-.118-.27.276-.71 1.229-1.248l2.548-1.074c1.052-.306 1.642-.281 1.755-.002zM147.26 107.876c.092.272-.328.698-1.307 1.176l-2.587.929c-1.058.253-1.653.191-1.757-.084s.314-.693 1.294-1.18l2.604-.934c1.067-.25 1.655-.192 1.752.093zM158.726 104.338c.075.277-.371.677-1.377 1.094l-2.638.768c-1.07.188-1.662.09-1.749-.19s.355-.673 1.364-1.098l2.657-.774c1.08-.184 1.663-.09 1.743.2zM170.413 101.617c.053.282-.422.648-1.455.989l-2.686.57c-1.08.108-1.664-.034-1.731-.32-.067-.287.401-.644 1.44-.993l2.71-.576c1.093-.102 1.666.034 1.722.33zM182.301 99.981c.022.286-.49.604-1.55.84l-2.724.3c-1.084 0-1.652-.199-1.693-.49-.041-.291.459-.6 1.53-.845l2.76-.304c1.099.006 1.654.199 1.677.5zM194.29 100.015c-.03.288-.587.482-1.663.524a56.495 56.495 0 0 0-2.722-.127c-1.07-.142-1.605-.394-1.606-.69 0-.292.537-.553 1.637-.655.929.021 1.858.064 2.787.13 1.088.205 1.599.521 1.567.818zM205.747 103.298c-.149.252-.724.192-1.72-.149a22.465 22.465 0 0 0-2.49-.986c-.967-.44-1.42-.814-1.344-1.102.074-.28.667-.4 1.766-.175.896.297 1.78.642 2.64 1.046.963.597 1.3 1.112 1.148 1.366zM210.967 108.645a.77.77 0 0 1-.8-.051l-.344-.589c-.033-.294.112-.559.355-.725s.524-.185.784.01l.388.663c.041.323-.113.56-.383.692z" style="fill:#d1dcf8"></path>
    <path d="M81.934 141.56h101.503v61.965H81.934z" style="fill:#ffd964"></path>
    <path d="M183.436 141.56H81.938l50.75-47.304zM183.436 141.56l-7.218 4.403-43.53 26.58-43.532-26.58-7.218-4.403z" style="fill:#fcc230"></path>
    <path d="m81.938 203.525 50.749-39.963 50.749 39.963z" style="fill:#ffcf3d"></path>
    <path d="M176.218 98.688v47.275l-43.53 26.58-43.532-26.58V98.688c0-3.1 2.5-5.6 5.6-5.6h75.861c3.1 0 5.601 2.5 5.601 5.6z" style="fill:#f3f6fd"></path>
    <path d="M163.904 103.579v23.317a2.647 2.647 0 0 1-2.648 2.648h-57.141a2.641 2.641 0 0 1-2.642-2.648v-23.317a2.64 2.64 0 0 1 2.642-2.642h57.14c.658 0 1.262.24 1.726.631.564.491.923 1.208.923 2.011z" style="fill:#fe7b73"></path>
    <path d="M127.491 124.074c-1.314-.78-2.33-1.824-3.043-3.13a8.612 8.612 0 0 1-1.072-4.2c0-1.856.476-3.589 1.43-5.199a10.9 10.9 0 0 1 3.83-3.856 9.903 9.903 0 0 1 5.187-1.441c1.691 0 3.256.366 4.693 1.097 1.437.73 2.579 1.74 3.425 3.03.846 1.29 1.269 2.756 1.269 4.398 0 1.035-.16 2.012-.48 2.932s-.822 1.675-1.504 2.267-1.548.886-2.6.886c-.82 0-1.461-.18-1.921-.542-.46-.36-.738-.788-.837-1.28a4.758 4.758 0 0 1-1.823 1.391 5.612 5.612 0 0 1-2.242.456c-1.315 0-2.341-.402-3.08-1.207-.74-.804-1.109-1.848-1.109-3.13 0-1.231.274-2.298.825-3.202a5.575 5.575 0 0 1 2.168-2.07 5.975 5.975 0 0 1 2.846-.714c1.232 0 2.283.419 3.154 1.256l.073-.419a.872.872 0 0 1 .309-.542.896.896 0 0 1 .604-.221c.246 0 .455.086.627.259.173.172.26.39.26.652l-.025.271-.814 4.682a8.73 8.73 0 0 0-.171 1.601c0 .46.101.842.307 1.146.205.304.513.456.924.456 1.019 0 1.803-.444 2.352-1.33.551-.888.827-2.087.827-3.598s-.387-2.813-1.159-3.905a7.296 7.296 0 0 0-3.018-2.476 9.352 9.352 0 0 0-3.88-.838 8.715 8.715 0 0 0-4.546 1.257c-1.404.837-2.525 1.962-3.363 3.375s-1.257 2.932-1.257 4.558c0 1.216.292 2.378.875 3.486.583 1.109 1.429 2.008 2.537 2.698 1.11.69 2.428 1.035 3.955 1.035 1.002 0 1.872-.095 2.612-.283a21.37 21.37 0 0 0 2.538-.85.865.865 0 0 1 .27-.05.6.6 0 0 1 .443.173.57.57 0 0 1 .173.419c0 .114-.033.225-.098.332s-.148.185-.246.234c-1.742.87-3.64 1.306-5.692 1.306-1.709 0-3.22-.39-4.533-1.17zm8.45-8.34.395-2.292c-.723-.755-1.65-1.133-2.784-1.133-.707 0-1.368.156-1.984.468s-1.113.768-1.49 1.368c-.378.6-.567 1.318-.567 2.155 0 .953.262 1.672.789 2.157.525.484 1.207.726 2.045.726 2.003 0 3.203-1.15 3.596-3.45z" style="fill:#fff"></path>
    <path d="M162.222 140.308h-58.646a1.682 1.682 0 0 1-1.682-1.682v-3.501c0-.93.753-1.682 1.682-1.682h58.646c.929 0 1.682.753 1.682 1.682v3.501c0 .93-.753 1.682-1.682 1.682zM101.894 142.88h62.009v1.095h-62.009zM101.894 146.093h62.009v1.095h-62.009zM212.158 114.46c-.294-.01-.507-.547-.707-1.562a11.324 11.324 0 0 0-.51-2.548c-.206-1.001-.239-1.572.032-1.708.252-.13.763.238 1.248 1.293.3.926.49 1.885.57 2.848-.036 1.15-.34 1.689-.633 1.678zM208.472 125.756c-.252-.143-.204-.73.18-1.73a33.27 33.27 0 0 0 1.14-2.449c.514-.932.92-1.351 1.201-1.254.275.094.348.696.042 1.77-.361.868-.76 1.717-1.187 2.549-.621.923-1.117 1.262-1.376 1.114zM201.454 135.458c-.217-.189-.079-.776.5-1.69l1.707-2.131c.765-.764 1.308-1.028 1.546-.855.237.174.104.743-.479 1.674l-1.738 2.17c-.782.775-1.309 1.03-1.536.832zM193.055 144.013c-.193-.212.017-.775.712-1.608l1.975-1.9c.86-.662 1.43-.85 1.64-.644.209.206.001.756-.696 1.601l-1.997 1.922c-.873.665-1.43.851-1.634.629zM183.869 151.725c-.176-.227.082-.768.85-1.54l2.138-1.721c.916-.585 1.5-.722 1.688-.497.19.226-.067.756-.835 1.537l-2.157 1.736c-.927.585-1.5.723-1.684.485zM174.148 158.749c-.16-.238.134-.76.952-1.476l2.253-1.573c.954-.52 1.545-.617 1.718-.379.172.239-.121.75-.94 1.476l-2.268 1.584c-.965.52-1.546.618-1.715.368zM164.017 165.176c-.146-.246.177-.75 1.037-1.418l2.342-1.44c.983-.465 1.578-.527 1.736-.278.158.248-.165.743-1.024 1.42l-2.357 1.448c-.993.462-1.58.527-1.734.268zM153.558 171.05c-.134-.255.216-.74 1.11-1.363l2.414-1.315c1.006-.413 1.604-.443 1.748-.186.144.256-.204.733-1.098 1.364l-2.428 1.322c-1.016.41-1.605.444-1.746.177zM142.814 176.392c-.12-.26.253-.727 1.177-1.303l2.48-1.19c1.028-.357 1.619-.372 1.751-.106.13.26-.235.734-1.16 1.315l-2.494 1.196c-1.035.357-1.626.361-1.754.088zM131.818 181.193c-.108-.266.288-.714 1.24-1.244l2.533-1.068c1.043-.31 1.64-.281 1.759-.012s-.277.71-1.23 1.248l-2.548 1.074c-1.051.307-1.641.282-1.754.002zM120.581 185.404c-.093-.271.328-.698 1.306-1.175l2.587-.93c1.058-.253 1.654-.19 1.757.085s-.314.693-1.294 1.179l-2.604.935c-1.067.248-1.654.191-1.752-.094zM109.115 188.942c-.076-.277.37-.677 1.376-1.094l2.638-.768c1.071-.188 1.662-.09 1.75.191s-.355.673-1.364 1.098l-2.658.774c-1.08.183-1.663.09-1.742-.2zM97.427 191.664c-.053-.282.423-.648 1.456-.99l2.685-.57c1.081-.107 1.664.034 1.732.32.067.287-.402.644-1.44.994l-2.711.575c-1.092.103-1.666-.033-1.722-.33zM85.54 193.3c-.023-.287.489-.604 1.549-.84l2.724-.3c1.085 0 1.653.198 1.694.49.04.29-.46.6-1.53.845l-2.76.303c-1.1-.006-1.654-.198-1.678-.499zM73.55 193.265c.031-.287.587-.482 1.663-.523.906.064 1.814.106 2.723.127 1.069.142 1.604.393 1.605.69.001.292-.537.552-1.636.655a58.134 58.134 0 0 1-2.787-.13c-1.088-.206-1.6-.522-1.567-.819zM62.093 189.982c.15-.252.724-.192 1.721.15a22.46 22.46 0 0 0 2.49.985c.967.44 1.42.814 1.343 1.102-.074.28-.666.4-1.765.175a23.775 23.775 0 0 1-2.64-1.045c-.963-.598-1.3-1.113-1.149-1.367zM56.874 184.635a.77.77 0 0 1 .8.052l.344.588c.033.294-.113.56-.355.726-.243.166-.524.184-.785-.01l-.387-.664c-.042-.322.112-.559.383-.692z" style="fill:#d1dcf8"></path>
    <circle cx="201.202" cy="99.722" r="11.264" style="fill:#7cd194"></circle>
    <path d="M205.039 105.153a.582.582 0 0 1-.304-.085l-7.822-4.76a.586.586 0 0 1 0-1l7.822-4.757a.586.586 0 0 1 .608 1l-6.999 4.257 7 4.259a.586.586 0 0 1-.305 1.086z" style="fill:#fff"></path>
    <circle cx="205.186" cy="95.051" r="1.711" style="fill:#fff"></circle>
    <circle cx="205.186" cy="104.393" r="1.711" style="fill:#fff"></circle>
    <circle cx="197.217" cy="99.808" r="1.711" style="fill:#fff"></circle>
    <circle cx="56.867" cy="169.123" r="17.234" style="fill:#f3f6fd"></circle>
    <circle cx="56.867" cy="177.808" r="2.531" style="fill:#42c1f4"></circle>
    <circle cx="56.867" cy="159.928" r="2.02" style="fill:#4a5258"></circle>
    <path d="M66.377 176.279h-19.02a11.061 11.061 0 0 0 1.202-5.021v-3.079c0-4.603 3.767-8.487 8.37-8.455a8.256 8.256 0 0 1 4.181 1.165 8.355 8.355 0 0 1 1.631 1.269 8.28 8.28 0 0 1 2.434 5.872v3.228c0 1.749.414 3.468 1.202 5.02z" style="fill:#64d3ff"></path>
    <path d="M47.358 176.278h19.018v1.855H47.358z" style="fill:#4a5258"></path>
    <path d="M66.377 176.279h-19.02c.3-.593.548-1.209.736-1.842.817-.108 1.631-.25 2.435-.44 3.213-.757 6.331-2.31 8.434-4.855a10.55 10.55 0 0 0 1.434-2.271c.69-1.477 1.047-3.128.934-4.76-.026-.37-.125-.79-.22-1.222a8.355 8.355 0 0 1 1.631 1.269 8.28 8.28 0 0 1 2.434 5.872v3.228c0 1.749.414 3.468 1.202 5.02z" style="fill:#42c1f4"></path>
    <path d="m243.437 231.24-4.699 3.224-2.732-1.202s-.068-2.254-.123-5.601c-.027-2.528-.068-4.781-.068-4.918 0-.342 7.021.068 7.349.178.137.04.205 1.584.232 3.442.069 2.76.041 4.631.041 4.877z" style="fill:#fec9ac"></path>
    <g style="opacity:.5">
      <path d="M243.396 226.363a14.28 14.28 0 0 1-6.762 1.366c-.246-.013-.505-.027-.751-.068-.027-2.528-.068-4.781-.068-4.918 0-.342 7.021.068 7.349.178.137.04.205 1.584.232 3.442z" style="fill:#ffab90"></path>
    </g>
    <path d="M245.787 236.48a.86.86 0 0 1-.867.722h-21.162a.89.89 0 0 1-.83-.57c-.317-.857-.741-2.446.243-3.123 1.372-.939 4.28-.072 6.284-1.49 1.995-1.408 4.387-6.202 7.258-2.943 0 0 2.312 3.54 3.882 2.79 1.571-.75 2.745-4.622 4.632-3.142.948.75.867 5.932.56 7.755z" style="fill:#3a4146"></path>
    <path d="m264.96 231.24-4.7 3.224-2.732-1.202s-.069-2.254-.123-5.601c-.028-2.528-.069-4.781-.069-4.918 0-.342 7.022.068 7.35.178.136.04.205 1.584.232 3.442.068 2.76.041 4.631.041 4.877z" style="fill:#fec9ac"></path>
    <g style="opacity:.5">
      <path d="M264.918 226.363a14.28 14.28 0 0 1-6.762 1.366c-.246-.013-.505-.027-.751-.068-.028-2.528-.069-4.781-.069-4.918 0-.342 7.022.068 7.35.178.136.04.205 1.584.232 3.442z" style="fill:#ffab90"></path>
    </g>
    <path d="M267.309 236.48a.86.86 0 0 1-.867.722H245.28a.89.89 0 0 1-.83-.57c-.317-.857-.741-2.446.243-3.123 1.372-.939 4.28-.072 6.283-1.49 1.996-1.408 4.388-6.202 7.26-2.943 0 0 2.31 3.54 3.881 2.79 1.571-.75 2.745-4.622 4.632-3.142.948.75.866 5.932.56 7.755z" style="fill:#3a4146"></path>
    <path d="m231.058 148.547.207 8.898 1.532 67.213s5.788 1.758 9.673 1.424c1.92-.162 3.453-.469 3.75-1.01.92-1.622 2.037-51.437 2.037-51.437s6.31 51.942 6.924 52.05c.207.037 1.442-.045 3.02-.243 3.128-.396 7.599-1.253 8.194-2.596.685-1.569-1.37-46.182-2.353-66.51-.28-6.04-.478-9.934-.478-9.934l-32.506 2.145z" style="fill:#003567"></path>
    <path d="m231.058 148.547.207 8.898c13.224 3.21 26.728.496 32.777-1.109-.28-6.04-.478-9.934-.478-9.934l-32.506 2.145zM242.47 225.657c1.916-.168 3.448-.474 3.755-1.008.919-1.63 2.035-51.445 2.035-51.445s6.306 51.95 6.918 52.058c.208.03 1.443-.05 3.024-.247l-10.395-59.875-5.338 60.517z" style="fill:#022e4f"></path>
    <path d="M195.325 140.565c1.561 3.515 10.619 0 10.619 0s20.378-.243 23.827-6.674c0 0-5.366-1.15-10.6-5.842l-.608 2.346s-13.591 5.73-13.769 5.636c-.177-.084-3.599-2.44-4.58-1.243-.972 1.206.757 2.178.757 2.178s-7.198.094-5.646 3.599z" style="fill:#fec9ac"></path>
    <path d="M216.74 125.58a26.455 26.455 0 0 0 2.43 2.469c5.235 4.692 10.6 5.842 10.6 5.842l-1.532 18.934c18.134 4.87 37.212-1.786 37.212-1.786l-.514-11.652c-6.207.374-12.544-1.29-17.676-4.795-5.076-3.468-8.927-8.581-11.208-14.292-1.738-4.366-2.58-9.058-2.636-13.77-9.572 6.899-16.676 19.05-16.676 19.05z" style="fill:#ea7d20"></path>
    <path d="M233.42 106.53c.053 4.715.892 9.403 2.632 13.766 2.28 5.715 6.13 10.826 11.205 14.297 5.138 3.507 11.475 5.165 17.677 4.796l-.495-7.194c4.66-3.507 6.571-7.789 7.356-10.628.513-1.875.54-3.128.54-3.128s-6.238-9.556-16.514-14.171a28.451 28.451 0 0 0-3.687-1.37 25.965 25.965 0 0 0-5.31-.992c-1.785-.144-3.56.063-5.3.54-1.145.298-2.263.73-3.372 1.254-1.623.757-3.21 1.73-4.733 2.83z" style="fill:#ee984f"></path>
    <path d="M264.44 132.199s-1.114-7.012-1.301-9.889c0 0-13.313 3.886-30.424 0 0 0-1.198 8.141-2.94 11.582l-.14 1.335s29.536 6.259 34.806-3.028z" style="fill:#fff"></path>
    <path d="m264.439 132.195 2.83 2.668 9.529 1.893c4.48-6.319-5.003-15.19-5.003-15.19-.785 2.84-2.696 7.122-7.356 10.629zM253.116 140.933l4.147-.432s-3.371-2.002-4.733-1.948c-1.325.054.36 2.191.586 2.38z" style="fill:#fec9ac"></path>
    <path d="m228.163 133.61 3.188 13.966c.065.29.327.504.635.504h21.948a.66.66 0 0 0 .636-.804l-3.188-13.955a.65.65 0 0 0-.635-.505h-21.948c-.421 0-.73.393-.636.794z" style="fill:#2e363a"></path>
    <path d="M244.895 108.877c5.337.523 7.23-5.98 7.23-5.98-.767-.9-1.028-2.596-1.1-4.047-.081-1.388.027-2.551.027-2.551l-8.077 2.74c0 .235-.01.451-.036.65-.208 2.1-1.416 2.749-1.416 2.749s-1.965 5.916 3.372 6.439z" style="fill:#fec9ac"></path>
    <g style="opacity:.5">
      <path d="M242.939 99.688a4.558 4.558 0 0 0 2.326 1.037c2.695.406 4.552-.64 5.76-1.875-.081-1.388.027-2.551.027-2.551l-8.077 2.74c0 .235-.01.451-.036.65z" style="fill:#ffab90"></path>
    </g>
    <path d="M244.876 99.726c5.815.878 7.712-4.992 7.712-4.992s3.365-1.243 2.776-3.767c-.084-.355-.224-.608-.411-.767-.785-.72-2.29.103-2.748.384 0 0-.019.009-.047.028a1.8 1.8 0 0 0-.093.056l-.01-.019-2.654-7.132s-6.72-1.093-9.067 1.384c-.187.187-.404-.093-.526.131 0 0-1.83 13.656 5.068 14.694z" style="fill:#fec9ac"></path>
    <path d="M240.305 85.33c.673.112 1.328.084 1.804-.056 1.777-.523 2.73.355 3.272.43.542.075.72-.972.72-.972 3.272-.318 4.968 4.884 5.202 5.53.168.476.5.49.752.387.038-.01.075-.028.103-.037.028-.019.047-.028.047-.028.458-.28 1.963-1.103 2.748-.384 1.692-1.084 3.945-10.432-1.318-13.357-4.973-2.767-11.656-1.71-13.32 1.093-1.655 2.805-2.74 2.56-3.506 3.543-1.462 1.874 1.692 3.571 3.496 3.851z" style="fill:#2e363a"></path>
    <path d="M238.97 89.633c-.024 1.639 1.202 3.022 2.733 3.082l.104.002c.671 0 1.31-.257 1.81-.73.57-.541.903-1.322.915-2.144.001-.085-.014-.166-.02-.25.355-.08.705.039.87.12-.029.165-.053.331-.056.502-.023 1.639 1.203 3.022 2.733 3.082l.105.002c.67 0 1.31-.257 1.809-.73.57-.54.904-1.322.916-2.144.024-1.639-1.202-3.022-2.733-3.082-.7-.028-1.39.23-1.914.729a2.921 2.921 0 0 0-.765 1.274c-.222-.1-.597-.219-1.003-.14-.253-1.346-1.348-2.393-2.675-2.445a2.607 2.607 0 0 0-1.913.728c-.57.54-.904 1.321-.917 2.144zm6.73.587c.01-.722.302-1.406.799-1.877a2.25 2.25 0 0 1 1.554-.629l.089.002c1.33.053 2.395 1.265 2.373 2.704a2.64 2.64 0 0 1-.8 1.877 2.237 2.237 0 0 1-1.64.626c-1.331-.052-2.396-1.265-2.374-2.703zm-6.356-.582a2.64 2.64 0 0 1 .8-1.878 2.247 2.247 0 0 1 1.552-.628l.089.002c1.33.053 2.395 1.265 2.373 2.704a2.64 2.64 0 0 1-.799 1.877 2.25 2.25 0 0 1-1.641.627c-1.331-.053-2.396-1.266-2.374-2.704z" style="fill:#f3f6fd"></path>
    <ellipse cx="247.098" cy="90.59" rx=".61" ry=".852" style="fill:#4f2d2b"></ellipse>
    <ellipse cx="242.127" cy="90.205" rx=".61" ry=".852" style="fill:#4f2d2b"></ellipse>
    <path d="M248.848 89.218c-.058.05-.216-.07-.498-.275-.224-.19-.487-.312-.758-.304-.316-.019-.473.076-.526.013-.051-.036.066-.294.518-.349.374-.012.724.16.982.382.285.29.335.488.282.533zM241.004 87.881c-.034-.048.123-.263.595-.342.395-.034.803.064 1.137.288.412.294.344.675.26.64-.078-.008-.107-.18-.447-.36a1.45 1.45 0 0 0-.923-.233c-.383.005-.582.082-.622.007zM244.965 94.21c.064.038-.404.37-.958-.273-.133-.365-.007-.625.035-.888.062-.264.14-.52.215-.773.21-.584.318-.865.392-.855.072.01.084.34-.07.95-.075.255-.151.505-.21.755-.054.245-.126.529-.056.67.069.17.332.286.436.33.124.05.201.047.216.085zM247.454 94.882c.054.027.02.32-.334.782a2.06 2.06 0 0 1-1.284.701c-.57.081-.858-.065-.839-.13.014-.079.275-.069.779-.2a1.716 1.716 0 0 0 1.093-.595c.357-.368.511-.6.585-.558z" style="fill:#4f2d2b"></path>
    <path d="M238.155 103.698c1.033 3.301 1.836 7.738 4.018 10.995l2.722-5.863c-2.274-1.653-3.674-3.668-3.374-6.384a19.3 19.3 0 0 0-3.366 1.252zM244.895 108.877l1.337 6.038c1.159.112 9.142-8.067 9.59-10.647a29.417 29.417 0 0 0-3.692-1.373s-2.243 4.71-7.235 5.982z" style="fill:#e4ecf9"></path>
    <path d="M228.282 129.986c.03.055-.15.258-.645.37-.494.112-1.245.061-2.16-.234-1.544-.555-2.862-1.562-3.976-2.697-1.257-1.402-1.671-2.235-1.57-2.316.125-.105.752.58 2.05 1.844 1.07 1.091 2.31 2.028 3.723 2.536.825.327 1.473.457 1.895.469.424.014.648-.046.683.028zM270.093 120.407c.121.046.015.79-.653 2.115a17.462 17.462 0 0 1-2.186 3.051c-.517.521-.939.899-1.316 1.066-.371.165-.59.113-.6.048-.017-.078.142-.162.383-.385.242-.214.573-.629 1.032-1.178a16.777 16.777 0 0 0 2.101-2.932c.746-1.212 1.087-1.847 1.239-1.785z" style="fill:#fff"></path>
    <path d="M253.236 90.816c.013-.068.11-.13.313-.121.182.013.565.086.807.55.156.389.085.794-.061 1.11a2.729 2.729 0 0 1-.57.794c-.27.268-.552.419-.777.418-.215.01-.313-.069-.315-.139.004-.17.28-.212.607-.744.373-.362.639-.863.493-1.185-.035-.183-.2-.325-.318-.427-.12-.103-.193-.18-.179-.256z" style="fill:#ffab90"></path>
    <path d="M256.632 145.972c3.633-.153 15.694-2.893 20.166-9.213l-9.529-1.893-10.006 5.635-4.147.432c-.28-.09-5.03-1.91-5.436-.432-1.316 4.84 5.32 5.634 8.952 5.471z" style="fill:#fec9ac"></path>
    <path d="m30.656 79.061 21.392-.463L22 62.798z" style="fill:#e4ecf9"></path>
    <path d="m43.015 78.791-6.888.149s4.795 5.787 4.843 5.84c.07.013 3.634-6.02 3.634-6.02s-17.5-11.612-18.659-12.36c1.053.778 17.07 12.391 17.07 12.391z" style="fill:#bbcaea"></path>
  </g>
</svg>
