<svg xmlns="http://www.w3.org/2000/svg" enable-background="new 0 0 3000 3000" viewBox="0 0 3000 3000" id="get-in-touch">
  <g>
    <g>
      <g>
        <g>
          <path fill="#2e2d33" d="M2207.18,1344.31v1138.93c0,3.3-2.67,5.98-5.98,5.98H313.8c-3.3,0-5.98-2.68-5.98-5.98V1344.31
					c0-0.69,0.11-1.35,0.34-1.97c0.05-0.16,0.11-0.31,0.18-0.46c0.01-0.04,0.03-0.08,0.06-0.12c0.05-0.13,0.11-0.26,0.19-0.38
					c0.07-0.13,0.15-0.26,0.24-0.39c0.01-0.02,0.02-0.03,0.03-0.05c0.08-0.12,0.17-0.23,0.26-0.35c0.05-0.07,0.1-0.13,0.16-0.19
					c0.08-0.1,0.17-0.19,0.26-0.28c0.03-0.04,0.06-0.07,0.09-0.09c0.14-0.13,0.28-0.26,0.42-0.38c1.03-0.83,2.33-1.32,3.75-1.32
					c3.3,0,5.98,2.68,5.98,5.98v1132.96h1875.45V1344.31c0-3.3,2.68-5.98,5.98-5.98c1.44,0,2.77,0.51,3.8,1.36l0.14,0.12
					c0.01,0.01,0.02,0.02,0.03,0.03l0.17,0.17c0.04,0.02,0.08,0.06,0.12,0.11c0.09,0.09,0.18,0.18,0.26,0.28
					c0.06,0.06,0.11,0.12,0.16,0.19c0.09,0.12,0.18,0.23,0.26,0.35c0.01,0.02,0.02,0.03,0.03,0.05c0.09,0.13,0.17,0.26,0.24,0.39
					c0.08,0.12,0.14,0.25,0.19,0.38c0.03,0.04,0.05,0.08,0.06,0.12c0.07,0.15,0.13,0.3,0.18,0.46
					C2207.07,1342.96,2207.18,1343.63,2207.18,1344.31z"></path>
        </g>
        <g>
          <path fill="#2e2d33" d="M1510.19,744.3c-1.4,0-2.8-0.49-3.94-1.48L1257.55,524.7l-248.71,218.11c-2.48,2.18-6.26,1.93-8.43-0.55
					c-2.18-2.48-1.93-6.26,0.55-8.43l252.65-221.57c2.25-1.98,5.63-1.98,7.88,0l252.65,221.57c2.48,2.18,2.73,5.95,0.55,8.43
					C1513.51,743.61,1511.85,744.3,1510.19,744.3z"></path>
        </g>
        <g>
          <path fill="#2e2d33" d="M2207.18,1344.31c0,0.17,0,0.35-0.02,0.53c-0.17,1.9-1.24,3.61-2.87,4.59l-9.06,5.47l-300.46,181.34
					c-0.17,0.12-0.35,0.23-0.54,0.33l-284.37,171.56l-224.33,135.37l-124.9,75.39c-0.95,0.58-2.02,0.86-3.09,0.86
					c-1.06,0-2.14-0.28-3.09-0.86l-124.98-75.39l-224.34-135.37l-284.65-171.81L319.78,1354.9l-9.06-5.47
					c-1.63-0.99-2.7-2.69-2.87-4.59c-0.02-0.18-0.02-0.36-0.02-0.53c0-0.69,0.11-1.35,0.34-1.97c0.05-0.16,0.11-0.31,0.18-0.46
					c0.01-0.04,0.03-0.08,0.06-0.12c0.05-0.13,0.11-0.26,0.19-0.38c0.07-0.13,0.15-0.26,0.24-0.39c0.01-0.02,0.02-0.03,0.03-0.05
					c0.08-0.12,0.17-0.23,0.26-0.35c0.05-0.07,0.1-0.13,0.16-0.19c0.08-0.1,0.17-0.19,0.26-0.28c0.03-0.04,0.06-0.07,0.09-0.09
					c0.07-0.08,0.15-0.15,0.23-0.22l0.19-0.16l307.56-269.72l2.03-1.78c2.49-2.18,6.26-1.93,8.44,0.55c1,1.14,1.48,2.55,1.48,3.94
					c0,1.66-0.69,3.32-2.03,4.49l-9.92,8.7l-293.72,257.58l293.72,177.2l9.06,5.47l2.89,1.74l281.76,170.08l224.34,135.37
					l121.89,73.53l121.81-73.53l224.34-135.37l281.75-169.99l2.89-1.74l9.06-5.47l293.72-177.29l-293.72-257.58l-9.91-8.7
					c-2.48-2.17-2.73-5.95-0.56-8.44c2.18-2.48,5.96-2.72,8.44-0.55l2.03,1.78l307.61,269.76l0.14,0.12
					c0.01,0.01,0.02,0.02,0.03,0.03l0.17,0.17c0.04,0.02,0.08,0.06,0.12,0.11c0.09,0.09,0.18,0.18,0.26,0.28
					c0.06,0.06,0.11,0.12,0.16,0.19c0.09,0.12,0.18,0.23,0.26,0.35c0.01,0.02,0.02,0.03,0.03,0.05c0.09,0.13,0.17,0.26,0.24,0.39
					c0.08,0.12,0.14,0.25,0.19,0.38c0.03,0.04,0.05,0.08,0.06,0.12c0.07,0.15,0.13,0.3,0.18,0.46
					C2207.07,1342.96,2207.18,1343.63,2207.18,1344.31z"></path>
        </g>
      </g>
      <g>
        <path fill="#2e2d33" d="M1897.4,738.32v792.97c0,2.06-1.05,3.88-2.63,4.95c-0.17,0.12-0.35,0.23-0.54,0.33
				c-0.84,0.45-1.79,0.7-2.81,0.7c-3.3,0-5.98-2.68-5.98-5.98v-787H629.55v786.91c0,3.3-2.68,5.98-5.98,5.98
				c-3.3,0-5.98-2.68-5.98-5.98V738.32c0-3.3,2.68-5.98,5.98-5.98h1267.85C1894.73,732.35,1897.4,735.03,1897.4,738.32z"></path>
      </g>
      <g>
        <path fill="#fff" d="M1572.16,1116.17c-11.31-30.79-28.56-56.91-51.77-78.33c-23.21-21.42-52.61-38.02-88.15-49.77
				c-35.56-11.75-77.73-17.63-126.53-17.63c-41.95,0-79.52,4.31-112.69,12.95c-33.18,8.62-62.63,20.46-88.37,35.48
				c-25.73,15.03-48.05,32.59-66.95,52.67c-18.9,20.09-34.97,41.44-48.2,64.05c-13.24,22.62-24.03,45.74-32.36,69.41
				c-8.33,23.65-14.8,46.86-19.41,69.62c-4.62,22.77-7.74,44.19-9.37,64.27c-1.63,20.09-2.46,37.87-2.46,53.34
				c0,42.25,5.36,80.48,16.08,114.7c10.71,34.21,28.19,63.52,52.44,87.92c24.25,24.4,55.63,43.14,94.18,56.23
				c38.53,13.1,85.61,19.64,141.25,19.64c23.21,0,44.48-1.05,63.82-3.13c19.34-2.08,36.22-4.61,50.66-7.58
				c14.43-2.98,25.88-5.96,34.36-8.93c8.49-2.98,13.61-5.21,15.4-6.69c1.79-1.48,3.2-3.13,4.24-4.91c1.05-1.78,1.85-3.79,2.46-6.03
				c0.59-2.23,0.96-4.68,1.12-7.36c0.15-2.68,0.22-6.11,0.22-10.27c0-5.06-0.16-9.3-0.45-12.72c-0.3-3.43-0.83-6.25-1.56-8.48
				c-0.74-2.23-1.78-3.86-3.12-4.91c-1.34-1.04-2.91-1.55-4.69-1.55c-2.98,0-8.48,1.27-16.51,3.8c-8.04,2.52-18.52,5.2-31.46,8.03
				c-12.95,2.83-28.19,5.51-45.75,8.04c-17.56,2.53-37.2,3.79-58.91,3.79c-47.9,0-87.63-5.51-119.16-16.51
				c-31.54-11.01-56.68-26.48-75.42-46.42c-18.75-19.94-31.92-43.59-39.5-70.96c-7.59-27.38-11.38-57.58-11.38-90.6
				c0-11.6,0.52-25.74,1.56-42.41c1.04-16.66,3.19-34.44,6.47-53.33c3.27-18.89,8.03-38.53,14.28-58.91
				c6.24-20.39,14.5-40.32,24.77-59.81c10.26-19.49,22.83-37.87,37.71-55.12c14.88-17.26,32.74-32.51,53.56-45.75
				c20.83-13.24,44.93-23.72,72.31-31.46c27.37-7.74,58.61-11.6,93.72-11.6c42.85,0,78.48,5.28,106.89,15.85
				c28.41,10.56,51.1,24.69,68.06,42.4c16.96,17.7,28.94,38.23,35.93,61.59c6.98,23.35,10.49,47.98,10.49,73.87
				c0,14.87-0.75,30.35-2.23,46.41c-1.49,16.06-3.87,31.76-7.14,47.09c-3.29,15.33-7.44,29.9-12.5,43.74
				c-5.07,13.83-11.31,25.95-18.74,36.37c-7.44,10.42-16.08,18.67-25.88,24.77c-9.82,6.11-20.83,9.15-33.04,9.15
				c-19.93,0-33.47-6.18-40.61-18.53c-7.14-12.35-8.33-31.46-3.57-57.35l39.72-205.3c0.6-2.09,0.52-3.87-0.22-5.36
				c-0.75-1.49-2.16-2.76-4.24-3.79c-2.08-1.05-4.98-1.86-8.7-2.46c-3.73-0.59-8.26-0.89-13.61-0.89c-11.3,0-19.04,1.04-23.21,3.12
				c-4.17,2.09-6.85,5.21-8.03,9.38l-7.59,39.27c-7.75-9.82-15.33-18.3-22.77-25.44c-7.44-7.14-15.17-13.1-23.21-17.86
				c-8.04-4.76-16.44-8.26-25.22-10.49c-8.77-2.23-17.93-3.35-27.45-3.35c-22.61,0-42.4,4.09-59.36,12.27
				c-16.96,8.19-31.62,18.89-43.96,32.14c-12.35,13.24-22.7,28.26-31.02,45.08c-8.33,16.81-14.88,33.99-19.63,51.55
				c-4.76,17.56-8.2,34.59-10.27,51.1c-2.08,16.51-3.13,31.16-3.13,43.96c0,12.5,0.74,24.1,2.23,34.82
				c1.49,10.71,4.02,20.53,7.59,29.45c3.58,8.92,8.04,16.96,13.39,24.1c5.36,7.14,11.83,13.17,19.42,18.08
				c7.59,4.91,16.28,8.63,26.1,11.15c9.82,2.53,21.12,3.8,33.92,3.8c9.82,0,19.86-1.19,30.13-3.57c10.27-2.38,20.76-6.25,31.46-11.6
				c10.72-5.36,21.65-12.28,32.81-20.76c11.15-8.48,22.69-18.67,34.59-30.58c2.08,11.02,5.88,20.76,11.38,29.23
				c5.51,8.48,12.27,15.4,20.31,20.76c8.03,5.36,17.25,9.45,27.67,12.28c10.42,2.82,21.72,4.23,33.92,4.23
				c22.91,0,43.21-3.8,60.92-11.37c17.7-7.59,33.26-18.08,46.64-31.47c13.39-13.38,24.7-28.93,33.92-46.64
				c9.21-17.7,16.66-36.52,22.31-56.46c5.65-19.93,9.75-40.47,12.28-61.59c2.52-21.12,3.8-41.8,3.8-62.04
				C1589.12,1181.26,1583.46,1146.97,1572.16,1116.17z M1308.83,1364.09c-11.31,11.61-21.64,21.65-31.01,30.13
				c-9.37,8.48-18.24,15.33-26.56,20.54c-8.33,5.21-16.22,9.07-23.65,11.6c-7.44,2.53-14.73,3.8-21.87,3.8
				c-18.74,0-32.06-5.96-39.94-17.86c-7.89-11.9-11.83-28.86-11.83-50.87c0-9.23,0.67-19.87,2.01-31.92
				c1.33-12.05,3.63-24.47,6.91-37.26c3.28-12.8,7.52-25.3,12.72-37.5c5.21-12.2,11.53-23.14,18.97-32.81
				c7.43-9.67,16.21-17.55,26.33-23.65c10.11-6.09,21.42-9.14,33.92-9.14c15.17,0,28.71,5.06,40.61,15.17
				c11.89,10.12,23.49,24.7,34.81,43.74L1308.83,1364.09z"></path>
        <path fill="#2e2d33" d="M629.55,744.3v783.53l281.76,170.08l224.34,135.37l121.89,73.53l121.81-73.53l224.34-135.37l281.75-169.99
				V744.3H629.55z M1585.32,1281.08c-2.53,21.12-6.63,41.66-12.28,61.59c-5.65,19.94-13.1,38.76-22.31,56.46
				c-9.22,17.71-20.54,33.26-33.92,46.64c-13.38,13.4-28.94,23.88-46.64,31.47c-17.71,7.58-38.02,11.37-60.92,11.37
				c-12.2,0-23.5-1.41-33.92-4.23c-10.42-2.83-19.64-6.92-27.67-12.28c-8.04-5.36-14.8-12.27-20.31-20.76
				c-5.51-8.48-9.3-18.22-11.38-29.23c-11.9,11.9-23.43,22.09-34.59,30.58c-11.15,8.48-22.09,15.4-32.81,20.76
				c-10.71,5.35-21.19,9.22-31.46,11.6c-10.27,2.38-20.31,3.57-30.13,3.57c-12.8,0-24.1-1.27-33.92-3.8
				c-9.82-2.53-18.52-6.24-26.1-11.15c-7.59-4.91-14.06-10.93-19.42-18.08c-5.35-7.14-9.81-15.18-13.39-24.1
				c-3.57-8.92-6.1-18.74-7.59-29.45c-1.49-10.72-2.23-22.32-2.23-34.82c0-12.8,1.05-27.45,3.13-43.96
				c2.07-16.51,5.51-33.54,10.27-51.1c4.75-17.56,11.3-34.74,19.63-51.55c8.33-16.81,18.67-31.84,31.02-45.08
				c12.34-13.25,27-23.95,43.96-32.14c16.96-8.18,36.75-12.27,59.36-12.27c9.52,0,18.67,1.12,27.45,3.35
				c8.77,2.23,17.18,5.73,25.22,10.49c8.04,4.76,15.77,10.72,23.21,17.86c7.44,7.14,15.02,15.62,22.77,25.44l7.59-39.27
				c1.18-4.17,3.85-7.29,8.03-9.38c4.16-2.08,11.9-3.12,23.21-3.12c5.36,0,9.89,0.3,13.61,0.89c3.72,0.6,6.62,1.41,8.7,2.46
				c2.08,1.04,3.5,2.3,4.24,3.79c0.74,1.48,0.82,3.27,0.22,5.36l-39.72,205.3c-4.76,25.88-3.58,45,3.57,57.35
				c7.14,12.35,20.69,18.53,40.61,18.53c12.2,0,23.21-3.05,33.04-9.15c9.81-6.1,18.44-14.35,25.88-24.77
				c7.43-10.42,13.67-22.54,18.74-36.37c5.06-13.84,9.21-28.41,12.5-43.74c3.27-15.33,5.65-31.02,7.14-47.09
				c1.48-16.06,2.23-31.54,2.23-46.41c0-25.88-3.51-50.52-10.49-73.87c-6.99-23.36-18.97-43.89-35.93-61.59
				c-16.96-17.71-39.65-31.84-68.06-42.4c-28.41-10.57-64.05-15.85-106.89-15.85c-35.11,0-66.35,3.86-93.72,11.6
				c-27.38,7.74-51.48,18.23-72.31,31.46c-20.83,13.25-38.68,28.49-53.56,45.75c-14.88,17.25-27.45,35.63-37.71,55.12
				c-10.27,19.49-18.53,39.42-24.77,59.81c-6.25,20.38-11.02,40.02-14.28,58.91c-3.29,18.89-5.44,36.67-6.47,53.33
				c-1.05,16.66-1.56,30.81-1.56,42.41c0,33.03,3.79,63.22,11.38,90.6c7.58,27.37,20.75,51.02,39.5,70.96
				c18.74,19.94,43.88,35.41,75.42,46.42c31.53,11.01,71.26,16.51,119.16,16.51c21.71,0,41.35-1.26,58.91-3.79
				c17.56-2.53,32.81-5.21,45.75-8.04c12.94-2.83,23.43-5.51,31.46-8.03c8.04-2.53,13.54-3.8,16.51-3.8c1.78,0,3.35,0.52,4.69,1.55
				c1.34,1.05,2.38,2.68,3.12,4.91c0.74,2.23,1.26,5.06,1.56,8.48c0.29,3.42,0.45,7.66,0.45,12.72c0,4.16-0.07,7.59-0.22,10.27
				c-0.16,2.68-0.53,5.13-1.12,7.36c-0.61,2.23-1.41,4.24-2.46,6.03c-1.05,1.78-2.45,3.43-4.24,4.91c-1.78,1.48-6.91,3.72-15.4,6.69
				c-8.48,2.98-19.93,5.96-34.36,8.93c-14.44,2.97-31.32,5.5-50.66,7.58c-19.34,2.08-40.61,3.13-63.82,3.13
				c-55.64,0-102.72-6.54-141.25-19.64c-38.54-13.09-69.93-31.83-94.18-56.23c-24.25-24.4-41.73-53.71-52.44-87.92
				c-10.72-34.22-16.08-72.45-16.08-114.7c0-15.48,0.83-33.26,2.46-53.34c1.63-20.08,4.75-41.5,9.37-64.27
				c4.61-22.76,11.08-45.96,19.41-69.62c8.33-23.66,19.12-46.79,32.36-69.41c13.24-22.61,29.3-43.96,48.2-64.05
				c18.89-20.08,41.21-37.64,66.95-52.67c25.74-15.02,55.19-26.85,88.37-35.48c33.18-8.63,70.74-12.95,112.69-12.95
				c48.8,0,90.98,5.88,126.53,17.63c35.55,11.75,64.94,28.34,88.15,49.77c23.21,21.42,40.46,47.54,51.77,78.33
				c11.3,30.79,16.96,65.08,16.96,102.87C1589.12,1239.28,1587.84,1259.96,1585.32,1281.08z"></path>
        <path fill="#2e2d33" d="M1330.25,1248.06l-21.42,116.04c-11.31,11.61-21.64,21.65-31.01,30.13c-9.37,8.48-18.24,15.33-26.56,20.54
				c-8.33,5.21-16.22,9.07-23.65,11.6c-7.44,2.53-14.73,3.8-21.87,3.8c-18.74,0-32.06-5.96-39.94-17.86
				c-7.89-11.9-11.83-28.86-11.83-50.87c0-9.23,0.67-19.87,2.01-31.92c1.33-12.05,3.63-24.47,6.91-37.26
				c3.28-12.8,7.52-25.3,12.72-37.5c5.21-12.2,11.53-23.14,18.97-32.81c7.43-9.67,16.21-17.55,26.33-23.65
				c10.11-6.09,21.42-9.14,33.92-9.14c15.17,0,28.71,5.06,40.61,15.17C1307.33,1214.43,1318.94,1229.01,1330.25,1248.06z"></path>
      </g>
    </g>
    <g>
      <g>
        <g>
          <g>
            <path fill="#2e2d33" d="M560.12,1525.86H67.47c-23.41,0-42.47,19.05-42.47,42.47v878.42c0,23.41,19.05,42.47,42.47,42.47h492.64
						c23.42,0,42.48-19.05,42.48-42.47v-878.42C602.59,1544.92,583.54,1525.86,560.12,1525.86z M590.64,2446.75
						c0,16.82-13.69,30.52-30.53,30.52H67.47c-16.82,0-30.52-13.69-30.52-30.52v-878.42c0-16.83,13.69-30.52,30.52-30.52h492.64
						c16.83,0,30.53,13.68,30.53,30.52V2446.75z"></path>
            <path fill="#fff" d="M36.96,1623.84v767.41h553.69v-767.41H36.96z M466.7,2160.43c-40.84,40.84-95.14,63.33-152.9,63.33
						c-57.75,0-112.05-22.49-152.9-63.33c-40.83-40.83-63.33-95.13-63.33-152.89c0-57.76,22.5-112.05,63.33-152.9
						c40.84-40.84,95.14-63.33,152.9-63.33c57.76,0,112.05,22.49,152.9,63.33c40.83,40.84,63.33,95.14,63.33,152.9
						C530.03,2065.3,507.53,2119.6,466.7,2160.43z"></path>
            <path fill="#2e2d33" d="M36.96 2403.2v43.55c0 16.82 13.69 30.52 30.52 30.52h492.64c16.83 0 30.53-13.69 30.53-30.52v-43.55H36.96zM313.8 2472.02c-17.42 0-31.58-14.17-31.58-31.58 0-17.42 14.16-31.59 31.58-31.59 17.41 0 31.58 14.17 31.58 31.59C345.38 2457.85 331.21 2472.02 313.8 2472.02zM560.12 1537.82H67.47c-16.82 0-30.52 13.68-30.52 30.52v43.55h553.69v-43.55C590.64 1551.5 576.95 1537.82 560.12 1537.82zM360.68 1580.82H265.2c-3.31 0-5.98-2.67-5.98-5.98 0-3.3 2.67-5.98 5.98-5.98h95.48c3.31 0 5.98 2.68 5.98 5.98C366.66 1578.15 363.99 1580.82 360.68 1580.82z"></path>
          </g>
          <g>
            <g>
              <path fill="#2e2d33" d="M602.58,1617.86c0,3.3-2.67,5.98-5.98,5.98H30.98c-3.3,0-5.98-2.68-5.98-5.98c0-3.31,2.68-5.98,5.98-5.98
							h565.63C599.92,1611.88,602.58,1614.55,602.58,1617.86z"></path>
            </g>
            <g>
              <path fill="#2e2d33" d="M602.58,2397.23c0,3.31-2.67,5.98-5.98,5.98H30.98c-3.3,0-5.98-2.67-5.98-5.98c0-3.3,2.68-5.98,5.98-5.98
							h565.63C599.92,2391.25,602.58,2393.93,602.58,2397.23z"></path>
            </g>
          </g>
          <g>
            <g>
              <path fill="#fff" d="M366.66,1574.85c0,3.31-2.67,5.98-5.98,5.98H265.2c-3.31,0-5.98-2.67-5.98-5.98
							c0-3.3,2.67-5.98,5.98-5.98h95.48C363.99,1568.87,366.66,1571.55,366.66,1574.85z"></path>
            </g>
          </g>
        </g>
        <g>
          <path fill="#2e2d33" d="M313.8,2408.85c-17.42,0-31.58,14.17-31.58,31.59c0,17.41,14.16,31.58,31.58,31.58
					c17.41,0,31.58-14.17,31.58-31.58C345.38,2423.02,331.21,2408.85,313.8,2408.85z M313.8,2460.07c-10.83,0-19.63-8.8-19.63-19.63
					c0-10.83,8.8-19.64,19.63-19.64c10.83,0,19.63,8.81,19.63,19.64C333.43,2451.27,324.63,2460.07,313.8,2460.07z"></path>
          <path fill="#fff" d="M333.43,2440.44c0,10.83-8.8,19.63-19.63,19.63c-10.83,0-19.63-8.8-19.63-19.63
					c0-10.83,8.8-19.64,19.63-19.64C324.63,2420.8,333.43,2429.61,333.43,2440.44z"></path>
        </g>
      </g>
      <g>
        <g>
          <g>
            <path fill="#2e2d33" d="M412.6,2071.74c-6.03-10.76-13.99-21.15-23.66-30.92c-6.85-6.93-17.42-8.19-25.7-3.06l-30.01,18.63
						c-0.56,0.34-1.28,0.25-1.76-0.21c-22.52-21.69-40.51-47.82-53.48-77.63c-0.47-1.09-0.09-2.34,0.91-2.98c0-0.01,0-0.01,0-0.01
						l23.81-15.32c9.41-6.07,13.3-17.68,9.44-28.25c-4.38-12-10.8-23.28-19.07-33.51c-10.12-12.52-27.59-15.75-41.53-7.66
						c-25.39,14.69-38.89,35.6-40.15,62.17c-1.14,23.97,7.44,52.09,26.24,85.95c10.11,18.22,22.12,34.65,35.71,48.83
						c26.15,27.3,52.29,40.96,78.14,40.96c17.9,0,35.66-6.55,53.21-19.68C416.28,2100.4,419.67,2084.36,412.6,2071.74z
						 M397.55,2099.49c-37.79,28.26-75.59,21.73-115.57-19.99c-12.88-13.44-24.28-29.03-33.89-46.35
						c-17.44-31.42-25.77-58.2-24.76-79.59c1.08-22.56,12.26-39.69,34.2-52.4c3.27-1.89,6.82-2.8,10.35-2.8
						c6,0,11.87,2.65,15.9,7.64c7.44,9.2,13.21,19.33,17.14,30.1c1.92,5.28,0,11.07-4.68,14.09l-23.81,15.33
						c-5.95,3.82-8.22,11.3-5.41,17.79c13.6,31.27,32.5,58.69,56.16,81.48c4.42,4.26,11.15,4.98,16.34,1.75l30.02-18.62
						c3.51-2.18,7.99-1.64,10.9,1.3c8.91,9,16.22,18.54,21.73,28.36C406.32,2085,404.34,2094.41,397.55,2099.49z"></path>
          </g>
        </g>
        <g>
          <path fill="#2e2d33" d="M466.7,1854.65c-40.84-40.84-95.14-63.33-152.9-63.33c-57.75,0-112.05,22.49-152.9,63.33
					c-40.83,40.84-63.33,95.14-63.33,152.9c0,57.75,22.5,112.05,63.33,152.89c40.84,40.84,95.14,63.33,152.9,63.33
					c57.76,0,112.05-22.49,152.9-63.33c40.83-40.83,63.33-95.13,63.33-152.89C530.03,1949.79,507.53,1895.49,466.7,1854.65z
					 M313.8,2211.81c-112.64,0-204.28-91.64-204.28-204.27c0-112.64,91.64-204.28,204.28-204.28
					c112.63,0,204.28,91.64,204.28,204.28C518.08,2120.17,426.43,2211.81,313.8,2211.81z"></path>
          <path fill="#fff" d="M313.8,1803.27c-112.64,0-204.28,91.64-204.28,204.28c0,112.63,91.64,204.27,204.28,204.27
					c112.63,0,204.28-91.64,204.28-204.27C518.08,1894.9,426.43,1803.27,313.8,1803.27z M404.71,2109.06
					c-17.55,13.13-35.32,19.68-53.21,19.68c-25.85,0-51.99-13.66-78.14-40.96c-13.6-14.18-25.61-30.62-35.71-48.83
					c-18.8-33.86-27.38-61.98-26.24-85.95c1.25-26.56,14.76-47.48,40.15-62.17c13.94-8.09,31.41-4.86,41.53,7.66
					c8.28,10.24,14.69,21.51,19.07,33.51c3.85,10.57-0.03,22.18-9.44,28.25l-23.81,15.32c0,0,0,0,0,0.01
					c-1,0.64-1.37,1.89-0.91,2.98c12.97,29.82,30.96,55.94,53.48,77.63c0.49,0.46,1.21,0.55,1.76,0.21l30.01-18.63
					c8.28-5.13,18.84-3.87,25.7,3.06c9.67,9.77,17.63,20.17,23.66,30.92C419.67,2084.36,416.28,2100.4,404.71,2109.06z"></path>
          <path fill="#2e2d33" d="M397.55,2099.49c-37.79,28.26-75.59,21.73-115.57-19.99c-12.88-13.44-24.28-29.03-33.89-46.35
					c-17.44-31.42-25.77-58.2-24.76-79.59c1.08-22.56,12.26-39.69,34.2-52.4c3.27-1.89,6.82-2.8,10.35-2.8c6,0,11.87,2.65,15.9,7.64
					c7.44,9.2,13.21,19.33,17.14,30.1c1.92,5.28,0,11.07-4.68,14.09l-23.81,15.33c-5.95,3.82-8.22,11.3-5.41,17.79
					c13.6,31.27,32.5,58.69,56.16,81.48c4.42,4.26,11.15,4.98,16.34,1.75l30.02-18.62c3.51-2.18,7.99-1.64,10.9,1.3
					c8.91,9,16.22,18.54,21.73,28.36C406.32,2085,404.34,2094.41,397.55,2099.49z"></path>
        </g>
      </g>
    </g>
    <g>
      <g>
        <path fill="#2e2d33" d="M2560.6,2400.32c-3.19,0-5.84-2.52-5.97-5.74l-0.97-24.32c-0.13-3.3,2.44-6.08,5.73-6.21
				c3.3-0.12,6.08,2.44,6.21,5.73l0.97,24.32c0.13,3.3-2.44,6.08-5.73,6.21C2560.76,2400.32,2560.68,2400.32,2560.6,2400.32z"></path>
      </g>
      <g>
        <path fill="#2e2d33" d="M2625.34,2410.91c-3.23,0-5.89-2.58-5.97-5.83l-0.87-34.92c-0.08-3.3,2.52-6.04,5.82-6.12
				c0.05,0,0.1,0,0.15,0c3.23,0,5.89,2.58,5.97,5.83l0.87,34.92c0.08,3.3-2.52,6.04-5.82,6.12
				C2625.44,2410.91,2625.39,2410.91,2625.34,2410.91z"></path>
      </g>
      <g>
        <path fill="#2e2d33" d="M2636.47,2401.7c-1.08-1.92-3.13-3.09-5.31-3.05c-0.08,0-0.16,0-0.24,0.01c-3.93,0.22-7.84,0.42-11.7,0.55
				c-19.94,0.7-38.53-0.33-52.78-8.3c-1.77-1-3.48-2.1-5.11-3.32c-2.31-1.72-4.73-2.79-7.11-3.21c-3.48-0.59-6.85,0.2-9.62,2.41
				l-81.49,63.09c-0.03,0.02-0.06,0.05-0.1,0.07c-2.97,2.4-5.89,8.51-5.89,12.33c0,14.82,12.05,26.88,26.87,26.89l130.02,0.04
				c0.01,0,0.01,0,0.01,0c9.57,0,18.28-3.87,24.59-10.13c6.32-6.25,10.26-14.89,10.32-24.41
				C2649.02,2440.5,2647.67,2421.66,2636.47,2401.7z M2636.99,2454.62c-0.04,6.25-2.63,11.9-6.78,16.01
				c-4.15,4.1-9.88,6.64-16.17,6.64l-130.03-0.04c-8.17-0.01-14.82-6.6-14.92-14.75c0.17-0.84,1.04-2.65,1.58-3.32l81.3-62.94
				c0.02-0.02,0.05-0.04,0.07-0.06c0.25,0.01,1.04,0.18,2.15,1.02c19.6,14.62,45.88,15.06,73.6,13.62
				c7.96,15.71,9.2,30.31,9.2,42.75V2454.62z"></path>
        <path fill="#2e2d33" d="M2636.99,2453.55v1.08c-0.04,6.25-2.63,11.9-6.78,16.01c-4.15,4.1-9.88,6.64-16.17,6.64l-130.03-0.04
				c-8.17-0.01-14.82-6.6-14.92-14.75c0.17-0.84,1.04-2.65,1.58-3.32l81.3-62.94c0.02-0.02,0.05-0.04,0.07-0.06
				c0.25,0.01,1.04,0.18,2.15,1.02c19.6,14.62,45.88,15.06,73.6,13.62C2635.75,2426.51,2636.99,2441.11,2636.99,2453.55z"></path>
      </g>
      <g>
        <path fill="#2e2d33" d="M2802.6,2400.33c-3.25,0-5.9-2.59-5.97-5.82l-0.95-24.25c-0.13-3.3,2.44-6.08,5.74-6.2
				c3.33-0.15,6.08,2.44,6.2,5.74l0.95,24.32c0,0.08,0,0.16,0,0.23C2808.57,2397.65,2805.9,2400.33,2802.6,2400.33z"></path>
      </g>
      <g>
        <path fill="#2e2d33" d="M2867.34,2410.91c-3.23,0-5.89-2.58-5.97-5.83l-0.87-34.92c-0.08-3.3,2.52-6.04,5.82-6.12
				c3.31-0.05,6.04,2.52,6.12,5.82l0.87,34.92c0.08,3.3-2.52,6.04-5.82,6.12C2867.44,2410.91,2867.39,2410.91,2867.34,2410.91z"></path>
      </g>
      <g>
        <path fill="#2e2d33" d="M2878.47,2401.7c-1.08-1.92-3.12-3.09-5.3-3.05c-0.08,0-0.17,0-0.25,0.01c-3.93,0.22-7.85,0.42-11.7,0.55
				c-19.94,0.7-38.53-0.33-52.78-8.31c-1.77-0.99-3.48-2.09-5.11-3.31c-2.3-1.72-4.73-2.79-7.1-3.21c-3.48-0.6-6.85,0.2-9.62,2.41
				l-81.5,63.09c-0.03,0.02-0.06,0.05-0.09,0.07c-2.97,2.4-5.89,8.51-5.9,12.33c0,14.82,12.05,26.88,26.87,26.89l130.02,0.04
				c0.01,0,0.01,0,0.01,0c9.57,0,18.28-3.87,24.6-10.13c6.32-6.25,10.26-14.89,10.31-24.41
				C2891.02,2440.5,2889.66,2421.65,2878.47,2401.7z M2878.98,2454.62c-0.04,6.25-2.63,11.9-6.78,16.01
				c-4.15,4.1-9.87,6.64-16.17,6.64l-130.02-0.04c-8.18-0.01-14.83-6.6-14.93-14.75c0.17-0.84,1.04-2.65,1.58-3.32l81.3-62.94
				c0.02-0.02,0.05-0.04,0.08-0.06c0.25,0.01,1.04,0.18,2.14,1.02c1.02,0.76,2.06,1.48,3.12,2.16
				c19.22,12.5,44.21,12.83,70.48,11.46c7.96,15.71,9.2,30.31,9.2,42.75V2454.62z"></path>
        <path fill="#2e2d33" d="M2878.98,2453.55v1.08c-0.04,6.25-2.63,11.9-6.78,16.01c-4.15,4.1-9.87,6.64-16.17,6.64l-130.02-0.04
				c-8.18-0.01-14.83-6.6-14.93-14.75c0.17-0.84,1.04-2.65,1.58-3.32l81.3-62.94c0.02-0.02,0.05-0.04,0.08-0.06
				c0.25,0.01,1.04,0.18,2.14,1.02c1.02,0.76,2.06,1.48,3.12,2.16c19.22,12.5,44.21,12.83,70.48,11.46
				C2877.74,2426.51,2878.98,2441.11,2878.98,2453.55z"></path>
      </g>
      <g>
        <g>
          <path fill="#2e2d33" d="M2879.23,2376h-91.7c-3.04,0-5.6-2.29-5.94-5.31l-44.88-401.11c-0.94-6.6-1.68-13.39-2.2-20.2l-19.26-190.3
					l-46.32,159.45c-0.02,0.05-0.03,0.11-0.05,0.16c-8.16,25.44-13.06,51.88-14.56,78.6l-12.18,372.93
					c-0.11,3.22-2.75,5.78-5.97,5.78h-89.03c-3.12,0-5.72-2.4-5.96-5.52l-33.95-439.99c-2.32-30.16,0.1-60.34,7.2-89.7l61.49-254.38
					c0.78-3.21,4-5.18,7.21-4.4c3.21,0.78,5.18,4,4.4,7.21l-61.49,254.38c-6.8,28.15-9.12,57.07-6.9,85.98l33.52,434.47h77.72
					l12-367.21c0-0.05,0-0.09,0.01-0.14c1.55-27.72,6.62-55.17,15.09-81.57l54.88-188.93c0.8-2.75,3.43-4.54,6.28-4.28
					c2.85,0.26,5.11,2.5,5.4,5.35l22.36,221c0,0.05,0.01,0.1,0.01,0.15c0.5,6.6,1.22,13.18,2.13,19.58
					c0.01,0.06,0.02,0.12,0.02,0.18l44.3,395.88h80.47c1.04-67.83,2.54-135.02,3.98-200.06c4.12-185.48,8.02-360.68,2.11-545.38
					c-0.1-3.3,2.48-6.06,5.78-6.16c3.26-0.1,6.06,2.48,6.16,5.78c5.93,185.02,2.03,360.38-2.1,546.02
					c-1.49,66.9-3.03,136.07-4.07,205.86C2885.16,2373.38,2882.5,2376,2879.23,2376z"></path>
        </g>
        <g>
          <path fill="#2e2d33" d="M2604.06,1307.4c-0.88,0.39-1.83,0.84-3,1.41c-0.21,0.11-0.41,0.21-0.62,0.31
					c-0.47,0.23-0.94,0.47-1.4,0.72c-0.03,0.02-0.06,0.04-0.09,0.05c-0.04,0.02-0.09,0.04-0.13,0.06c-0.94,0.5-1.96,1.07-3.3,1.82
					c-0.93,0.53-1.94,0.79-2.95,0.79c-2.08,0-4.09-1.09-5.2-3.03c-0.28-0.5-0.49-1.03-0.62-1.55c-0.19-0.76-0.22-1.53-0.1-2.29
					c0.26-1.74,1.29-3.36,2.95-4.3c1.51-0.86,2.69-1.5,3.79-2.08c0.63-0.34,1.25-0.66,1.88-0.97c0.07-0.03,0.13-0.06,0.2-0.09
					c0.06-0.03,0.08-0.04,0.15-0.08c0.96-0.48,1.81-0.89,2.6-1.25c0.38-0.17,0.74-0.33,1.09-0.48c3.03-1.31,6.54,0.09,7.86,3.12
					C2608.49,1302.58,2607.09,1306.1,2604.06,1307.4z"></path>
        </g>
        <g>
          <path fill="#2e2d33" d="M2953.91,1228.81l-10.77,5.73l-73.13,39.01c0.94,6.21,2.1,15.05,3.54,26.8
					c5.48,45.16,9.65,91.43,12.4,137.53c5.86,98.33,8.62,156.95,8.46,179.21c-0.01,2.1-1.13,4.01-2.9,5.06
					c-0.17,0.12-0.35,0.21-0.54,0.3c-3.69,1.73-7.45,3.34-11.26,4.82c-23.83,9.31-50.12,13.92-79.45,13.92
					c-12.66,0-25.87-0.86-39.71-2.57c-45.06-5.57-92.5-19.48-138.39-32.94c-11.85-3.48-23.97-7.03-36.06-10.45
					c-3.84-1.09-7.69-2.16-11.52-3.22c-1.51-0.42-3.03-0.83-4.53-1.24c-3.03-0.82-4.91-3.85-4.29-6.93
					c7.85-39.27,14.13-101.24,17.39-146.12c2.17-34.66,4.29-89.42,3.98-122.61c-0.11-2.04-0.23-4.47-0.36-7.14
					c-0.03-0.75-0.07-1.5-0.1-2.29c-0.19-4.17-0.39-8.78-0.58-13.31c-0.29-6.85-0.59-13.88-0.85-19.04
					c-13.4-4.3-54.95-19.8-74.13-51.77c-1.16-1.91-1.14-4.3,0.02-6.2l67.95-110.82c13.19-21.5,37.03-34.9,62.3-35.04l24.91-3.21
					l6.03-0.78l5.19-0.67c2.78-0.36,5.36,1.26,6.32,3.76c0.18,0.44,0.31,0.91,0.37,1.4c0.03,0.26,0.05,0.52,0.05,0.78v0.01
					c-0.01,2.96-2.2,5.51-5.21,5.91l-6.22,0.81l-30.29,3.89c-0.25,0.03-0.51,0.05-0.77,0.05c-21.28,0-41.4,11.24-52.5,29.34
					l-65.99,107.62c21.18,31.26,68.77,44.5,69.26,44.63c2.48,0.68,4.25,2.85,4.4,5.41c0.31,5.09,0.69,13.98,1.09,23.4
					c0.07,1.67,0.14,3.37,0.21,5.04c0.21,4.65,0.41,9.2,0.59,13.04c0.08,1.7,0.16,3.28,0.24,4.65c0,0.09,0.01,0.18,0.01,0.27
					c0.32,33.46-1.82,88.69-4,123.67c-3.15,43.28-9.08,102.28-16.54,142.18c1.52,0.42,3.05,0.85,4.58,1.28c0.01,0,0.02,0,0.03,0.01
					c0.06,0.02,0.12,0.04,0.18,0.05c14.14,3.94,28.36,8.1,42.2,12.16c92.7,27.19,180.35,52.89,256.92,18.98
					c-0.14-24.48-2.9-81.74-8.44-174.61c-2.73-45.85-6.88-91.88-12.34-136.79c-1.74-14.4-3.14-24.67-4.13-30.52
					c-0.44-2.56,0.83-5.11,3.13-6.3l1.5-0.79l80.98-43.19l-48.39-96.79c-10.4-20.79-30.35-35.34-53.36-38.9l-84.64-12.33l-4.72-0.69
					c-1.7,0.33-3.54-0.07-4.98-1.28c-2.53-2.1-2.88-5.88-0.77-8.41l0.31-0.38c1.33-1.55,3.38-2.32,5.41-2.02l4.88,0.71l86.28,12.58
					c26.89,4.16,50.16,21.12,62.29,45.38l50.99,101.99C2957.89,1223.78,2956.77,1227.3,2953.91,1228.81z"></path>
        </g>
      </g>
    </g>
    <g>
      <g>
        <path fill="#2e2d33" d="M2874.02,1438.59c5.54,92.87,8.3,150.13,8.44,174.61c-76.58,33.91-164.22,8.21-256.92-18.98
				c-15.41-4.51-31.28-9.17-47-13.49c7.46-39.9,13.4-98.9,16.54-142.18c2.18-34.98,4.32-90.2,4-123.67c0-0.09-0.01-0.18-0.01-0.27
				c-0.08-1.37-0.16-2.95-0.24-4.65c0.04-0.02,0.09-0.04,0.13-0.06c0.03-0.01,0.06-0.03,0.09-0.05c0.47-0.25,0.94-0.49,1.4-0.72
				c0.21-0.1,0.41-0.2,0.62-0.31c1.17-0.58,2.12-1.03,3-1.41c3.03-1.31,4.42-4.82,3.12-7.85c-1.32-3.03-4.83-4.43-7.86-3.12
				c-0.35,0.15-0.71,0.31-1.09,0.48c-0.07-1.67-0.14-3.37-0.21-5.04c-0.4-9.42-0.78-18.32-1.09-23.4c-0.15-2.56-1.92-4.73-4.4-5.41
				c-0.49-0.13-48.07-13.37-69.26-44.63l65.99-107.62c11.09-18.1,31.21-29.34,52.5-29.34c0.26,0,0.52-0.02,0.77-0.05l30.29-3.89
				c1.35,8.75,5.43,16.83,11.8,23.22c7.99,8.03,18.61,12.44,29.92,12.44c0.48,0,0.95,0,1.41-0.02c22.14-0.73,39.76-18.24,40.8-40.19
				l84.64,12.33c23.02,3.57,42.96,18.12,53.36,38.9l48.39,96.79l-80.98,43.19l-1.5,0.79c-2.3,1.2-3.57,3.75-3.13,6.3
				c1,5.85,2.39,16.11,4.13,30.52C2867.13,1346.71,2871.29,1392.74,2874.02,1438.59z"></path>
        <path fill="#2e2d33" d="M2757.09,1036.94l-0.02,2.37l-0.18,21.61l-0.08,10.37c0,0.57-0.02,1.14-0.05,1.69
				c-1.05,21.95-18.66,39.46-40.8,40.19c-0.47,0.02-0.94,0.02-1.41,0.02c-11.3,0-21.93-4.41-29.92-12.44
				c-6.37-6.38-10.45-14.46-11.8-23.22c-0.36-2.21-0.53-4.47-0.52-6.76l0.01-3.04l0.01-2.19l0.01-3.17
				c0.01-3.29,2.69-5.96,5.98-5.96c0.01,0,0.01,0,0.02,0c0.12,0,0.24,0,0.36,0.02h0.03c0.09,0.01,0.19,0.02,0.29,0.02
				c2.99,0.35,5.29,2.89,5.28,5.96l-0.02,6.21l-0.01,2.18v0.01c-0.03,8.12,3.11,15.75,8.83,21.49c5.73,5.76,13.34,8.92,21.45,8.92
				c0.33,0,0.65,0,0.99-0.01c16.32-0.54,29.19-13.73,29.33-30.04l0.17-21.24l0.11-13.1c0.01-1.43,0.53-2.75,1.38-3.77
				c0.25-0.24,0.49-0.48,0.73-0.72c0.03-0.03,0.05-0.05,0.08-0.08c1.03-0.85,2.35-1.35,3.78-1.35h0.05
				C2754.46,1030.94,2757.12,1033.64,2757.09,1036.94z"></path>
      </g>
      <g>
        <path fill="#2e2d33" d="M2799.5,957.27c-0.18,1.43-0.97,6.71-3.92,16.87c-0.29,1.01-0.61,2.07-0.95,3.18
				c-0.79,2.57-3.16,4.22-5.72,4.22c-0.58,0-1.17-0.08-1.74-0.26c-3.16-0.97-4.94-4.3-3.97-7.46c0.81-2.64,1.47-4.97,2.02-7
				c2.02-7.57,2.42-11.07,2.43-11.11c0.02-0.19,0.05-0.4,0.08-0.58c8.08-39.69,4.21-69.11-11.49-87.45
				c-18.2-21.25-46.89-20.19-47.18-20.18c-1.75,0.08-3.49-0.63-4.69-1.93c-20.92-22.78-65.92,5.35-79.22,14.51
				c-6.87,4.73-12.36,10.74-15.87,17.37c-9.82,18.52-4.07,37.41-0.82,45.3c1,2.39,1.76,3.77,1.79,3.82
				c0.53,0.94,0.81,2.01,0.78,3.09c-0.19,8.57,1.63,16.55,5.42,23.73c0.45,0.86,0.69,1.81,0.69,2.79c0,3.3-2.68,5.98-5.98,5.98
				c-2.41,0-4.49-1.42-5.44-3.48c-0.22-0.43-0.44-0.87-0.65-1.31c-3.97-8.12-6-16.99-6.01-26.41c-3.27-6.52-14.43-32.55-0.35-59.11
				c4.4-8.32,11.19-15.8,19.65-21.62c19.15-13.2,65.85-40.5,92.89-14.69c8.66,0.17,35.29,2.55,53.95,24.24
				C2803.48,881.03,2808.29,913.83,2799.5,957.27z"></path>
      </g>
      <g>
        <path fill="#2e2d33" d="M2795.57,974.14c-0.88-1.21-1.88-2.33-3.01-3.33c-2.26-2.01-4.74-3.36-7.35-3.99
				c-1.89-0.46-3.85-0.55-5.85-0.26c-5.59,0.82-11.02,4.57-16.46,11.42c-7.8-12.97-18.48-35.3-15.38-51.06
				c0.36-1.77-0.12-3.62-1.28-5c-1.17-1.39-2.87-2.17-4.71-2.13c-12.76,0.29-48.55-2.3-60.49-17.61c-2.02-2.59-5.76-3.06-8.37-1.05
				c-9.91,7.66-21.51,9.92-35.47,6.91c-1.57-0.34-3.22-0.02-4.56,0.87c-1.34,0.89-2.27,2.28-2.57,3.86c-0.13,0.7-0.8,4.3-1.62,9.97
				c-1.18,8.12-2.68,20.48-3.39,34.63c-1.5,29.9,0.52,67.79,16.57,90.59c6.47,9.2,14.76,15.36,24.65,18.35
				c1.94,0.6,3.95,1.07,6.03,1.41c0.14,0.03,0.27,0.05,0.41,0.07c0.34,0.06,4.51,0.74,11.11,0.83h0.43
				c0.35,0.01,0.71,0.01,1.07,0.01c6.81,0,15.85-0.64,25.78-3.06c10.14-2.45,22.26-7.06,33.91-15.64
				c4.11-3.03,8.17-6.54,12.04-10.64c5.36-5.63,10.39-12.35,14.82-20.37c3.66,0.1,8.87-0.53,14.01-3.75
				c6.89-4.32,11.44-11.92,13.52-22.58C2800.72,985.95,2799.27,979.22,2795.57,974.14z M2787.69,990.34
				c-1.39,7.2-4.09,12.13-8.02,14.66c-2.53,1.63-5.23,1.99-7.13,1.99c-1.49,0-2.49-0.23-2.49-0.23c-2.73-0.73-5.59,0.57-6.86,3.08
				c-4.37,8.66-9.67,16.13-15.86,22.44c-0.27,0.27-0.54,0.54-0.81,0.8c-10.24,10.14-22.88,17.1-37.79,20.8
				c-12.67,3.14-23.84,3-29.72,2.59c-0.11-0.01-0.22-0.01-0.33-0.02c-2.53-0.19-3.99-0.42-4.05-0.43
				c-9.63-1.52-17.23-6.4-23.21-14.91c-22.16-31.47-13.68-99.99-10.56-120.31c12.88,1.6,24.48-0.76,34.63-7.07
				c15.92,14.7,46.06,17.47,59.56,17.95c-0.7,27.16,21.77,59.03,22.82,60.48c1.16,1.63,3.07,2.58,5.06,2.51
				c2-0.07,3.83-1.13,4.88-2.83c7.06-11.41,11.65-13.21,13.3-13.45c0.8-0.11,1.92-0.06,3.53,1.36
				C2787.33,982.14,2788.5,986.2,2787.69,990.34z"></path>
        <path fill="#2e2d33" d="M2787.73,955.14c-0.03,0.18-0.06,0.39-0.08,0.58c-0.01,0.04-0.41,3.54-2.43,11.11
				c-1.89-0.46-3.85-0.55-5.85-0.26c-5.59,0.82-11.02,4.57-16.46,11.42c-7.8-12.97-18.48-35.3-15.38-51.06
				c0.36-1.77-0.12-3.62-1.28-5c-1.17-1.39-2.87-2.17-4.71-2.13c-12.76,0.29-48.55-2.3-60.49-17.61c-2.02-2.59-5.76-3.06-8.37-1.05
				c-9.91,7.66-21.51,9.92-35.47,6.91c-1.57-0.34-3.22-0.02-4.56,0.87c-1.34,0.89-2.27,2.28-2.57,3.86c-0.13,0.7-0.8,4.3-1.62,9.97
				c-3.26-7.89-9-26.77,0.82-45.3c3.52-6.63,9-12.64,15.87-17.37c13.3-9.16,58.29-37.29,79.22-14.51c1.21,1.3,2.94,2.01,4.69,1.93
				c0.29-0.01,28.98-1.08,47.18,20.18C2791.94,886.03,2795.8,915.45,2787.73,955.14z"></path>
      </g>
    </g>
    <g>
      <path fill="#2e2d33" d="M2945.71,1226.65c-0.71-1.46-1.98-2.57-3.53-3.07c-1.54-0.51-3.23-0.36-4.66,0.41l-75.41,40.23
			c-2.59,1.38-3.79,4.44-2.84,7.22l20.73,60.2c-2.6,0.09-5.22,0.13-7.86,0.13c-44.18,0-98.5-12.41-175.97-40.19
			c-0.06-0.03-0.13-0.05-0.2-0.07c-2.34-0.75-57.98-17.99-106.32,9.85c-0.6,0.33-1.26,0.7-1.91,1.11c-5.6,3.45-8.33,9.99-6.77,16.37
			c1.04,4.02,3.57,7.3,7.02,9.23c0.98,0.56,2.02,1.01,3.14,1.32c2.25,0.72,4.82,0.87,7.67,0.17c0.27-0.07,0.54-0.14,0.82-0.22
			l7.01-2.12l-6.48,7.5c-4.02,4.68-4.35,11.47-0.87,16.43c2.48,3.64,6.62,5.8,11.08,5.8c2.74,0,5.35-0.78,7.49-2.24l8.41-5.61
			l-3.11,5.96c-3.61,6.87-1.25,15.43,5.3,19.42c2.3,1.44,4.97,2.21,7.72,2.21c3.47,0,6.84-1.24,9.49-3.46l20.22-16.86
			c2.42-1.99,5.73-2.28,8.4-0.74c23.91,13.86,109.31,59.63,204.62,66.26c7.78,0.56,15.51,0.84,23.11,0.84
			c7.37,0,14.63-0.26,21.73-0.79c23.14-1.62,42.61-18.47,47.36-40.97C2977.98,1348.54,2979.19,1295.43,2945.71,1226.65z
			 M2959.38,1378.49C2959.38,1378.49,2959.38,1378.49,2959.38,1378.49c-3.66,17.32-18.66,30.29-36.52,31.54
			c-13.87,1.03-28.38,1.01-43.14-0.05c-92.74-6.45-176.11-51.14-199.48-64.7c-3.03-1.73-6.34-2.59-9.65-2.59
			c-4.38,0-8.73,1.51-12.35,4.47l-20.25,16.91c-0.9,0.74-2.2,0.92-3.26,0.25c-1.27-0.78-1.71-2.38-1.01-3.73l13.95-26.68
			c1.27-2.42,0.74-5.39-1.29-7.21s-5.04-2.04-7.31-0.53l-27.92,18.62c-0.08,0.06-0.3,0.2-0.81,0.2c-0.37,0-0.87-0.1-1.25-0.66
			c-0.38-0.53-0.33-1.32,0.09-1.82l19.94-23.08c1.74-2.01,1.94-4.93,0.49-7.16c-1.44-2.23-4.19-3.24-6.73-2.46l-26.7,8.07
			c-0.54,0.17-0.83,0.17-0.89,0.17c-0.36,0-0.52-0.05-0.52-0.05c-0.1-0.03-0.19-0.06-0.29-0.09c-0.98-0.27-1.68-1.03-1.93-1.99
			c-0.31-1.24,0.28-2.57,1.5-3.33c0.46-0.29,0.92-0.53,1.36-0.78c0.05-0.03,0.09-0.05,0.13-0.07c42.9-24.75,94.35-9.6,96.71-8.88
			c78.76,28.23,134.28,40.84,179.86,40.84c5.61,0,11.2-0.19,16.58-0.64c1.83-0.15,3.5-1.15,4.51-2.69c1.01-1.54,1.24-3.47,0.65-5.21
			l-21.63-62.82l65.4-34.89C2966.89,1300.46,2965.71,1348.77,2959.38,1378.49z"></path>
      <path fill="#fff" d="M2959.38,1378.49C2959.38,1378.49,2959.38,1378.49,2959.38,1378.49c-3.66,17.32-18.66,30.29-36.52,31.54
			c-13.87,1.03-28.38,1.01-43.14-0.05c-92.74-6.45-176.11-51.14-199.48-64.7c-3.03-1.73-6.34-2.59-9.65-2.59
			c-4.38,0-8.73,1.51-12.35,4.47l-20.25,16.91c-0.9,0.74-2.2,0.92-3.26,0.25c-1.27-0.78-1.71-2.38-1.01-3.73l13.95-26.68
			c1.27-2.42,0.74-5.39-1.29-7.21s-5.04-2.04-7.31-0.53l-27.92,18.62c-0.08,0.06-0.3,0.2-0.81,0.2c-0.37,0-0.87-0.1-1.25-0.66
			c-0.38-0.53-0.33-1.32,0.09-1.82l19.94-23.08c1.74-2.01,1.94-4.93,0.49-7.16c-1.44-2.23-4.19-3.24-6.73-2.46l-26.7,8.07
			c-0.54,0.17-0.83,0.17-0.89,0.17c-0.36,0-0.52-0.05-0.52-0.05c-0.1-0.03-0.19-0.06-0.29-0.09c-0.98-0.27-1.68-1.03-1.93-1.99
			c-0.31-1.24,0.28-2.57,1.5-3.33c0.46-0.29,0.92-0.53,1.36-0.78c0.05-0.03,0.09-0.05,0.13-0.07c42.9-24.75,94.35-9.6,96.71-8.88
			c78.76,28.23,134.28,40.84,179.86,40.84c5.61,0,11.2-0.19,16.58-0.64c1.83-0.15,3.5-1.15,4.51-2.69c1.01-1.54,1.24-3.47,0.65-5.21
			l-21.63-62.82l65.4-34.89C2966.89,1300.46,2965.71,1348.77,2959.38,1378.49z"></path>
    </g>
    <g>
      <g>
        <path fill="#2e2d33" d="M2597.8,1334.94c-22.22,28.62-42.43,46.29-56.47,56.57c-1.3,0.95-2.53,1.82-3.72,2.65
				c-1.04,0.72-2.22,1.06-3.41,1.06c-1.88,0-3.74-0.9-4.91-2.57c-0.27-0.39-0.49-0.8-0.65-1.21l-0.17-0.49
				c-0.72-2.41,0.15-5.1,2.32-6.61c1.97-1.37,4.1-2.92,6.38-4.65c13.19-10.04,31.27-26.45,51.17-52.08
				c2.02-2.61,5.78-3.08,8.39-1.06C2599.35,1328.58,2599.82,1332.33,2597.8,1334.94z"></path>
      </g>
      <g>
        <path fill="#2e2d33" d="M2544.68,1244.12c-4.49,22.01-13.28,51.82-29.86,71.63c-0.77,0.94-1.57,1.85-2.39,2.74
				c-1.17,1.28-2.79,1.93-4.4,1.93c-1.44,0-2.89-0.52-4.04-1.57c-0.75-0.69-1.28-1.52-1.58-2.42l-0.08-0.23
				c-0.6-1.96-0.17-4.18,1.31-5.8c2.3-2.5,4.45-5.26,6.45-8.19c12.9-18.87,19.77-45.2,22.88-60.48c0.67-3.23,3.82-5.32,7.05-4.66
				C2543.25,1237.74,2545.33,1240.9,2544.68,1244.12z"></path>
      </g>
      <g>
        <g>
          <g>
            <path fill="#2e2d33" d="M2553.08,1432.7c-1.13,1.57-2.94,2.52-4.88,2.52h-217.2c-2.88,0-5.29-2.04-5.86-4.76
						c0-0.05-0.01-0.09-0.02-0.14c-0.07-0.35-0.1-0.71-0.1-1.08c0-3.31,2.68-5.98,5.98-5.98h208.78l-11.13-31.83l-0.17-0.49
						l-26.08-74.53l-0.08-0.23l-30.59-87.4h-267.71l52.79,153.15l3.72,10.78c0.54,1.55,0.4,3.18-0.26,4.54
						c-0.01,0.02-0.02,0.04-0.04,0.07c-0.68,1.35-1.85,2.45-3.4,2.99c-3.13,1.08-6.52-0.58-7.6-3.7l-0.82-2.38l-58.42-169.46
						c-0.63-1.83-0.34-3.84,0.79-5.42c1.12-1.57,2.93-2.51,4.86-2.51h280.33c2.54,0,4.8,1.6,5.65,4l28.47,81.37l4.73,13.53
						l22.37,63.94l4.14,11.82l11.1,31.75l1.4,4C2554.49,1429.1,2554.2,1431.12,2553.08,1432.7z"></path>
          </g>
          <g>
            <path fill="#2e2d33" d="M2554.18,1447.09c0,3.3-2.66,5.97-5.97,5.98h-229.5c-3.31,0-5.98-2.68-5.98-5.98
						c0-3.3,2.67-5.98,5.98-5.98h229.49C2551.51,1441.11,2554.18,1443.79,2554.18,1447.09z"></path>
          </g>
          <g>
            <path fill="#2e2d33" d="M2746.96,1423.26h-198.75c-3.31,0-5.98,2.68-5.98,5.98v17.85c0,3.31,2.66,5.97,5.96,5.98h198.76
						c3.3,0,5.98-2.67,5.98-5.98v-17.85C2752.94,1425.94,2750.26,1423.26,2746.96,1423.26z M2740.99,1441.11h-186.8v-5.9h186.8
						V1441.11z"></path>
            <rect width="186.8" height="5.9" x="2554.19" y="1435.21" fill="#fff"></rect>
          </g>
        </g>
        <g>
          <path fill="#2e2d33" d="M2371.92,1298.84c-14.99,0-27.19,12.2-27.19,27.19c0,15,12.2,27.2,27.19,27.2c15,0,27.2-12.2,27.2-27.2
					C2399.12,1311.04,2386.92,1298.84,2371.92,1298.84z M2371.92,1341.28c-8.41,0-15.24-6.84-15.24-15.25
					c0-8.41,6.83-15.24,15.24-15.24c8.41,0,15.25,6.83,15.25,15.24C2387.17,1334.43,2380.33,1341.28,2371.92,1341.28z"></path>
        </g>
      </g>
      <g>
        <path fill="#2e2d33" d="M2336.87,1428.1c-0.32-1.72-0.94-3.36-1.8-4.83c-1.35-2.34-3.34-4.3-5.77-5.66
				c-2.58-1.44-5.48-2.08-8.36-1.9c3.2-4.53,3.02-10.79-0.62-15.14c-2.2-2.63-5.42-4.25-8.84-4.44c-0.58-0.04-1.16-0.03-1.72,0.02
				c1.02-1.99,1.5-4.11,1.5-6.21c0-4.25-2.01-8.38-5.72-11.04c-3.04-2.18-6.89-3.02-10.56-2.3c-2.43,0.48-4.67,1.61-6.48,3.24
				c-0.75-3.3-2.68-6.3-5.57-8.36c-5.85-4.15-13.86-3.26-18.64,2.08l-7.49,8.38l-1.29,1.44c-2.96,3.32-5.34,6.95-7.1,10.85
				c-4.43,9.72-5.11,21.04-1.84,32.94l5.27,19.14c3.59,13.07,16.61,22.94,29.7,22.94c0.76,0,1.51-0.03,2.26-0.1
				c15.14-1.34,27.88-8.76,37-16.08c5.63-4.5,9.88-8.97,12.47-11.95c0.05-0.05,0.09-0.1,0.13-0.15c1.46-1.7,2.52-3.66,3.13-5.74
				C2337.2,1432.94,2337.33,1430.51,2336.87,1428.1z M2282.74,1457.24c-8.06,0.73-17.11-5.88-19.38-14.1l-5.27-19.15
				c-2.71-9.85-1.93-19.07,2.13-26.66c0.02-0.03,0.03-0.05,0.04-0.07c1.14-2.1,2.53-4.08,4.16-5.91l8.77-9.82
				c0.42-0.46,1-0.71,1.58-0.71c0.43,0,0.86,0.13,1.22,0.4c0.75,0.52,1.07,1.46,0.81,2.33l-7.89,26.81
				c-0.85,2.86,0.56,5.91,3.27,7.13c2.72,1.22,5.93,0.26,7.52-2.26l16.47-26.15c0.32-0.51,0.78-0.69,1.1-0.75
				c0.1-0.02,0.22-0.04,0.35-0.04c0.28,0,0.62,0.08,0.96,0.32c0.68,0.5,0.9,1.38,0.53,2.12c-5.21,10.13-15.42,26.62-15.52,26.79
				c-1.58,2.56-1.03,5.89,1.3,7.79c2.33,1.89,5.72,1.76,7.89-0.31l17.65-16.81c0.04-0.03,0.16-0.15,0.37-0.13
				c0.21,0.01,0.31,0.13,0.35,0.17c0.15,0.19,0.15,0.47-0.02,0.65l-15,16.31c-1.88,2.04-2.1,5.11-0.54,7.41
				c1.55,2.29,4.49,3.21,7.09,2.21l18.01-6.95c1.25-0.49,2.29-0.09,2.8,0.19c0.5,0.28,1.39,0.95,1.63,2.27
				c0.01,0.05,0.02,0.09,0.02,0.14c0.14,0.96-0.14,1.93-0.8,2.68C2318.6,1439.79,2303.02,1455.44,2282.74,1457.24z"></path>
        <path fill="#fff" d="M2542.24 1435.22v5.89h-208.97c.05-.05.09-.1.13-.15 1.46-1.7 2.52-3.66 3.13-5.74H2542.24zM2528.65 1391.44l-.17-.49-26.08-74.53-.08-.23-30.59-87.4h-267.71l52.79 153.15 7.49-8.38c4.78-5.34 12.8-6.23 18.64-2.08 2.89 2.05 4.82 5.06 5.57 8.36 1.81-1.62 4.05-2.76 6.48-3.24 3.66-.72 7.52.12 10.56 2.3 3.7 2.66 5.72 6.78 5.72 11.04 0 2.1-.49 4.22-1.5 6.21.57-.05 1.15-.06 1.72-.02 3.43.19 6.64 1.81 8.84 4.44 3.64 4.35 3.81 10.61.62 15.14 2.88-.18 5.78.46 8.36 1.9 2.43 1.35 4.41 3.32 5.77 5.66h204.72L2528.65 1391.44zM2371.92 1353.23c-14.99 0-27.19-12.2-27.19-27.2 0-14.99 12.2-27.19 27.19-27.19 15 0 27.2 12.2 27.2 27.19C2399.12 1341.03 2386.92 1353.23 2371.92 1353.23z"></path>
      </g>
    </g>
  </g>
</svg>
