<svg xmlns="http://www.w3.org/2000/svg" xmlns:xlink="http://www.w3.org/1999/xlink" enable-background="new 0 0 3000 2500" viewBox="0 0 3000 2500" id="send-secure-mail">
  <rect width="2883.6" height="2403" x="58.2" y="48.5" fill="none"></rect>
  <g opacity=".23">
    <ellipse cx="1525.7" cy="1905.9" fill="#010b0f" opacity="0" rx="688.4" ry="349.4"></ellipse>
    <ellipse cx="1525.7" cy="1905.9" fill="#010b0f" opacity=".037" rx="676" ry="343.1"></ellipse>
    <ellipse cx="1525.7" cy="1905.9" fill="#010b0f" opacity=".074" rx="663.6" ry="336.8"></ellipse>
    <ellipse cx="1525.7" cy="1905.9" fill="#010b0f" opacity=".111" rx="651.2" ry="330.5"></ellipse>
    <ellipse cx="1525.7" cy="1905.9" fill="#010b0f" opacity=".148" rx="638.8" ry="324.2"></ellipse>
    <ellipse cx="1525.7" cy="1905.9" fill="#010b0f" opacity=".185" rx="626.3" ry="318"></ellipse>
    <ellipse cx="1525.7" cy="1905.9" fill="#010b0f" opacity=".222" rx="613.9" ry="311.7"></ellipse>
    <ellipse cx="1525.7" cy="1905.9" fill="#010b0f" opacity=".259" rx="601.5" ry="305.4"></ellipse>
    <ellipse cx="1525.7" cy="1905.9" fill="#010b0f" opacity=".296" rx="589.1" ry="299.1"></ellipse>
    <ellipse cx="1525.7" cy="1905.9" fill="#010b0f" opacity=".333" rx="576.7" ry="292.8"></ellipse>
    <ellipse cx="1525.7" cy="1905.9" fill="#010b0f" opacity=".37" rx="564.3" ry="286.5"></ellipse>
    <ellipse cx="1525.7" cy="1905.9" fill="#010b0f" opacity=".407" rx="551.9" ry="280.2"></ellipse>
    <ellipse cx="1525.7" cy="1905.9" fill="#010b0f" opacity=".444" rx="539.5" ry="273.9"></ellipse>
    <ellipse cx="1525.7" cy="1905.9" fill="#010b0f" opacity=".481" rx="527.1" ry="267.6"></ellipse>
    <ellipse cx="1525.7" cy="1905.9" fill="#010b0f" opacity=".518" rx="514.7" ry="261.3"></ellipse>
    <ellipse cx="1525.7" cy="1905.9" fill="#010b0f" opacity=".556" rx="502.3" ry="255"></ellipse>
    <ellipse cx="1525.7" cy="1905.9" fill="#010b0f" opacity=".593" rx="489.9" ry="248.7"></ellipse>
    <ellipse cx="1525.7" cy="1905.9" fill="#010b0f" opacity=".63" rx="477.5" ry="242.4"></ellipse>
    <ellipse cx="1525.7" cy="1905.9" fill="#010b0f" opacity=".667" rx="465" ry="236.1"></ellipse>
    <ellipse cx="1525.7" cy="1905.9" fill="#010b0f" opacity=".704" rx="452.6" ry="229.8"></ellipse>
    <ellipse cx="1525.7" cy="1905.9" fill="#010b0f" opacity=".741" rx="440.2" ry="223.5"></ellipse>
    <ellipse cx="1525.7" cy="1905.9" fill="#010b0f" opacity=".778" rx="427.8" ry="217.2"></ellipse>
    <ellipse cx="1525.7" cy="1905.9" fill="#010b0f" opacity=".815" rx="415.4" ry="210.9"></ellipse>
    <ellipse cx="1525.7" cy="1905.9" fill="#010b0f" opacity=".852" rx="403" ry="204.6"></ellipse>
    <ellipse cx="1525.7" cy="1905.9" fill="#010b0f" opacity=".889" rx="390.6" ry="198.3"></ellipse>
    <ellipse cx="1525.7" cy="1905.9" fill="#010b0f" opacity=".926" rx="378.2" ry="192"></ellipse>
    <ellipse cx="1525.7" cy="1905.9" fill="#010b0f" opacity=".963" rx="365.8" ry="185.7"></ellipse>
    <ellipse cx="1525.7" cy="1905.9" fill="#010b0f" rx="353.4" ry="179.4"></ellipse>
  </g>
  <g opacity=".15">
    <ellipse cx="2369" cy="2200.6" fill="#010b0f" opacity="0" rx="180.6" ry="91.7"></ellipse>
    <ellipse cx="2369" cy="2200.6" fill="#010b0f" opacity=".037" rx="176.1" ry="89.4"></ellipse>
    <ellipse cx="2369" cy="2200.6" fill="#010b0f" opacity=".074" rx="171.6" ry="87.1"></ellipse>
    <ellipse cx="2369" cy="2200.6" fill="#010b0f" opacity=".111" rx="167.1" ry="84.8"></ellipse>
    <ellipse cx="2369" cy="2200.6" fill="#010b0f" opacity=".148" rx="162.5" ry="82.5"></ellipse>
    <ellipse cx="2369" cy="2200.6" fill="#010b0f" opacity=".185" rx="158" ry="80.2"></ellipse>
    <ellipse cx="2369" cy="2200.6" fill="#010b0f" opacity=".222" rx="153.5" ry="77.9"></ellipse>
    <ellipse cx="2369" cy="2200.6" fill="#010b0f" opacity=".259" rx="149" ry="75.6"></ellipse>
    <ellipse cx="2369" cy="2200.6" fill="#010b0f" opacity=".296" rx="144.4" ry="73.3"></ellipse>
    <ellipse cx="2369" cy="2200.6" fill="#010b0f" opacity=".333" rx="139.9" ry="71"></ellipse>
    <ellipse cx="2369" cy="2200.6" fill="#010b0f" opacity=".37" rx="135.4" ry="68.7"></ellipse>
    <ellipse cx="2369" cy="2200.6" fill="#010b0f" opacity=".407" rx="130.9" ry="66.4"></ellipse>
    <ellipse cx="2369" cy="2200.6" fill="#010b0f" opacity=".444" rx="126.3" ry="64.1"></ellipse>
    <ellipse cx="2369" cy="2200.6" fill="#010b0f" opacity=".481" rx="121.8" ry="61.8"></ellipse>
    <ellipse cx="2369" cy="2200.6" fill="#010b0f" opacity=".518" rx="117.3" ry="59.5"></ellipse>
    <ellipse cx="2369" cy="2200.6" fill="#010b0f" opacity=".556" rx="112.8" ry="57.2"></ellipse>
    <ellipse cx="2369" cy="2200.6" fill="#010b0f" opacity=".593" rx="108.2" ry="54.9"></ellipse>
    <ellipse cx="2369" cy="2200.6" fill="#010b0f" opacity=".63" rx="103.7" ry="52.6"></ellipse>
    <ellipse cx="2369" cy="2200.6" fill="#010b0f" opacity=".667" rx="99.2" ry="50.3"></ellipse>
    <ellipse cx="2369" cy="2200.6" fill="#010b0f" opacity=".704" rx="94.7" ry="48.1"></ellipse>
    <ellipse cx="2369" cy="2200.6" fill="#010b0f" opacity=".741" rx="90.1" ry="45.8"></ellipse>
    <ellipse cx="2369" cy="2200.6" fill="#010b0f" opacity=".778" rx="85.6" ry="43.5"></ellipse>
    <ellipse cx="2369" cy="2200.6" fill="#010b0f" opacity=".815" rx="81.1" ry="41.2"></ellipse>
    <ellipse cx="2369" cy="2200.6" fill="#010b0f" opacity=".852" rx="76.6" ry="38.9"></ellipse>
    <ellipse cx="2369" cy="2200.6" fill="#010b0f" opacity=".889" rx="72" ry="36.6"></ellipse>
    <ellipse cx="2369" cy="2200.6" fill="#010b0f" opacity=".926" rx="67.5" ry="34.3"></ellipse>
    <ellipse cx="2369" cy="2200.6" fill="#010b0f" opacity=".963" rx="63" ry="32"></ellipse>
    <ellipse cx="2369" cy="2200.6" fill="#010b0f" rx="58.5" ry="29.7"></ellipse>
  </g>
  <g opacity=".15">
    <ellipse cx="863.2" cy="1135.6" fill="#010b0f" opacity="0" rx="180.6" ry="91.7"></ellipse>
    <ellipse cx="863.2" cy="1135.6" fill="#010b0f" opacity=".037" rx="176.1" ry="89.4"></ellipse>
    <ellipse cx="863.2" cy="1135.6" fill="#010b0f" opacity=".074" rx="171.6" ry="87.1"></ellipse>
    <ellipse cx="863.2" cy="1135.6" fill="#010b0f" opacity=".111" rx="167.1" ry="84.8"></ellipse>
    <ellipse cx="863.2" cy="1135.6" fill="#010b0f" opacity=".148" rx="162.5" ry="82.5"></ellipse>
    <ellipse cx="863.2" cy="1135.6" fill="#010b0f" opacity=".185" rx="158" ry="80.2"></ellipse>
    <ellipse cx="863.2" cy="1135.6" fill="#010b0f" opacity=".222" rx="153.5" ry="77.9"></ellipse>
    <ellipse cx="863.2" cy="1135.6" fill="#010b0f" opacity=".259" rx="149" ry="75.6"></ellipse>
    <ellipse cx="863.2" cy="1135.6" fill="#010b0f" opacity=".296" rx="144.4" ry="73.3"></ellipse>
    <ellipse cx="863.2" cy="1135.6" fill="#010b0f" opacity=".333" rx="139.9" ry="71"></ellipse>
    <ellipse cx="863.2" cy="1135.6" fill="#010b0f" opacity=".37" rx="135.4" ry="68.7"></ellipse>
    <ellipse cx="863.2" cy="1135.6" fill="#010b0f" opacity=".407" rx="130.9" ry="66.4"></ellipse>
    <ellipse cx="863.2" cy="1135.6" fill="#010b0f" opacity=".444" rx="126.3" ry="64.1"></ellipse>
    <ellipse cx="863.2" cy="1135.6" fill="#010b0f" opacity=".481" rx="121.8" ry="61.8"></ellipse>
    <ellipse cx="863.2" cy="1135.6" fill="#010b0f" opacity=".518" rx="117.3" ry="59.5"></ellipse>
    <ellipse cx="863.2" cy="1135.6" fill="#010b0f" opacity=".556" rx="112.8" ry="57.2"></ellipse>
    <ellipse cx="863.2" cy="1135.6" fill="#010b0f" opacity=".593" rx="108.2" ry="54.9"></ellipse>
    <ellipse cx="863.2" cy="1135.6" fill="#010b0f" opacity=".63" rx="103.7" ry="52.6"></ellipse>
    <ellipse cx="863.2" cy="1135.6" fill="#010b0f" opacity=".667" rx="99.2" ry="50.3"></ellipse>
    <ellipse cx="863.2" cy="1135.6" fill="#010b0f" opacity=".704" rx="94.7" ry="48.1"></ellipse>
    <ellipse cx="863.2" cy="1135.6" fill="#010b0f" opacity=".741" rx="90.1" ry="45.8"></ellipse>
    <ellipse cx="863.2" cy="1135.6" fill="#010b0f" opacity=".778" rx="85.6" ry="43.5"></ellipse>
    <ellipse cx="863.2" cy="1135.6" fill="#010b0f" opacity=".815" rx="81.1" ry="41.2"></ellipse>
    <ellipse cx="863.2" cy="1135.6" fill="#010b0f" opacity=".852" rx="76.6" ry="38.9"></ellipse>
    <ellipse cx="863.2" cy="1135.6" fill="#010b0f" opacity=".889" rx="72" ry="36.6"></ellipse>
    <ellipse cx="863.2" cy="1135.6" fill="#010b0f" opacity=".926" rx="67.5" ry="34.3"></ellipse>
    <ellipse cx="863.2" cy="1135.6" fill="#010b0f" opacity=".963" rx="63" ry="32"></ellipse>
    <ellipse cx="863.2" cy="1135.6" fill="#010b0f" rx="58.5" ry="29.7"></ellipse>
  </g>
  <linearGradient id="a" x1="683.7" x2="2447.411" y1="1534.571" y2="1534.571" gradientUnits="userSpaceOnUse">
    <stop offset="0" stop-color="#5f6271"></stop>
    <stop offset="1" stop-color="#2b3149"></stop>
  </linearGradient>
  <path fill="url(#a)" d="M2447.4,1405.8v153.1l-683.8,312.8c-97.5,44.6-228.5,69.2-368.8,69.2h0c-24.6,0-49.5-0.8-74-2.3    c-14.9-0.9-29.7-2-43.9-3.2c-163.7-13.6-376-58.9-385-60.9l-10.5-2.3l-8.2-6.9c-12.2-10.2-120.2-102.3-159.1-179.5    c-3.6-7.2-7-14.8-10.1-22.4c-37-92.8-33.5-256.3,97.7-316.4l689-218.9l611.4,123.5l156.4,69.8L2447.4,1405.8z"></path>
  <linearGradient id="b" x1="2189.001" x2="881.299" y1="1625.566" y2="1646.215" gradientUnits="userSpaceOnUse">
    <stop offset="0" stop-color="#5f6271"></stop>
    <stop offset="1" stop-color="#2b3149"></stop>
  </linearGradient>
  <path fill="url(#b)" d="M2447.4,1405.8v153.1l-683.8,312.8c-97.5,44.6-228.5,69.2-368.8,69.2h0c-24.6,0-49.5-0.8-74-2.3    c-14.9-0.9-29.7-2-43.9-3.2c-163.7-13.6-376-58.9-385-60.9l-20.3-265.8l1386.9-287.3L2447.4,1405.8z"></path>
  <linearGradient id="c" x1="683.7" x2="2447.411" y1="1529.977" y2="1529.977" gradientUnits="userSpaceOnUse">
    <stop offset="0" stop-color="#b8b9c0"></stop>
    <stop offset="1" stop-color="#e0e1e4"></stop>
  </linearGradient>
  <path fill="url(#c)" d="M2447.4,1401.2v153.1l-683.8,312.8c-97.5,44.6-228.5,69.2-368.8,69.2h0c-24.6,0-49.5-0.8-74-2.3    c-14.9-0.9-29.7-2-43.9-3.2c-163.7-13.6-376-58.9-385-60.9l-10.5-2.3l-8.2-6.9c-12.2-10.2-120.2-102.3-159.1-179.5    c-3.6-7.2-7-14.8-10.1-22.4c-37-92.8-33.5-256.3,97.7-316.4l689-218.9l611.4,123.5l156.4,69.8L2447.4,1401.2z"></path>
  <linearGradient id="d" x1="2189.001" x2="881.299" y1="1620.972" y2="1641.62" gradientUnits="userSpaceOnUse">
    <stop offset="0" stop-color="#b8b9c0"></stop>
    <stop offset="1" stop-color="#e0e1e4"></stop>
  </linearGradient>
  <path fill="url(#d)" d="M2447.4,1401.2v153.1l-683.8,312.8c-97.5,44.6-228.5,69.2-368.8,69.2h0c-24.6,0-49.5-0.8-74-2.3    c-14.9-0.9-29.7-2-43.9-3.2c-163.7-13.6-376-58.9-385-60.9l-20.3-265.8l1386.9-287.3L2447.4,1401.2z"></path>
  <linearGradient id="e" x1="2086.113" x2="848.348" y1="1097.236" y2="1761.721" gradientUnits="userSpaceOnUse">
    <stop offset="0" stop-color="#fff"></stop>
    <stop offset="1" stop-color="#e0e1e4"></stop>
  </linearGradient>
  <path fill="url(#e)" d="M1394.8,1783.3c-24.6,0-49.5-0.8-74-2.3c-14.9-0.9-29.7-2-43.9-3.2c-163.7-13.6-376-58.9-385-60.9l-10.5-2.3    l-8.2-6.9c-12.2-10.2-120.2-102.2-159.1-179.5c-3.6-7.2-7-14.8-10.1-22.4c-37-92.8,19.2-184.1,150.5-244.2l636.3-291.1    l611.4,123.5l345.3,307.2l-683.8,312.8C1666.1,1758.7,1535.1,1783.3,1394.8,1783.3L1394.8,1783.3z"></path>
  <linearGradient id="f" x1="736.501" x2="2369.031" y1="1243.613" y2="1243.613" gradientUnits="userSpaceOnUse">
    <stop offset="0" stop-color="#b8b9c0"></stop>
    <stop offset="1" stop-color="#b8b9c0"></stop>
  </linearGradient>
  <path fill="url(#f)" d="M2369,1389.5l-30.6,14l-256.3-228.1L1496,1057l-623.5,285.3c-76.9,35.2-123.5,80.8-133.8,129.2    c-13.3-63.3,35.3-125.4,133.8-170.5l623.5-285.2l586.1,118.4L2369,1389.5z"></path>
  <linearGradient id="g" x1="1568.851" x2="1526.029" y1="1190.841" y2="1539.527" gradientUnits="userSpaceOnUse">
    <stop offset="0" stop-color="#38aca8"></stop>
    <stop offset="1" stop-color="#5f637a"></stop>
  </linearGradient>
  <path fill="url(#g)" d="M2338.5,1403.5l-592.9,271.2c-107.9,49.3-264,73-422,63c-14.2-0.9-28.7-1.9-43.1-3.1    c-162.8-13.6-379.4-60.1-379.4-60.1s-112.3-94.3-148.3-165.8c-3.2-6.4-6-12.7-8.5-19c-2.4-6.1-4.3-12.2-5.5-18.3    c10.4-48.5,56.9-94,133.9-129.2l623.5-285.3l586.1,118.5L2338.5,1403.5z"></path>
  <linearGradient id="h" x1="1664.046" x2="1590.639" y1="1190.133" y2="1768.217" gradientUnits="userSpaceOnUse">
    <stop offset="0" stop-color="#38aca8"></stop>
    <stop offset="1" stop-color="#5f637a"></stop>
  </linearGradient>
  <path fill="url(#h)" d="M2338.5,1403.5l-592.9,271.2c-107.9,49.3-264,73-422,63c-14.2-0.9-28.7-1.9-43.1-3.1    c-162.8-13.6-379.4-60.1-379.4-60.1l1181-499.1L2338.5,1403.5z"></path>
  <linearGradient id="i" x1="2373.818" x2="2099.835" y1="1406.546" y2="1175.823" gradientUnits="userSpaceOnUse">
    <stop offset="0" stop-color="#b8b9c0"></stop>
    <stop offset="1" stop-color="#e0e1e4"></stop>
  </linearGradient>
  <polygon fill="url(#i)" points="2082.1 1134.2 2082.1 1175.4 2338.5 1403.5 2369 1389.5"></polygon>
  <linearGradient id="j" x1="2015.926" x2="1622.603" y1="1286.611" y2="955.392" gradientUnits="userSpaceOnUse">
    <stop offset="0" stop-color="#b8b9c0"></stop>
    <stop offset="1" stop-color="#e0e1e4"></stop>
  </linearGradient>
  <polygon fill="url(#j)" points="1496 1015.8 1496 1056.9 2082.1 1175.4 2082.1 1134.2"></polygon>
  <linearGradient id="k" x1="2088.869" x2="851.105" y1="1102.372" y2="1766.857" gradientUnits="userSpaceOnUse">
    <stop offset="0" stop-color="#f3f3f7"></stop>
    <stop offset="1" stop-color="#fafafc"></stop>
  </linearGradient>
  <path fill="url(#k)" d="M1769.6,1708c-97.5,44.6-228.5,69.2-368.8,69.2h0c-24.6,0-49.5-0.8-74-2.3c-14.9-0.9-29.7-2-43.9-3.2    c-163.7-13.6-376-58.9-385-60.9l-10.5-2.3l-8.2-6.9c-12.2-10.2-120.2-102.2-159.1-179.5c-3.6-7.2-7-14.8-10.1-22.4    c-23.9-60-8.9-119.4,40.3-170.1c-53.9,52-71.2,113.7-46.3,176.1c3,7.6,6.4,15.1,10.1,22.4c38.9,77.3,146.9,169.3,159.1,179.5    l8.2,6.9l10.5,2.3c9,1.9,221.3,47.2,385,60.9c14.2,1.2,29,2.3,43.9,3.2c24.5,1.5,49.4,2.3,74,2.3h0c140.3,0,271.3-24.6,368.8-69.2    l683.8-312.8l-2.4-2.2L1769.6,1708z"></path>
  <g>
    <g opacity=".23">
      <ellipse cx="1636.2" cy="1422.2" fill="#010b0f" opacity="0" rx="588.8" ry="298.9"></ellipse>
      <ellipse cx="1636.2" cy="1422.2" fill="#010b0f" opacity=".037" rx="578.2" ry="293.5"></ellipse>
      <ellipse cx="1636.2" cy="1422.2" fill="#010b0f" opacity=".074" rx="567.6" ry="288.1"></ellipse>
      <ellipse cx="1636.2" cy="1422.2" fill="#010b0f" opacity=".111" rx="557" ry="282.7"></ellipse>
      <ellipse cx="1636.2" cy="1422.2" fill="#010b0f" opacity=".148" rx="546.4" ry="277.4"></ellipse>
      <ellipse cx="1636.2" cy="1422.2" fill="#010b0f" opacity=".185" rx="535.8" ry="272"></ellipse>
      <ellipse cx="1636.2" cy="1422.2" fill="#010b0f" opacity=".222" rx="525.1" ry="266.6"></ellipse>
      <ellipse cx="1636.2" cy="1422.2" fill="#010b0f" opacity=".259" rx="514.5" ry="261.2"></ellipse>
      <ellipse cx="1636.2" cy="1422.2" fill="#010b0f" opacity=".296" rx="503.9" ry="255.8"></ellipse>
      <ellipse cx="1636.2" cy="1422.2" fill="#010b0f" opacity=".333" rx="493.3" ry="250.4"></ellipse>
      <ellipse cx="1636.2" cy="1422.2" fill="#010b0f" opacity=".37" rx="482.7" ry="245"></ellipse>
      <ellipse cx="1636.2" cy="1422.2" fill="#010b0f" opacity=".407" rx="472.1" ry="239.6"></ellipse>
      <ellipse cx="1636.2" cy="1422.2" fill="#010b0f" opacity=".444" rx="461.5" ry="234.3"></ellipse>
      <ellipse cx="1636.2" cy="1422.2" fill="#010b0f" opacity=".481" rx="450.9" ry="228.9"></ellipse>
      <ellipse cx="1636.2" cy="1422.2" fill="#010b0f" opacity=".518" rx="440.2" ry="223.5"></ellipse>
      <ellipse cx="1636.2" cy="1422.2" fill="#010b0f" opacity=".556" rx="429.6" ry="218.1"></ellipse>
      <ellipse cx="1636.2" cy="1422.2" fill="#010b0f" opacity=".593" rx="419" ry="212.7"></ellipse>
      <ellipse cx="1636.2" cy="1422.2" fill="#010b0f" opacity=".63" rx="408.4" ry="207.3"></ellipse>
      <ellipse cx="1636.2" cy="1422.2" fill="#010b0f" opacity=".667" rx="397.8" ry="201.9"></ellipse>
      <ellipse cx="1636.2" cy="1422.2" fill="#010b0f" opacity=".704" rx="387.2" ry="196.5"></ellipse>
      <ellipse cx="1636.2" cy="1422.2" fill="#010b0f" opacity=".741" rx="376.6" ry="191.2"></ellipse>
      <ellipse cx="1636.2" cy="1422.2" fill="#010b0f" opacity=".778" rx="365.9" ry="185.8"></ellipse>
      <ellipse cx="1636.2" cy="1422.2" fill="#010b0f" opacity=".815" rx="355.3" ry="180.4"></ellipse>
      <ellipse cx="1636.2" cy="1422.2" fill="#010b0f" opacity=".852" rx="344.7" ry="175"></ellipse>
      <ellipse cx="1636.2" cy="1422.2" fill="#010b0f" opacity=".889" rx="334.1" ry="169.6"></ellipse>
      <ellipse cx="1636.2" cy="1422.2" fill="#010b0f" opacity=".926" rx="323.5" ry="164.2"></ellipse>
      <ellipse cx="1636.2" cy="1422.2" fill="#010b0f" opacity=".963" rx="312.9" ry="158.8"></ellipse>
      <ellipse cx="1636.2" cy="1422.2" fill="#010b0f" rx="302.3" ry="153.4"></ellipse>
    </g>
    <linearGradient id="l" x1="1090.086" x2="1436.706" y1="584.879" y2="584.879" gradientUnits="userSpaceOnUse">
      <stop offset="0" stop-color="#38aca8"></stop>
      <stop offset="1" stop-color="#5f637a"></stop>
    </linearGradient>
    <path fill="url(#l)" d="M1090.1,811.3C1246.6,648.8,1436.7,635,1436.7,635V358.5c0,0-190.1,13.9-346.6,176.3V811.3z" opacity=".7"></path>
    <path fill="#ffad00" d="M2072.6,639.3c0,0,245.6,37,372.4,192.8V569.7c-126.8-155.8-372.4-192.8-372.4-192.8V639.3z" opacity=".54"></path>
    <linearGradient id="m" x1="1263.396" x2="2051.232" y1="841.56" y2="841.56" gradientUnits="userSpaceOnUse">
      <stop offset="0" stop-color="#f9d375"></stop>
      <stop offset="1" stop-color="#efb31d"></stop>
    </linearGradient>
    <path fill="url(#m)" d="M1643.2,255.9l-379.8,224.8l0,586l787.8,371.8l0-586L1755,287.6C1733.7,247,1682.7,232.5,1643.2,255.9z"></path>
    <linearGradient id="n" x1="1743.824" x2="1654.645" y1="883.071" y2="520.309" gradientUnits="userSpaceOnUse">
      <stop offset="0" stop-color="#fefefe"></stop>
      <stop offset="1" stop-color="#c6c6c6"></stop>
    </linearGradient>
    <path fill="url(#n)" d="M1335.2,555.8l296.6,360.6l362.7-57V575.7c0-23.9-14-45.7-35.8-55.6l-585.5-266.6      c-17.8-8.1-38.1,4.9-38.1,24.5V555.8z"></path>
    <linearGradient id="o" x1="1682.62" x2="1614.25" y1="386.924" y2="885.904" gradientUnits="userSpaceOnUse">
      <stop offset="0" stop-color="#fefefe"></stop>
      <stop offset="1" stop-color="#c6c6c6"></stop>
    </linearGradient>
    <path fill="url(#o)" d="M1327.8,558.9l296.6,360.6l362.7-57V578.8c0-23.9-14-45.7-35.8-55.6l-585.5-266.6      c-17.8-8.1-38.1,4.9-38.1,24.5V558.9z"></path>
    <polygon fill="#bcbcbc" points="1447 461.3 1594.4 535.8 1594.4 513 1447 438.5"></polygon>
    <polygon fill="#bcbcbc" points="1758.4 592.4 1905.8 667 1905.8 644.2 1758.4 569.7"></polygon>
    <polygon fill="#bcbcbc" points="1447 535.8 1655.1 639.3 1655.1 616.5 1447 513"></polygon>
    <polygon fill="#bcbcbc" points="1447 606.5 1655.1 710 1655.1 687.2 1447 583.7"></polygon>
    <polygon fill="#bcbcbc" points="1447 669.6 1821 858.1 1821 835.4 1447 646.9"></polygon>
    <polygon fill="#bcbcbc" points="1447 732.8 1821 921.3 1821 898.5 1447 710"></polygon>
    <linearGradient id="p" x1="1263.396" x2="2051.232" y1="959.552" y2="959.552" gradientUnits="userSpaceOnUse">
      <stop offset="0" stop-color="#d6781a"></stop>
      <stop offset="1" stop-color="#efb31d"></stop>
    </linearGradient>
    <polygon fill="url(#p)" points="1263.4 480.6 2051.2 1438.5 1263.4 1066.7"></polygon>
    <linearGradient id="q" x1="2025.385" x2="1827.184" y1="789.265" y2="1201.082" gradientUnits="userSpaceOnUse">
      <stop offset="0" stop-color="#d6781a"></stop>
      <stop offset="1" stop-color="#efb31d"></stop>
    </linearGradient>
    <polygon fill="url(#q)" points="2051.2 852.5 1624.4 919.5 2051.2 1438.5"></polygon>
    <linearGradient id="r" x1="1263.396" x2="2051.232" y1="956.48" y2="956.48" gradientUnits="userSpaceOnUse">
      <stop offset="0" stop-color="#fff"></stop>
      <stop offset="0" stop-color="#fbebc5"></stop>
      <stop offset="1" stop-color="#efb31d"></stop>
    </linearGradient>
    <polygon fill="url(#r)" points="1263.4 480.6 2051.2 1438.5 2051.2 1414.8 1273.8 474.5"></polygon>
    <linearGradient id="s" x1="2024.825" x2="1734.601" y1="772.252" y2="935.503" gradientUnits="userSpaceOnUse">
      <stop offset="0" stop-color="#fff"></stop>
      <stop offset="0" stop-color="#fbebc5"></stop>
      <stop offset="1" stop-color="#efb31d"></stop>
    </linearGradient>
    <polygon fill="url(#s)" points="2051.2 852.5 1640.1 917.1 1626.6 901.2 2031.4 841.6 1987.1 760.2 1987.1 730.1"></polygon>
    <path fill="#f8f8fb" d="M1018.4,1101.2c0,0-40.8,140.7,316.2,276.9v-260.6c-357.1-136.2-316.2-326-316.2-326V1101.2z" opacity=".54"></path>
    <path fill="#6ff" d="M2051.2,1365.8c-241.1,69.6-500.2,27.2-500.2,27.2v-230.1c0,0,259.1,42.4,500.2-27.2V1365.8z" opacity=".54"></path>
    <path fill="#ffad00" d="M2138,1302.1c0,0,311.3-72.4,361.6-262.1V808.8c-65.1,237.5-361.6,301.1-361.6,301.1V1302.1z" opacity=".54"></path>
    <path fill="#fff" d="M1048.4,998.8c0,0,65.7,119.7,230.6,165.5v-26.9c-164.9-45.9-230.6-165.5-230.6-165.5V998.8z" opacity=".4"></path>
    <path fill="#fff" d="M1048.4,1061.1c0,0,65.7,119.7,230.6,165.5v-26.9c-164.9-45.9-230.6-165.5-230.6-165.5V1061.1z" opacity=".4"></path>
    <path fill="#fff" d="M1048.4,1123.4c0,0,65.7,119.7,230.6,165.5v-26.9c-164.9-45.9-230.6-165.5-230.6-165.5V1123.4z" opacity=".4"></path>
    <path fill="#6ff" d="M1606.5 1227.7c0 0 241.2 44.4 402.2-30.2v-21.7c-161.1 74.6-402.2 30.2-402.2 30.2V1227.7zM1606.5 1281.6c0 0 241.2 44.4 402.2-30.2v-21.7c-161.1 74.6-402.2 30.2-402.2 30.2V1281.6zM1606.5 1335.4c0 0 241.2 44.4 402.2-30.2v-21.7c-161.1 74.6-402.2 30.2-402.2 30.2V1335.4z" opacity=".4"></path>
    <path fill="#fff" d="M2180.9,1166.3c231.7-53.9,293.2-206.8,293.2-206.8v-30.7c0,0-61.4,152.8-293.2,206.8V1166.3z" opacity=".4"></path>
    <path fill="#fff" d="M2180.9,1229.7c231.7-53.9,293.2-206.8,293.2-206.8v-30.7c0,0-61.4,152.8-293.2,206.8V1229.7z" opacity=".4"></path>
  </g>
  <g>
    <linearGradient id="t" x1="321.435" x2="395.03" y1="1033.159" y2="1033.159" gradientTransform="matrix(-.9938 .0621 0 1 1318.047 -100.382)" gradientUnits="userSpaceOnUse">
      <stop offset="0" stop-color="#8c8a89"></stop>
      <stop offset="1" stop-color="#a8a8a8"></stop>
    </linearGradient>
    <polygon fill="url(#t)" points="973.1 958.7 925.5 935.2 950.9 951.3 998.6 974.8"></polygon>
    <linearGradient id="u" x1="273.789" x2="354.758" y1="831.604" y2="831.604" gradientTransform="matrix(-.9938 .0621 0 1 1318.047 -100.382)" gradientUnits="userSpaceOnUse">
      <stop offset="0" stop-color="#8c8a89"></stop>
      <stop offset="1" stop-color="#a8a8a8"></stop>
    </linearGradient>
    <polygon fill="url(#u)" points="1046 753.5 998.3 730 965.5 747.9 1013.2 771.5"></polygon>
    <linearGradient id="v" x1="436.464" x2="487.736" y1="1114.732" y2="1114.732" gradientTransform="matrix(-.9938 .0621 0 1 1318.047 -100.382)" gradientUnits="userSpaceOnUse">
      <stop offset="0" stop-color="#8c8a89"></stop>
      <stop offset="1" stop-color="#a8a8a8"></stop>
    </linearGradient>
    <polygon fill="url(#v)" points="881 1034.4 833.3 1010.9 836.6 1051.7 884.3 1075.2"></polygon>
    <linearGradient id="w" x1="369.582" x2="510.589" y1="931.066" y2="931.066" gradientTransform="matrix(-.9938 .0621 0 1 1318.047 -100.382)" gradientUnits="userSpaceOnUse">
      <stop offset="0" stop-color="#8c8a89"></stop>
      <stop offset="1" stop-color="#a8a8a8"></stop>
    </linearGradient>
    <path fill="url(#w)" d="M814.9,922c0.8,0.3,1.6,0.4,2.3,0.6c0.7,0.2,1.4,0.4,2.2,0.6c0.2,0,0.4,0,0.5,0.1c1.3,0.2,2.6,0.4,3.9,0.5    c0.3,0,0.7,0,1,0c1.3,0.1,2.7,0.1,4.1,0c0.1,0,0.2,0,0.3,0c1.5-0.1,3.1-0.3,4.6-0.6c0.2,0,0.4-0.1,0.6-0.1    c1.5-0.3,3.1-0.7,4.7-1.2c0.2-0.1,0.4-0.1,0.6-0.2c1.6-0.5,3.2-1.1,4.9-1.8c0.1-0.1,0.3-0.1,0.4-0.2c1.8-0.8,3.5-1.6,5.3-2.6    c1.9-1.1,3.9-2.2,5.7-3.5c0.2-0.1,0.3-0.2,0.5-0.3c1.7-1.2,3.4-2.5,5.1-3.8c0.2-0.2,0.4-0.4,0.7-0.5c1.6-1.3,3.2-2.8,4.8-4.3    c0.3-0.2,0.5-0.5,0.8-0.8c1.5-1.5,3-3,4.4-4.6c0.1-0.1,0.2-0.2,0.3-0.3c1.5-1.7,2.9-3.4,4.3-5.2c0.8-1.1,1.6-2.2,2.4-3.3    c0.7-0.9,1.4-1.9,2-2.8c2.2-3.2,4.2-6.5,6-9.9c0.4-0.7,0.7-1.4,1.1-2c1.8-3.4,3.5-7,5-10.6c0.5-1.3,1-2.6,1.5-3.9    c0.4-1,0.8-2.1,1.2-3.1c0.8-2.2,1.5-4.4,2.2-6.7c0.1-0.4,0.2-0.7,0.3-1.1c0.6-2.1,1.1-4.3,1.6-6.4c0.1-0.2,0.1-0.5,0.2-0.7    c0.5-2.4,0.9-4.8,1.3-7.1c0-0.2,0.1-0.4,0.1-0.6c0.4-2.5,0.7-5,0.8-7.5c0,0,0-0.1,0-0.1c0.2-2.5,0.3-5,0.3-7.4c0-0.2,0-0.4,0-0.6    c0-2.4-0.1-4.9-0.3-7.2c-0.2-2.7-0.6-5.3-1-7.8c0-0.1,0-0.2-0.1-0.3c-0.4-2.3-0.9-4.6-1.6-6.7c-0.1-0.2-0.1-0.5-0.2-0.7    c-0.6-2-1.3-3.9-2-5.8c-0.1-0.3-0.3-0.6-0.4-1c-0.8-1.9-1.7-3.7-2.6-5.4c0,0,0-0.1-0.1-0.1c-1-1.7-2-3.2-3.1-4.7    c-0.3-0.4-0.7-0.8-1-1.2c-0.8-1-1.7-2-2.6-2.9c-0.4-0.4-0.9-0.8-1.3-1.3c-0.9-0.8-1.8-1.6-2.8-2.3c-0.4-0.3-0.8-0.7-1.3-1    c-1.4-1-2.9-1.9-4.4-2.6l47.7,23.5c1.5,0.7,3,1.6,4.4,2.6c0.4,0.3,0.8,0.6,1.3,1c1,0.7,1.9,1.5,2.8,2.4c0.4,0.4,0.9,0.8,1.3,1.3    c0.9,0.9,1.8,1.9,2.6,2.9c0.3,0.4,0.7,0.8,1,1.2c0.1,0.1,0.2,0.3,0.3,0.4c1,1.4,1.9,2.8,2.8,4.3c0,0,0,0.1,0.1,0.1l0,0    c0.7,1.2,1.3,2.5,2,3.8c0.2,0.5,0.4,1,0.7,1.6c0.1,0.3,0.3,0.6,0.4,1c0.1,0.3,0.3,0.6,0.4,1c0.4,1.1,0.8,2.2,1.2,3.3    c0.2,0.5,0.3,1,0.4,1.4c0.1,0.2,0.1,0.5,0.2,0.7c0.1,0.3,0.2,0.7,0.3,1c0.3,1,0.5,2.1,0.8,3.2c0.2,0.8,0.3,1.7,0.5,2.5    c0,0.1,0,0.2,0.1,0.3c0,0.1,0,0.2,0.1,0.3c0.2,1,0.3,2.1,0.5,3.1c0.1,1,0.3,2.1,0.4,3.2c0,0.4,0.1,0.8,0.1,1.2    c0.1,0.7,0.1,1.3,0.1,2c0.1,1.1,0.1,2.1,0.1,3.2c0,0.7,0,1.4,0,2c0,0.2,0,0.4,0,0.6c0,0.2,0,0.4,0,0.7c0,1.1,0,2.2-0.1,3.3    c0,1.1-0.1,2.3-0.2,3.4c0,0,0,0,0,0.1c0,0,0,0.1,0,0.1c-0.1,1.1-0.2,2.2-0.3,3.3c-0.1,1.2-0.3,2.5-0.5,3.7c0,0.2-0.1,0.3-0.1,0.5    c0,0.2-0.1,0.4-0.1,0.6c-0.1,0.9-0.3,1.8-0.4,2.7c-0.2,1.3-0.5,2.7-0.8,4c0,0.1-0.1,0.2-0.1,0.4c-0.1,0.2-0.1,0.5-0.2,0.7    c-0.2,1.1-0.5,2.2-0.8,3.3c-0.3,1-0.6,2-0.8,3.1c-0.1,0.4-0.2,0.8-0.3,1.1c-0.1,0.2-0.1,0.4-0.2,0.6c-0.5,1.8-1.1,3.7-1.8,5.5    c-0.1,0.2-0.1,0.4-0.2,0.6c-0.4,1.1-0.8,2.1-1.2,3.1c-0.4,1.1-0.8,2.3-1.3,3.4c-0.1,0.2-0.2,0.3-0.2,0.5c-1.5,3.6-3.2,7.1-5,10.6    c-0.4,0.7-0.7,1.4-1.1,2c-1.9,3.4-3.9,6.7-6,9.9c-0.1,0.1-0.2,0.3-0.3,0.5c-0.6,0.8-1.2,1.6-1.8,2.4c-0.8,1.1-1.6,2.2-2.4,3.3    c-0.2,0.2-0.3,0.4-0.5,0.6c-1.2,1.5-2.4,3-3.7,4.4c0,0-0.1,0.1-0.1,0.1c-0.1,0.1-0.2,0.2-0.3,0.4c-0.9,1-1.9,2-2.8,3    c-0.5,0.5-1.1,1.1-1.6,1.6c-0.3,0.3-0.5,0.5-0.8,0.8c-0.2,0.2-0.4,0.4-0.6,0.6c-1,0.9-1.9,1.8-2.9,2.6c-0.4,0.4-0.8,0.7-1.3,1    c-0.2,0.2-0.4,0.4-0.7,0.5c-0.3,0.2-0.5,0.5-0.8,0.7c-0.9,0.7-1.8,1.4-2.7,2c-0.5,0.4-1.1,0.8-1.6,1.1c-0.2,0.1-0.3,0.2-0.5,0.3    c-0.2,0.1-0.3,0.2-0.5,0.4c-0.8,0.6-1.7,1.1-2.6,1.6c-0.9,0.5-1.7,1-2.6,1.5c0,0,0,0-0.1,0c-0.8,0.5-1.7,0.9-2.5,1.3    c-0.8,0.4-1.7,0.8-2.5,1.2c-0.1,0-0.2,0.1-0.3,0.1c-0.1,0.1-0.3,0.1-0.4,0.2c-0.6,0.3-1.2,0.5-1.8,0.8c-0.9,0.3-1.7,0.6-2.5,0.9    c-0.2,0.1-0.3,0.1-0.5,0.2c-0.2,0.1-0.4,0.1-0.5,0.2c-0.5,0.2-1,0.3-1.5,0.5c-0.9,0.2-1.8,0.4-2.6,0.6c-0.2,0-0.3,0.1-0.5,0.1    c-0.2,0-0.4,0.1-0.6,0.1c-0.5,0.1-1.1,0.2-1.6,0.3c-1,0.1-1.9,0.2-2.9,0.3c0,0-0.1,0-0.1,0c-0.1,0-0.2,0-0.3,0    c-0.9,0.1-1.7,0.1-2.6,0.1c-0.5,0-1,0-1.5-0.1c-0.3,0-0.7,0-1,0c-0.2,0-0.5,0-0.7,0c-1.1-0.1-2.1-0.3-3.2-0.4    c-0.2,0-0.3,0-0.5-0.1c0,0-0.1,0-0.1,0c-0.7-0.1-1.4-0.4-2.2-0.6c-0.8-0.2-1.5-0.4-2.3-0.6c0,0,0,0-0.1,0    c-1.4-0.5-2.8-1.1-4.2-1.7l-47.7-23.5C812,921,813.4,921.5,814.9,922z"></path>
    <linearGradient id="x" x1="420.5" x2="362.265" y1="680.257" y2="768.086" gradientTransform="matrix(-.9938 .0621 0 1 1318.047 -100.382)" gradientUnits="userSpaceOnUse">
      <stop offset="0" stop-color="#ddd"></stop>
      <stop offset="1" stop-color="#a8a8a8"></stop>
    </linearGradient>
    <path fill="url(#x)" d="M904.6,677l20.9-41.6c3.6,1.3,7.2,2.8,10.7,4.5l47.7,23.5c-3.5-1.7-7-3.2-10.7-4.5l0,0l-20.9,41.6L904.6,677    z"></path>
    <linearGradient id="y" x1="525.938" x2="594.923" y1="1087.303" y2="1087.303" gradientTransform="matrix(-.9938 .0621 0 1 1318.047 -100.382)" gradientUnits="userSpaceOnUse">
      <stop offset="0" stop-color="#ddd"></stop>
      <stop offset="1" stop-color="#a8a8a8"></stop>
    </linearGradient>
    <polygon fill="url(#y)" points="795.4 1012.7 747.7 989.2 726.8 1030.7 774.5 1054.3"></polygon>
    <defs>
      <path id="z" d="M752.5,1049.3l47.7,23.5c-9.3-4.6-17.9-10.8-25.7-18.6l-47.7-23.5      C734.5,1038.5,743.1,1044.7,752.5,1049.3z" enable-background="new"></path>
    </defs>
    <clipPath id="A">
      <use xlink:href="#z" overflow="visible"></use>
    </clipPath>
    <g clip-path="url(#A)">
      <linearGradient id="B" x1="521.134" x2="594.923" y1="1117.51" y2="1117.51" gradientTransform="matrix(-.9938 .0621 0 1 1318.047 -100.382)" gradientUnits="userSpaceOnUse">
        <stop offset="0" stop-color="#8c8a89"></stop>
        <stop offset="1" stop-color="#a8a8a8"></stop>
      </linearGradient>
      <path fill="url(#B)" d="M774.5,1054.3l-47.7-23.5c7.7,7.7,16.3,14,25.7,18.6l47.7,23.5C790.8,1068.2,782.2,1062,774.5,1054.3"></path>
    </g>
    <linearGradient id="C" x1="368.007" x2="465.274" y1="762.608" y2="762.608" gradientTransform="matrix(-.9938 .0621 0 1 1318.047 -100.382)" gradientUnits="userSpaceOnUse">
      <stop offset="0" stop-color="#8c8a89"></stop>
      <stop offset="1" stop-color="#a8a8a8"></stop>
    </linearGradient>
    <path fill="url(#C)" d="M929.5,697.7c-0.5,0-1.1,0-1.6,0.1c-3.6,0.1-7.3,0.5-11,1.1c-0.4,0.1-0.9,0.2-1.3,0.2    c-4,0.7-8.1,1.6-12.2,2.9l-47.7-23.5c1.2-0.4,2.4-0.7,3.5-1c2-0.5,3.9-1,5.8-1.4c1-0.2,1.9-0.3,2.9-0.5c0.4-0.1,0.9-0.2,1.3-0.2    c0.6-0.1,1.2-0.2,1.7-0.3c2.1-0.3,4.1-0.5,6.2-0.7c1-0.1,2.1-0.1,3.1-0.1c0.5,0,1.1-0.1,1.6-0.1c0.6,0,1.2-0.1,1.7-0.1    c2.4,0,4.7,0.1,7,0.3c0.6,0,1.1,0.2,1.6,0.2c0.8,0.1,1.6,0.2,2.4,0.3c1.2,0.2,2.5,0.3,3.7,0.5c2.1,0.4,4.2,0.9,6.2,1.5l47.7,23.5    c-3.2-0.9-6.6-1.5-10-2c-0.8-0.1-1.6-0.2-2.4-0.3C936.5,697.8,933.1,697.6,929.5,697.7z"></path>
    <linearGradient id="D" x1="525.938" x2="598.253" y1="1042.553" y2="1042.553" gradientTransform="matrix(-.9938 .0621 0 1 1318.047 -100.382)" gradientUnits="userSpaceOnUse">
      <stop offset="0" stop-color="#8c8a89"></stop>
      <stop offset="1" stop-color="#a8a8a8"></stop>
    </linearGradient>
    <path fill="url(#D)" d="M771.2,965c1.2,4.6,2.5,8.9,4.1,13.1c0.2,0.4,0.3,0.9,0.5,1.3c1.4,3.8,3,7.4,4.8,10.9    c0.5,0.9,0.9,1.8,1.4,2.7c1.3,2.5,2.8,4.8,4.2,7.1c0.8,1.3,1.6,2.6,2.4,3.8c2.2,3.1,4.4,6.1,6.9,8.8l-47.7-23.5    c-2.1-2.3-4.1-4.8-6-7.4c-0.3-0.4-0.6-0.9-0.9-1.3c-0.9-1.2-1.6-2.5-2.4-3.8c-0.9-1.4-1.9-2.8-2.7-4.3c-0.5-0.9-1-1.9-1.5-2.9    c-0.5-0.9-0.9-1.8-1.4-2.7c-0.4-0.8-0.9-1.6-1.3-2.5c-1.1-2.4-2.2-4.9-3.1-7.4c-0.1-0.3-0.2-0.7-0.3-1c-0.2-0.4-0.3-0.9-0.5-1.3    c-0.6-1.6-1.1-3.1-1.7-4.7c-0.7-2.2-1.4-4.5-2-6.8c-0.1-0.5-0.3-1.1-0.4-1.6L771.2,965z"></path>
    <linearGradient id="E" x1="464.582" x2="515.859" y1="765.467" y2="765.467" gradientTransform="matrix(-.9938 .0621 0 1 1318.047 -100.382)" gradientUnits="userSpaceOnUse">
      <stop offset="0" stop-color="#8c8a89"></stop>
      <stop offset="1" stop-color="#a8a8a8"></stop>
    </linearGradient>
    <polygon fill="url(#E)" points="853.1 686.9 805.4 663.3 808.7 704.2 856.3 727.7"></polygon>
    <linearGradient id="F" x1="476.106" x2="421.173" y1="721.69" y2="804.54" gradientTransform="matrix(-.9938 .0621 0 1 1318.047 -100.382)" gradientUnits="userSpaceOnUse">
      <stop offset="0" stop-color="#ddd"></stop>
      <stop offset="1" stop-color="#a8a8a8"></stop>
    </linearGradient>
    <path fill="url(#F)" d="M853.1,686.9l-47.7-23.5c0.8-0.6,1.6-1.2,2.4-1.8c2.3-1.6,4.5-3.2,6.8-4.7c0.5-0.3,1-0.6,1.5-1    c0.6-0.4,1.2-0.8,1.9-1.2c1.2-0.7,2.3-1.5,3.5-2.2c2.3-1.4,4.7-2.7,7-4c0.1,0,0.1-0.1,0.2-0.1c2.3-1.2,4.5-2.4,6.8-3.5    c1.4-0.7,2.8-1.3,4.2-1.9c0.5-0.2,1-0.5,1.5-0.7c0.4-0.2,0.7-0.3,1.1-0.5c2.2-1,4.4-1.9,6.6-2.7c1.2-0.5,2.4-0.9,3.6-1.3    l47.7,23.5c-3.7,1.3-7.4,2.8-11.2,4.5c-0.5,0.2-1,0.5-1.5,0.7c-3.6,1.7-7.3,3.4-10.9,5.5c-3.6,2-7.2,4.1-10.7,6.4    c-0.6,0.4-1.2,0.8-1.9,1.2C860.2,681.8,856.6,684.2,853.1,686.9z"></path>
    <linearGradient id="G" x1="464.582" x2="557.927" y1="809.562" y2="809.562" gradientTransform="matrix(-.9938 .0621 0 1 1318.047 -100.382)" gradientUnits="userSpaceOnUse">
      <stop offset="0" stop-color="#8c8a89"></stop>
      <stop offset="1" stop-color="#a8a8a8"></stop>
    </linearGradient>
    <path fill="url(#G)" d="M833.3,749.5c-0.4,0.5-0.9,0.9-1.3,1.4c-3.3,3.7-6.5,7.5-9.6,11.5c-1.4,1.8-2.8,3.8-4.2,5.7    c-2.3,3.2-4.7,6.3-6.9,9.6l-47.7-23.5c0.8-1.3,1.7-2.5,2.5-3.7c1.4-2,2.9-3.9,4.4-5.9c1.4-1.9,2.8-3.8,4.2-5.7    c0.4-0.5,0.7-0.9,1-1.4c2.6-3.2,5.2-6.4,7.9-9.4c0.2-0.2,0.4-0.5,0.6-0.7c0.4-0.5,0.9-0.9,1.3-1.4c1.7-1.9,3.4-3.7,5.1-5.5    c1.6-1.6,3.2-3.2,4.8-4.7c0.4-0.4,0.7-0.7,1.1-1.1c0.2-0.2,0.4-0.4,0.7-0.6c2-1.9,4.1-3.8,6.2-5.6c1.7-1.5,3.4-2.9,5.1-4.2    l47.7,23.5c-4.1,3.3-8.1,6.8-12,10.5c-0.4,0.4-0.7,0.7-1.1,1.1C839.8,742.5,836.5,745.9,833.3,749.5z"></path>
    <linearGradient id="H" x1="540.076" x2="602.991" y1="924.982" y2="924.982" gradientTransform="matrix(-.9938 .0621 0 1 1318.047 -100.382)" gradientUnits="userSpaceOnUse">
      <stop offset="0" stop-color="#8c8a89"></stop>
      <stop offset="1" stop-color="#a8a8a8"></stop>
    </linearGradient>
    <path fill="url(#H)" d="M771.6,871c-0.1,0.3-0.1,0.5-0.2,0.8c-1.2,5.7-2.3,11.4-3.1,17.2c0,0,0,0.1,0,0.1    c-0.8,5.8-1.4,11.6-1.8,17.3l-47.7-23.5c0.1-0.8,0.1-1.6,0.2-2.4c0.2-2.5,0.4-4.9,0.7-7.4c0.3-2.5,0.6-5,0.9-7.5c0,0,0-0.1,0-0.1    c0,0,0,0,0-0.1c0.4-2.7,0.8-5.4,1.3-8.1c0.5-2.9,1.1-5.7,1.7-8.6c0-0.1,0.1-0.3,0.1-0.4c0.1-0.3,0.1-0.5,0.2-0.8    c0.6-2.7,1.2-5.3,1.9-8c0.6-2.5,1.3-5,2-7.4c0.2-0.6,0.3-1.2,0.5-1.8c0.1-0.3,0.2-0.6,0.2-0.9c1.1-3.9,2.4-7.8,3.7-11.6    c0.5-1.3,0.9-2.7,1.4-4l47.7,23.5c-2,5.5-3.8,11-5.4,16.5c-0.2,0.6-0.3,1.2-0.5,1.7C774,860.7,772.7,865.8,771.6,871z"></path>
    <linearGradient id="I" x1="555.018" x2="635.986" y1="967.016" y2="967.016" gradientTransform="matrix(-.9938 .0621 0 1 1318.047 -100.382)" gradientUnits="userSpaceOnUse">
      <stop offset="0" stop-color="#8c8a89"></stop>
      <stop offset="1" stop-color="#a8a8a8"></stop>
    </linearGradient>
    <polygon fill="url(#I)" points="766.5 906.4 718.8 882.9 686 900.8 733.7 924.4"></polygon>
    <linearGradient id="J" x1="703.961" x2="562.21" y1="946.409" y2="1033.527" gradientTransform="matrix(-.9938 .0621 0 1 1318.047 -100.382)" gradientUnits="userSpaceOnUse">
      <stop offset="0" stop-color="#ddd"></stop>
      <stop offset="1" stop-color="#a8a8a8"></stop>
    </linearGradient>
    <path fill="url(#J)" d="M685.9,915.2c0-2.3-0.1-4.6,0-6.9c0-2.5,0.1-5,0.2-7.5l47.7,23.5c-0.2,4.8-0.2,9.6-0.1,14.4    c0,0.4,0,0.7,0,1.1c0.1,4.9,0.3,9.8,0.7,14.7c0.4,4.7,0.9,9.2,1.5,13.6c0.1,0.8,0.2,1.5,0.3,2.3c0.6,4.2,1.4,8.4,2.2,12.5l0,0l0,0    v0l-47.7-23.5c-0.6-2.7-1.1-5.4-1.6-8.2c-0.2-1.4-0.4-2.8-0.6-4.3c-0.1-0.8-0.2-1.5-0.3-2.3c-0.1-0.6-0.2-1.2-0.3-1.8    c-0.4-2.8-0.7-5.7-1-8.5c-0.1-1.1-0.2-2.2-0.3-3.3c-0.1-1.8-0.3-3.7-0.4-5.5l0.1,0.1l0,0l-0.1-0.1c-0.2-2.9-0.3-5.7-0.4-8.6    c0-0.2,0-0.4,0-0.6C685.9,915.9,685.9,915.6,685.9,915.2z"></path>
    <g>
      <linearGradient id="K" x1="540.076" x2="613.789" y1="881.994" y2="881.994" gradientTransform="matrix(-.9938 .0621 0 1 1318.047 -100.382)" gradientUnits="userSpaceOnUse">
        <stop offset="0" stop-color="#8c8a89"></stop>
        <stop offset="1" stop-color="#a8a8a8"></stop>
      </linearGradient>
      <polygon fill="url(#K)" points="755.7 821.1 708.1 797.6 733.6 813.8 781.3 837.3"></polygon>
    </g>
    <linearGradient id="L" x1="627.343" x2="483.987" y1="811.925" y2="900.029" gradientTransform="matrix(-.9938 .0621 0 1 1318.047 -100.382)" gradientUnits="userSpaceOnUse">
      <stop offset="0" stop-color="#ddd"></stop>
      <stop offset="1" stop-color="#a8a8a8"></stop>
    </linearGradient>
    <path fill="url(#L)" d="M770.1,789.1c-0.9,1.8-1.8,3.7-2.7,5.6c-1.4,2.9-2.8,5.8-4.2,8.8c-0.9,2-1.8,4-2.6,6.1    c-1.6,3.8-3.3,7.7-4.8,11.6l-47.7-23.5c0.8-2.1,1.7-4.3,2.5-6.4c0.7-1.7,1.5-3.4,2.3-5.2c0.9-2,1.7-4.1,2.6-6.1    c1.3-3,2.7-5.9,4.2-8.8c0.9-1.9,1.8-3.8,2.7-5.6c1.6-3.2,3.3-6.3,5-9.4c0.8-1.5,1.6-3.1,2.5-4.6c2.6-4.6,5.3-9.1,8.1-13.5    l47.7,23.5c-2.8,4.4-5.5,9-8.1,13.5c-0.9,1.5-1.6,3-2.5,4.6C773.4,782.8,771.7,785.9,770.1,789.1z"></path>
    <g>
      <linearGradient id="M" x1="429.398" x2="426.908" y1="1093.175" y2="657.356" gradientTransform="matrix(-.9938 .0621 0 1 1318.047 -100.382)" gradientUnits="userSpaceOnUse">
        <stop offset="0" stop-color="#ddd"></stop>
        <stop offset="1" stop-color="#fff"></stop>
      </linearGradient>
      <path fill="url(#M)" d="M734.3,954.5c-0.8-9.9-1-20-0.6-30.2l32.8-17.9c1.5-23.2,6.7-46.6,14.8-69.1l-25.6-16.2     c8.1-20.9,18.2-40.9,29.9-59.6l25.6,16.1c12.9-19.4,28.2-36.5,45.1-50l-3.3-40.8c7.6-5.7,15.3-10.7,23.3-15     c8-4.4,15.9-7.9,23.6-10.7l3.3,40.8c17.5-5.3,34.2-5.8,49-1.5l20.9-41.6c13.6,4.7,26,12.6,36.6,23.2L989,723.7     c10.9,12.1,19.2,28.2,24.2,47.8l32.8-17.9c1.9,8.9,3.3,18.3,4.1,28.3c0.8,9.9,1,20,0.6,30.3l-32.8,17.9     c-1.5,23.1-6.7,46.7-14.8,69.2l25.5,16c-8.1,20.9-18.2,41-30,59.6l-25.5-16.1c-13,19.4-28.3,36.6-45.1,50l3.3,40.8     c-7.5,5.6-15.3,10.6-23.3,15c-8,4.4-15.9,7.9-23.7,10.7l-3.3-40.8c-17.5,5.4-34.2,5.7-49,1.5l-20.8,41.4     c-13.6-4.6-26-12.5-36.6-23.1l20.9-41.5c-10.9-12.1-19.2-28.2-24.2-47.8l-32.8,17.9C736.4,973.9,735.1,964.5,734.3,954.5z      M898,940.7c32.2-17.6,55.7-64.4,52.5-104.4c-3.2-40-31.9-58.2-64.1-40.5c-32.2,17.6-55.7,64.3-52.4,104.3     C837.1,940.1,865.8,958.3,898,940.7"></path>
    </g>
    <g>
      <linearGradient id="N" x1="943.939" x2="943.67" y1="697.789" y2="650.682" gradientUnits="userSpaceOnUse">
        <stop offset="0" stop-color="#fff"></stop>
        <stop offset="1" stop-color="#fff"></stop>
      </linearGradient>
      <path fill="url(#N)" d="M908.2,704c17.5-5.3,34.2-5.8,49-1.5l20.9-41.6c0.5,0.2,1,0.4,1.5,0.6c-2.1-0.9-4.3-1.8-6.5-2.5l-20.9,41.6     c-13.5-3.9-28.5-3.9-44.3,0.2L908.2,704z"></path>
      <linearGradient id="O" x1="856.313" x2="855.601" y1="763.609" y2="639.14" gradientUnits="userSpaceOnUse">
        <stop offset="0" stop-color="#fff"></stop>
        <stop offset="1" stop-color="#fff"></stop>
      </linearGradient>
      <path fill="url(#O)" d="M811.8,776.9l4.4,2.8c12.9-19.4,28.2-36.5,45.1-50l-3.3-40.8c7.6-5.7,15.3-10.7,23.3-15     c6.4-3.5,12.8-6.5,19-8.9l-0.3-3.7c-7.7,2.7-15.6,6.3-23.6,10.7c-8,4.4-15.8,9.4-23.3,15l3.3,40.8     C839.7,741,824.6,757.8,811.8,776.9z"></path>
      <linearGradient id="P" x1="909.638" x2="908.694" y1="928.247" y2="763.135" gradientUnits="userSpaceOnUse">
        <stop offset="0" stop-color="#fff"></stop>
        <stop offset="1" stop-color="#fff"></stop>
      </linearGradient>
      <path fill="url(#P)" d="M955.4,838.3c-2-24.4-13.4-40.7-29.3-45.7c13.3,6.6,22.7,21.9,24.4,43.7c3.2,40-20.3,86.8-52.5,104.4     c-12.5,6.9-24.6,8.3-34.7,5.1c11.1,5.5,25,4.9,39.6-3.1C935.1,925.1,958.6,878.3,955.4,838.3z"></path>
      <linearGradient id="Q" x1="1031.935" x2="1031.816" y1="770.715" y2="749.889" gradientUnits="userSpaceOnUse">
        <stop offset="0" stop-color="#fff"></stop>
        <stop offset="1" stop-color="#fff"></stop>
      </linearGradient>
      <path fill="url(#Q)" d="M1018.1,773.4l28.7-15.7c-0.3-1.4-0.6-2.8-0.9-4.2l-29,15.8C1017.4,770.7,1017.7,772.1,1018.1,773.4z"></path>
      <linearGradient id="R" x1="885.168" x2="884.935" y1="1069.996" y2="1029.071" gradientUnits="userSpaceOnUse">
        <stop offset="0" stop-color="#fff"></stop>
        <stop offset="1" stop-color="#fff"></stop>
      </linearGradient>
      <path fill="url(#R)" d="M885.9,1036.4c-1.6,0.5-3.1,0.9-4.6,1.3l3,37.5c1.5-0.5,3.1-1.1,4.6-1.7L885.9,1036.4z"></path>
      <linearGradient id="S" x1="988.338" x2="988.252" y1="972.997" y2="957.942" gradientUnits="userSpaceOnUse">
        <stop offset="0" stop-color="#fff"></stop>
        <stop offset="1" stop-color="#fff"></stop>
      </linearGradient>
      <path fill="url(#S)" d="M978,960.7c-0.2,0.3-0.4,0.5-0.5,0.8l21.1,13.4c0.2-0.3,0.3-0.5,0.5-0.8L978,960.7z"></path>
      <linearGradient id="T" x1="762.375" x2="761.042" y1="953.15" y2="719.928" gradientUnits="userSpaceOnUse">
        <stop offset="0" stop-color="#fff"></stop>
        <stop offset="1" stop-color="#fff"></stop>
      </linearGradient>
      <path fill="url(#T)" d="M739.2,956.5c-0.8-9.9-1-20-0.6-30.2l32.8-17.9c1.5-23.2,6.7-46.6,14.8-69.1l-25.6-16.2     c8-20.6,17.9-40.4,29.4-58.7l-4.4-2.8c-11.8,18.6-21.8,38.7-29.9,59.6l25.6,16.2c-8.1,22.5-13.3,45.9-14.8,69.1l-32.8,17.9     c-0.4,10.2-0.2,20.3,0.6,30.2c0.8,9.9,2.2,19.4,4.1,28.4l4.1-2.2C741,973,739.9,964.9,739.2,956.5z"></path>
      <linearGradient id="U" x1="790.9" x2="790.238" y1="1062.043" y2="946.084" gradientUnits="userSpaceOnUse">
        <stop offset="0" stop-color="#fff"></stop>
        <stop offset="1" stop-color="#fff"></stop>
      </linearGradient>
      <path fill="url(#U)" d="M809.1,1076.7c-10.9-4.7-20.9-11.6-29.7-20.4l20.9-41.5c-10.9-12.1-19.2-28.2-24.2-47.8l-3.8,2.1     c5,17.8,13,32.5,23.1,43.7l-20.9,41.5C784.6,1064.4,796.2,1072,809.1,1076.7z"></path>
    </g>
  </g>
  <g>
    <linearGradient id="V" x1="559.546" x2="722.299" y1="509.512" y2="326.255" gradientUnits="userSpaceOnUse">
      <stop offset="0" stop-color="#fff"></stop>
      <stop offset="1" stop-color="#e0e1e4"></stop>
    </linearGradient>
    <polygon fill="url(#V)" points="763.3 305.1 774.4 393.2 467.4 487.7"></polygon>
    <linearGradient id="W" x1="612.021" x2="774.774" y1="556.115" y2="372.858" gradientUnits="userSpaceOnUse">
      <stop offset="0" stop-color="#fff"></stop>
      <stop offset="1" stop-color="#e0e1e4"></stop>
    </linearGradient>
    <polygon fill="url(#W)" points="855.7 513 793.9 428.9 467.4 487.7"></polygon>
    <linearGradient id="X" x1="787.438" x2="619.56" y1="440.433" y2="440.433" gradientUnits="userSpaceOnUse">
      <stop offset="0" stop-color="#b8b9c0"></stop>
      <stop offset="1" stop-color="#e0e1e4"></stop>
    </linearGradient>
    <polygon fill="url(#X)" points="774.4 393.2 774.4 433 467.4 487.7"></polygon>
  </g>
  <g>
    <linearGradient id="Y" x1="-1701.91" x2="-1539.157" y1="2142.407" y2="1959.149" gradientTransform="matrix(-1 0 0 1 738.544 0)" gradientUnits="userSpaceOnUse">
      <stop offset="0" stop-color="#fff"></stop>
      <stop offset="1" stop-color="#e0e1e4"></stop>
    </linearGradient>
    <polygon fill="url(#Y)" points="2236.7 1938 2225.6 2026 2532.6 2120.6"></polygon>
    <linearGradient id="Z" x1="-1649.435" x2="-1486.682" y1="2189.01" y2="2005.753" gradientTransform="matrix(-1 0 0 1 738.544 0)" gradientUnits="userSpaceOnUse">
      <stop offset="0" stop-color="#fff"></stop>
      <stop offset="1" stop-color="#e0e1e4"></stop>
    </linearGradient>
    <polygon fill="url(#Z)" points="2144.3 2145.9 2206.1 2061.8 2532.6 2120.6"></polygon>
    <linearGradient id="aa" x1="-1474.018" x2="-1641.897" y1="2073.328" y2="2073.328" gradientTransform="matrix(-1 0 0 1 738.544 0)" gradientUnits="userSpaceOnUse">
      <stop offset="0" stop-color="#b8b9c0"></stop>
      <stop offset="1" stop-color="#e0e1e4"></stop>
    </linearGradient>
    <polygon fill="url(#aa)" points="2225.6 2026 2225.6 2065.8 2532.6 2120.6"></polygon>
  </g>
  <g>
    <linearGradient id="ab" x1="1258.4" x2="1093.318" y1="2073.277" y2="2092.489" gradientUnits="userSpaceOnUse">
      <stop offset="0" stop-color="#010b0f"></stop>
      <stop offset="1" stop-color="#37363e"></stop>
    </linearGradient>
    <path fill="url(#ab)" d="M1181.6,2022.1c0,0-45.5,60.3-63.6,79.5c-18.1,19.2-32.8,42.5,0,54.9c32.8,12.5,50.4-10.2,67.9-27.7    s64.5-51.3,69.6-61.9c5.1-10.6-10.8-65-10.8-65S1222,2034.8,1181.6,2022.1z"></path>
    <linearGradient id="ac" x1="1357.149" x2="1300.694" y1="995.25" y2="995.25" gradientUnits="userSpaceOnUse">
      <stop offset="0" stop-color="#010b0f"></stop>
      <stop offset="1" stop-color="#37363e"></stop>
    </linearGradient>
    <path fill="url(#ac)" d="M1303.2,968c0,0-11.5,31.3,14.7,50.6c26.2,19.2,39.2-38.5,39.2-38.5L1303.2,968z"></path>
    <linearGradient id="ad" x1="1302.26" x2="1138.756" y1="1749.013" y2="1737.498" gradientUnits="userSpaceOnUse">
      <stop offset="0" stop-color="#181e23"></stop>
      <stop offset="1" stop-color="#44434b"></stop>
    </linearGradient>
    <path fill="url(#ad)" d="M1577.2,1484.6c0,0,71.4,62.6,13.4,121.4c-58.1,58.9-304.7,101.3-304.7,101.3s24,99.5,7.1,169.1    c-16.8,69.7-43,132.4-43,132.4s-5.6,15.7-33.5,19.6c-27.9,3.9-44,0-44,0s10.1-153.6,0-216.7c-10.1-63.2-2.2-187.4,56.7-218.8    c58.9-31.4,160.2-108.3,160.2-108.3S1573.5,1466.5,1577.2,1484.6z"></path>
    <linearGradient id="ae" x1="1236.611" x2="1145.721" y1="1536.799" y2="1657.144" gradientUnits="userSpaceOnUse">
      <stop offset="0" stop-color="#181e23"></stop>
      <stop offset="1" stop-color="#44434b"></stop>
    </linearGradient>
    <path fill="url(#ae)" d="M1318.7,1425.3c0,0-241.7,13.3-293.2,54.5c-51.5,41.2-9.7,74,46.9,126.4c56.6,52.4,249.3,125.3,249.3,125.3    s9.1-29.2,29.2-39c14.3-7,29-3.9,29-3.9l-142.2-136.7l239.8-51.8L1318.7,1425.3z"></path>
    <linearGradient id="af" x1="1637.516" x2="1245.915" y1="1316.471" y2="1316.471" gradientTransform="rotate(-6.636 1283.436 1161.242)" gradientUnits="userSpaceOnUse">
      <stop offset="0" stop-color="#d8d8d8"></stop>
      <stop offset=".995" stop-color="#fff"></stop>
    </linearGradient>
    <path fill="url(#af)" d="M1355,1089.4c0,0-51.5,4.4-66.6,14.9c-15.1,10.5-23.3,54.9-24.9,97.2c-1.6,42.3-5.2,67.9-5.2,67.9    s1,10.7,24,12.3c23,1.6,29.8-3.5,29.8-3.5l13.3,152.9c0,0,0.6,85.6,97.1,87.4c96.5,1.8,158-44.5,158-44.5L1568,1367    c0,0-3.2,13.4,44.4,6.3c47.7-7.2,48-35,48-35s-64.6-180.4-81.1-196.3c-16.5-15.9-120.4-52.6-120.4-52.6H1355z"></path>
    <linearGradient id="ag" x1="1374.992" x2="1453.789" y1="1090.078" y2="1091.245" gradientTransform="rotate(-6.636 1283.436 1161.242)" gradientUnits="userSpaceOnUse">
      <stop offset="0" stop-color="#fff39f"></stop>
      <stop offset="1" stop-color="#ffb761"></stop>
    </linearGradient>
    <path fill="url(#ag)" d="M1365.4,1084l2.4,20.9c0,0,10.3,12.9,48.1,8.7c37.8-4.3,43.4-16.2,43.4-16.2l-12.3-64.3L1365.4,1084z"></path>
    <linearGradient id="ah" x1="1356.716" x2="1448.425" y1="1037.157" y2="1038.396" gradientTransform="rotate(-6.636 1283.436 1161.242)" gradientUnits="userSpaceOnUse">
      <stop offset="0" stop-color="#fff39f"></stop>
      <stop offset="1" stop-color="#ffb761"></stop>
    </linearGradient>
    <path fill="url(#ah)" d="M1320.8,970.5c0,0-6,25.3-0.7,34.5c5.3,9.2-1.8,10.9,5.1,28.3c6.8,17.4,6.7,53,26.9,55.7    c20.1,2.7,85.4-8.7,99-31s41.7-76.6-12.9-88.3C1383.5,957.9,1320.8,970.5,1320.8,970.5z"></path>
    <linearGradient id="ai" x1="1513.088" x2="1321.695" y1="995.485" y2="995.485" gradientTransform="rotate(-6.636 1283.436 1161.242)" gradientUnits="userSpaceOnUse">
      <stop offset="0" stop-color="#010b0f"></stop>
      <stop offset="1" stop-color="#37363e"></stop>
    </linearGradient>
    <path fill="url(#ai)" d="M1297.9,943.4c-2.3,17.3,5.4,41.5,49.8,41.5c44.4,0,45.5,4.1,50.4,25.4c4.8,21.3,14.4,10.3,14.9,26.9    c0.5,16.7,5.2,20.3,6.3,17.8c1.1-2.4,3.8-42.6,14-42.9c10.2-0.4,4.3,48.2,9.8,49.8c5.5,1.6,28.9-21,44.6-59.6    c15.7-38.6-8.6-68.3-18.7-76.6c-10-8.3-4.1-26.4-39.2-32.2C1394.6,887.8,1301.2,918.9,1297.9,943.4z"></path>
    <linearGradient id="aj" x1="1387.772" x2="1322.689" y1="1711.401" y2="1711.401" gradientUnits="userSpaceOnUse">
      <stop offset="0" stop-color="#fff39f"></stop>
      <stop offset="1" stop-color="#ffb761"></stop>
    </linearGradient>
    <path fill="url(#aj)" d="M1368.3,1688.5l19.5,16.3l-57.3,29.8l-7.8-12.3C1322.7,1722.3,1339.9,1684.2,1368.3,1688.5z"></path>
    <linearGradient id="ak" x1="1425.974" x2="1281.337" y1="1763.869" y2="1763.869" gradientUnits="userSpaceOnUse">
      <stop offset="0" stop-color="#010b0f"></stop>
      <stop offset="1" stop-color="#37363e"></stop>
    </linearGradient>
    <path fill="url(#ak)" d="M1384.9,1704.8c0,0-25.9,0.5-40.1,15.1c-14.2,14.7-62.5,61.5-63.5,75.7c-1,14.2,18.1,27.4,18.1,27.4    l126.5-97.8C1426,1725.2,1405.9,1703.8,1384.9,1704.8z"></path>
    <linearGradient id="al" x1="1336.31" x2="1377.019" y1="1717.765" y2="1793.754" gradientUnits="userSpaceOnUse">
      <stop offset="0" stop-color="#919198"></stop>
      <stop offset="1" stop-color="#37363e"></stop>
    </linearGradient>
    <path fill="url(#al)" d="M1435.7,1736.6c-12.6-21.5-24.9-26.9-69.4,0c-44.5,26.9-75.2,68.4-65,82.6c10.3,14.2,113.3-41.5,127-55.7    C1442.1,1749.3,1435.7,1736.6,1435.7,1736.6z"></path>
    <linearGradient id="am" x1="4002.874" x2="4250.955" y1="1496.398" y2="1496.398" gradientTransform="matrix(-1 0 0 1 5511.038 0)" gradientUnits="userSpaceOnUse">
      <stop offset="0" stop-color="#d8d8d8"></stop>
      <stop offset=".995" stop-color="#c9bcbc"></stop>
    </linearGradient>
    <polygon fill="url(#am)" points="1335.7 1596.7 1508.2 1514.4 1260.1 1396.1"></polygon>
    <linearGradient id="an" x1="4083.955" x2="4098.244" y1="1580.292" y2="1529.779" gradientTransform="matrix(-1 0 0 1 5511.038 0)" gradientUnits="userSpaceOnUse">
      <stop offset="0" stop-color="#fff"></stop>
      <stop offset=".995" stop-color="#fffcf9"></stop>
    </linearGradient>
    <polygon fill="url(#an)" points="1508.2 1514.4 1508.2 1527.3 1335.7 1609.7 1335.7 1596.7"></polygon>
    <linearGradient id="ao" x1="4428.515" x2="4187.193" y1="1470.508" y2="1611.627" gradientTransform="matrix(-1 0 0 1 5510.987 0)" gradientUnits="userSpaceOnUse">
      <stop offset="0" stop-color="#d8d8d8"></stop>
      <stop offset=".995" stop-color="#c9bcbc"></stop>
    </linearGradient>
    <polygon fill="url(#ao)" points="1335.7 1609.7 1095.6 1500 1095.6 1487.4 1335.7 1596.7"></polygon>
    <linearGradient id="ap" x1="1542.352" x2="1511.642" y1="1359.155" y2="1359.155" gradientTransform="rotate(-6.636 1283.436 1161.242)" gradientUnits="userSpaceOnUse">
      <stop offset="0" stop-color="#5f637a"></stop>
      <stop offset="1" stop-color="#37363e"></stop>
    </linearGradient>
    <polygon fill="url(#ap)" points="1568 1367 1546.3 1242 1543.1 1418.2 1570.3 1392.7" opacity=".3"></polygon>
    <linearGradient id="aq" x1="1298.361" x2="1277.878" y1="1213.277" y2="1213.277" gradientTransform="rotate(-6.636 1283.436 1161.242)" gradientUnits="userSpaceOnUse">
      <stop offset="0" stop-color="#5f637a"></stop>
      <stop offset="1" stop-color="#37363e"></stop>
    </linearGradient>
    <path fill="url(#aq)" d="M1312.1,1278.3c0,0-22.3-103.5-24.3-118.2c-2-14.7-2-14.7-2-14.7l5.9,135.2L1312.1,1278.3z" opacity=".3"></path>
    <linearGradient id="ar" x1="1318.268" x2="1208.696" y1="1337.16" y2="1337.16" gradientUnits="userSpaceOnUse">
      <stop offset="0" stop-color="#fff39f"></stop>
      <stop offset="1" stop-color="#ffb761"></stop>
    </linearGradient>
    <path fill="url(#ar)" d="M1267.9,1278.8l-7.8,42.4l-51.4,32.4l26,42.4c0,0,58.5-26.8,69.8-34.1c11.3-7.3,13.8-12.6,13.8-12.6    l-6.2-71C1312.1,1278.3,1288.3,1284.5,1267.9,1278.8z"></path>
    <linearGradient id="as" x1="4175.29" x2="4507.916" y1="1416.255" y2="1416.255" gradientTransform="matrix(-1 0 0 1 5510.987 0)" gradientUnits="userSpaceOnUse">
      <stop offset="0" stop-color="#d8d8d8"></stop>
      <stop offset=".995" stop-color="#c9bcbc"></stop>
    </linearGradient>
    <polygon fill="url(#as)" points="1095.6 1487.4 1003.1 1235.8 1243.2 1345.1 1335.7 1596.7"></polygon>
    <linearGradient id="at" x1="4186.147" x2="4273.034" y1="1578.134" y2="1270.976" gradientTransform="matrix(-1 0 0 1 5511.038 0)" gradientUnits="userSpaceOnUse">
      <stop offset="0" stop-color="#fff"></stop>
      <stop offset=".995" stop-color="#fffcf9"></stop>
    </linearGradient>
    <polygon fill="url(#at)" points="1344.7 1592.4 1254.4 1337.1 1243.2 1345.1 1335.7 1596.7"></polygon>
    <linearGradient id="au" x1="4362.126" x2="4418.299" y1="1357.763" y2="1159.185" gradientTransform="matrix(-1 0 0 1 5511.038 0)" gradientUnits="userSpaceOnUse">
      <stop offset="0" stop-color="#d8d8d8"></stop>
      <stop offset=".995" stop-color="#fffcf9"></stop>
    </linearGradient>
    <polygon fill="url(#au)" points="1003.1 1235.8 1015.7 1226.8 1254.4 1337.1 1243.2 1345.1"></polygon>
    <linearGradient id="av" x1="1662.506" x2="1354.069" y1="1448.102" y2="1448.102" gradientUnits="userSpaceOnUse">
      <stop offset="0" stop-color="#fff39f"></stop>
      <stop offset="1" stop-color="#ffb761"></stop>
    </linearGradient>
    <path fill="url(#av)" d="M1573.5,1373.2l-3.1,19.5c0,0-115,102.3-133.1,103.7c-18.2,1.4-34.7-3.2-53.1,8.3    c-18.4,11.4-34.6,33.7-28.9,40.9c5.7,7.2,41.3-16.7,63-13.4c21.6,3.3,37.8-12.5,66.9-26.9c29.2-14.4,141.2-84.9,164.9-109.2    c23.2-23.8,6.8-46.8,6.8-46.8S1613.2,1373.7,1573.5,1373.2z"></path>
    <path fill="#fff" d="m1367.2 1089.1 18.1 25.4c0 0-6.9 2.3-16.6 7.4-9.7 5.1-14.5 11.2-14.5 11.2l-6.4-42.9L1367.2 1089.1zM1424.3 1101.9c-25.8 12.1-29.2 13.1-29.2 13.1l17.3 30.4 69.2-47.8-16.4-23.9C1465.2 1073.8 1451.6 1089.1 1424.3 1101.9z"></path>
  </g>
</svg>
