<svg xmlns="http://www.w3.org/2000/svg" id="agile-methodology" viewBox="0 0 1200 1000">
  <g id="Agile_Methodology">
    <path d="M359.167 358.991c-7.617-58.786-36.717-102.924-77.73-126.556s-93.55-27.147-148.236-4.492c15.234 117.572 116.401 176.359 225.966 131.048Z" style="fill:#199180"></path>
    <path d="m346.472 352.546-196.28-114.252c-.194 0-.194-.195-.194-.39s.195-.196.39-.196L347.254 351.18c.39.195.585.781.195.977 0 .39-.586.585-.977.39Z" style="fill:#fff"></path>
    <path d="M233.392 286.143a55.72 55.72 0 0 0-17.968 1.758 63.575 63.575 0 0 0-8.593 2.93 44.83 44.83 0 0 0-7.812 4.491.92.92 0 0 1-1.172-.195c-.39-.39-.196-.781.195-1.172a40.946 40.946 0 0 1 8.203-4.296 50.57 50.57 0 0 1 8.788-2.735 52.667 52.667 0 0 1 18.359-.976c.195 0 .195.195 0 .195ZM293.155 320.712a61.48 61.48 0 0 1-8.203-16.406 46 46 0 0 1-1.953-8.984 73.718 73.718 0 0 1-.39-9.179.781.781 0 0 1 1.562 0 46.028 46.028 0 0 0 0 8.984 33.44 33.44 0 0 0 1.757 8.789 61.526 61.526 0 0 0 7.227 16.796c.195.195 0 .195 0 0ZM314.052 332.82a55.722 55.722 0 0 0-17.968 1.758 63.572 63.572 0 0 0-8.593 2.93 44.83 44.83 0 0 0-7.812 4.492.92.92 0 0 1-1.172-.195c-.39-.391-.195-.782.195-1.172a40.946 40.946 0 0 1 8.203-4.297 50.566 50.566 0 0 1 8.789-2.734 52.667 52.667 0 0 1 18.358-.977s.195.196 0 .196ZM202.925 268.566a61.48 61.48 0 0 1-8.203-16.405 46 46 0 0 1-1.953-8.984 73.717 73.717 0 0 1-.39-9.18.781.781 0 1 1 1.562 0 46.028 46.028 0 0 0 0 8.984 33.44 33.44 0 0 0 1.757 8.789 61.527 61.527 0 0 0 7.227 16.796c.195.195.195 0 0 0Z" style="fill:#fff"></path>
    <path d="M359.167 358.991c26.17-53.317 26.17-106.05 5.078-148.43s-63.083-74.215-121.283-85.543c-52.341 106.636-.196 211.318 116.205 233.973Z" style="fill:#2ab19f"></path>
    <path d="M352.136 346.492 251.36 142.986c0-.195 0-.39.195-.39s.39 0 .39.195l101.558 203.115a.713.713 0 0 1-.39.976c-.196.196-.782 0-.977-.39Z" style="fill:#fff"></path>
    <path d="M294.326 228.92a57.759 57.759 0 0 0-16.014-8.594 48.04 48.04 0 0 0-8.789-2.148 46.32 46.32 0 0 0-8.984-.586.781.781 0 0 1 0-1.563 35.763 35.763 0 0 1 9.18.977 41.667 41.667 0 0 1 8.788 2.539 51.43 51.43 0 0 1 15.82 9.374c.195-.195.195 0 0 0ZM325.184 290.635a63.382 63.382 0 0 1 2.149-18.163 45.972 45.972 0 0 1 3.32-8.593 48.816 48.816 0 0 1 4.882-8.008c.196-.39.782-.39 1.172-.195s.39.781.196 1.172a44.182 44.182 0 0 0-4.883 7.421 63.488 63.488 0 0 0-3.515 8.398 55.714 55.714 0 0 0-2.735 17.968c-.39.195-.39.195-.586 0ZM335.926 312.314a57.76 57.76 0 0 0-16.015-8.594 48.043 48.043 0 0 0-8.788-2.148 46.32 46.32 0 0 0-8.984-.586.781.781 0 1 1 0-1.562 35.764 35.764 0 0 1 9.179.976 41.667 41.667 0 0 1 8.788 2.54 53.825 53.825 0 0 1 15.82 9.374c.195-.195.195 0 0 0ZM278.702 197.476a63.383 63.383 0 0 1 2.149-18.164 45.972 45.972 0 0 1 3.32-8.593 48.816 48.816 0 0 1 4.882-8.007c.196-.39.781-.39 1.172-.196s.39.782.195 1.172a44.18 44.18 0 0 0-4.882 7.422 63.488 63.488 0 0 0-3.516 8.398 55.714 55.714 0 0 0-2.734 17.968Z" style="fill:#fff"></path>
    <path d="M358.972 358.796c-41.99-41.99-91.793-58.982-138.665-52.732S129.49 341.61 100 393.17c83.785 83.785 199.795 68.356 258.972-34.373Z" style="fill:#48dbc5"></path>
    <path d="m344.91 361.335-225.184 29.49a.309.309 0 1 1-.196-.585l225.185-30.272c.39 0 .78.195.78.586.196.39-.194.78-.585.78Z" style="fill:#fff"></path>
    <path d="M215.033 377.936a56.912 56.912 0 0 0-13.28 12.304 38.886 38.886 0 0 0-4.883 7.617 40.091 40.091 0 0 0-3.515 8.398.805.805 0 1 1-1.563-.391 32.916 32.916 0 0 1 3.906-8.398 52.736 52.736 0 0 1 5.274-7.617 51.825 51.825 0 0 1 14.061-11.913c-.195-.196 0-.196 0 0ZM283.39 368.952a55.698 55.698 0 0 1-16.406-8.008 50.853 50.853 0 0 1-7.03-5.859 41.278 41.278 0 0 1-5.86-7.226.84.84 0 1 1 1.367-.977 37.787 37.787 0 0 0 5.469 7.031 50.51 50.51 0 0 0 6.835 6.055 62.738 62.738 0 0 0 16.015 8.398c-.39.39-.195.39-.39.586ZM307.216 365.632a56.912 56.912 0 0 0-13.28 12.304 38.886 38.886 0 0 0-4.883 7.616 40.09 40.09 0 0 0-3.515 8.398 1.074 1.074 0 0 1-.977.586c-.39 0-.586-.586-.586-.976a32.915 32.915 0 0 1 3.906-8.398 52.736 52.736 0 0 1 5.274-7.617 58.44 58.44 0 0 1 14.061-11.913ZM180.074 382.623a55.698 55.698 0 0 1-16.405-8.008 50.853 50.853 0 0 1-7.031-5.859 41.278 41.278 0 0 1-5.86-7.226.92.92 0 0 1 .196-1.172c.39-.39.781-.195 1.172.196a37.787 37.787 0 0 0 5.468 7.03 50.51 50.51 0 0 0 6.836 6.055 62.738 62.738 0 0 0 16.015 8.398 1.501 1.501 0 0 1-.39.586Z" style="fill:#fff"></path>
    <path d="m1096.631 762.292-90.23 68.551a8.524 8.524 0 0 1-13.671-6.835V809.75H566.97c33.2-16.015 103.12-37.694 129.876-64.255a328.684 328.684 0 0 0 30.662-35.35H992.73v-23.241a8.577 8.577 0 0 1 13.671-6.836l90.23 68.552a8.619 8.619 0 0 1 0 13.67Z" style="fill:#fa5814"></path>
    <path d="M560.915 212.71v99.604c-97.456 7.617-175.382 85.543-182.999 182.999h-99.604c8.007-152.337 130.267-274.596 282.603-282.604Z" style="fill:#fcc800"></path>
    <path d="M875.353 495.313h-99.605c-7.617-97.456-85.542-175.382-182.999-183V212.71c152.532 8.008 274.792 130.267 282.604 282.604Z" style="fill:#ba93df"></path>
    <path d="M875.353 527.147C867.345 679.68 745.086 801.743 592.749 809.75H139.646v-99.604H592.75c97.457-7.617 175.187-85.543 183-182.999Z" style="fill:#ff9a05"></path>
    <path d="m404.477 508.984-68.551 90.035a8.422 8.422 0 0 1-13.476 0L253.9 508.984a8.524 8.524 0 0 1 6.835-13.671h137.103a8.534 8.534 0 0 1 6.64 13.67Z" style="fill:#fcc800"></path>
    <path d="m715.79 486.915-28.71-9.96a107.114 107.114 0 0 0-6.444-15.43l13.28-27.342a6.553 6.553 0 0 0-1.367-7.617l-28.123-28.319a6.85 6.85 0 0 0-7.813-1.367l-27.342 13.28a107.115 107.115 0 0 0-15.429-6.444l-9.96-28.905a6.753 6.753 0 0 0-6.445-4.492h-39.842a6.753 6.753 0 0 0-6.445 4.492l-9.765 28.905a107.112 107.112 0 0 0-15.43 6.445l-27.342-13.281a6.553 6.553 0 0 0-7.616 1.367l-28.124 28.124a6.85 6.85 0 0 0-1.367 7.812l13.28 27.342a107.114 107.114 0 0 0-6.445 15.43l-28.904 9.96a6.753 6.753 0 0 0-4.492 6.445V533.2a6.753 6.753 0 0 0 4.492 6.445l28.904 9.96a107.11 107.11 0 0 0 6.445 15.43l-13.28 27.342a6.553 6.553 0 0 0 1.367 7.617l28.124 28.124a6.794 6.794 0 0 0 7.812 1.367l27.342-13.28a107.114 107.114 0 0 0 15.43 6.444l9.96 28.905a6.753 6.753 0 0 0 6.445 4.492h39.841a6.753 6.753 0 0 0 6.445-4.492l9.96-28.905a107.112 107.112 0 0 0 15.43-6.445l27.342 13.28a6.906 6.906 0 0 0 7.812-1.366l28.124-28.124a6.85 6.85 0 0 0 1.367-7.812l-13.28-27.342a107.115 107.115 0 0 0 6.444-15.43l28.71-9.96a6.753 6.753 0 0 0 4.492-6.445v-39.842a7.377 7.377 0 0 0-4.883-6.25Z" style="fill:#c8e1ff"></path>
    <circle cx="577.516" cy="513.281" r="92.964" style="fill:#fff"></circle>
    <path d="M282.022 870.49c-.195 1.367-.39 2.734-.586 3.515a1.301 1.301 0 0 1-1.367.977h-61.52a1.384 1.384 0 0 1-1.367-1.563l2.343-9.96 7.617-32.03 24.413 2.539s-1.758 14.452 17.382 19.92c11.914 3.321 13.476 11.524 13.085 16.602Z" style="fill:#464ae4"></path>
    <path d="M258.781 848.811c-8.202-6.445-7.03-14.843-7.03-14.843l-24.609-2.539-4.101 17.577h35.74Z" style="fill:#2624bd"></path>
    <path d="M193.745 870.49c-.195 1.367-.39 2.734-.585 3.515a1.301 1.301 0 0 1-1.368.977h-61.325a1.384 1.384 0 0 1-1.367-1.563l2.344-9.96 7.617-32.03 24.412 2.539s-1.757 14.452 17.382 19.921c11.719 3.32 13.281 11.523 12.89 16.6Z" style="fill:#464ae4"></path>
    <path d="M170.504 848.811c-8.202-6.445-7.03-14.843-7.03-14.843l-24.413-2.539-4.102 17.577h35.545Z" style="fill:#2624bd"></path>
    <path d="M286.905 838.07h-86.52c-1.171-6.836-.976-16.406.391-26.952a292.79 292.79 0 0 1 7.227-37.303.717.717 0 0 1 .195-.586c.195-.977.39-1.758.586-2.734 2.343-11.133 2.734-24.218 2.539-35.74v-2.93c-2.54-72.458-33.592-178.312-33.592-178.703 8.007-.39-28.905 1.563 78.12-4.296 0 0 2.15 13.085 5.47 33.787.39 2.93 5.468 34.764 11.327 78.317.195.976.195 1.953.39 2.93 3.32 24.412 6.445 49.997 8.984 74.605.196.976.196 1.953.391 2.734 1.172 12.304 2.344 24.413 3.125 35.74 0 .977.195 1.954.195 2.93.977 13.085 1.563 25.194 1.758 35.74 0 7.031-.195 15.234-.586 22.46Z" style="fill:#292561"></path>
    <path d="M224.017 693.74c-1.171 12.11-.586 24.413-2.539 36.522-1.562 9.57-4.687 19.14-10.741 26.366a197.696 197.696 0 0 0 .586-21.874v-2.93c-.39-10.155-1.367-21.092-2.54-32.03 5.079-24.607 6.836-49.215 7.618-74.214.39-11.523.78-23.241 1.171-34.764.196-8.789-.976-27.538-1.757-36.326 10.741 14.452 19.335 42.185 20.116 60.153.976 26.756-9.57 52.536-11.914 79.098Z" style="fill:#191937"></path>
    <path d="M217.963 658c-.39 0-.586-.195-.977-.195.196-.977.391-1.953.586-2.734a1.174 1.174 0 0 1 .782.195c13.085 2.148 26.56 4.297 40.037 5.273 5.078.39 9.96.586 14.257.586.195.976.195 1.953.39 2.93-4.492 0-9.374-.196-14.843-.586-13.67-1.172-27.147-3.32-40.232-5.469ZM222.455 580.855a14.782 14.782 0 0 0-.195-2.93c11.718 1.954 23.827 3.712 35.935 4.688.977 0 1.953.195 2.735.195.195.977.195 1.953.39 2.93-1.172 0-2.343-.195-3.515-.195-11.718-1.172-23.632-2.93-35.35-4.688ZM258.195 624.408c-12.108-.977-24.022-2.734-35.74-4.492a14.782 14.782 0 0 1 .195-2.93c11.718 1.758 23.827 3.711 35.936 4.688 3.125.195 6.054.39 8.789.39.195.977.195 1.953.39 2.93-3.32-.195-6.25-.39-9.57-.586ZM217.963 696.865c-2.93-.39-5.664-.976-8.398-1.367.195-.976.39-1.953.586-2.734 2.734.39 5.664.781 8.398 1.367 13.085 2.148 26.561 4.297 40.037 5.273a163.301 163.301 0 0 0 19.14.391c.195.976.195 1.953.39 2.734a136.92 136.92 0 0 1-19.725-.39c-13.867-.977-27.343-3.125-40.428-5.274ZM282.218 741.2a122.753 122.753 0 0 1-24.023 0c-13.67-.977-27.147-3.126-40.232-5.274-2.148-.39-4.492-.781-6.64-.977v-2.93a571.2 571.2 0 0 0 7.226 1.173c13.085 2.148 26.561 4.296 40.037 5.273a118.782 118.782 0 0 0 23.632 0 12.76 12.76 0 0 0 0 2.734ZM285.538 779.674c-7.617 1.172-16.6 1.172-27.538.39-13.671-.976-27.147-3.124-40.232-5.273-3.32-.586-6.445-.976-9.765-1.562.195-.977.39-1.758.585-2.734 3.125.586 6.445.976 9.57 1.562 13.086 2.148 26.562 4.297 40.037 5.273 10.742.781 19.53.781 27.148-.39a12.895 12.895 0 0 1 .195 2.734ZM287.296 818.344c-8.008 1.367-17.578 1.562-29.296.781-13.671-.977-27.147-3.125-40.232-5.273-5.469-.977-11.133-1.758-16.601-2.54h-.586c.195-.976.195-1.757.39-2.733h.587c5.663.78 11.132 1.757 16.6 2.539 13.086 2.148 26.561 4.296 40.037 5.273 11.719.976 20.898.586 28.905-.781a12.01 12.01 0 0 1 .196 2.734Z" style="fill:#191937"></path>
    <path d="M338.074 458.205a428.142 428.142 0 0 1-36.326 29.1c-15.234 10.742-32.03 19.921-42.38 18.75-7.032-.782-11.914-5.079-15.43-10.938-6.25-10.35-8.007-25.584-8.398-34.764-.195-4.492 0-7.616.196-8.007s2.343-.781 5.468-1.367c5.273-.781 13.28-1.953 19.335-2.734 4.883-.586 8.398-.977 8.398-.977l.586 1.758c1.562 5.273 6.64 20.507 7.812 20.702 2.54.195 60.544-17.773 60.544-17.773v6.25Z" style="fill:#ffd1c4"></path>
    <path d="M301.748 487.305c-15.234 10.742-32.03 19.921-42.38 18.75-7.032-.782-11.914-5.078-15.43-10.938-.39-1.171-.78-2.343-1.172-3.71a189.856 189.856 0 0 1-6.25-25.194c-.39-1.953-.585-3.906-.976-5.86l2.149-26.17 6.25 30.077 19.725-11.719a43.589 43.589 0 0 1 5.664 12.695c.78 2.734 1.172 5.469 2.148 8.007a11.126 11.126 0 0 0 5.273 6.25c6.055 2.93 13.476-2.539 19.53.195 2.93 1.172 4.688 4.102 5.469 7.617Z" style="fill:#f1c0ba"></path>
    <path d="M222.455 616.986a14.782 14.782 0 0 1-.195 2.93 195.57 195.57 0 0 1-3.32 27.928c-6.836 32.225-35.155 181.437-37.694 190.03 0 .195 0 .195-.195.39h-75.778a92.115 92.115 0 0 1-3.71-13.085c-5.078-26.17 3.32-51.755 16.99-74.605 9.766-16.21 23.047-79.098 26.757-97.261.586-2.93 3.711-18.163 7.617-39.647 1.563-8.984 2.344-13.085 6.64-39.256a15.076 15.076 0 0 0 .391-2.93c1.953-11.913 3.125-19.139 3.125-19.139l53.903-34.764c0 .196 3.907 27.733 5.274 60.544a14.782 14.782 0 0 0 .195 2.93c.39 11.718.586 24.022 0 35.935Z" style="fill:#292561"></path>
    <path d="m271.476 447.659-6.836 4.101-.39.195-.586.196-12.89 7.812-2.54 1.562-4.296 2.54-1.172-5.274-5.273-24.608-1.562-7.422-3.125-14.647c.195 0 26.757 5.273 38.67 35.545Z" style="fill:#9859cd"></path>
    <path d="m264.64 451.76-.39.195-.586.196-12.89 7.812-2.539 1.562a28.614 28.614 0 0 1-5.469-2.734 7.646 7.646 0 0 1-1.953-1.562 19.608 19.608 0 0 1-4.1-7.031c-2.15-5.078-3.516-10.547-2.93-15.82a18.196 18.196 0 0 1 2.343-7.617 16.88 16.88 0 0 1 5.86-6.445 16.163 16.163 0 0 1 8.788 5.078 40.604 40.604 0 0 1 5.859 8.398 114.308 114.308 0 0 1 8.007 17.968Z" style="fill:#7a3ecb"></path>
    <path d="M257.024 556.833c0 2.148-51.56 2.734-78.512 1.563-9.57-.391-16.015-.977-16.015-1.563.39-18.163-2.734-75.777-4.492-104.096a52.137 52.137 0 0 1 0-7.812 53.798 53.798 0 0 1 7.812-24.413 21.682 21.682 0 0 1 5.664-5.469c15.624-9.96 49.997-10.156 66.793-.781 8.398 4.883 13.867 14.062 17.382 24.218 6.25 18.358 1.563 43.357.586 65.817-.78 26.756 1.172 49.607.782 52.536Z" style="fill:#9859cd"></path>
    <path d="M201.558 480.274c-3.32 7.812-8.398 14.648-13.476 21.484s-10.156 13.67-13.086 21.483c-3.125 7.812-3.906 16.991-.586 24.608 1.563 3.516 3.906 6.836 4.102 10.547-9.57-.391-16.015-.977-16.015-1.563.39-18.163-2.734-75.777-4.492-104.096a52.137 52.137 0 0 1 0-7.812c14.843-8.008 38.865-6.64 45.115 10.546 3.125 8.203 1.758 16.991-1.562 24.803Z" style="fill:#7a3ecb"></path>
    <path d="M291.788 477.345c-4.492-16.6-28.71 4.492-28.71 4.492s-62.497 9.96-71.09 1.758c-3.711-3.32-1.758-15.234 0-23.046l-31.444 4.296c-4.492 20.117-3.516 40.428 8.203 45.897 28.904 13.67 99.018-15.625 99.018-15.625s30.663 6.055 24.023-17.772Z" style="fill:#ffd1c4"></path>
    <path d="M194.331 473.439a2.958 2.958 0 0 1-2.539 2.93l-30.857 1.562a2.944 2.944 0 0 1-2.93-2.344c-.39-2.734 0-7.421-.39-13.476a3.807 3.807 0 0 0-.196-1.562 175.593 175.593 0 0 1 0-20.312c1.172-20.702 16.21-25.78 16.21-25.78 12.89 7.812 16.992 28.515 19.14 44.334 0 .586.195 1.172.195 1.562a81.936 81.936 0 0 1 1.367 13.086Z" style="fill:#9859cd"></path>
    <path d="m335.34 481.25-28.905 16.797c-5.273 3.125-11.327-2.734-8.398-8.007l26.952-48.63a8.325 8.325 0 0 1 2.148-2.345l28.905-16.796c5.273-3.124 11.328 2.735 8.398 8.008l-26.952 48.63a4.97 4.97 0 0 1-2.148 2.344Z" style="fill:#5b6f8b"></path>
    <path d="M345.105 465.04c-4.296-1.562-8.202-4.491-5.859-11.132 2.54-6.64 11.523-11.132 15.82-9.57s-5.664 22.265-9.96 20.703ZM217.572 413.285l4.102-15.038s14.843 4.297 17.186-1.367c3.125-7.617 18.75-47.263-2.539-59.372-21.288-11.914-43.357 8.398-45.115 12.304s9.375 37.693 9.375 37.693l-5.273 20.117c-.977 2.539 21.288 8.202 22.264 5.663Z" style="fill:#ffd1c4"></path>
    <path d="M221.87 398.052s-12.89-6.445-14.063-10.742c0 0 4.102 12.304 12.109 17.382Z" style="fill:#f1c0ba"></path>
    <path d="M199.41 392.388s-7.813-.586-9.18-10.351-13.671-34.569-2.734-47.85 33.787-2.538 41.795-10.35 44.333-5.86 42.185 12.694-22.46 22.07-28.71 18.359-26.951-8.789-29.1-2.93.782 16.601-1.953 16.992-4.882-16.406-13.085-11.523 4.687 15.233 4.687 15.233 3.711 13.867-3.906 19.726Z" style="fill:#7c3a3a"></path>
    <path d="m222.455 580.855-4.492-.78c-5.468-.977-11.132-1.758-16.6-2.54s-11.328-1.562-17.578-2.148a238.472 238.472 0 0 0-24.022-1.172 15.076 15.076 0 0 0 .39-2.93c7.812 0 15.43.391 22.85.977 6.836.586 13.086 1.563 18.945 2.344 5.664.781 11.132 1.757 16.6 2.539l4.102.586a17.872 17.872 0 0 0-.195 3.124ZM222.455 616.986a14.782 14.782 0 0 1-.195 2.93 36.056 36.056 0 0 1-4.492-.781c-5.469-.977-11.133-1.758-16.601-2.54a717.71 717.71 0 0 0-7.812-1.17 225.73 225.73 0 0 0-40.623-1.954l.586-2.93a229.75 229.75 0 0 1 39.256 1.954c3.124.39 6.054.78 8.984 1.171 5.663.782 11.132 1.758 16.6 2.54a28.007 28.007 0 0 1 4.297.78ZM217.377 655.07c-.195.977-.39 1.758-.586 2.735l-15.233-2.344h-.391c-15.624-2.344-36.131-4.687-56.052-2.539l.586-2.93c19.53-1.952 39.646.196 55.27 2.54h.587c5.273.78 10.546 1.757 15.82 2.539ZM209.956 692.764c-.196.977-.391 1.758-.586 2.734-.39 0-.977-.195-1.367-.195-2.344-.39-4.492-.781-6.836-.977-16.015-2.343-37.108-4.687-57.224-2.343-2.539.39-5.078.586-7.617 1.172a16.27 16.27 0 0 1 .782-2.93c2.148-.39 4.296-.781 6.445-.976 20.506-2.344 41.794 0 58.005 2.343 1.953.195 3.906.586 6.054.977.781 0 1.562.195 2.344.195ZM202.534 730.653c-.195.976-.39 1.757-.586 2.734a1.174 1.174 0 0 1-.781-.195c-16.015-2.344-37.108-4.688-57.224-2.344A108.233 108.233 0 0 0 125 734.754a16.497 16.497 0 0 0 .976-3.32 116.612 116.612 0 0 1 17.578-3.516c20.506-2.343 41.794 0 58.005 2.344a1.262 1.262 0 0 0 .976.39ZM195.113 768.542c-.196.976-.391 1.953-.586 2.734-15.039-1.953-33.202-3.516-50.584-1.367-16.796 1.953-31.248 7.226-40.428 14.452.391-1.367.782-2.93 1.368-4.492 9.57-6.445 23.436-10.937 38.865-12.695 17.772-2.148 36.13-.585 51.365 1.368ZM187.691 806.626c-.195.976-.39 1.953-.586 2.734-13.28-1.367-28.514-2.344-43.162-.586-17.968 2.148-33.397 8.007-42.38 16.015-.196-.977-.391-2.149-.587-3.32 9.57-7.812 25-13.476 42.772-15.625 14.843-1.562 30.467-.78 43.943.782Z" style="fill:#191937"></path>
    <path d="M776.334 870.685c.195 1.367.39 2.539.586 3.32a1.238 1.238 0 0 0 1.172.977h59.763a1.251 1.251 0 0 0 1.171-1.563l-2.343-9.57-7.422-31.248-23.631 2.539s1.757 14.062-16.796 19.335c-11.328 3.32-12.89 11.327-12.5 16.21Z" style="fill:#292561"></path>
    <path d="M798.99 849.592c8.007-6.25 6.835-14.452 6.835-14.452l23.632-2.539 3.906 16.991h-34.374Z" style="fill:#191937"></path>
    <path d="M898.984 870.685c.196 1.367.391 2.539.586 3.32a1.238 1.238 0 0 0 1.172.977h59.763a1.251 1.251 0 0 0 1.172-1.563l-2.344-9.57-7.421-31.248-23.632 2.539s1.758 14.062-16.796 19.335c-11.328 3.32-12.695 11.327-12.5 16.21Z" style="fill:#292561"></path>
    <path d="M921.64 849.592c8.007-6.25 6.835-14.452 6.835-14.452l23.632-2.539 3.906 16.991H921.64Z" style="fill:#191937"></path>
    <path d="m970.465 613.08-21.483-2.343s4.297-40.623 6.054-65.231c.782-9.96.977-17.382.196-18.164-2.344-3.32-24.413-50.974-24.413-50.974l8.788-35.35 5.274-20.702c2.734.977 27.342 35.155 39.646 86.324 6.445 26.366-14.062 106.44-14.062 106.44Z" style="fill:#48dbc5"></path>
    <path d="M966.56 538.084c-2.344 4.101-6.836 6.64-11.328 7.422.781-9.96.976-17.382.195-18.164-2.344-3.32-24.413-50.974-24.413-50.974l8.789-35.35c5.078-3.32 11.718-5.077 13.866 2.54 1.172 4.1 0 8.983-.39 13.28-.586 6.25-.781 12.5-.781 18.75.39 11.327 2.343 22.85 7.226 33.005 2.343 4.688 5.273 9.18 7.03 14.257 1.758 4.883 2.344 10.547-.195 15.234Z" style="fill:#2ab19f"></path>
    <path d="m1057.18 579.684-13.476 56.442a4.71 4.71 0 0 1-5.664 3.516l-193.154-45.897a4.71 4.71 0 0 1-3.516-5.663l13.476-56.443a4.71 4.71 0 0 1 5.664-3.515l193.154 45.896a4.71 4.71 0 0 1 3.516 5.664Z" style="fill:#a3caed"></path>
    <path d="M965.192 627.533c-2.734 8.007-31.639-2.344-28.71-10.156a15.227 15.227 0 0 1 28.71 10.156Z" style="fill:#ffd1c4"></path>
    <path d="M1035.11 604.292a20.465 20.465 0 1 1-15.233-24.608 20.561 20.561 0 0 1 15.234 24.608Z" style="fill:#fff"></path>
    <path d="M939.022 559.958c7.421 42.576 9.179 89.644 7.226 139.837 0 0 60.544 98.433 40.623 141.595h-78.317s11.133-67.77-12.89-113.276c-25.975-49.412-22.46-159.563-7.617-182.218s50.975 14.062 50.975 14.062Z" style="fill:#191937"></path>
    <path d="M926.327 559.567c9.18 16.992-29.686 86.129-50.193 138.08-3.515 8.984 20.702 99.018-17.187 141.985h-78.316s31.639-52.341 26.561-97.456c-5.468-49.021 27.538-186.905 35.155-191.202 28.71-16.21 83.98 8.593 83.98 8.593Z" style="fill:#292561"></path>
    <path d="M942.342 515.038c-1.758 10.742-2.344 43.358-2.344 43.358 0 7.03-43.553 9.374-73.825 7.226-16.014-1.172-28.318-3.516-28.318-7.226 4.492-44.725 1.757-92.77 6.054-119.916 1.367-8.008 3.125-14.258 6.25-17.968 16.405-20.702 87.105-12.695 99.409 4.101 11.523 15.82-3.71 67.965-7.226 90.425Z" style="fill:#48dbc5"></path>
    <path d="M867.736 482.227c-4.687 11.719-9.96 24.023-7.812 36.327 2.148 11.718 10.546 21.874 10.546 33.592a23.525 23.525 0 0 1-4.296 13.476c-16.015-1.172-28.32-3.516-28.32-7.226 4.493-44.725 1.758-92.77 6.055-119.916 1.172-.782 2.539-1.758 3.71-2.54 4.102-2.538 9.961-7.03 14.844-7.42 10.35-.587 12.89 18.553 12.694 25.78-.585 9.764-3.906 18.943-7.421 27.927Z" style="fill:#2ab19f"></path>
    <path d="M741.57 393.95s-14.257-33.201-31.053-18.163 19.53 32.03 19.53 32.03Z" style="fill:#ffd1c4"></path>
    <path d="M866.76 410.942s-53.123 16.6-74.997 28.319l-47.85-47.654-19.334 19.335s47.654 63.278 63.669 63.864 67.38-7.617 74.41-24.999c7.031-17.187 4.101-38.865 4.101-38.865Z" style="fill:#48dbc5"></path>
    <path d="M885.704 408.012V393.17s-17.577 1.563-18.75-3.125c-2.343-8.593-9.57-63.864 24.609-58.981s21.288 54.099 21.288 54.099l-1.172 24.022Z" style="fill:#ffd1c4"></path>
    <path d="M903.281 385.748c-.586.976-10.742 15.624-17.772 16.796v-9.18c.195-.195 9.765-1.562 17.772-7.616Z" style="fill:#f1c0ba"></path>
    <path d="M912.46 394.341s-15.82 1.562-19.14-4.492 2.149-27.538-5.077-27.733-8.203 4.883-10.547 1.562 0-10.741 0-10.741-29.49-10.156-17.577-24.804 53.318-16.405 61.52 6.64c21.093 10.156-9.179 59.568-9.179 59.568Z" style="fill:#7c3a3a"></path>
  </g>
</svg>
