<svg xmlns="http://www.w3.org/2000/svg" id="businessman-doing-financial-analysis-overview" viewBox="0 0 512 512">
  <path fill="#166f87" d="M109.25,325.16a20.9,20.9,0,0,1-20.8-18.63L62.83,74.3A20.91,20.91,0,0,1,83.62,51.09H255.17A20.87,20.87,0,0,1,276,69.81L300.51,302a20.92,20.92,0,0,1-20.8,23.12Z"></path>
  <path fill="#32adaa" d="M118.74,325.16a20.9,20.9,0,0,1-20.8-18.63L72.32,74.3a20.91,20.91,0,0,1,20.8-23.21H264.67a20.87,20.87,0,0,1,20.8,18.72L310,302a20.92,20.92,0,0,1-20.8,23.12Z"></path>
  <path fill="#fff" d="M93.12,61.76H264.67a10.24,10.24,0,0,1,10.18,9.17l24.53,232.23a10.24,10.24,0,0,1-10.18,11.32H118.74a10.25,10.25,0,0,1-10.19-9.12L82.93,73.13A10.25,10.25,0,0,1,93.12,61.76Z"></path>
  <path fill="#31aeaa" d="M241.85,141c0,.47,0,.94,0,1.41a54.28,54.28,0,1,1-54.26-55.69c.67,0,1.34,0,2,0A54.28,54.28,0,0,1,241.85,141Z"></path>
  <path fill="#c8f2f1" d="M241.85,141c0,.47,0,.94,0,1.41L187.57,141l2-54.24A54.28,54.28,0,0,1,241.85,141Z"></path>
  <path fill="#61d6d3" d="M241.85,141c0,.47,0,.94,0,1.41a54.29,54.29,0,0,1-85.68,42.86L187.57,141Z"></path>
  <polygon fill="#31aeaa" points="141.2 232.54 119.04 232.54 116.09 214.81 138.25 214.81 141.2 232.54"></polygon>
  <polygon fill="#61d6d3" points="169.67 232.54 147.51 232.54 144.56 214.81 166.72 214.81 169.67 232.54"></polygon>
  <polygon fill="#c8f2f1" points="198.14 232.54 175.99 232.54 173.03 214.81 195.19 214.81 198.14 232.54"></polygon>
  <rect width="41.52" height="1.78" x="102.05" y="82.93" fill="#31aeaa"></rect>
  <rect width="35.59" height="1.78" x="102.05" y="90.24" fill="#31aeaa"></rect>
  <rect width="35.59" height="1.78" x="233.73" y="214.81" fill="#31aeaa"></rect>
  <rect width="35.59" height="1.78" x="235.51" y="221.33" fill="#31aeaa"></rect>
  <rect width="35.59" height="1.78" x="237.29" y="227.86" fill="#31aeaa"></rect>
  <rect width="33.22" height="1.78" x="102.45" y="98.35" fill="#31aeaa"></rect>
  <rect width="25.7" height="1.78" x="236.9" y="81.94" fill="#31aeaa"></rect>
  <rect width="21.75" height="1.78" x="242.04" y="90.24" fill="#31aeaa"></rect>
  <rect width="24.52" height="1.78" x="240.85" y="99.34" fill="#31aeaa"></rect>
  <path fill="#61d6d3" d="M283.9,299.43H125.51l-6-52.78,157.19-2.38ZM126,298.84H283.22l-7-54-156,2.36Z"></path>
  <rect width="157.78" height=".59" x="120.44" y="257.91" fill="#61d6d3"></rect>
  <rect width="158.38" height=".59" x="122.22" y="272.74" fill="#61d6d3"></rect>
  <rect width="157.19" height=".59" x="124" y="285.2" fill="#61d6d3"></rect>
  <rect width=".59" height="55.11" x="138.83" y="244.89" fill="#61d6d3" transform="rotate(-8.04 139.214 272.538)"></rect>
  <rect width=".59" height="55.11" x="157.21" y="244.89" fill="#61d6d3" transform="rotate(-8.04 157.589 272.543)"></rect>
  <rect width=".59" height="55.11" x="175.6" y="244.89" fill="#61d6d3" transform="rotate(-8.04 175.964 272.547)"></rect>
  <rect width=".59" height="55.11" x="193.99" y="244.89" fill="#61d6d3" transform="rotate(-8.04 194.338 272.551)"></rect>
  <rect width=".59" height="55.11" x="212.38" y="244.89" fill="#61d6d3" transform="rotate(-8.04 212.784 272.56)"></rect>
  <rect width=".59" height="55.11" x="230.77" y="244.89" fill="#61d6d3" transform="rotate(-8.04 231.159 272.565)"></rect>
  <rect width=".59" height="55.11" x="249.16" y="244.89" fill="#61d6d3" transform="rotate(-8.04 249.533 272.57)"></rect>
  <rect width=".59" height="55.11" x="267.55" y="244.89" fill="#61d6d3" transform="rotate(-8.04 267.913 272.503)"></rect>
  <rect width="178.7" height="4.15" x="101.28" y="413.88" fill="#173142" transform="rotate(-81.25 190.643 415.963)"></rect>
  <rect width="4.15" height="177.08" x="264.58" y="328.87" fill="#173142" transform="rotate(-9.37 266.58 417.34)"></rect>
  <rect width="178.96" height="4.15" x="64.28" y="413.88" fill="#173142" transform="rotate(-80.73 153.788 415.967)"></rect>
  <rect width="95.49" height="4.15" x="161.53" y="356.8" fill="#173142"></rect>
  <rect width="177.75" height="28.82" x="116.81" y="314.45" fill="#166f87" rx="14.41" ry="14.41"></rect>
  <path fill="#fca43a" d="M201.81,425.29A59.83,59.83,0,0,1,93.1,459.79a56.11,56.11,0,0,1-3.19-5c-.81-1.42-1.56-2.87-2.23-4.35A59.84,59.84,0,0,1,167.1,371q2.24,1,4.35,2.24,2.6,1.47,5,3.18a59.88,59.88,0,0,1,25.33,48.89Z"></path>
  <g opacity=".15">
    <path fill="#ffe7ca" d="M171.45,373.22,89.91,454.76c-.81-1.42-1.56-2.87-2.23-4.35L167.1,371Q169.34,372,171.45,373.22Z"></path>
  </g>
  <g opacity=".15">
    <path fill="#ffe7ca" d="M190.91,390.86l-83.36,83.36A60,60,0,0,1,93.1,459.79l83.38-83.39A60.05,60.05,0,0,1,190.91,390.86Z"></path>
  </g>
  <circle cx="141.99" cy="425.29" r="45.85" fill="#ee6900"></circle>
  <path fill="#ffa426" d="M185.62,425.29a43.65,43.65,0,0,1-82,20.73,44.23,44.23,0,0,1-1.93-4,43.66,43.66,0,0,1,57-57,39.38,39.38,0,0,1,4,1.93,43.55,43.55,0,0,1,22.91,38.39Z"></path>
  <path fill="#ee6900" d="M156.65,435.15c0-6.76-3.38-11.18-10.54-14.31-5.24-2.35-7.52-3.7-7.52-6.76,0-2.49,1.92-4.63,5.89-4.63a16.94,16.94,0,0,1,8.49,2.28c3.09,1.28,5.13-7.47,2.05-8.75a20.64,20.64,0,0,0-7.65-2.28v-1.8a4.44,4.44,0,0,0-4.44-4.45h0a4.44,4.44,0,0,0-4.44,4.45v2.67c-5.82,2.09-9.18,7.21-9.18,13.44,0,7,4.4,11.39,11.14,14.16,4.88,2.06,6.8,3.77,6.8,6.76s-2.22,5.2-6.44,5.2a20.66,20.66,0,0,1-10.17-3c-2.89-1.07-4.76,7.9-1.87,9a22.39,22.39,0,0,0,9.72,2.85v1.73a4.44,4.44,0,0,0,4.44,4.44h0a4.44,4.44,0,0,0,4.44-4.44v-2.8C153.65,446.62,156.65,441.23,156.65,435.15Z"></path>
  <g opacity=".15">
    <path fill="#ffe7ca" d="M183.55,409l-57.82,57.83a44.84,44.84,0,0,1-17.46-12.35l62.93-62.94A44.78,44.78,0,0,1,183.55,409Z"></path>
  </g>
  <g opacity=".15">
    <path fill="#ffe7ca" d="M163.18,386l-60.46,60.45a42.3,42.3,0,0,1-2-4.13L159,384.06A43.61,43.61,0,0,1,163.18,386Z"></path>
  </g>
  <path fill="#ffa426" d="M202.56,486.8v6.82a8.15,8.15,0,0,1-8.15,8.15H85.79a8.13,8.13,0,0,1-8.15-8.15V486.8a8.15,8.15,0,0,1,8.15-8.15H194.41A8.15,8.15,0,0,1,202.56,486.8Z"></path>
  <g opacity=".35">
    <path fill="#ee6900" d="M202.56,488.18v5.44a8.15,8.15,0,0,1-8.15,8.15H85.79a8.15,8.15,0,0,1-8-6.74C92.63,496.87,161.9,504.24,202.56,488.18Z"></path>
  </g>
  <g opacity=".15">
    <rect width="4.35" height="23.12" x="89.39" y="478.65" fill="#ffe7ca"></rect>
  </g>
  <g opacity=".15">
    <rect width="10.16" height="23.12" x="100.36" y="478.65" fill="#ffe7ca"></rect>
  </g>
  <path fill="#166f87" d="M320.07,387.6c-.11,13.27-5.91,25.77-12.39,37.33q-6.58,11.77-14.25,22.9c-1,1.49-2.06,3-3.15,4.42l-12.34,0-1.31.21c0-.07.07-.14.09-.21l-10.22,0c.66-2.25,1.43-4.47,2.19-6.68.17-.51.36-1,.54-1.52.07-.24.16-.48.24-.72A297.65,297.65,0,0,1,282,411.89c.86-1.79,1.75-3.55,2.67-5.3,5.68-10.71,14.15-24.63,27.43-26.31a9.17,9.17,0,0,1,4.82.55,4.49,4.49,0,0,1,1.78,1.31C319.92,383.63,320.09,385.69,320.07,387.6Z"></path>
  <polygon fill="#40937d" points="277.94 452.23 288.41 450.56 281.72 452.24 277.94 452.23"></polygon>
  <path fill="#32adaa" d="M303.12,402.64q-3.4,5.73-6.64,11.52l14.66-4.45-15.48,5.9-2.25,4.09c-1.32,2.41-2.6,4.85-3.89,7.27l13.21-3.24-13.92,4.57q-3.18,6-6.24,12.09l11.21-2.7-11.86,4c-1.76,3.5-3.48,7-5.2,10.53H273.4c.8-1.54,1.61-3.06,2.43-4.6l-.21-3-.66-9.85,1.2,7.93.5,3.36q2.5-4.68,5.08-9.32l-1.26-12.53,2.08,11.07q3.51-6.29,7.12-12.48l-2.29-15.15,3.14,13.71c.48-.84,1-1.67,1.46-2.52,1.14-1.93,2.32-3.86,3.48-5.78l-.26-18,1.29,16.33q3.06-5,6.19-9.85v0h.06c.52-.82,1-1.64,1.58-2.45h-.14l1.07-14.17.1,12.6c3.74-5.65,7.58-11.21,11.58-16.68-4,5.92-7.86,11.95-11.57,18.06v.23h-.12c-.4.66-.8,1.31-1.19,2l12.48-4.28Z"></path>
  <path fill="#166f87" d="M210.88,387.43c.06,13.26,5.82,25.78,12.27,37.36q6.54,11.79,14.17,22.95c1,1.49,2.05,3,3.13,4.43l12.35,0,1.31.22-.1-.22,10.23,0c-.66-2.26-1.42-4.47-2.18-6.69-.16-.51-.35-1-.53-1.52q-.11-.36-.24-.72a295.47,295.47,0,0,0-12.43-31.44q-1.29-2.68-2.66-5.31c-5.64-10.73-14.07-24.68-27.34-26.4a9.21,9.21,0,0,0-4.83.53,4.63,4.63,0,0,0-1.78,1.31C211,383.45,210.87,385.51,210.88,387.43Z"></path>
  <polygon fill="#40937d" points="252.8 452.19 242.33 450.48 249.02 452.19 252.8 452.19"></polygon>
  <path fill="#32adaa" d="M227.78,402.52q3.38,5.75,6.6,11.54l-14.65-4.5,15.47,5.95,2.23,4.1c1.31,2.41,2.59,4.85,3.87,7.28l-13.2-3.28,13.9,4.61q3.17,6,6.2,12.11L237,437.59l11.84,4.06q2.61,5.25,5.16,10.54h3.33c-.8-1.54-1.6-3.06-2.42-4.6l.22-3,.69-9.84-1.22,7.92-.52,3.36q-2.49-4.68-5.05-9.33l1.31-12.53-2.12,11.06q-3.48-6.28-7.08-12.5l2.34-15.14-3.18,13.7c-.48-.84-1-1.68-1.45-2.52-1.14-1.94-2.31-3.87-3.46-5.79l.31-18-1.34,16.32q-3-5-6.16-9.88v0h-.06c-.52-.82-1-1.64-1.57-2.46h.14l-1-14.16-.15,12.59Q220,388.89,214,380.66c4,5.93,7.83,12,11.51,18.11V399h.13l1.18,2-12.46-4.32Z"></path>
  <path fill="#32adaa" d="M283.05,403.85q-.46,4-1,8-1.67,11.87-4.14,23.58c-.53,2.43-1.07,4.87-1.71,7.28-.17.63-.34,1.28-.54,1.92a58.63,58.63,0,0,1-2.63,7.55l-22.73,0c-.28-2.65-.44-5.31-.59-8-1-16.66-1.76-33.41-.19-50,1.35-14.35,4.3-33.49,18.11-41.38a11,11,0,0,1,5.53-1.6,5.57,5.57,0,0,1,2.55.64c2,1.07,3.13,3.28,4,5.38C285.59,371.85,284.9,388.21,283.05,403.85Z"></path>
  <path fill="#166f87" d="M265,404.63c-.35,3.24-.65,6.49-.95,9.73l13-9.56-13.19,11.34q-.75,8.06-1.35,16.12l11.07-8.08L262.42,434c-.33,4.72-.64,9.46-.91,14.19l8-4.9,4.11-2.52L269.23,444l-7.81,5.8c0,.8-.09,1.59-.13,2.4h-3.68c.26-3,.54-5.94.83-8.91l-6.79-13.67,7,11.61c.41-4.18.86-8.37,1.33-12.54l-7.09-13.18,7.33,11.2c.66-5.65,1.36-11.31,2.13-16.94l-9.43-15.59,9.7,13.63c.16-1.14.29-2.28.46-3.43.38-2.65.78-5.28,1.18-7.94l-8.49-19.63,8.86,17.32c.73-4.55,1.5-9.1,2.33-13.62l-.05-.05.06,0c.2-1.14.41-2.27.61-3.41l-.15.07-5.28-16L268,374.84c1.52-7.91,3.2-15.78,5.1-23.61q-2.58,12.51-4.45,25.12l.09.22-.15.06c-.13.9-.26,1.79-.4,2.69L280,369l-12,12.52c-.76,5.21-1.43,10.44-2,15.66l14.07-11.56-14.3,13.52C265.42,401,265.21,402.78,265,404.63Z"></path>
  <path fill="#c8f2f1" d="M288.57,504h-48a14,14,0,0,1-13.95-13.25l-2.25-43.31a14,14,0,0,1,13.95-14.7h54.2A14,14,0,0,1,306.42,448l-3.93,43.31A14,14,0,0,1,288.57,504Z"></path>
  <path fill="#dc7b8e" d="M439.73,431.56l18.65,37L418,496.47s18.06-31.23,4.57-53.57Z"></path>
  <path fill="#173142" d="M468.56,484.44a1.46,1.46,0,0,0,.57-1.83v0c-1.85-4.22-8.54-18.22-16-19.55L430.53,480s-.62-9.05-7.57-9c0,0-3.47,10.52-9.4,14.09-2.35,1.42-5.71,2.13-8.45,4.52,0,0-19.84,4-5.34,15.43l34.1,1Z"></path>
  <path fill="#dc7b8e" d="M366.86,459.91,369,486.85l-44.29.93s22.61-4.33,23.54-27.87Z"></path>
  <path fill="#173142" d="M370,503.88s.09-.41.21-1.15c.7-4.09,2.62-18-2.37-22.69l-25.4,1.55s4-7.12-1.23-10.53c0,0-16.42,11.46-27.87,13,0,0-17.34,2.16-12.08,18Z"></path>
  <polygon fill="#173142" points="323.94 226.86 322 347.32 334.63 464.87 376.4 461.95 380.29 309.43 398.74 393.95 418.17 452.24 458.98 446.41 438.57 320.12 415.26 219.09 323.94 226.86"></polygon>
  <polygon fill="#f6f4f5" points="374.95 303.69 369.17 271.87 348.01 261.29 348.44 260.43 370.04 271.22 375.91 303.52 374.95 303.69"></polygon>
  <rect width="17.49" height=".97" x="322" y="346.83" fill="#f6f4f5"></rect>
  <rect width=".97" height="10.86" x="335.6" y="349.66" fill="#f6f4f5" transform="rotate(-79.7 336.05 355.086)"></rect>
  <rect width="17.73" height=".97" x="400.57" y="340.52" fill="#f6f4f5" transform="rotate(-9.44 409.602 341.109)"></rect>
  <rect width="14.14" height=".97" x="393.61" y="352.66" fill="#f6f4f5" transform="rotate(-15.92 400.749 353.198)"></rect>
  <path fill="#f6f4f5" d="M447.81,447.45c-14.4-93.13-40.53-210.57-40.8-211.74l.95-.21c.26,1.17,26.4,118.64,40.81,211.81Z"></path>
  <path fill="#f6f4f5" d="M412.21,260.36c-24.4-6.84-22.71-25.59-22.69-25.78l1,.1c-.07.74-1.59,18.14,22,24.74Z"></path>
  <path fill="#ffcb5b" d="M325.64,93.29c-4.22,7.36-34.68,63-8.78,93.47,0,0,37.43-60.88,9.86-93.56A.66.66,0,0,0,325.64,93.29Z"></path>
  <path fill="#dc7b8e" d="M379.75,87.28c-5.22-8.7-2.55-39.78-2.55-39.78L354.47,59.32l-7.67,4,1,21.35.5,10.52Z"></path>
  <path fill="#af6879" d="M347.8,84.67c18.07-3.84,22.48-23,22.48-23l-15.81-2.31-7.67,4Z"></path>
  <path fill="#dc7b8e" d="M341.75,21s-10.36,3.24-7.9,20.11c0,0-2.47,23.33,5.89,30.57,0,0,4.71,8,21.5-.62a17.12,17.12,0,0,0,5.09-4c2.67-3.07,7.1-8.63,9-13.78,2.86-7.62,5.76-19.38,5.76-19.38L376.53,20S345.2,8,341.75,21Z"></path>
  <path fill="#173142" d="M370.29,52.23c-.73.05-1.22-1.3-1.56-2.3-2-5.93-1.63-11.17-7.72-14.6-7.87-4.42-17.24-1.66-25.57-4-7.24-2.05-6.59-9.5-3.54-15.19,4.71-8.79,14.3-9.4,23.14-10a15.08,15.08,0,0,1,5.53.3A21.38,21.38,0,0,0,364,7.56c.85.12,1.72,0,2.58,0,3.14.13,7.85,2.84,10.44,4.64a23.32,23.32,0,0,1,8,10.16,22.15,22.15,0,0,1,1.36,4.87c1.09,6.64,2.79,25.11-10,34.82l-.85-3.69q-.57-7.23-1.12-14.46a3.92,3.92,0,0,0-2.72,2.5c-.59,1.35.32,3.72-.3,4.75C371,51.91,370.62,52.2,370.29,52.23Z"></path>
  <path fill="#dc7b8e" d="M377.92,57.34a10,10,0,0,0,5.28-4.4,8.9,8.9,0,0,0-.38-8.89,5.35,5.35,0,0,0-2.41-2.2c-2.21-.88-5.22.25-7.73,2.95a4.59,4.59,0,0,0-1.18,2.67c-.62,5.7.37,10,2.52,10.71C375.11,58.56,376.4,58,377.92,57.34Z"></path>
  <ellipse cx="337.84" cy="44.32" fill="#1d366d" rx="1.33" ry="2.23" transform="rotate(-5.23 337.842 44.282)"></ellipse>
  <ellipse cx="354.39" cy="45.35" fill="#1d366d" rx="1.33" ry="2.23" transform="rotate(-5.23 354.358 45.366)"></ellipse>
  <path fill="#1c386e" d="M358.7 42a.68.68 0 0 1-.7-.29 5.16 5.16 0 0 0-5.17-2.06.69.69 0 1 1-.32-1.34 6.48 6.48 0 0 1 6.63 2.62.69.69 0 0 1-.18 1A.85.85 0 0 1 358.7 42ZM335.5 40a.69.69 0 0 1-.49-1.26 9.5 9.5 0 0 1 5.61-1.37.67.67 0 0 1 .6.76.69.69 0 0 1-.76.61 8.24 8.24 0 0 0-4.73 1.18A.63.63 0 0 1 335.5 40Z"></path>
  <path fill="#af6879" d="M343.3 56.45a.66.66 0 0 1-.52-.11l-2.07-1.41a.77.77 0 0 1-.18-.18 2.26 2.26 0 0 1-.46-1.84c.24-1 1.23-1.47 2.09-1.92a3.94 3.94 0 0 0 1.22-.8c.66-1 .26-2.78-.45-4a.69.69 0 1 1 1.2-.69c.91 1.57 1.42 4 .39 5.46a4.46 4.46 0 0 1-1.72 1.25c-.58.3-1.3.68-1.39 1a1 1 0 0 0 .19.63l2 1.34a.69.69 0 0 1 .18.95A.68.68 0 0 1 343.3 56.45ZM354.23 61.9a6.61 6.61 0 0 1-6.49 5.83 6.89 6.89 0 0 1-5.1-1.6 7.79 7.79 0 0 1-1.84-3.34 11.81 11.81 0 0 1-.65-3.46s4.09.9 14.17-.9A11.59 11.59 0 0 1 354.23 61.9Z"></path>
  <path fill="#fefcfb" d="M351.37,62.09l-7.58.5a3.4,3.4,0,0,1-3.64-3.22v0s4.09.9,14.17-.9v0A3.19,3.19,0,0,1,351.37,62.09Z"></path>
  <path fill="#ffcb5b" d="M421.79,236.22c-59.69,16.24-103.66-.68-103.66-.68l2.4-95.69,3.17-43.38c7.53-13.15,22.17-13.89,22.17-13.89l-.23-4a17.85,17.85,0,0,0,1.89.34h0a32.4,32.4,0,0,0,13.66-1.44h0a68.38,68.38,0,0,0,15.41-7.09h0s0,0,.08,0a3.56,3.56,0,0,1,4.85,1.09l3.79,5.8s11.42,2.88,25.74,17.49c3,3,4.33,17.4,4.85,34.45.12,4.32.18,8.81.23,13.34s0,8.92,0,13.3c-.11,14.87-.55,28.59-.81,35.93-.14,3.55-.23,5.62-.23,5.62l.06,3,5.19,19.41Z"></path>
  <g opacity=".36">
    <path fill="#ee6900" d="M384,83.22S352.39,106.39,345.17,87C345.17,87,359.63,93.73,384,83.22Z"></path>
  </g>
  <path fill="#ee6900" d="M360.9,91.33a33.88,33.88,0,0,1-13.31-2.86l.38-.9c21.17,9,34.43-6.64,34.56-6.79l.75.62A31.12,31.12,0,0,1,360.9,91.33Z"></path>
  <g opacity=".36">
    <path fill="#ee6900" d="M416.16,155.79c-.11,14.87-.55,28.59-.81,35.93l-57.41-31.89,8.75-27.69,35.94,12.63,3.4-44.69Z"></path>
  </g>
  <path fill="#141d5d" d="M354.6,123.44l17.77-9a2.45,2.45,0,0,1,3.43,1.37l.14.41a2.45,2.45,0,0,1-1.25,3l-17.92,8.6a2.45,2.45,0,0,1-3.44-1.62h0A2.46,2.46,0,0,1,354.6,123.44Z"></path>
  <path fill="#dc7b8e" d="M382.11,145.44l-10.86-10.25-13.2-11.12a7.94,7.94,0,0,0-8.67-1l-6.66,3.33-1.33.66,9.05,21.42,11.46,3s6.63,9.95,12.67,8.45l10.25,1.2Z"></path>
  <polygon fill="#af6879" points="357.78 133 350.52 128.64 344.81 129.22 344.61 127.28 350.96 126.65 358.78 131.34 357.78 133"></polygon>
  <polygon fill="#af6879" points="357.29 138.79 352.63 136.75 346.77 136.46 346.87 134.52 353.08 134.83 358.07 137.01 357.29 138.79"></polygon>
  <polygon fill="#af6879" points="359.4 146.33 354.74 144.29 348.88 144 348.98 142.06 355.19 142.37 360.18 144.55 359.4 146.33"></polygon>
  <path fill="#ee6900" d="M322.83,120.82l-.95-.17c4.46-24.76,11.86-29.62,12.17-29.81l.51.82-.25-.41.25.41C334.49,91.71,327.2,96.6,322.83,120.82Z"></path>
  <path fill="#ffcb5b" d="M405.08,92.27c0-1.34,1.44-1.69,2.48-.85,13,10.61,39.43,56.92,30,90.27a14,14,0,0,1-18.89,9l-49.87-28.28,3.67-29.31,33.52,17Z"></path>
  <path fill="#f6f4f5" d="M289.7,120l50.05-7.14a3.31,3.31,0,0,1,3.45,1.86l30.73,65.14a3.29,3.29,0,0,1-2.77,4.69L317,188a3.28,3.28,0,0,1-3.23-2l-26.59-61.48A3.29,3.29,0,0,1,289.7,120Z"></path>
  <path fill="#ee6900" d="M405.06 144.32c-1.2-15.39 0-51.18 0-51.54l1 0c0 .36-1.2 36.1 0 51.44ZM428.41 172.15c-5.69-14.7-22.41-22.49-22.58-22.57l.4-.88c.17.08 17.25 8 23.08 23.09Z"></path>
  <path fill="#dc7b8e" d="M301.36,167.66a29.26,29.26,0,0,1-1.11-4.47c-1-6.43.95-8.45,6.29-11.76,0,0,18.51-8.71,19.92-4.44,0,0,3.28,1.18-2.68,5,0,0,7,1.4-.22,7.58,0,0,4.42.88-1.22,6.27,0,0,4.42.88-.33,5.76-3.08,1.89-9.8,5.8-13.43,5.1S302.7,171.68,301.36,167.66Z"></path>
  <rect width="11.59" height="1.94" x="312.62" y="153.17" fill="#af6879" transform="rotate(-21.97 318.367 154.12)"></rect>
  <rect width="9.12" height="1.94" x="314.74" y="160.23" fill="#af6879" transform="rotate(-21.06 319.363 161.215)"></rect>
  <rect width="7.83" height="1.94" x="314.72" y="166.12" fill="#af6879" transform="rotate(-18.2 322.34 165.428)"></rect>
  <rect width="463.86" height="4.15" x="24.07" y="501.6" fill="#173142"></rect>
</svg>
