<svg xmlns="http://www.w3.org/2000/svg" xml:space="preserve" id="businessman-pumps-up-a-balloon-of-a-clock-sign" x="0" y="0" enable-background="new 0 0 2950 2950" version="1.1" viewBox="0 0 2950 2950">
  <g>
    <g>
      <g>
        <path fill="#353434" d="M894.6,2694.4c178.6,0,740-450.9,822.5-762.8c82.4-311.6,226.2-433.6,227.7-434.8l-18.3-22.1
				c-6.2,5.1-152.1,128.2-237.1,449.6c-84.5,319.5-665.4,758-802.4,741c-129.1-16.1-146.1-21-147.6-21.5l-4.5,13.3l-1.2-0.2
				l-11.5,8.6c4.3,5.8,6.7,9,161.2,28.3C886.9,2694.1,890.6,2694.4,894.6,2694.4z"></path>
      </g>
      <path fill="#6c6b6d" d="M871.1,2714.3h8.8c2.9,0,5.2-2.3,5.2-5.2v-59.3c0-2.9-2.3-5.2-5.2-5.2h-8.8c-2.9,0-5.2,2.3-5.2,5.2v59.3
			C865.9,2712,868.2,2714.3,871.1,2714.3z"></path>
      <path fill="#353434" d="M718.7,1849.7h141.2c6.3,0,11.5,5.1,11.5,11.5v893c0,6.3-5.1,11.5-11.5,11.5H718.7c-6.3,0-11.5-5.1-11.5-11.5
			v-893C707.2,1854.8,712.4,1849.7,718.7,1849.7z"></path>
      <g>
        <circle cx="789.3" cy="1597.9" r="409.6" fill="#353434"></circle>
        <circle cx="789.3" cy="1597.9" r="384.2" fill="#fff"></circle>
        <g>
          <g>
            <g>
              <path fill="#e53a49" d="M1107,1598.7H999.7c0-59.3-24-113-62.9-151.8l75.9-75.9C1071,1429.2,1107,1509.8,1107,1598.7z"></path>
              <path fill="#fdbe10" d="M1015.1,1370.1l-75.9,75.9c-38.8-38.9-92.5-62.9-151.8-62.9v-107.4
							C876.3,1275.8,956.8,1311.9,1015.1,1370.1z"></path>
              <path fill="#2a9d90" d="M787.3,1275.8v107.4c-59.3,0-113,24-151.8,62.9l-75.9-75.9C617.9,1311.9,698.4,1275.8,787.3,1275.8z"></path>
              <path fill="#269182" d="M635.5,1446.1c-38.9,38.8-62.9,92.5-62.9,151.8H465.2c0-88.9,36.1-169.5,94.3-227.7L635.5,1446.1z"></path>
            </g>
          </g>
          <g>
            <polygon fill="#c3c3c3" points="790.4 1548 973.6 1386.5 789.3 1571"></polygon>
            <g>
              <g>
                <g>
                  <circle cx="790.4" cy="1559.9" r="43.1" fill="#6b6a6d" transform="rotate(-50.979 790.454 1560.003)"></circle>
                  <path fill="#353434" d="M823.7,1556.5c1.9,18.4-11.4,34.8-29.8,36.8c-18.4,1.9-34.8-11.4-36.8-29.8
									c-1.9-18.4,11.4-34.8,29.8-36.8C805.3,1524.7,821.8,1538.1,823.7,1556.5z"></path>
                </g>
              </g>
              <polygon fill="#b0b4b1" points="973.6 1386.5 805.7 1568.4 794.3 1556.3"></polygon>
              <polygon fill="#c3c3c3" points="973.6 1386.5 794.3 1556.3 782.8 1544.2"></polygon>
              <g>
                <path fill="#b0b4b1" d="M805.4,1545.8c7.8,8.3,7.5,21.3-0.8,29.1c-8.3,7.8-21.3,7.5-29.1-0.8c-7.8-8.3-7.5-21.3,0.8-29.1
								C784.5,1537.2,797.6,1537.5,805.4,1545.8z"></path>
                <path fill="#6b6a6d" d="M803.6,1547.5c6.9,7.3,6.6,18.8-0.7,25.7c-7.3,6.9-18.8,6.6-25.7-0.7c-6.9-7.3-6.6-18.8,0.7-25.7
								C785.2,1539.9,796.7,1540.2,803.6,1547.5z"></path>
              </g>
            </g>
          </g>
        </g>
      </g>
      <g>
        <g>
          <g>
            <path fill="#f2c695" d="M566.5,2101.8l-5.1,33.6l13.9,4.6c0,0,41.8,30.4,55.6-11.2c5.3-16.2-12.5-30.5-27-21.5
						c-0.2,0.1-0.4,0.3-0.6,0.4c-0.5,0.3-1.1-0.3-0.7-0.8l8.8-11.1c1.5-1.9,1.2-4.6-0.6-6.2l0,0c-1.7-1.4-4.2-1.4-5.8,0.1l-11.2,9.9
						c-2.5,2.2-5.8,3.3-9.1,3.2L566.5,2101.8z"></path>
          </g>
          <path fill="#e53a49" d="M579.2,2102.5l-9.7,40.8l-149.4-43.7c-41.2-28.9-93.3-77.1-93.3-77.1l35.6-62.4l78.4,88.8L579.2,2102.5z"></path>
        </g>
        <g>
          <g>
            <rect width="50.3" height="44" x="309.2" y="2699.7" fill="#f1c594" transform="rotate(-88.319 334.35 2721.765)scale(1.00003)"></rect>
            <path fill="#353434" d="M308.9,2773.2l104.6,3.1c1.6,0,2.5-1.3,3.1-3.3c2.1-7.5-2.6-15.2-9.5-16.5c-12.7-2.4-31.7-12.5-49.6-27.6
						c-0.4-0.4-0.9-0.6-1.5-0.6l-43-1.3c-1.3,0-2.5,1.1-2.7,2.6l-4.7,39.4C305.4,2771.2,306.9,2773.2,308.9,2773.2z"></path>
          </g>
          <g>
            <rect width="50.3" height="44" x="24.6" y="2651.4" fill="#f1c594" transform="rotate(-57.493 49.711 2673.567)"></rect>
            <path fill="#353434" d="M1.5,2704.6l88.2,56.2c1.3,0.8,2.8,0.2,4.3-1.2c5.7-5.3,5.5-14.4,0.2-19c-9.7-8.6-20.8-27-28.4-49.1
						c-0.2-0.5-0.5-1-1-1.3l-36.2-23.1c-1.1-0.7-2.7-0.4-3.6,0.8l-24.2,31.5C-0.5,2701.1-0.2,2703.5,1.5,2704.6z"></path>
          </g>
          <path fill="#353434" d="M354.2,2260.2c0,0,50.2,185.3,49.9,225.4c-0.4,49.5-39,227.7-39,227.7l-57.1-1.2c0,0,16.1-174.3,15.2-198.2
					c-0.9-23.8-56.6-154.2-56.6-154.2s-29.8,115-40.7,145.2C214.9,2535.2,74.9,2683,74.9,2683l-47-26.6c0,0,111.6-153.6,115.5-172.8
					c3.9-19.2,33.9-229.5,33.9-229.5L354.2,2260.2z"></path>
        </g>
        <path fill="#e53a49" d="M357.7,2264.2c0,0,9.8-132.1,14.7-224.6l2.5-46.6c1.3-23.9-17-44.3-40.9-45.6c-12.2-0.7-43.6-2.3-73.9-3.9
				c-38.4-2-71.2,27.5-73,66c-4.5,93.5-11.1,225.3-13.4,244.4C168.8,2292.3,357.7,2264.2,357.7,2264.2z"></path>
        <g>
          <path fill="#f2c695" d="M307.1,1946.3c0.4-3.8,0.7-6.6,0.7-6.6s19-2.3,20.8-3c3.7-1.6,9.7-13.5,10.5-27.9
					c0.8-14.4,0.1-29.1-0.3-35.1c-0.4-6.1-1.8-30.5-24.3-39.8c-22.5-9.3-52.3,1.7-60.5,24c-8.2,22.4-5,39.8-0.8,46.6
					c4.2,6.9,7.4,19,7.9,23.6c0.2,1.8-0.1,7.7-0.5,14.2c-0.7,12.2,8.1,22.8,20.1,24.4l0,0C293.8,1968.5,305.6,1959.3,307.1,1946.3z"></path>
          <path fill="#353434" d="M265.8,1884.7c1.7,2.6,3.9,8.5,3.9,8.5c3.6-4.1,8.7-31.6,5.4-38.9c1.5,5,41.3-2.2,51.7-4.9
					c2.1-0.6,5,0.3,6.3,2.6c1.4,2.4,4.7,14.3,5.5,17.4c0.5-4.4,0.4-8.7,0.5-13.2c0.1-4.2,13.5-20.1,7.8-28.2
					c-8.3-11.7-57.6-6-63.6-4.8c-6.5,1.3-27,9.1-28.6,18.4c-7.4,3.8-12.6,8.4-11.8,22.5c0.4,6.8,1.1,13.7,1.7,20.5
					c0.6,6.8,2.9,12.5,5.2,18.9c1.9,5.5,4.3,10.7,6.4,16.1c0.4,1,3.3,8.8,5.1,8.2c0.3-0.1,2.4-7,2.9-8.8c0.8-2.8,0.7-5.7,0.7-8.5
					c0-1.1,0.3-2.3-0.2-3.3c-0.8-1.6-2.7-1.3-4.1-1.7c-4.6-1.2-6.9-5.7-7.6-10.1c-0.7-4.7-0.5-10.9,4.7-13c2.7-1.1,6.1-0.4,8,1.9
					C265.6,1884.5,265.7,1884.6,265.8,1884.7z"></path>
        </g>
        <g>
          <g>
            <path fill="#6c6b6d" d="M643.3,2147.8h-96.7c-2.7,0-4.8-2.2-4.8-4.8l0,0c0-2.7,2.2-4.8,4.8-4.8h96.7c2.7,0,4.8,2.2,4.8,4.8l0,0
						C648.1,2145.7,646,2147.8,643.3,2147.8z"></path>
            <path fill="#6c6b6d" d="M590.1,2241.8v-96.7c0-2.7,2.2-4.8,4.8-4.8l0,0c2.7,0,4.8,2.2,4.8,4.8v96.7c0,2.7-2.2,4.8-4.8,4.8l0,0
						C592.3,2246.7,590.1,2244.5,590.1,2241.8z"></path>
          </g>
          <rect width="54.6" height="28.9" x="567.6" y="2230" fill="#6c6b6d"></rect>
          <path fill="#afb3b0" d="M641.6,2758.7h-93.3v-495.4c0-8,6.5-14.5,14.5-14.5h64.3c8,0,14.5,6.5,14.5,14.5V2758.7z"></path>
          <path fill="#6c6b6d" d="M898.7,2776.3H535v-10.4c0-7.2,5.8-13,13-13h337.7c7.2,0,13,5.8,13,13V2776.3z"></path>
        </g>
        <g>
          <g>
            <path fill="#f2c695" d="M539.5,2127.6l1,33.9l14.5,2c0,0,46.6,22.4,52.6-21c2.3-16.9-17.8-27.7-30.4-16.2
						c-0.2,0.2-0.4,0.3-0.5,0.5c-0.4,0.4-1.1-0.1-0.8-0.6l6.7-12.5c1.1-2.1,0.4-4.8-1.7-6l0,0c-1.9-1.1-4.4-0.6-5.7,1.1l-9.3,11.7
						c-2.1,2.6-5.1,4.3-8.4,4.8L539.5,2127.6z"></path>
          </g>
          <path fill="#e53a49" d="M551.6,2123.8l-2.2,41.9l-154.8-16.1c-45.7-21-144.4-112.9-144.4-112.9l66.8-29.2l88.8,88.5L551.6,2123.8z
					"></path>
        </g>
      </g>
      <ellipse cx="1654.5" cy="2033.8" fill="#353434" rx="102.3" ry="54.4" transform="rotate(-66.234 1654.472 2033.767)"></ellipse>
      <ellipse cx="1496.6" cy="2258.9" fill="#353434" rx="60.4" ry="54.4" transform="rotate(-54.977 1496.708 2259.03)"></ellipse>
      <ellipse cx="1261.5" cy="2466.4" fill="#353434" rx="60.4" ry="54.4" transform="rotate(-54.977 1261.53 2466.539)"></ellipse>
    </g>
    <g>
      <g>
        <g>
          <g>
            <path fill="#353434" d="M2272,1677.1l71,151.8c7.5,16.1,25.6,23.9,42.4,18.4l0,0c17.9-5.9,28.3-24.9,23.8-43.3l-41.2-169.3
						L2272,1677.1z"></path>
          </g>
        </g>
        <g>
          <g>
            <path fill="#353434" d="M1554.4,1358l-125.7,112.2c-13.3,11.9-16.2,31.8-6.7,46.8l0,0c10.1,15.9,30.7,20.8,47,11.3l149.8-87.9
						L1554.4,1358z"></path>
          </g>
        </g>
      </g>
      <g>
        <g>
          <path fill="#353434" d="M2931.3,572.3c-16.4-28.6-52.8-37.9-81.3-20.8l59.4,103.7C2937.9,638.1,2947.7,601,2931.3,572.3z"></path>
        </g>
        <g>
          <g>
            <path fill="#6aa7da" d="M2863.8,945.9c9.8-5.9-44.4-119.1-121.1-252.9c-76.6-133.8-146.7-237.5-156.5-231.6
						c-9.8,5.9,44.4,119.1,121.1,252.9C2784,848.1,2854,951.8,2863.8,945.9z"></path>
          </g>
        </g>
        <g>
          <path fill="#353434" d="M2763.3,722.2l-36.7-58c-6.7,3-99.3,61.2-99.3,61.2l35.9,53.9L2763.3,722.2z"></path>
        </g>
        <path fill="#8fc5ea" d="M2909,634.1c-3.4-6.6-21.1-34.3-21.1-34.3c-138.3-232.5-301.5-138.5-301.5-138.5l157.1,233l120.4,251.6
				C2863.8,945.9,3022.7,856.4,2909,634.1z"></path>
        <g>
          <g>
            <g>
              <path fill="#fff" d="M2799.8,526.1c-0.6,0.5-7.2-8-20.2-18.9c-6.5-5.5-14.8-11.4-24.5-17.1c-9.8-5.5-21-10.7-33.4-14.7
							c-12.4-3.9-24.6-6.2-35.8-7.4c-11.2-1-21.4-1.1-30-0.4c-17.1,1.3-27.5,4.3-27.6,3.6c-0.1-0.2,2.5-1.1,7.2-2.4
							c2.3-0.7,5.2-1.5,8.6-2c3.4-0.6,7.3-1.5,11.6-1.8c0,0,16.5-2.4,30.5-0.4c11.4,1.1,23.9,3.3,36.5,7.3
							c12.6,4.1,24,9.5,33.9,15.3c9.8,6,18.1,12.1,24.5,18c3.3,2.8,5.9,5.7,8.4,8.2c2.4,2.4,4.3,4.7,5.8,6.6
							C2798.5,523.8,2800,526,2799.8,526.1z"></path>
            </g>
          </g>
        </g>
      </g>
      <g>
        <g>
          <path fill="#353434" d="M1772.4,178.2c30.4-12.7,65,2.1,77.1,33.1l-110.3,46C1727.1,226.3,1742,190.9,1772.4,178.2z"></path>
        </g>
        <g>
          <g>
            <path fill="#6aa7da" d="M1598.2,515.5c-4.2-10.6,107.8-67.3,250.2-126.7c142.3-59.4,261.1-98.9,265.3-88.2
						c4.2,10.6-107.8,67.3-250.2,126.7C1721.1,486.7,1602.4,526.2,1598.2,515.5z"></path>
          </g>
        </g>
        <g>
          <path fill="#353434" d="M1814.3,399.5l64.4-23.6c3.4,6.5,41.4,109.1,41.4,109.1l-61.3,20.8L1814.3,399.5z"></path>
        </g>
        <path fill="#8fc5ea" d="M1752.5,240.8c6.7-3.2,37.7-14.3,37.7-14.3c251.4-100,323.4,74,323.4,74l-266.6,89l-248.8,126
				C1598.2,515.5,1526.8,347.8,1752.5,240.8z"></path>
        <g>
          <g>
            <g>
              <path fill="#fff" d="M1904.8,221.8c0.1,0.7,10.5-1.9,27.6-2.7c8.5-0.4,18.7,0,29.8,1.4c11.1,1.6,23.2,4.4,35.4,8.7
							c12.2,4.5,23.3,10.1,32.9,15.9c9.5,6,17.7,12.2,24,18c12.7,11.5,19.1,20.2,19.7,19.7c0.2-0.2-1.3-2.4-4.2-6.3
							c-1.4-2-3.3-4.3-5.6-6.9c-2.3-2.5-4.9-5.6-8.1-8.5c0,0-11.7-12-23.9-18.9c-9.7-6.1-21-11.9-33.4-16.5
							c-12.5-4.4-24.9-7.1-36.2-8.6c-11.4-1.2-21.7-1.4-30.4-0.7c-4.3,0.1-8.2,0.9-11.6,1.4c-3.4,0.4-6.3,1.1-8.7,1.7
							C1907.3,220.8,1904.8,221.6,1904.8,221.8z"></path>
            </g>
          </g>
        </g>
      </g>
      <g>
        <g>
          <g>
            <g>
              <circle cx="2120.2" cy="1065.4" r="638.9" fill="#8fc5ea"></circle>
              <path fill="#6aa7da" d="M2746.3,938.6c40.3,199.3-15.2,414.5-167.6,571.6c-245.6,253.3-650.1,259.5-903.3,13.9
							c-130.8-126.8-195.6-295.9-194.1-464.6c24.5,122.3,85.1,238.6,181.4,332c253.3,245.6,657.7,239.4,903.3-13.9
							C2685,1254.9,2744.9,1096.9,2746.3,938.6z"></path>
            </g>
          </g>
        </g>
        <g>
          <g>
            <path fill="#fff" d="M1944.2,1586c-282-93.1-433.3-402.4-337.9-691c2.6-7.9,5.4-15.7,8.3-23.5c103.8-273.6,400.7-421,675-330.5
						c172.6,57,296.2,194.9,344.3,359.5c30.5,104.4,30.6,219.5-6.4,331.5C2532.1,1520.6,2226.2,1679,1944.2,1586z"></path>
          </g>
          <g opacity=".3">
            <path d="M2633.8,900.6c-58.1-149.4-178.4-271.8-340.4-325.3c-268.1-88.5-557.1,42.7-678.9,296.3
						c103.8-273.6,400.7-421,675-330.5C2462.1,598,2585.7,735.9,2633.8,900.6z"></path>
          </g>
          <g>
            <g>
              <g>
                <path fill="#353434" d="M2255.1,652.5l-24.2,68l-15.4-5.5l19.7-55.4l-13.3-4.7l4.5-12.6L2255.1,652.5z"></path>
              </g>
              <g>
                <path fill="#353434" d="M2296.6,729.5l-4.6,12.8l-50.2-17.9l3.6-10.2l34.4-15.6c3.7-1.7,6.3-3.3,7.9-4.9
								c1.6-1.6,2.8-3.3,3.4-5.2c1-2.7,0.8-5.1-0.5-7.2c-1.3-2.1-3.7-3.8-7.1-5c-2.9-1-5.7-1.4-8.5-1.1c-2.7,0.3-5.3,1.3-7.7,3
								l-8.6-11.4c4-3,8.7-4.8,14-5.5c5.4-0.6,11,0.1,16.9,2.2c4.9,1.8,9,4.1,12.1,7.1c3.1,3,5.2,6.3,6.1,10.1
								c1,3.7,0.7,7.7-0.7,11.7c-1.3,3.7-3.3,6.9-6,9.6c-2.7,2.7-6.9,5.3-12.8,7.9l-20.5,9.3L2296.6,729.5z"></path>
              </g>
            </g>
            <g>
              <path fill="#353434" d="M2476.1,783.9l-24.6,67.8l-15.3-5.6l20.1-55.2l-13.3-4.8l4.6-12.6L2476.1,783.9z"></path>
            </g>
            <g>
              <path fill="#353434" d="M2534.4,1017.2l-4.6,12.8l-50.1-18.2l3.7-10.2l34.5-15.4c3.7-1.7,6.3-3.3,8-4.8c1.6-1.6,2.8-3.3,3.5-5.2
							c1-2.7,0.8-5.1-0.4-7.2c-1.3-2.1-3.6-3.8-7.1-5.1c-2.9-1.1-5.7-1.4-8.5-1.2c-2.7,0.3-5.3,1.3-7.7,2.9l-8.5-11.4
							c4-3,8.7-4.8,14.1-5.4c5.4-0.6,11,0.2,16.8,2.3c4.9,1.8,8.9,4.2,12,7.2c3.1,3,5.1,6.4,6.1,10.1c1,3.8,0.7,7.7-0.8,11.7
							c-1.3,3.7-3.4,6.9-6,9.5c-2.7,2.7-7,5.3-12.8,7.8l-20.6,9.2L2534.4,1017.2z"></path>
            </g>
            <g>
              <path fill="#353434" d="M2502.1,1194c1.8,4.6,1.8,9.4,0,14.5c-1.4,3.9-3.8,7.2-7,9.8c-3.2,2.6-7.3,4.1-12.1,4.6
							c-4.9,0.5-10.3-0.3-16.3-2.5c-4.7-1.7-9-4-13.1-6.9c-4.1-2.9-7.2-6.1-9.6-9.6l10.3-9.8c1.8,2.9,4.2,5.4,7.1,7.7
							c2.9,2.3,6.1,4,9.6,5.3c3.8,1.4,7.2,1.7,9.9,1c2.8-0.7,4.6-2.5,5.7-5.2c2-5.6-1.1-9.8-9.4-12.8l-7-2.6l3.8-10.4l19.4-10.8
							l-28.2-10.3l4.6-12.6l46.4,16.9l-3.7,10.2l-21.3,12C2496.6,1185.6,2500.3,1189.4,2502.1,1194z"></path>
            </g>
            <g>
              <path fill="#353434" d="M2412.4,1377l-10.8-3.9l-5.2,14.2l-15-5.4l5.2-14.2l-35.7-13l3.8-10.6l46.9-31.7l16.1,5.9l-43.8,30.3
							l17.8,6.5l4.6-12.7l14.5,5.3l-4.6,12.7l10.8,3.9L2412.4,1377z"></path>
            </g>
            <g>
              <path fill="#353434" d="M2232.4,1451.1c3.1,5.4,3.4,11.4,1.1,17.7c-1.5,4.1-3.9,7.5-7.1,10.2c-3.2,2.7-7.3,4.3-12.2,4.8
							c-4.9,0.5-10.3-0.3-16.4-2.5c-4.7-1.7-9-4-13.1-6.9c-4.1-2.9-7.2-6.1-9.6-9.6l10.4-9.8c1.8,2.9,4.2,5.4,7.1,7.7
							c2.9,2.3,6.1,4,9.5,5.3c3.9,1.4,7.2,1.7,9.9,1c2.8-0.7,4.7-2.5,5.7-5.3c1.1-2.9,0.7-5.5-1.1-7.9c-1.8-2.3-5.5-4.5-11.2-6.6
							l-16.9-6.2l17.3-36.9l40.4,14.7l-4.6,12.6l-27.6-10.1l-5.7,12.5l5.4,2C2223.1,1441.2,2229.3,1445.7,2232.4,1451.1z"></path>
            </g>
            <g>
              <path fill="#353434" d="M2000.2,1448.6c2.8,3,4.7,6.5,5.5,10.4c0.9,3.9,0.5,8-1,12.2c-1.6,4.5-4.2,8.1-7.6,10.7
							c-3.5,2.6-7.4,4.2-11.9,4.6c-4.5,0.4-9.1-0.2-13.7-1.9c-9.3-3.4-15.5-8.9-18.6-16.7c-3.1-7.7-2.7-17,1.2-27.8
							c2.8-7.7,6.6-13.8,11.4-18.2c4.8-4.5,10.3-7.2,16.4-8.2c6.1-1,12.5-0.3,19.2,2.2c3.5,1.3,6.8,2.9,9.7,4.9c3,2,5.3,4.1,7,6.5
							l-9.9,9.5c-2.5-3.5-6.2-6.1-11.2-7.9c-5.6-2-10.7-2-15.2,0.2c-4.5,2.2-8,6.4-10.6,12.7c5.4-2.6,11.6-2.6,18.6,0
							C1993.9,1443.3,1997.4,1445.6,2000.2,1448.6z M1983.9,1472.8c2.7-1.1,4.6-3.1,5.8-6.2c1.1-3.1,1-5.9-0.4-8.5
							c-1.4-2.6-3.8-4.5-7.2-5.7c-3.3-1.2-6.4-1.3-9.3-0.1c-2.8,1.1-4.8,3.2-5.9,6.1c-1.1,3-0.9,5.8,0.5,8.4
							c1.4,2.6,3.9,4.6,7.5,5.9C1978.2,1473.8,1981.2,1473.8,1983.9,1472.8z"></path>
            </g>
            <g>
              <path fill="#353434" d="M1859.2,1294l-3.7,10.2l-45.5,48.7l-16.7-6.1l43.8-46.4l-22-8l-4,11l-13.6-5l8.7-23.8L1859.2,1294z"></path>
            </g>
            <g>
              <path fill="#353434" d="M1757.9,1152.1c0.7,3.3,0.5,6.8-0.8,10.4c-1.5,4.2-4,7.4-7.5,9.7c-3.5,2.3-7.6,3.5-12.5,3.7
							c-4.8,0.2-10.1-0.8-15.6-2.8c-5.6-2-10.1-4.7-13.7-7.9c-3.6-3.2-5.9-6.8-7.1-10.8c-1.2-4-1-8.1,0.5-12.3
							c1.3-3.6,3.3-6.4,6-8.5c2.7-2.1,6-3.4,9.8-3.9c-1.9-2.4-3.1-5.1-3.6-7.9c-0.5-2.8-0.1-5.8,1-8.8c1.4-3.9,3.7-7,6.9-9.1
							c3.2-2.1,7-3.3,11.4-3.5c4.4-0.2,9.1,0.6,14.1,2.4c5,1.8,9.2,4.3,12.5,7.3c3.3,3,5.5,6.3,6.6,10c1.1,3.7,0.9,7.5-0.5,11.4
							c-1.1,3-2.7,5.5-4.9,7.4c-2.2,1.9-4.8,3.1-7.9,3.8C1755.4,1145.6,1757.1,1148.7,1757.9,1152.1z M1735.8,1162.2
							c2.9-1,4.9-2.9,5.9-5.9c1.1-3,0.8-5.7-0.8-8.3c-1.6-2.6-4.3-4.5-8.2-5.9c-3.8-1.4-7.1-1.6-10-0.7c-2.8,0.9-4.8,2.9-5.9,5.9
							c-1.1,3-0.9,5.8,0.7,8.4c1.6,2.5,4.3,4.5,8.1,5.9C1729.5,1162.9,1732.9,1163.1,1735.8,1162.2z M1734.5,1114
							c-2.4,0.8-4.1,2.6-5.1,5.2c-0.9,2.6-0.8,5,0.5,7.1c1.3,2.2,3.5,3.8,6.7,5c3.1,1.1,5.9,1.3,8.4,0.5c2.4-0.8,4.1-2.5,5.1-5.1
							c1-2.6,0.8-5.1-0.6-7.3c-1.3-2.2-3.6-3.9-6.7-5C1739.7,1113.3,1736.9,1113.1,1734.5,1114z"></path>
            </g>
            <g>
              <path fill="#353434" d="M1784.6,918.2c3.1,7.7,2.7,17-1.2,27.8c-2.8,7.7-6.6,13.8-11.4,18.2c-4.8,4.5-10.3,7.2-16.4,8.2
							c-6.1,1-12.6,0.3-19.3-2.2c-3.5-1.3-6.8-2.9-9.7-4.9c-2.9-2-5.3-4.1-7-6.4l9.9-9.5c2.4,3.4,6.1,6.1,11.2,7.9
							c5.6,2,10.7,2,15.2-0.2c4.5-2.2,8.1-6.4,10.6-12.7c-5.5,2.6-11.7,2.7-18.7,0.1c-4.2-1.5-7.8-3.8-10.6-6.8
							c-2.8-3-4.7-6.5-5.5-10.4c-0.9-3.9-0.5-8,1-12.2c1.6-4.5,4.2-8.1,7.6-10.7c3.4-2.6,7.4-4.2,11.9-4.6c4.5-0.5,9.1,0.2,13.7,1.9
							C1775.3,905,1781.5,910.5,1784.6,918.2z M1764.7,934.1c2.8-1.1,4.7-3.2,5.8-6.2c1.1-3,0.9-5.8-0.4-8.4
							c-1.4-2.6-3.9-4.6-7.5-5.9c-3.3-1.2-6.3-1.3-9-0.2c-2.7,1.1-4.6,3.1-5.7,6.2c-1.1,3.1-1,5.9,0.4,8.5c1.4,2.6,3.8,4.5,7.2,5.7
							C1758.9,935.2,1761.9,935.3,1764.7,934.1z"></path>
            </g>
            <g>
              <g>
                <path fill="#353434" d="M1874.5,736.4l-21.5,68.9l-15.6-4.8l17.5-56.1l-13.5-4.2l4-12.8L1874.5,736.4z"></path>
              </g>
              <g>
                <path fill="#353434" d="M1879.7,810.3c-3.5-4.2-5.6-9.3-6.4-15.4c-0.8-6.1,0-12.9,2.3-20.3c2.3-7.4,5.5-13.4,9.7-18
								c4.1-4.6,8.8-7.6,14.1-9.1c5.2-1.5,10.7-1.3,16.2,0.4c5.6,1.7,10.1,4.7,13.6,8.9c3.5,4.2,5.6,9.3,6.4,15.4
								c0.8,6.1,0,12.9-2.3,20.3c-2.3,7.4-5.5,13.4-9.7,18c-4.1,4.6-8.8,7.6-14.1,9.1c-5.2,1.5-10.7,1.3-16.2-0.4
								C1887.7,817.4,1883.1,814.4,1879.7,810.3z M1908.8,803.2c3.5-2.9,6.4-8.1,8.7-15.6c2.4-7.5,2.9-13.5,1.7-17.8
								c-1.2-4.3-3.9-7.1-8-8.4c-4-1.3-7.8-0.4-11.3,2.4c-3.5,2.9-6.4,8.1-8.7,15.6c-2.4,7.5-2.9,13.5-1.7,17.8
								c1.2,4.3,3.8,7.1,7.9,8.4C1901.6,806.9,1905.3,806.1,1908.8,803.2z"></path>
              </g>
            </g>
            <g>
              <g>
                <path fill="#353434" d="M2047.7,652.3l-24.2,68l-15.4-5.5l19.7-55.4l-13.3-4.7l4.5-12.6L2047.7,652.3z"></path>
              </g>
              <g>
                <path fill="#353434" d="M2084.9,665.6l-24.2,68l-15.4-5.5l19.7-55.4l-13.3-4.7l4.5-12.6L2084.9,665.6z"></path>
              </g>
            </g>
          </g>
          <g>
            <g>
              <g>
                <path fill="#d0d7d4" d="M2114.6,1080.2l210.8,69c2.9,0.9,6.1,0.8,8.9-0.4l0.3-0.1c8.9-3.7,11.4-15.3,4.8-22.3l0,0
								c-1.5-1.6-3.4-2.8-5.4-3.4l-211.3-71.7L2114.6,1080.2z"></path>
              </g>
            </g>
            <g>
              <g>
                <path fill="#d0d7d4" d="M2230.9,794.8c0.8-13.5-17.4-18.3-23.1-5.9c-0.1,0.2-0.2,0.4-0.3,0.7c-10,22.5-100.5,286.6-100.5,286.6
								l29,8.1l94.6-282.6L2230.9,794.8z"></path>
              </g>
            </g>
            <g>
              <g>
                <path fill="#e53a4a" d="M2183.4,1138.3L2183.4,1138.3c4.5-3.4,5.2-10,1.5-14.2l-263.6-295l249.3,307.6
								C2173.7,1140.6,2179.3,1141.3,2183.4,1138.3z"></path>
              </g>
            </g>
            <g>
              <g>
                <path fill="#353434" d="M2150.8,1064.8c0.1,17.2-13.5,31.5-30.5,31.8c-16.9,0.3-30.7-13.3-30.8-30.6
								c-0.1-17.2,13.5-31.5,30.4-31.8C2136.9,1033.9,2150.7,1047.6,2150.8,1064.8z"></path>
              </g>
            </g>
          </g>
        </g>
      </g>
    </g>
  </g>
</svg>
