<svg xmlns="http://www.w3.org/2000/svg" viewBox="0 0 600 600" id="cloud-service-usage">
  <g style="isolation:isolate">
    <g>
      <path fill="#a2ddd0" d="M492.74,104.14a31.56,31.56,0,0,0-1.69-15.56c-2.07-5.38-5.46-10.31-8.8-15.16-.54-.76-1.78-.91-2,0-1.12,4-5.36,5.72-8.81,7.7a93.91,93.91,0,0,0-8.22,5.24c-5.29,3.87-9.92,8.58-12.54,14.55a26.62,26.62,0,0,0-2.2,10.28,30.48,30.48,0,0,0-.23,4.51,31.46,31.46,0,0,0,11.22,23c3.56,2.87,6.59,1.33,9.95-.21A39.35,39.35,0,0,0,481,130.35C487.79,123.41,491.46,113.91,492.74,104.14Z"></path>
      <path fill="#e0fbf0" d="M482,127.92a10.4,10.4,0,0,0-8.65,3,15,15,0,0,1-4.31,3.16,26.9,26.9,0,0,1-5.14,1.53,86.92,86.92,0,0,1,1-10.42,1.86,1.86,0,0,0,.05-.27c7.3-4.8,16.76-3.51,24.28-7.85.55-.32.11-1.19-.45-.88-7.27,4.21-16.36,3.13-23.57,7.41a56.54,56.54,0,0,1,4.09-11.67c.59-1.27,1.18-2.53,1.78-3.79a35.67,35.67,0,0,1,6.69-1.78,16.64,16.64,0,0,0,5.43-2.4c3.34-2.28,6-5.45,9.31-7.71.54-.35.08-1.23-.44-.88-3.3,2.22-5.89,5.28-9.12,7.56a16.41,16.41,0,0,1-6.21,2.65,40.59,40.59,0,0,0-5,1.24c2-4.2,4-8.42,5.69-12.76,4.52-3,9.21-6.39,10.08-12.1.09-.63-.89-.69-1-.07-.73,4.88-4.63,8-8.5,10.6.61-1.66,1.16-3.34,1.65-5.06a53.42,53.42,0,0,0,2.1-14.37c0-.63-1-.69-1-.06a58.61,58.61,0,0,1-4.15,20.41.48.48,0,0,0-.19.55c-.27.69-.54,1.37-.82,2a20.62,20.62,0,0,1-2.08-3.94,51.73,51.73,0,0,1-2.44-9.73.5.5,0,0,0-1,.2c.92,5.08,1.95,10.3,5,14.54-.21.54-.44,1.07-.67,1.6-1.3,3-2.76,5.89-4.18,8.82,0,0,0,0,0,.06-.76,1.55-1.51,3.13-2.22,4.72-2.92-2.56-4-6.44-4.81-10.1a36.66,36.66,0,0,0-4.14-11.3c-.33-.54-1.22-.1-.88.45a29.15,29.15,0,0,1,2.87,6.24c.66,2.15,1.05,4.37,1.6,6.55.87,3.42,2.19,6.77,4.95,9.11a52.34,52.34,0,0,0-3.45,10.46,59.31,59.31,0,0,0-1,6.88c-4.15-2.05-5.67-6.84-7-11-1.35-4.36-3.12-8.29-6.34-11.61-.44-.44-1.18.2-.74.66a23,23,0,0,1,4.28,6.12,76.62,76.62,0,0,1,2.73,7.8c1.27,3.69,3.26,7.35,7,9-.21,2.57-.32,5.15-.42,7.74,0,.63,1,.7,1,.06,0-.92.07-1.84.11-2.76,3.17-.72,6.39-1.54,8.88-3.77a16.81,16.81,0,0,1,4.12-3.24,9.23,9.23,0,0,1,5.08-.7C482.56,129,482.62,128,482,127.92Z"></path>
      <path fill="#a2ddd0" d="M494.63,130c-6.11,0-13,1.34-17.23,6.63-3.4,4.28-6.95,10.49-2.11,15.06a19.93,19.93,0,0,0,20,4.21A33.51,33.51,0,0,0,508,148.27l9.77-9.53a.62.62,0,0,0-.18-1,98.79,98.79,0,0,1-11.83-4.88A24.67,24.67,0,0,0,494.63,130Z"></path>
      <path fill="#e0fbf0" d="M517.47,138.36a64.51,64.51,0,0,1-8.62,1.86l-.72.07c.8.24,1.6.48,2.39.74a8.59,8.59,0,0,1,2.73,1.51c.27.23,0,.69-.3.45a8.26,8.26,0,0,0-2.7-1.47c-1.15-.39-2.32-.71-3.47-1.06a.21.21,0,0,1-.12-.08c-2.1.09-4.22,0-6.32.1a46.36,46.36,0,0,0-6.74.86c1.55,2.08,4.46,2.79,6.77,3.64l4.21,1.54a4.49,4.49,0,0,1,2.77,1.88c.17.31-.34.54-.49.23-.68-1.26-2.51-1.62-3.75-2.07L498.78,145c-2.13-.77-4.41-1.59-5.75-3.52-3.24.67-6.44,1.59-9.6,2.51-1,.3-2.08.6-3.12.93a33.36,33.36,0,0,0,20,8.17c.35,0,.3.56,0,.55a33.88,33.88,0,0,1-20.51-8.52,31.7,31.7,0,0,0-6.12,2.6c-.31.17-.53-.33-.23-.5a23.68,23.68,0,0,1,2.19-1.11.13.13,0,0,1,0-.05,41.39,41.39,0,0,1,6.05-8.79c2.41-2.64,5.31-5.6,8.84-6.57.34-.09.44.45.1.54a13.33,13.33,0,0,0-4.94,2.92,39.49,39.49,0,0,0-3.71,3.61,40.15,40.15,0,0,0-5.57,8c1-.43,2.11-.81,3.19-1.16a.23.23,0,0,1,.28-.1l1.72-.52,3.58-1.05a28.13,28.13,0,0,1,5.3-6.26c2.3-2,4.67-4,7-6.06.27-.22.62.2.36.44-2.27,1.94-4.55,3.86-6.79,5.83a28.39,28.39,0,0,0-5.07,5.82c1.4-.39,2.82-.78,4.25-1.14.88-.21,1.78-.41,2.68-.6a.31.31,0,0,1,.37-.08c1.72-.34,3.45-.62,5.21-.79h0c1.47-1,2.26-2.67,3.4-4a10,10,0,0,1,4.59-2.75c.34-.11.57.39.24.5a14.31,14.31,0,0,0-2.59,1.08,7.73,7.73,0,0,0-2.09,1.86,30.1,30.1,0,0,1-2.6,3.25c2.71-.18,5.44,0,8.15-.21a54.87,54.87,0,0,0,9.83-2C517.73,137.73,517.83,138.27,517.47,138.36Z"></path>
      <path fill="#c5eae2" d="M66.42,532.63c0,14.41,104,26.09,232.32,26.09S531.06,547,531.06,532.63s-104-26.1-232.32-26.1S66.42,518.22,66.42,532.63Z"></path>
      <path fill="#a2ddd0" d="M375.75,516.43s-15.68-23.23-5.68-32.13c6.12-5.46,9.11,12,9.11,12S382.66,463,394,470c5.52,3.44-6.07,34.19-6.07,34.19s8.24-16,14.76-11.59c10.52,7.08-14.55,23.6-14.55,23.6Z"></path>
      <path fill="#e0fbf0" d="m381.72 516.32 8.11-37.77a.39.39 0 0 0-.31-.46.38.38 0 0 0-.45.3l-8.14 37.94ZM386 516.23 401 498.09a.39.39 0 0 0-.06-.54.4.4 0 0 0-.54.06L385 516.26ZM379 516.37l-6.13-27.67a.38.38 0 0 0-.46-.29.38.38 0 0 0-.29.46l6.1 27.52Z"></path>
      <path fill="#bde4fd" d="M177.54,257.75A56.14,56.14,0,0,1,177,145.48c0-.36,0-.72,0-1.09a61.32,61.32,0,0,1,61.25-61.25,60.64,60.64,0,0,1,29.5,7.55A83.94,83.94,0,0,1,428.19,125.2c0,.38,0,.77,0,1.15,1,0,1.95-.06,2.92-.06a65.73,65.73,0,1,1,0,131.46Z"></path>
      <path fill="#d6eefe" d="M404.82 140.14c8.72 0 15 8.76 15 2.06V114.39H392c-6.69 0 2.07 6.27 2.07 15 0 5.7-5.22 9.12-11.66 9.12s-11.66-3.42-11.66-9.12c0-8.71 8.76-15 2.06-15H345V142.2c0 6.7-6.27-2.06-15-2.06-5.7 0-9.12 5.22-9.12 11.66s3.42 11.66 9.12 11.66c8.71 0 15-8.76 15-2.06v27.81h27.81c6.7 0-2.06 6.27-2.06 15 0 5.69 5.22 9.11 11.66 9.11s11.66-3.42 11.66-9.11c0-8.72-8.76-15-2.07-15H419.8V161.4c0-6.7-6.26 2.06-15 2.06-5.7 0-9.12-5.22-9.12-11.66S399.12 140.14 404.82 140.14ZM244.41 204.2c0 5.69-5.22 9.11-11.66 9.11s-11.66-3.42-11.66-9.11c0-8.72 8.76-15 2.06-15H195.34V217c0 6.7-6.27-2.06-15-2.06-5.69 0-9.11 5.22-9.11 11.66s3.42 11.65 9.11 11.65c8.72 0 15-8.75 15-2.05v17.61h74.82V236.22c0-6.7-6.27 2.05-15 2.05-5.7 0-9.12-5.21-9.12-11.65S249.48 215 255.18 215c8.71 0 15 8.76 15 2.06V189.21H242.35C235.65 189.21 244.41 195.48 244.41 204.2ZM195.34 142.2V114.39H189.4a57 57 0 0 0-8.33 25.8C189.41 140.64 195.34 148.72 195.34 142.2Z"></path>
      <path fill="#d6eefe" d="M180.35 163.46c-5.69 0-9.11-5.22-9.11-11.66a18.9 18.9 0 0 1 .12-2 52.34 52.34 0 0 0-44.54 39.43h21.51c6.7 0-2.06 6.27-2.06 15 0 5.69 5.22 9.11 11.66 9.11s11.66-3.42 11.66-9.11c0-8.72-8.76-15-2.06-15h27.81V161.4C195.34 154.7 189.07 163.46 180.35 163.46ZM317.17 114.39H345V86.58c0-6.7-6.27 2.06-15 2.06-5.7 0-9.12-5.22-9.12-11.66S324.3 65.32 330 65.32c8.71 0 15 8.76 15 2.06V45.21l-.71 0a80 80 0 0 0-46.38 14.73A79.67 79.67 0 0 0 270.16 95v19.37H298c6.69 0-2.06 6.27-2.06 15 0 5.7 5.21 9.12 11.65 9.12s11.66-3.42 11.66-9.12C319.23 120.66 310.47 114.39 317.17 114.39Z"></path>
      <path fill="#c1e5fd" d="M244.41,129.37c0,5.7-5.22,9.12-11.66,9.12s-11.66-3.42-11.66-9.12c0-8.71,8.76-15,2.06-15H195.34V142.2c0,6.52-5.93-1.56-14.27-2-.1,1.39-.17,2.79-.17,4.2,0,1.71.08,3.42.23,5.13-1.19-.08-2.39-.12-3.59-.12a52.58,52.58,0,0,0-6.18.38,18.9,18.9,0,0,0-.12,2c0,6.44,3.42,11.66,9.11,11.66,8.72,0,15-8.76,15-2.06v27.81h27.81c6.7,0-2.06,6.27-2.06,15,0,5.69,5.22,9.11,11.66,9.11s11.66-3.42,11.66-9.11c0-8.72-8.76-15-2.06-15h27.81V161.4c0-6.7-6.27,2.06-15,2.06-5.7,0-9.12-5.22-9.12-11.66s3.42-11.66,9.12-11.66c8.71,0,15,8.76,15,2.06V114.39H242.35C235.65,114.39,244.41,120.66,244.41,129.37Z"></path>
      <path fill="#adddfd" d="M404.82,215c8.72,0,15,8.76,15,2.06V189.21H392c-6.69,0,2.07,6.27,2.07,15,0,5.69-5.22,9.11-11.66,9.11s-11.66-3.42-11.66-9.11c0-8.72,8.76-15,2.06-15H345V217c0,6.7-6.27-2.06-15-2.06-5.7,0-9.12,5.22-9.12,11.66s3.42,11.65,9.12,11.65c8.71,0,15-8.75,15-2.05v17.61H419.8V236.22c0-6.7-6.26,2.05-15,2.05-5.7,0-9.12-5.21-9.12-11.65S399.12,215,404.82,215Z"></path>
      <path fill="#c1e5fd" d="M392 114.39h31.54a79.11 79.11 0 0 0-9.59-28.45 80.33 80.33 0 0 0-14.51-18.61A79.52 79.52 0 0 0 345 45.21V67.38c0 6.7-6.27-2.06-15-2.06-5.7 0-9.12 5.22-9.12 11.66S324.3 88.64 330 88.64c8.71 0 15-8.76 15-2.06v27.81h27.81c6.7 0-2.06 6.27-2.06 15 0 5.7 5.22 9.12 11.66 9.12s11.66-3.42 11.66-9.12C394.05 120.66 385.29 114.39 392 114.39ZM319.23 204.2c0 5.69-5.22 9.11-11.66 9.11s-11.65-3.42-11.65-9.11c0-8.72 8.75-15 2.06-15H270.16V217c0 6.7-6.27-2.06-15-2.06-5.7 0-9.12 5.22-9.12 11.66s3.42 11.65 9.12 11.65c8.71 0 15-8.75 15-2.05v17.61H345V236.22c0-6.7-6.27 2.05-15 2.05-5.7 0-9.12-5.21-9.12-11.65S324.3 215 330 215c8.71 0 15 8.76 15 2.06V189.21H317.17C310.47 189.21 319.23 195.48 319.23 204.2Z"></path>
      <path fill="#c1e5fd" d="M466.81,189.21h26a61.4,61.4,0,0,0-7.55-26.89,61.78,61.78,0,0,0-54.2-32.12,61,61,0,0,0-7,.4q.18-2.7.18-5.4a80.32,80.32,0,0,0-.75-10.81H419.8V142.2c0,6.7-6.26-2.06-15-2.06-5.7,0-9.12,5.22-9.12,11.66s3.42,11.66,9.12,11.66c8.72,0,15-8.76,15-2.06v27.81h27.82c6.69,0-2.06,6.27-2.06,15,0,5.69,5.21,9.11,11.65,9.11s11.66-3.42,11.66-9.11C468.87,195.48,460.11,189.21,466.81,189.21Z"></path>
      <path fill="#adddfd" d="M269.61,96.39a57.3,57.3,0,0,0-74.27,10,58,58,0,0,0-5.94,8h33.75c6.7,0-2.06,6.27-2.06,15,0,5.7,5.22,9.12,11.66,9.12s11.66-3.42,11.66-9.12c0-8.71-8.76-15-2.06-15h27.81V95C270,95.47,269.78,95.93,269.61,96.39Z"></path>
      <path fill="#adddfd" d="M319.23 129.37c0 5.7-5.22 9.12-11.66 9.12s-11.65-3.42-11.65-9.12c0-8.71 8.75-15 2.06-15H270.16V142.2c0 6.7-6.27-2.06-15-2.06-5.7 0-9.12 5.22-9.12 11.66s3.42 11.66 9.12 11.66c8.71 0 15-8.76 15-2.06v27.81H298c6.69 0-2.06 6.27-2.06 15 0 5.69 5.21 9.11 11.65 9.11s11.66-3.42 11.66-9.11c0-8.72-8.76-15-2.06-15H345V161.4c0-6.7-6.27 2.06-15 2.06-5.7 0-9.12-5.22-9.12-11.66s3.42-11.66 9.12-11.66c8.71 0 15 8.76 15 2.06V114.39H317.17C310.47 114.39 319.23 120.66 319.23 129.37ZM169.59 204.2c0 5.69-5.22 9.11-11.66 9.11s-11.66-3.42-11.66-9.11c0-8.72 8.76-15 2.06-15H126.82a52.23 52.23 0 0 0 50.72 64.62h17.8V236.22c0-6.7-6.27 2.05-15 2.05-5.69 0-9.11-5.21-9.11-11.65S174.66 215 180.35 215c8.72 0 15 8.76 15 2.06V189.21H167.53C160.83 189.21 169.59 195.48 169.59 204.2Z"></path>
      <path fill="#d6eefe" d="M492.85,189.21h-26c-6.7,0,2.06,6.27,2.06,15,0,5.69-5.22,9.11-11.66,9.11s-11.65-3.42-11.65-9.11c0-8.72,8.75-15,2.06-15H419.8V217c0,6.7-6.26-2.06-15-2.06-5.7,0-9.12,5.22-9.12,11.66s3.42,11.65,9.12,11.65c8.72,0,15-8.75,15-2.05v17.61h11.3A61.87,61.87,0,0,0,492.92,192C492.92,191.07,492.89,190.14,492.85,189.21Z"></path>
      <path fill="#ffd471" d="M401.57,115.6c-2.19-11-11.4-16.53-20.61-16.48s-18.43,5.43-20.62,16.48a23.63,23.63,0,0,0-.46,4.48,24.16,24.16,0,0,0,5.52,15.65,25,25,0,0,1,5.26,11.3,3.11,3.11,0,0,0,1.93,2.34h16.72a3.1,3.1,0,0,0,1.94-2.34,25,25,0,0,1,5.26-11.3A24.22,24.22,0,0,0,402,120.08,23.63,23.63,0,0,0,401.57,115.6Z"></path>
      <path fill="#387694" d="M389.41,120.58a.28.28,0,0,1-.13,0c-.27-.14-.19-.66,0-1.63a6.06,6.06,0,0,0,.14-1.26,6.54,6.54,0,0,0-.83.94c-.61.79-.95,1.19-1.23,1.09s-.29-.63-.25-1.62a5.46,5.46,0,0,0,0-1.26,6.12,6.12,0,0,0-.7,1c-.52.85-.8,1.29-1.09,1.22s-.36-.58-.44-1.57a5.59,5.59,0,0,0-.18-1.25,7,7,0,0,0-.58,1.12c-.41.9-.64,1.37-.94,1.34s-.42-.54-.61-1.51a6.43,6.43,0,0,0-.32-1.23,6,6,0,0,0-.46,1.18c-.3.94-.47,1.44-.78,1.44s-.47-.5-.78-1.44a6.12,6.12,0,0,0-.45-1.18,6.43,6.43,0,0,0-.32,1.23c-.2,1-.31,1.48-.61,1.51s-.54-.44-.94-1.34a7,7,0,0,0-.58-1.12,5.59,5.59,0,0,0-.18,1.25c-.09,1-.15,1.51-.44,1.57s-.58-.37-1.09-1.22a5.54,5.54,0,0,0-.71-1,6.23,6.23,0,0,0,0,1.26c0,1,0,1.51-.24,1.62s-.63-.3-1.24-1.08a6.19,6.19,0,0,0-.83-1,6.06,6.06,0,0,0,.14,1.26c.16,1,.23,1.49,0,1.63s-.66-.21-1.37-.9a4.77,4.77,0,0,0-1-.84.15.15,0,0,1-.22-.06.19.19,0,0,1,.08-.23c.26-.17.65.19,1.38.89a6,6,0,0,0,1,.83,5.49,5.49,0,0,0-.13-1.26c-.17-1-.24-1.52,0-1.65s.62.28,1.25,1.07a5.76,5.76,0,0,0,.84.95,5.44,5.44,0,0,0,0-1.26c0-1,0-1.54.26-1.63s.58.36,1.1,1.21a5.92,5.92,0,0,0,.72,1.06,5.6,5.6,0,0,0,.18-1.26c.09-1,.15-1.53.45-1.58s.54.42.95,1.34a6.4,6.4,0,0,0,.59,1.12,5.4,5.4,0,0,0,.33-1.22c.2-1,.32-1.5.63-1.52s.48.48.8,1.44a6.26,6.26,0,0,0,.45,1.18,5.56,5.56,0,0,0,.46-1.18c.31-1,.49-1.46.8-1.44s.43.53.63,1.52a5.48,5.48,0,0,0,.32,1.22,4.85,4.85,0,0,0,.59-1.12c.42-.92.65-1.39,1-1.34s.36.58.45,1.58a5.6,5.6,0,0,0,.18,1.26,6.51,6.51,0,0,0,.72-1.06c.51-.85.8-1.3,1.1-1.21s.29.62.26,1.63a5.44,5.44,0,0,0,0,1.26,6.8,6.8,0,0,0,.85-.95c.61-.79.95-1.19,1.24-1.07s.21.65,0,1.65a6.12,6.12,0,0,0-.13,1.26,7,7,0,0,0,1-.83c.72-.7,1.11-1,1.37-.89a.17.17,0,0,1,.06.23.16.16,0,0,1-.23,0,6.59,6.59,0,0,0-1,.85C390,120.24,389.67,120.58,389.41,120.58Z"></path>
      <path fill="#2f627c" d="M385.72 151.05a.33.33 0 0 1-.33-.34V136.77c0-4 1.51-6.64 3-9.21s2.88-5.06 2.88-8.88a.34.34 0 0 1 .68 0c0 4-1.52 6.65-3 9.21s-2.89 5.06-2.89 8.88v13.94A.34.34 0 0 1 385.72 151.05ZM376.19 151.05a.34.34 0 0 1-.34-.34V136.77c0-3.82-1.4-6.27-2.88-8.88s-3-5.21-3-9.21a.33.33 0 0 1 .33-.33.34.34 0 0 1 .34.33c0 3.82 1.4 6.28 2.89 8.88s3 5.21 3 9.21v13.94A.34.34 0 0 1 376.19 151.05ZM386.63 160.4a5.68 5.68 0 1 1-5.67-5.67A5.68 5.68 0 0 1 386.63 160.4Z"></path>
      <path fill="#387694" d="M372.59,149.37v9.25a3.07,3.07,0,0,0,3,3.09h10.82a3,3,0,0,0,2.94-3.09v-9.25Z"></path>
      <rect width="17.77" height="1.33" x="372.07" y="157.55" fill="#2f627c" rx=".55"></rect>
      <path fill="#2f627c" d="M372.62 154.72h16.67a.55.55 0 0 1 .55.55v.24a.54.54 0 0 1-.54.54H372.62a.55.55 0 0 1-.55-.55v-.23A.55.55 0 0 1 372.62 154.72ZM389.84 152.67a.55.55 0 0 1-.55.55H372.62a.55.55 0 0 1-.55-.55v-.24a.55.55 0 0 1 .55-.55h16.67a.55.55 0 0 1 .55.55Z"></path>
      <path fill="#387694" d="M442.25 244.48c-.66 0-1.33 0-2-.09a5.58 5.58 0 0 1-5-6.06 5.68 5.68 0 0 1 .35-1.49 5.1 5.1 0 0 1 .58-1.11.3.3 0 0 1 .23-.14l8.34-.53a.31.31 0 0 1 .24.1 5.52 5.52 0 0 1 1.22 2.35 15.05 15.05 0 0 0 5.5-2.85l.08 0a.15.15 0 0 1 .05-.06 14.88 14.88 0 0 0 3.81-4.86 5.71 5.71 0 0 1-2.09-1.62.37.37 0 0 1-.06-.27l2.07-8.11a.32.32 0 0 1 .18-.21 5.25 5.25 0 0 1 1.21-.36 5.18 5.18 0 0 1 1-.08 4.61 4.61 0 0 1 .53 0 5.58 5.58 0 0 1 5 6.06 21.31 21.31 0 0 1-21.2 19.36ZM321.72 88.13l12-11.83a2.67 2.67 0 0 1 .39 1.37V95.18a2.64 2.64 0 0 1-.48 1.52ZM317 90.87l15.74-15.52a2.58 2.58 0 0 0-1.35-.37H302.65a2.58 2.58 0 0 0-1.35.37ZM300.34 76.3a2.76 2.76 0 0 0-.38 1.37V95.18a2.57 2.57 0 0 0 .48 1.52l11.9-8.57Zm20.42 12.79-3.24 3.2a.74.74 0 0 1-.49.19.67.67 0 0 1-.47-.19l-3.25-3.2-11.82 8.5a2.52 2.52 0 0 0 1.16.28h28.77a2.58 2.58 0 0 0 1.16-.28Z"></path>
      <polygon fill="#ffd471" points="216.21 221.85 219.89 229.29 228.11 230.49 222.16 236.29 223.57 244.48 216.21 240.61 208.86 244.48 210.27 236.29 204.31 230.49 212.54 229.29 216.21 221.85"></polygon>
      <path fill="#4693b9" d="M212.57,165.66a4.59,4.59,0,0,0,4.57,4.58h32.79a4.59,4.59,0,0,0,4.58-4.58V143.42H212.57Zm29.49-16.47a1.53,1.53,0,0,1,1.53-1.53H247a1.52,1.52,0,0,1,1.52,1.53v2.95a1.52,1.52,0,0,1-1.52,1.52h-3.43a1.53,1.53,0,0,1-1.53-1.52Zm0,10.8a1.53,1.53,0,0,1,1.53-1.52H247a1.52,1.52,0,0,1,1.52,1.52v3a1.53,1.53,0,0,1-1.52,1.53h-3.43a1.54,1.54,0,0,1-1.53-1.53Zm-11.76-10.8a1.52,1.52,0,0,1,1.53-1.53h3.42a1.53,1.53,0,0,1,1.53,1.53v2.95a1.53,1.53,0,0,1-1.53,1.52h-3.42a1.52,1.52,0,0,1-1.53-1.52Zm0,10.8a1.52,1.52,0,0,1,1.53-1.52h3.42a1.53,1.53,0,0,1,1.53,1.52v3a1.54,1.54,0,0,1-1.53,1.53h-3.42A1.53,1.53,0,0,1,230.3,163Zm-11.77-10.8a1.53,1.53,0,0,1,1.53-1.53h3.43a1.52,1.52,0,0,1,1.52,1.53v2.95a1.52,1.52,0,0,1-1.52,1.52h-3.43a1.53,1.53,0,0,1-1.53-1.52Zm0,10.8a1.53,1.53,0,0,1,1.53-1.52h3.43A1.52,1.52,0,0,1,225,160v3a1.53,1.53,0,0,1-1.52,1.53h-3.43a1.54,1.54,0,0,1-1.53-1.53ZM220,136v-5.14a1.54,1.54,0,0,1,1.53-1.53h.19a1.53,1.53,0,0,1,1.52,1.53V136a1.53,1.53,0,0,1-1.52,1.53h-.19A1.54,1.54,0,0,1,220,136Zm34.53,1v5H212.57v-5a4.59,4.59,0,0,1,4.57-4.57h1.32V136a3,3,0,0,0,3,3.05h.19a3.06,3.06,0,0,0,3.05-3.05v-3.62h17.58V136a3.06,3.06,0,0,0,3,3.05h.19a3.06,3.06,0,0,0,3.05-3.05v-3.62h1.31A4.59,4.59,0,0,1,254.51,136.93Zm-10.65-1v-5.14a1.53,1.53,0,0,1,1.52-1.53h.19a1.54,1.54,0,0,1,1.53,1.53V136a1.54,1.54,0,0,1-1.53,1.53h-.19A1.53,1.53,0,0,1,243.86,136Z"></path>
      <path fill="#387694" d="M145.26,183c0,8.75,7.46,19.81,10.72,23.46a1.08,1.08,0,0,0,.73.41,1,1,0,0,0,.72-.41c3.27-3.65,10.73-14.71,10.73-23.46a11.45,11.45,0,0,0-22.9,0Zm5,0a6.43,6.43,0,1,1,6.42,6.43A6.41,6.41,0,0,1,150.29,183Z"></path>
      <path fill="#4693b9" d="M467.92,158.91h-2.59a13,13,0,0,0-1.8-4.34l1.83-1.83a.54.54,0,0,0,0-.78l-3.17-3.17a.56.56,0,0,0-.78,0l-1.83,1.83a12.93,12.93,0,0,0-4.34-1.8v-2.59a.55.55,0,0,0-.55-.55H450.2a.55.55,0,0,0-.55.55v2.59a12.93,12.93,0,0,0-4.34,1.8l-1.83-1.83a.56.56,0,0,0-.78,0L439.53,152a.56.56,0,0,0,0,.78l1.83,1.83a13,13,0,0,0-1.8,4.34H437a.55.55,0,0,0-.55.55V164a.55.55,0,0,0,.55.55h2.59a12.73,12.73,0,0,0,1.8,4.34l-1.83,1.83a.56.56,0,0,0,0,.78l3.17,3.17a.53.53,0,0,0,.78,0l1.83-1.83a12.73,12.73,0,0,0,4.34,1.8v2.59a.55.55,0,0,0,.55.55h4.49a.55.55,0,0,0,.55-.55v-2.59a12.73,12.73,0,0,0,4.34-1.8l1.83,1.83a.53.53,0,0,0,.78,0l3.17-3.17a.54.54,0,0,0,0-.78l-1.83-1.83a12.93,12.93,0,0,0,1.8-4.34h2.59a.55.55,0,0,0,.55-.55v-4.49A.55.55,0,0,0,467.92,158.91ZM451.3,171.39a9.75,9.75,0,0,1,0-19.37v1.11a8.65,8.65,0,0,0,0,17.15Zm-5.72-9.68a6.87,6.87,0,1,1,6.86,6.87A6.86,6.86,0,0,1,445.58,161.71Zm8,9.68v-1.11a8.65,8.65,0,0,0,0-17.15V152a9.75,9.75,0,0,1,0,19.37Z"></path>
      <path fill="#387694" d="M386.21 249.29a1.2 1.2 0 0 0-1.41 1L333.93 526.41a1.2 1.2 0 0 0 1 1.4l1.06.2a1.2 1.2 0 0 0 1.4-1L388.25 250.9a1.22 1.22 0 0 0-1-1.41ZM319.4 247.79a1.21 1.21 0 0 0-1.41 1L267.12 524.9a1.21 1.21 0 0 0 1 1.42l1.06.21a1.23 1.23 0 0 0 1.41-1l50.89-276.15a1.21 1.21 0 0 0-1-1.4Z"></path>
      <polygon fill="#387694" points="347.15 466.99 279.58 465.48 279.52 468.98 347.09 470.49 347.15 466.99"></polygon>
      <polygon fill="#387694" points="353.89 429.79 286.32 428.29 286.25 431.79 353.83 433.29 353.89 429.79"></polygon>
      <polygon fill="#387694" points="360.63 392.6 293.06 391.11 293 394.59 360.57 396.1 360.63 392.6"></polygon>
      <polygon fill="#387694" points="367.37 355.42 299.81 353.92 299.74 357.42 367.32 358.92 367.37 355.42"></polygon>
      <polygon fill="#387694" points="374.12 318.23 306.54 316.73 306.49 320.21 374.05 321.73 374.12 318.23"></polygon>
      <polygon fill="#387694" points="380.87 281.04 313.29 279.53 313.23 283.03 380.8 284.54 380.87 281.04"></polygon>
      <path fill="#bf7968" d="m364.61 221.18 1.35-1.11c.85-.7 1.71-1.42 2.63-2a8.46 8.46 0 0 1 3.12-1.36 15.83 15.83 0 0 0 3.05-.6 6.36 6.36 0 0 0 3.24-3 .82.82 0 0 0 1.05.57 1 1 0 0 0 .66-.76c.25.27.65.33 1.13-.1a4 4 0 0 0 .93-3.59c-.53-3-3.6-4.35-6.35-3.65a30.37 30.37 0 0 1 2.19-3.18c.4-.6 1.29-1.82.92-2.62-.8-1.81-3.95 2.35-4.36 3-.8 1.27-1.52 2.41-2.42 3.6a18 18 0 0 1-3.13 3.68 73.42 73.42 0 0 1-9 6S362.09 220.49 364.61 221.18ZM332.53 409.7c.26 5.16 1.33 10 1.09 15.24-.44 10.05-3.36 19.68-6.24 29.1h-8.53c.11-5.42.31-10.86.29-16.29 0-5.25-.83-10.46-.53-15.7.14-2.58.41-5.11.3-7.69a76.65 76.65 0 0 0-.91-8c-.58-4.14-1-8.26-.27-12.4h16.94c0 .05-.05.12-.07.14C333.43 399.22 332.25 404.4 332.53 409.7ZM293.85 409.7c-.27 5.16-1.32 10-1.09 15.24.44 10.05 3.36 19.68 6.23 29.1h8.54c-.11-5.42-.31-10.86-.3-16.29 0-5.25.83-10.46.54-15.7-.15-2.58-.41-5.11-.31-7.69s.53-5.32.91-8c.59-4.14 1-8.26.27-12.4H291.71c0 .05 0 .12.07.14C293 399.22 294.13 404.4 293.85 409.7ZM301.91 226.23a16.5 16.5 0 0 1-2-2.45 26.26 26.26 0 0 0-5-6.28l-18.34 6.27c-.05.1-.13.21-.17.31a19.44 19.44 0 0 0-1.23 8.22 26.82 26.82 0 0 0 2.05 9.61c.35.83 1.85 3.85 3.29 4.42l.87 3a29.48 29.48 0 0 0 1 3.56l18.58-6.33c-.39-1.32-.82-2.61-1.32-3.9a10.17 10.17 0 0 0 2.29-5 10.65 10.65 0 0 0-.49-3.44c-.51-1.94-.61-3.46.57-5.18.44-.64.84-1.14.57-2A3.47 3.47 0 0 0 301.91 226.23Z"></path>
      <path fill="#4693b9" d="M237.21,302.05c1.14-4.29,4.17-8,6.66-11.58s5-7.13,7.75-10.53a75.24,75.24,0,0,1,19.57-17.44,21.26,21.26,0,0,0,6.35-5.24c1.3-1.76,2.12-3.78,3.78-5.3a18.54,18.54,0,0,1,8.13-3.87c3.38-1.6,10.91-2.94,11.09-3,6-.35,7.81-.1,13.47-2.36a82.85,82.85,0,0,0,19.17-11.37c9.09-7.73,19.75-13,30.4-18.16.93,2.73,5.18,6.89,5.18,6.89-9.25,7.29-15.68,17.48-25.11,24.55-5.15,3.83-9.9,7.28-13.48,12.75a56,56,0,0,0-3.35,6.07,74.48,74.48,0,0,0-2.09,22.91,80.72,80.72,0,0,0,7.21,27.49,107.9,107.9,0,0,1,8.14,25.94c1.58,9.37,2.58,18.9,3.31,28.38.64,8,1,16.11,1.1,24.19-20.32,5.36-41.29,6.07-62.1,4.24a243,243,0,0,1,1.6-43.48c1-8.06,2.81-16,4-24a61.9,61.9,0,0,0-1.67-25.75,107.43,107.43,0,0,0-10-23.75c-3.89,5-7.93,9.92-12.18,14.64a59.27,59.27,0,0,1-7.23,6.94,142.34,142.34,0,0,0,29.5,7.77s-2.33,2.52-3.46,10.38c0,0-11-2-16.54-2.59-5-.58-10-.75-14.9-1.44C244.6,314.38,234.81,311,237.21,302.05Z"></path>
      <path fill="#12252e" d="M270.85,234.24a37.15,37.15,0,0,0,2,8.29c1.39,3.47,4.26,5.29,7.61,6.2-.2.58-.38,1.21-.53,1.82a22.24,22.24,0,0,0-.69,5.14c0,2.43,1,5.14,3.46,6.11s5.08-.24,6.74-2a8.51,8.51,0,0,0,.7-10.73,10.57,10.57,0,0,0,4.39-3.75,13.35,13.35,0,0,0,2.39-6.07c.32-2.42-.4-4.76-.31-7.19.06-2.62,1.4-4.95,2.13-7.4a14.64,14.64,0,0,0,.52-4.78c.33-1.27.46-8.67-8-11-9.2-2.54-15.45,1.84-18.53,5.71a15.58,15.58,0,0,0-4,11.16C268.71,229.6,270.5,231.77,270.85,234.24Z"></path>
      <path fill="#bf7968" d="M283.16,318.24a4.31,4.31,0,0,1,2.17,1,6.85,6.85,0,0,0,1.53,1.36c1,.49,1.91-.32,2.24-1.22a11.42,11.42,0,0,0,.29-2.1c.09-.79.39-1.57.43-2.4.08-1.47-.16-3.62-2-4.67l.08.51c-.27.34-.67.16-1,.1a3.27,3.27,0,0,1-1.25-.51s0,0,0,0a14,14,0,0,0-1.67,3.52A34.72,34.72,0,0,0,283.16,318.24Z"></path>
      <path fill="#ffd471" d="M294.82,440.22c-.14-.89-.28-1.8-.43-2.7-.07-.35-.11-.49-.11-.49,4,.76,9.26.46,13,.19,0,0,.1,1.31.15,3Z"></path>
      <path fill="#12252e" d="M307.74,458.5c-.1-3,.28-6.1.41-9.13.15-3.18-.21-9.52-.22-9.55-3.85.27-9.26.58-13.3-.2,0,0,0,.16.1.51.53,2.91,1,5.85,1.25,8.8.12,1.27.22,2.59.29,3.88a20,20,0,0,1,0,4.76c-.39,2.07-2,3.77-1.82,6,.11,1.76,1.38,2.91,2.58,3.88,1.44,1.16,2.54,3.07,4.22,3.86a5.55,5.55,0,0,0,4.9-.38c1.79-.94,2-2.9,2.24-5C308.71,463.36,307.82,461.07,307.74,458.5Z"></path>
      <path fill="#ffd471" d="M331.5,440.54c.15-.9.28-1.81.44-2.71.06-.34.1-.49.1-.49-4,.78-9.26.47-13,.2,0,0-.08,1.3-.15,3Z"></path>
      <path fill="#12252e" d="M318,466c.2,2.06.44,4,2.24,5a5.55,5.55,0,0,0,4.9.38c1.68-.79,2.78-2.7,4.23-3.86,1.19-1,2.46-2.12,2.58-3.88.15-2.23-1.43-3.93-1.83-6a20,20,0,0,1,0-4.76c.08-1.29.17-2.61.29-3.88.29-2.95.71-5.89,1.25-8.8.06-.35.1-.51.1-.51-4.05.78-9.45.47-13.3.2,0,0-.36,6.37-.21,9.55.12,3,.5,6.09.4,9.13C318.54,461.07,317.68,463.36,318,466Z"></path>
      <rect width="111.8" height="90.57" x="108.97" y="434.2" fill="#29566d"></rect>
      <path fill="#4693b9" d="M228.48,452.68a4.25,4.25,0,0,1-4.24,4.24H105.5a4.26,4.26,0,0,1-4.25-4.24V435.73a4.27,4.27,0,0,1,4.25-4.25H224.24a4.26,4.26,0,0,1,4.24,4.25Z"></path>
      <path fill="#98d4fc" d="M188.83,444.63a1.7,1.7,0,0,1-1.7,1.69H110a1.7,1.7,0,0,1-1.7-1.69v-.85a1.7,1.7,0,0,1,1.7-1.7h77.18a1.7,1.7,0,0,1,1.7,1.7Z"></path>
      <path fill="#ffd471" d="M203.28,444.2a2.12,2.12,0,1,1-2.12-2.12A2.12,2.12,0,0,1,203.28,444.2Z"></path>
      <path fill="#2f627c" d="M212.07,444.2a2.13,2.13,0,1,1-2.13-2.12A2.12,2.12,0,0,1,212.07,444.2Z"></path>
      <path fill="#a2ddd0" d="M220.85,444.2a2.12,2.12,0,1,1-2.12-2.12A2.12,2.12,0,0,1,220.85,444.2Z"></path>
      <path fill="#4693b9" d="M228.48,481.31a4.25,4.25,0,0,1-4.24,4.24H105.5a4.26,4.26,0,0,1-4.25-4.24v-17a4.27,4.27,0,0,1,4.25-4.25H224.24a4.26,4.26,0,0,1,4.24,4.25Z"></path>
      <rect width="80.57" height="4.25" x="108.25" y="470.7" fill="#98d4fc" rx="1.7"></rect>
      <path fill="#a2ddd0" d="M203.28,472.83a2.12,2.12,0,1,1-2.12-2.13A2.12,2.12,0,0,1,203.28,472.83Z"></path>
      <path fill="#2a817d" d="M212.07,472.83a2.13,2.13,0,1,1-2.13-2.13A2.12,2.12,0,0,1,212.07,472.83Z"></path>
      <path fill="#98d4fc" d="M220.85,472.83a2.12,2.12,0,1,1-2.12-2.13A2.12,2.12,0,0,1,220.85,472.83Z"></path>
      <path fill="#4693b9" d="M228.48,509.93a4.25,4.25,0,0,1-4.24,4.24H105.5a4.26,4.26,0,0,1-4.25-4.24V493a4.26,4.26,0,0,1,4.25-4.24H224.24a4.26,4.26,0,0,1,4.24,4.24Z"></path>
      <path fill="#98d4fc" d="M188.83,501.88a1.7,1.7,0,0,1-1.7,1.69H110a1.7,1.7,0,0,1-1.7-1.69V501a1.71,1.71,0,0,1,1.7-1.7h77.18a1.71,1.71,0,0,1,1.7,1.7Z"></path>
      <path fill="#2a817d" d="M203.28,501.45a2.12,2.12,0,1,1-2.12-2.12A2.12,2.12,0,0,1,203.28,501.45Z"></path>
      <path fill="#a2ddd0" d="M212.07,501.45a2.13,2.13,0,1,1-2.13-2.12A2.12,2.12,0,0,1,212.07,501.45Z"></path>
      <path fill="#ffd471" d="M220.85,501.45a2.12,2.12,0,1,1-2.12-2.12A2.12,2.12,0,0,1,220.85,501.45Z"></path>
      <path fill="#2f627c" d="M224.24,524.78a2.55,2.55,0,0,1-2.54,2.54H108a2.54,2.54,0,0,1-2.54-2.54v-1.7a2.55,2.55,0,0,1,2.54-2.54H221.7a2.56,2.56,0,0,1,2.54,2.54Z"></path>
      <path fill="#a2ddd0" d="M229.9 539s29.46-55.39 5.53-54.81c-9.84.24-18.34 44.29-18.34 44.29s1.93-40.19-17.75-33.88c-10.65 3.41 5.46 33.88 5.46 33.88S190.22 508.81 182 514.4c-13.39 9.1 11.16 24.75 11.16 24.75ZM242.83 539s5.18-29.32 16.59-28.83c8.16.37.8 20.23-6.12 28.81C253.3 538.94 243.14 538.94 242.83 539Z"></path>
      <path fill="#e0fbf0" d="M222.75 539 235 495.63a.55.55 0 0 1 .67-.38.53.53 0 0 1 .38.67L223.89 539ZM212.59 539.08 204.09 504a.55.55 0 0 1 .39-.66.56.56 0 0 1 .67.4l8.56 35.39ZM248.2 538.94l7.85-19.6a.55.55 0 0 1 1 .42l-7.68 19.18ZM203.56 539.12l-15.45-17.41a.57.57 0 0 1 0-.79.55.55 0 0 1 .77.05L205 539.12Z"></path>
      <polygon fill="#ffa18a" points="488.31 512.74 478.4 512.7 478.87 526.07 487.7 525.95 488.31 512.74"></polygon>
      <path fill="#12252e" d="M489.17,531l0-2.95a10,10,0,0,0-.34-2.67l-.48-1.83h0l-.08-.28a.71.71,0,0,0-1.22-.27l-.42.48a4.84,4.84,0,0,1-6.84-.29h0l.21-1a2.5,2.5,0,0,0-.9-2.54.8.8,0,0,0-.95,0s-4.19,3.23-4.25,3.26a1,1,0,0,1-.16.13l-.18.14a.44.44,0,0,1-.11.09s0,0,0,0l-1.65,1.13-1,.59-.12,0-.19.11,0,0-.43.23-.08,0c-.07,0-1.11.53-1.32.61l-.08,0a2.11,2.11,0,0,1-.31.13l-.27.11-.86.33-.25.09-.06,0-.26.09a24.64,24.64,0,0,1-2.59.69l-3.46.72a3.26,3.26,0,0,0-2.59,3.17v.15a4.73,4.73,0,0,0,.58,2l0,.08h0A4.41,4.41,0,0,0,462,536h.31l24.11.14a2.42,2.42,0,0,0,2.62-2c0-.19,0-.48-.22-.5l.22-1.17A6.52,6.52,0,0,0,489.17,531Z"></path>
      <polygon fill="#ffa18a" points="457.91 511.76 448 511.71 448.47 525.09 457.31 524.97 457.91 511.76"></polygon>
      <path fill="#12252e" d="M458.78,530.06v-2.95a10.53,10.53,0,0,0-.34-2.68l-.49-1.82h0l-.07-.28a.71.71,0,0,0-1.22-.28l-.42.49a4.87,4.87,0,0,1-6.85-.28h0l.22-1a2.5,2.5,0,0,0-.91-2.54.77.77,0,0,0-.94,0L443.52,522s-.13.1-.15.11-.13.1-.19.15l-.12.09h0s-1.6,1.11-1.64,1.14l-1,.58-.12.07-.19.1a.07.07,0,0,0-.05,0l-.44.22-.07,0-1.32.63a.19.19,0,0,0-.08,0l-.31.13-.27.11c-.26.11-.85.32-.86.33l-.25.09-.06,0-.26.08a24.67,24.67,0,0,1-2.59.7l-3.46.71a3.28,3.28,0,0,0-2.59,3.17v.16a4.42,4.42,0,0,0,.57,2l0,.08h0a4.35,4.35,0,0,0,3.45,2.22h.31l24.11.14a2.4,2.4,0,0,0,2.61-2c0-.2,0-.47-.21-.5l.22-1.17A8.21,8.21,0,0,0,458.78,530.06Z"></path>
      <path fill="#2f627c" d="M494.68,398.66l-55.75-.76c-1.19,10.67-3.59,53.52,7.18,118.74a39.88,39.88,0,0,0,8.76.88,25.63,25.63,0,0,0,4.2-.76l5-97.41s9.76,83.66,12.5,97.42a45.45,45.45,0,0,0,5.67.29c3.37-.08,7-.58,7-.58C495.47,476.2,492.73,445.71,494.68,398.66Z"></path>
      <path fill="#98d4fc" d="M501.89,319.27c-3.93-5.89-16.25-9.9-24.34-11.13l-15.51.7c-13,3-16.88,5.86-19.75,11-2.28,4.11-7.85,17.22-21.63,30.54-.91.88,5.79,9,5.79,9s8.28-5.3,11.6-4.77c3.72.59,2.54,7.05,2.46,7.89-1.78,18.62-3.26,22.26-3.26,44.68,0,0,22.89,6.95,58.75,1.42,0,0,1.45-9.15-1.24-33.29,17.65,0,20.22-3.8,19.4-14.51C512.54,339.59,506.22,325.77,501.89,319.27Zm-5.83,37.54c0,.26-3.61,1.07-3.61,1.07-.86-10.08-.12-15.57-.12-15.57C493.59,347.94,495.33,350.55,496.06,356.81Z"></path>
      <path fill="#ffa18a" d="M470.62,361.55,470.8,372c-.65.26-6.41-.8-12.07,2l-4.64-15.47C459.05,357.79,465.07,362,470.62,361.55Z"></path>
      <path fill="#1f4152" d="M463.11,377.62a3,3,0,0,1-3,3.5H426.83a4.26,4.26,0,0,1-4.07-3.5l-7.12-47.15a3,3,0,0,1,3-3.5h33.21a4.26,4.26,0,0,1,4.07,3.5Z"></path>
      <path fill="#ffa18a" d="M478.66,308.31c-.85-5.47-1.55-12.26-1.55-12.26s-.76-6.19-.82-8.34c-.25-8.9-8.67-16.58-15.83-16.3-7.32.3-11.72,7.54-11.14,16.43.53,8.31,5.7,17.51,12.54,16.84l-.13,4.23s.36,2.53,4.72,2.86C476.11,312.51,478.66,308.31,478.66,308.31Z"></path>
      <path fill="#12252e" d="M477.37,298.41c6.44-1.44,4.28-13.1,4.11-17.16-.2-4.8-.34-9.84-4.41-13.13-6.7-5.4-11.08-3.61-16.09-3.12-20.27,2-11.43,17.76-11.43,17.76.72-1.81,2.09-5.94,2.09-5.94,6.83,6.13,14.45,2.78,17.81,9.67.09.19,3.69,4.23,3.69,4.23C475.8,293.49,477.37,298.41,477.37,298.41Z"></path>
      <path fill="#ffa18a" d="M475.09,288.28a3,3,0,1,1-2.61-3.37A3,3,0,0,1,475.09,288.28Z"></path>
      <path fill="#ffa18a" d="M471.87,287.39a2.37,2.37,0,0,1,1.05-.85c.08,0,.18,0,.21.12a.18.18,0,0,1-.11.21,2,2,0,0,0-.8.61.86.86,0,0,1,.65,1.27,1,1,0,0,1-.32.37.15.15,0,0,1-.23-.05.16.16,0,0,1,.05-.23s.05,0,0,0l0,0,.06-.06,0,0s0,0,0,0a.43.43,0,0,0,0-.07.16.16,0,0,0,0-.07v0l0,0s0,0,0-.08a.43.43,0,0,0,0-.05h0s0-.05,0-.07v-.08h0a.09.09,0,0,0,0-.05.25.25,0,0,0,0-.07h0s0,0,0,0a0,0,0,0,1,0,0h0l-.06-.06,0,0h0l-.11-.06-.05,0h0l-.13,0-.07,0h0a2.67,2.67,0,0,0-.24,1c0,.22-.35.24-.34,0A2.77,2.77,0,0,1,471.87,287.39Z"></path>
      <path fill="#7abde1" d="M470.84 361.69c2-.31 4-.35 6-.5s3.87-.4 5.78-.75c3.24-.56 6.43-1.42 9.61-2.29.2 0 .11-.37-.1-.32-3.17.87-6.36 1.71-9.6 2.3-2 .35-4 .59-6 .75s-3.85.19-5.76.49c-.21 0-.12.35.09.32ZM471 372.22a32.16 32.16 0 0 0 3.87.84c1.9.33 3.81.61 5.72.87q5.58.76 11.17 1.33a16.62 16.62 0 0 0 2.81.21c.21 0 .21-.34 0-.33a12.7 12.7 0 0 1-2.31-.17q-2.4-.23-4.8-.51c-4-.46-7.93-1-11.87-1.61a33.06 33.06 0 0 1-4.5-1c-.21-.07-.29.26-.09.33ZM496.08 357.14c2.16.93 4.44 2.07 5.5 4.29.09.2.38 0 .29-.16-1.08-2.28-3.41-3.46-5.62-4.43-.19-.08-.36.21-.17.3Z"></path>
      <path fill="#ffa18a" d="M416.2,338.62c1.95-.74,6.64-2,7.35-.38.53,1.2-1,1.92-6,3.31.27,1.08,7.33-2.22,8.25,1.6.72.59,2.46,1.92-.14,3.9,3.56,1.35-2.55,4.73-6.86,4l.26,2a4.46,4.46,0,0,1-2.42-2.41c-.71-1.32-.18-2.14-1.36-3.26-.85-.81-.05-2.38-.68-3-1.21-1.31.57-2,.18-2.49C413.46,340.08,414,339.44,416.2,338.62Z"></path>
      <path fill="#a55852" d="M178.45,347.4c12.85-5.29,3.42-15.7,4.64-21.6,1.78-8.56-2-14.21-8.45-15.86a8.48,8.48,0,0,0,.23-2.11,6.66,6.66,0,0,0-6.38-6.36c-3.22,0-5.84,3.09-5.84,6.36a10,10,0,0,0,.14,1.76c-6.95,1.62-11,9-9.45,16.37,2,9-6.41,13.41,3.09,20C161.2,349.31,172.93,349.68,178.45,347.4Z"></path>
      <path fill="#ffd471" d="M151.1,403.11l-.65,7.64c-6-2.33-26.45-2.93-24.81-16.11,1.12-9.11,5.92-18.53,11.49-28.67,5.7-10.39,10-12.52,20.38-14h22.6c8.61.85,12.78,2.24,18.74,10.6,4.83,6.78,9.53,16.35,14.54,28.42,4.87,11.67-19.72,18.63-23.94,20-2.5.83-2.75-6.3-2.34-6.7,2-1.87,15.71-8.55,13.95-11.23-7.61-11.58-11.12-19.58-12.3-20.2,0,0,.29,14.27.89,24.89.72,12.75,3.75,13.32.46,18.69,0,0-12.13,3.67-20.22,3.22-7.86-.42-20.58-5.22-20.58-5.22-2.77-4.1-.42-5.5-.19-16.11.23-11.12-1-24.46-1-24.46-1.93,3.14-8.3,16.34-9.8,21.12C137.61,397.15,143.66,399.67,151.1,403.11Z"></path>
      <path fill="#ffa18a" d="M162.56,340.16v7.64a2.83,2.83,0,0,1-.87,2.1,20,20,0,0,1-4.18,2,23.53,23.53,0,0,0,11.34,2.73c8.7,0,11.26-2.73,11.26-2.73a10.61,10.61,0,0,1-4.7-2.25,1.91,1.91,0,0,1-.66-1.49l.06-8Z"></path>
      <path fill="#ffa18a" d="M174.75,344.14c-2.74,2.38-9.26,2.54-12.18,0V341l12.19-.05Z" opacity=".3" style="mix-blend-mode:multiply"></path>
      <path fill="#ffa18a" d="M180.8,327.2a1.14,1.14,0,0,0-.26,0v-4.73c0-6.71-5-9.95-11.69-10h0c-6.75,0-12.72,3.19-12.74,9.91v4.71H156a2.64,2.64,0,1,0,0,5.28h.2c1.72,6.13,6.47,12.29,12,12.29h0c6.41,0,10.68-5.47,12.27-12.24l.33,0a2.65,2.65,0,1,0,0-5.29Z"></path>
      <path fill="#a55852" d="M180.54,327.22c3.3-20.21-16.74-18.78-22.39-13.84-3.67,3.21-2,13.76-2,13.76s8.87-13.51,12.64-12.22C173,313.52,180.54,327.22,180.54,327.22Z"></path>
      <path fill="#2f627c" d="M150,413.12c-16.31-5.39-42.78-1.26-43.7,4.8-2.68,17.65,22.84,18.34,39.92,20.88,6.17.92,13.18,4.25,22,3.81,54.59-2.77,65.3-18.7,62.53-27.47-1.56-4.93-13.15-10.38-39.92-1-7.19,2.52-12.4,3.71-21.22,3.28C161.1,417,156.6,415.31,150,413.12Z"></path>
      <path fill="#ffa18a" d="M148.59 403.26c-1.26 1.48.26 5.28.68 6 2.08 3.41 7.5 6.42 11.18 5 3.5-1.32 5.79-4.89 5-6.18-.55-.84-2.06-.37-6.78 0-1.9.14-4.7-1.08-4.69-1.54s4.79-.42 4.86-1.36S150.19 401.41 148.59 403.26ZM190.59 405.09c1.14 1.56-.66 5.23-1.14 5.88-2.33 3.25-8 5.83-11.53 4.15-3.39-1.6-5.4-5.33-4.46-6.56.62-.8 2.07-.21 6.77.52 1.87.3 4.77-.72 4.79-1.17s-4.75-.78-4.74-1.74S189.14 403.11 190.59 405.09ZM171.92 439.68c-.37-3.31-9.73-.39-14.93-1.43-9.65-1.93-14.56.17-15.14 2.43-.74 2.85 2 5.4 6.4 6.78 3.52 1.1 6.6 0 13.12-1.83C167.31 444 172.36 443.63 171.92 439.68ZM168.48 435.07c-1.4-3 8.14-5.34 12.05-8.91 7.28-6.64 12.56-7.37 14.22-5.74a3.65 3.65 0 0 1 1.1 2.61 64.15 64.15 0 0 1-11.73 8.19c-3.35 1.67-12.45 5.77-12.45 5.77A3.11 3.11 0 0 1 168.48 435.07Z"></path>
      <path fill="#254d62" d="M118.89 414.23c3.48.33 6.71 1.91 9.89 3.25s6.58 2.72 9.89 4a208.12 208.12 0 0 0 20 7.13q5.78 1.64 11.66 2.76c.21 0 .29-.3.08-.34a136.77 136.77 0 0 1-20.56-5.61c-6.81-2.43-13.51-5.17-20.19-8-3.48-1.45-7-3.23-10.8-3.6-.22 0-.22.33 0 .34ZM196.54 422.82c3-2.48 6.69-4.08 10.05-6s6.74-4 10.53-5.1a.17.17 0 0 0-.1-.32c-3.81 1.08-7.21 3.13-10.6 5.12s-7.07 3.61-10.11 6.1c-.17.15.07.38.23.24Z"></path>
      <path fill="#1f4152" d="M198.35,415.87a3.32,3.32,0,0,1-3.14,2.64H140.55a3.32,3.32,0,0,1-3.14-2.64L131.63,383a2.18,2.18,0,0,1,2.22-2.64h68.06a2.18,2.18,0,0,1,2.22,2.64Z"></path>
      <path fill="#98d4fc" d="M171.85,399a4,4,0,1,1-4-4A4,4,0,0,1,171.85,399Z" opacity=".3"></path>
    </g>
  </g>
</svg>
