<svg xmlns="http://www.w3.org/2000/svg" viewBox="0 0 4680 3120" id="data-monitoring">
  <g>
    <rect width="4680" height="3120" fill="#fff" opacity="0"></rect>
    <path fill="#f5f5f7" d="M3865.27,1883.94c.09,207.11-49.56,445.37-164.45,719.24,0,0-1558.12,181.32-2629.43,0,0,0-386.07-285.43-211.21-851.71,15.85-51.35,33.5-103.25,52.89-155.17C1107.3,1075.65,1475,552.53,1952.73,552.71,2396.43,552.87,3864.87,758.5,3865.27,1883.94Z"></path>
    <path fill="#e7e7ec" d="M3865.27,1883.94c.09,207.11-49.56,445.37-164.45,719.24,0,0-1558.12,181.32-2629.43,0,0,0-386.07-285.43-211.21-851.71,15.85-51.35,33.5-103.25,52.89-155.17,217.1-112.66,454.77-185.77,697.95-212.23,206.56-22.47,427-9,603.28,100.9,120.52,75.16,210.66,189.08,312.57,288s227.65,187.86,369.67,190.58c168.83,3.22,314.07-114.07,476.25-161.13C3538.13,1754.47,3722.22,1789.24,3865.27,1883.94Z"></path>
    <ellipse cx="2343.56" cy="2646.97" fill="#7a8db0" rx="1506.05" ry="161.5"></ellipse>
    <ellipse cx="3127.09" cy="2656.26" fill="#5c729a" rx="193.91" ry="42.33"></ellipse>
    <path fill="#5c729a" d="M3205,2569c0-28.79-389.87-52.13-870.8-52.13-465.83,0-846.22,21.9-869.66,49.43-125,11.61-212.74,38.68-212.74,70.22,0,42.12,156.42,76.27,349.37,76.27s349.38-34.15,349.38-76.27c0-7.33-4.75-14.41-13.58-21.12,119.1,3.66,254.13,5.73,397.23,5.73C2815.09,2621.08,3205,2597.74,3205,2569Z"></path>
    <path fill="#375b91" d="M2863,2501.32l-159.6-21.45L2556,2388.15l-123.21,91.72-123.21-91.72-147.43,91.72-159.6,21.45H1655.42V2548s42.65,53.88,777.33,53.88S3210.07,2548,3210.07,2548v-46.65Z"></path>
    <path fill="#7b9ccd" d="M2703.39,2433.22,2556,2341.5l-123.21,91.72-123.21-91.72-147.43,91.72-506.69,68.1s42.65,53.88,777.33,53.88,777.32-53.88,777.32-53.88Z"></path>
    <path fill="#375b91" d="M3210.07,2501.32c-1.54.71-3.14,1.3-4.72,1.93s-3.19,1.19-4.8,1.75l-4.83,1.68c-1.6.57-3.25,1-4.87,1.53-3.26,1-6.52,2-9.79,2.93l-9.88,2.61c-6.57,1.83-13.22,3.27-19.86,4.81l-10,2.28-10,2-10,2-5,1-2.51.49-2.52.42-20.15,3.37-10.09,1.68c-3.37.51-6.74.95-10.11,1.42l-20.25,2.81c-54,7.07-108.37,11.55-162.75,14.83-6.79.5-13.6.71-20.4,1l-20.41.91-20.4.91c-6.81.29-13.61.66-20.41.76l-40.84,1c-13.61.31-27.22.74-40.84.69l-40.84.16-20.42,0h-10.21l-10.21-.14-40.83-.72-20.42-.36-20.41-.46,20.42-.28,20.41-.19,40.82-.37,10.21-.06,10.2-.2,20.41-.43,40.81-.77c13.6-.15,27.19-.76,40.79-1.15l40.78-1.32c6.8-.17,13.6-.52,20.39-.84l20.38-1,20.37-1c6.8-.34,13.59-.58,20.37-1.08l40.72-2.59c13.58-.73,27.11-2.08,40.67-3.14l20.33-1.65,5.08-.42,5.07-.52,10.14-1,20.29-2.09,10.14-1,10.12-1.26,20.24-2.52c3.37-.43,6.75-.82,10.11-1.28l10.09-1.49,20.17-3c6.72-1,13.39-2.32,20.09-3.45l10.05-1.73,10-2c6.66-1.36,13.34-2.62,19.94-4.27l9.92-2.34c3.29-.85,6.56-1.78,9.84-2.66,1.64-.45,3.3-.84,4.92-1.36l4.87-1.5c1.63-.49,3.26-1,4.85-1.57S3208.5,2502,3210.07,2501.32Z"></path>
    <path fill="#354d7f" d="M2700.36,2106.3v326.92c0,13.18-120.45,23.88-269,23.88s-269-10.7-269-23.88h-.18V2106.3Z"></path>
    <path fill="#26375b" d="M2700.36,2106.3v151.51c0,13.2-120.45,23.88-269,23.88s-269-10.68-269-23.88h-.18V2106.3Z"></path>
    <path fill="#22385a" d="M3754.71,384.2V2225.14c0,53.63-30.93,72.66-57.42,72.66a56.39,56.39,0,0,1-15-2c-.82-.22-1.51-.44-2.09-.63l-1.23-.41-1.22-.5c-54.35-22.3-209.36-43.83-425.29-59-225.09-15.87-509.94-24.6-802.1-24.6h-29.78c-292.16,0-577,8.73-802.1,24.6-215.94,15.21-370.94,36.74-425.3,59l-1.21.5-1.23.41c-.58.19-1.3.41-2.12.64a53.11,53.11,0,0,1-26.59-17.37c-10.77-12.91-16-30.34-16-53.28V384.2c0-43.78,20.61-64.51,42.6-70.64.82.23,1.53.45,2.12.64l1.23.4,1.2.5c54.36,22.3,209.36,43.83,425.3,59,225.09,15.87,509.94,24.6,802.1,24.6h29.78c292.05,0,576.84-8.73,801.89-24.59,214.51-15.1,369-36.45,424.35-58.6l4.58-2.29,1.78-.89h4.63a57.12,57.12,0,0,1,9.69-.83C3723.78,311.54,3754.71,330.57,3754.71,384.2Z"></path>
    <path fill="#22385a" d="M3696.85,2131.27c0-.14,0-1642.13,0-1660.69,0,1.54.34-3.84-.93-15.49-6.12-49.42-44-64.39-74.8-54.24-349.83,117.7-2207.44,20.49-2487-86.25-1.27-.41-1.2-.43-3.35-1.05a53.11,53.11,0,0,0-26.59,17.37c-10.77,12.91-16,30.35-16,53.28V2225.14c0,43.78,20.62,64.51,42.6,70.64.66-.18,2-.61,3.36-1,353.9-118,2199.41-200,2484.62-94.82l6.36,3.17h4.62C3662.42,2208.06,3696.45,2188.32,3696.85,2131.27Z"></path>
    <path fill="#3c6eb6" d="M3724.92,384.2V2225.14c0,43.81-20.64,64.52-42.62,70.64a55.07,55.07,0,0,1-14.8,2,55.82,55.82,0,0,1-17.08-2.65l-1.24-.41-1.2-.5c-54.36-22.3-209.38-43.83-425.3-59-220.94-15.58-499.48-24.28-786-24.59h-16.09c-292.16,0-577,8.73-802.1,24.6-215.94,15.21-370.94,36.74-425.3,59l-1.21.5-1.23.41c-.58.19-1.3.41-2.12.64a57.17,57.17,0,0,1-15,2,53.08,53.08,0,0,1-41.42-19.38c-10.77-12.91-16-30.34-16-53.28V384.2c0-53.63,30.92-72.66,57.42-72.66a56.7,56.7,0,0,1,15,2c.82.23,1.53.45,2.12.64l1.23.4,1.2.5c54.36,22.3,209.36,43.83,425.3,59,225.09,15.87,509.94,24.6,802.1,24.6h16.09c286.41-.31,564.88-9,785.79-24.58,214.5-15.1,369-36.45,424.36-58.6l6.36-3.18h4.61a57.34,57.34,0,0,1,9.7-.83,54.88,54.88,0,0,1,13.69,1.72C3703.59,319,3724.92,339.67,3724.92,384.2Z"></path>
    <path fill="#cad6ed" d="M3688.58,384.2V2225.14c0,43.46-24.93,36.1-26.81,35.49-120.16-49.33-630.21-86.37-1241.18-86.37s-1121,37-1241.19,86.37c-1.26.41-12.87,3.85-20.39-7-3.71-5.34-6.42-14.13-6.42-28.48V384.2c0-43.46,24.93-36.1,26.81-35.48,120.16,49.32,630.21,86.37,1241.19,86.37,610.78,0,1120.7-37,1241.08-86.34l.09,0h0c1.35-.45,14.63-4.38,22,9.61C3686.61,363.8,3688.58,372,3688.58,384.2Z"></path>
    <path fill="#dde5f3" d="M3688.58,384.2V2225.14c0,43.46-24.93,36.1-26.81,35.49-120.16-49.33-630.21-86.37-1241.18-86.37s-1121,37-1241.19,86.37c-1.26.41-12.87,3.85-20.39-7C2908.16,1921.06,3619.49,494.52,3683.74,358.33,3686.61,363.8,3688.58,372,3688.58,384.2Z"></path>
    <ellipse cx="1757.21" cy="1828.64" fill="#7f9ad4" opacity=".45" rx="217.55" ry="267.43"></ellipse>
    <path fill="#dde5f3" d="M1904.44,1636.72c-1.39-1.37-3-1.18-4.43.24-.51.5-1,1-1.52,1.49-.31.3-.69.65-1.07.44-1.67-1-3.61-.72-5.23-1.68-3.09-1.83-6.43-2.43-9.7-3.41a25.43,25.43,0,0,1-4.58-1.89c-1.59-.82-3.05-2.08-4.84-2.34a36.64,36.64,0,0,0-6.89-.59h-5c-.58,0-1.27-.12-1.68.42-1.46,1.9-3.46,1.55-5.26,2-.5.12-1,0-1.49.42-2.62,2.56-5.38,4.93-7.53,8.16a8,8,0,0,1-.85,1,28.16,28.16,0,0,0-4.49,5.6,8.12,8.12,0,0,1-1.82,2.15,17.19,17.19,0,0,1-4.58,3.11c-1.45.58-2.42,2.14-3.83,2.78-3.18,1.44-3.06,1.32-2.86,6.08a19.12,19.12,0,0,0,.67,3.23c.16.69.35,1.38.46,2.08.31,2,1.36,3.25,3,3.37a4.55,4.55,0,0,0,3.66-1.3c.46-.43.9-.92,1.37-1.34a1.22,1.22,0,0,1,1.92,0c1.77,1.59,2.88,3.86,4.21,5.89a1.68,1.68,0,0,1-.46,2.42,18.44,18.44,0,0,0-1.61,1.34,1.58,1.58,0,0,0-.27,1.54c.15.63.55,1,1,.88,1.76-.43,3.65-.4,5.21-1.68a3.67,3.67,0,0,1,2.5-1.13c1,.06,1.4-.69,1.63-1.68a19.74,19.74,0,0,0,.77-4.67c0-1.18.3-2,1.3-2.34a3.83,3.83,0,0,0,1.2-.77c2-1.76,2.1-3.47.35-5.51-.24-.27-.49-.53-.74-.78-2-2-1.75-4.82.51-6.32l1.71-1.15a8.89,8.89,0,0,0,3.78-4.62,3.11,3.11,0,0,1,2.74-2.33,21.38,21.38,0,0,1,2.53.07.82.82,0,0,1,.83.5c.24.6-.19.85-.47,1.14a22.44,22.44,0,0,1-4,3.84,4.51,4.51,0,0,0-2.29,4.77c.42,3.45,1.45,6.25,4.47,7.24a2,2,0,0,1,.37.13,3.24,3.24,0,0,1,1.73,3.14c-.12,1.75-.67,2.76-2.08,3-1.87.3-2.72,1.6-3,3.7-.08.54-.16,1.09-.26,1.64-.58,3.1-2,4.71-4.3,4.39a8.39,8.39,0,0,0-1.93.21c-2.25.22-4.21,1.58-6.33,2.29-.58.2-1.09.51-1.55-.27-1.24-2.09-2.76-2.07-4.46-.88a1.63,1.63,0,0,1-2,.15c-1.7-1-2.18-1.91-1.59-4.17a12.34,12.34,0,0,0,.22-4.48c-.08-.85-.47-1.49-1.29-1.44-1.25.09-2.84,1.82-3.27,3.34a15.1,15.1,0,0,0-.4,5.6,2.35,2.35,0,0,1-1.23,2.64c-1,.49-1.87,1.15-2.84,1.57a7.5,7.5,0,0,0-3.7,3.39c-1.13,2.16-2.91,3.1-4.54,4.34a4.21,4.21,0,0,0-1.88,2.24c-.55,1.84-2.23,1.74-3.28,2.73-.59.55-1.23,0-1.84-.24-.9-.36-1.95-.51-2.46.64a3.21,3.21,0,0,1-3.45,2,6.3,6.3,0,0,0-2.69.52,1,1,0,0,0-.75,1c0,.86,1.08,2.7,1.84,2.76,2.62.19,3.93,2.51,5.26,4.77a5.62,5.62,0,0,1,.54,4.77,12.38,12.38,0,0,0-.49,2.55c-.23,2.1-.57,2.4-2.25,2.38a7.82,7.82,0,0,1-1.37-.08c-3.45-.67-7-.56-10.42-.9a1.37,1.37,0,0,0-1.12.29c-1.28,1.12-3.12,1.72-2.31,4.58.3,1.06-.47,2.35-.18,3.53a7.68,7.68,0,0,1-.33,4,33.77,33.77,0,0,1-1.29,3.22c-.21.56-.64,1.28-.22,1.78,1.09,1.3.87,2.92.89,4.49,0,1.22.52,1.72,1.46,1.72a4.49,4.49,0,0,0,1,0,4.42,4.42,0,0,1,4.29,1.63,2.94,2.94,0,0,0,3.62.89,4.42,4.42,0,0,1,3-.66c2.68.4,4.42-1.73,6.06-3.62.8-.92,1.15-2.58,2-3.74a1.54,1.54,0,0,0,0-1.14,2.52,2.52,0,0,1,.48-2.59,28.76,28.76,0,0,0,1.49-2.52,2.79,2.79,0,0,1,2.12-1.79c1.4-.26,2.36-1.62,3.37-2.72.71-.78.42-1.94.47-3,.1-1.86,1.1-3,2.76-2.81a21.16,21.16,0,0,1,2.84.73c.63.15,1.34.68,1.89.23,1.28-1.07,2.74-1.71,4-2.72,1.58-1.26,1.76-1.39,3.15,0a5.08,5.08,0,0,1,1.17,1.89,9.53,9.53,0,0,0,2.14,3.36,22.43,22.43,0,0,0,6.27,5.14c1.73.89,2.9,2.67,4.07,4.35a2.84,2.84,0,0,1-1.34,4.19,13.39,13.39,0,0,1-4.83.4c-.54,0-1.1.1-1.28.81a1.34,1.34,0,0,0,.73,1.5c1.41,1,2.92,1.72,4.32,2.76.89.66,1.74.06,1.74-1.27a2.45,2.45,0,0,1,1.7-2.72c1.38-.49,1.64-2.08,2.2-3.4a3.14,3.14,0,0,0-.19-2.68c-.42-1,.07-1.65,1-1.6.65,0,1,.65,1.56.92.69.36,1.12,0,1.15-1a2.54,2.54,0,0,0-1.12-2.11c-1.38-1.19-2.83-2.25-4.2-3.45a6.16,6.16,0,0,0-2-1.26,5.07,5.07,0,0,1-3.3-3.06,7.28,7.28,0,0,0-2-3.14,4.25,4.25,0,0,1-.79-1.06,3.32,3.32,0,0,1,.22-3.12c.64-.69,1.46-1,2.13-.33,1.22,1.27,2.74,2.12,3.61,4a4.34,4.34,0,0,0,2.81,2.37,3.47,3.47,0,0,1,2,1.41,5.34,5.34,0,0,0,1.39,1.3c2.19,1.4,3.1,3.71,3.15,6.65a3.54,3.54,0,0,0,.3,2.07c1.47,2.13,2.1,5,3.82,6.89a3.64,3.64,0,0,1,.88,2.34c0,2.38,1.35,2.85,2.78,3.25,1.15.33,1.49.08,1.9-1.28.9-3,1.85-5.94.61-9.13a1.78,1.78,0,0,1-.07-.47c-.12-1.41,1-3.62,1.9-3.77a3.23,3.23,0,0,1,3.51,3.11,27.49,27.49,0,0,1,.06,2.87,10.33,10.33,0,0,0,1.32,5.42c.75,1.37,1.72,2.56,3.31,2.49a6.62,6.62,0,0,1,3.52,1.25c.94.54,1.71.76,2.49-.15a1.43,1.43,0,0,1,1.79-.34,14,14,0,0,1,2.74,1.18,3,3,0,0,0,3.85-.2,3.88,3.88,0,0,1,1.4-.8,2.28,2.28,0,0,1,2.87,2c.15,1.81.44,3.75-.11,5.46a34.94,34.94,0,0,0-1.27,5,20.35,20.35,0,0,1-1,4.1,7.74,7.74,0,0,0-.29,4.85,61.07,61.07,0,0,0,2,6,40.78,40.78,0,0,0,4.38,9.25,14.73,14.73,0,0,1,1.9,4.16,4,4,0,0,0,1.26,2.06,11,11,0,0,1,2.65,4.06,19.93,19.93,0,0,1,1.14,5.05c.39,2.28,1.11,4.22,2.91,5.36a4.15,4.15,0,0,1,1.3,1.42,44.92,44.92,0,0,1,4.31,9.76c1.07,3.78,2.72,7.19,3.83,10.92a5,5,0,0,0,2.42,3c1,.58,1.71-.29,2.48-.85a3.32,3.32,0,0,1,.55-.22,61.7,61.7,0,0,0,10.31-5.44,5.91,5.91,0,0,1,2-.72,4.8,4.8,0,0,0,3.42-2.86,5.07,5.07,0,0,1,1.94-2.3,51.78,51.78,0,0,0,6.4-4.33c2.31-2,4.72-3.64,5.33-7.41a6.67,6.67,0,0,1,.89-2.11,22.54,22.54,0,0,0,2.41-5.71,2.68,2.68,0,0,0-.17-2.25c-.73-1.11-1.43-2.27-2.18-3.36-.56-.82-1.24-1.48-2.18-1.31-1.16.22-1.82-.52-2.38-1.62-.27-.54-.63-1-.92-1.54-1.61-2.94-3.33-3.08-5-.33a3.84,3.84,0,0,1-2,1.86,10.28,10.28,0,0,1-4.65.08c-.55-.08-1-.5-.79-1.33.78-3.86-1-6-3.46-7.57a13,13,0,0,1-5.37-7.5c-.57-1.93.74-3.65,2.38-3.37,2.3.39,3.18,2.5,3.85,4.8.31,1.07.47,2.35,1.33,2.8,2.31,1.22,4.13,3.5,6.68,4.31,1.32.41,2.45.78,3.72.11a14.68,14.68,0,0,0,1.42-.73c1-.66,1.29-.49,1.83.74a6.86,6.86,0,0,1,.36,1.11,2.9,2.9,0,0,0,2.36,2.46c1.67.33,3.3.87,5,1.23a20.86,20.86,0,0,0,10.41.18,13,13,0,0,1,2.23-.4c-8.16-55.74-30.37-105.47-62-143.48l-.76.22A3.82,3.82,0,0,1,1904.44,1636.72Z"></path>
    <path fill="#dde5f3" d="M1938.33 1826.7c-1.58 1.19-3.37 1.09-5 1.63-2.75.87-5.37 2.26-8.19 2.83a3.8 3.8 0 0 1-4.51-3.57 7.49 7.49 0 0 0-1.83-4.55 44.71 44.71 0 0 1-2.83-3.94 5 5 0 0 0-2.49-2.4c-2.34-.94-3.71-2.93-3.86-6.16a9.22 9.22 0 0 0-1.86-5.16 15.7 15.7 0 0 1-3.31-8.64 12.58 12.58 0 0 0-2.22-6.52 22.42 22.42 0 0 1-3.69-7.22c-.29-1.06-.8-2-1.09-3.06-.81-2.83-2.89-5-2.59-8.49.17-2-.82-4.13-1.13-6.24-.48-3.23-2.48-4.76-4.51-6.17-1.64-1.14-3.29-.5-4.72.83a2.08 2.08 0 0 1-2.88.33 8 8 0 0 0-2.42-.85c-2.51-.72-5.1-1.09-7.48-2.49-1.09-.64-2.25-.91-3.27-1.92a3.71 3.71 0 0 0-3.74-.74 8.41 8.41 0 0 1-1.5.46c-1.26.1-1.83 1.38-2.54 2.38s-.26 1.75 0 2.69c.4 1.5-.22 2.46-1.51 2.58a2.35 2.35 0 0 1-1.94-.92 5.9 5.9 0 0 0-4.27-2 2.4 2.4 0 0 1-2.49-2.16 3.66 3.66 0 0 0-3.39-3 6.62 6.62 0 0 0-2.13 0c-1.74.26-3.2-.64-4.58-1.67s-1.81-2.93-1-4.85a4.89 4.89 0 0 0 .47-2.28 18.79 18.79 0 0 1 .1-3.82 2.23 2.23 0 0 0-1.46-2.68 4.17 4.17 0 0 0-3.07.16 4.38 4.38 0 0 1-2.44.43c-1.85 0-3.78-.63-5.49.86a1 1 0 0 1-1.3 0 4.46 4.46 0 0 0-3.42-.19c-2.16.48-4.27 1.32-6.52 1.16a3.38 3.38 0 0 0-2.88 1.75 3.06 3.06 0 0 1-1.22 1.1 21.53 21.53 0 0 1-7.18 1.86 3.61 3.61 0 0 1-3.48-1c-.9-.93-2.15-.34-2.8 1a13.91 13.91 0 0 0-1.18 2.46 5.45 5.45 0 0 1-2.49 3.14 13.34 13.34 0 0 0-5.64 8.34 17.6 17.6 0 0 1-2.53 6.13c-1.34 2-2.5 4.29-4.78 5a2.73 2.73 0 0 0-1.62 1.9c-.41 1.15-.88 2.64-1.67 3.14-1.63 1-2.09 2.67-2.47 4.55a8.11 8.11 0 0 1-.63 1.75c-1.23 2.69-2.77 5.12-3.86 8a12.15 12.15 0 0 0-.59 8.62c1 3.08 1.81 6.29.82 9.68a9.79 9.79 0 0 0-.23 1.65 5.65 5.65 0 0 1-1.34 3.08 7.3 7.3 0 0 0-1.65 4.93 20.1 20.1 0 0 0 2.88 9.72c.49.9 1.37 1.15 2 1.83 1.14 1.22 1.84 2.89 2.94 4.12a6.59 6.59 0 0 1 1.58 3 18.06 18.06 0 0 0 6.61 10.52 41.93 41.93 0 0 1 5.31 4.79c1.69 1.81 3.48 2.32 5.52.89a7.07 7.07 0 0 1 1.64-.79c2.09-.78 4.11-1.53 6.42-.64 1.44.56 3 1.34 4.72.41 2.06-1.13 4.22-2.09 6.24-3.27a11.72 11.72 0 0 1 6.17-1.62c2.53 0 4 1.29 4.82 4.21.78 2.75 1.34 3.16 3.75 2.68a6.36 6.36 0 0 1 5.07.94c2 1.41 2.35 2.31 2 5.23-.2 1.5-.88 2.87-.81 4.41a15.65 15.65 0 0 1-.88 5.83 3.34 3.34 0 0 0-.19 2.31 17.7 17.7 0 0 0 1.47 3.63c1.37 2 2.63 4.15 4 6.16a11.85 11.85 0 0 1 2.22 5.71 10.74 10.74 0 0 0 1.26 4 8.9 8.9 0 0 1 1.08 4.53 21.37 21.37 0 0 0 1.36 8.12c1.07 3.06.9 5.91-1.18 8.32a6.91 6.91 0 0 0-1.53 3.77c-.29 2.36-1 4.6-1.51 6.9a45.54 45.54 0 0 0-.58 6.85 4 4 0 0 0 .71 2.2 28.69 28.69 0 0 1 2 4.91c.79 2.26 1.35 4.7 2.79 6.53a8.05 8.05 0 0 1 1.44 5.72 13.42 13.42 0 0 0 .15 4.52 20.63 20.63 0 0 1 .64 4.7c.11 2.52.49 5.23 1.91 6.9a20 20 0 0 1 4.36 10.29.62.62 0 0 0 .07.23 10.2 10.2 0 0 1 .68 5.18c-.46 1.63.69 3.46.93 5.48a1.21 1.21 0 0 0 .37.8c1.32.8 2.54 2 4.14 1.73 2.49-.47 5-.38 7.43-1.6a1.85 1.85 0 0 1 1-.19 17.62 17.62 0 0 0 7.19-1.67 12.52 12.52 0 0 0 5.82-4.89 14.8 14.8 0 0 1 1.86-2.44 12.08 12.08 0 0 0 2.71-4.31 13 13 0 0 1 2.67-4.38 10.45 10.45 0 0 0 2.55-4.94 16.82 16.82 0 0 0 .61-2.52 8.24 8.24 0 0 1 4-6.56 4.5 4.5 0 0 0 2-2.52c.93-3.17 1.63-6.39.6-9.77a14 14 0 0 1-.41-1.84 7.31 7.31 0 0 1 2.23-6.91 10.48 10.48 0 0 0 2-2.55 5.47 5.47 0 0 1 2.25-2.18 15 15 0 0 0 5.8-5.11 11.25 11.25 0 0 0 2.08-7.68 26.6 26.6 0 0 1 .16-6.66c.37-2.49.4-5-1-7.31a9.81 9.81 0 0 1-1.61-5.29 43.36 43.36 0 0 0-.84-9.47 5.09 5.09 0 0 1 .55-3.64 11.33 11.33 0 0 0 1-2.32c1.06-3.1 2.15-6.15 4.44-8.25a6.83 6.83 0 0 0 1-1.46c1.2-2 2.3-4.07 3.59-6 1.16-1.7 2.27-3.6 3.94-4.57 4-2.33 6.47-6.39 8.43-10.9 2.19-5.06 4-10.37 5.94-15.59.18-.49.17-1.09.31-1.62.57-2.18-.14-4.44.29-6.65C1940 1827.34 1939 1826.23 1938.33 1826.7ZM1547.26 1778.93a3 3 0 0 0 1.12 2.83 13.17 13.17 0 0 1 3.52 5.33 31.8 31.8 0 0 0 1.7 3.75 6.37 6.37 0 0 1 .3 5.45c-1 2.89-.2 5.69 2.14 7.09.23.14.53.24.66.47a7.07 7.07 0 0 0 4.29 3.46 1.85 1.85 0 0 1 .77.71 8.41 8.41 0 0 0 3.22 2.61c2.46 1.25 4.94 2.46 7.42 3.65a4.11 4.11 0 0 0 3.43.11c.62-.25 1.27-.38 1.87-.67a2.12 2.12 0 0 1 2.4.47 6.51 6.51 0 0 1 1.59 1.74c2.91 5.2 7.32 7 12.08 8a3.87 3.87 0 0 1 2.68 2.19 13.9 13.9 0 0 1 1.57 4.57c.28 2.53 1.21 4.42 3.34 5.36a5.12 5.12 0 0 1 2.9 3 2.85 2.85 0 0 0 2.47 2 4 4 0 0 1 3.2 1.94c.57.89 1.43.66 2.18.43s.79-1 .75-1.74a3 3 0 0 1 .39-1.79 2.25 2.25 0 0 0 .12-2.25c-.43-.73-1.23-.56-1.81-.36-1.64.58-2.92-.09-4.11-1.37-.39-.43-.76-.87-1.17-1.26a5.79 5.79 0 0 1-1.41-6c.89-2.94.66-6.19 1.94-9a7.15 7.15 0 0 0 .11-3.07 1.69 1.69 0 0 0-.62-1.15 6.85 6.85 0 0 0-6.55-2.09 12.28 12.28 0 0 1-2.71 0c-.76 0-1.18-.49-1.41-1.35a6.11 6.11 0 0 1 .53-4.76 25.75 25.75 0 0 0 2.12-5.09c.69-2.09.44-4.54 1.9-6.38.64-.8 0-1.9-1.07-2.16-2.59-.64-5 .21-7.37 1.31a2.12 2.12 0 0 0-1.21 2 17.48 17.48 0 0 1-1.24 4.76c-.71 1.91-1.49 2.55-3.2 2.35a12.65 12.65 0 0 0-4.07.12c-2.44.5-4.86-1.59-6-4.33-1.36-3.12-1.16-6.44-1.37-9.74a9.76 9.76 0 0 1 .14-1.41 29.59 29.59 0 0 1 2.15-8.15 10.28 10.28 0 0 0 .81-4.13 4.7 4.7 0 0 1 1.48-4 20.92 20.92 0 0 1 3.9-3.1 20.47 20.47 0 0 0 4-2.48 3.24 3.24 0 0 1 3.68-.43c2.26 1 4.7.94 7 1.37.63.11.9-.4 1.21-.95a4.11 4.11 0 0 1 2.24-2.18c1.2-.33 2.39-.72 3.6-1a2.28 2.28 0 0 1 2.86 1.41 1.62 1.62 0 0 0 2.06 1.17c2.23-.37 3.41 1.14 3.12 3.89a10.28 10.28 0 0 0 .11 3.08 22.21 22.21 0 0 0 2.36 7c.87 1.55 1.45 1.77 2.57.5a7.93 7.93 0 0 0 1.9-5.07 30.42 30.42 0 0 0-1-7.29c-.94-4.78.18-8.72 3.31-11.62a50.75 50.75 0 0 1 8.19-6.34c1.65-1 3.29-1.8 4.33-4a17.58 17.58 0 0 0 1.76-4.17 15.33 15.33 0 0 1 2.65-6c1.46-2.12 3-4.18 4.52-6.24 1.69-2.28 3.56-3.86 6.06-4.24a11.54 11.54 0 0 0 3.3-1.41 1.89 1.89 0 0 0 1.07-2 3.84 3.84 0 0 1 1.22-3.08c1.11-1.3 2.68-1.67 3.81-2.67 1.55-1.37 3.06-1 4.62-1.07.81 0 1.39.4 1.74 1.51.46 1.43 1.34 1.59 2.3.6.6-.62 1.11-1.35 1.67-2 .42-.51.85-1.11 1.48-1 1.93.23 3.61-1.23 5.52-1.14a3.33 3.33 0 0 0 1.32-.35 1.65 1.65 0 0 0 .5-2.63 1.88 1.88 0 0 0-1.21-.69 21.25 21.25 0 0 1-2.1-.47c-2-.5-2.85-2.07-2.35-4.51a5.78 5.78 0 0 1 1.33-2.88 4.22 4.22 0 0 0 1.13-4 1.41 1.41 0 0 1 .89-1.8 7 7 0 0 1 4.6-.61 9.57 9.57 0 0 0 5.55-.32c1-.41 1.73.79 1.29 2a6.86 6.86 0 0 1-1.54 2.45 7.67 7.67 0 0 0-1.53 3.27c-.28 1-.19 1.49.72 1.69a7.22 7.22 0 0 0 3.66.18 3.82 3.82 0 0 1 3.76.55 8.62 8.62 0 0 0 3.68 1.44c1.79.48 3.07-1.5 2.41-3.65a5.57 5.57 0 0 1 0-3.92c.81-2 .78-2.06-.87-2.86-1.39-.68-1.67-1.48-1.59-3.27.11-2.44 1.2-4.51 1.46-6.9.15-1.44.08-2.49-.9-3.34a1.69 1.69 0 0 1-.81-1.51 1.86 1.86 0 0 0-1.53-2.1c-2.18-.67-2.75-2.66-2.83-5.06 0-1.43 0-2.87 0-4.31a12 12 0 0 0-1.93-6.62c-1-1.47-1.32-1.55-2.55-.39a55.18 55.18 0 0 1-4.82 4 2.31 2.31 0 0 1-3.25-.25c-.83-.88-.92-1.8-.34-3.48.13-.37.29-.71.42-1.08.53-1.46.47-2.1-.58-2.8a10.93 10.93 0 0 1-2.33-2.46c-.7-.9-1.44-1.94-2.52-2.11a43.18 43.18 0 0 0-6.2-.57 2.53 2.53 0 0 0-2 .87c-1.31 1.52-1.81 3.69-2.76 5.5a4.54 4.54 0 0 1-3 5.1 2.81 2.81 0 0 0-.55.27c-1 .71-1.1 1.32-.4 2.47 1.15 1.9 1.16 2.44.15 4.45A9.45 9.45 0 0 1 1656 1676c-1.73 1.35-3.74 1.79-5.53 2.92a2.34 2.34 0 0 0-1.39 2.31c.1 2-1 3.58-1 5.56a2.31 2.31 0 0 1-1.24 1.74c-.51.34-1 .66-1.56 1-1.31.78-2 .51-2.61-1.12a4.66 4.66 0 0 1 .12-3.88c.82-1.53 1.25-3.33 2.27-4.73a.89.89 0 0 0-.35-1.48 8.1 8.1 0 0 0-3.24-.73 8.12 8.12 0 0 1-5.92-3.22 10.11 10.11 0 0 0-4.81-3.3 2.35 2.35 0 0 1-1.69-2.25 7.24 7.24 0 0 0-.57-2.76c-.75-1.24-.29-2.23.37-3.21a17.64 17.64 0 0 1 2.87-2.86c2.65-2.52 5.53-4.47 8.92-5a7.26 7.26 0 0 0 4.21-2.75 4 4 0 0 1 2.8-1.45 5.27 5.27 0 0 1 4.68 1.81 1.3 1.3 0 0 0 1.94.23l2.94-1.87a1.53 1.53 0 0 1 2 .08 2.87 2.87 0 0 0 2 .8 1.38 1.38 0 0 0 .87-2.4 4.72 4.72 0 0 1-1.26-2.61c-.42-1.9-.14-2.55 1.45-2.67a4.69 4.69 0 0 0 2.84-1.36c1.44-1.3 3.16-2.19 4-4.4a5.58 5.58 0 0 1 1.08-1.36 8 8 0 0 0 1.34-2 2.43 2.43 0 0 1 2.9-1.76 14.09 14.09 0 0 0 2.9.12 3.77 3.77 0 0 1 3.6 1.88 5.75 5.75 0 0 0 2 2.14c1.25.79 1.32 1.8.26 3a11.39 11.39 0 0 1-2.71 2.31c-.58.34-1.26.65-1.45 1.5-.33 1.49-1.29 1.64-2.27 1.79a6.24 6.24 0 0 1-3.25-.54c-1.7-.65-3.49.49-4 2.5-.24.85-.06 1.41.74 1.5 2.12.24 4.24.86 6.38.23a1.5 1.5 0 0 1 1.84.91 7.16 7.16 0 0 1 .8 1.91 3.84 3.84 0 0 0 2.39 2.87c1.28.58 2.56 1.16 3.83 1.78a2.57 2.57 0 0 0 3.24-.54 48.26 48.26 0 0 1 3.56-3.31c1.67-1.27 2-3.25 1.06-5.41-.3-.71-.61-1.41-.87-2.14-.19-.53-.28-1.13.2-1.5s.86-.09 1.26.26a22 22 0 0 1 1.79 2.52c1 1.25 1.94 1.33 3.09.24.87-.83 1.73-1.68 2.58-2.54 1.22-1.21 1.36-1.91.82-3.74a3.78 3.78 0 0 0-1.56-2.33 5.5 5.5 0 0 1-2.86-5.64 3.67 3.67 0 0 0-1.21-3.08 8.63 8.63 0 0 0-4.39-2.42 4.92 4.92 0 0 1-3.68-3.81 2.78 2.78 0 0 0-2.1-2.17 18.55 18.55 0 0 0-7.94-.36 41.24 41.24 0 0 1-5.41.44 32.59 32.59 0 0 0-3.7 0 5.73 5.73 0 0 0-3.53 1.14c-1.25 1.15-2.5 2.3-3.69 3.54-1.52 1.57-1.66 2.29-1 4.59a2.2 2.2 0 0 1 .18 1.59 2.84 2.84 0 0 1-2.29 2c-1 .1-2 .1-2.57-1.17a14.05 14.05 0 0 1-1.25-4.49c-.15-1.46-1-2.38-1.93-2.08a12 12 0 0 0-4.49 2.19c-1.43 1.29-2.94 2.57-2.23 5.43.41 1.63 0 1.91-1.2 2.81-.92.7-1.77.35-2.62.12a6.09 6.09 0 0 0-4.21 0 6.81 6.81 0 0 1-3 .66 17.79 17.79 0 0 0-3.48.3 4 4 0 0 1-4.49-1.5 3.1 3.1 0 0 0-3.25-1.13c-2 .49-4.11.71-6.11 1.39-3.13 1.07-6.26 1.64-9.06-1.23a2.64 2.64 0 0 0-2-.76c-30.85 36.14-53.05 83.31-62.47 136.37 1.12 1.93 1.36 4.44 2.5 6.38A2.32 2.32 0 0 1 1547.26 1778.93ZM1545.56 1787.85a3.37 3.37 0 0 0-.5-2.9 13 13 0 0 1-1.51-3.77c-.12-.41-.2-.84-.28-1.27q-.49 3.33-.93 6.69c.43.57.84 1.17 1.26 1.77C1544.26 1789.33 1545.22 1789.05 1545.56 1787.85Z"></path>
    <path fill="#dde5f3" d="M1722 1885.84a6.64 6.64 0 0 1-4.45-3.14 11.07 11.07 0 0 0-1.53-1.85c-1.6-1.51-3.24-3-5.48-2.37-2.92.62-5.41-1.16-7.69-2.79-3.79-2.72-7.91-4.4-11.87-6.55a5.94 5.94 0 0 1-3.18-4.38 5.6 5.6 0 0 0-.6-2.24 12.25 12.25 0 0 1-1.91-5.41c-.23-1.38-.49-2.94-1.55-3.75a13.92 13.92 0 0 1-2.72-3 2.19 2.19 0 0 0-1.09-1c-2.13-.62-4.14-1.81-6.44-1.56-3.06.35-5.18-1.64-6.65-4.71-.86-1.79-1.86-3.24-3.53-3.86a3.63 3.63 0 0 1-2-2.76c-.24-.9.27-1.69.42-2.53s.46-2-.5-2.5-1.82-1.07-2.81-.7a9.57 9.57 0 0 1-3.47.42 3 3 0 0 0-2.35.87 2.58 2.58 0 0 1-3.64.33 6.22 6.22 0 0 0-3.13-1.11 5.61 5.61 0 0 1-3.2-1.61 26 26 0 0 0-4.41-2.93 10.35 10.35 0 0 0-3.77-.93 1.32 1.32 0 0 0-1.41.56 8 8 0 0 1-4.77 2.87 5.82 5.82 0 0 0-4.69 4.92 4.2 4.2 0 0 1-4.76 3.31 6.11 6.11 0 0 0-2.13-.09.69.69 0 0 0-.72.66c0 1-.51 2.11.53 2.74a1.17 1.17 0 0 1 .54 1.15 4.74 4.74 0 0 0 .75 2.43 13.28 13.28 0 0 1 1.23 7.58c-.21 2.29-.37 4.56-1.47 6.61a23.69 23.69 0 0 1-2.32 2.86c-.88 1.19-1.32 2.83-2.37 3.75-2 1.74-2.58 4.36-3.06 7a8.6 8.6 0 0 0 .32 5.17 5.22 5.22 0 0 1-.65 6 3.74 3.74 0 0 0-.85 2.59c.21 2.91.68 5.67 2.86 7.5 1.87 1.57 2.75 4 3.32 6.55a8.88 8.88 0 0 0 1.62 3.75 27.58 27.58 0 0 1 3.92 7.11c.89 2.17 1.93 4.27 2.68 6.57.86 2.63 2.81 4.51 4.43 6.56.13.15.36.17.54.26 1.38.71 2.78 1.36 4.13 2.13a23.08 23.08 0 0 1 6.55 6.28 6.22 6.22 0 0 1 .77 2.17c1 3.79.83 7.74 1 11.61.23 5.57.37 11.14.85 16.69a10.94 10.94 0 0 1-.06 2.86 27.9 27.9 0 0 0 0 7.36c.24 3 1.25 5.66 1.65 8.57a28.66 28.66 0 0 1 .05 9c-.43 2.39-.5 4.88-.71 7.33a3.26 3.26 0 0 0 .17 1.64c1.32 3 1.74 6.3 2.23 9.6a14.83 14.83 0 0 0 2.29 6.46c2.24 3.18 3.15 7.08 3.47 11.21a8.35 8.35 0 0 0 .9 3.37 10.49 10.49 0 0 1 1.07 3.8 16.15 16.15 0 0 0 1.91 6.93c.23.36.31.87.51 1.27 1.57 3.18 2.59 6.8 4.83 9.45 1.47 1.75 3 3.26 5.32 2.17 1.72-.79 4.14.84 4.6 3.1a2.09 2.09 0 0 0 2.07 2 7 7 0 0 1 2.5.39 9.5 9.5 0 0 0 4.61.67c.78 0 1.49-.13 1.62-1.23s-.57-1.53-1.18-2a1.25 1.25 0 0 0-.76-.18 4.86 4.86 0 0 1-2.78-1c-1.74-1.2-3.65-2.28-4.46-4.74a8.79 8.79 0 0 0-2-3.38c-2.34-2.57-1.93-3.49-1-5.76a2.14 2.14 0 0 0 .25-.89c-.17-1.78.81-2.73 1.68-3.83 1.57-2 1.22-4.09-.84-5.33a4.45 4.45 0 0 1-1.38-5.76 5.53 5.53 0 0 0 .77-4.26 2.44 2.44 0 0 1 .56-2.18 7.27 7.27 0 0 0 1.35-3.63 9.41 9.41 0 0 1 1.27-3.71 9.39 9.39 0 0 0 1.3-3.69 4.3 4.3 0 0 1 2.43-3.46c.47-.25 1-.37 1.47-.6 2.28-1 4.27-2.38 4.38-5.87a3.69 3.69 0 0 1 .23-.91c.75-2.55 1.49-5.06 3.42-6.77a8.88 8.88 0 0 0 2.4-3.41c.78-2 1.49-4.08 2.18-6.14.63-1.91 1-4 2.51-5.26s1.16-3.86 2.42-5.32c.28-.33.54-.69.84-1a3.78 3.78 0 0 0 1-2.73 15.15 15.15 0 0 0-.29-3.79c-1.2-5-.51-7 3.14-9.75a7.7 7.7 0 0 1 2-1 5.53 5.53 0 0 0 1.78-.93 7.44 7.44 0 0 1 4.71-1.92c1.52-.07 3.32 0 4-2.51.06-.25.37-.44.59-.6a2.53 2.53 0 0 0 1-2.43 6.08 6.08 0 0 1 .9-3.56 8.72 8.72 0 0 0 1.42-4.63 7.86 7.86 0 0 1 .88-4.75 3.72 3.72 0 0 0 .25-1.86 11.63 11.63 0 0 1 .11-2.38 10 10 0 0 0-.15-4.9c-.63-2.73-.75-5.6.84-8 2.18-3.26 3.43-7.31 5.93-10.28a2.55 2.55 0 0 0 .36-.56 19.36 19.36 0 0 0 1.56-14C1724.72 1887.39 1723.78 1886.11 1722 1885.84ZM1776.78 1633.5c3-.75 4-2.72 3.25-6.41-.43-2.24-.07-2.94 1.65-3.73a11.57 11.57 0 0 0 6.7-7.66 4.14 4.14 0 0 1 .66-1.7 4.93 4.93 0 0 0 1-3.71 2.48 2.48 0 0 1 1.1-2.58c2.11-1 4-2.63 6.29-3.12a13.89 13.89 0 0 0 5.22-1.74c.36-.25.69-.49.6-1.08s-.42-.58-.72-.69a8.82 8.82 0 0 0-3.68-.29 15.8 15.8 0 0 1-6.93-.82 51.73 51.73 0 0 0-7.55-2.17 27.93 27.93 0 0 0-12.57-.13 14 14 0 0 1-5 .46 22.51 22.51 0 0 0-7.18.17 68.88 68.88 0 0 1-12.35 1.64c-1.1 0-2.18.58-3.29.32-4.18-1-8.21 1.21-12.36.86a1.39 1.39 0 0 0-.75.22 12.65 12.65 0 0 1-4.13 1.26c-2.4.31-4.58 1.74-7 1.87a1.58 1.58 0 0 0-1.67 1c-.35 1.09-1.16 1.23-1.86 1.53-2.11.89-4.34.79-6.52 1.11a30.05 30.05 0 0 0-3.82.86c-.87.25-1.13.89-1.14 1.89a5.22 5.22 0 0 0 2.6 4.36 5.81 5.81 0 0 0 4 .49c2.82-.73 5.54-.08 8.29.51 2.22.48 3.65 2.5 3.79 5.27a7.78 7.78 0 0 1-.72 3.9 4.39 4.39 0 0 0 0 4.08 29.21 29.21 0 0 0 1.77 3.7c1 1.5.71 2.32-.92 2.67-3.46.74-5.26 3.32-5.25 7.64-.22 1.79.55 3.62.39 5.56a13.6 13.6 0 0 0 .86 5.81c.42 1.15 1 2.26 1.43 3.38.69 1.63.9 1.79 2.46 1.36a3.07 3.07 0 0 1 3.5 1.37c2.25 3 3.51 1.92 4.89.13s2.8-3.09 3.6-5.28a3.26 3.26 0 0 1 1-1.44 10.76 10.76 0 0 0 3.19-4.4c1.09-2.44 2.64-3.9 5.1-4a28 28 0 0 0 4.21-.64 16.63 16.63 0 0 0 8.27-4.51c1-1 2-2 3.25-2 2.43-.06 4.72-1 7.1-1.4a14.78 14.78 0 0 0 5-1.93A17.19 17.19 0 0 1 1776.78 1633.5ZM1937 1916.44a20.44 20.44 0 0 0-1.4-4.7c-.43-1.11-1.08-1.18-1.63-.2a40.76 40.76 0 0 0-2.64 5.29c-1.4 3.76-3.31 6.61-6.83 7.4-.85.2-1.88.39-2.31 1.55-.66 1.79-1.75 3.46-1.48 5.58a33.66 33.66 0 0 0 .33 3.55c.7 3-.34 5.38-1.58 7.58a7.75 7.75 0 0 0-1.22 4.88 27.48 27.48 0 0 0 .77 6.58c.48 2.49 2.85 4.72 4.57 4.3a18.28 18.28 0 0 0 3.47-1.46 1.89 1.89 0 0 0 .84-.94 33 33 0 0 0 1.73-4.8c.78-3.8 2.05-7.38 3.14-11 .92-3.06 2.16-6 2.51-9.26a14.54 14.54 0 0 1 1.48-5.09 8.59 8.59 0 0 0 .72-6.17C1937.22 1918.5 1937.12 1917.46 1937 1916.44ZM1804.85 1678a10.22 10.22 0 0 0 2.84 2.44 3.29 3.29 0 0 1 1.46 2.88c0 1.27-1 1.17-1.78 1.34a2 2 0 0 0-1.63 2c0 .55-.19 1.08-.24 1.63a46.54 46.54 0 0 1-1.17 5.29c-.35 1.63.39 2.42 1.72 2a1.71 1.71 0 0 0 .53-.29c2-1.72 4.26-1.74 6.52-1.87a8.86 8.86 0 0 0 3.52-1.22 1.37 1.37 0 0 0 .85-1.2 3 3 0 0 1 1-2c1.32-1.67 1.22-2.81-.53-3.49a3 3 0 0 1-1.92-2.61 4.25 4.25 0 0 0-1.48-2.93 2.09 2.09 0 0 1-.63-.87c-.94-2.42-2.13-4.65-1.93-7.61a4.15 4.15 0 0 0-4.12-4.54c-1.28-.35-2.37.42-3.3 2.07a6.7 6.7 0 0 0-1.2 4.72A8.59 8.59 0 0 0 1804.85 1678ZM1787.9 1642.55c-1 .15-1.92.12-2.89.32-2.47.5-5 1.22-7.45.08-1.94-.89-3.37.07-4.76 1.55a1.22 1.22 0 0 0 0 2 6.11 6.11 0 0 1 1.6 2.9 2.47 2.47 0 0 0 2.1 2.1c1.67.18 3.37.15 5 1a1.39 1.39 0 0 0 .51 0 3 3 0 0 0 .81-.31 29 29 0 0 1 7.43-3.33 3.9 3.9 0 0 0 1.85-1.64 1.69 1.69 0 0 0 0-2.14C1790.92 1643.61 1789.77 1642.26 1787.9 1642.55ZM1617.67 1793.85a16.26 16.26 0 0 0 3.61 3.21 2.46 2.46 0 0 1 1 1.69c.31 1.66.62 2 1.81 1.57a3 3 0 0 1 3.1.64 2.23 2.23 0 0 0 2.94-.2c1.11-.86 1.15-1.64.08-2.51-.65-.53-1.39-.88-2-1.41-1.29-1.07-2.94-1.48-4-2.91a15 15 0 0 0-6.45-4.69c-1.47-.66-2.87-1.51-4.61-1.28-1.3-.31-2.54.58-3.88.85a5.77 5.77 0 0 0-3.15 2.21c-.47.57-1.28 1.29-.88 2.2.48 1.1 1.27.09 1.9 0 1.21-.22 2.23-1.38 3.5-1.31a35.39 35.39 0 0 1 6.45 1.47A1.35 1.35 0 0 1 1617.67 1793.85Z"></path>
    <path fill="#dde5f3" d="M1803.69 1678.56c-1.21-1-4.15-.82-5.3.33-.79.78-1.45 1.77-2.56 2-1.33.29-1.51.53-1.31 2.27a5.69 5.69 0 0 1-.71 3.83 2.31 2.31 0 0 0 0 2.6c.46.84.94 1.55 1.83 1.39a2.43 2.43 0 0 0 1.67-.68 6.3 6.3 0 0 1 3.77-1.73 1.33 1.33 0 0 0 1.18-1.06 7.35 7.35 0 0 0 .71-2.71 3 3 0 0 1 .94-2.42A2.61 2.61 0 0 0 1803.69 1678.56ZM1632.6 1803.8a23.34 23.34 0 0 0-2.49.5.89.89 0 0 0-.7 1 .79.79 0 0 0 .63.79c2.49.39 5 1.61 7.47 1 1.82-.44 3.65-.83 5.47-1.28.6-.14 1.19-.27 1.32-1.14s-.44-1.36-1-1.85c-1.48-1.31-3.42-1.36-4.87-2.79-.28-.27-.88-.11-1.33-.1s-1.15.08-1.37.09a4.89 4.89 0 0 0-1.14-.08c-.72.17-1.63-.77-2.16.25s.51 1.46.8 2.19S1633.42 1803.69 1632.6 1803.8Z"></path>
    <path fill="#b0c0e1" d="m2313 1556.67-228.07 6.78a14.86 14.86 0 0 0-14.44 14.56v47l-16 .36-54.8 1.21-12.59.27a7.34 7.34 0 0 0-6.28 3.6l-5 9.18-11.92 22q-7.22 13.33-14.42 26.67-6.24 11.52-12.47 23.06c-2 3.73-4.11 7.43-6.06 11.21l-.09.15c-1.81 3.35-.94 8.07 2.61 10 3.39 1.79 8 1 9.94-2.61l5-9.18 11.92-22q7.2-13.34 14.42-26.67 6.24-11.54 12.47-23.06c1.42-2.63 2.92-5.23 4.33-7.87l29.92-.66 49-1.08v32.74a14 14 0 0 0 14.44 13.89l228.07-3.65c8.37-.14 15.23-6.79 15.23-14.78v-97C2328.23 1562.76 2321.37 1556.43 2313 1556.67ZM2263.6 1977 2038 1973.34a13.93 13.93 0 0 0-14.29 13.82v32.53l-16-.35-54.28-1.2-7.93-.17-3-5.65-11.82-22-14.21-26.42-12.36-23c-2-3.71-3.9-7.52-6-11.17l-.08-.16a7.35 7.35 0 0 0-10-2.61 7.43 7.43 0 0 0-2.6 10l4.92 9.14 11.81 22 14.22 26.43 12.36 23c2 3.72 3.89 7.52 6 11.18a.8.8 0 0 1 .08.16 7.32 7.32 0 0 0 6.28 3.59l34.12.76 48.43 1.07V2081a14.74 14.74 0 0 0 14.29 14.48l225.65 6.7c8.29.25 15.07-6.06 15.07-14v-96.47C2278.67 1983.7 2271.89 1977.09 2263.6 1977ZM1396.08 1684.88q-1-2.64-2.08-5.29c-1.21-3.07-3.56-5.28-7-5.33l-31.31-.49v-20.94c0-4-2.63-7.62-5.9-8l-119.24-12.49c-5.58-.59-10.23 3.35-10.23 8.76v65.6a9.45 9.45 0 0 0 10.23 9.27l119.24-6.52c3.27-.18 5.9-3.63 5.9-7.67V1688.3l26.37.42q6.29 16 12.59 32 1 2.64 2.08 5.29a7.87 7.87 0 0 0 3.34 4.34 7.4 7.4 0 0 0 5.6.73c3.42-1.1 6.56-5.15 5.07-8.94Q1403.41 1703.54 1396.08 1684.88Z"></path>
    <path fill="#354d7f" d="M1869.44,1921.58l4.92,9.14,11.82,22,14.21,26.43,12.36,23c2,3.72,3.9,7.53,6,11.18l.08.16a7.31,7.31,0,0,0,6.28,3.6l34.12.75,54.28,1.2,12.31.27a7.33,7.33,0,0,0,7.27-7.27,7.41,7.41,0,0,0-7.27-7.27l-34.12-.75-54.28-1.2-12.31-.27,6.27,3.6-4.92-9.14-11.81-22-14.22-26.43-12.36-23c-2-3.72-3.89-7.53-6-11.18a.8.8,0,0,1-.08-.16,7.35,7.35,0,0,0-10-2.61,7.45,7.45,0,0,0-2.61,9.95Z"></path>
    <path fill="#5681bf" d="M2247.62,1961.57,2022,1958a14,14,0,0,0-14.3,13.83v93.78A14.74,14.74,0,0,0,2022,2080l225.65,6.7c8.28.25,15.07-6,15.07-14v-96.46C2262.69,1968.32,2255.9,1961.7,2247.62,1961.57Z"></path>
    <path fill="#354d7f" d="M1394.75,1706.8l-14.66-37.3-2.07-5.29c-1.21-3.07-3.56-5.28-7-5.34l-34-.53-4.82-.08c-3.81-.06-7.45,3.39-7.27,7.27a7.41,7.41,0,0,0,7.27,7.27l34,.53,4.82.08-7-5.34,14.65,37.3,2.08,5.29a7.91,7.91,0,0,0,3.34,4.34,7.41,7.41,0,0,0,5.6.74c3.43-1.11,6.57-5.16,5.08-8.94Z"></path>
    <path fill="#7b9ccd" d="M1214.56,1700.62l119.23-6.52c3.27-.18,5.91-3.63,5.91-7.67v-49c0-4-2.64-7.61-5.91-8L1214.56,1617c-5.58-.58-10.23,3.35-10.23,8.76v65.6A9.45,9.45,0,0,0,1214.56,1700.62Z"></path>
    <path fill="#354d7f" d="M1927.45,1714.72l5-9.18,11.92-22,14.43-26.67,12.47-23.06c2-3.73,4.19-7.4,6.06-11.21l.08-.16-6.27,3.6,34.38-.76,54.8-1.21,12.59-.27c3.8-.09,7.45-3.29,7.27-7.27s-3.2-7.36-7.27-7.27l-34.38.76-54.8,1.21-12.59.28a7.3,7.3,0,0,0-6.28,3.6l-5,9.18-11.92,22L1933.51,1673,1921,1696c-2,3.73-4.11,7.44-6.06,11.21l-.08.16c-1.81,3.34-.94,8.07,2.61,9.94,3.38,1.79,8,1,9.94-2.61Z"></path>
    <path fill="#fff" d="M2297,1667.14,2069,1670.8a14.06,14.06,0,0,1-14.44-13.9v-94.28a14.86,14.86,0,0,1,14.44-14.56l228.07-6.77c8.37-.25,15.23,6.09,15.23,14.08v97C2312.25,1660.35,2305.39,1667,2297,1667.14Z"></path>
    <path fill="#fff" d="M3689.67,384.2q-.06,236.71,1.19,473.42t3.39,473.43q1.93,236.71,3.2,473.42l.79,236.72.15,118.35v64.73c0,.6,0,1.25,0,1.94,0,2.69-.14,5.41-.39,8.17-.14,1.39-.24,2.75-.47,4.17l-.32,2.11c-.12.71-.27,1.42-.41,2.14a51.24,51.24,0,0,1-2.53,8.71,36.55,36.55,0,0,1-4.85,8.82,28.25,28.25,0,0,1-8.47,7.49,27,27,0,0,1-11.05,3.35,29.88,29.88,0,0,1-5.52-.06c-.9-.09-1.8-.23-2.71-.41a24.83,24.83,0,0,1-2.95-.76l-.66-.24c-5.84-2.09-11.49-4.43-17.61-6.16-3-.92-6-1.89-9-2.77l-9.23-2.44c-6.11-1.72-12.39-3.08-18.62-4.53s-12.53-2.72-18.83-4l-9.45-1.91-9.51-1.73c-6.34-1.15-12.67-2.35-19.05-3.35l-19.11-3.12-19.18-2.87c-6.38-1-12.8-1.82-19.21-2.7s-12.81-1.78-19.24-2.59c-12.85-1.57-25.68-3.28-38.56-4.69l-19.31-2.22-19.33-2.07-19.33-2-19.35-1.9q-77.45-7.47-155.12-12.94t-155.43-9.79c-207.4-11.19-415.18-16.58-623-17.53q-77.93-.26-155.85.32c-51.95.49-103.9,1.11-155.83,2.25s-103.87,2.43-155.79,4.28-103.82,3.9-155.7,6.52c-103.75,5.26-207.45,12-310.8,22l-19.37,1.92-19.36,2-19.35,2.08-19.33,2.25c-12.9,1.43-25.75,3.16-38.62,4.76-6.43.82-12.85,1.75-19.27,2.62s-12.85,1.74-19.25,2.75l-19.21,2.92-19.16,3.2c-6.4,1-12.75,2.26-19.11,3.43l-9.53,1.77-9.49,2c-6.32,1.32-12.67,2.56-18.92,4.11s-12.57,2.87-18.74,4.63l-9.3,2.5c-3.07.9-6.1,1.9-9.14,2.84-6.17,1.77-12,4.2-17.91,6.37l-.39.14a21.87,21.87,0,0,1-2.52.65c-.8.16-1.61.27-2.41.36a26.71,26.71,0,0,1-4.9,0,22.49,22.49,0,0,1-9.6-3.08,24.22,24.22,0,0,1-7.26-6.74,33.52,33.52,0,0,1-4.24-8.11,62.29,62.29,0,0,1-3.32-16.46c-.22-2.69-.28-5.41-.3-8l0-7.6-.32-60.83-.65-121.65-1.26-243.31-1-243.31-.66-243.3-1.06-486.62-.43-243.3L1141,453.09l0-60.82v-7.61c0-2.7.08-5.59.28-8.45a67.93,67.93,0,0,1,3.56-18,40.19,40.19,0,0,1,4.94-9.53,29.71,29.71,0,0,1,9-8.38,28.54,28.54,0,0,1,12.07-3.93,32.05,32.05,0,0,1,6,0c1,.1,2,.24,3,.43a28.34,28.34,0,0,1,3.25.83l.79.29c5.78,2.07,11.37,4.38,17.46,6.09,3,.91,6,1.86,9,2.73l9.19,2.42c6.09,1.69,12.35,3,18.57,4.47s12.51,2.69,18.79,4l9.43,1.89,9.5,1.71c6.33,1.14,12.64,2.34,19,3.32l19.09,3.1,19.16,2.82c6.38,1,12.8,1.79,19.2,2.66s12.81,1.75,19.23,2.54c12.84,1.54,25.66,3.22,38.54,4.6l19.3,2.16,19.32,2c12.88,1.36,25.78,2.59,38.68,3.81,103.21,9.73,206.81,16.28,310.47,21.64,51.83,2.65,103.69,4.79,155.57,6.7S2057.11,420,2109,421.4q155.72,4,311.52,5t311.6-.92q77.89-1,155.78-3.05c51.92-1.38,103.84-3,155.74-5.15,103.79-4.34,207.54-10.23,311-19.37l19.39-1.76,19.39-1.9,19.38-1.93,19.36-2.1c12.92-1.33,25.8-3,38.69-4.47,6.45-.77,12.88-1.67,19.31-2.5s12.88-1.66,19.3-2.62l19.27-2.79L3548,374.8c6.41-1,12.79-2.17,19.18-3.3l9.58-1.7,9.55-1.89c6.35-1.29,12.73-2.5,19-4s12.66-2.82,18.91-4.55l9.4-2.46c3.11-.9,6.19-1.89,9.29-2.82,6.24-1.75,12.22-4.19,18.3-6.38l.09,0h0l0,0,.5-.12h0l-.36.06a20.69,20.69,0,0,1,6.92-.86,18.48,18.48,0,0,1,6.8,1.56,17.35,17.35,0,0,1,5.69,4A22.63,22.63,0,0,1,3683,355c.64.95,1.21,1.95,1.78,2.94a42.76,42.76,0,0,1,3.92,12.9A85.08,85.08,0,0,1,3689.67,384.2Zm-2.18,0a84.91,84.91,0,0,0-.93-13,40.9,40.9,0,0,0-3.73-12.22c-.53-.91-1-1.83-1.64-2.69a19.88,19.88,0,0,0-2-2.4,15,15,0,0,0-5-3.52,17.65,17.65,0,0,0-12.07-.6l-.2.06h-.18l.5-.12-.24.1.08,0c-6.14,2.22-12.2,4.7-18.48,6.47-3.11,1-6.22,2-9.34,2.86l-9.45,2.5c-6.27,1.75-12.63,3.13-19,4.6s-12.71,2.75-19.08,4.06l-9.56,1.94-9.6,1.75c-6.39,1.16-12.78,2.39-19.2,3.4l-19.25,3.16-19.28,2.88c-51.46,7.48-103.13,13.26-154.87,18.32-103.47,10.1-207.21,17.18-311,23.06S2836.32,434.9,2732.4,438s-207.89,4.91-311.87,5.76c-208,1.3-416-1.87-623.85-11.52-103.93-4.86-207.81-11.28-311.56-20.8l-19.45-1.81-19.44-2-19.44-2-19.43-2.17c-13-1.38-25.9-3.07-38.85-4.62-6.47-.79-12.94-1.71-19.41-2.56s-12.94-1.69-19.4-2.68l-19.39-2.85-19.38-3.13c-6.47-1-12.92-2.21-19.37-3.37l-9.68-1.75c-3.23-.61-6.45-1.29-9.67-1.94-6.45-1.32-12.89-2.56-19.33-4.11s-12.88-2.89-19.31-4.68l-9.65-2.55c-3.22-.93-6.43-2-9.65-2.95-6.42-1.81-12.87-4.44-19.3-6.78l.78.29-.43-.1a6.7,6.7,0,0,0-.8-.11,7.32,7.32,0,0,0-1.55,0,5.07,5.07,0,0,0-2.28.7,6.38,6.38,0,0,0-2,2,16.63,16.63,0,0,0-2,3.95,45,45,0,0,0-2.23,11.73c-.16,2.2-.21,4.38-.23,6.74v7.61l0,60.82L1164,574.75l-.42,243.3-1.06,486.62-.66,243.3-1,243.31-1.26,243.31-.65,121.65-.32,60.83,0,7.6c0,2.45,0,4.81.2,7.17a50.13,50.13,0,0,0,2.48,13.3c1.42,4,3.63,7.28,6.44,9a10.79,10.79,0,0,0,4.73,1.57,14.32,14.32,0,0,0,2.7,0c.45-.05.91-.1,1.35-.19s.91-.19,1.17-.27l-.4.14c6.28-2.24,12.52-4.75,18.87-6.5,3.17-.94,6.32-1.94,9.49-2.84l9.55-2.47c6.34-1.73,12.75-3.07,19.13-4.52s12.8-2.69,19.21-4l9.61-1.88,9.64-1.69c6.43-1.12,12.85-2.3,19.29-3.26l19.31-3,19.35-2.75c6.44-.95,12.9-1.75,19.35-2.59s12.91-1.71,19.37-2.48c12.92-1.49,25.83-3.13,38.77-4.46l19.4-2.09,19.42-1.93,19.41-1.89,19.43-1.75q77.7-6.9,155.54-11.79c51.88-3.36,103.79-6.13,155.72-8.62q155.76-7.23,311.67-10.59,155.89-3.57,311.83-4.1c26,0,52-.16,78-.1l39,0,39,.17q78,.43,155.94,1.65,155.94,2.37,311.83,8.78c103.91,4.47,207.79,10.44,311.51,19.71,51.85,4.69,103.67,10.11,155.36,17.41l19.38,2.8,19.36,3.1c6.46,1,12.9,2.2,19.34,3.35l9.67,1.73,9.66,1.92c6.43,1.31,12.87,2.53,19.29,4.07s12.85,2.85,19.26,4.63l9.61,2.52c3.2.92,6.4,1.94,9.6,2.91,6.4,1.8,12.79,4.39,19.17,6.71l-.66-.24s.36.09.63.14a7.24,7.24,0,0,0,1,.14,10.58,10.58,0,0,0,1.86,0,7.28,7.28,0,0,0,3-.89,8.63,8.63,0,0,0,2.5-2.27,17.27,17.27,0,0,0,2.21-4.13,31.3,31.3,0,0,0,1.57-5.48l.29-1.49.23-1.55c.17-1,.24-2.11.36-3.18.19-2.15.28-4.36.3-6.6l0-.84v-65.65l.16-118.35.78-236.72q1.07-236.7,3.2-473.42,1.85-236.71,3.39-473.43Q3687.56,620.91,3687.49,384.2Z"></path>
    <path fill="#b0c0e1" d="M1259.05 623.55v828.69a77.33 77.33 0 0 0 85 77c367.11-36.61 662.09-35.44 796.81-32a77.36 77.36 0 0 0 79.33-77.34v-766a77.36 77.36 0 0 0-78.24-77.36c-141.33 1.61-456.47.69-798.66-30A77.34 77.34 0 0 0 1259.05 623.55ZM3072.63 1435.1c-285.1-27.44-517.63-24.89-622.41-21.51a62 62 0 0 0-60 62V1989a62 62 0 0 0 63.13 62c270.62-4.55 498.19 14.77 606.88 26.29a62 62 0 0 0 68.51-61.66V1496.83A62 62 0 0 0 3072.63 1435.1ZM3071 558.38l-.49 0q-7 .65-14 1.24-35.58 3.11-70.51 5.65-7.28.56-14.53 1.06-35.76 2.53-70.52 4.58l-14.53.83q-36 2-70.52 3.58l-14.53.63c-24.19 1-47.74 1.91-70.52 2.64l-14.53.46c-24.5.72-48.06 1.29-70.5 1.73l-14.54.27c-25.06.43-48.64.7-70.51.84-4.93 0-9.79.08-14.54.09-26.43.12-50.09.07-70.51-.07l-14.54-.11-10.22-.11a60 60 0 0 0-60.7 60v612.62a60 60 0 0 0 61.54 60l9.38-.22 14.54-.31c20.29-.38 43.9-.65 70.51-.69q7.13 0 14.54 0c21.73 0 45.29.22 70.51.63l14.54.24q33.47.63 70.5 1.83l14.53.5q33.95 1.2 70.52 3l14.53.72q34.24 1.77 70.52 4.1l14.53.95q34.46 2.34 70.52 5.23l14.53 1.21q34.61 2.87 70.51 6.36l13.44 1.32 1.09.09a60 60 0 0 0 64.81-59.82V618.19A60 60 0 0 0 3071 558.38ZM3578.78 1001.07c-265.47 23.84-147.66 6.67-299.93 15.65-33.36 2-60.69 26.6-60.69 60v966.5c0 33.75 27.82 58.53 61.54 60 117.24 5.13 13.69-3.56 298.49 24.84a60 60 0 0 0 65.9-59.73V1060.85A60 60 0 0 0 3578.78 1001.07Z"></path>
    <path fill="#3c6eb6" d="M2429.78,1396.52c104.78-3.38,337.31-5.94,622.41,21.5a62,62,0,0,1,56.1,61.73v518.82a62,62,0,0,1-68.52,61.66c-108.69-11.52-336.26-30.84-606.88-26.28a62,62,0,0,1-63.13-62V1458.49A62,62,0,0,1,2429.78,1396.52Z" opacity=".58"></path>
    <path fill="#b2c1e2" d="M2699.5,1590.18c0,80.92-57.94,146.53-129.41,146.53s-129.41-65.61-129.41-146.53,57.94-146.52,129.41-146.52a117.87,117.87,0,0,1,67.49,21.47l-67.49,128,116.1-67.67A161.7,161.7,0,0,1,2699.5,1590.18Z"></path>
    <path fill="#fff" d="M2732.83 1502.76q63.83 1.83 127.59 5.27 63.43 3.42 126.77 8.43 35.55 2.8 71 6.13c2.92.27 6.57-1.55 8.57-3.55a12.11 12.11 0 0 0 0-17.13 13.65 13.65 0 0 0-8.57-3.55q-63.57-5.94-127.28-10.26-63.39-4.3-126.86-7-35.62-1.53-71.26-2.55c-6.34-.18-12.41 5.71-12.12 12.12a12.35 12.35 0 0 0 12.12 12.11ZM2743.66 1565.92l72.6 4.79 72.61 4.8 40.76 2.69a12.11 12.11 0 0 0 8.56-20.68 13.32 13.32 0 0 0-8.56-3.54l-72.61-4.8-72.6-4.8-40.76-2.69a12.11 12.11 0 0 0-8.57 20.68 13.41 13.41 0 0 0 8.57 3.55ZM2449.07 1781.8c79-1.44 306.32-2.29 582.41 26.2a30.27 30.27 0 0 1 27.18 30.1v145.61a30.24 30.24 0 0 1-34.76 29.91c-88.91-13.38-334.3-45.32-571.35-31.12a30.26 30.26 0 0 1-32.11-30l-1.05-140.27A30.23 30.23 0 0 1 2449.07 1781.8Z"></path>
    <path fill="#8ca4d4" d="M3115.35,601.12v661.27a60,60,0,0,1-64.81,59.83l-1.09-.1L3036,1320.8q-35.9-3.49-70.5-6.36l-14.54-1.21q-36-2.91-70.51-5.22l-14.54-1q-36.26-2.34-70.51-4.09-7.34-.39-14.54-.73-36.52-1.8-70.51-3l-14.54-.5q-37-1.21-70.5-1.83l-14.54-.24c-25.22-.41-48.78-.6-70.51-.63h-14.54c-26.61,0-50.22.32-70.51.69l-14.54.32-9.37.21a60,60,0,0,1-61.55-60V624.65a60,60,0,0,1,60.7-60l10.22.11,14.54.11c20.42.14,44.08.19,70.51.07,4.75,0,9.61,0,14.54-.08,21.88-.15,45.45-.42,70.51-.85l14.54-.27c22.45-.43,46-1,70.5-1.73l14.54-.46c22.77-.73,46.32-1.6,70.51-2.64,4.82-.19,9.67-.41,14.54-.63q34.49-1.56,70.51-3.57l14.54-.84q34.73-2.05,70.51-4.58l14.54-1q34.88-2.57,70.5-5.66,7-.6,14-1.24l.49,0A60,60,0,0,1,3115.35,601.12Z" opacity=".68"></path>
    <path fill="#6a8ec6" d="M2455.22 564.86v731.88l-14.54.32V564.75ZM2540.27 564.85v731.2h-14.54V564.93C2530.48 564.92 2535.34 564.88 2540.27 564.85ZM2625.32 563.73v733.19l-14.54-.24V564ZM2710.36 561.54v737.71l-14.54-.5V562ZM2795.41 558.27V1303q-7.34-.39-14.54-.73V558.9C2785.69 558.71 2790.54 558.49 2795.41 558.27ZM2880.46 553.86V1308l-14.54-1V554.7ZM2965.51 548.23v766.21l-14.54-1.21V549.28ZM3050.54 541.3v780.92l-1.09-.1L3036 1320.8V542.57q7-.6 14-1.24Z"></path>
    <path fill="#6a8ec6" d="M3115.35 615.48v14.59q-32.86 2.41-64.81 4.52c-4.85.31-9.7.61-14.53.93q-35.91 2.28-70.5 4.17l-14.54.78q-36 1.89-70.51 3.38l-14.54.63q-36.2 1.53-70.51 2.63l-14.54.47q-36.42 1.11-70.51 1.84l-14.54.31q-36.74.71-70.5 1c-4.9.06-9.74.09-14.54.13q-28.37.23-54.39.22-8.17 0-16.12 0l-14.54 0c-25.59-.13-49.16-.38-70.51-.73-5-.07-9.81-.16-14.54-.24-28-.52-51.75-1.19-70.92-1.82V633.7c19.12.64 42.89 1.3 70.92 1.82q7.09.15 14.54.25c21.34.35 44.9.61 70.51.73l14.54 0q33.17.09 70.51-.2l14.54-.12q33.72-.35 70.5-1.05l14.54-.29q34.07-.75 70.51-1.85l14.54-.47q34.31-1.12 70.51-2.62l14.54-.63q34.47-1.52 70.51-3.41 7.23-.37 14.54-.79 34.57-1.89 70.5-4.16l14.53-1Q3082.48 617.92 3115.35 615.48ZM3115.35 710.71v14.57q-32.92 2.36-64.81 4.34l-14.53.88q-36 2.14-70.5 3.85-7.31.38-14.54.71-36.16 1.7-70.51 3l-14.54.52q-36.39 1.27-70.51 2.11l-14.54.34q-36.73.83-70.51 1.21l-14.54.15q-31.64.32-60.34.3c-3.43 0-6.81 0-10.16 0q-7.38 0-14.54 0-21.11-.07-40.35-.3-15.48-.15-30.16-.41l-14.54-.25c-25.57-.49-49.13-1.12-70.51-1.81-5-.15-9.81-.32-14.54-.48-27.94-1-51.71-2.08-70.92-3.09V721.73c19.14 1 42.92 2.1 70.92 3.09q7.09.25 14.54.48c21.35.71 44.92 1.32 70.51 1.82q7.16.14 14.54.24 14.82.25 30.51.43 19 .19 40 .3c4.78 0 9.62 0 14.54 0q33.16 0 70.5-.28 7.2-.08 14.54-.17 33.73-.39 70.51-1.21 7.22-.15 14.54-.34 34.1-.84 70.51-2.11 7.23-.25 14.54-.53 34.32-1.28 70.51-3l14.54-.71q34.48-1.72 70.5-3.87c4.83-.28 9.66-.58 14.53-.89Q3082.42 713.06 3115.35 710.71ZM3115.35 806.84v14.55q-32.94 1.73-64.81 3.13l-14.53.61q-36 1.51-70.5 2.63-7.31.24-14.54.46-36.18 1.11-70.51 1.83l-14.54.3q-36.39.69-70.51 1l-14.54.12q-29.46.24-57 .24-6.81 0-13.49 0l-14.54 0q-37.31-.16-70.5-.65-7.38-.1-14.54-.23-22.19-.36-42.29-.84-14.46-.35-28.22-.73c-4.92-.13-9.77-.28-14.54-.42-25.58-.78-49.14-1.65-70.51-2.57l-14.54-.64c-28-1.28-51.74-2.6-70.92-3.77V807.23c19.09 1.16 42.85 2.47 70.92 3.74q7.09.33 14.54.64c21.33.91 44.88 1.79 70.51 2.56q7.16.23 14.54.41 33.14.93 70.51 1.58l14.54.24q33.7.47 70.5.65 7.21 0 14.54.05c5.44 0 10.92 0 16.46 0q26.32 0 54-.21l14.54-.12q34.26-.33 70.51-1 7.23-.12 14.54-.29 34.44-.72 70.51-1.83c4.82-.13 9.67-.29 14.54-.45q34.56-1.12 70.5-2.61l14.53-.63Q3082.46 808.56 3115.35 806.84ZM3115.35 1214.91v14.58c-19.39-1.46-41-3-64.81-4.47q-7.14-.46-14.53-.91-32.84-2-70.5-3.93l-14.54-.72q-33.54-1.62-70.51-3.06l-14.54-.54q-34-1.23-70.51-2.23c-4.81-.13-9.66-.27-14.54-.39q-34.22-.85-70.51-1.44-7.23-.12-14.54-.22-34.4-.48-70.5-.66c-4.82 0-9.67-.05-14.54-.06q-34.52-.12-70.51.08l-14.54.1q-34.65.27-70.51.86l-14.54.26q-34.92.64-70.92 1.64v-14.54q36-1 70.92-1.63 7.31-.15 14.54-.26 35.87-.6 70.51-.86l14.54-.09q23.14-.15 45.73-.14 12.48 0 24.78 0c4.87 0 9.72 0 14.54.06q36.09.16 70.5.66 7.3.1 14.54.23 36.27.56 70.51 1.44l14.54.37q36.51 1 70.51 2.23l14.54.55q36.91 1.41 70.51 3.05 7.37.35 14.54.72 37.6 1.89 70.5 3.92 7.39.43 14.53.9C3074.27 1212 3095.93 1213.46 3115.35 1214.91ZM3115.35 1109v14.55c-19.4-.72-41-1.47-64.81-2.21l-14.53-.44q-32.82-1-70.5-1.89l-14.54-.34q-33.54-.76-70.51-1.39l-14.54-.26q-33.95-.52-70.51-.93l-14.54-.16q-34.2-.32-70.51-.51l-14.54-.06q-25.52-.09-52-.09h-18.52l-14.54 0q-34.52.09-70.51.34l-14.54.11q-34.64.3-70.51.76l-14.54.2q-34.91.49-70.92 1.19v-14.55q36-.67 70.92-1.18l14.54-.19q35.87-.48 70.51-.76l14.54-.11q36-.25 70.51-.34l14.54 0h18.48q26.47 0 52 .1c4.87 0 9.73 0 14.54.06q36.29.16 70.51.51l14.54.14q36.54.4 70.51 1l14.54.25q36.93.62 70.51 1.39l14.54.34q37.62.9 70.5 1.89l14.53.43Q3086.17 1107.9 3115.35 1109ZM3115.35 1011.7v14.53c-19.4-.2-41-.41-64.81-.58l-14.53-.11c-21.88-.14-45.42-.27-70.5-.34l-14.54 0q-33.54-.09-70.51-.06-7.2 0-14.54 0-33.95 0-70.51.16l-14.54.07q-34.22.15-70.51.43l-14.54.11q-34.4.27-70.5.67c-4.82 0-9.67.11-14.54.15q-34.52.4-70.51.91l-14.54.21q-34.64.51-70.51 1.15l-14.54.24q-34.92.66-70.92 1.39v-14.52q36-.76 70.92-1.39c4.87-.09 9.72-.17 14.54-.27q35.87-.61 70.51-1.13l14.54-.21q36-.51 70.51-.9l14.54-.17q36.1-.37 70.5-.65l14.54-.12q36.29-.29 70.51-.44c4.88 0 9.73 0 14.54-.06q36.54-.15 70.51-.17 7.34 0 14.54 0 36.93 0 70.51.06 7.37 0 14.54 0c25.07.07 48.61.19 70.5.34l14.53.1C3074.3 1011.28 3096 1011.48 3115.35 1011.7ZM3115.35 914v14.53l-64.81-.11H3036l-70.5-.05H2951c-23.08 0-46.66 0-70.51 0h-14.54c-23.37 0-47 0-70.51 0h-14.54c-23.65 0-47.22 0-70.51.05h-14.54l-70.5.07-14.54 0-70.51.09-14.54 0-70.51.1-14.54 0-70.92.13V914.4l70.92-.12 14.54 0c21.75 0 45.41-.07 70.51-.09 4.8 0 9.64 0 14.54 0l70.51-.08 14.54 0 70.5-.07h14.54c23.29 0 46.86 0 70.51-.05h14.54c23.56 0 47.14 0 70.51 0q7.29 0 14.54 0c23.85 0 47.43 0 70.51 0h14.54l70.5 0 14.53 0Z"></path>
    <polygon fill="#f3ce90" points="3115.35 801.41 3115.35 828.13 3046.93 832.9 2956.54 772.67 2791.99 834.65 2621.02 1037.9 2448.22 936.98 2369.76 986.55 2369.76 955.02 2447.68 905.8 2615.08 1003.57 2776.07 812.17 2959.93 742.91 3054.15 805.68 3115.35 801.41"></polygon>
    <polygon fill="#ef7c59" points="3115.35 956.04 3115.35 982.42 2932.52 1084.79 2782.81 945.92 2586.95 1231.06 2445.3 1083.19 2369.76 1117.73 2369.76 1092.42 2450.6 1055.46 2584 1194.71 2778.93 910.93 2935.89 1056.53 3115.35 956.04"></polygon>
    <path fill="#5681bf" d="M3623.65,1043.78v1007.5a60,60,0,0,1-65.9,59.73c-284.8-28.4-181.25-19.72-298.49-24.85-33.71-1.47-61.54-26.25-61.54-60v-966.5c0-33.41,27.34-58.05,60.69-60,152.28-9,34.46,8.18,299.93-15.66A60,60,0,0,1,3623.65,1043.78Z" opacity=".58"></path>
    <path fill="#3c6eb6" d="M3586.51 1074.09c-.06-1.77-.88-3-1.93-2.88-103 9.12-216.47 12.34-341.84 12.92-1.15 0-2.2 1.91-2.22 4 0 3.76 0 5.65 0 9.42 0 1.63.65 2.81 1.55 2.8 125.53-.43 239.21-3.32 342.39-11.44 1.34-.12 2.5-2.29 2.43-4.54C3586.71 1080.25 3586.65 1078.19 3586.51 1074.09ZM3336.79 1145.33c1.2 0 2.29-2 2.28-4 0-3.83 0-5.74-.07-9.56 0-1.65-.71-2.84-1.66-2.82q-46.46.6-95.33.74c-1.15 0-2.2 1.92-2.2 4 0 3.78 0 5.67 0 9.45 0 1.64.67 2.83 1.57 2.82Q3290.31 1145.81 3336.79 1145.33Z"></path>
    <path fill="#fff" d="M3241.91 1191.61c12.78 0 19.12 0 31.7-.11 1.17 0 2.22-1.93 2.21-4 0-3.81 0-5.72-.06-9.52 0-1.65-.69-2.84-1.62-2.83-12.56.08-18.9.12-31.68.17-1.15 0-2.2 1.91-2.19 4l.05 9.48C3240.33 1190.42 3241 1191.62 3241.91 1191.61ZM3280.18 1202c.29.21.65 0 .86-.5 6.41-15 9.61-22.49 16-37.31a1.63 1.63 0 0 0-.17-1.75l-1.65-1.23c-.29-.22-.65 0-.87.5-6.38 14.82-9.57 22.28-16 37.29a1.65 1.65 0 0 0 .18 1.75ZM3434 1174.26q-65.14 1-135.27 1.19c-1.19 0-2.25 1.93-2.24 4 0 3.82 0 5.73.07 9.55 0 1.65.71 2.85 1.64 2.84q70.18 0 135.31-.75c1.26 0 2.39-2 2.36-4.17 0-3.92-.07-5.87-.12-9.79C3435.69 1175.46 3435 1174.24 3434 1174.26ZM3242.35 1421.09q69.38 3.24 134 6.19c1.23 0 2.33-1.9 2.3-4.07 0-4-.07-6-.11-9.91 0-1.71-.74-3-1.71-3q-64.65-2.7-134-5.66c-1.15 0-2.17 1.85-2.14 4 .05 3.83.07 5.75.12 9.59C3240.77 1419.81 3241.45 1421.05 3242.35 1421.09Z"></path>
    <path fill="#cad6ed" d="M3297.06,1317.55c.25,20.69.38,31,.64,51.78.11,9,3.85,15.64,8.86,15.78q97.28,3,185,5.46c7,.19,13.22-10.57,13.08-22.53q-.3-27.19-.62-54.35c-.11-9.36-4.22-16.22-9.71-16.23q-88-.45-185.36-1.48C3302.6,1295.93,3296.93,1306.21,3297.06,1317.55Z"></path>
    <path fill="#fff" d="M3486.54 1238.87q-67.74.29-141 0c-1.21 0-2.3 2-2.28 4.07l.1 9.69c0 1.67.73 2.89 1.69 2.89q73.27.54 141 .61c1.3 0 2.45-2 2.43-4.23-.05-4-.08-6-.13-10C3488.33 1240.11 3487.56 1238.85 3486.54 1238.87ZM3477.82 1481.19c1.29.07 2.44-1.92 2.41-4.15-.05-4.08-.07-6.12-.12-10.19 0-1.76-.78-3.08-1.79-3.13-73.6-4-152-8.23-235.54-12.81-1.15-.06-2.17 1.82-2.15 3.93 0 3.84.07 5.76.12 9.6 0 1.66.7 2.91 1.6 3C3325.9 1472.32 3404.23 1476.9 3477.82 1481.19ZM3275.29 1499.2l-31.6-1.85c-1.15-.07-2.18 1.8-2.16 3.92l.1 9.62c0 1.67.69 2.93 1.6 3l31.59 2c1.17.07 2.22-1.81 2.2-3.94l-.1-9.72C3276.9 1500.51 3276.22 1499.25 3275.29 1499.2ZM3297.92 1487.68l-1.65-1.37c-.29-.24-.66 0-.87.46-6.29 14.75-9.45 22.15-15.82 37a1.78 1.78 0 0 0 .18 1.8l1.64 1.38c.29.24.65 0 .86-.45 6.37-14.89 9.54-22.3 15.84-37A1.73 1.73 0 0 0 3297.92 1487.68ZM3561.81 1518.52l-262-17.38c-1.18-.07-2.24 1.83-2.22 4l.1 9.77c0 1.69.71 3 1.64 3l262 18.49c1.34.08 2.53-1.93 2.5-4.22-.07-4.17-.1-6.26-.16-10.43C3563.66 1519.94 3562.87 1518.58 3561.81 1518.52Z"></path>
    <path fill="#8ca4d4" d="M3339.18 1230.38a10.22 10.22 0 0 0 .08-4 5.63 5.63 0 0 0-1.35-3 1.71 1.71 0 0 0-2.42 0l-21.88 15.71q-3 2.17-3.15 7.49c-.08 3.67.88 6.26 2.85 7.75 8.55 6.47 12.8 9.68 21.26 16.06a1.72 1.72 0 0 0 2.42.08 5.31 5.31 0 0 0 1.46-2.9 10.1 10.1 0 0 0 .08-4 4.29 4.29 0 0 0-1.69-2.94l-18.64-13.88 19.17-13.41A4.8 4.8 0 0 0 3339.18 1230.38ZM3488.78 1264.88a10.1 10.1 0 0 0-.08 4.13 5.37 5.37 0 0 0 1.46 3q1.07 1 2.61 0l23.8-16.4c2.23-1.54 3.39-4.24 3.46-8.1s-1-6.35-3.18-7.88l-23.2-16.38a1.89 1.89 0 0 0-2.61 0 5.84 5.84 0 0 0-1.56 3.08 10 10 0 0 0-.08 4.11 4.75 4.75 0 0 0 1.82 3.12l20.28 14.05c-8.27 5.67-12.43 8.51-20.79 14.22A4.53 4.53 0 0 0 3488.78 1264.88Z"></path>
    <path fill="#7b9ccd" d="M1276.66,606.38v828.69a77.33,77.33,0,0,0,84.95,77c367.12-36.61,662.09-35.44,796.82-32a77.36,77.36,0,0,0,79.33-77.34v-766a77.36,77.36,0,0,0-78.24-77.36c-141.33,1.61-456.47.69-798.67-30A77.34,77.34,0,0,0,1276.66,606.38Z" opacity=".54"></path>
    <path fill="#375b91" d="M1392.29 654.55v784.2s48.65-3.91 121.6-8.78V669.12a14.65 14.65 0 0 0-13.54-14.6c-47.8-3.65-82.34-7.11-98.25-8.8A8.87 8.87 0 0 0 1392.29 654.55ZM1704.87 992.17v426.68c-42.51 2.07-83.76 4.4-121.6 6.69V987.62A13.89 13.89 0 0 1 1598 973.75c28.88 1.65 60.22 3.2 93.57 4.54A13.9 13.9 0 0 1 1704.87 992.17ZM1895.86 890.74V1412c-39.41.75-80.55 2-121.59 3.7V889.67a19.74 19.74 0 0 1 20.14-19.74c26.48.56 53.79.93 81.79 1.07A19.75 19.75 0 0 1 1895.86 890.74ZM2086.84 698.58v716.75c-33.51-2.74-75.29-3.92-121.59-3.95V700.88a24.71 24.71 0 0 1 25.82-24.67c23.58 1 47.45-2.84 71.55-2.32A24.71 24.71 0 0 1 2086.84 698.58Z"></path>
    <path fill="#3662a3" d="M1407.29,639.55v784.2s48.65-3.91,121.6-8.78V654.12a14.65,14.65,0,0,0-13.54-14.6c-47.8-3.65-82.34-7.11-98.25-8.8A8.87,8.87,0,0,0,1407.29,639.55Z"></path>
    <path fill="#4c7bbf" d="M1719.87,977.17v426.68c-42.51,2.07-83.76,4.4-121.6,6.69V972.62A13.89,13.89,0,0,1,1613,958.75c28.88,1.65,60.22,3.2,93.57,4.54A13.9,13.9,0,0,1,1719.87,977.17Z"></path>
    <path fill="#c5d1e9" d="M1910.86,875.74V1397c-39.41.75-80.55,2-121.59,3.7V874.67a19.74,19.74,0,0,1,20.14-19.74c26.48.56,53.79.93,81.79,1.07A19.75,19.75,0,0,1,1910.86,875.74Z"></path>
    <path fill="#fff" d="M2101.84,683.58v716.75c-33.51-2.74-75.29-3.92-121.59-3.95V685.88a24.71,24.71,0,0,1,25.82-24.67c23.58,1,47.45-2.84,71.55-2.32A24.71,24.71,0,0,1,2101.84,683.58Z"></path>
    <path fill="#011930" d="M1673.1,2584.56c-25.1,35.13-170.11,45-256.74,41.44s-76.83-50.46-76.83-50.46l2.55-19.46,10.62-81.22,41.64-51.57,154.51,35.79.54.13-.43,7.36-1.91,33.61c80.45-3.61,109.56,32,120.09,58.08C1673.05,2572.91,1673.1,2584.56,1673.1,2584.56Z"></path>
    <path fill="#022649" d="M1667.14,2558.26c-16.72,12.65-50.68,21.36-90.34,26.91-51.89,7.27-113.54,9.1-159.07,7.24-55.31-2.26-71.31-22.21-75.65-36.33l10.62-81.22,41.64-51.57,154.51,35.79-.43,7.51.54,0-1.91,33.61C1627.5,2496.57,1656.61,2532.18,1667.14,2558.26Z"></path>
    <path fill="#fff" d="M1576.8,2585.17c4.62-70.38-29.75-85-29.75-85,80.45-3.61,109.56,32,120.09,58.08C1650.42,2570.91,1616.46,2579.62,1576.8,2585.17Z"></path>
    <path fill="#022649" d="M1842.93,2627.34c-25.41,38.8-180.63,55.74-273.77,55.74s-84.68-50.8-84.68-50.8l1.88-21,7.84-87.64,42.43-57.18,167.42,31.64.59.11-.14,7.92-.58,36.16c86.2-7.4,119,29.55,131.45,57.08C1842.36,2614.84,1842.93,2627.34,1842.93,2627.34Z"></path>
    <path fill="#354d7f" d="M1835.37,2599.37c-17.39,14.31-53.46,25.15-95.79,32.84-55.38,10.08-121.47,14.76-170.42,14.76-59.47,0-77.52-20.72-82.8-35.69l7.84-87.64,42.43-57.18,167.42,31.64-.13,8.08.58,0-.58,36.16C1790.12,2534.89,1822.93,2571.84,1835.37,2599.37Z"></path>
    <path fill="#fff" d="M1739.58,2632.21c1.87-75.75-35.66-89.92-35.66-89.92,86.2-7.4,119,29.55,131.45,57.08C1818,2613.68,1781.91,2624.52,1739.58,2632.21Z"></path>
    <path fill="#2c4da2" d="M1739.59,2508.52a513.27,513.27,0,0,1-70.7,25.12q-6.87,1.84-13.48,3.37-5.64,1.32-11.12,2.42c-1.63.33-3.27.64-4.88,1-118.25,22-165.31-32.1-165.31-32.1a187,187,0,0,1-39.42-2.16c-61.57-9.88-101-47-101-47s87.19-477.67,51.14-708.69,15.41-258.3,15.41-258.3l37-68.34,159.53,49.54,71.29,22.13,14.68,124.08,44.07,372.6Z"></path>
    <path fill="#223a7a" d="M1474.1 2508.28a187 187 0 0 1-39.42-2.16l72.62-433.74a195.76 195.76 0 0 0 2.48-41.45l-12-262.17c-56.35-104.73-34-190-34-190-.65 100.51 57 190 57 190s11.48 186.82 13.41 273S1474.1 2508.28 1474.1 2508.28ZM1682.68 1619.5c-51.14-5.14-91.2-52.74-91.2-110.72a121.8 121.8 0 0 1 5.23-35.49l13.16 4.08a123.67 123.67 0 0 0-1.31 18c0 50.5 30.4 93.14 72 106.68Z"></path>
    <path fill="#223a7a" d="M1689.36,2015v.45l-20.46,518.16q-6.87,1.84-13.48,3.37l20.6-521.6-40.19-416.8,13.26-1.27Z"></path>
    <rect width="4.85" height="18.17" x="1615.6" y="1565.16" fill="#223a7a" transform="rotate(-5.77 1617.215 1573.612)"></rect>
    <path fill="#223a7a" d="m1624.9 1618.24-4.82.48 3.56 35.19 4.82-.48Zm7.11 70.38-4.82.5 3.55 35.19 4.82-.49Zm7.11 70.39-4.82.49 3.55 35.2 4.82-.5Zm7.11 70.39-4.82.49 3.55 35.19 4.82-.49Zm7.11 70.38-4.82.49 3.55 35.2 4.82-.5Zm7.11 70.4-4.82.48 3.55 35.19 4.82-.48Zm-1.32 70.64-1.4 35.34 4.84.19L1664 2041Zm-2.79 70.69-1.4 35.34 4.85.2 1.39-35.35Zm-2.79 70.69-1.39 35.35 4.83.18 1.4-35.33Zm-2.79 70.68-1.4 35.35 4.84.2 1.4-35.35Zm-2.8 70.7-1.39 35.35 4.85.19 1.39-35.35Zm-2.78 70.7-1.39 35.33 4.83.19 1.4-35.34Zm-2.79 70.68-1.4 35.35 4.84.19 1.4-35.35ZM1644.44 2535.85l-.15 3.58c-1.63.33-3.27.64-4.88 1l.18-4.73Z"></path>
    <ellipse cx="1711.5" cy="1173.85" fill="#f5b0a6" rx="38.06" ry="52.34"></ellipse>
    <path fill="#1a1a1a" d="M1378.3 641.54a1.57 1.57 0 0 1-.71 2.78c-8.33 1.33-29.52 3.77-34.85-4.74C1336.31 629.33 1355.69 623.86 1378.3 641.54ZM1383.39 635.76a1.16 1.16 0 0 1-2 .65c-4.07-4.64-13.86-16.82-10.67-23.45C1374.55 605 1385.51 614.84 1383.39 635.76Z"></path>
    <path fill="#f5b0a6" d="M1596,808.82c-.1,1.07-.23,2.14-.37,3.2a105,105,0,0,1-6,24.79c-.49,1.27-1,2.5-1.56,3.71h0c-5.86,12.94-15.08,23-29,27.83-9.06,3.16-20.11,4.12-33.52,2.23l2.38,22.73v0l5.65,53.94-95.83-12.52-10.56-66.86-42.41-110.66,53.31-104.54,107.74-38.32,35.93,78.2S1601.51,757.24,1596,808.82Z"></path>
    <path fill="#1a1a1a" d="M1616.46,628.12c-3.13,88.51-83.29,82.84-83.29,82.84,9.58,21-18.9,46.78-31.15,37.87s-33.89-5.91-37.71,20.14,27.12,39.6,27.12,39.6,23.3,94.7-6.78,86.49a298.63,298.63,0,0,0-54.67-9.69c-14.25-63.84-47.89-46.11-78.13-105.13-.47-.91-.93-1.84-1.39-2.79,0,0,0,0,0-.05l-1-2a239.62,239.62,0,0,1-9.76-24c-11.29-32.41-9.45-54-2.18-68.26,13.87-27.28,47.51-28.27,47.51-28.27,3.45-25.05,20.09-39.29,38.16-47.37h0a107.3,107.3,0,0,1,12-4.48,152.06,152.06,0,0,0,58.56-33.84l.85-.8c.37-.35.75-.7,1.11-1.06l.21-.2c.39-.36.76-.73,1.13-1.09l.37-.36c32.56-31.71,75.81-27,100.22,2.08C1609.86,582.26,1617.35,602.88,1616.46,628.12Z"></path>
    <path d="M1560.47,743.74a7.16,7.16,0,0,1,1.22-5,9,9,0,0,1,4.83-3.6c3.77-1.27,9.81-.54,12,3.08.89,1.49,3.27,1.51,4.51.54,1.51-1.19,1.42-3,.53-4.51-1.87-3.16-5.45-4.74-8.88-5.55a19.4,19.4,0,0,0-10.6.53c-6.3,2.14-10.8,8.63-9.92,15.33.53,4.1,6.89,3.27,6.36-.83Z"></path>
    <ellipse cx="1572.61" cy="755.64" rx="6.03" ry="9.61" transform="rotate(-8.1 1606.582 791.43)"></ellipse>
    <path d="M1349.48 775.43a14.47 14.47 0 0 1 1 2ZM1616.46 628.12c-3.13 88.51-83.29 82.84-83.29 82.84 9.58 21-18.9 46.78-31.15 37.87s-33.89-5.91-37.71 20.14 27.12 39.6 27.12 39.6 23.3 94.7-6.78 86.49a298.63 298.63 0 0 0-54.67-9.69c-14.25-63.84-47.89-46.11-78.13-105.13 15.65 26.59 93.88 42.32 99.41-5.43 5.73-49.44 51-35.73 51-35.73 35-3.53 12.49-41.58 12.49-41.58 123.69-4 82.91-129.78 82.91-129.78h0C1609.86 582.26 1617.35 602.88 1616.46 628.12ZM1497.44 565.64c-.46.47-1 1-1.5 1.45.39-.36.76-.73 1.13-1.09Z"></path>
    <path fill="#040507" d="M1424.33,672.64c-15.25-16.67-39.28-17.79-39.28-17.79,3.45-25.05,20.09-39.29,38.16-47.37-22,15-25.75,36.17-25.75,36.17C1418.45,657.05,1424.33,672.64,1424.33,672.64Z"></path>
    <path d="M1379.71 669.61s-50.25 6.56-28.32 82.31C1351.39 751.92 1341.5 689.27 1379.71 669.61ZM1577.41 576.57s22.33 53.69-37.59 98.87C1539.82 675.44 1584 634.21 1577.41 576.57ZM1458.63 690.4s17.85 51.44-39 71.36C1419.6 761.76 1461.05 739.65 1458.63 690.4ZM1464 663.2s51.4-.54 57.35-47.2C1521.37 616 1507.85 649.49 1464 663.2Z"></path>
    <path fill="#f18a8b" d="M1496.58 766.46c1.24-6.44-6.58-11-11.6-6.77-4.17 3.51-7.06 10.12-1.26 22.45 11.27 23.94 23.11 10.63 20.79 3.16s-9.82-9.58-8-18.57ZM1559.1 868.36c-9.06 3.16-20.11 4.12-33.52 2.23l2.38 22.73c-1.54-14.75-15.42-37.7-15.83-38.39C1525.74 874.73 1557.59 868.66 1559.1 868.36Z"></path>
    <path fill="#ee7374" d="M1582.66,811a172.19,172.19,0,0,0-21,11.87,3.09,3.09,0,0,0-1.08,4.14,3.05,3.05,0,0,0,4.14,1.08,172.7,172.7,0,0,1,21-11.86,3.05,3.05,0,0,0,1.08-4.14,3.09,3.09,0,0,0-4.14-1.09Z"></path>
    <path fill="#2e6857" d="M1400.22 1459.39v32.69s10.28 27.5 129.45 30S1668 1495.42 1668 1495.42v-48.34l-76.66-54.17-154.17 30.84-37 35.64ZM1422.28 943.87s-3-31.5 10.53-40.58c9.41-6.33 55.84-2.32 92.09 7.34a77.44 77.44 0 0 1 50.13 42L1587.38 979Z"></path>
    <path fill="#6fc183" d="M1422.28,943.87s-119.81,5.1-80.79,129.4,26.32,290.38,28.59,324,14,56,34.61,64.19,207.1,40.75,261.1,0-8.15-153.85-9.17-216-29.45-240.59-69.24-266.5C1587.38,979,1483.23,932.8,1422.28,943.87Z"></path>
    <path fill="#2e6857" d="M1731.91,1275.6h0a21.77,21.77,0,0,1-5,2.27h0c-.38.24-31.09,20-60.52,22.91-4-15.46-7.36-30.19-8.89-43.3-31.77-24-63.41-67.29-80.87-129.07C1545.14,1017.15,1587.38,979,1587.38,979s80.46,33.59,110.37,107.21C1726.34,1156.51,1764.73,1255.58,1731.91,1275.6Z"></path>
    <path fill="#4cb065" d="M1409.35,1002.09s-21.26,14.72-10.74,100.95,23.42,219.4,18.25,252.25c0,0,16.57-58.92-6.85-243.26C1410,1112,1390.57,1026.83,1409.35,1002.09Z"></path>
    <path fill="#1e4439" d="M1731.9,1275.6a21.77,21.77,0,0,1-5,2.27h0c-.38.24-31.09,20-60.52,22.91-4-15.46-7.36-30.19-8.89-43.3C1657.46,1257.48,1697.47,1281.38,1731.9,1275.6Z"></path>
    <path fill="#6fc183" d="M2829.11,1638.61c20.76-.61,39.72,12.55,53,28.55s22.27,35,34,52.14c4.07,5.92,8.65,11.78,14.9,15.33,8,4.58,17.77,4.74,26.82,6.72a67.49,67.49,0,0,1,48,41.65c14.11,38-6.68,86.56,19.08,117.78,7.21,8.75,17.2,14.67,25.71,22.16,20.66,18.21,31.83,45.32,35.84,72.57s1.54,55-1.13,82.42q-4,40.62-8.5,81.18c-1.84,16.47-8.47,37.48-25,37.66-6.91.07-13.12-3.94-18.78-7.89a607.77,607.77,0,0,1-113.55-102.75c-27.43-32-52.66-75.59-35.69-114.17,4-9,10.29-18.13,8.45-27.83-1.09-5.8-5-10.63-9-15-17.48-18.79-39.83-32.9-55.46-53.26s-22.8-51.1-6.58-71c7.3-9,19.44-17.52,16.49-28.7-1.24-4.7-5-8.21-8.47-11.64C2802.82,1738.42,2755.75,1640.76,2829.11,1638.61Z"></path>
    <path fill="#265648" d="M2831.39,1691.07c17,20.78,32.86,42.45,48,64.64s29.14,45.1,42.47,68.4,25.73,47.14,37.38,71.32,22.52,48.74,32.64,73.6,19.28,50.11,27.79,75.56l6.23,19.15c2,6.39,4,12.82,5.94,19.23s3.76,12.88,5.65,19.32,3.52,12.95,5.28,19.42q10.26,38.92,18.08,78.44c1.28,6.58,2.44,13.19,3.66,19.78s2.22,13.24,3.33,19.85l3,19.9,2.58,20a2.66,2.66,0,0,1-5.26.75v-.05l-3.07-19.78-3.35-19.74c-1.23-6.56-2.41-13.12-3.69-19.67s-2.61-13.08-4-19.61q-8.19-39.17-18.85-77.77c-1.83-6.41-3.6-12.84-5.46-19.25s-3.73-12.8-5.68-19.18-3.93-12.74-6-19.1l-6.25-19q-12.78-37.92-27.81-75t-32.1-73.28c-11.45-24.08-23.73-47.77-36.64-71.1s-26.73-46.17-41.34-68.49-30-44.1-46.31-65.24a2.43,2.43,0,0,1,3.81-3Z"></path>
    <path fill="#265648" d="M2934.89 1864.48a3.31 3.31 0 0 1-.83-.1l-91.51-21.9a3.55 3.55 0 1 1 1.65-6.91l91.51 21.9a3.55 3.55 0 0 1-.82 7ZM2966.15 1915.13a3.54 3.54 0 0 1-3.35-4.73 581.53 581.53 0 0 0 23.65-88.64 3.55 3.55 0 0 1 7 1.28 589.39 589.39 0 0 1-23.94 89.73A3.56 3.56 0 0 1 2966.15 1915.13ZM3017.14 2045.2a3.55 3.55 0 0 1-2.94-5.54 405.38 405.38 0 0 0 34.22-61.43 3.55 3.55 0 1 1 6.48 2.91 412 412 0 0 1-34.82 62.5A3.52 3.52 0 0 1 3017.14 2045.2Z"></path>
    <path fill="#2e6857" d="M3109.84,1590c17.61,11.14,26.49,31.83,32.64,51.75s10.94,41,23.86,57.35c12.62,16,31.64,25.61,45.75,40.3,30.18,31.42,32.81,82,16.6,122.49-9.83,24.51-26.05,49.6-19.4,75.15,2.58,9.91,8.42,18.6,12.78,27.86,12.31,26.15,12.46,56.83,5.23,84.8s-21.38,53.68-36.9,78.05c-7.51,11.79-16.31,24.1-29.56,28.53-21.77,7.27-43.73-9.63-59.42-26.37-23.48-25-44.53-53-57-85s-15.9-68.35-4.36-100.67c3.61-10.1,8.64-19.79,10.56-30.34,6.72-37-25.64-70.73-26.22-108.31-.66-42.24,38.74-78.68,33.65-120.62-1.87-15.39-9.68-29.43-13-44.58C3037.26,1605.18,3076.05,1568.64,3109.84,1590Z"></path>
    <path fill="#265648" d="M3096.76,1638l5.19,19.92c1.69,6.64,3.53,13.26,4.88,20l4.38,20.1c.72,3.35,1.49,6.7,2.17,10.06l1.88,10.1,3.7,20.23c1.31,6.73,2.3,13.51,3.36,20.28l3.16,20.31c.5,3.39,1.11,6.77,1.52,10.17l1.35,10.19c3.81,27.14,6.72,54.39,9.39,81.65l1.83,20.47.91,10.23c.32,3.41.62,6.82.84,10.24l2.93,41,2.11,41c.2,3.42.3,6.85.41,10.27l.35,10.27.69,20.53c.68,27.38,1.2,54.78.86,82.18l-.06,10.27c0,3.43-.15,6.85-.21,10.28l-.53,20.54c-.21,13.7-1.06,27.39-1.66,41.08l-.53,10.26-.76,10.26-1.57,20.5c-.43,6.84-1.27,13.65-2,20.47l-2.25,20.45a2.65,2.65,0,0,1-5.28-.52v-.09l1.73-20.39c.58-6.79,1.29-13.57,1.59-20.39l1.18-20.44.58-10.21.33-10.23c.44-13.64,1.15-27.27,1.2-40.93l.3-20.47c0-3.41.14-6.82.1-10.24l-.06-10.23-.1-20.48,0-10.24-.2-10.24-.4-20.47c-.14-6.83-.24-13.65-.54-20.47l-.75-20.47-.38-10.24c-.13-3.41-.24-6.82-.45-10.23l-2.17-40.9-2.74-40.87c-.21-3.41-.5-6.81-.79-10.21l-.87-10.2-1.73-20.41q-3.78-40.77-8.8-81.42l-1.22-10.17c-.38-3.39-.94-6.75-1.4-10.13l-2.91-20.27c-1.77-13.54-4.31-26.94-6.51-40.4l-1.68-10.1c-.62-3.35-1.31-6.69-2-10l-4-20.07c-1.21-6.71-2.93-13.31-4.47-19.95l-4.65-19.91,0-.11a2.43,2.43,0,0,1,4.72-1.17Z"></path>
    <path fill="#265648" d="M3128.43 1845a3.54 3.54 0 0 1-2.09-.69l-29.77-21.74c-14-10.21-28.4-20.75-43-30.38a3.56 3.56 0 0 1 3.91-5.94c14.78 9.73 29.28 20.32 43.3 30.56l29.79 21.77a3.55 3.55 0 0 1-2.1 6.42ZM3139 1920.14a3.5 3.5 0 0 1-2.34-.89 3.54 3.54 0 0 1-.32-5c23.23-26.39 46-53.8 67.77-81.46a3.55 3.55 0 0 1 5.58 4.39c-21.81 27.76-44.7 55.27-68 81.76A3.53 3.53 0 0 1 3139 1920.14ZM3142.47 2050.92a3.51 3.51 0 0 1-1.95-.59 424.39 424.39 0 0 1-69-56.86 3.56 3.56 0 0 1 5.08-5 416.73 416.73 0 0 0 67.8 55.91 3.55 3.55 0 0 1-2 6.52ZM3148.75 2102a6.18 6.18 0 0 1-2.23-.4 5.37 5.37 0 0 1-3.37-4 4.25 4.25 0 0 1 6.22-4.63l47-33.69a4.26 4.26 0 1 1 5 6.93l-47.41 34A9.32 9.32 0 0 1 3148.75 2102Z"></path>
    <path fill="#40947e" d="M3399.74,1621.68c-20.77.41-39.06,14.48-51.5,31.12s-20.53,36.07-31.44,53.75c-3.77,6.11-8.05,12.19-14.12,16-7.82,5-17.52,5.61-26.46,8a67.51,67.51,0,0,0-45.87,44c-12.22,38.6,10.94,86.13-13.26,118.58-6.77,9.09-16.46,15.49-24.58,23.39-19.75,19.21-29.57,46.83-32.24,74.25s1.17,55,5.19,82.27q6,40.36,12.48,80.66c2.65,16.35,10.3,37,26.86,36.38,6.9-.27,12.91-4.58,18.37-8.81a607.52,607.52,0,0,0,108.36-108.21c25.83-33.3,48.88-78.09,30-115.78-4.42-8.83-11.17-17.6-9.81-27.39.81-5.84,4.45-10.86,8.25-15.36,16.53-19.64,38.16-34.82,52.77-55.93s20.26-52.16,3.08-71.24c-7.73-8.59-20.28-16.54-17.89-27.85,1-4.76,4.62-8.45,7.9-12C3430.89,1720.07,3473.11,1620.21,3399.74,1621.68Z"></path>
    <path fill="#265648" d="M3404,1677q-22.84,32.87-43,67.44T3323,1814.9c-11.74,23.94-22.84,48.2-33.1,72.82s-19.74,49.56-28.45,74.77-16.83,50.63-24.09,76.29l-5.31,19.29c-1.71,6.45-3.34,12.91-5,19.37s-3.15,13-4.72,19.44-3,13-4.51,19.49q-8.71,39.06-15,78.61c-1.07,6.58-2,13.18-3,19.78s-1.8,13.21-2.71,19.82l-2.38,19.88-2.09,19.91v.05a2.65,2.65,0,0,1-5.28-.49l1.59-20.06,2-20c.78-6.65,1.51-13.32,2.35-20s1.72-13.3,2.68-19.94q5.84-39.82,14.2-79.23c1.44-6.55,2.81-13.12,4.32-19.66s3.08-13.06,4.69-19.58,3.28-13,5-19.5l5.28-19.42q10.86-38.76,24-76.84t29-75.12c10.45-24.73,21.63-49.15,33.83-73.07s25.14-47.45,39-70.41,28.78-45.33,44.73-66.92A2.43,2.43,0,0,1,3404,1677Z"></path>
    <path fill="#265648" d="M3298.14 1851.54c-4.55-5.91-8.87-11.89-13.11-18a184.22 184.22 0 0 1-11.65-19.31c-1.74-3.36-3.34-6.78-4.85-10.23s-2.87-7-4.15-10.49a219.33 219.33 0 0 1-6.59-21.41 2.22 2.22 0 0 1 4.18-1.43h0c2.94 6.81 5.67 13.66 8.54 20.42 1.47 3.36 2.86 6.75 4.42 10s3.08 6.6 4.74 9.84c3.27 6.5 7 12.8 10.69 19.14s7.63 12.71 11.17 19.24h0a2 2 0 0 1-3.4 2.21ZM3289.86 1880.38c8.81-3.43 17.66-6.67 26.53-9.89l26.6-9.58 13.31-4.75 13.35-4.68c8.89-3.11 17.81-6.19 26.81-9.07a2.22 2.22 0 0 1 1.61 4.12c-8.59 4-17.33 7.65-26.12 11.13-4.4 1.76-8.83 3.41-13.25 5.1s-8.88 3.25-13.35 4.82c-8.93 3.12-17.9 6.13-26.94 8.92s-18.13 5.44-27.32 7.74a2 2 0 0 1-1.23-3.86ZM3226 2049.2c-3.94-6.31-7.51-12.85-10.86-19.5s-6.43-13.42-9.33-20.28c-1.42-3.44-2.78-6.9-4.13-10.37s-2.58-7-3.75-10.52c-2.37-7-4.5-14.19-6.18-21.45a2.22 2.22 0 0 1 4.21-1.34c2.8 6.84 5.46 13.69 8.16 20.53l4.1 10.23 2.05 5.11 2.09 5.1c2.77 6.8 5.65 13.55 8.53 20.32s5.85 13.5 8.71 20.31a2 2 0 0 1-3.6 1.86ZM3221.3 2088.59l23.28-16.45c7.74-5.5 15.47-11 23.13-16.59l5.75-4.18 5.73-4.23 11.44-8.46c7.61-5.67 15.19-11.38 22.87-17a2.22 2.22 0 0 1 2.83 3.4c-7 6.56-14.22 12.79-21.66 18.81-3.7 3-7.5 5.94-11.27 8.87s-7.66 5.73-11.54 8.53c-7.77 5.57-15.67 11-23.74 16.11s-16.26 10.08-24.68 14.63h0a2 2 0 0 1-2.13-3.44Z"></path>
    <path fill="#c7c365" d="M2991.19,2308.24h0l0,0Z"></path>
    <path fill="#f3ce90" d="M3265.27,2308.23,3230,2655.77a459.45,459.45,0,0,1-202.05.33l-1.49-.33L2995,2348.54l-3.74-40.31Z"></path>
    <path fill="#efba62" d="M3265.27,2308.23,3230,2655.77a456.51,456.51,0,0,1-49.08,8.37c55.89-448-186-315.6-186-315.6l-3.74-40.31Z"></path>
    <path fill="#ea9f44" d="M3283,2239.74v50.45a18,18,0,0,1-18,18l-98.89,3.75q-37.79,1.42-75.62,0l-98.93-3.75a18,18,0,0,1-18-18v-50.45a18,18,0,0,1,18-18l99.71,3.75q37.8,1.43,75.62,0l98.11-3.74A18,18,0,0,1,3283,2239.74Z"></path>
    <path fill="#f3ce90" d="M3283,2239.74v26.73a18,18,0,0,1-18,18l-98.89,3.74q-37.79,1.42-75.62,0l-98.93-3.74a18,18,0,0,1-18-18v-26.73a18,18,0,0,1,18-18l99.71,3.75q37.8,1.43,75.62,0l98.11-3.74A18,18,0,0,1,3283,2239.74Z"></path>
    <path fill="#fff" d="M3567.15,680c-22.1-33.41-49.63-57.16-79.49-71.2h0c-41.92-19.7-87.79-20-130.71-2.37-27.46,11.3-52.08,29.28-73.73,53a257.19,257.19,0,0,0-22,27.76c-33,48-51.51,109.4-53.47,169.32l52.75-4.66c.76-39.34,13.42-79.36,36.08-109.13a142.27,142.27,0,0,1,14.08-15.94c14-13.68,29.7-23.18,46.68-28,25.85-7.37,52.13-3.23,74.81,11.87,15.13,10.06,28.53,24.91,38.87,44.21,12.08,22.55,18.85,48.9,19.75,76.72l121.54-10.72C3609.05,768.13,3593.32,719.57,3567.15,680Z"></path>
    <path fill="#f3ce90" d="M3487.66,608.76h0l-55.48,101.85c-22.68-15.1-49-19.24-74.81-11.87-17,4.85-32.63,14.35-46.68,28a142.27,142.27,0,0,0-14.08,15.94l-35.36-55.53a257.19,257.19,0,0,1,22-27.76c21.65-23.76,46.27-41.74,73.73-53C3399.87,588.74,3445.74,589.06,3487.66,608.76Z"></path>
    <path fill="#ef7c59" d="M3567.15,680c-22.1-33.41-49.63-57.16-79.49-71.2l-55.48,101.85c15.13,10.06,28.53,24.91,38.87,44.21,12.08,22.55,18.85,48.9,19.75,76.72l121.54-10.72C3609.05,768.13,3593.32,719.57,3567.15,680Z"></path>
    <path fill="#93493a" d="M3433.74,783.89c-11.42-23.24-29.12-37.93-48.8-42.57l8.17-90.65c.27-3-3.15-2.91-4,.13l-24,89.16,0,.09a61.86,61.86,0,0,0-7.53,1.24c-12.06,2.73-23.3,8.93-33.51,18.27-23.36,21.4-36.45,56-36.87,89.94l158.62-14A122.76,122.76,0,0,0,3433.74,783.89Z"></path>
  </g>
</svg>
