<svg xmlns="http://www.w3.org/2000/svg" width="1906.397" height="1429.307" enable-background="new 0 0 2000 2000" viewBox="38.097 420.971 1906.397 1429.307" id="lost-data-recovery">
  <g opacity=".41">
    <path fill="#abe9ff" d="M142.16 932.37 142.16 932.37c0-101.28 88.06-183.38 196.68-183.38h41.03c-19.19-15.49-31.35-38.35-31.35-63.87v0c0-46.65 40.56-84.47 90.59-84.47h136.55c-13.81-11.08-22.59-27.47-22.59-45.79 0-33.38 29.02-60.44 64.82-60.44h342.87c35.8 0 64.82 27.06 64.82 60.44 0 33.38-29.02 60.44-64.82 60.44H832.38c-23.91 15.21-39.6 40.8-39.6 69.82v0c0 25.52 12.16 48.38 31.35 63.87h211.14c108.62 0 196.68 82.1 196.68 183.38l0 0c0 101.28-88.06 183.38-196.68 183.38h279.71c50.03 0 90.59 37.82 90.59 84.47 0 46.65-40.56 84.47-90.59 84.47h113.97c124.52 0 227.88 84.17 248.4 194.8h39.91c77.64 0 140.58 58.68 140.58 131.07v13.28c0 72.39-62.94 131.07-140.58 131.07h-288.31H485.4h-91.07c-139.27 0-252.17-105.26-252.17-235.11v0c0-129.85 112.9-235.11 252.17-235.11h441.46c-50.03 0-90.59-37.82-90.59-84.47 0-46.65 40.56-84.47 90.59-84.47H338.84C230.22 1115.75 142.16 1033.65 142.16 932.37zM1144.48 615.3c-32.52 0-58.89-27.06-58.89-60.44 0-33.38 26.37-60.44 58.89-60.44 32.52 0 58.89 27.06 58.89 60.44C1203.37 588.24 1177 615.3 1144.48 615.3z"></path>
  </g>
  <path fill="#231f20" d="M1857.84,1758.35c0,22.45-392.68,26.96-866.45,26.96s-849.22-4.51-849.22-26.96   c0-22.45,383.91-21.75,857.68-21.75C1473.61,1736.6,1857.84,1735.9,1857.84,1758.35z" opacity=".15"></path>
  <polygon fill="#f3b344" points="1428.18 818.01 1270.44 818.65 1269.93 693.62 1269.89 683 1301.25 682.87 1315.81 693.44 1427.68 692.99"></polygon>
  <rect width="147.09" height="7.43" x="1275.5" y="705.05" fill="#f1f2f2" transform="matrix(1 -.00402 .00402 1 -2.839 5.43)"></rect>
  <path fill="#f9a300" d="M1431.37,822.8l-167.36,0.67c-2.64,0.01-4.79-2.22-4.8-4.98l-0.41-100.65c-0.01-2.76,2.12-5.01,4.76-5.02    l167.36-0.67c2.64-0.01,4.79,2.22,4.8,4.98l0.4,100.65C1436.15,820.55,1434.01,822.79,1431.37,822.8z"></path>
  <path fill="#ffc300" d="M1425.95,811.83l-162.21,0.65c-2.52,0.01-4.58-2.03-4.59-4.55l-0.36-90.52c-0.01-2.52,2.03-4.58,4.55-4.59    l162.2-0.65c2.52-0.01,4.58,2.03,4.59,4.55l0.36,90.52C1430.51,809.77,1428.48,811.82,1425.95,811.83z"></path>
  <path fill="#fddb81" d="M1325.73,743.87c10.36-9.14,14.62-21.27,21.11-31.38l-83.49,0.34c-2.52,0.01-4.56,2.06-4.55,4.59l0.26,65.29    C1272.68,776.33,1302.05,764.75,1325.73,743.87z"></path>
  <path fill="#5c6ba2" d="M1215.38,1721.55v-594.83c0-15.19,12.31-27.5,27.5-27.5h-32.83c-15.19,0-27.5,12.31-27.5,27.5v594.83    c0,15.19,12.31,27.5,27.5,27.5h32.83C1227.69,1749.06,1215.38,1736.74,1215.38,1721.55z"></path>
  <path fill="#97b3e2" d="M1612.58,1749.06h-369.69c-15.19,0-27.5-12.31-27.5-27.5v-594.83c0-15.19,12.31-27.5,27.5-27.5h369.69    c15.19,0,27.5,12.31,27.5,27.5v594.83C1640.08,1736.74,1627.77,1749.06,1612.58,1749.06z"></path>
  <path fill="#caddec" d="M1639.17,1119.81c-3.07-11.84-13.79-20.59-26.59-20.59h-115.03l-276.48,639.03    c5.03,6.56,12.92,10.81,21.82,10.81h124.03L1639.17,1119.81z"></path>
  <polygon fill="#caddec" points="1215.38 1673.9 1464.02 1099.22 1408.14 1099.22 1215.38 1452.3"></polygon>
  <path fill="#2c3874" d="M1584.22,1464.22c0.29,0,0.57,0.03,0.85,0.04v-82.62c0.4-4.55,0.64-9.14,0.64-13.79    c0-4.65-0.24-9.25-0.64-13.79v-4.44c0-2.27-0.46-4.43-1.3-6.39c-11.81-74.85-76.6-132.08-154.76-132.08    c-78.17,0-142.95,57.24-154.76,132.08c-0.84,1.96-1.3,4.12-1.3,6.39v4.44c-0.4,4.55-0.64,9.14-0.64,13.79    c0,4.65,0.24,9.24,0.64,13.79v82.57c16.48,0,29.85,13.36,29.85,29.85c0,16.48-13.36,29.85-29.85,29.85v91.68    c16.05,0,29.11,12.68,29.78,28.57h251.71c0.67-15.89,13.73-28.57,29.78-28.57c0.29,0,0.57,0.04,0.85,0.04v-91.76    c-0.29,0.01-0.56,0.04-0.85,0.04c-16.48,0-29.85-13.36-29.85-29.85C1554.37,1477.58,1567.74,1464.22,1584.22,1464.22z"></path>
  <path fill="#97b3e2" d="M1441.72,1591.75h-37.73v-37.96c0-6.61-5.42-11.97-12.1-11.97h-86.38c-6.68,0-12.1,5.36-12.1,11.97v46.47    v7.2v3.45c0,4.7,3.85,8.51,8.61,8.51h3.49h86.38h49.83c4.75,0,8.61-3.81,8.61-8.51v-10.66    C1450.33,1595.56,1446.48,1591.75,1441.72,1591.75z"></path>
  <circle cx="1429.01" cy="1367.85" r="139.43" fill="#f0e0e3"></circle>
  <path fill="#fff" d="m1416.89 1506.73 106.99-241.03c-6.74-6.26-14.09-11.87-21.97-16.72l-112.15 252.66C1398.47 1504.2 1407.55 1505.92 1416.89 1506.73zM1370.57 1494.45l113.13-254.88c-3.08-1.32-6.23-2.5-9.42-3.59l-112.71 253.92C1364.51 1491.52 1367.51 1493.03 1370.57 1494.45z"></path>
  <circle cx="1429.01" cy="1367.85" r="47.33" fill="none" stroke="#e04c5a" stroke-miterlimit="10" stroke-width=".819"></circle>
  <circle cx="1429.01" cy="1367.85" r="47.33" fill="#f9c33d"></circle>
  <circle cx="1429.01" cy="1367.85" r="25.58" fill="#31407b"></circle>
  <path fill="#fee05e" d="M1361.58,1594.95c-9.18,12.36-26.65,14.94-39.01,5.76c-12.36-9.18-14.94-26.65-5.76-39.01     c9.18-12.36,105.32-120.38,117.68-111.2C1446.86,1459.69,1370.76,1582.59,1361.58,1594.95z"></path>
  <path fill="#cf963d" d="M1326.43,1600.91c-12.36-9.18-14.94-26.65-5.76-39.01c8.52-11.48,91.94-105.33,113.77-111.43     c-12.56-8.87-108.46,98.88-117.63,111.23c-9.18,12.36-6.6,29.83,5.76,39.01c5.12,3.81,11.13,5.56,17.05,5.47     C1334.99,1605.61,1330.44,1603.89,1326.43,1600.91z"></path>
  <path fill="#8989dd" d="M1348.25,1587.72c-4.24,5.71-12.3,6.9-18,2.66c-5.71-4.24-6.9-12.3-2.66-18c4.24-5.71,12.3-6.9,18.01-2.66     C1351.29,1573.96,1352.48,1582.02,1348.25,1587.72z"></path>
  <path fill="#56629e" d="M1340.64 1582.08c-1.12 1.51-3.25 1.82-4.75.7-1.51-1.12-1.82-3.24-.7-4.75 1.12-1.51 3.25-1.82 4.75-.7C1341.45 1578.44 1341.76 1580.57 1340.64 1582.08zM1350.7 1562.83 1350.7 1562.83c-.95-.71-1.15-2.05-.44-3l26-35.01c.71-.95 2.05-1.15 3-.44l0 0c.95.71 1.15 2.05.44 3l-26 35.01C1353 1563.34 1351.65 1563.54 1350.7 1562.83zM1387.84 1517.99c-1.02 1.37-2.95 1.65-4.31.64-1.37-1.02-1.65-2.95-.64-4.31 1.02-1.37 2.95-1.65 4.31-.64C1388.57 1514.7 1388.85 1516.63 1387.84 1517.99z"></path>
  <g>
    <path fill="#56629e" d="M1270.81,1142.29c0,6.83-5.54,12.37-12.37,12.37c-6.83,0-12.37-5.54-12.37-12.37      c0-6.83,5.54-12.37,12.37-12.37C1265.28,1129.92,1270.81,1135.46,1270.81,1142.29z"></path>
    <path fill="#97b3e2" d="M1265.06,1142.29c0,3.65-2.96,6.61-6.61,6.61c-3.65,0-6.61-2.96-6.61-6.61c0-3.65,2.96-6.61,6.61-6.61      C1262.1,1135.68,1265.06,1138.63,1265.06,1142.29z"></path>
    <g>
      <path fill="#56629e" d="M1608.53,1142.29c0,6.83-5.54,12.37-12.37,12.37s-12.37-5.54-12.37-12.37c0-6.83,5.54-12.37,12.37-12.37      S1608.53,1135.46,1608.53,1142.29z"></path>
      <path fill="#97b3e2" d="M1602.77,1142.29c0,3.65-2.96,6.61-6.61,6.61c-3.65,0-6.61-2.96-6.61-6.61c0-3.65,2.96-6.61,6.61-6.61      C1599.81,1135.68,1602.77,1138.63,1602.77,1142.29z"></path>
    </g>
  </g>
  <g>
    <path fill="#56629e" d="M1270.81,1709.4c0,6.83-5.54,12.37-12.37,12.37c-6.83,0-12.37-5.54-12.37-12.37      c0-6.83,5.54-12.37,12.37-12.37C1265.28,1697.04,1270.81,1702.57,1270.81,1709.4z"></path>
    <path fill="#97b3e2" d="M1265.06,1709.4c0,3.65-2.96,6.61-6.61,6.61c-3.65,0-6.61-2.96-6.61-6.61c0-3.65,2.96-6.61,6.61-6.61      C1262.1,1702.79,1265.06,1705.75,1265.06,1709.4z"></path>
    <g>
      <path fill="#56629e" d="M1608.53,1709.4c0,6.83-5.54,12.37-12.37,12.37s-12.37-5.54-12.37-12.37c0-6.83,5.54-12.37,12.37-12.37      S1608.53,1702.57,1608.53,1709.4z"></path>
      <path fill="#97b3e2" d="M1602.77,1709.4c0,3.65-2.96,6.61-6.61,6.61c-3.65,0-6.61-2.96-6.61-6.61c0-3.65,2.96-6.61,6.61-6.61      C1599.81,1702.79,1602.77,1705.75,1602.77,1709.4z"></path>
    </g>
  </g>
  <g>
    <path fill="#5283a8" d="M606.36,1749.06l543.43-0.51c28.24-0.02,51.12-22.03,51.09-49.14l-1-1016.84     c-0.03-27.83-23.55-50.36-52.54-50.34l-540.73,0.51c-28.99,0.03-52.47,22.61-52.44,50.44l1,1016.84     C555.2,1727.13,578.12,1749.08,606.36,1749.06z"></path>
    <path fill="#92bff7" d="M625.32,1739.07l518.15-0.49c27-0.03,48.86-21.42,48.84-47.78l-0.98-991.02     c-0.03-27.06-22.51-48.97-50.22-48.95l-515.57,0.48c-27.71,0.03-50.15,21.98-50.13,49.04l0.98,991.02     C576.41,1717.75,598.32,1739.1,625.32,1739.07z"></path>
    <rect width="555.65" height="1006.07" x="606.03" y="686.59" fill="#1d3b77" transform="translate(-1.224 .91)"></rect>
    <rect width="174.12" height="12.43" x="797.33" y="661.94" fill="#5f9bdd"></rect>
    <path fill="#5f9bdd" d="M823.01,1727.44l122.78-0.12c5.13,0,9.29-2.83,9.28-6.32l-0.01-10.62c0-3.48-4.17-6.3-9.3-6.3l-122.78,0.11     c-5.13,0.01-9.29,2.83-9.28,6.32l0.01,10.62C813.72,1724.63,817.88,1727.45,823.01,1727.44z"></path>
    <path fill="#fff" d="M605.64,753.53c27.45,112.55,85.78,290.76,217.3,475.51c117.52,165.09,248.19,271.77,339.03,334.8     c0.04,42.83,0.07,85.66,0.11,128.49l-555.65,0.61L605.64,753.53z" opacity=".06"></path>
    <g>
      <path fill="#7e7cf7" d="M1022.33,1065.88c0,20.65-16.74,37.39-37.39,37.39c-20.65,0-37.39-16.74-37.39-37.39     c0-20.65,16.74-37.39,37.39-37.39C1005.59,1028.5,1022.33,1045.24,1022.33,1065.88z"></path>
      <path fill="#bcb6f7" d="M818.78,1060.35c0,20.65-16.74,37.39-37.39,37.39c-20.65,0-37.39-16.74-37.39-37.39     c0-20.65,16.74-37.39,37.39-37.39C802.04,1022.96,818.78,1039.7,818.78,1060.35z"></path>
      <path fill="#d3d6fc" d="M916.86,1310.97c0,20.65-16.74,37.39-37.39,37.39c-20.65,0-37.39-16.74-37.39-37.39     c0-20.65,16.74-37.39,37.39-37.39C900.12,1273.59,916.86,1290.33,916.86,1310.97z"></path>
      <path fill="#fff" d="M1018.4,1273.59c0,20.65-16.74,37.39-37.39,37.39c-20.65,0-37.39-16.74-37.39-37.39     c0-20.65,16.74-37.39,37.39-37.39C1001.66,1236.2,1018.4,1252.94,1018.4,1273.59z"></path>
      <path fill="#c6c4f9" d="M811.16,1268.97c0,20.65-16.74,37.39-37.39,37.39c-20.65,0-37.39-16.74-37.39-37.39     c0-20.65,16.74-37.39,37.39-37.39C794.42,1231.59,811.16,1248.32,811.16,1268.97z"></path>
      <circle cx="886.63" cy="1022.96" r="37.39" fill="#9b9af3" transform="rotate(-67.5 886.613 1022.935)"></circle>
      <path fill="#c6c4f9" d="M771.24,1164.66c0,20.65-16.74,37.39-37.39,37.39c-20.65,0-37.39-16.74-37.39-37.39     c0-20.65,16.74-37.39,37.39-37.39C754.5,1127.27,771.24,1144.01,771.24,1164.66z"></path>
    </g>
    <g>
      <path fill="#e8eaf9" d="M1076.76,1497.92H678.3c-7.33,0-13.28,6.97-13.28,15.57l0,0c0,8.6,5.95,15.57,13.28,15.57h398.46     c7.33,0,13.28-6.97,13.28-15.57C1090.04,1504.89,1084.09,1497.92,1076.76,1497.92z"></path>
      <path fill="#fc6e3c" d="M911.23,1497.92H678.3c-7.33,0-13.28,6.97-13.28,15.57c0,8.6,5.95,15.57,13.28,15.57h232.93V1497.92z"></path>
    </g>
    <g>
      <path fill="#e6e9fc" d="M697.34 777.81c3.67-.64 9.18-1.12 14.85-1.12 7.74 0 13.01 1.28 16.6 4.31 2.95 2.48 4.63 6.23 4.63 10.78 0 6.94-4.71 11.65-9.74 13.49v.24c3.83 1.44 6.15 5.19 7.5 10.38 1.68 6.7 3.11 12.93 4.23 15.01h-10.14c-.8-1.6-2.07-5.99-3.59-12.69-1.52-7.03-4.07-9.26-9.66-9.42h-4.95v22.11h-9.74V777.81zM707.08 801.6h5.83c6.62 0 10.78-3.51 10.78-8.86 0-5.91-4.15-8.62-10.54-8.62-3.11 0-5.11.24-6.07.48V801.6zM772.83 807.02h-20.28v15.81h22.67v8.06h-32.49v-53.8h31.29v8.06h-21.47v13.89h20.28V807.02zM822.37 829.29c-2.31 1.2-7.42 2.4-13.89 2.4-17.08 0-27.46-10.7-27.46-27.06 0-17.72 12.29-28.42 28.73-28.42 6.47 0 11.1 1.36 13.09 2.4l-2.16 7.82c-2.55-1.12-6.07-2.08-10.53-2.08-10.93 0-18.84 6.86-18.84 19.8 0 11.81 6.94 19.4 18.76 19.4 3.99 0 8.14-.8 10.7-1.99L822.37 829.29zM876.39 803.43c0 18.04-10.93 28.34-25.78 28.34-15.17 0-24.74-11.57-24.74-27.38 0-16.52 10.38-28.18 25.54-28.18C867.13 776.21 876.39 788.11 876.39 803.43zM836.24 804.23c0 10.94 5.51 19.64 14.93 19.64 9.5 0 14.85-8.78 14.85-20.04 0-10.14-5.03-19.72-14.85-19.72C841.43 784.12 836.24 793.14 836.24 804.23zM896.87 830.89l-17.4-53.8h10.7l7.34 24.42c2.08 6.78 3.83 13.09 5.27 19.63h.16c1.44-6.39 3.35-12.93 5.51-19.48l7.82-24.58h10.46l-18.6 53.8H896.87zM962.61 807.02h-20.28v15.81h22.67v8.06h-32.49v-53.8h31.29v8.06h-21.47v13.89h20.28V807.02zM973.61 777.81c3.67-.64 9.18-1.12 14.85-1.12 7.74 0 13.01 1.28 16.6 4.31 2.95 2.48 4.63 6.23 4.63 10.78 0 6.94-4.71 11.65-9.74 13.49v.24c3.83 1.44 6.15 5.19 7.5 10.38 1.68 6.7 3.11 12.93 4.23 15.01h-10.14c-.8-1.6-2.07-5.99-3.59-12.69-1.52-7.03-4.07-9.26-9.66-9.42h-4.95v22.11h-9.74V777.81zM983.35 801.6h5.83c6.62 0 10.78-3.51 10.78-8.86 0-5.91-4.15-8.62-10.54-8.62-3.11 0-5.11.24-6.07.48V801.6zM1030.01 830.89v-22.43l-17-31.37h11.17l6.46 13.81c1.84 3.99 3.19 7.02 4.63 10.7h.16c1.35-3.43 2.87-6.79 4.71-10.7l6.47-13.81h11.1l-17.88 31.13v22.67H1030.01z"></path>
    </g>
    <g>
      <path fill="#e6e9fc" d="M847.17 1141.37c-1.35-.08-3.08 0-4.97.3-10.38 1.73-15.87 9.33-17 17.38h.23c2.33-3.08 6.39-5.64 11.81-5.64 8.65 0 14.74 6.24 14.74 15.8 0 8.95-6.09 17.22-16.25 17.22-10.45 0-17.3-8.12-17.3-20.84 0-9.63 3.46-17.23 8.27-22.04 4.06-3.99 9.48-6.47 15.65-7.22 1.95-.3 3.61-.38 4.81-.38V1141.37zM845.29 1169.57c0-7-3.99-11.21-10.08-11.21-3.99 0-7.67 2.48-9.48 6.02-.45.75-.75 1.73-.75 2.93.15 8.05 3.84 13.99 10.75 13.99C841.45 1181.31 845.29 1176.57 845.29 1169.57zM890.33 1160.62c0 16.62-6.17 25.8-17 25.8-9.56 0-16.02-8.95-16.17-25.12 0-16.4 7.07-25.43 17-25.43C884.47 1135.87 890.33 1145.05 890.33 1160.62zM863.78 1161.37c0 12.71 3.91 19.93 9.93 19.93 6.77 0 10-7.9 10-20.38 0-12.04-3.08-19.93-9.93-19.93C867.99 1140.99 863.78 1148.06 863.78 1161.37zM918.46 1150.47c0 10.31-5.42 15.42-11.73 15.42-6.1 0-11.36-4.89-11.44-14.74 0-9.78 5.34-15.27 11.81-15.27C913.94 1135.87 918.46 1141.14 918.46 1150.47zM900.55 1150.92c-.15 6.25 2.18 10.98 6.32 10.98 4.37 0 6.32-4.66 6.32-11.13 0-5.94-1.73-10.91-6.32-10.91C902.73 1139.86 900.55 1144.75 900.55 1150.92zM906.27 1186.42l28.73-50.55h4.21l-28.73 50.55H906.27zM950.28 1170.7c0 10.31-5.42 15.42-11.66 15.42-6.09 0-11.36-4.89-11.43-14.67 0-9.86 5.34-15.34 11.81-15.34C945.84 1156.11 950.28 1161.37 950.28 1170.7zM932.37 1171.15c-.08 6.24 2.33 10.98 6.39 10.98 4.36 0 6.32-4.66 6.32-11.13 0-5.94-1.73-10.91-6.32-10.91C934.63 1160.1 932.37 1164.98 932.37 1171.15z"></path>
    </g>
  </g>
  <g>
    <path fill="#fbddb8" d="M435.23,1717.72l0.98,13.93c0,0,14.78,4.9,17.29,2.34c2.51-2.56,5.01-8.87,5.01-8.87l0-9.05L435.23,1717.72z    "></path>
    <path fill="#19262d" d="M435.19,1729.53c-0.95-0.07-1.76,0.69-1.76,1.66v21.23c0,0-2.51,2.56,12.54,2.56s55.16,0,57.67-2.56    c2.51-2.56,0-5.12-12.54-10.23c-12.54-5.12-26.33-14.07-31.34-19.19c0,0-10.03,0-7.52,7.68    C452.24,1730.67,449.91,1730.67,435.19,1729.53z"></path>
    <path fill="#fbddb8" d="M336.92,1695.09l-4.79,13.09c0,0,11.44,10.73,14.76,9.47c3.32-1.26,8.17-5.93,8.17-5.93l4.83-7.79    L336.92,1695.09z"></path>
    <path fill="#19262d" d="M332.07,1705.81c-0.83-0.47-1.88-0.12-2.28,0.76l-8.66,19.31c0,0-3.32,1.26,10.36,7.65    c13.68,6.39,50.16,23.43,53.48,22.17c3.32-1.26,2.09-4.65-7.22-14.63c-9.31-9.98-18.2-23.98-20.67-30.76c0,0-9.12-4.26-9.97,3.78    C347.11,1714.08,344.99,1713.1,332.07,1705.81z"></path>
    <path fill="#0f192f" d="M431.05,1590.81c0,0-31.38,78.75-69.96,120.93l-29.39-12.18c0,0,46.89-95.62,57.91-114.35    c0,0,4.18-57.18,10.06-77.33C399.67,1507.87,439.02,1572.35,431.05,1590.81z"></path>
    <path fill="#142c4f" d="M399.67,1513.03l73.1,1.41c0,0,10.49,76.39,3.14,101.69c-7.35,25.31-14.7,106.86-14.7,106.86h-29.39    c0,0,0.92-80.61,1.84-126.54C433.66,1596.45,405.18,1535.53,399.67,1513.03z"></path>
    <path fill="#efceab" d="M418.04,1344.29l2.3-12.57l27.8-1.7l3.11,15.62C451.25,1345.63,438.64,1366.17,418.04,1344.29z"></path>
    <path fill="#fbddb8" d="M549.78,1393.2c0,0,7.83-3.56,16.61-5.17c8.78-1.6,24.5,3.95,14.76-11.2c-9.82-15.27-18.04-8.66-21.74-6.13     c-5.57,3.81,0.3,3.62-6.28,4.82c-6.59,1.2-13.46,6.73-13.46,6.73L549.78,1393.2z"></path>
    <path fill="#fdcc70" d="M476.45,1349.69c8.94,8.61,26.39,26.48,29.57,37.56c0,0,24.62-10.97,39.83-13.43     c0,0,12.21,16.13,12.19,21.92c0,0-45.7,22.75-58.72,15.34c-13.02-7.41-34.11-24.17-37.64-35.64c-2.14-6.97-3.85-16.35-1.42-22.91     C462.53,1346.42,471.55,1344.97,476.45,1349.69z"></path>
    <path fill="#d85" d="M461.7,1371.36c3.53,11.47,24.62,28.23,37.64,35.64c11.94,6.79,51.35-11.77,57.8-14.89     c0.56,1.41,0.91,2.67,0.91,3.63c0,0-45.7,22.75-58.72,15.34c-13.02-7.41-34.11-24.17-37.64-35.64c-0.74-2.41-0.93-5.01-0.66-7.63     C461.14,1369.03,461.34,1370.22,461.7,1371.36z"></path>
    <path fill="#f5f8fe" d="M417,1342.39c0,0,22.73,10.44,33.73-1.47c0,0,50.63,44.98,23.58,176.35c0,0-77.29-1.36-79.09-1.03    c-1.8,0.33,6.1-9.44,9.31-23.11c10.24-43.57,41.27-43.9,12.23-148.64C416.56,1343.75,416.48,1343.4,417,1342.39z"></path>
    <path fill="#fdcc70" d="M416.33,1342.1c0,0-0.22,0.02-0.64,0.08c-1.16,0.16-2.31,0.38-3.44,0.63c-6.6,2.28-24.08,10.14-26.76,30.23    c-3.32,24.84,16.43,73.9,12.5,95.85c-2.36,13.19-6.47,39.02-10.7,58.31c22.46,2.48,32.4-7.17,36.91-8.52    c6.22-12.12,8.45-36.92,14.42-58.64c1.15-2.96,1.15-13.54,2.01-16.71C455.66,1388.09,416.33,1342.1,416.33,1342.1z"></path>
    <path fill="#d85" d="M422.09,1394.25c0,0-1.06,24.6,15.97,30.14c0,0-18.59,11.5-25.15,0.84    C406.34,1414.56,422.09,1394.25,422.09,1394.25z"></path>
    <path fill="#d85" d="M385.14,1378.94c-0.01,1.18,0.01,2.39,0.07,3.64c0.02,0.49,0.04,0.98,0.08,1.48    c0.1,1.58,0.24,3.19,0.43,4.85c0.02,0.13,0.02,0.26,0.04,0.39c0.22,1.92,0.5,3.9,0.81,5.91c0.04,0.24,0.08,0.48,0.12,0.73    c0.3,1.85,0.62,3.72,0.97,5.63c0.04,0.2,0.07,0.39,0.11,0.59c2.65,14.07,6.6,29.4,8.9,42.74c0.01,0.06,0.02,0.12,0.03,0.17    c0.27,1.56,0.51,3.09,0.73,4.58c0,0,0,0,0,0v0c1.07,7.44,1.48,14.1,0.56,19.23c-2.36,13.19-6.47,39.02-10.7,58.31    c22.46,2.48,32.4-7.17,36.91-8.52c1.35-2.62,2.02-6.02,2.36-9.91c-36.98,23.76-35.01,7.99-28.63-8.43    c4.86-12.5,3.42-39.25,2.4-51.92c-0.37-19.07-3.43-42.78-6.16-64.07c-0.36-2.83-0.51-5.55-0.46-8.15    c0.24-13.34,6.87-25.26,17.04-32.83c-0.01,0-0.02,0.01-0.03,0.01c-0.08,0.03-0.16,0.07-0.24,0.1c-0.15,0.06-0.31,0.12-0.46,0.19    c-0.25,0.1-0.48,0.19-0.74,0.3c-0.02,0.01-0.05,0.02-0.08,0.03c-0.03,0.01-0.05,0.02-0.08,0.03c-0.49,0.21-0.99,0.43-1.52,0.68    c-0.2,0.09-0.41,0.21-0.62,0.31c-0.4,0.19-0.8,0.39-1.21,0.6c-0.24,0.13-0.5,0.27-0.75,0.41c-0.13,0.07-0.27,0.15-0.4,0.23    c-0.24,0.14-0.48,0.26-0.73,0.41c-0.02,0.01-0.03,0.02-0.05,0.03c-0.26,0.15-0.53,0.32-0.8,0.48c-0.4,0.24-0.8,0.49-1.21,0.76    c-0.28,0.18-0.56,0.38-0.85,0.58c-0.07,0.05-0.13,0.09-0.2,0.14c-0.03,0.02-0.06,0.04-0.09,0.07c-0.29,0.2-0.59,0.41-0.89,0.63    c-0.29,0.22-0.59,0.45-0.88,0.68c-0.05,0.04-0.1,0.08-0.15,0.12c-0.33,0.26-0.67,0.53-1,0.8c-0.29,0.25-0.58,0.5-0.87,0.76    c-0.16,0.14-0.32,0.3-0.49,0.45c-0.2,0.18-0.39,0.35-0.58,0.54c-0.02,0.02-0.03,0.03-0.05,0.05c-0.29,0.28-0.57,0.56-0.85,0.85    c-0.36,0.37-0.72,0.76-1.07,1.15c-0.27,0.31-0.55,0.62-0.81,0.94c-0.16,0.19-0.31,0.4-0.47,0.59c-0.18,0.23-0.36,0.45-0.54,0.68    c-0.26,0.34-0.51,0.68-0.76,1.03c-0.32,0.46-0.62,0.94-0.93,1.42c-0.23,0.37-0.46,0.73-0.68,1.11c-0.08,0.14-0.15,0.29-0.22,0.43    c-0.11,0.21-0.23,0.43-0.34,0.64c-0.09,0.18-0.19,0.35-0.28,0.52c-0.2,0.39-0.4,0.77-0.58,1.18c-0.26,0.58-0.49,1.19-0.73,1.8    c-0.16,0.4-0.32,0.79-0.47,1.21c-0.24,0.69-0.43,1.43-0.63,2.16c-0.1,0.37-0.22,0.71-0.31,1.09c-0.27,1.13-0.49,2.3-0.65,3.51    c-0.19,1.41-0.28,2.92-0.33,4.49C385.14,1377.98,385.14,1378.46,385.14,1378.94z"></path>
    <polygon fill="#9cd6e2" points="414.74 1342.32 434.92 1359.06 438.14 1346.94 421.97 1342.29"></polygon>
    <path fill="#9cd6e2" d="M450.74,1340.92l-11.83,5.54l11.18,13.13C450.09,1359.59,455.52,1346.16,450.74,1340.92z"></path>
    <path fill="#fdcc70" d="M482.92,1381.75c0,0-1.04-9.25-2.47-21.72c-0.41-3.63-3.96-12.22-9.51-14.56    c-7.55-3.19-11.67-3.26-20.21-4.54c0,0,22.92,93.03,21.3,163.9c0.53,6.44-0.34,11.02-0.7,14.27c0,0,2.34-2.86,12.8,2.53    c7.21,3.71-0.92-39.95-3.01-48.64C486.87,1439.19,486.28,1416.92,482.92,1381.75z"></path>
    <path fill="#a4caf4" d="M776.78,1246.54l-46.68-16.42l-2.6-48.21l43.98-34.16c-64.98-12.3-91.18,16.81-102.25,66.58     c-11.08,49.76-112.2,120.55-190.71,177.55c-78.51,57-74.41,31.71-137.43,42.54c-63.02,10.83-61.33,81.36-61.33,81.36l47.79-33.85     l45.65,14.58l1.27,50.17l-45.02,32.31c93.67,29.04,105.96-57.73,109.96-85.39c4-27.66,152.19-127.05,204.19-162.04     c52-34.99,54.47-32.72,119.23-36.05c64.77-3.33,59.89-81.77,59.89-81.77L776.78,1246.54z"></path>
    <path fill="#83b6ed" d="M822.72,1213.72l-45.94,32.82l-46.68-16.42l-2.6-48.21c0.33,115.43-205.63,202.99-274.27,258.13     c-46.37,37.25-74.45,12.53-85.93-8.55c-7.38,0.36-15.88,1.15-26.21,2.93c-63.02,10.83-61.33,81.36-61.33,81.36l47.79-33.85     l45.66,14.58l1.26,50.17l-45.02,32.31c93.67,29.04,105.96-57.73,109.96-85.39c3.99-27.66,152.19-127.05,204.19-162.04     c52-34.99,54.47-32.72,119.23-36.05C827.6,1292.16,822.72,1213.72,822.72,1213.72z"></path>
    <path fill="#5f9bdd" d="M382.66,1490.62l-57.83-16.88l-44.54,32.69c-0.59,5.71-0.52,9.34-0.52,9.34l47.79-33.85l45.66,14.58     l1.26,50.17l-45.02,32.31c2.2,0.68,4.31,1.24,6.41,1.8l48.06-34.52L382.66,1490.62z"></path>
    <polygon fill="#478cc9" points="374.47 1546.65 383.92 1546.24 382.66 1490.62 373.2 1496.48"></polygon>
    <path fill="#5f9bdd" d="M822.6,1224.01c0.36-6.25,0.12-10.3,0.12-10.3l-45.94,32.82l-46.68-16.42l-2.6-48.21l43.98-34.16     c-1.95-0.37-3.86-0.7-5.75-0.99l-46.15,32.89l2.09,58.19l55.22,16.52L822.6,1224.01z"></path>
    <polygon fill="#478cc9" points="721.67 1237.83 730.1 1230.12 727.5 1181.9 719.59 1179.64"></polygon>
    <g>
      <path fill="#fbddb8" d="M448,1459.68c0,0,5.52,3.08,9.66,7.39c4.15,4.3,8.04,10.82,17.87,0.06c9.91-10.84,4.39-13.92,0.62-12.56     c-3.77,1.37-8.92,3.95-12.03,0.72c-3.11-3.23-9.99-5.09-9.99-5.09L448,1459.68z"></path>
      <path fill="#fdcc70" d="M456.67,1449.33c0,0-9.69-7.07-19.56-13.63c-7.18-4.78-14.46-9.3-18.17-10.64c0,0,5.75-32.72,1.79-45.75     c-3.95-13.03-30.92-21.24-28.85,1.74s0.82,49.19,11.53,60.62c11.27,12.03,29.38,9.66,45.22,23.11L456.67,1449.33z"></path>
      <path fill="#d85" d="M403.4,1441.67c-11.44-11.87-10.29-48.25-12.36-71.23c-0.79-8.78,2.11-12.76,6.99-11.85     c-0.02,0.09-0.56,1.88-0.58,1.97c-3.13,18.38-5.85,65.29,13.41,74.25c13.05,6.07,29.96,18.94,39.51,26.62l-1.75,3.36     C432.78,1451.32,414.84,1453.54,403.4,1441.67z"></path>
    </g>
    <g>
      <path fill="#fbddb8" d="M460.4,1292.68c0,0,0.88,13.46,0.88,20.6c0,7.14,0.06,23.34-14.21,25.72c-14.27,2.38-22.42-4.64-27.67-7.68     c0,0-17.14-14.93-14.77-19.69c2.38-4.76,4.76-19.03,19.03-19.03C437.92,1292.59,460.4,1292.68,460.4,1292.68z"></path>
      <path fill="#221e52" d="M466.47,1279.03c-3.98-0.59-7.86-1.72-11.59-3.21l-28.06-11.22c-6.35-2.54-13.7-0.98-18.25,4.13     c-5.02,5.63-7.52,13.15-7.52,13.15l-4.76,4.76c-4.76,4.76-4.76,11.9,0,21.41c4.76,9.52,23.79,23.79,23.79,23.79     c2.38,0-4.76-7.14-7.14-9.52c-2.38-2.38-7.14-9.52-2.38-9.52c4.76,0,9.52,9.52,9.52,9.52c2.38-7.14-2.38-23.79-2.38-23.79     s14.27,2.38,33.31-2.38c19.03-4.76,21.41-16.65,21.41-16.65C470.38,1279.51,468.34,1279.31,466.47,1279.03z"></path>
    </g>
  </g>
  <g>
    <path fill="#1e2b5b" d="M1432.72,977.83l14.45-4.99c0.94-0.33,1.98,0.13,2.38,1.05l17.79,41.56c0.51,1.19-0.29,2.54-1.59,2.65     l-16.49,1.45c-0.83,0.07-1.61-0.4-1.93-1.17l-15.75-38.01C1431.16,979.35,1431.68,978.19,1432.72,977.83z"></path>
    <path fill="#fdc596" d="M1444.02,987.2c0.9-0.82,2.34-0.28,2.45,0.94c0.09,0.98-0.04,2.2-0.73,3.53c-1.71,3.26-1.86,6.99-1.09,6.99     c0.78,0,2.95-6.99,5.59-6.44c2.64,0.54-2.79,8.77-2.02,9.86c0.78,1.09,3.73-5.74,5.12-4.5c1.4,1.24-3.26,8.38-2.79,9.32     c0.47,0.93,3.57-2.95,3.88-1.55c0.31,1.4-0.45,4.19-5.12,7.14c0,0-7,4.97-10.41,1.24     C1435.67,1010.18,1434.25,996.19,1444.02,987.2z"></path>
    <path fill="#e55daa" d="M1478.38,986.81c-5.58,10.62-19.31,9.33-19.31,9.33l0,0l6.73,15.72c17.21,4.84,32.9-13.83,32.9-13.83     c12.8-12.5,16.42-76.31,16.42-76.31C1494.79,927.3,1483.96,976.19,1478.38,986.81z"></path>
    <path fill="#e2a36a" d="M1494.44,1228.65c0,0,1.3,4.72,1.21,9.78l6.61-1.55l-0.4-8.33L1494.44,1228.65z"></path>
    <path fill="#e2a36a" d="M1481.37,1241.82c0.11,1.34,21.38,0.27,21.38,0.27l-0.49-5.22l-6.71,0.09     C1495.55,1236.96,1481.26,1240.48,1481.37,1241.82z"></path>
    <path fill="#2d313d" d="M1502.81,1242.05l-0.34-2.91c0,0-1.23,1.64-7.73,1.73c-5.73,0.08-6.4-1.96-6.4-1.96     c-5.35,1.62-8.34,1.92-7.56,3.01C1481.77,1243.34,1502.81,1242.05,1502.81,1242.05z"></path>
    <path fill="#d38753" d="M1501.86,1228.54l0.32,6.97c0,0-3.11-1.88-6.59,0.09c0,0-0.54-5.15-1.15-6.96L1501.86,1228.54z"></path>
    <path fill="#e2a36a" d="M1463.4,1229.08c0,0,1.3,4.72,1.21,9.78l6.61-1.55l-0.4-8.33L1463.4,1229.08z"></path>
    <path fill="#e2a36a" d="M1450.34,1242.25c0.11,1.34,21.38,0.27,21.38,0.27l-0.49-5.22l-6.71,0.09     C1464.51,1237.4,1450.23,1240.92,1450.34,1242.25z"></path>
    <path fill="#2d313d" d="M1471.78,1242.48l-0.34-2.91c0,0-1.23,1.64-7.73,1.73c-5.73,0.08-6.4-1.96-6.4-1.96     c-5.35,1.62-8.34,1.92-7.56,3.01C1450.74,1243.77,1471.78,1242.48,1471.78,1242.48z"></path>
    <path fill="#d38753" d="M1470.82,1228.98l0.31,6.97c0,0-3.11-1.88-6.59,0.09c0,0-0.54-5.15-1.15-6.96L1470.82,1228.98z"></path>
    <path fill="#476291" d="M1502.94 1045.74c0 0 41.69 11.82 36.11 50.14l-107.32 1.5c0 0-3.36-16.45 3.37-23.97C1441.76 1065.95 1502.94 1045.74 1502.94 1045.74zM1462.69 1096.95l-30.68.43c0 0 0 0 0 0 0 0 14.74 42.04 30.57 135.43l10.79-.15c0 0 6.68-69.95 4.77-88.78C1476.48 1127.54 1465.55 1103.12 1462.69 1096.95z"></path>
    <path fill="#3e5c87" d="M1478.02 1142.46c-1.4-6.55-2.73-12.29-3.97-17.26-4.67-14.47-11.63-28.5-11.63-28.5l3.02-.02c-.16-1.08-.82-6.08-.31-11.49-6.86 2.39-11.93 4.42-12.18 5.26-.79 2.69 15.61 42.47 17.01 54.61 1.4 12.15-1.1 87.66-1.1 87.66l4.49-.06c0 0 5.79-71.23 4.77-88.78C1478.1 1143.42 1478.06 1142.94 1478.02 1142.46zM1503.5 1046.42l10.51 12.91c13.67-2.78 28.73-5.51 42.69-8.19C1538.49 1053.1 1520.73 1051.72 1503.5 1046.42z"></path>
    <path fill="#5775aa" d="M1587.72 1044.55c0 0 12.39 20.08 3.4 50.6l-125.64 1.76c0 0-2.78-16.75 4.25-23.98C1479.53 1062.85 1552.33 1053.46 1587.72 1044.55zM1496.24 1096.48l-30.76.43c0 0 13.7 30.19 27.39 135.48l10.83-.15c0 0 7.91-69.97 6.37-88.8C1508.54 1124.6 1496.24 1096.48 1496.24 1096.48z"></path>
    <path fill="#476291" d="M1591.12,1095.15l-94.88,1.33c0,0,12.77,30.89,13.84,46.95c1.35,20.33-6.37,88.8-6.37,88.8l-4.02,0.06    c0,0,4.79-70.29,2.73-87.89c-2.06-17.6-17.68-51.51-15.15-55.15c2.53-3.64,68.79-8.17,106.85-21.59    C1594.12,1067.65,1595.58,1083.64,1591.12,1095.15z"></path>
    <path fill="#ff77c4" d="M1520.87,994.87c0.26,18.46-5.6,29.97-19.37,50.95c27.74,9.04,56.87,7.8,87.04-1.22    c-6.72-17.81-16.77-32.31-27.95-44.92c-0.08-0.09-0.18-0.2-0.25-0.28c-0.13-0.15-0.25-0.28-0.33-0.37    c-0.1-0.1-0.24-0.26-0.24-0.26c-5.89-10.32,11.76-22.49,18.5-42.79c6.87-20.69,3.59-31.39,3.59-31.39    c-26.12-11.27-41.38-13.74-70.75-1.24l-0.86,17.91c0,0-7.81,14.09-6.83,20.34C1504.42,967.85,1520.73,985.03,1520.87,994.87z"></path>
    <path fill="#ed65b2" d="M1501.5,1045.82c2.49-8.79,19.77-22.43,19.37-50.95c-0.16-11.43-16.43-24.69-17.44-33.43    c6.14,2.53,31.47,10.05,71.52,2.27c-7.44,20.45-16.94,26.06-15.18,35.07c0,0,0.14,0.16,0.23,0.26c0.09,0.1,0.2,0.22,0.33,0.37    c0.07,0.07,0.17,0.19,0.25,0.28c11.18,12.61,21.23,27.11,27.95,44.92c-14.77,4.41-29.29,6.93-43.52,7.33    C1530.94,1052.09,1514.96,1050.2,1501.5,1045.82z"></path>
    <path fill="#db52a3" d="M1533.1,1006.17c0-2.53-1.36-8.6-2.8-15.04c-2.06-9.17-4.39-19.57-4.02-24.7    c0.62-8.71,9.03-33.55,9.39-34.61l1.16,0.4c-0.09,0.26-8.72,25.74-9.33,34.3c-0.35,4.95,1.96,15.26,4,24.35    c1.52,6.79,2.84,12.65,2.83,15.31c-0.02,15.5-3.22,29.84-9.95,44.72c-0.43-0.05-0.86-0.07-1.29-0.13    C1529.86,1035.91,1533.08,1021.62,1533.1,1006.17z"></path>
    <g>
      <path fill="#f4be84" d="M1517.17,1027.51c-0.5,0.3-0.99,0.58-1.52,0.9c-2.76,1.81-6.03,3.52-8.3,5.14l0.01-0.02     c-7.51,4.44-8.13,5.6-8.8,6.48c-0.83,1.1-2.75,7.15-1.96,7.44c2.64-0.75,3.09-5.3,3.69-5.83c0.5-0.43,3.82-1.84,5.02-2.34     c0.16,0.26,0.33,0.5,0.53,0.72c-1.74,5.93-1.5,6.64-1.78,8.17c-0.26,1.41-0.19,7.44,0.98,7.22c1.51-1.4,1.27-5.73,1.39-6.58     c0.12-0.82,2.44-6.46,2.61-6.88c0.11,0.03,0.23,0.07,0.34,0.1c-1.13,4.11-0.97,4.8-1.21,6.1c-0.25,1.35-0.18,7.14,0.94,6.93     c1.45-1.34,1.22-5.5,1.34-6.31c0.1-0.72,1.99-5.36,2.43-6.42c0.13-0.01,0.25-0.02,0.38-0.03c-0.41,1.79-0.37,2.34-0.53,3.19     c-0.21,1.14-0.15,6.04,0.79,5.87c1.23-1.14,1.03-4.65,1.13-5.34c0.07-0.5,1.17-3.24,1.76-4.7c0.11-0.06,0.23-0.12,0.33-0.19     c2.02-1.61,3.42-4.73,4.21-6.9C1519.78,1032.81,1518.01,1030.31,1517.17,1027.51z"></path>
      <path fill="#ff77c4" d="M1581.36,924.78c16.3,0.55,35.18,91.94,24.63,103.74c-13.65,17.21-58.95,6.56-84.02,6.9     c0,0-4.44-4.55-5.16-9.45c17.78-10.31,64.28-11.17,68.32-13.13C1589.16,1010.87,1565.11,924.23,1581.36,924.78z"></path>
      <path fill="#e55daa" d="M1603.78,1024.52c8.28-9.26-1.58-67.41-14.08-92.32c13.5,21.96,25.05,86.51,16.28,96.32     c-13.65,17.21-58.95,6.56-84.02,6.9c0,0-1.5-1.65-2.91-3.92C1544.3,1031.37,1590.27,1041.56,1603.78,1024.52z"></path>
    </g>
    <polygon fill="#db52a3" points="1565.85 918.47 1546.77 937.99 1541.05 929.92 1535.77 934.57 1532.13 929.28 1525.85 935.99 1525.29 918.15 1536.7 919.28"></polygon>
    <polygon fill="#ed65b2" points="1565.85 918.47 1556.99 905.23 1536.7 919.28 1546.06 933.28"></polygon>
    <polygon fill="#ed65b2" points="1532.25 908.73 1536.7 919.28 1526.76 931.63 1525.29 918.15"></polygon>
    <g>
      <path fill="#feb48c" d="M1532.67,909.72l4.03,9.56l19.08-13.21c-0.45-0.07-0.91-0.11-1.41-0.11l-0.36-5.31     c-5.34,4.67-12.51,9.02-18.53,8.32c-0.68-0.08-1.35-0.25-2.01-0.47l0.05,0.78C1533.22,909.42,1532.94,909.57,1532.67,909.72z"></path>
      <path fill="#ba6549" d="M1545.11,910.21c5.25-1.38,9.09-6.67,9.09-6.67c-0.07-1.04-0.14-1.99-0.2-2.88     c-5.34,4.67-12.51,9.02-18.53,8.32c-0.68-0.08-1.34-0.25-2-0.47c0.02,0.27,0.04,0.55,0.06,0.81     C1533.53,909.32,1538.97,911.83,1545.11,910.21z"></path>
      <path fill="#feb48c" d="M1561.82,891c-0.34-3.06-0.79-5.98-1.32-8.67c-2.09-1.5-4.13-3.08-6.07-4.75      c0.38,0.37,0.62,0.59,0.62,0.59c-0.39-0.33-0.75-0.68-1.13-1.01c-0.41-0.36-0.83-0.73-1.23-1.1c-1.35-1.25-2.67-2.53-3.9-3.9      c-5.27-5.88-10.22-12.61-11.04-20.37c-4.63,4.11-9.59,7.03-15.07,9.04c-1.88,2.94-4.07,6.84-6.04,11.52      c0.11,5.64,0.27,11.74,0.45,13.97c0.37,4.55,8.54,21.52,18.39,22.67c10.57,1.24,24.77-13.11,26.18-17.46      C1561.7,891.38,1561.76,891.18,1561.82,891z"></path>
      <path fill="#feb48c" d="M1517.67 878.22c.09 1.82.17 3.43.02 4.66-.16 1.22-.57 2.1-1.55 2.24-.96.14-2.16-.6-3.1-2.06-.48-.73-.88-1.63-1.18-2.64-.28-1.01-.45-2.13-.45-3.28 0-2.31.64-4.24 1.48-5.4.85-1.17 1.86-1.57 2.74-1.15.89.42 1.34 1.45 1.6 2.8C1517.5 874.73 1517.58 876.4 1517.67 878.22zM1561.6 884.22c-.8 1.85-1.51 3.49-1.84 4.83-.31 1.33-.23 2.4.73 2.93.94.52 2.47.22 4.02-.93.78-.57 1.55-1.35 2.25-2.28.69-.94 1.3-2.04 1.75-3.23.91-2.39.99-4.65.57-6.18-.42-1.54-1.31-2.36-2.39-2.26-1.09.09-1.95.99-2.75 2.28C1563.14 880.66 1562.41 882.37 1561.6 884.22z"></path>
    </g>
    <g>
      <path fill="#644032" d="M1522.09,841.51c-2.85,3.02-4.71,7.03-5.9,11.06c-1.03,3.48-1.65,7.07-2.38,10.63      c9.21-1.66,16.94-5.21,23.94-11.42c0.81,7.76,5.77,14.48,11.04,20.37c5.52,6.16,12.37,10.91,19.38,15.36      c2.16-5.66,4.16-11.39,5.29-17.33c1.39-7.32,1.38-15.07-1.26-22.03c-2.65-6.96-8.2-13.03-15.34-15.16      c-6.56-1.95-14.33-0.03-18.69,5.14c-3.79-2.11-9.01-1.72-12.79,0.67C1524.15,839.56,1523.06,840.48,1522.09,841.51z"></path>
      <path fill="#4b3026" d="M1538.25 847.72c.04 15.2 16.8 30.45 16.8 30.45-2.22-1.86-4.32-3.85-6.26-6.01-5.27-5.88-10.22-12.61-11.04-20.37-7 6.21-14.73 9.76-23.94 11.42.09-.43.18-.87.26-1.3C1525 859.83 1532.17 856.94 1538.25 847.72zM1554.54 832.48c.78.12 1.55.29 2.31.52 7.14 2.13 12.69 8.2 15.34 15.16 2.65 6.96 2.65 14.71 1.26 22.03-1.13 5.94-3.13 11.67-5.29 17.33 0 0 2.27-15.25 2.96-22.82C1571.97 851.97 1566.88 837.37 1554.54 832.48zM1522.09 841.51c.97-1.03 2.06-1.95 3.27-2.71 3.79-2.39 9.01-2.78 12.79-.67 1.9-2.25 4.44-3.88 7.25-4.85-3.82 2.31-6.04 4.22-7.18 8.45-5.56-6.23-12.61-2.53-16.25-.08C1522.02 841.6 1522.05 841.56 1522.09 841.51zM1546.36 839.17c-.65 13.36 2.73 24.28 13.73 32.58C1548.94 862.1 1546.7 850.61 1546.36 839.17z"></path>
      <path fill="#4b3026" d="M1568.27,868.67c-6.39-2.82-11.77-8.05-14.81-14.62C1555.47,860.82,1561.25,866.63,1568.27,868.67z"></path>
      <path fill="#644032" d="M1527.28 854.49c0 0-16.08 18.02-16.17 44.22 0 0-2.71-14.11-.26-24.42 2.08-8.73 3.87-15.58 3.87-15.58L1527.28 854.49zM1555.37 864.52c0 0 10.45 24.71 5.88 49.85 0 0 6.94-12.94 6.86-23.49-.07-8.94-.25-16-.25-16L1555.37 864.52z"></path>
    </g>
  </g>
  <g>
    <path fill="#66e8c4" d="M1768.92,1689.25c2.7-1.97,8.19,0.39,26.02-7.03c26-10.83,36.16-66.79,36.16-66.79     c-39.57-4.95-37.07,52.06-52.38,61.81c-6.91,4.4-10.16,8.66-11.65,12.02H1768.92z"></path>
    <path fill="#3fd2c5" d="M1818.82,1632.09c-8.14,16.58-17.74,41.04-33.95,48.85c-4.52,2.18-7.83,4.64-10.3,7.06     c3.91-0.48,10.07-1.5,20.36-5.79c26-10.83,36.16-66.79,36.16-66.79S1826.95,1615.51,1818.82,1632.09z"></path>
    <path fill="#35bfe6" d="M1752.23,1689.25h4.29c2.79-5.93,3.68-17.06-5.64-37.52c-17.25-37.85-25.95-86.94-13.93-101.38     c0,0-41.16,29.33-31.8,59.85C1713.93,1638.84,1758.15,1657.92,1752.23,1689.25z"></path>
    <path fill="#0a88d2" d="M1753.97,1689.25h2.54c2.79-5.92,3.68-17.06-5.64-37.52c-17.25-37.85-25.95-86.94-13.93-101.38     c0,0-27.16,30.21-16.86,59.14C1730.26,1638.05,1761.62,1652.92,1753.97,1689.25z"></path>
    <path fill="#49d3d5" d="M1711.59,1673.25c15.66,6.38,22.36,10.63,26.73,16h5.5c-4.11-12.43-6.56-25.72-16.21-35.77     c-10.95-11.41-53.17-30.2-54.62-32.38C1671.54,1618.93,1690.43,1664.63,1711.59,1673.25z"></path>
    <path fill="#0fa1b8" d="M1738.98,1685.74c0.33,1,0.8,2.2,1.37,3.51h3.46c-4.11-12.43-6.56-25.72-16.21-35.77     c-10.95-11.41-53.17-30.2-54.62-32.38c0,0,20.49,25.7,43.28,37.44C1732.58,1666.96,1736.9,1679.39,1738.98,1685.74z"></path>
    <path fill="#66e8c7" d="M1764.11,1671.31c-0.53,7.5-2.22,13.48-4.02,17.94h3c10.28-13.27,26.09-39.04,23.13-69.12     c-4.33-43.96-9.03-99.07-9.03-99.07s-57.87,43.87-29.39,92.54C1761.99,1637.86,1765.1,1657.21,1764.11,1671.31z"></path>
    <path fill="#3fd2c5" d="M1767.04,1590.21c5.87,36.43,5.94,77.22-3.41,94.48c1.71-1.21,3.53-2.48,5.4-3.76      c9.42-14.36,19.62-36.12,17.19-60.79c-4.33-43.96-9.03-99.07-9.03-99.07S1759.41,1542.79,1767.04,1590.21z"></path>
    <path fill="#cadbf9" d="M1798.13,1686.58h-65.86c-5.84,0-10.27,5.26-9.27,11.02l8.42,48.47c1.31,6.88,7.33,11.86,14.33,11.86h38.9    c7.01,0,13.02-4.98,14.33-11.86l8.42-48.47C1808.39,1691.84,1803.97,1686.58,1798.13,1686.58z"></path>
    <path fill="#a1b7eb" d="M1807.52,1696.31c0.19-5.23-3.99-9.73-9.39-9.73h-65.86c-5.4,0-9.58,4.5-9.39,9.73H1807.52z"></path>
    <path fill="#a1b7eb" d="M1798.13,1686.58h-18.31c5.84,0,10.27,5.26,9.27,11.02l-8.42,48.47c-1.31,6.88-7.32,11.86-14.33,11.86h18.31    c7.01,0,13.02-4.98,14.33-11.86l8.42-48.47C1808.39,1691.84,1803.97,1686.58,1798.13,1686.58z"></path>
  </g>
  <g>
    <path fill="#66e8c4" d="M220.76,1689.25c2.7-1.97,8.19,0.39,26.02-7.03c26-10.83,36.16-66.79,36.16-66.79     c-39.57-4.95-37.07,52.06-52.38,61.81c-6.91,4.4-10.16,8.66-11.65,12.02H220.76z"></path>
    <path fill="#3fd2c5" d="M270.67,1632.09c-8.14,16.58-17.74,41.04-33.95,48.85c-4.52,2.18-7.83,4.64-10.3,7.06     c3.91-0.48,10.07-1.5,20.36-5.79c26-10.83,36.16-66.79,36.16-66.79S278.8,1615.51,270.67,1632.09z"></path>
    <path fill="#35bfe6" d="M204.07,1689.25h4.29c2.79-5.93,3.68-17.06-5.64-37.52c-17.25-37.85-25.95-86.94-13.93-101.38     c0,0-41.16,29.33-31.8,59.85C165.78,1638.84,209.99,1657.92,204.07,1689.25z"></path>
    <path fill="#0a88d2" d="M205.82,1689.25h2.54c2.79-5.92,3.68-17.06-5.64-37.52c-17.25-37.85-25.95-86.94-13.93-101.38     c0,0-27.17,30.21-16.86,59.14C182.11,1638.05,213.47,1652.92,205.82,1689.25z"></path>
    <path fill="#49d3d5" d="M163.43,1673.25c15.66,6.38,22.36,10.63,26.73,16h5.5c-4.11-12.43-6.56-25.72-16.21-35.77     c-10.95-11.41-53.17-30.2-54.62-32.38C123.38,1618.93,142.28,1664.63,163.43,1673.25z"></path>
    <path fill="#0fa1b8" d="M190.83,1685.74c0.33,1,0.8,2.2,1.37,3.51h3.46c-4.11-12.43-6.56-25.72-16.21-35.77     c-10.95-11.41-53.17-30.2-54.62-32.38c0,0,20.49,25.7,43.28,37.44C184.43,1666.96,188.75,1679.39,190.83,1685.74z"></path>
    <path fill="#66e8c7" d="M215.96,1671.31c-0.53,7.5-2.22,13.48-4.02,17.94h3c10.28-13.27,26.09-39.04,23.13-69.12     c-4.33-43.96-9.03-99.07-9.03-99.07s-57.86,43.87-29.39,92.54C213.84,1637.86,216.95,1657.21,215.96,1671.31z"></path>
    <path fill="#3fd2c5" d="M218.89,1590.21c5.87,36.43,5.94,77.22-3.41,94.48c1.71-1.21,3.53-2.48,5.39-3.76      c9.42-14.36,19.62-36.12,17.19-60.79c-4.33-43.96-9.03-99.07-9.03-99.07S211.26,1542.79,218.89,1590.21z"></path>
    <path fill="#cadbf9" d="M249.97,1686.58h-65.86c-5.84,0-10.27,5.26-9.27,11.02l8.42,48.47c1.31,6.88,7.33,11.86,14.33,11.86h38.9    c7.01,0,13.02-4.98,14.33-11.86l8.42-48.47C260.24,1691.84,255.81,1686.58,249.97,1686.58z"></path>
    <path fill="#a1b7eb" d="M259.37,1696.31c0.19-5.23-3.99-9.73-9.39-9.73h-65.86c-5.4,0-9.58,4.5-9.39,9.73H259.37z"></path>
    <path fill="#a1b7eb" d="M249.97,1686.58h-18.31c5.84,0,10.27,5.26,9.27,11.02l-8.42,48.47c-1.31,6.88-7.32,11.86-14.33,11.86h18.31    c7.01,0,13.02-4.98,14.33-11.86l8.42-48.47C260.24,1691.84,255.81,1686.58,249.97,1686.58z"></path>
  </g>
  <g>
    <path fill="#a9ceea" d="M1593.75,636.14c-7.12,5.91-13.26,13.1-18.02,21.37l-26.75-3.53l-7.45,23.97l23.93,12.19     c-0.85,9.59,0.07,19.09,2.57,28.07l-21.33,16.35l11.67,22.21l25.68-8.35c5.98,7.04,13.24,13.08,21.57,17.73l-3.57,26.97     l23.96,7.45l12.5-24.53c9.29,0.69,18.48-0.29,27.19-2.74l16.92,22.07l22.21-11.68l-8.69-26.76c6.69-5.78,12.47-12.72,16.98-20.65     l28.08,3.71l7.45-23.97l-25.35-12.92c0.7-9-0.16-17.91-2.42-26.37l22.59-17.32l-11.67-22.21l-26.93,8.76     c-5.7-6.77-12.58-12.63-20.44-17.24l3.69-27.87l-23.96-7.45l-12.62,24.77c-9.3-0.86-18.5-0.03-27.25,2.27l-16.73-21.84     l-22.22,11.68L1593.75,636.14z M1656.12,659.18c20.91,6.5,32.58,28.71,26.08,49.62c-6.5,20.91-28.72,32.59-49.63,26.1     c-20.91-6.5-32.58-28.71-26.08-49.62C1613,664.37,1635.22,652.69,1656.12,659.18z"></path>
    <path fill="#c9e2f4" d="M1603.73,640.1c-7.12,5.91-13.26,13.1-18.02,21.37l-26.75-3.53l-7.45,23.97l23.93,12.19     c-0.85,9.59,0.07,19.09,2.57,28.07l-21.32,16.35l11.67,22.21l25.68-8.35c5.98,7.04,13.24,13.08,21.57,17.73l-3.57,26.97     l23.96,7.45l12.5-24.53c9.3,0.69,18.48-0.29,27.19-2.74l16.92,22.07l22.21-11.68l-8.69-26.76c6.69-5.78,12.47-12.72,16.98-20.65     l28.08,3.71l7.45-23.97l-25.35-12.92c0.7-9-0.16-17.91-2.42-26.37l22.59-17.32l-11.68-22.21l-26.93,8.75     c-5.7-6.77-12.58-12.63-20.44-17.24l3.69-27.87l-23.96-7.44l-12.62,24.76c-9.3-0.85-18.5-0.03-27.25,2.27l-16.73-21.84     l-22.21,11.68L1603.73,640.1z M1666.1,663.14c20.91,6.5,32.58,28.71,26.08,49.62c-6.5,20.91-28.72,32.59-49.63,26.1     c-20.91-6.5-32.58-28.71-26.08-49.62C1622.98,668.33,1645.2,656.65,1666.1,663.14z"></path>
    <polygon fill="#a9ceea" points="1692.61 799.33 1687.58 792.77 1682.63 795.37"></polygon>
    <polygon fill="#a9ceea" points="1568.35 760.72 1558.38 756.77 1565.12 754.57"></polygon>
    <polygon fill="#a9ceea" points="1612.04 797.08 1602.06 793.12 1612.15 796.26"></polygon>
    <polygon fill="#a9ceea" points="1741.8 641.16 1731.82 637.2 1735.05 643.35"></polygon>
    <polygon fill="#a9ceea" points="1617.54 602.55 1607.56 598.59 1612.59 605.16"></polygon>
    <polygon fill="#a9ceea" points="1698.11 604.8 1688.13 600.85 1688.02 601.67"></polygon>
  </g>
  <g>
    <path fill="#a9ceea" d="M1457.34,515.1c-4.86,4.03-9.05,8.94-12.3,14.59l-18.26-2.41l-5.09,16.36l16.33,8.32     c-0.58,6.55,0.05,13.03,1.76,19.16l-14.56,11.16l7.97,15.16l17.53-5.7c4.08,4.8,9.04,8.93,14.73,12.11l-2.44,18.41l16.36,5.08     l8.53-16.74c6.35,0.47,12.62-0.2,18.56-1.87l11.55,15.07l15.16-7.97l-5.93-18.27c4.57-3.95,8.51-8.68,11.59-14.09l19.17,2.53     l5.09-16.36l-17.3-8.82c0.48-6.15-0.11-12.22-1.65-18l15.42-11.82l-7.97-15.16l-18.39,5.98c-3.89-4.62-8.58-8.62-13.96-11.77     l2.52-19.03l-16.36-5.08l-8.62,16.91c-6.35-0.58-12.63-0.02-18.6,1.55l-11.42-14.91l-15.16,7.97L1457.34,515.1z M1499.92,530.83     c14.27,4.43,22.24,19.6,17.8,33.87c-4.44,14.27-19.61,22.25-33.88,17.82c-14.27-4.43-22.24-19.6-17.8-33.87     C1470.48,534.37,1485.65,526.4,1499.92,530.83z"></path>
    <path fill="#c9e2f4" d="M1464.15,517.8c-4.86,4.03-9.05,8.94-12.3,14.59l-18.26-2.41l-5.09,16.36l16.33,8.32     c-0.58,6.55,0.05,13.03,1.76,19.16l-14.56,11.16l7.97,15.16l17.53-5.7c4.08,4.8,9.04,8.93,14.73,12.11l-2.44,18.41l16.36,5.08     l8.53-16.74c6.35,0.47,12.62-0.2,18.56-1.87l11.55,15.07l15.16-7.97l-5.93-18.27c4.57-3.95,8.51-8.68,11.59-14.09l19.17,2.53     l5.09-16.36l-17.3-8.82c0.48-6.14-0.11-12.22-1.65-18l15.42-11.82l-7.97-15.16l-18.39,5.98c-3.89-4.62-8.58-8.62-13.96-11.77     l2.52-19.03l-16.36-5.08l-8.62,16.9c-6.35-0.58-12.63-0.02-18.6,1.55l-11.42-14.91l-15.16,7.97L1464.15,517.8z M1506.73,533.53     c14.27,4.44,22.24,19.6,17.8,33.87c-4.44,14.27-19.61,22.25-33.88,17.82c-14.27-4.43-22.24-19.6-17.8-33.87     C1477.29,537.08,1492.46,529.1,1506.73,533.53z"></path>
    <polygon fill="#a9ceea" points="1524.82 626.5 1521.39 622.02 1518.01 623.8"></polygon>
    <polygon fill="#a9ceea" points="1440 600.15 1433.19 597.44 1437.8 595.95"></polygon>
    <polygon fill="#a9ceea" points="1469.83 624.96 1463.01 622.26 1469.9 624.4"></polygon>
    <polygon fill="#a9ceea" points="1558.4 518.53 1551.59 515.83 1553.8 520.03"></polygon>
    <polygon fill="#a9ceea" points="1473.58 492.17 1466.77 489.47 1470.2 493.95"></polygon>
    <polygon fill="#a9ceea" points="1528.58 493.71 1521.77 491.01 1521.69 491.57"></polygon>
  </g>
</svg>
