<svg xmlns="http://www.w3.org/2000/svg" width="2500" height="2500" enable-background="new 0 0 2500 2500" viewBox="267.657 545.442 1904.992 1419.082" id="male-it-specialist-using-laptop-and-discussing-work-with-female-server-technician-in-data-center">
  <path fill="#d3e7f6" fill-rule="evenodd" d="M1761.9,1120.3c-320.5-560.7-725.1-485.1-910.9-99.1c-70.9,200.4-394,291.8-398.7,448.1  c-3.6,121.9,209.1,220.7,424.1,240.1C1088.8,1728.5,2217.5,1917.2,1761.9,1120.3z" clip-rule="evenodd"></path>
  <path fill="#a4d0ef" fill-rule="evenodd" d="M1761.9,1120.3c-7.6-13.3-15.3-26.3-23-38.9v579.9C1881.1,1578.6,1932.4,1418.4,1761.9,1120.3L1761.9,1120.3z   M1701.4,1023.2c-48.4-70.9-98.3-128.5-148.6-173.9l-369.1,90V1737l177.5,4.8c123.3-3,246.2-19,340.2-61.2V1023.2L1701.4,1023.2z   M1146.1,948.4l-225.5,55V1714c54.8,6.2,134.1,15.6,224,21.9l1.5,0V948.4z" clip-rule="evenodd"></path>
  <path fill="#acd2ef" fill-rule="evenodd" d="M1188,1762.2c419.7-1.3,760,16.4,760.1,39.6c0.1,23.2-340.1,43.1-759.8,44.4c-419.7,1.3-760-16.4-760.1-39.6  C428.1,1783.4,768.3,1763.5,1188,1762.2z" clip-rule="evenodd"></path>
  <path fill="#d3e7f6" fill-rule="evenodd" d="M1611.6,988.8c13.8,0,25.1,11.2,25.1,25.1c0,13.8-11.2,25.1-25.1,25.1c-13.8,0-25.1-11.2-25.1-25.1  C1586.6,1000,1597.8,988.8,1611.6,988.8L1611.6,988.8z M1237.9,1109.9c13.8,0,25.1,11.2,25.1,25.1c0,13.8-11.2,25.1-25.1,25.1  c-13.8,0-25.1-11.2-25.1-25.1C1212.9,1121.1,1224.1,1109.9,1237.9,1109.9L1237.9,1109.9z M1237.9,1639.1c13.8,0,25.1,11.2,25.1,25.1  c0,13.8-11.2,25.1-25.1,25.1c-13.8,0-25.1-11.2-25.1-25.1C1212.9,1650.3,1224.1,1639.1,1237.9,1639.1L1237.9,1639.1z M1237.9,1462.7  c13.8,0,25.1,11.2,25.1,25.1c0,13.8-11.2,25.1-25.1,25.1c-13.8,0-25.1-11.2-25.1-25.1C1212.9,1473.9,1224.1,1462.7,1237.9,1462.7  L1237.9,1462.7z M1237.9,1286.3c13.8,0,25.1,11.2,25.1,25.1c0,13.8-11.2,25.1-25.1,25.1c-13.8,0-25.1-11.2-25.1-25.1  C1212.9,1297.5,1224.1,1286.3,1237.9,1286.3L1237.9,1286.3z M1576.1,1231l-296.5,38.6v-119l298.5-52.2L1576.1,1231L1576.1,1231z   M1611.6,1518c13.8,0,25.1,11.2,25.1,25.1c0,13.8-11.2,25.1-25.1,25.1c-13.8,0-25.1-11.2-25.1-25.1  C1586.6,1529.2,1597.8,1518,1611.6,1518L1611.6,1518z M1611.6,1341.6c13.8,0,25.1,11.2,25.1,25.1c0,13.8-11.2,25.1-25.1,25.1  c-13.8,0-25.1-11.2-25.1-25.1C1586.6,1352.8,1597.8,1341.6,1611.6,1341.6L1611.6,1341.6z M1611.6,1165.2c13.8,0,25.1,11.2,25.1,25.1  c0,13.8-11.2,25.1-25.1,25.1c-13.8,0-25.1-11.2-25.1-25.1C1586.6,1176.4,1597.8,1165.2,1611.6,1165.2z" clip-rule="evenodd"></path>
  <path fill="#c1def4" fill-rule="evenodd" d="M1076.8,775.5l35.2-0.8l35.2-0.8l18.3,30l18.3,30l-16.8,30.9l-16.8,30.9l-35.2,0.8l-35.2,0.8l-18.3-30l-18.3-30  l16.8-30.9L1076.8,775.5L1076.8,775.5z M1079.8,1604.1l35.2-0.8l35.2-0.8l18.3,30l18.3,30l-16.8,30.9l-16.8,30.9l-35.2,0.8  l-35.2,0.8l-18.3-30l-18.3-30l16.8-30.9L1079.8,1604.1L1079.8,1604.1z M1087.1,1616.1l-13.5,24.7l-13.5,24.7l14.7,24l14.7,24  l28.1-0.7l28.1-0.7l13.5-24.7l13.5-24.7l-14.7-24l-14.7-24l-28.1,0.7L1087.1,1616.1L1087.1,1616.1z M1199.8,1538l-16.8,30.9  l-16.8,30.9l18.3,30l18.3,30l35.2-0.8l35.2-0.8l16.8-30.9l16.8-30.9l-18.3-30l-18.3-30l-35.2,0.8L1199.8,1538L1199.8,1538z   M1207.1,1550l-13.5,24.7l-13.5,24.7l14.7,24l14.7,24l28.1-0.7l28.1-0.7l13.5-24.7l13.5-24.7l-14.7-24l-14.7-24l-28.1,0.7  L1207.1,1550L1207.1,1550z M1078.8,1464.2l35.2-0.8l35.2-0.8l18.3,30l18.3,30l-16.8,30.9l-16.8,30.9l-35.2,0.8l-35.1,0.8l-18.3-30  l-18.3-30l16.8-30.9L1078.8,1464.2L1078.8,1464.2z M1086.1,1476.2l28.1-0.7l28.1-0.7l14.7,24l14.7,24l-13.5,24.7l-13.5,24.7  l-28.1,0.7l-28.1,0.7l-14.7-24l-14.7-24l13.5-24.7L1086.1,1476.2L1086.1,1476.2z M1311.5,1470.9l35.2-0.8l35.2-0.8l18.3,30l18.3,30  l-16.8,30.9l-16.8,30.9l-35.2,0.8l-35.2,0.8l-18.3-30l-18.3-30l16.8-30.9L1311.5,1470.9L1311.5,1470.9z M1318.8,1482.9l28.1-0.7  l28.1-0.7l14.7,24l14.7,24l-13.5,24.7l-13.5,24.7l-28.2,0.7l-28.1,0.7l-14.7-24l-14.7-24l13.5-24.7L1318.8,1482.9L1318.8,1482.9z   M1431.4,1404.8l-16.8,30.9l-16.8,30.9l18.3,30l18.3,30l35.2-0.8l35.2-0.8l16.8-30.9l16.8-30.9l-18.3-30l-18.3-30l-35.2,0.8  L1431.4,1404.8L1431.4,1404.8z M1438.7,1416.7l-13.5,24.7l-13.5,24.7l14.7,24l14.7,24l28.1-0.7l28.2-0.7l13.5-24.7l13.5-24.7  l-14.7-24l-14.7-24l-28.1,0.7L1438.7,1416.7L1438.7,1416.7z M1310.5,1331l35.2-0.9l35.2-0.8l18.3,30l18.3,30l-16.8,30.9l-16.8,30.9  l-35.2,0.8l-35.2,0.8l-18.3-30l-18.3-30l16.8-30.9L1310.5,1331L1310.5,1331z M1317.7,1342.9l28.1-0.7l28.1-0.7l14.7,24l14.7,24  l-13.5,24.7l-13.5,24.7l-28.1,0.7l-28.1,0.7l-14.7-24l-14.7-24l13.5-24.7L1317.7,1342.9L1317.7,1342.9z M1194.6,1263.9l-16.8,30.9  l-16.8,30.9l18.3,30l18.3,30l35.1-0.8l35.2-0.8l16.8-30.9l16.8-30.9l-18.3-30l-18.3-30l-35.2,0.8L1194.6,1263.9L1194.6,1263.9z   M1201.9,1275.8l-13.5,24.7l-13.5,24.7l14.7,24l14.7,24l28.1-0.7l28.1-0.7l13.5-24.7l13.5-24.7l-14.7-24l-14.7-24l-28.1,0.7  L1201.9,1275.8L1201.9,1275.8z M1314.6,1197.7l35.2-0.9l35.2-0.8l18.3,30l18.3,30l-16.8,30.9l-16.8,30.9l-35.2,0.8l-35.2,0.8  l-18.3-30l-18.3-30l16.8-30.9L1314.6,1197.7L1314.6,1197.7z M1321.8,1209.7l28.1-0.7l28.1-0.7l14.7,24l14.7,24l-13.5,24.7  l-13.5,24.7l-28.1,0.7l-28.1,0.7l-14.7-24l-14.7-24l13.5-24.7L1321.8,1209.7L1321.8,1209.7z M1193.6,1123.9l-16.8,30.9l-16.8,30.9  l18.3,30l18.3,30l35.2-0.8l35.2-0.9l16.8-30.9l16.8-30.9l-18.3-30l-18.3-30l-35.2,0.8L1193.6,1123.9L1193.6,1123.9z M1200.9,1135.9  l-13.5,24.7l-13.5,24.7l14.7,24l14.7,24l28.1-0.7l28.1-0.7l13.5-24.7l13.5-24.7l-14.7-24l-14.7-24l-28.1,0.7L1200.9,1135.9  L1200.9,1135.9z M1317.6,1052.7l35.2-0.8l35.2-0.8l18.3,30l18.3,30l-16.8,30.9l-16.8,30.9l-35.2,0.8l-35.1,0.8l-18.3-30l-18.3-30  l16.8-30.9L1317.6,1052.7L1317.6,1052.7z M1324.9,1064.7l28.1-0.7l28.1-0.7l14.7,24l14.7,24l-13.5,24.7l-13.5,24.7l-28.1,0.7  l-28.1,0.7l-14.7-24l-14.7-24l13.5-24.7L1324.9,1064.7L1324.9,1064.7z M1437.5,986.6l-16.8,30.9l-16.8,30.9l18.3,30l18.3,30  l35.2-0.8l35.2-0.8l16.8-30.9l16.8-30.9l-18.3-30l-18.3-30l-35.2,0.8L1437.5,986.6L1437.5,986.6z M1444.8,998.6l-13.5,24.7  l-13.5,24.7l14.7,24l14.7,24l28.1-0.7l28.1-0.7l13.5-24.7l13.5-24.7l-14.7-24l-14.7-24l-28.2,0.7L1444.8,998.6L1444.8,998.6z   M1316.6,912.8l35.2-0.8l35.2-0.8l18.3,30l18.3,30l-16.8,30.9l-16.8,30.9l-35.2,0.9l-35.2,0.8l-18.3-30l-18.3-30l16.8-30.9  L1316.6,912.8L1316.6,912.8z M1323.9,924.8l28.1-0.7l28.1-0.7l14.7,24l14.7,24l-13.5,24.7l-13.5,24.7l-28.1,0.7l-28.1,0.7l-14.7-24  l-14.7-24l13.5-24.7L1323.9,924.8L1323.9,924.8z M1077.8,915.4l35.2-0.8l35.2-0.8l18.3,30l18.3,30l-16.8,30.9l-16.8,30.9l-35.2,0.8  l-35.2,0.8l-18.3-30l-18.3-30l16.8-30.9L1077.8,915.4L1077.8,915.4z M1085.1,927.3l-13.5,24.7l-13.5,24.7l14.7,24l14.7,24l28.1-0.7  l28.1-0.7l13.5-24.7l13.5-24.7l-14.7-24l-14.7-24l-28.1,0.7L1085.1,927.3L1085.1,927.3z M1197.7,849.3l-16.8,30.9L1164,911l18.3,30  l18.3,30l35.2-0.8l35.2-0.8l16.8-30.9l16.8-30.9l-18.3-30l-18.3-30l-35.2,0.8L1197.7,849.3L1197.7,849.3z M1205,861.2l-13.5,24.7  l-13.5,24.7l14.7,24l14.7,24l28.1-0.7l28.1-0.7l13.5-24.7l13.5-24.7l-14.7-24l-14.7-24l-28.1,0.7L1205,861.2L1205,861.2z   M1084.1,787.4l-13.5,24.7l-13.5,24.7l14.7,24l14.7,24l28.1-0.7l28.2-0.7l13.5-24.7l13.5-24.7l-14.7-24l-14.7-24l-28.1,0.7  L1084.1,787.4z" clip-rule="evenodd"></path>
  <g>
    <g>
      <path fill="#f3764a" fill-rule="evenodd" d="M1163.8,1323l1.3,112.8l98.3-0.6c2.3,7.6,9.4,13.2,17.7,13.1c10.1-0.1,18.1-8.3,18-18.5    c-0.1-10.2-8.4-18.3-18.5-18.3c-7.9,0.1-14.5,5.1-17,12.2l-87.3,0.6l-1.2-101.4L1163.8,1323L1163.8,1323z M1281.4,1441.5    c-2.4,0-4.6-0.7-6.5-2c-3.1-2-5.1-5.5-5.2-9.5c-0.1-6.3,4.9-11.5,11.2-11.5c2.4,0,4.6,0.7,6.4,2c3.1,2,5.2,5.5,5.2,9.5    C1292.7,1436.3,1287.7,1441.5,1281.4,1441.5z" clip-rule="evenodd"></path>
      <path fill="#acd2ef" fill-rule="evenodd" d="M1281.2,1441.4c6.3,0,11.3-5.2,11.2-11.5c-0.1-6.3-5.2-11.4-11.5-11.3c-6.3,0-11.3,5.2-11.2,11.5    C1269.8,1436.3,1275,1441.4,1281.2,1441.4z" clip-rule="evenodd"></path>
    </g>
    <path fill="#f3764a" fill-rule="evenodd" d="M1204.7,960.4l-1.3-112.8l98.3-0.7c2.1-7.6,9.1-13.3,17.4-13.3c10.1-0.1,18.3,8.1,18.5,18.3   c0.1,10.1-7.9,18.4-18,18.5c-7.9,0.1-14.6-4.9-17.3-12l-87.3,0.6l1.2,101.4L1204.7,960.4L1204.7,960.4z M1319.5,840.4   c-6.3,0-11.3,5.2-11.2,11.5c0.1,6.3,5.2,11.4,11.5,11.3c6.3,0,11.3-5.2,11.2-11.5C1330.9,845.4,1325.8,840.3,1319.5,840.4z" clip-rule="evenodd"></path>
    <path fill="#efebf4" fill-rule="evenodd" d="M1527.4,965.3c19.2-8.8,42-0.2,50.8,19.3c8.8,19.4,0.4,42.3-18.9,51c-19.2,8.8-42,0.2-50.8-19.3   C1499.7,997,1508.2,974.1,1527.4,965.3L1527.4,965.3z M1447,985.1c9.9-4.5,21.6-0.1,26.2,9.9c4.5,10,0.2,21.8-9.7,26.3   c-9.9,4.5-21.6,0.1-26.2-9.9C1432.7,1001.4,1437.1,989.6,1447,985.1z" clip-rule="evenodd"></path>
    <path fill="#f3764a" fill-rule="evenodd" d="M1350.9,913.6l139-0.9l139-0.9l70.9,120.8l70.9,120.8l-68.1,121.7l-68.1,121.7l-139,0.9l-139,0.9l-70.9-120.8   l-70.9-120.8l68.1-121.7L1350.9,913.6L1350.9,913.6z M1379.2,961.8l-54.5,97.5l-54.5,97.5l56.8,96.7l56.8,96.7l111.3-0.7l111.3-0.7   l54.5-97.5l54.5-97.5l-56.8-96.7l-56.8-96.7l-111.3,0.7L1379.2,961.8z" clip-rule="evenodd"></path>
    <polygon fill="#fff" fill-rule="evenodd" points="1379.2 961.8 1490.5 961.1 1601.9 960.3 1658.6 1057.1 1715.5 1153.8 1660.9 1251.3 1606.4 1348.8 1495.1 1349.5 1383.8 1350.2 1327 1253.5 1270.2 1156.7 1324.7 1059.3" clip-rule="evenodd"></polygon>
    <polygon fill="#f9b5a1" fill-rule="evenodd" points="1384.9 961.8 1490.5 961.1 1601.9 960.3 1658.6 1057.1 1715.5 1153.8 1660.9 1251.3 1607 1347.8 1692.9 1156.3 1585.5 977.6 1379.6 962.1" clip-rule="evenodd"></polygon>
    <path fill="#3e8dcc" fill-rule="evenodd" d="M1739.1,775.1l75.6-0.5l75.6-0.5l38.6,65.7l38.6,65.7l-37,66.2l-37.1,66.2l-75.6,0.5l-75.7,0.5l-38.6-65.7   l-38.6-65.7l37-66.2L1739.1,775.1L1739.1,775.1z M1754.5,801.3l-29.7,53l-29.7,53l30.9,52.6l30.9,52.6l60.6-0.4l60.6-0.4l29.7-53   l29.7-53l-30.9-52.6l-30.9-52.6l-60.6,0.4L1754.5,801.3z" clip-rule="evenodd"></path>
    <polygon fill="#fff" fill-rule="evenodd" stroke="#d3e7f6" stroke-miterlimit="22.926" stroke-width=".216" points="1754.5 801.3 1815.1 801 1875.6 800.6 1906.5 853.2 1937.5 905.8 1907.8 958.9 1878.1 1011.9 1817.6 1012.3 1757 1012.7 1726.1 960.1 1695.2 907.4 1724.8 854.4" clip-rule="evenodd"></polygon>
    <polygon fill="#d3e7f6" fill-rule="evenodd" points="1754.5 801.3 1815.1 801 1875.6 800.6 1906.5 853.2 1937.5 905.8 1907.8 958.9 1880.9 1006.9 1910 899.3 1867.4 815.1 1753.4 803.3" clip-rule="evenodd"></polygon>
    <path fill="#f3764a" fill-rule="evenodd" d="M1026.4,885.9l75.6-0.5l75.6-0.5l38.6,65.7l38.6,65.7l-37,66.2l-37.1,66.2l-75.6,0.5l-75.6,0.5l-38.6-65.7   l-38.6-65.7l37-66.2L1026.4,885.9L1026.4,885.9z M1041.7,912.1l-29.7,53l-29.7,53l30.9,52.6l30.9,52.6l60.6-0.4l60.6-0.4l29.7-53   l29.7-53l-30.9-52.6l-30.9-52.6l-60.6,0.4L1041.7,912.1z" clip-rule="evenodd"></path>
    <polygon fill="#fff" fill-rule="evenodd" points="1041.7 912.1 1102.3 911.7 1162.9 911.4 1193.8 964 1224.7 1016.6 1195 1069.7 1165.4 1122.7 1104.8 1123.1 1044.2 1123.5 1013.3 1070.9 982.4 1018.2 1012.1 965.2" clip-rule="evenodd"></polygon>
    <polygon fill="#f9b5a1" fill-rule="evenodd" points="1041.7 912.1 1102.3 911.7 1152.8 911.4 1162.5 913.4 1051.4 927.7 1000.6 1014.7 1045 1123.5 1044.2 1123.5 1013.3 1070.9 982.4 1018.2 1012.1 965.2" clip-rule="evenodd"></polygon>
    <path fill="#f3764a" fill-rule="evenodd" d="M1785.5,1165.6l75.6-0.5l75.6-0.5l38.6,65.7l38.6,65.7l-37.1,66.2l-37,66.2l-75.6,0.5l-75.7,0.5l-38.6-65.7   l-38.6-65.7l37-66.2L1785.5,1165.6L1785.5,1165.6z M1800.9,1191.9l-29.7,53l-29.7,53l30.9,52.6l30.9,52.6l60.6-0.4l60.6-0.4   l29.7-53l29.7-53l-30.9-52.6l-30.9-52.6l-60.6,0.4L1800.9,1191.9z" clip-rule="evenodd"></path>
    <polygon fill="#fff" fill-rule="evenodd" points="1800.9 1191.9 1861.5 1191.5 1922 1191.1 1952.9 1243.7 1983.8 1296.3 1954.2 1349.4 1924.5 1402.4 1863.9 1402.8 1803.4 1403.2 1772.5 1350.6 1741.6 1297.9 1771.2 1244.9" clip-rule="evenodd"></polygon>
    <polygon fill="#f9b5a1" fill-rule="evenodd" points="1800.9 1191.9 1861.5 1191.5 1922 1191.1 1952.9 1243.7 1983.8 1296.3 1954.2 1349.4 1924.5 1402.4 1863.9 1402.8 1823.9 1403.1 1919.4 1395.3 1975.1 1299.8 1915.5 1203.3 1806.8 1203.2 1744.7 1292.3 1771.2 1244.9" clip-rule="evenodd"></polygon>
    <path fill="#3e8dcc" fill-rule="evenodd" d="M1040.7,1187.4l54.8-0.4l54.8-0.4l27.9,47.6l27.9,47.6l-26.8,48l-26.8,47.9l-54.8,0.4l-54.8,0.4l-27.9-47.6   l-27.9-47.6l26.8-47.9L1040.7,1187.4L1040.7,1187.4z M1051.9,1206.3l-21.5,38.4l-21.5,38.4l22.4,38.1l22.4,38.1l43.8-0.3l43.8-0.3   l21.5-38.4l21.5-38.4l-22.4-38.1l-22.4-38.1l-43.8,0.3L1051.9,1206.3z" clip-rule="evenodd"></path>
    <polygon fill="#fff" fill-rule="evenodd" points="1051.9 1206.3 1095.7 1206 1139.5 1205.8 1161.9 1243.9 1184.3 1282 1162.8 1320.4 1141.3 1358.8 1097.5 1359.1 1053.6 1359.3 1031.3 1321.2 1008.9 1283.1 1030.4 1244.7" clip-rule="evenodd"></polygon>
    <polygon fill="#d3e7f6" fill-rule="evenodd" points="1055.4 1206.3 1095.7 1206 1139.5 1205.8 1161.9 1243.9 1184.3 1282 1162.8 1320.4 1141.3 1358.8 1140.6 1358.8 1162.2 1280.2 1123.9 1221.5 1052.2 1206.9" clip-rule="evenodd"></polygon>
    <g>
      <path fill="#f3764a" fill-rule="evenodd" d="M1613.4,1077.9c-5.1,90.8-25.6,191.6-124.6,218.3l-2.5,0.7l-2.5-0.6c-99.6-25.4-122.5-125.9-129.7-216.6    l-0.7-8.7l8.5-1.7c41.3-8.1,79.1-24,117.1-41.9l4.1-1.9l4.1,1.9c38.4,17.4,76.5,32.8,118,40.3l8.6,1.6L1613.4,1077.9z" clip-rule="evenodd"></path>
      <path fill="#f58e75" fill-rule="evenodd" d="M1603.6,1077c-41-7.5-77.7-21.7-120.3-41c-42.2,19.9-78.5,34.6-119.4,42.6c9.8,124,47.1,188.6,122.3,207.8    C1560.9,1266.2,1596.7,1201.1,1603.6,1077z" clip-rule="evenodd"></path>
      <path fill="#fbd9d2" fill-rule="evenodd" d="M1584.7,1091.5c-35.2-8-68.1-21-101.2-35.7c-32.7,15.2-65.4,28.6-100.4,37.1c5.6,55.1,19.7,123.2,65.1,156.7    c11.5,8.4,24.2,14.3,37.8,18.2c13.4-4.1,26.1-10.1,37.3-18.7C1567.9,1214.9,1580.4,1146.7,1584.7,1091.5z" clip-rule="evenodd"></path>
      <path fill="#f9b5a1" fill-rule="evenodd" d="M1584.7,1091.5c-35.2-8-68.1-21-101.2-35.7l2.5,212c13.4-4.1,26.1-10.1,37.3-18.7    C1567.9,1214.9,1580.4,1146.7,1584.7,1091.5z" clip-rule="evenodd"></path>
    </g>
    <path fill="#f3764a" fill-rule="evenodd" d="m1043.1 976.3 118.4-.8-58.6 53.7L1043.1 976.3 1043.1 976.3zM1165.2 979.1l-39.9 36.6 40.9 49.4L1165.2 979.1 1165.2 979.1zM1162 1068l-40.4-48.9-17 15.5c-.9.9-2.4.9-3.4.1l-17.3-15.4-38.1 49.5L1162 1068 1162 1068zM1041.4 1066.1l38.9-50-39.9-35.3L1041.4 1066.1zM1916 1279.8c-.1.4.1.8.5 1.1 0 0 6.1 0 18.4 0 1.7.3 3.2 1.3 4.2 2.7 1 1.4 1.4 3.2 1 4.9.5-3.2-7.2 18.3-23 64.5-39.6.1-79.3.3-118.9.8l-1.2-99.2c-.1-3.7 2.8-6.7 6.5-6.8l36.4-.2c3.6.7 6.3 3.8 6.5 7.5-.4 1.9 0 3.8 1.1 5.4 1.1 1.6 2.8 2.7 4.7 3 38.4-.3 57.6-.4 57.6-.4 2.9-.3 5.5 1.8 6 4.7C1916 1275.8 1916 1279.8 1916 1279.8z" clip-rule="evenodd"></path>
    <polygon fill="#fff" fill-rule="evenodd" points="1803.5 1270.7 1911.9 1270 1912.6 1333.5 1804.2 1334.2" clip-rule="evenodd"></polygon>
    <path fill="#f9b5a1" fill-rule="evenodd" d="M1916.3,1280.7c0.1,0.1,0.1,0.1,0.2,0.2c0,0,6.1,0,18.4,0c1.7,0.3,3.2,1.3,4.2,2.7c1,1.4,1.4,3.2,1,4.9   c0.5-3.2-7.2,18.3-23,64.5c-39.6,0.1-79.3,0.3-118.9,0.8l0-1l21-61.3c1.4-4.8,5-8.7,9.8-10.2L1916.3,1280.7z" clip-rule="evenodd"></path>
    <path fill="#69acde" fill-rule="evenodd" d="M1096.9 1238.9c12.3-.1 23.5 4.9 31.7 12.9 8.2 8.1 13.3 19.3 13.4 31.7.1 12.4-4.7 23.7-12.7 31.8-8 8.2-19.1 13.3-31.4 13.4-24.7.2-44.8-19.7-45.1-44.6-.1-12.1 4.3-23.2 12.7-31.8C1073.5 1244.1 1084.5 1239 1096.9 1238.9L1096.9 1238.9zM1139.1 1282.3c-4.6-1.8-9.9-3.3-15.9-4.5.2 1.6.3 3.3.4 4.9.1 1.9.1 3.7 0 5.6 5.8-1.2 11-2.7 15.5-4.6l.1.2v-.3c0-.5 0-.9 0-1.4L1139.1 1282.3 1139.1 1282.3zM1120.3 1277.4 1120.3 1277.4c-4.2-.7-8.7-1.2-13.2-1.5.1 2.3.2 4.7.3 7 0 2.6 0 5.1-.1 7.7 4.5-.3 9-.9 13.1-1.6l.3-.1c.1-2 .1-4 .1-6C1120.7 1281 1120.5 1279.2 1120.3 1277.4L1120.3 1277.4zM1104.2 1275.7c-2.2-.1-4.4-.1-6.7-.1-2.8 0-5.5.1-8.2.2-.1 2.4-.1 4.8-.1 7.3 0 2.6.1 5.2.2 7.8 2.7.1 5.5.2 8.3.1 2.3 0 4.5-.1 6.7-.2.1-2.6.1-5.2.1-7.8C1104.5 1280.5 1104.4 1278.1 1104.2 1275.7L1104.2 1275.7zM1086.5 1276c-4.1.3-8.1.8-11.9 1.4-.3 0-.5.1-.8.1-.2 1.9-.3 3.8-.4 5.7 0 2.1 0 4.1.2 6.2.3.1.7.1 1.1.2 3.8.6 7.8 1 11.9 1.2-.1-2.5-.2-5.1-.2-7.7C1086.4 1280.7 1086.4 1278.3 1086.5 1276L1086.5 1276zM1070.9 1278c-5.6 1.1-10.8 2.5-15.3 4.2 0 .7 0 1.3 0 2 0 .3 0 .6 0 .9 4.5 1.6 9.6 2.9 15.2 3.9-.1-1.9-.2-3.8-.2-5.8C1070.7 1281.4 1070.8 1279.7 1070.9 1278L1070.9 1278zM1055.9 1279.1c4.6-1.6 9.9-3 15.4-4 .5-3.8 1.4-7.5 2.6-11.1-6.4 2.5-12.2 6.1-17.3 10.7C1056.3 1276.1 1056 1277.6 1055.9 1279.1L1055.9 1279.1zM1074.2 1274.5c4-.6 8.2-1.1 12.4-1.4.3-4.5.7-8.8 1.3-12.9-3.6.5-7.2 1.3-10.6 2.4C1075.9 1266.5 1074.9 1270.5 1074.2 1274.5L1074.2 1274.5zM1089.5 1273c2.7-.1 5.3-.2 8-.2 2.2 0 4.3 0 6.5.1-.4-4.4-.9-8.7-1.7-12.8l0-.1c-1.7-.2-3.3-.3-5-.3-2.2 0-4.3 0-6.5.2l0 .2C1090.2 1264.3 1089.8 1268.6 1089.5 1273L1089.5 1273zM1106.9 1273c4.5.3 8.8.7 13 1.4-.7-3.8-1.7-7.5-3.1-11-3.7-1.4-7.5-2.3-11.5-3C1106 1264.4 1106.5 1268.7 1106.9 1273L1106.9 1273zM1122.8 1274.9c5.9 1.1 11.4 2.5 16.1 4.3-.1-.6-.2-1.3-.3-1.9l-.1.1c-5.2-5.4-11.4-9.6-18.2-12.6C1121.4 1268.1 1122.2 1271.4 1122.8 1274.9L1122.8 1274.9zM1095.5 1241.8c-1.7 4.4-3.1 9.6-4.1 15.2 2-.1 4-.2 6-.2 1.5 0 3 .1 4.4.3-1.2-5.7-2.7-10.9-4.5-15.4-.1 0-.3 0-.4 0C1096.4 1241.8 1096 1241.8 1095.5 1241.8L1095.5 1241.8zM1089.6 1293.7c.3 4.3.8 8.5 1.5 12.5.1.3.1.7.2 1 2.2.2 4.4.2 6.6.1 1.7-.1 3.5-.2 5.2-.4 0-.3.1-.6.1-.8.6-4 1-8.2 1.2-12.5-2.2.1-4.4.2-6.6.2C1095.1 1293.9 1092.3 1293.9 1089.6 1293.7L1089.6 1293.7zM1091.8 1310.1c1.1 5.8 2.6 11.1 4.4 15.7l-.1 0c.6 0 1.2 0 1.8 0 .3 0 .6 0 .9 0l-.2-.1c1.7-4.7 3-10.1 4-16-1.5.2-3.1.3-4.6.3C1095.9 1310.3 1093.9 1310.2 1091.8 1310.1L1091.8 1310.1zM1093.1 1325.7c-1.7-4.7-3.1-10.1-4.2-15.8-3.7-.4-7.3-1.1-10.8-2.1 2.6 6.4 6.3 12.2 11 17.3C1090.4 1325.3 1091.7 1325.5 1093.1 1325.7L1093.1 1325.7zM1088.4 1306.9l0-.3c-.7-4.2-1.2-8.6-1.5-13.1-4.3-.2-8.5-.7-12.5-1.3l-.3-.1c.5 4.1 1.5 8.2 2.8 12.1C1080.6 1305.6 1084.4 1306.5 1088.4 1306.9L1088.4 1306.9zM1088.5 1257.3c1-5.6 2.3-10.8 3.9-15.3-.7.1-1.4.2-2.1.3-4.8 4.9-8.7 10.6-11.5 16.9C1081.9 1258.4 1085.2 1257.7 1088.5 1257.3L1088.5 1257.3zM1139.1 1286.8c-4.6 1.8-9.9 3.3-15.7 4.5-.3 3.5-.9 7-1.8 10.3 6.4-3.1 12.2-7.3 17.1-12.4l.2.2C1138.9 1288.5 1139 1287.7 1139.1 1286.8L1139.1 1286.8zM1120.5 1291.8c-4.2.7-8.7 1.3-13.3 1.6-.2 4.5-.6 8.9-1.2 13.1 4.2-.7 8.3-1.9 12.2-3.5C1119.3 1299.4 1120.1 1295.7 1120.5 1291.8L1120.5 1291.8zM1071.1 1291.8c-5.5-1-10.7-2.2-15.2-3.8.2 1.6.4 3.3.8 4.9 5 4.4 10.7 7.8 16.8 10.2C1072.4 1299.5 1071.6 1295.7 1071.1 1291.8L1071.1 1291.8zM1100.4 1241.9c1.8 4.6 3.3 9.9 4.4 15.6 3.6.5 7.1 1.3 10.6 2.4-3-6.6-7.2-12.7-12.4-17.7C1102.1 1242.1 1101.2 1242 1100.4 1241.9L1100.4 1241.9zM1105.5 1309.5c-1 5.9-2.3 11.4-3.9 16.2 1.5-.1 3-.4 4.4-.7 4.8-5.4 8.5-11.7 11-18.5C1113.3 1307.9 1109.5 1308.9 1105.5 1309.5L1105.5 1309.5zM1138 1293.8c-4.9 4.6-10.5 8.3-16.6 11-.3.1-.6.3-.9.4-.2.5-.3 1-.5 1.5-2.2 6.1-5.3 11.9-9.2 17 6.3-2.1 11.9-5.7 16.5-10.4C1132.5 1308.1 1136.2 1301.3 1138 1293.8L1138 1293.8zM1074.6 1306.6c-.1-.1-.3-.1-.4-.2-5.8-2.1-11.3-5.1-16.2-8.8 2.1 6.2 5.7 11.7 10.2 16.1 4.5 4.4 10 7.9 16 9.9-4-5-7.2-10.7-9.4-16.7C1074.7 1306.9 1074.7 1306.8 1074.6 1306.6L1074.6 1306.6zM1107.8 1243.2c4.3 4.8 7.7 10.2 10.3 16 .3.7.6 1.3.8 2 .7.3 1.3.5 2 .8 6.1 2.6 11.7 6.2 16.7 10.6-2-7.2-5.9-13.6-11-18.7C1121.4 1248.8 1115 1245 1107.8 1243.2L1107.8 1243.2zM1057.9 1269.8c4.8-3.7 10.1-6.7 15.7-8.8.5-.2 1-.4 1.5-.6.1-.3.2-.6.4-.9 2.4-5.8 5.7-11.2 9.8-16-6.9 2-13 5.8-17.9 10.8C1063.3 1258.6 1060 1263.9 1057.9 1269.8zM1741.4 932.9c-1.5-2.6-2.7-5.3-3.6-8.3-.9-3-1.3-6.1-1.4-9.3-.1-6.8 1.8-13.2 5.1-18.6 3.1-5.1 7.5-9.4 12.7-12.3 1.7-4.8 4.7-8.9 8.6-11.9 4.3-3.3 9.6-5.2 15.4-5.3 1.7 0 3.5.2 5.2.5l.7.1c2.3-7.9 6.9-14.8 13-20 7.1-6 16.2-9.6 26.1-9.6 11.4-.1 21.8 4.5 29.3 12 7.6 7.5 12.3 17.8 12.4 29.3 0 .9 0 1.9-.1 2.9 5.7 2.6 10.7 6.6 14.3 11.6 4.1 5.7 6.6 12.8 6.7 20.4 0 3.2-.4 6.3-1.2 9.3-.8 3.1-2 6-3.6 8.7-.7 1.2-2 1.9-3.3 1.9v0l-132.9.9C1743.3 935.1 1742 934.2 1741.4 932.9L1741.4 932.9zM1745.2 922.5c.5 1.7 1.1 3.3 1.9 4.8l128.3-.8c.7-1.5 1.3-3.1 1.7-4.8.6-2.3.9-4.7.9-7.3-.1-5.9-2-11.4-5.2-15.8-3.3-4.5-7.8-8-13.2-9.9-1.9-.5-3.1-2.3-2.9-4.3.1-.8.2-1.6.2-2.4 0-.8.1-1.6.1-2.4-.1-9.3-4-17.7-10.1-23.8-6.1-6.1-14.6-9.8-23.8-9.7-8.1.1-15.5 3-21.2 7.8-5.8 4.9-9.9 11.7-11.3 19.5 0 .3-.1.7-.3 1-.8 2-3.1 2.9-5.1 2.1-1.1-.5-2.3-.9-3.5-1.1-1.1-.2-2.3-.3-3.6-.3-4.1 0-7.8 1.4-10.7 3.7-3.1 2.3-5.3 5.7-6.4 9.5-.3 1-1 1.9-2 2.4-4.6 2.3-8.4 5.9-11 10.2-2.6 4.2-4 9.2-3.9 14.5C1744.2 917.8 1744.6 920.2 1745.2 922.5z" clip-rule="evenodd"></path>
    <path fill="#f3764a" fill-rule="evenodd" d="M1449.9,919.5c0,3.2-2.5,5.7-5.6,5.8c-3.1,0-5.7-2.5-5.8-5.7l-1.4-117.5l-348.3,2.3   c-1.7,8.3-8.9,14.5-17.7,14.6c-10.1,0.1-18.4-8.1-18.5-18.3c-0.1-10.2,8-18.5,18.1-18.6c7.5-0.1,13.9,4.4,16.9,10.8l355.2-2.3   c3.1,0,5.7,2.5,5.8,5.7L1449.9,919.5L1449.9,919.5z M1070.8,790.2c-5.4,0-9.7,4.5-9.7,9.9c0.1,5.4,4.5,9.8,9.9,9.8   c5.4,0,9.7-4.5,9.7-9.9C1080.6,794.5,1076.2,790.1,1070.8,790.2z" clip-rule="evenodd"></path>
    <path fill="#f3764a" fill-rule="evenodd" d="M1232.7,663.7c10.2-0.1,18.8,6.6,21.8,15.9l150.4-1l2.8,239.1l-11.4,0.1l-2.7-227.7l-138.5,0.9   c-2,10.4-11,18.2-21.9,18.3c-12.5,0.1-22.8-10.1-22.9-22.7C1210.1,674,1220.2,663.7,1232.7,663.7L1232.7,663.7z M1232.8,675   c-6.3,0-11.3,5.2-11.2,11.5c0.1,6.3,5.2,11.4,11.5,11.3c6.3,0,11.3-5.2,11.2-11.5C1244.2,680.1,1239.1,675,1232.8,675z" clip-rule="evenodd"></path>
    <polygon fill="#f3764a" fill-rule="evenodd" points="1288.5 793.1 1287.9 738.9 1603.5 736.8 1603.6 748.3 1299.4 750.3 1299.9 793.1" clip-rule="evenodd"></polygon>
    <polygon fill="#f3764a" fill-rule="evenodd" points="1539.1 745 1539.9 813.1 1680.6 812.1 1680.8 823.6 1528.6 824.6 1527.7 745.1" clip-rule="evenodd"></polygon>
    <path fill="#f3764a" fill-rule="evenodd" d="M1610.4 720.8c10.1-.1 18.3 8.1 18.5 18.3.1 10.2-8 18.4-18 18.5-10.1.1-18.3-8.1-18.5-18.3C1592.3 729.1 1600.3 720.9 1610.4 720.8zM1676.5 797.2c10.1-.1 18.3 8.1 18.5 18.3.1 10.2-8 18.4-18 18.5-10.1.1-18.3-8.1-18.5-18.3C1658.4 805.5 1666.4 797.2 1676.5 797.2zM1410 1360.6c0-3.2-2.6-5.7-5.8-5.7-3.1 0-5.7 2.6-5.6 5.8l1.4 117.5-348.3 2.3c-1.9-8.3-9.3-14.4-18.1-14.4-10.1.1-18.2 8.4-18.1 18.6.1 10.2 8.4 18.4 18.5 18.3 7.5-.1 13.8-4.6 16.6-11.1l355.2-2.3c3.1 0 5.7-2.6 5.6-5.8L1410 1360.6 1410 1360.6zM1033.9 1495c-5.4 0-9.8-4.3-9.9-9.8-.1-5.4 4.3-9.9 9.7-9.9 5.4 0 9.8 4.3 9.9 9.8C1043.7 1490.5 1039.3 1494.9 1033.9 1495z" clip-rule="evenodd"></path>
    <path fill="#f3764a" fill-rule="evenodd" d="M1198.7,1619.3c10.1-0.1,18.7-6.8,21.4-16.1l150.4-1l-2.8-239.1l-11.4,0.1l2.7,227.7l-138.5,0.9   c-2.3-10.3-11.5-18.1-22.4-18c-12.5,0.1-22.5,10.4-22.4,22.9C1176,1609.3,1186.2,1619.4,1198.7,1619.3L1198.7,1619.3z M1198.6,1608   c-6.3,0-11.4-5-11.5-11.4c-0.1-6.3,4.9-11.5,11.2-11.5c6.3,0,11.4,5,11.5,11.3C1209.9,1602.8,1204.9,1607.9,1198.6,1608z" clip-rule="evenodd"></path>
    <polygon fill="#f3764a" fill-rule="evenodd" points="1251.5 1489.1 1252.1 1543.4 1567.8 1541.3 1567.7 1529.8 1263.4 1531.8 1262.9 1489.1" clip-rule="evenodd"></polygon>
    <polygon fill="#f3764a" fill-rule="evenodd" points="1503.2 1534 1502.4 1465.9 1643.2 1465 1643 1453.6 1490.9 1454.6 1491.8 1534" clip-rule="evenodd"></polygon>
    <path fill="#f3764a" fill-rule="evenodd" d="M1575.1 1557.2c10.1-.1 18.1-8.3 18-18.5-.1-10.1-8.4-18.3-18.5-18.3-10.1.1-18.1 8.4-18 18.5C1556.8 1549.1 1565 1557.3 1575.1 1557.2zM1639.4 1480c10.1-.1 18.1-8.3 18-18.5-.1-10.2-8.4-18.3-18.5-18.3-10.1.1-18.1 8.3-18 18.5C1621.1 1471.9 1629.3 1480.1 1639.4 1480z" clip-rule="evenodd"></path>
  </g>
  <g>
    <path fill="#224493" fill-rule="evenodd" d="M898.3,807.6c0,0,28.3-11.1,45.4,17c17.1,28-13.5,27.3,5.5,54.4c19,27.1-11.3,24.2-4.5,43.5   c10.4,29.8-38.2,57.4-82.9,31.3C817,927.6,898.3,807.6,898.3,807.6z" clip-rule="evenodd"></path>
    <path fill="#f8a87e" fill-rule="evenodd" d="M910.4,1733.9c-5.7-7.3-17.8-7.9-36.2-1.9c0.2,17.7-1.3,35.1-4.4,40.6c27.3,7.4,41.4,5.2,42.5-6.6   C909.8,1756.6,909.1,1742.6,910.4,1733.9z" clip-rule="evenodd"></path>
    <path fill="#3960ac" fill-rule="evenodd" d="M897.1,1760.9c-0.5,5.1-11.5,13.6-19.6,11.3c-2-0.6-2.3-4.9-3.4-7.8c-0.5-1.4-2.8-3.6-3.8-2.2   c-4.2,8.3-5.9,18.2-5,28.7l1.2,0.2c24.9,3.7,51.4,16.3,73.1,17.7c2.6,0.2,5.1,0.3,7.5,0.3c16.1,0.2,22.2-10.2,27.5-11.3   c2-0.4,3.6,1.4,3.3-0.1c-0.1-0.5-0.1-1-0.4-1.4c-14.7-22.2-41.9-7-58.9-31.5c-1.8-2.6-4.7-6.7-4.7-8.5c-0.3-2.7-14.8-2.8-17,1.1   C896.5,1758.1,897.3,1759.7,897.1,1760.9z" clip-rule="evenodd"></path>
    <path fill="#fff" fill-rule="evenodd" d="M978.1,1797.6c0.8,2,0.8,6.1-0.9,8.8c-3,4.8-12.1,9.7-33,9.1c-25.4-0.8-46.7-7.9-79.5-13.1   c-3.3-3.2-1.5-10.1,0.7-12.5c25.3,3.5,52.2,17.4,74.3,18.9c2.6,0.2,5.1,0.3,7.5,0.3c16.1,0.2,22.2-10.2,27.5-11.3   C976.7,1797.3,978.2,1799,978.1,1797.6z" clip-rule="evenodd"></path>
    <path fill="#224493" fill-rule="evenodd" d="M978.4,1803C978.4,1803,978.4,1803.1,978.4,1803c-0.2,1.2-0.6,2.4-1.2,3.4c-3,4.8-12.1,9.7-33,9.1   c-25.4-0.8-46.7-7.9-79.5-13.1c-0.7-0.7-1.2-1.6-1.5-2.6c0.2,0.4,0.5,0.8,0.9,1.1c32.8,5.2,55,12.5,80.5,13.3   c3.8,0.1,7.1,0.1,10.2-0.2c11.8-0.8,17.2-13.5,21-14.3C976.9,1799.4,978,1801.5,978.4,1803z" clip-rule="evenodd"></path>
    <path fill="#f8a87e" fill-rule="evenodd" d="M758.9,1774.3c-19.8,5.8-39.3,5.5-35.1-10c3.2-11.3,6.1-27.2,9.4-49.9c14.4-6.9,25.2-2.6,35.5,6.8   C763.4,1741.5,759.7,1762.1,758.9,1774.3z" clip-rule="evenodd"></path>
    <path fill="#3960ac" fill-rule="evenodd" d="M762.5,1771.7c1.2,6.2,2.6,12.4,2.8,19.7c-7.2,13.9-15.8,15-33.4,14.2c-10.3-0.4-23.5-2.5-24.3-15.2   c2.9-8.3,8-18.3,11.9-22.6c0.3-4.4,1.9-7.1,5.2-9.7l0.7-3.2c0.7-2.9,2.9-4.8,5.9-5.1c6.5-0.7,12.9-0.2,19.3,1.1   c3,0.6,4.7,2.8,5.1,5.8l0.5,3.7C759.6,1763.5,761.4,1765.9,762.5,1771.7z" clip-rule="evenodd"></path>
    <path fill="#fff" fill-rule="evenodd" d="M765.2,1791.4c-15.2,17.5-25,7.5-33.8,6.9c-8.6-0.6-16,8.9-24-7.8c-1,1.3-3.1,3.9-3.3,7.7   c-0.6,21.4,48.1,23.9,60.1,5.2C766.3,1800,767.1,1795.2,765.2,1791.4z" clip-rule="evenodd"></path>
    <path fill="#224493" fill-rule="evenodd" d="M766.3,1796.1c0,2.6-0.8,5.2-2,7.3c-12,18.7-60.7,16.3-60.1-5.2c0-0.4,0.1-0.8,0.1-1.2   c1.1,6.3,4.9,8.8,8.6,8.7c2.1-0.1,4.4-0.8,6.7-1.8c3.9-1.6,7.7-3.7,11-3.4c3.2,0.2,7.7,3.1,12.7,5.2c3,1.3,6.2,2.3,9.2,2.4   C758.5,1808.2,764.9,1803.4,766.3,1796.1z" clip-rule="evenodd"></path>
    <path fill="#f6996c" fill-rule="evenodd" d="M1150.2 1082C1150.3 1081.9 1150.2 1081.9 1150.2 1082l.4-.3c1.1-1.6-1.4-2.4-2.5-2.8-1.3-.4-8.8-2.3-9.7-2.3-1.1 0-2.2.5-3.2.9-1.2.6-2.3 1.4-3.3 2.3-.2.2-.7.6-.7.9 0 .4.6.5.9.6.4.1-1.1.4-.7.3.6 0 6.1.3 7.4.5 2.7.5 5.6.5 8.3.5C1148.1 1082.8 1149.5 1082.6 1150.2 1082zM1158.8 1067.5c-2.6-1.2-4.7-1.7-8.1-2-2.7-.2-5.9-.9-8.6-.4l-3 1.2c-2.6.4-3.2 3.9-.3 4.4 1.2.2 2.4 0 3.6-.1 2-.2 3.9 0 5.8.2 2.4.2 4.9.6 7.3 1 1.2.2 2.5.6 3.8.3C1162 1071.3 1161 1068.4 1158.8 1067.5z" clip-rule="evenodd"></path>
    <path fill="#f6996c" fill-rule="evenodd" d="M1138.3,1070.5c2.7-0.4,6,0.5,8.7,0.9c2.7,0.4,5.9,0.8,8.5,2c2.2,1,2.8,3.3,0,4c-1.2,0.3-2.6-0.1-3.8-0.3   c-2.4-0.4-4.8-0.7-7.3-1c-2-0.2-3.9-0.4-5.8-0.2c-1.2,0.1-2.5,0.3-3.6,0.1c-2.8-0.5-2.3-4,0.3-4.4L1138.3,1070.5z" clip-rule="evenodd"></path>
    <path fill="#f8a87e" fill-rule="evenodd" d="M1136.9,1052.4c1.7-1.3,3.5-2.8,4.4-4.7c0.4-0.8,1-2.7-0.1-3c-0.9-0.3-2.7,1.2-3.5,1.7   c-2.5,1.5-5.3,1.8-8.1,2c-3.4,0.2-6.3,0.1-9.6,1.2c-4.8,1.6-8.5,4.4-12.3,7.7l-0.8,1c-0.1,0-0.2-0.1-0.4-0.1c-2.1,3,2.4,6.3,5,6.9   c4.1,0.9,8.5-1.5,11.7-3.6C1127.9,1058.6,1132.6,1055.8,1136.9,1052.4z" clip-rule="evenodd"></path>
    <path fill="#f8a87e" fill-rule="evenodd" d="M1175.3,1067.5c0.4-2.5-3-4.4-6.2-5.6c-5.5-2.1-10.6-4.2-16.3-5.9c-6.7-2-14-2.3-20.8-3   c-4.7-0.5-9.7,0.5-14.4,1c-9.6,1-21.4,8.5-21.4,8.5c-3.1,1.4-6.9,5.2-9.3,7.2c-1.4,1.1,0,2.6,0.7,4c0.7,1.3,1.6,2.1,2.8,3.2   c2,1.8,5,4.2,7.6,5.2c1.9,0.7,4-1.8,5.7-2.7c3.2-1.6,7-2.5,10.5-0.9c6.7,3.1,14.4,6.2,21.4,2c4.1-2.4,9.1-15,9.1-15s7-1.7,15.9-1   C1163.1,1064.8,1174.9,1070.1,1175.3,1067.5z" clip-rule="evenodd"></path>
    <path fill="#f8a87e" fill-rule="evenodd" d="M1160.9 1068.9c-1.2-1.5-2.3-1.5-3.2-1.9l0 0c1.7 1-1.2 1.9-1.8 2-2.2.2-4.3.8-6.5 1.2-1.2.2-3.5.3-3.5 1.8 0 1.5 1.8 1.7 2.8 1.8 2.9.4 6.3.6 9.2-.2C1159.7 1073 1162.5 1071 1160.9 1068.9zM1156.6 1074.2C1156.6 1074.2 1156.8 1074.2 1156.6 1074.2c-.8 1.2-8.4 1.4-9.9 1.3-3.8-.3-6.6 1.9-3.5 3.2 1.6.7 7.8 1.2 10.7.4C1155.3 1078.8 1159.9 1076.9 1156.6 1074.2zM1150.7 1082c.8-1.4-.4-2.1-.4-2.1 0 0-1.7.9-5.7 1.2-4.1.3-5.2-.2-6.4.9-1.9 1.7.8 2.7 3.1 2.8 2.1.1 3.5.4 5.5-.2C1148.6 1084 1150.1 1083.1 1150.7 1082z" clip-rule="evenodd"></path>
    <path fill="#f6996c" fill-rule="evenodd" d="M1141.6 1046.8c0 0-1 2-5.5 5.3-1.3 1-7.2 5.5-12 7.4-1.9.8-6.3 2.1-6.3 2.1s4.3.5 6.9-.6c2.6-1.1 9.2-6.2 11-7.6 1.8-1.3 4.3-3.6 5-4.7C1141.3 1047.7 1141.6 1046.8 1141.6 1046.8L1141.6 1046.8zM1108.8 1071.8c.7 1.2 2 4.8 3.9 6 1.9 1.2 8 4.6 13.2 4.6 5.1 0 10.6-.6 10.6-.6l2.3-4.5c0 0-3.4 3-12.5 3.3-3.3.1-8.9-1.5-12.1-3.6C1110.9 1074.8 1108.8 1071.8 1108.8 1071.8z" clip-rule="evenodd"></path>
    <path fill="#f6996c" fill-rule="evenodd" d="M1138.8,1058.9c0,0-1,2.9-3.3,7.6c-1.6,3.3-6.3,9.6-6.3,9.6s5.9-6.7,7.5-9.1c3.5-5.1,4.4-9.5,4.4-9.5   L1138.8,1058.9z" clip-rule="evenodd"></path>
    <path fill="#509ad4" fill-rule="evenodd" d="M937.4,1067.7c-4.6-14.4-11.9-37.2-15.5-50.7c-6.8-25.3-24.4-60.4-21.3-60.5c8.8-0.3,25.2,3.6,34.4,11.3   c31.8,26.4,51.6,105.8,51.6,105.8c1.1,5.5,2.1,9.5,3,12c60.3-18.8,94.8-29.4,103.7-31.6c9.4,17,14.5,29.7,15.3,38.1   c-91.8,40.7-140.9,53.1-147.3,37.2c-17.5-34.8-26.8-55.1-27.9-61C934.8,1068,936.1,1067.8,937.4,1067.7z" clip-rule="evenodd"></path>
    <path fill="#436ab2" fill-rule="evenodd" d="M950,1213.2c33.4,103.5,6.2,155.3-4.6,242.8c-14.9,121.5-34.1,285.9-34.1,285.9l-38.2,2.2   c0,0-8-157.7-6.6-179.6c1.4-21.9,13.1-58.8,13.1-58.8c1.3-15-12.8-93.9-19.1-140.9l63.3-153.5L950,1213.2z" clip-rule="evenodd"></path>
    <path fill="#4b75b9" fill-rule="evenodd" d="M836.8,1207.7c0,0-34.5,35.4-41.7,73c-7.2,37.6,9.6,163.1-4.1,212.4c-7.5,26.7-39.5,63.8-43.8,98.2   c-4.3,34.5-17.4,128.8-17.4,128.8l38.2,7.6l88.8-225.4c47.1-123.8,82.3-168.3,87.5-308.7L836.8,1207.7z" clip-rule="evenodd"></path>
    <path fill="#fff" fill-rule="evenodd" d="M861.2,949.3c0,0-39.9-2.5-55.6,14.7c-15.8,17.2,24,147.1,26.8,169c2.9,21.9-20,94.8-20,94.8   c11,16.6,132.5,24.2,143,1c0,0,2.6-62.1,1.5-114.2c-1.2-53.8,29.9-49.3-27.9-129.7c-10.5-14.5-9.1-26.4-28.2-28.9   C883.8,953.9,861.2,949.3,861.2,949.3z" clip-rule="evenodd"></path>
    <path fill="#f8a87e" fill-rule="evenodd" d="M869.6,893.8c0,0-1.5,2.3-1.8,4.3c-1.8,9.6-2,42.5-6.6,51.3c-7.2,10,15,45.3,42.4,40.3   c7.3-7.3-1.8-28.9-5.4-34.2c2.5-12.5,2.2-27.2,4.6-39.6c2.5-12.9,2.4-21,2.4-21L869.6,893.8z" clip-rule="evenodd"></path>
    <path fill="#d38989" fill-rule="evenodd" d="M1059.7,1076.1c-0.5-2-0.7-4-0.7-6.1c0,0.1,0,0.2,0,0.3C1059.1,1072.3,1059.3,1074.3,1059.7,1076.1z" clip-rule="evenodd"></path>
    <path fill="#fff" fill-rule="evenodd" d="M1094.7,1056.4c1.9-0.7,3.9-1.2,6-1.5c8.6,13,12.6,22.8,11.9,29.3c-2,0.6-3.7,1.1-5.1,1.5   C1105.5,1078.2,1101.2,1068.5,1094.7,1056.4z" clip-rule="evenodd"></path>
    <path fill="#69acde" fill-rule="evenodd" d="M809.4 1035.1c-14-31.8-17.5-54.4-6.7-68.5 9.4-12.3 30.1-18.2 58.4-17.2-4.4 11 3.7 25.6 24.2 43.7 10.6 94.2 15.9 233.4 3.4 324.7-37.3-11.2-89.2-39.5-98.8-57.4 5.1-40.9 35.8-105.2 34.9-138.9C824.3 1091.7 814.9 1059.2 809.4 1035.1zM959.6 1088.7c5.6 58.8 10.4 132.6 8.1 173.7 0 28.4-19 47.5-27.9 54.8 17.1-131.8 5.2-280-29.2-327.4-.6-11.3-5.5-25.4-12.4-34.4 31.7 3.3 55.3 35 70.9 95.1C970.9 1062.6 967.7 1075.4 959.6 1088.7z" clip-rule="evenodd"></path>
    <path fill="#f16a33" fill-rule="evenodd" d="M869.4,1027.9l96.2,50.2c2.9,1.5,4,5.1,2.5,8l-66.9,128.4c-1.5,2.9-5.1,4-8,2.5l-96.2-50.2   c-2.9-1.5-4-5.1-2.5-8l66.9-128.4C862.9,1027.5,866.5,1026.3,869.4,1027.9z" clip-rule="evenodd"></path>
    <path fill="#f05c22" fill-rule="evenodd" d="M940.2,1059.8c0.3-0.6,0.1-1.3-0.5-1.6l-40.1-21.1c-0.6-0.3-1.3-0.1-1.6,0.5l-2.2,4.2L938,1064L940.2,1059.8z   " clip-rule="evenodd"></path>
    <path fill="#f05c22" fill-rule="evenodd" d="M916.9,1053c-2.2-1.2-3.1-3.9-1.9-6.2c1.2-2.2,3.9-3.1,6.2-1.9c2.2,1.2,3.1,3.9,1.9,6.2   C921.9,1053.3,919.1,1054.2,916.9,1053L916.9,1053z M922.4,1042.6c-3.5-1.8-7.8-0.5-9.6,3c-1.8,3.5-0.5,7.8,3,9.6   c3.5,1.8,7.8,0.5,9.6-3C927.2,1048.8,925.8,1044.4,922.4,1042.6z" clip-rule="evenodd"></path>
    <path fill="#f05c22" fill-rule="evenodd" d="M940.1,1058.5c0.3,0.4,0.4,0.9,0.1,1.3l-2.2,4.2l-42.2-22.2c-1.5,2.9-0.4,6.5,2.5,8l31.7,16.7   c2.9,1.5,6.5,0.4,8-2.5l2.2-4.2C940.5,1059.4,940.4,1058.9,940.1,1058.5z" clip-rule="evenodd"></path>
    <path fill="#f8a87e" fill-rule="evenodd" d="M948.7,1141.9c-0.7-0.7-0.5-1.2-0.5-1.2c1.3-1.1,1.9-5.9,0.5-7.3c-1.4-1.4-9.5-3.6-10.1-4.2   c-0.7-0.6-1.8-1.9-2.9-2.2c-1.2-0.3-9-5.6-10.6-6c-1.6-0.5-7.7,1.1-11.1,1.2c-3.5,0-9.2,2.6-10.9,3.1c-1.2,0.4-23.4-5.6-29.1-7.1   c-6.2-1.6-11-3.2-11-3.2s-35.7-13.5-73.5-24.7l13.7-30.1l-35.3-12.1c-6.4,17.4-18.9,43.8-21,52.2c-4.2,16.5,53,27.2,103.8,35.9l0,0   c5.6,1,10.9,1.8,15.7,2.6c6.5,1.3,17.2,4.4,22.2,5.7c3,1.1,7.2,2.7,7.7,3.1c0.8,0.6,6.3,3,6.8,3.1c0.5,0.1,2.2,1.7,3,2.3   c0.8,0.6,12.2,3.5,14,4.1c1.8,0.5,6.2,0.3,6.2,0.3l7.7,1.6c5.7,1.2,5-5,5-5c2.7,0.5,4.2-0.2,5-1.6c0.7-1.4,0.6-3.3,0.7-3.6   c0.2-0.3,1-0.3,1-0.3c1.7,0.4,3.3-1.3,3.7-2.5C949.9,1145,949.4,1142.6,948.7,1141.9z" clip-rule="evenodd"></path>
    <path fill="#509ad4" fill-rule="evenodd" d="M802.8,966.5c15.3-15.7,31-2.9,34.6,11.5c5.3,20.9-28,85.4-28,85.4c-6.2,12.3-10.6,20.8-13.2,25.6   c41,15.2,71.6,25.1,91.8,29.6c-3.3,12.6-6.1,21.9-8.4,27.9c-89.8-17.3-134-32.1-132.8-44.5c2.1-11.9,5.8-24.7,11.1-38.6   C767.9,1037.5,787.6,982.1,802.8,966.5z" clip-rule="evenodd"></path>
    <path fill="#fff" fill-rule="evenodd" d="M887.7,1119.9c3.6,0.7,6.2,1.4,7.6,1.9c-1.8,11.8-4.4,19.9-7.9,24.2c-2.8-0.6-5.1-1.1-7.1-1.5   C882.4,1138.7,884.8,1130.5,887.7,1119.9z" clip-rule="evenodd"></path>
    <path fill="#3e8dcc" fill-rule="evenodd" d="M915.6 997.8c4.1 7.4 7.9 16.4 11.3 26.7 8.7-7.6 7.6-20.8-10.4-37.9 1.6-2.7 3.2-8.7-3.1-15 .4-4.7-2.5-10.4-12.9-15.1-.4-.2-.9-.4-1.3-.6-.4-.2-.7-.3-1.1-.5.1.1.2.2.3.3.8 1 1.5 2.1 2.2 3.2 4.3 6.8 7.6 15.5 9.1 23.6.5 2.5.8 5 .9 7.3C912.3 992.2 914 994.9 915.6 997.8zM889.2 1032c-1.2-13.6-2.5-26.7-3.9-39-12.8-11.3-20.8-21.2-23.9-29.7-1.9-5.2-2-9.8-.4-14-.2 0-.4 0-.5 0-1.4-.1-2.8-.1-4.2-.1-8 12.1-7.5 20.5 1.4 25.3-2.8 12.7.5 19.9 10 21.6C866.4 1012.1 873.6 1024.1 889.2 1032z" clip-rule="evenodd"></path>
    <path fill="#f6996c" fill-rule="evenodd" d="M900,941.4c-13.3-4.5-23.9-14.2-32.7-26.5c-0.4-0.1-0.7-0.1-1.1-0.2c-0.3,4.6-0.7,9.5-1.1,14.3   c9.9,8.9,21.3,15.6,34.1,20.1C899.5,946.7,899.8,944.1,900,941.4z" clip-rule="evenodd"></path>
    <path fill="#224493" fill-rule="evenodd" d="M902.7,824c0,0,0.7-0.4,2.1-1c1.4-0.6,3.4-1.5,6.1-2.3c2.7-0.8,6-1.5,9.8-1.6c1.9,0,3.9,0.2,5.9,0.6   c2,0.4,4.1,1.1,6.2,2.1c4.1,2,7.8,5.5,10.7,9.8c0.7,1.1,1.4,2.3,2.1,3.4c0.3,0.6,0.7,1.3,1,1.9c0.3,0.6,0.6,1.2,0.9,1.8   c1.2,2.5,2.2,5.1,2.6,7.7c0.2,1.3,0.2,2.6,0.1,3.9c-0.2,1.3-0.5,2.5-1.1,3.8c-1,2.6-2.9,5.2-4,8.8c-0.6,1.8-0.9,3.7-0.8,5.6   c0.1,1.9,0.4,3.8,1,5.5c1.1,3.5,2.8,6.5,4.7,9.3l2.7,4c0.8,1.3,1.6,2.6,2.2,3.9c1.3,2.6,2.1,5.3,1.7,7.6c-0.3,2.3-2,4.5-4,6.7   c-2,2.2-4.5,4.6-6,7.8c-1.6,3.1-2.1,6.7-1.8,9.9c0.3,3.2,1.3,6.1,2.4,8.8l0.4,1l0.2,0.5l0,0.1l0,0l0,0.1l0.1,0.2   c0.3,0.7,0.4,1.1,0.5,1.7c0.2,1.1,0.2,2.3,0.1,3.5c-0.3,2.3-1.2,4.6-2.2,6.6c-2.2,4.1-5.2,7.3-8.2,9.7c-3,2.4-6.1,3.8-8.7,4.6   c-2.7,0.8-4.9,0.9-6.4,0.8c-0.7,0-1.3-0.1-1.7-0.2c-0.4-0.1-0.6-0.1-0.6-0.1l-0.1,0.3c0,0,0.2,0,0.6,0.1c0.4,0.1,1,0.2,1.7,0.3   c1.5,0.2,3.8,0.2,6.6-0.5c2.8-0.7,6-2.1,9.2-4.4c3.2-2.3,6.4-5.6,8.9-9.8c1.2-2.1,2.2-4.5,2.6-7.1c0.2-1.3,0.3-2.7,0-4   c-0.2-1.4-0.8-2.7-1.3-3.9c-1-2.6-1.8-5.3-2-8.2c-0.2-2.9,0.3-5.9,1.8-8.5c1.4-2.6,3.6-4.8,5.8-7.1c2.1-2.2,4.4-4.8,4.9-8.1   c0.6-3.3-0.5-6.6-1.9-9.4c-1.4-2.9-3.3-5.6-5.1-8.3c-1.7-2.7-3.3-5.5-4.3-8.6c-0.5-1.5-0.8-3.1-0.9-4.6c0-1.6,0.2-3.1,0.7-4.6   c0.9-3,2.7-5.6,3.9-8.6c0.6-1.5,1-3,1.2-4.6c0.2-1.6,0.1-3.1-0.1-4.6c-0.5-3-1.7-5.8-3-8.5c-1.3-2.6-2.8-5.1-4.4-7.3   c-3.3-4.5-7.4-8.1-11.9-10.1c-4.5-2-9.1-2.6-13-2.3c-4,0.3-7.3,1.2-10,2.2c-2.7,1-4.7,2-6,2.7c-1.3,0.7-2,1.2-2,1.2L902.7,824z" clip-rule="evenodd"></path>
    <path fill="#3960ac" fill-rule="evenodd" d="M903.5,828c0,0,0.7-0.4,2.1-1c1.4-0.6,3.5-1.3,6.2-2c2.7-0.7,6.1-1.2,10-1.2c3.9,0.1,8.3,0.7,12.6,2.6   c2.2,0.9,4.3,2.2,6.4,3.7c2,1.5,3.9,3.4,5.7,5.5c1.8,2.1,3.3,4.4,4.8,6.9c1.4,2.4,2.8,5.1,3.5,7.8c0.7,2.8,0.7,5.6-0.7,8.2   c-1.2,2.6-3.5,5-4.7,8.4c-0.6,1.7-0.8,3.6-0.6,5.4c0.2,1.8,0.7,3.5,1.4,5c1.4,3.1,3.3,5.9,5.3,8.5c1,1.3,2,2.5,2.8,3.9   c0.9,1.3,1.7,2.7,2.3,4c1.3,2.8,1.9,5.7,1.1,8.4c-0.8,2.7-3,5-5,7.4c-2.1,2.4-4.1,5-5.1,8.2c-1,3.1-0.9,6.5-0.2,9.4   c0.7,3,1.9,5.7,3.1,8.2c1,2.3,0.7,5-0.1,7.3c-0.8,2.4-2.1,4.5-3.6,6.4c-3,3.7-6.6,6.4-10.1,8.1c-3.5,1.7-7,2.3-9.8,2.1   c-2.8-0.1-4.9-0.9-6.3-1.5c-1.4-0.6-2-1.1-2-1.1l-0.1,0.1c0,0,0.7,0.5,2,1.2c1.4,0.7,3.5,1.5,6.4,1.7c2.8,0.2,6.4-0.3,10-2   c3.6-1.6,7.3-4.3,10.5-8.1c1.5-1.9,2.9-4.1,3.8-6.5c0.9-2.4,1.3-5.4,0.1-8c-1.2-2.5-2.3-5.2-2.9-8c-0.6-2.8-0.7-5.9,0.3-8.8   c1-2.9,2.9-5.4,4.9-7.7c2-2.3,4.3-4.7,5.3-7.8c1-3.1,0.3-6.5-1.1-9.5c-1.4-3-3.3-5.6-5.2-8.2c-2-2.6-3.8-5.3-5.1-8.2   c-1.3-2.9-2-6.2-0.9-9.2c1-3,3.3-5.4,4.6-8.2c1.4-2.9,1.5-6.2,0.7-9.1c-0.8-3-2.2-5.7-3.7-8.2c-1.5-2.5-3.2-4.9-5-7   c-1.9-2.1-3.8-4-6-5.5c-2.1-1.5-4.4-2.8-6.6-3.7c-4.5-1.9-9.1-2.4-13-2.3c-4,0.1-7.4,0.8-10.1,1.5c-2.7,0.8-4.8,1.6-6.2,2.2   c-1.4,0.6-2.1,1-2.1,1L903.5,828z" clip-rule="evenodd"></path>
    <path fill="#f5957c" fill-rule="evenodd" d="M857.7,880.3c0,0-0.8-10.3-10.3-7.9c-9.5,2.4-2.8,39.9,12.3,34C874.7,900.5,857.7,880.3,857.7,880.3z" clip-rule="evenodd"></path>
    <path fill="#b45d5d" fill-rule="evenodd" d="M855.8,903.6c-0.6-0.7-1.2-1.4-1.7-2.1c-0.5-0.7-0.9-1.5-1-2.3c0-0.2,0-0.4,0-0.5c0-0.2,0.1-0.3,0.1-0.5   c0.1-0.2,0.2-0.3,0.3-0.4l0.4-0.3c0.2-0.2,0.7-0.4,1-0.6l1.2-0.4l0.6-0.2l0-0.7c0-1.4-0.1-2.8-0.2-4.2c-0.1-1.4-0.2-2.8-0.4-4.2   c-0.2-1.4-0.4-2.8-0.8-4.2c-0.4-1.4-0.8-2.8-1.6-4.1c-0.4-0.7-0.9-1.4-1.8-1.9c-0.4-0.3-0.9-0.4-1.5-0.4c-0.3,0-0.5,0-0.8,0.1   c-0.3,0.1-0.4,0.1-0.7,0.3l-0.9,0.5c-0.3,0.3-0.7,0.6-1,0.9c-0.5,0.6-0.9,1.3-1.1,2.1c-0.2,0.7-0.3,1.5-0.3,2.2   c0,0.7,0.1,1.5,0.2,2.2c0.2,1.4,0.7,2.7,1.3,4c-0.3-1.4-0.4-2.7-0.4-4.1c0-0.7,0.1-1.3,0.2-2c0.1-0.6,0.3-1.2,0.5-1.8   c0.3-0.6,0.6-1,1-1.4c0.2-0.2,0.4-0.3,0.6-0.5l0.9-0.4l0.2-0.1l0.3,0c0.2,0,0.3,0.1,0.4,0.2c0.3,0.2,0.7,0.7,0.9,1.2   c0.6,1,1,2.3,1.3,3.6c0.3,1.3,0.6,2.6,0.8,3.9c0.4,2.7,0.8,5.4,1,8.1l0.6-0.9c-0.5,0.2-0.9,0.4-1.4,0.6c-0.4,0.3-0.9,0.5-1.3,0.9   c-0.2,0.2-0.4,0.4-0.5,0.6c-0.1,0.3-0.3,0.5-0.4,0.8c-0.1,0.3-0.1,0.6-0.1,0.9c0,0.3,0,0.6,0.1,0.8c0.3,1,0.9,1.8,1.6,2.5   C854.2,902.6,855,903.2,855.8,903.6z" clip-rule="evenodd"></path>
    <path fill="#f8a87e" fill-rule="evenodd" d="M861.8,912.7c-23.8-3-29.3-40.6-15.6-35.9C831,803.9,918,793.1,939,848.9c10.7,21,1.4,26.8,4.3,38.8   c5.2,21.7-8.4,34.6-19.8,49.1c-6.6,8.3-12.7,8.2-26.7,3.7C882.5,935.9,871.2,925.7,861.8,912.7z" clip-rule="evenodd"></path>
    <path fill="#224493" fill-rule="evenodd" d="M882,879c0,0,6.8-6.6,11.9-9.5c11.4-2.1,23.2-1.9,26.2-1.8l0.6,0.8l-0.6,2.3l-1,0.7   c-3.4-0.1-17.1-0.4-24.1,1.4C886.9,876.1,882,879,882,879z" clip-rule="evenodd"></path>
    <path fill="#fff" fill-rule="evenodd" d="M916.6,889.9c0,0-0.7,0.8-2.7,1.6l-1,0.4c-1.6,0.6-3.8,1.2-6.9,1.6c-1,0.1-2.1,0.2-3.2,0.3   c-0.9,0.1-1.9,0.1-2.9,0.2c-6.1-0.8-8-5.3-8-5.3s3.2-4.9,9-7.9c1.6-0.9,3.4-1.6,5.3-2l1.9,0.4c0.9,0.3,1.8,0.7,2.7,1.2   c2.2,1.2,3.7,3.8,4.6,6C916.3,888.3,916.6,889.9,916.6,889.9z" clip-rule="evenodd"></path>
    <path fill="#224493" fill-rule="evenodd" d="M934.4,869.6l-1,2.1l0.5,1.1c1.6,0.3,5,1.2,10.5,3.8c0.8-1.9-2.4-5.3-9.1-7.4L934.4,869.6z" clip-rule="evenodd"></path>
    <path fill="#fff" fill-rule="evenodd" d="M941.4,888.5c-0.4,0.2-1.9,0.5-3.8,0.7c-1.3,0.1-2.9,0.2-4.6,0.1l-1.7-0.1c-0.7-3.8-0.3-7.6-0.3-7.6   s0.2-1.4,0.5-3.2l0,0c1.2-0.2,2.3-0.3,3.2-0.3c2.8-0.1,4.8,0.5,6,1c1,0.4,1.5,0.8,1.5,0.8c-0.3,1.5-0.6,2.7-0.8,3.7   c-0.3,1.4-0.5,2.1-0.5,2.1l0,0.1l0.1,0.8L941.4,888.5z" clip-rule="evenodd"></path>
    <path fill="#3960ac" fill-rule="evenodd" d="M941.4 888.5c-.4.2-1.9.5-3.8.7-1.5-1.2-2.1-3.6-1.3-6 .8-2.4 2.6-4 4.5-4.2 1 .4 1.5.8 1.5.8-.3 1.5-.6 2.7-.8 3.7-.3 1.4-.5 2.1-.5 2.1l0 .1.1.8L941.4 888.5zM915.1 888.1c-.5 1.5-1.2 2.8-2.2 3.8-1.6.6-3.8 1.2-6.9 1.6-2.3-1.5-3.2-5.2-2-8.9.8-2.5 2.4-4.4 4.1-5.4.9.3 1.8.7 2.7 1.2 2.2 1.2 3.7 3.8 4.6 6L915.1 888.1z" clip-rule="evenodd"></path>
    <path fill="#fff" fill-rule="evenodd" d="M906.6 886.6c-.4 1.2-1.7 1.9-2.9 1.5-1.2-.4-1.9-1.7-1.5-2.9.4-1.2 1.7-1.9 2.9-1.5C906.3 884.1 907 885.4 906.6 886.6zM938.7 883.8c-.3.9-1.3 1.5-2.2 1.1-.9-.3-1.4-1.3-1.1-2.2.3-.9 1.3-1.4 2.2-1.1C938.5 881.9 939 882.9 938.7 883.8z" clip-rule="evenodd"></path>
    <path fill="#224493" fill-rule="evenodd" d="M892 888.6c.7-1.3 1.6-2.6 2.5-3.7 1-1.1 2.1-2.2 3.3-3.1l.9-.7 1-.6 1-.6.5-.3.5-.2 1.1-.4 1.1-.4.5-.2.6-.1 1.1-.2 0 0 .2 0 1.4.4 1.3.6 1.2.7 1.1.8-1.3-.5-1.3-.4-1.3-.3-1.3-.2.2 0-1 .3-.5.2-.5.2-1 .4-1 .4-.5.2-.5.3-1 .5-.9.6-.9.6C896.2 884.6 894 886.5 892 888.6zM931.5 878.3l2.7-.9c.9-.1 1.9-.2 2.9-.1 1 .1 1.9.3 2.8.8.9.4 1.7.9 2.3 1.7-.9-.3-1.8-.5-2.7-.6l-2.6-.4-2.7-.2C933.4 878.5 932.5 878.5 931.5 878.3z" clip-rule="evenodd"></path>
    <path fill="#f27466" fill-rule="evenodd" d="M931.4,901.6c-2.7-1.9-4.8-5.1-5.6-7.7c2.8,3.1,5.7,6.1,9,6c1.3,2.7-3.3,5.6-8.4,6.5   C929.6,905,932.2,902.6,931.4,901.6z" clip-rule="evenodd"></path>
    <path fill="#f48575" fill-rule="evenodd" d="M925.7,894L925.7,894c2.8,3.1,5.7,6.1,9,6c0.2,0.4,0.3,0.8,0.2,1.2c-2.8,0-5.4-1.4-7.9-4.3   C926.5,895.9,926,894.9,925.7,894z" clip-rule="evenodd"></path>
    <path fill="#f48d7d" fill-rule="evenodd" d="M841.5,887.6c-0.5-3.7,1.1-6.6,3.3-7.3c2.9-0.7,6.5,1.3,9.1,4.9c2.7,3.8,3.1,6.9,3.7,12   c0.5,3.7,3.3,5.8,5.6,5.9c0,0,2.2,1,1.4,2.8c-0.9,1.8-3-0.7-4.8-0.3c-1.8,0.4-4.4,2.2-9.7-1.1c-5.2-3.4-7.3-9.8-8.2-14.6   L841.5,887.6z" clip-rule="evenodd"></path>
    <path fill="#f48575" fill-rule="evenodd" d="M855.3,901.9c-1-1.6-1.1-4.2-0.9-6c0.3-1.9,1.4-3.1-0.1-5.1c-1-1.3-2.7-0.8-3.3,0.4c-0.7,1.3-0.8,3-0.5,4.8   c0.1,0.9,0.4,1.7,0.6,2.6c0.1,0.4,0.5,1.2,0.4,1.6c-0.2,0.7-0.7-0.6-0.8-1c-0.5-1.4-0.8-3-1-4.5c-0.2-2.5,1-4.1,0.6-6.6   c-1-5.6-5.8-6.5-7.9-3.5c-0.5,1.6-0.6,3.7-0.5,5.6c0-0.2-0.1-0.3-0.1-0.5l-0.3-2.3c-0.5-3.7,1.1-6.6,3.3-7.3   c2.9-0.7,6.5,1.3,9.1,4.9c2.7,3.8,3.1,6.9,3.7,12c0.4,2.7,2,4.5,3.7,5.4C859.7,904.4,857,904.6,855.3,901.9z" clip-rule="evenodd"></path>
    <path fill="#f27466" fill-rule="evenodd" d="M850.1 904.4c-4.8-3.1-6.9-8.6-7.9-13.2 5 12.6 13.5 14.6 15.5 14.9C856 906.6 853.6 906.7 850.1 904.4zM841.5 887.6c-.5-3.6.8-6.5 3-7.5 2.5-1.2 5.7.7 8.1 3 2.5 2.5 4.1 6.1 4.8 10.2.4 2.3.3 4.7 1.5 6.7 1.1 1.8 2.8 2.7 4.3 2.9.2 0 .2.4 0 .4-1.9 0-4.3-1.4-5.4-4.2-.7-1.7-.7-3.6-1-5.4-.3-2.1-.8-4-1.7-5.9-1.8-3.8-4.9-6.4-7.8-7.2C844.1 879.9 841 882.5 841.5 887.6 841.5 887.6 841.5 887.6 841.5 887.6z" clip-rule="evenodd"></path>
    <path fill="#224493" fill-rule="evenodd" d="M917.4,837.5c0,0-16.2-7.1-15.1,5.2c1,12.4-3.7,13.8-17.2,13.8c-13.6,0-18.8,15.2-8.9,25.7   c9.9,10.5-20.3,16.2-3.1,30.9c17.2,14.7-15.1,11.4-3.7,27.1c11.5,15.7-26.1,14.7-8.9,37.1c0,0-10.4-1.9-14.6-10.5   c0,0,2.1,6.7,7.8,11.4c0,0-32.9,2.9-40.2-22.8c-3.8-13.4,12.5-15.7,5.7-25.7c-13.7-20.1-13-25.7,4.7-37.6   c17.7-11.9-16.2-26.6,8.9-41.8c25-15.2,1.6-35.2,37-40.9C905.4,803.8,916.4,823.7,917.4,837.5z" clip-rule="evenodd"></path>
    <path fill="#3960ac" fill-rule="evenodd" d="M904.3,833.5c0,0-0.7-0.2-2.1-0.4c-1.4-0.1-3.5-0.4-6.2,0.7c-1.3,0.5-2.7,1.5-3.6,3c-0.9,1.5-1.3,3.4-1.3,5.4   c0.1,2,0.2,3.7,0.1,5.6c-0.1,1.9-0.5,3.8-1.5,5.1c-1,1.2-2.9,1.9-5.1,2.2c-2.2,0.3-4.5,0.4-7.2,0.4l-1,0.1l-1.2,0.2   c-0.8,0.1-1.5,0.3-2.2,0.6c-1.5,0.5-2.9,1.3-4.1,2.2c-2.6,2-4.3,5-5.1,8.1c-1.6,6.3,0.3,13.4,4.7,18.3l0.7,0.8   c0.1,0.2,0.3,0.3,0.4,0.6c0.3,0.4,0.4,0.8,0.5,1.1c0.1,0.7,0,1.5-0.5,2.5c-1,2.1-3.1,4.3-4.9,6.8c-0.9,1.3-1.8,2.8-2.5,4.5   c-0.6,1.7-0.9,3.8-0.6,5.8c0.3,2,1.2,3.7,2.2,5.1c1,1.4,2.1,2.6,3.3,3.7c1.2,1,2.1,1.9,2.9,2.8c0.8,0.9,1.5,1.9,1.6,2.6   c0.2,0.7,0.1,1-0.4,1.8c-0.6,0.8-1.5,1.6-2.6,2.5c-1.1,0.9-2.2,1.8-3.3,3c-1.1,1.1-2.1,2.7-2.6,4.5c-0.4,1.8-0.2,3.7,0.4,5.2   c0.6,1.5,1.3,2.8,2.1,3.9c0.8,1.1,1.4,1.9,1.8,2.8c0.4,0.9,0.6,1.8,0.6,2.7c0,1.7-1.2,3.4-2.6,5c-2.9,3.1-6.2,5.8-8.1,9.4   c-0.9,1.7-1.4,3.6-1.4,5.3c0,1.7,0.4,3.2,0.9,4.5c1,2.5,2.3,4.2,3.1,5.3c0.9,1.1,1.4,1.7,1.4,1.7l0.2-0.2c0,0-0.5-0.6-1.2-1.7   c-0.7-1.2-1.9-2.9-2.7-5.3c-0.4-1.2-0.7-2.6-0.6-4.2c0.1-1.5,0.6-3.2,1.5-4.7c1.8-3.1,5.1-5.6,8.3-8.8c1.5-1.6,3.1-3.6,3.3-6.1   c0.2-2.5-1.1-4.9-2.5-6.9c-1.4-2-2.6-4.6-2-7.1c0.7-2.5,3-4.3,5.1-6c1.1-0.9,2.2-1.8,3.1-2.9c0.9-1.1,1.4-2.7,1-4.2   c-0.4-1.5-1.3-2.7-2.2-3.8c-1-1.1-2.1-2.1-3.1-3.1c-2.1-1.9-4.1-4.3-4.5-7.1c-0.5-2.9,0.9-5.7,2.6-8c1.7-2.4,3.8-4.6,5.1-7.3   c0.7-1.3,1.1-2.9,0.7-4.5c-0.3-1.5-1.3-2.8-2.3-3.9c-3.9-4.3-5.6-10.3-4.3-15.6c0.6-2.7,2-5.1,4.1-6.8c2-1.7,4.6-2.6,7.1-2.7   c2.5-0.1,5-0.3,7.4-0.7c2.3-0.4,4.7-1.3,6.2-3.1c1.4-1.9,1.7-4.1,1.7-6.2c0.1-2-0.2-4-0.4-5.7c-0.1-1.8,0.2-3.5,0.9-4.8   c0.7-1.3,1.9-2.3,3-2.8c2.3-1.1,4.4-1,5.8-1c1.4,0.1,2.1,0.2,2.1,0.2L904.3,833.5z" clip-rule="evenodd"></path>
    <path fill="#2d2334" fill-rule="evenodd" d="M809.5,954.2c0,0,0-0.2-0.1-0.7c0-0.4-0.2-1.1-0.2-2c-0.1-1.7,0.2-4.2,1.7-6.9c0.8-1.4,1.8-2.7,3-4.3   c1.2-1.5,2.7-3.3,3.2-5.9c0.1-0.3,0.1-0.7,0.2-1l0-1c0-0.7-0.2-1.3-0.4-2c-0.1-0.7-0.5-1.2-0.8-1.9c-0.3-0.7-0.6-1.2-0.9-1.7   c-1.2-2.2-2.5-4.5-3.7-6.9c-1.2-2.4-2.3-5-3-7.7c-0.7-2.7-0.7-5.4,0.3-7.8c1-2.4,3.2-4.7,5.6-6.7c0.6-0.5,1.2-1,1.9-1.5   c0.6-0.5,1.3-1,1.9-1.5c0.7-0.5,1.3-1,2-1.5c0.9-0.7,1.3-1,2.2-1.8c0.8-0.8,1.5-1.6,2.1-2.5c0.3-0.5,0.6-0.9,0.8-1.5   c0.2-0.5,0.4-1,0.6-1.6c0.6-2.2,0.5-4.5,0.1-6.5c-0.9-4-2.6-7.3-3.7-10.5c-1.2-3.2-1.8-6.4-0.9-9.1c0.4-1.4,1.2-2.6,2.2-3.8   c0.5-0.6,1.1-1.1,1.6-1.7c0.7-0.5,1.2-1.1,1.9-1.6l2.2-1.6l1.1-0.8c0.4-0.3,0.8-0.7,1.2-1c1.6-1.3,3-2.8,4.3-4.4   c2.6-3.2,4.3-7.1,5.2-10.8c1-3.8,1.3-7.4,2.2-10.6c0.8-3.2,2.2-5.7,4.5-7.6c2.3-1.9,5.2-3.1,8.3-4c0.8-0.2,1.5-0.4,2.3-0.6   c0.8-0.2,1.6-0.3,2.3-0.5l0.3-0.1l0,0l0.2,0l0.6-0.1l1.2-0.2c0.8-0.1,1.6-0.3,2.4-0.4c1.6-0.3,3-0.3,4.5-0.4c0.7,0,1.5-0.1,2.2-0.1   c0.7,0,1.4,0.1,2.2,0.1c0.7,0,1.4,0.1,2.1,0.1c0.7,0.1,1.4,0.2,2.1,0.3c0.7,0.1,1.4,0.2,2,0.3c0.7,0.1,1.3,0.3,1.9,0.5   c5.1,1.4,9.4,3.9,12.5,6.9c3.1,3,5.1,6.4,6.3,9.3c1.3,2.9,1.9,5.4,2.3,7.1c0.3,1.7,0.4,2.6,0.4,2.6l0.3,0c0,0-0.1-0.9-0.3-2.7   c-0.3-1.7-0.7-4.3-1.9-7.3c-1.2-3-3-6.6-6.1-9.9c-3.1-3.3-7.5-6.2-12.9-7.8c-5.4-1.6-11.5-1.9-17.9-1.2c-1.6,0.2-3.2,0.4-4.8,0.7   c-0.8,0.2-1.6,0.3-2.4,0.5c-0.8,0.2-1.6,0.4-2.4,0.6c-3.2,0.9-6.5,2.2-9.3,4.4c-1.4,1.1-2.6,2.5-3.5,4c-0.9,1.5-1.6,3.2-2,5   c-0.9,3.5-1.3,7.1-2.3,10.6c-0.9,3.5-2.5,6.9-4.8,9.7c-1.2,1.4-2.4,2.7-3.9,3.9c-0.7,0.6-1.4,1.1-2.2,1.7l-2.3,1.6   c-0.8,0.5-1.4,1.2-2.2,1.8c-0.6,0.7-1.4,1.3-1.9,2.1c-1.2,1.4-2.2,3.1-2.7,4.9c-1.1,3.7-0.2,7.6,1.1,10.9c1.3,3.4,2.9,6.7,3.7,10.1   c0.4,1.7,0.4,3.5,0,5.1c-0.4,1.7-1.5,3.1-2.7,4.3c-1.2,1.2-2.6,2.2-4,3.2c-1.3,1.1-2.7,2.1-3.9,3.3c-2.5,2.2-4.8,4.7-6,7.8   c-1.2,3-1,6.4-0.2,9.2c0.9,2.9,2.1,5.6,3.4,8c1.3,2.5,2.7,4.8,4,6.9c0.3,0.5,0.7,1.1,0.9,1.6c0.2,0.5,0.6,1,0.7,1.6   c0.1,0.6,0.4,1.1,0.4,1.7l0.1,0.8c0,0.3-0.1,0.5-0.1,0.8c-0.3,2.2-1.6,3.9-2.7,5.5c-1.1,1.6-2.2,3.1-2.9,4.5   c-1.5,3-1.6,5.6-1.4,7.4c0.1,0.9,0.3,1.5,0.3,2c0.1,0.4,0.1,0.7,0.1,0.7L809.5,954.2z" clip-rule="evenodd"></path>
    <path fill="#224493" fill-rule="evenodd" d="M809.5,954.2c0,0,0-0.2-0.1-0.7c0-0.4-0.2-1.1-0.2-2c-0.1-1.7,0.2-4.2,1.7-6.9c0.8-1.4,1.8-2.7,3-4.3   c1.2-1.5,2.7-3.3,3.2-5.9c0.1-0.3,0.1-0.7,0.2-1l0-1c0-0.7-0.2-1.3-0.4-2c-0.1-0.7-0.5-1.2-0.8-1.9c-0.3-0.7-0.6-1.2-0.9-1.7   c-1.2-2.2-2.5-4.5-3.7-6.9c-1.2-2.4-2.3-5-3-7.7c-0.7-2.7-0.7-5.4,0.3-7.8c1-2.4,3.2-4.7,5.6-6.7c0.6-0.5,1.2-1,1.9-1.5   c0.6-0.5,1.3-1,1.9-1.5c0.7-0.5,1.3-1,2-1.5c0.9-0.7,1.3-1,2.2-1.8c0.8-0.8,1.5-1.6,2.1-2.5c0.3-0.5,0.6-0.9,0.8-1.5   c0.2-0.5,0.4-1,0.6-1.6c0.6-2.2,0.5-4.5,0.1-6.5c-0.9-4-2.6-7.3-3.7-10.5c-1.2-3.2-1.8-6.4-0.9-9.1c0.4-1.4,1.2-2.6,2.2-3.8   c0.5-0.6,1.1-1.1,1.6-1.7c0.7-0.5,1.2-1.1,1.9-1.6l2.2-1.6l1.1-0.8c0.4-0.3,0.8-0.7,1.2-1c1.6-1.3,3-2.8,4.3-4.4   c2.6-3.2,4.3-7.1,5.2-10.8c1-3.8,1.3-7.4,2.2-10.6c0.8-3.2,2.2-5.7,4.5-7.6c2.3-1.9,5.2-3.1,8.3-4c0.8-0.2,1.5-0.4,2.3-0.6   c0.8-0.2,1.6-0.3,2.3-0.5l0.3-0.1l0,0l0.2,0l0.6-0.1l1.2-0.2c0.8-0.1,1.6-0.3,2.4-0.4c1.6-0.3,3-0.3,4.5-0.4c0.7,0,1.5-0.1,2.2-0.1   c0.7,0,1.4,0.1,2.2,0.1c0.7,0,1.4,0.1,2.1,0.1c0.7,0.1,1.4,0.2,2.1,0.3c0.7,0.1,1.4,0.2,2,0.3c0.7,0.1,1.3,0.3,1.9,0.5   c5.1,1.4,9.4,3.9,12.5,6.9c3.1,3,5.1,6.4,6.3,9.3c1.3,2.9,1.9,5.4,2.3,7.1c0.3,1.7,0.4,2.6,0.4,2.6l0.3,0c0,0-0.1-0.9-0.3-2.7   c-0.3-1.7-0.7-4.3-1.9-7.3c-1.2-3-3-6.6-6.1-9.9c-3.1-3.3-7.5-6.2-12.9-7.8c-5.4-1.6-11.5-1.9-17.9-1.2c-1.6,0.2-3.2,0.4-4.8,0.7   c-0.8,0.2-1.6,0.3-2.4,0.5c-0.8,0.2-1.6,0.4-2.4,0.6c-3.2,0.9-6.5,2.2-9.3,4.4c-1.4,1.1-2.6,2.5-3.5,4c-0.9,1.5-1.6,3.2-2,5   c-0.9,3.5-1.3,7.1-2.3,10.6c-0.9,3.5-2.5,6.9-4.8,9.7c-1.2,1.4-2.4,2.7-3.9,3.9c-0.7,0.6-1.4,1.1-2.2,1.7l-2.3,1.6   c-0.8,0.5-1.4,1.2-2.2,1.8c-0.6,0.7-1.4,1.3-1.9,2.1c-1.2,1.4-2.2,3.1-2.7,4.9c-1.1,3.7-0.2,7.6,1.1,10.9c1.3,3.4,2.9,6.7,3.7,10.1   c0.4,1.7,0.4,3.5,0,5.1c-0.4,1.7-1.5,3.1-2.7,4.3c-1.2,1.2-2.6,2.2-4,3.2c-1.3,1.1-2.7,2.1-3.9,3.3c-2.5,2.2-4.8,4.7-6,7.8   c-1.2,3-1,6.4-0.2,9.2c0.9,2.9,2.1,5.6,3.4,8c1.3,2.5,2.7,4.8,4,6.9c0.3,0.5,0.7,1.1,0.9,1.6c0.2,0.5,0.6,1,0.7,1.6   c0.1,0.6,0.4,1.1,0.4,1.7l0.1,0.8c0,0.3-0.1,0.5-0.1,0.8c-0.3,2.2-1.6,3.9-2.7,5.5c-1.1,1.6-2.2,3.1-2.9,4.5   c-1.5,3-1.6,5.6-1.4,7.4c0.1,0.9,0.3,1.5,0.3,2c0.1,0.4,0.1,0.7,0.1,0.7L809.5,954.2z" clip-rule="evenodd"></path>
    <path fill="#3960ac" fill-rule="evenodd" d="M901.7,825.5l-0.6-1.7c-0.8-2.3-2-4.5-3.2-6.6c-1.4-2-2.9-4.1-4.9-5.7c-0.5-0.4-0.9-0.9-1.4-1.2l-1.6-1.1   c-1-0.8-2.2-1.3-3.3-1.9c-1.1-0.5-2.3-1-3.5-1.4c-1.2-0.3-2.4-0.7-3.7-0.9c-1.2-0.2-2.3-0.4-3.5-0.6c-1.2-0.1-2.5-0.3-3.7-0.4   c-1.2-0.1-2.5-0.2-3.7-0.2c-1.2,0-2.5,0-3.7,0.1c-1.2,0.2-2.5,0.2-3.7,0.4c-1.2,0.3-2.5,0.4-3.7,0.8c-1.2,0.4-2.4,0.7-3.6,1.1   l-1.7,0.7l-0.9,0.4l-0.4,0.2l-0.2,0.1l-0.1,0.1l-0.1,0l-0.2,0.1c-2,1-4.5,2.6-6.4,4.3c-1.9,1.8-3.6,3.9-4.9,6.1   c-1.4,2.2-2.4,4.6-3.2,6.9c-1.7,4.7-2.8,9.4-4.1,13.9l0.2-0.5c-0.4,0.7-0.8,1.5-1.1,2.2c-0.4,0.7-0.8,1.3-1.2,1.9l-0.6,0.8   l-0.7,0.7l-0.7,0.6c-0.3,0.1-0.5,0.3-0.8,0.4l0.6-0.2c-0.9,0.3-1.9,0.5-2.8,0.9l-1.3,0.6c-0.4,0.2-0.9,0.4-1.3,0.6l-1.3,0.7   c-0.4,0.2-0.8,0.4-1.2,0.7c-0.8,0.6-1.6,1.1-2.3,1.7c-0.7,0.6-1.4,1.3-2.1,1.9c-0.7,0.7-1.3,1.4-1.9,2.1l-1.7,2.3l-1.4,2.5   l-0.2,0.3l0,0.3l-0.3,1.6l-0.1,1.5l0.1,1.5l0.2,1.4c0.3,1.8,0.8,3.4,1.2,4.9c0.2,0.8,0.4,1.5,0.5,2.2c0.1,0.7,0.2,1.4,0.2,1.9   c0,0.3-0.1,0.5-0.1,0.8c0,0.3-0.1,0.4-0.2,0.7c-0.1,0.2-0.2,0.4-0.3,0.6c-0.2,0.2-0.3,0.4-0.4,0.5l0.3-0.2l-1,0.7l-1.1,0.6   c-0.8,0.4-1.5,0.8-2.3,1.2c-1.6,0.8-3.4,1.5-5.2,2.5c-0.9,0.5-1.8,1.1-2.7,1.8c-0.4,0.4-0.9,0.8-1.3,1.2c-0.4,0.5-0.8,0.9-1.1,1.4   c-0.3,0.5-0.7,1-0.9,1.6c-0.2,0.6-0.5,1.1-0.6,1.7c-0.1,0.6-0.3,1.2-0.3,1.7l-0.1,1.7l0,0.3l0.1,0.3c1,3.7,2.5,6.9,3.5,10.1   c0.5,1.6,0.8,3.1,0.9,4.6c0,0.8,0,1.5-0.1,2.2l-0.2,1l-0.4,1l0,0.1l0,0.1c-0.2,0.5-0.4,0.9-0.7,1.4c-0.3,0.5-0.5,0.9-0.9,1.4   c-0.7,0.9-1.4,1.9-2.2,2.8c-1.6,1.8-3.4,3.7-5,5.7c-1.6,2-3.2,4.4-3.9,7.2c-0.1,0.7-0.3,1.4-0.3,2.1c0,0.7-0.1,1.5,0.1,2.2   c0.2,1.5,0.7,2.7,1.3,4.1c0.6,1.1,1.3,2.2,2,3.3l2.1,3.2c1.4,2.1,2.7,4.2,3.9,6.4l0.8,1.7l0.7,1.7l0.6,1.7l0.4,1.8   c0.1,0.6,0.2,1.2,0.2,1.8c0,0.6,0.1,1.2,0.1,1.8c-0.1,0.6-0.1,1.2-0.2,1.8l-0.3,1.8l0.3,0.1l0.4-1.9c0.1-0.6,0.2-1.2,0.3-1.9   c0.1-0.6,0-1.3,0-1.9c0-0.6-0.1-1.3-0.2-1.9c-0.1-0.6-0.2-1.2-0.4-1.9l-0.5-1.8l-0.7-1.8l-0.8-1.7c-2.2-4.5-5.2-8.6-7.4-13.1   c-0.5-1.1-0.9-2.3-1-3.5c-0.1-0.6-0.1-1.2,0-1.8c0-0.6,0.2-1.2,0.3-1.8c0.6-2.4,2.1-4.5,3.7-6.4c1.6-1.9,3.4-3.7,5.1-5.5   c0.8-0.9,1.7-1.9,2.4-2.9c0.8-1,1.4-2.1,1.9-3.3v0l0.5-1.3c0.1-0.4,0.2-0.9,0.3-1.3c0.2-0.9,0.2-1.8,0.2-2.7c0-1.8-0.4-3.6-0.9-5.3   c-1-3.4-2.4-6.7-3.3-10.1l0,0.1l0.1-1.4c0-0.5,0.2-0.9,0.3-1.3c0.1-0.5,0.3-0.9,0.4-1.3c0.1-0.4,0.4-0.8,0.7-1.2   c0.2-0.4,0.6-0.7,0.8-1.1c0.3-0.3,0.7-0.6,1-0.9c0.7-0.6,1.5-1.1,2.3-1.5c1.6-0.9,3.4-1.6,5.1-2.4c0.9-0.4,1.7-0.8,2.5-1.3   c0.8-0.5,1.6-1,2.4-1.5l0,0l0,0l0.8-1c0.2-0.4,0.4-0.7,0.6-1.1c0.1-0.4,0.3-0.8,0.3-1.2c0-0.4,0.1-0.8,0.1-1.2   c0-0.8-0.1-1.7-0.2-2.5c-0.1-0.8-0.3-1.6-0.5-2.4c-0.4-1.6-0.8-3.2-1.1-4.7c-0.1-0.8-0.2-1.6-0.2-2.4l0.1-1.2l0.2-1.2l0,0.1   l1.3-2.2l1.5-2c0.6-0.6,1.2-1.2,1.7-1.9c0.6-0.6,1.3-1.1,1.9-1.7c0.7-0.5,1.4-1,2.1-1.5c0.3-0.2,0.7-0.4,1.1-0.7l1.1-0.6   c0.4-0.2,0.8-0.4,1.2-0.5l1.2-0.5c0.8-0.3,1.6-0.5,2.4-0.8l0.1,0l0,0l1.1-0.7l1-0.8l0.9-1c0.3-0.3,0.5-0.7,0.8-1   c0.5-0.7,0.9-1.5,1.4-2.2c0.4-0.8,0.8-1.5,1.2-2.3l0,0l0,0c1.3-4.6,2.3-9.3,3.9-13.7c0.8-2.2,1.7-4.4,3-6.4c1.2-2,2.7-3.9,4.4-5.5   c1.7-1.6,3.7-2.9,5.8-4l3.2-1.4c1.1-0.4,2.2-0.7,3.4-1.1c1.1-0.3,2.3-0.5,3.4-0.8c1.2-0.2,2.3-0.3,3.5-0.5c1.2-0.1,2.4-0.1,3.6-0.2   c1.2,0,2.4,0,3.6,0.1c2.4,0.1,4.7,0.4,7.1,0.8c1.2,0.2,2.3,0.5,3.4,0.8c1.1,0.4,2.2,0.8,3.3,1.3c1,0.6,2.2,1,3.1,1.7l1.5,1   c0.5,0.3,0.9,0.7,1.4,1.1c1.9,1.5,3.4,3.3,4.8,5.2c1.3,2,2.5,4,3.3,6.2C893.4,820.5,910,842.6,901.7,825.5z" clip-rule="evenodd"></path>
    <path fill="#3960ac" fill-rule="evenodd" d="M869.6,859.2c-0.1,0.6-0.3,1.2-0.3,1.8c0,0.6-0.1,1.2,0,1.8c0.1,0.6,0.1,1.2,0.2,1.7   c1.1,4.6,4.2,6.7,6.9,10.8c0.9,1.4,1.7,2.8,2.2,4.2c0.8,2.3,0.7,5.2-0.2,7.5c-0.4,1.1-0.8,2.2-1.3,3.3c-1,2.2-2.2,4.5-3.1,7   c-3.3,8.4-1.7,12.7,4.7,18.2l2.9,2.4c1.9,1.6,3.8,3.2,5.6,4.9l1.3,1.3l1.2,1.4l1.1,1.5l0.9,1.6c0.3,0.5,0.6,1.1,0.8,1.7   c0.2,0.6,0.4,1.1,0.6,1.7c0.1,0.6,0.3,1.2,0.4,1.8l0.2,1.9h0.3l-0.1-1.9c-0.1-0.6-0.2-1.2-0.3-1.9c-0.1-0.6-0.4-1.2-0.5-1.8   c-0.2-0.6-0.5-1.2-0.7-1.8c-0.3-0.6-0.6-1.1-0.9-1.7l-1-1.6l-1.2-1.5l-1.2-1.4c-8.2-8.8-17.5-11.4-12.2-24.2c1-2.3,2.2-4.5,3.2-6.8   c0.5-1.1,1.1-2.3,1.5-3.5c1.1-2.9,1.4-6,0.4-9c-0.6-1.7-1.4-3.3-2.4-4.8c-2.6-4-6.6-7.1-6.2-11.8c0.3-4,2.8-3.3,5.4-5.9   C879.2,855,870.2,857.3,869.6,859.2z" clip-rule="evenodd"></path>
    <path fill="#224493" fill-rule="evenodd" d="M907.3,833.8c0,0,0-0.2,0.1-0.7c0-0.2,0.1-0.5,0.1-0.9c0-0.2,0-0.4,0.1-0.5c0-0.2,0-0.5,0-0.8   c0-0.5,0-1.1,0-1.8c0-0.6-0.1-1.3-0.2-2.1c-0.1-0.7-0.2-1.5-0.4-2.4c-0.2-0.8-0.4-1.7-0.7-2.6c-0.6-1.8-1.5-3.8-2.6-5.8   c-1.2-2-2.7-4-4.5-5.9c-3.6-3.8-8.7-7.2-14.8-9.1c-6.1-1.9-13.4-2.7-20.8-0.6c-1.9,0.5-3.7,1.3-5.4,2.1c-0.9,0.5-1.7,0.9-2.7,1.5   c-0.7,0.5-1.4,0.9-2.2,1.5c-0.8,0.6-1.6,1.2-2.4,1.9c-0.7,0.7-1.5,1.4-2.2,2.1c-1.4,1.5-2.7,3.1-3.8,5c-1.1,1.8-2.1,3.8-2.7,5.8   c-0.3,1-0.7,2.2-0.9,3c-0.2,0.9-0.4,1.8-0.7,2.7c-0.9,3.6-1.7,7-3.1,9.8c-0.2,0.3-0.3,0.7-0.5,1l-0.6,1l-0.3,0.5l0,0.1   c-0.1,0.1,0.3-0.4,0.2-0.2l-0.1,0.1l-0.2,0.3l-0.9,1.1l-0.2,0.3l-0.2,0.2l-0.4,0.3c-0.2,0.2-0.4,0.4-0.7,0.6   c-0.7,0.5-1.3,1-2.1,1.5l-2.3,1.6c-0.8,0.5-1.7,1.1-2.5,1.8c-0.9,0.6-1.7,1.4-2.6,2.1c-0.4,0.4-0.8,0.9-1.2,1.3l-0.6,0.7l-0.3,0.3   c-0.4,0.5-0.1,0.2-0.2,0.3l0,0.1l-0.1,0.1l-0.8,1.2l-0.4,0.6l-0.5,0.9c-0.3,0.6-0.6,1.2-0.9,1.8c-0.2,0.6-0.4,1.2-0.6,1.8   c-0.4,1.2-0.5,2.4-0.7,3.6c0,1.1-0.1,2.4,0,3.4c0.1,2.2,0.4,4.1,0.7,6l0,0.2c0-0.2,0,0.5,0-0.3v0.1l0,0.4l0,0.7   c0.1,0.7-0.1,0.4-0.1,0.5c0,0.1-0.1,0.4-0.3,0.6c-0.5,0.6-1.9,1.3-3.5,1.9c-1.6,0.7-3.5,1.3-5.5,2.4c-0.5,0.2-1,0.6-1.5,0.9   c-0.3,0.2-0.5,0.3-0.8,0.5l-0.7,0.7c-0.2,0.2-0.5,0.4-0.7,0.7l-0.7,0.8l-0.6,0.9l-0.5,1l-0.4,1c-0.1,0.2,0.1-0.2-0.1,0.4l0,0.1   l0,0.2l-0.1,0.3l-0.1,0.7l-0.1,0.3c0,0.1,0,0.3-0.1,0.5c-0.1,0.7-0.1,1.4-0.1,2.1l0.2,1.7c0.8,4.5,2.8,7.7,4,10.6   c0.6,1.4,1,2.8,1.2,4c0.2,1.2-0.1,2.2-0.6,3.2l-0.2,0.4l-0.1,0.2l-0.1,0.1l0.1-0.1l-0.1,0.1l-0.8,0.9c-0.5,0.5-0.8,0.8-1.4,1.3   c-1.1,1-2.4,1.9-3.7,3c-0.6,0.6-1.3,1.1-1.9,1.8l-0.4,0.5l-0.1,0.1l-0.1,0.1c-0.1,0.1,0.1-0.1-0.2,0.2l-0.2,0.2l-0.6,0.9l-0.3,0.5   l-0.3,0.6l-0.6,1.3c-0.4,0.8-0.6,1.6-0.8,2.5c-0.7,3.3-0.4,6.4,0.3,9.1l0.3,1l0.1,0.3l0.1,0.2l0.2,0.5c0.2,0.6,0.4,1.2,0.7,1.8   c0.4,1.2,0.9,2.3,1.4,3.4c1,2.3,2,4.1,2.9,6c0.9,1.8,1.7,3.5,2.5,5c0.8,1.5,1.5,2.8,2,3.9c0.5,1.2,0.7,2.2,0.7,3   c0,1.7-0.6,2.5-0.6,2.5l0.4,0.2c-0.1,0,0.7-0.8,0.8-2.7c0.1-0.9-0.1-2.1-0.5-3.4c-0.4-1.3-1.1-2.6-1.8-4.2   c-0.7-1.5-1.4-3.2-2.2-5.1c-0.8-1.9-1.7-3.9-2.6-6c-0.4-1.1-0.9-2.2-1.2-3.4c-0.3-1.2-0.8-2.4-1-3.7c-0.5-2.5-0.7-5.3,0-8.1   c0.7-2.7,2.4-5.2,4.9-7.1c1.2-1,2.5-1.8,3.8-2.8c0.6-0.5,1.3-1.1,1.9-1.6l0.8-0.9c0.3-0.4,0.5-0.7,0.7-1.1c0.9-1.5,1.4-3.2,1.3-5   c-0.1-1.7-0.6-3.5-1.2-5.1c-1.2-3.3-3-6.4-3.5-9.9l-0.1-1.3l0.1-1.3c0-0.4,0.2-0.9,0.3-1.3c0.1-0.2,0.1-0.5,0.2-0.6l0.3-0.6   c0.7-1.6,2.2-2.7,3.8-3.5c1.6-0.8,3.4-1.4,5.1-2.1c1.7-0.7,3.6-1.4,5.1-2.8c0.7-0.7,1.3-1.6,1.5-2.6c0.3-1.1,0.2-1.9,0.2-3   c-0.2-1.9-0.4-3.8-0.5-5.7c-0.1-0.9,0-1.9,0-2.8c0.2-0.9,0.2-1.9,0.5-2.7c0.5-1.8,1.5-3.3,2.6-4.9c2.3-2.9,5.7-4.8,8.9-6.9   c0.8-0.5,1.6-1.1,2.4-1.7c0.7-0.6,1.6-1.3,2.2-2l0.9-1.1c0.2-0.2,0.3-0.3,0.5-0.6l0.4-0.6l0.8-1.2c0.2-0.4,0.5-0.9,0.7-1.3   c1.8-3.5,2.7-7.2,3.6-10.8c0.9-3.6,1.8-7,3.7-9.9c1.8-2.9,4.3-5.4,7-7.3c0.7-0.5,1.4-0.9,2.1-1.4c0.7-0.4,1.4-0.8,2.1-1.2   c1.5-0.7,2.9-1.3,4.5-1.7c6.1-1.7,12.3-1,17.4,0.7c5.2,1.7,9.4,4.7,12.4,7.8c1.5,1.6,2.7,3.2,3.6,4.8c0.9,1.6,1.6,3.2,2,4.6   c0.9,2.8,1,5.3,0.9,6.7c0,0.2,0,0.4,0,0.5c0,0.2,0,0.4-0.1,0.5c0,0.3-0.1,0.6-0.1,0.9c0,0.5-0.1,0.7-0.1,0.7L907.3,833.8z" clip-rule="evenodd"></path>
    <path fill="#3960ac" fill-rule="evenodd" d="M902.5,832.8c0,0-0.1-0.2-0.2-0.7c-0.2-0.5-0.2-1-0.7-2c-0.2-0.5-0.4-1.1-0.7-1.6c-0.3-0.5-0.6-1.1-0.9-1.8   c-0.4-0.6-0.8-1.3-1.2-2c-0.5-0.6-1-1.4-1.6-2.1c-2.4-2.8-6-5.7-10.6-7.8c-4.6-2.1-10.3-3.5-16.6-3.2c-6.2,0.3-13.2,2.1-19.1,6.9   c-0.8,0.6-1.4,1.3-2.1,1.9c-0.6,0.7-1.3,1.4-1.9,2.2l-0.9,1.2l-0.1,0.1c-0.1,0.1,0.1-0.1-0.2,0.2l0,0.1l-0.2,0.3l-0.3,0.5l-0.3,0.5   l-0.4,0.7c-0.2,0.5-0.6,1-0.7,1.5c-1.7,3.8-2.1,7.7-2.6,11.1c-0.2,1.7-0.5,3.3-0.8,4.9c-0.2,0.8-0.4,1.5-0.6,2.2   c-0.1,0.3-0.2,0.7-0.4,1l-0.2,0.5l-0.1,0.2l-0.1,0.1c-0.1,0.3,0.2-0.3,0.1-0.2l0,0.1l-0.7,1.2c-0.1,0.2-0.2,0.5-0.3,0.5l-0.3,0.3   c-0.2,0.2-0.3,0.4-0.5,0.6l-0.8,0.8c-1.1,1-2.3,2-3.8,3c-1.4,1-3,2-4.6,3.3c-1.6,1.2-3.3,2.7-4.8,4.5c-1.6,1.8-2.7,4.5-3.1,7   l-0.2,1.9c0,0.6,0.1,1.2,0.1,1.8l0.1,0.9l0,0.2l0,0.3l0,0.1l0.1,0.3c0.1,0.4,0.2,0.9,0.4,1.5l0.3,0.9l0.2,0.7l0.5,1.3   c0.2,0.4,0.3,0.9,0.4,1.2c0.1,0.4,0.2,0.8,0.3,1.1c0.1,0.4,0.2,0.7,0.2,1l0.1,0.4l0,0.3l0,0.2l0,0.1c0,0.2,0-0.3,0-0.2l0,0.1   l-0.1,0.7l0,0.1l0,0.1c-0.1,0.1-0.1,0.2-0.5,0.5c-0.3,0.2-1,0.5-1.8,0.8c-0.8,0.3-1.7,0.6-2.7,1c-0.3,0.1-0.5,0.2-0.8,0.3l-0.4,0.2   l-0.1,0l-0.3,0.2l-0.2,0.1l-1.2,0.7l-0.6,0.3l-0.8,0.6c-0.5,0.4-1.1,0.8-1.6,1.3c-0.4,0.5-0.9,1-1.3,1.5c-0.4,0.5-0.7,1.2-1,1.7   c-1.2,2.5-1.3,5.2-0.9,7.4c0.3,2.2,1,4.1,1.7,5.8c0.7,1.8,1.4,3.4,2,4.9c0.3,0.8,0.6,1.5,0.8,2.3c0.1,0.4,0.2,0.7,0.3,1.1l0.1,0.5   l0,0.1c0,0.1-0.1-0.3,0-0.1l0,0.1l0.1,0.3l0.1,0.6l0,0.2c0,0.1,0,0.4,0,0.6c-0.1,0.5-0.2,0.9-0.5,1.4c-0.5,1-1.5,2.1-2.6,3.2   c-1.1,1.1-2.4,2.3-3.6,3.6l-0.2,0.3l-0.1,0.1l-0.1,0.2l0,0.1l-0.4,0.5c-0.2,0.3-0.5,0.6-0.7,1c-0.5,0.9-1.1,1.7-1.4,2.6   c-0.8,1.7-1.1,3.6-1.2,5.4c-0.1,1.8,0.2,3.5,0.6,5.1c0.4,1.6,1,3,1.6,4.4c1.3,2.7,2.7,5.1,4.1,7.2c1.3,2.1,2.4,4.1,3.3,6.2   c1.7,4,2.4,8,1.2,10.6c-0.6,1.3-1.7,2.1-2.7,2.6c-1.1,0.5-2.1,0.7-3,0.8c-0.9,0.1-1.5,0.1-2,0.1c-0.4,0-0.7,0-0.7,0l0,0.5   c0,0,0.2,0,0.7,0.1c0.5,0.1,1.1,0.1,2,0.1c0.9-0.1,2-0.1,3.2-0.6c1.2-0.4,2.6-1.3,3.4-2.9c0.8-1.5,1-3.4,0.9-5.4   c-0.2-2-0.7-4.1-1.5-6.3c-0.8-2.2-1.8-4.4-3.1-6.6c-1.3-2.2-2.6-4.5-3.7-7.1c-0.5-1.3-1-2.6-1.3-4c-0.3-1.4-0.5-2.9-0.4-4.3   c0.1-1.5,0.4-3,1.1-4.3c0.3-0.7,0.7-1.3,1.1-2c0.5-0.6,1-1.3,1.5-1.8c2.1-2.3,5-4.2,6.9-7.2c0.5-0.7,0.8-1.6,1-2.5   c0.2-0.9,0.2-1.9,0.1-2.7c-0.3-1.8-0.8-3.4-1.5-5.1c-1.2-3.3-2.7-6.6-3.3-10.1c-0.2-1.7-0.1-3.5,0.7-5.1c0.2-0.4,0.4-0.8,0.7-1.1   l0.9-1c0.3-0.3,0.7-0.5,1-0.8l0.5-0.4l0.6-0.3l1.2-0.7c0.4-0.2,0.8-0.4,1.2-0.5c0.9-0.3,1.7-0.6,2.6-0.9c0.9-0.3,1.8-0.6,2.6-1.1   c0.9-0.5,1.6-1.2,2.1-2.1c0.2-0.4,0.4-0.9,0.5-1.4l0.1-0.7c0.1-0.3,0-0.5,0-0.8c0-0.5,0-1-0.1-1.5c0-0.5-0.1-1-0.2-1.4   c-0.4-1.9-1.1-3.6-1.6-5.4c-0.1-0.4-0.2-0.9-0.3-1.4c-0.1-0.5-0.1-0.9-0.1-1.3c0-0.4-0.1-0.9-0.1-1.3l0.2-1.3   c0.3-1.7,1-3.4,2.2-4.8c2.3-2.8,5.5-4.6,8.6-6.7c1.5-1,3-2.2,4.4-3.4c1.4-1.2,2.6-2.9,3.5-4.4c1.8-3.5,2.3-7.1,2.9-10.6   c0.5-3.5,1-6.8,2.4-9.7c1.3-2.8,3.4-5.3,5.8-7.2c4.8-3.8,10.7-5.3,16-5.5c5.3-0.2,10.2,1,14.1,2.8c3.9,1.8,6.7,4.2,8.6,6.4   c1.9,2.2,2.9,4.4,3.4,5.7c0.3,0.6,0.5,1.4,0.6,1.8c0.1,0.4,0.2,0.7,0.2,0.7L902.5,832.8z" clip-rule="evenodd"></path>
    <path fill="#f27466" fill-rule="evenodd" d="M899.9,912.2c0,0,6.7,9.6,12.3,13.4c0,0,3,2.8,9,2.3c6.4-0.5,6.4-2.3,7.5-4.4c1.4-2.7,3.9-8.4,6.4-10.3   l-4.4,1.8l-8.4,4.2l-12.6-1.3L899.9,912.2z" clip-rule="evenodd"></path>
    <path fill="#f27466" fill-rule="evenodd" d="M900.1,912.2c2.7,0.9,13.1,2.8,23.1,2.3c10-0.5,12.6-1.7,12.6-1.7s-4.2,2.3-5.2,3.6c-1,1.3-11.7,3.1-12.3,3   c-0.6-0.2-9-1.3-9.8-1.5c-0.8-0.2-4.8-2.4-4.8-2.4L900.1,912.2z" clip-rule="evenodd"></path>
    <path fill="#f48575" fill-rule="evenodd" d="M915.7,925.7c1.8,0.4,6.5,0.9,10.4-1c0.4-0.2,0.5,0,0.4,0.3c-0.1,0.5-0.3,1.1-0.6,1.4   c-0.5,0.6-6.8,2.1-10.4,0.2C914.6,926.1,914.9,925.5,915.7,925.7z" clip-rule="evenodd"></path>
    <path fill="#bf344c" fill-rule="evenodd" d="M932.9,914.3c0,0-2.8,3.8-3.5,5.1c-0.7,1.4-3.9,6.1-7.6,5.5c-3.7-0.6-7.7-2.5-7.5-2.7   c0.1-0.2,1.8-4.6,1.8-4.6l1.8-0.7l8.8-0.2l4.6-1.5l0.7-0.7L932.9,914.3z" clip-rule="evenodd"></path>
    <path fill="#bf344c" fill-rule="evenodd" d="M916.7,922.8c0,0,1.6-3,1.8-5.3c0.2-2.3-4.8-0.6-4.8-0.6l-12.5-3.1c0,0,5.8,6.5,6.7,7.2   c0.9,0.7,3.6,1.3,3.6,1.3L916.7,922.8z" clip-rule="evenodd"></path>
    <path fill="#f27466" fill-rule="evenodd" d="M907.8,920.6c0.3-0.4,9.6-0.9,15.3,4.1c0,0-3.9,1-7.5,0.2C912,924.2,907.8,920.6,907.8,920.6z" clip-rule="evenodd"></path>
    <path fill="#fff" fill-rule="evenodd" d="M910.9 923c0 0 10.9 1.2 16.6-.3 0 0-3.4 2.5-8.3 2.6C916.8 925.2 913.8 924.3 910.9 923zM902.6 915.4c0 0 5.1 2.1 13.7 2.6 10.1.6 14.8-1.2 14.8-1.2s1-1.3 1.7-2.4c0 0-6.5 2.2-12.3 1.5 0 0-9.7-.4-10.7-.7-1-.2-5.6-1.1-10.5-3.3L902.6 915.4z" clip-rule="evenodd"></path>
    <path fill="#bf344c" fill-rule="evenodd" d="M899.7,912.1c3.4,1.7,7,2.7,10.8,3.2c3.7,0.5,7.3,0.5,11,0.6c2.7,0,5.4,0,8.1-0.5c2.6-0.5,5-1.6,7.1-3.1   c0,0,0-0.1,0-0.1c-2.2,1.3-4.4,2.2-6.9,2.8c-2.6,0.6-5.4,0.7-8,0.6c-7.4-0.2-15.1-0.5-21.9-3.6   C899.5,911.9,899.5,912.1,899.7,912.1z" clip-rule="evenodd"></path>
    <path fill="#bf344c" fill-rule="evenodd" d="M899.6,912.1c2.8,2.9,5.1,5.9,8,8.7c2.5,2.3,5.4,3.8,8.8,4.4c2.9,0.5,6,0.4,8.7-0.8c1.3-0.6,2.3-1.5,3.1-2.6   c1.1-1.6,1.7-3.4,2.9-4.9c0,0,0-0.1-0.1-0.1c-1.1,1.2-2,2.6-2.9,4c-0.8,1.3-1.7,2.2-3,3c-2.7,1.4-6.2,1.4-9.1,0.9   c-3.4-0.6-6.1-2.2-8.7-4.5c-2.9-2.5-5.1-5.5-7.8-8.2C899.6,912,899.4,912,899.6,912.1z" clip-rule="evenodd"></path>
    <path fill="#f48d7d" fill-rule="evenodd" d="M915.6,929.5c2.8,2.6,5.2,2.6,7.2,0C920.3,929.9,917.9,929.9,915.6,929.5z" clip-rule="evenodd"></path>
    <path fill="#224493" fill-rule="evenodd" d="M919,838.8c3.1,1,16.2,4.5,22.7,16.1c1.2,2.1,3.1-10.5,2.4-13c-0.8-3.1,4.1-3.7,1.5-5.9   c-7.8-6.7-5.2-1.7-9.6-11.4c-3.5-7.8-26.7-21.5-36.2-15.8c-2.2,1.4,1.7,6.7,2.9,10.2c1,2.8,7.5,12.2,9.9,13.6   C914.7,833.7,916.1,837.8,919,838.8z" clip-rule="evenodd"></path>
    <path fill="#3960ac" fill-rule="evenodd" d="M919.4,834.8c0.6,0.4,2.2,0.7,3.9,0.8c1.8,0.1,3.8,0.2,6,0.6c0.5,0.1,1.1,0.2,1.7,0.4   c0.3,0.1,0.6,0.2,0.9,0.3l0.9,0.4c0.3,0.1,0.6,0.3,0.9,0.4l0.9,0.6l0.8,0.6l0.7,0.8l0.7,0.8c0.1,0.2-0.1-0.2,0.3,0.4l0,0.1l0.1,0.2   l0.2,0.3l0.3,0.6l0.2,0.3c0.1,0.1,0.1,0.3,0.2,0.5c0.3,0.6,0.5,1.3,0.7,2l0.3,1.7c0.6,4.5-0.3,8.2-0.5,11.3c-0.1,1.6-0.1,3,0.1,4.1   c0.2,1.2,0.8,2,1.6,2.8l0.3,0.3l0.2,0.2l0.1,0.1l-0.1-0.1l0.1,0l1,0.7c0.6,0.3,1,0.5,1.7,0.8c1.3,0.6,2.8,1,4.4,1.7   c0.8,0.3,1.6,0.7,2.4,1.1l0.6,0.3l0.1,0.1l0.1,0c0.1,0.1-0.1-0.1,0.2,0.1l0.2,0.2l0.9,0.7l0.4,0.3l0.5,0.5l1,1   c0.6,0.7,1,1.4,1.5,2.1c1.7,2.9,2.4,6,2.6,8.8l0.1,1l0,0.3l0,0.2l0,0.5c0,0.6,0,1.3-0.1,1.9c0,1.2-0.2,2.5-0.3,3.7   c-0.2,2.5-0.6,4.6-0.9,6.6c-0.3,2-0.5,3.8-0.8,5.5c-0.3,1.7-0.6,3.1-0.7,4.4c-0.1,1.2,0,2.3,0.3,3.1c0.5,1.6,1.4,2.2,1.3,2.2   l-0.3,0.4c0.1,0-0.9-0.6-1.6-2.3c-0.3-0.9-0.6-2-0.6-3.3c0-1.3,0.2-2.8,0.4-4.5c0.2-1.6,0.3-3.5,0.5-5.5c0.2-2,0.5-4.2,0.6-6.5   c0.1-1.2,0.2-2.3,0.1-3.6c0-1.2,0-2.5-0.2-3.8c-0.3-2.6-1-5.3-2.5-7.7c-1.5-2.4-3.9-4.2-6.8-5.3c-1.4-0.5-3-1-4.5-1.5   c-0.8-0.3-1.5-0.6-2.3-1l-1-0.6c-0.4-0.3-0.7-0.5-1-0.8c-1.3-1.1-2.3-2.6-2.7-4.3c-0.4-1.7-0.5-3.5-0.4-5.2c0.2-3.5,0.9-7,0.3-10.5   l-0.3-1.3l-0.5-1.2c-0.1-0.4-0.4-0.8-0.7-1.2c-0.1-0.2-0.3-0.4-0.3-0.5l-0.4-0.5c-1.2-1.3-2.9-1.9-4.7-2.2   c-1.8-0.3-3.6-0.3-5.5-0.4c-1.9-0.1-3.9-0.2-5.7-1.1c-0.9-0.5-1.7-1.1-2.3-2C910.4,829.6,917.6,833.7,919.4,834.8z" clip-rule="evenodd"></path>
  </g>
  <g>
    <path fill="#224493" fill-rule="evenodd" d="M529.7,1769.9c1.3,7,3,14.1,3.2,22.4c-3.9,5.3-9.6,9.4-16,12.2c-6.9,2.9-14.6,4.3-21.9,4   c-7.3-0.3-14.1-2.2-19.3-6c-3.8-2.7-6.7-6.5-8.3-11.2c3.3-9.5,9.1-20.8,13.5-25.7c1.7-4.7,3.9-8.4,6.6-11.3   C501.4,1739.4,528.9,1749.8,529.7,1769.9z" clip-rule="evenodd"></path>
    <path fill="#f7a18a" fill-rule="evenodd" d="M659.6,1708.3c-6.7-8.5-20.7-9.2-42.1-2.2c0.2,20.6-1.5,34-5.1,40.3c31.7,8.6,48.2,6,49.5-7.7   C658.9,1727.7,658.1,1718.4,659.6,1708.3z" clip-rule="evenodd"></path>
    <path fill="#224493" fill-rule="evenodd" d="M646.4,1790l-4.6,1l-34.1-9v-9.7c29.8,9.8,56,16.1,78.4,18.3c21.3,2.1,39.3,0.5,53.8-5.2   c-0.2,1.9-0.5,3.8-0.9,5.8C718.5,1799.8,687.5,1799.1,646.4,1790z" clip-rule="evenodd"></path>
    <path fill="#224493" fill-rule="evenodd" d="M643.9,1733.9c-8.8,13.2-19.1,15-30.8,5.4c-4.8,9.7-6.8,20.2-5.8,32.3c30.2,10.1,56.6,16.3,79.2,18.5   c21.5,2.1,39.5,0.5,53.6-5.5c-0.9-12.4-17-15.6-38.2-20.2c-25.9-5.9-31.3-25.6-38.9-32.8C654,1730,647.6,1730.7,643.9,1733.9z" clip-rule="evenodd"></path>
    <path fill="#fff" fill-rule="evenodd" d="M739.9,1785.3c0.3-0.2,0.3-0.4,0.1-0.7c-14.1,6-32.1,7.6-53.6,5.5c-22.6-2.2-49-8.4-79.2-18.5   c-0.1,0.3,0.1,0.5,0.4,0.7c29.8,9.8,56,16.1,78.4,18.3C707.5,1792.6,725.5,1791,739.9,1785.3z" clip-rule="evenodd"></path>
    <path fill="#c6def3" fill-rule="evenodd" d="M560.8,944c3.2-6.3,4.1-5.7,15.4-6.4c11.3-0.8,57.6-1.7,65.7,13.4c8.1,15.1,4.5,34.4-22.6,33.4   C592.3,983.6,560.8,944,560.8,944z" clip-rule="evenodd"></path>
    <path fill="#436ab2" fill-rule="evenodd" d="M682.9,1211.9c0.2,4.7,8.4,22.6,8.5,27c1.4,48.6,0.1,67.5,0.2,80.2c0,13.9-8.4,173.5-18.5,208.4   c-6.9,23.8-8.1,90.1-6.7,132.3c1,29.7,9.4,49.1,6.7,76.8c-0.6,2-41.4,11-68.1,11.3c0,0-4.4-24.1-4.8-44.6   c-2-86.3-3.2-110.1,4.3-167c2.7-20.7-3.6-147.3-3.6-168.2c0-15.6-28,147.3-41.5,196.1c0,0-22.2,103.3-16.4,148.3   c5.2,40.5-6.9,50.9-6.9,50.9s-47.1,11.7-62.7-4.1c-0.9-13.9-0.9-26.7,2.1-51.9c3.7-31.4,8-103.4,15.4-151.8   c9.1-59.8,10.7-168,14-230.8c3.2-62.8,21.6-93,28.6-105.5C540.5,1206.7,682.9,1211.9,682.9,1211.9z" clip-rule="evenodd"></path>
    <path fill="#f8a87e" fill-rule="evenodd" d="M631.8,918.5c-4.2,10.4-6.8,34.2,0.3,42c0.2,2.2,10.8,7.8,11.3,10c3.1,12.1-35.3,83.1-42,81.7   c-6.8-1.3-33.7-99.6-33.7-99.6c8.4-7.9,14.8-36,15.1-56.6C583.2,885.5,631.8,918.5,631.8,918.5z" clip-rule="evenodd"></path>
    <path fill="#c6def3" fill-rule="evenodd" d="M640.3,960c3.3,32.3-13.2,66.9-22.5,66c-8.4-4.3-53.9-68-57-74.8c-2.6,2.8-18.5,16.9-18.5,16.9l-10.9,287.7   c50.2,4.6,98.7,5.5,142.7-3.2l-2.9-280.8L640.3,960z" clip-rule="evenodd"></path>
    <path fill="#69acde" fill-rule="evenodd" d="M665.9 1305.2c-1.2-13.1-2.6-168.2-3.2-198.7-2.2-117-30.5-152.9-13.7-145.2 15.3 7.1 36.2 17.1 48.1 19.8 4.1.9 1.4 25.9 1.4 25.9s-3.8 59.7-6.5 67.8c-2.6 8.3-.7 61.7-.1 80.9.3 10.9 14.5 108.1 16.1 150.9.1 1.6-1 4.6-5.5 6C702.5 1312.7 667.7 1324.3 665.9 1305.2zM572.6 1319.2c-1.7 17-68 .7-71.1.4-4.5-.4-7.7-4.7-7.6-6.4.7-54.1 18.7-139.7 19.2-163.6.5-19.2-8.5-61.8-11.2-70-2.7-8.2-17.9-107.2-10.4-108.7 21.5-4.3 22.4-3 60.4-19.5 0 0 24.8 129.8 23.2 227.6C574.9 1191 579 1254.7 572.6 1319.2z" clip-rule="evenodd"></path>
    <path fill="#fff" fill-rule="evenodd" d="M564.7 939c-1.1 6.5 7 24.2 22.5 41.5 0 0-10.7-1.9-12.9 3.6-2.2 5.5-23.5 15.5-23.5 15.5s-5.6-46-2.9-47.4C556.2 947.8 564.7 939 564.7 939zM660.7 999.3c-6.5-16.1-22-16.5-24.8-13.7-2.7 2.8 7.8-35.8 2.2-38.7 10 5.9 14.6 14 14.6 14L660.7 999.3z" clip-rule="evenodd"></path>
    <path fill="#fff" fill-rule="evenodd" d="M641,981.6c-0.7,9.3,0.7,17.8,0.7,17.8s-20.7,29.2-20.7,52c0,22.8-1.4-26.3-1.4-26.3s13.6-28.3,14.9-35.4   c1.4-7.1,2.3-13.7,2.3-13.7L641,981.6z" clip-rule="evenodd"></path>
    <path fill="#fff" fill-rule="evenodd" d="M584.5,976.7c-1.3-1,9.5,10.9,18.8,25.6c5.6,8.9,15.3,19.9,16.3,22.8c1,2.8,1.5,32.4,1.5,32.4   s-1.8-19.2-9.1-29.5c-7.3-10.3-28.5-40.8-31.9-39c-3.5,1.8-2.5-15.5-6.3-16.9C569.9,970.5,584.5,976.7,584.5,976.7z" clip-rule="evenodd"></path>
    <path fill="#509ad4" fill-rule="evenodd" d="M491.6,970.8c-26.4,3.1-49.6,92.9-55.8,118.4c-0.8,3.1-7.5,10.8-8.1,13.9c-3,15.9-0.3,26.6,3.2,40.5   c0,0,0.9,13.4,6.3,13.4c5.4,0,23.5,0,43.3-7.5c19.8-7.5,79.2-59.4,79.2-59.4c1.3-3,1.1-44.6-5.4-49.2c-7.2-2.5-51.8,25.9-51.8,25.9   s5.2-6.6,6.1-13.3C508.5,1042.4,500.7,989.5,491.6,970.8z" clip-rule="evenodd"></path>
    <path fill="#f8a87e" fill-rule="evenodd" d="M606.3 1022.2c2.1.7 8.7 1.1 13.1 6.3 6 7 11.5 14.7 10.3 17.9-2 5.1-14.1-10.6-14.1-10.6l-9.6-1.8c0 0 8 3.6 13.4 9.3 5.4 5.7 7.1 11.8 5.3 16-1.4 3.4-5.6-4.8-10.9-8.7-4.3-3.2-6.1-2.9-6.1-2.9 0 0 3.2 2.3 6.6 5.5 3.8 3.6 8 5.9 7.8 9.7-.1 3.7-7.4-1.4-13.8-5.2-5-3-10-2.1-10-2.1s5.1.5 9.9 3.3c5 2.9 9.8 6.6 8.6 9.3-1.4 3-7-.8-13.5-3-4.9-1.7-11 .2-13.8-.9-5.3-1.9-8-.8-9.3-7.4-.2-1.2.1-2.7.3-4.9.1-1.4-1.9-4.6-1.4-8.8.3-3.3 4-6.6 3.7-8.8-1.2-7.6 3.9-7.3 5.2-8.6C590.3 1023.3 590.8 1016.9 606.3 1022.2zM578.3 919.4c-23.1-2.9-28.4-39.3-15.1-34.7-14.7-70.5 69.5-81 89.8-27 2.4 11.5 3.5 20.9 2.8 26.1-.9 6.9-3.8 5.4-2.3 11 3.1 11.8 3.6 14.6-5.1 32.7-2.7 5.6-2.2 12.3-6.3 17.6-5.2 6.6-18.8 6-30.8 2.2C583.1 938.6 589.4 934.8 578.3 919.4z" clip-rule="evenodd"></path>
    <path fill="#224493" fill-rule="evenodd" d="M595.2 885c.9-.5 1.8-1 2.7-1.5.9-.5 1.8-.9 2.8-1.3 1.9-.9 3.8-1.6 5.7-2.3 1-.4 2-.7 2.9-1 1-.3 2-.6 3-.9 2-.5 4-1 6.2-1.3l.3 0 .2 0c.8.1 1.6.3 2.3.5.8.2 1.5.4 2.2.7 1.5.5 2.9 1.2 4.2 2 1.3.8 2.5 1.7 3.7 2.7 1.1 1 2.2 2.1 3 3.4-1.4-.6-2.7-1.2-4.1-1.8-1.3-.6-2.7-1.1-4-1.6-1.3-.5-2.6-.9-4-1.2l-2-.4-1-.2-1-.1h.5c-1.9.3-3.9.7-5.8 1.1l-5.9 1.2c-2 .4-4 .8-6 1.1C599.3 884.5 597.3 884.8 595.2 885zM641.6 885.7c.9-.8 1.9-1.4 3-2 1-.6 2.1-1 3.2-1.4 1.1-.4 2.2-.7 3.3-.9 1.2-.2 2.3-.4 3.6-.3l.4 0 .1 0 1.1.7.8 1 .4 2.2-1.5-1.2-1.5-.4.4 0c-1 .2-2.1.5-3.1.8-1.1.3-2.1.5-3.2.8-1.1.2-2.2.4-3.3.6C644 885.6 642.8 885.7 641.6 885.7z" clip-rule="evenodd"></path>
    <path fill="#f27466" fill-rule="evenodd" d="M641.6,911.5c-2.6-1.8-4.6-4.9-5.4-7.3c2.7,3,5.5,5.9,8.6,5.7c1.2,2.6-3.1,5.4-8.1,6.3   C639.9,914.7,642.4,912.4,641.6,911.5z" clip-rule="evenodd"></path>
    <path fill="#f48575" fill-rule="evenodd" d="M636.2,904.2L636.2,904.2c2.7,3,5.5,5.9,8.6,5.7c0.2,0.4,0.2,0.8,0.2,1.2c-2.7,0-5.2-1.4-7.6-4.1   C636.9,906,636.5,905.1,636.2,904.2z" clip-rule="evenodd"></path>
    <path fill="#f48d7d" fill-rule="evenodd" d="M558.9,894.4c-0.5-3.5,1.1-6.4,3.2-7c2.8-0.7,6.3,1.3,8.8,4.7c2.6,3.7,3,6.7,3.5,11.6   c0.5,3.5,3.2,5.6,5.4,5.7c0,0,2.2,1,1.3,2.7c-0.9,1.7-2.9-0.7-4.6-0.3c-1.8,0.4-4.3,2.2-9.4-1.1c-5.1-3.3-7.1-9.5-7.9-14.1   L558.9,894.4z" clip-rule="evenodd"></path>
    <path fill="#f48575" fill-rule="evenodd" d="M572.3,908.2c-0.9-1.6-1.1-4.1-0.8-5.8c0.3-1.9,1.4-3-0.1-5c-1-1.3-2.6-0.7-3.2,0.4c-0.7,1.3-0.7,2.9-0.5,4.6   c0.1,0.8,0.4,1.7,0.6,2.5c0.1,0.4,0.5,1.2,0.4,1.6c-0.2,0.7-0.7-0.5-0.8-0.9c-0.5-1.3-0.8-2.9-0.9-4.3c-0.2-2.4,1-3.9,0.6-6.3   c-1-5.4-5.6-6.3-7.7-3.4c-0.4,1.5-0.5,3.5-0.5,5.5c0-0.2-0.1-0.3-0.1-0.5l-0.3-2.2c-0.5-3.5,1.1-6.4,3.2-7c2.8-0.7,6.3,1.3,8.8,4.7   c2.6,3.7,3,6.7,3.5,11.6c0.4,2.6,1.9,4.4,3.6,5.2C576.5,910.6,573.9,910.8,572.3,908.2z" clip-rule="evenodd"></path>
    <path fill="#f27466" fill-rule="evenodd" d="M567.2 910.6c-4.6-3-6.7-8.3-7.7-12.7 4.9 12.2 13 14.1 15 14.4C572.9 912.7 570.6 912.8 567.2 910.6zM558.9 894.4c-.5-3.5.8-6.3 2.9-7.3 2.4-1.2 5.6.7 7.8 2.9 2.4 2.4 4 5.9 4.7 9.9.4 2.2.3 4.5 1.5 6.5 1.1 1.8 2.7 2.6 4.2 2.8.1 0 .2.4 0 .4-1.9 0-4.2-1.3-5.2-4-.7-1.7-.7-3.5-.9-5.2-.3-2-.8-3.9-1.6-5.7-1.8-3.7-4.7-6.2-7.6-6.9C561.4 886.9 558.4 889.4 558.9 894.4 558.9 894.4 558.9 894.4 558.9 894.4z" clip-rule="evenodd"></path>
    <path fill="#224493" fill-rule="evenodd" d="M586,851.8c7.1,0.3,9.6,10,22,6.4c0,0-7.1-0.6-9.9-3.9c0,0,5.7-0.3,9.6,2.2c4,2.5,7.6,5.5,15.3,3.1l2-0.8   c0,0,4,0.6,6.5-0.6c0,0-6.5-0.6-8.8-4.2c0,0,11,5,16.4,5.3c5.4,0.3,1.1,0.3,1.1,0.3s7.9,4.4,4.5,8.6c0,0,2.8-3.9,0.8-8.3   c0,0,4.5,6.7,8.8,6.9c0,0-0.6,2.6,0.3,6.2c0.8,3.6,1.4,8.9,0.3,12.5c-1.1,3.6-1,6.9-0.2,10.3c0,0,0.2-6.1,2.7-7.6l2-0.1   c0,0-0.4-0.8-0.7-2.2c-0.3-1.4-0.1-4.6,0.4-6.8c0.6-2.2,2-6.4,2.1-11.5c0,0,3.4-1,4.5-5.3c0,0-4.2,4.3-8.5,1.4c0,0,6.6-1.4,7.7-6.1   c0,0,6.7-5.2,5.5-10.2c0,0-0.9,2.5-4,3.8c5.8-6.3,3.5-11.9,1.4-13.7c0,0,2.6,4.7-3.3,9.1c0,0,0.8-5.5-4-8.7   c-4.8-3.2-4.4-6.2-5.5-8.7c-1.1-2.5-5.9-2.6-5.9-2.6s-2-7.2-11-7.8c0,0,4.4,1.7,4.9,6.5c0,0-5.1-4.3-10-5.4   c-4.9-1.1-7.8-3.2-10.9-4.4c-3.1-1.2-8.9,1.7-8.9,1.7s0.7-6.4,7.6-5.4c0,0-8.3-3.3-14.5,6.2c0,0-5.1-2.6,2.4-8.3c0,0-6.4,0-9,6.2   c0,0-0.6-2.8,1.3-5.4c0,0-3.8,0.6-5.5,4.9c0,0,0.8-2.2-0.1-4.2c0,0-0.7,2.5-3.4,4.3c-2.7,1.8-9.6,5.5-15,7.8c0,0-3,1.1-4.2,3.3   c0,0-2.5-0.3-4.2,2.5c0,0-5.9,0.5-7.6,6c0,0,2.1-3.2,6.2-2.5c0,0-5.5,2.5-8.5,6.8c-3,4.3-2.5,10.5-2.5,10.5s1-4.3,3.7-6.1   c0,0-3.5,6.2-3.5,10.5c0,4.3,2,8.6,2,8.6s-0.7,3.9,1.4,6.8c0,0,3,7.1,2.8,11.2c-0.1,4.2-1.2,2.5-1.4,3.5c2.2-1.5,12.4,2.9,11.7,6.2   c-0.1,0.9,0.4,1.9,1,3.7c0,0,2.5,3.2,4.1,9.7c0,0,0.4,1.4,4.9,1.7c0,0-4.1-10.3-1.7-26.6c0,0,4-2.9,5.1-6.5c0,0,0.6-4.9,0-9.6   C585.6,858.2,586,851.8,586,851.8z" clip-rule="evenodd"></path>
    <path fill="#224493" fill-rule="evenodd" d="M557.1,862.7c0,0-0.7,3.9,1.4,6.8c0,0,4.1,7.1,3.9,11.2c-0.1,4.2-0.7,2.8-1.4,3.5c1.9,0.1,12.4,4.6,11.7,6.2   c-0.1,0.9,0.6,0.7,1,3.7c0,0,2.5,3.2,4.1,9.7c0,0,0.4,1.4,4.9,1.7c0,0-4.1-10.3-1.7-26.6c0,0,4-2.9,5.1-6.5c0,0,0.6-4.9,0-9.6   c-0.6-4.7-0.1-11.1-0.1-11.1c7.1,0.3,9.6,10,22,6.4c0,0-7.1-0.6-9.9-3.9c0,0,5.7-0.3,9.6,2.2c4,2.5,7.6,5.5,15.3,3.1l2-0.8   c0,0,4,0.6,6.5-0.6c0,0-6.5-0.6-8.8-4.2c0,0,11,5,16.4,5.3c5.4,0.3,1.1,0.3,1.1,0.3s6.4,3.6,5.2,7.4c0.7-1.5,1.5-4.2,0.2-7.1   c0,0,4.5,6.7,8.8,6.9c0,0-0.6,2.6,0.3,6.2c0.8,3.6,1.4,8.9,0.3,12.5c-1.1,3.6-1,6.9-0.2,10.3c0,0,0.2-6.1,2.7-7.6l2-0.1   c0,0-0.4-0.8-0.7-2.2c-0.3-1.4-0.1-4.6,0.4-6.8c0.6-2.2,2-6.4,2.1-11.5c0,0,3.4-1,4.5-5.3c0,0-4.2,4.3-8.5,1.4c0,0,6.6-1.4,7.7-6.1   c0,0,1.8-1.2,3.3-4.9c-2.9,3-7,3.3-11.2,2.3c-3.9-0.9-7.1-3.1-9.4-6.3c-3.1-4.4-7.1-9.2-13.2-7.9c0.5-1.1,1.6-2.3,2.7-3   c-2.6-0.1-5.4,0.9-7,3c-0.4-3.3-3.9-8.1-7.7-7.7c1.7,0.1,3.3,2.6,2.8,4.7c-3.1-1.8-7.5-1.9-10.1,0.8c0-1.8,0.4-3.6,1.4-5.1   c-2.4,1.4-4.4,2.6-5.1,5.4c-0.8-2.7-4.7-5.8-7.5-5.7c1.4,0.9,2.6,2.1,2.7,3.7c-5.3-3.3-9.7-2.7-14.9,0.1c0.3-3.1,3-5.4,6.1-5.6   c-5-0.1-13.2,4.9-10.2,10.8c-1.7-0.5-3.9-1.6-5.8-1.3c1.7,0.7,3.7,1.8,4.4,3.5c-3.4-0.5-7.2-2.1-10.7-0.5c2.6-0.2,6.1,1.2,7.5,3.3   c-4.7-1.5-9.7-0.8-13.8,2c-2.4,1.7-4.9,6.3-7.6,7.1c-2.9,0.9-5-2.5-5.3-5.1c-0.3,1.1-0.4,2.1-0.4,3.1   C556.2,858.4,557.1,862.7,557.1,862.7z" clip-rule="evenodd"></path>
    <path fill="#fff" fill-rule="evenodd" d="M653.6 894.9c-.2 1.9-.7 3.8-.7 3.8 0 0-2.1.7-5.7.1-1.2-.2-2.6-.6-4.2-1.1-.7-4-.8-5.9-.8-5.9l.8-1.5c0 0 .9-.2 2-.4l2.1-.3c2.2-.1 4.4.2 6.4 1l.1 0C653.6 890.5 653.8 892.7 653.6 894.9zM630.3 896.9c0 0-1.7.3-4 .7-2 .3-4.5.7-7 .9-2 .2-3.9.2-5.5.1-6-1.7-9.6-4.1-9.6-4.1 4-4.5 9.7-7.1 15-7.3 3-.1 5.7.4 7.4 1.3l1.5 1.9C629.8 893.4 630.3 896.9 630.3 896.9z" clip-rule="evenodd"></path>
    <path fill="#3960ac" fill-rule="evenodd" d="M628.1 893.3c-.2 1.7-.9 3.3-1.9 4.4-2 .3-4.5.7-7 .9-1.6-1.4-2.5-4-2.2-6.7.2-1.9 1-3.5 2.1-4.6 3-.1 5.7.4 7.4 1.3l1.5 1.9C628.2 891.4 628.3 892.3 628.1 893.3zM653.6 894.9c-.2 1.9-.7 3.8-.7 3.8 0 0-2.1.7-5.7.1-.7-1.4-1.1-3.2-1-5.1 0-1.5.4-3 .9-4.2 2.2-.1 4.4.2 6.4 1l.1 0C653.6 890.5 653.8 892.7 653.6 894.9z" clip-rule="evenodd"></path>
    <path fill="#224493" fill-rule="evenodd" d="M604.2,894.6c1.7-1.2,3.4-2.3,5.2-3.2c1.8-0.9,3.6-1.8,5.5-2.4c0.9-0.3,1.9-0.6,2.8-0.8l1.4-0.2l1.5-0.1   c1,0,2,0,3,0.2l1.5,0.3l1.4,0.4l-0.1-0.1l1.7,1.7l-1.2-2.2l0,0l-0.1,0l-1.4-0.8l-1.5-0.5c-1-0.3-2.1-0.4-3.2-0.5l-1.6,0l-1.6,0.2   c-1.1,0.2-2.1,0.5-3.1,0.9c-2,0.7-3.8,1.7-5.6,2.9C607.1,891.6,605.5,892.9,604.2,894.6z" clip-rule="evenodd"></path>
    <path fill="#fff" fill-rule="evenodd" d="M616.1 892.9c-.1 1.1.7 2.1 1.8 2.2 1.1.1 2.1-.7 2.2-1.8.1-1.1-.7-2.1-1.8-2.2C617.2 891 616.2 891.8 616.1 892.9zM644.9 894.1c0 1 .8 1.7 1.7 1.7 1 0 1.7-.8 1.7-1.7 0-1-.8-1.7-1.7-1.7S644.9 893.1 644.9 894.1z" clip-rule="evenodd"></path>
    <path fill="#224493" fill-rule="evenodd" d="M642.9,890.2c0.9,0.1,1.9,0,2.7,0c0.9-0.1,1.7,0,2.6,0c0.9,0,1.7,0.1,2.6,0.1c0.9,0.1,1.8,0.2,2.7,0.3   c-0.7-0.6-1.6-1-2.5-1.3c-0.9-0.3-1.8-0.5-2.8-0.5c-0.9,0-1.9,0.1-2.8,0.4C644.6,889.4,643.8,889.8,642.9,890.2z" clip-rule="evenodd"></path>
    <path fill="#f48d7d" fill-rule="evenodd" d="M628.3,936.6c0,0,3.9,0.5,5.3,0.2C633.6,936.8,631.1,939.3,628.3,936.6z" clip-rule="evenodd"></path>
    <path fill="#bf344c" fill-rule="evenodd" d="M617.5,922.3c0,0,4.4,4.4,5.8,6.3c1.4,1.9,6.1,4.6,9.7,4.5c3.6-0.1,6.4-3.8,7.2-4.9c0.8-1.1,5.6-6.6,5.6-6.6   l-4.2,0.8l-6.1,0.5l-1.9,0.7l-2.3-0.9l-4.4,0l-9.7-0.9L617.5,922.3z" clip-rule="evenodd"></path>
    <path fill="#f27466" fill-rule="evenodd" d="M624.4,929.1l-1.4-1.3c0,0,3.8-0.4,6,0c2.2,0.4,5.5,0,7.1-0.3c1.5-0.3,3.8,0.2,3.8,0.8c0,0.6-2.2,2.4-2.2,2.4   s-2.4,0.7-3.3,0.7c-0.8,0-4.2,0-5.2-0.2L624.4,929.1z" clip-rule="evenodd"></path>
    <path fill="#fff" fill-rule="evenodd" d="M619.8 923.3c0 .6 11.5 6.6 23 .2l1.7-.5.2-1-2.6.1-4.5 0-3 1.1-3.1-.3-3.8-.4-7.7-.5-2.5-.3.3 1.4L619.8 923.3zM624.1 927.6c0 0 4.3 2.6 7.7 2.5 3.4-.1 6.1-1.8 7.1-2.8 1-1 .5 2.9.5 2.9s-1.8 2.1-3.2 2.5c-1.4.4-4.6.4-6 .3-1.5-.1-3.1-1-3.6-1.2L624.1 927.6z" clip-rule="evenodd"></path>
    <path fill="#f27466" fill-rule="evenodd" d="M616.4,921.6c5.9,1.7,7.9,8.4,12.2,9.8c3.7,1.2,7.5,1.1,10.1-3.1c1.8-2.8,2.2-4.5,5.7-6.1l1.4-0.6   c0,0-2.6,3.3-4.2,6.3c-2.2,3.9-3.1,7.5-8.3,7.9c-5.6,0.4-9.1-2-11.6-6.8c-1.3-2.5-5.7-7.2-9.6-9.1L616.4,921.6z" clip-rule="evenodd"></path>
    <path fill="#bf344c" fill-rule="evenodd" d="M616.4,921.6c3,1,5.1,3.2,7.1,5.6c1.7,2,3.3,3.8,6,4.5c3,0.8,6.1,0.5,8.4-2c1.3-1.4,2.1-3.1,3.3-4.4   c1.4-1.5,1.8-2.1,3.6-3.1c0.1-0.1,0-0.3-0.1-0.2c-2.9,1.1-4,3-5.8,5.6c-1.2,1.7-2.4,3.2-4.4,3.9c-1.8,0.6-3.6,0.3-5.4-0.2   c-3.3-1.3-5.7-5.3-8.5-7.5C619.3,922.7,617.9,922,616.4,921.6C616.4,921.6,616.3,921.6,616.4,921.6z" clip-rule="evenodd"></path>
    <path fill="#f27466" fill-rule="evenodd" d="M646,921.4c-6.8,3.5-9.5,2.2-9.5,2.2l-1.5,0.5c-2.3,0.3-4.3-0.4-4.3-0.4c-6.4,0.1-14.1-0.9-19-4.2   c0,0,3.8,1.9,9.1,2.1c5.4,0.2,8.5,0,10.4,0.3c0,0,1.3,0.4,2.3,1.1c0,0,1.7-1,2.6-1c0.8-0.1,3.7-0.2,5.6-0.1   C644.3,921.6,646,921.4,646,921.4z" clip-rule="evenodd"></path>
    <path fill="#f27466" fill-rule="evenodd" d="M630.7,923.8c0,0,2,0.7,4.3,0.4l1.5-0.5c0,0,5.1,0.3,9.5-2.2c0,0-0.3,0-2.6,0.3c-2.1,1.1-7,1.3-7,1.3   s-1.4,0.8-3,0.8c-1.6,0.1-3.3-0.9-3.3-0.9s-3.9,0-7-0.2c-1.8-0.1-4.1-0.9-5.6-1.4c-3.5-0.6-5.9-1.8-5.9-1.8   C616.6,922.9,624.3,923.9,630.7,923.8z" clip-rule="evenodd"></path>
    <path fill="#bf344c" fill-rule="evenodd" d="M611.6,919.5c3,2.1,6.6,3.2,10.5,3.8c1.9,0.3,3.8,0.5,5.8,0.6c0.5,0,0.9,0,1.4,0c0.4,0,1-0.1,1.4,0   c0.5,0.2,1,0.3,1.6,0.3c1.5,0.2,2.7,0,4.1-0.5c0.5-0.2,1.2-0.1,1.7-0.1c3.7-0.3,6.3-1.1,8.3-2.3c0.1,0,0-0.1-0.1-0.1   c-2.8,1.4-4.6,1.9-8.4,2.2c-0.4,0-1.1-0.1-1.5,0c-1.3,0.5-2.5,0.7-3.9,0.6c-0.6-0.1-1.3-0.2-1.8-0.4c-0.6-0.2-1.5,0-2.1,0   c-2.1,0-4.1-0.2-6.1-0.5C618.6,922.6,614.8,921.5,611.6,919.5C611.6,919.5,611.6,919.5,611.6,919.5z" clip-rule="evenodd"></path>
    <path fill="#f48575" fill-rule="evenodd" d="M631.7,932.7c4.3,0.2,6.1-2.3,6.3-1c0.2,1.2-2,3.8-6.6,3.4c-3.2-0.3-5.3-1.5-7.1-3.8   c-0.7-0.9-1.8-3.1-1.4-2.9C625.7,930.1,627.4,932.6,631.7,932.7z" clip-rule="evenodd"></path>
    <path fill="#bf344c" fill-rule="evenodd" d="M645.2 920c1.4.8 1.9 1.7 1.5 2.8C646.6 921.9 646.1 920.9 645.2 920zM613.5 917.9c-1.6.7-2.4 1.9-2.3 3.6C611.4 920.2 612.2 919 613.5 917.9z" clip-rule="evenodd"></path>
    <path fill="#f6996c" fill-rule="evenodd" d="M573.7,943.2c14.8,10,34.2,15.7,58.2,16.9c-1.9-2.3-3.1-5.9-3.7-10c-5.3,0-11.3-1-16.9-2.8   c-12.4-3.8-18.1-6.7-21.6-10.1c-4-3.8-5-8.2-9.7-15.3c-1.1,5.6-2.5,11-4.1,15.7C575.2,939.6,574.5,941.5,573.7,943.2z" clip-rule="evenodd"></path>
    <path fill="#509ad4" fill-rule="evenodd" d="M699.1,981.9c0,0,17.5,22.9,21.1,48.2c3.6,25.3,43.1,101.9,41,122.9c-2.1,21-24.4,46.7-46.5,41.7   c-7.3-1.7-16.5-20.7-23-47c-0.7-23.1-2-65.4,0.4-72.7c2.7-8.2,6.5-67.8,6.5-67.8s2.6-25-1.4-25.9L699.1,981.9z" clip-rule="evenodd"></path>
    <path fill="#e8a078" fill-rule="evenodd" d="M686.6,1151.1c0-0.1-0.1-0.2-0.1-0.3c0,0,0,0,0,0L686.6,1151.1z" clip-rule="evenodd"></path>
    <polygon fill="#f16a33" fill-rule="evenodd" points="831.2 1157.1 704.9 1157.1 731.4 1059.2 853.8 1059.2 856.9 1062.1" clip-rule="evenodd"></polygon>
    <rect width="185.9" height="7.6" x="644.6" y="1158.6" fill="#f58e75" fill-rule="evenodd" clip-rule="evenodd" transform="translate(-1.45 .922)"></rect>
    <polygon fill="#f58e75" fill-rule="evenodd" points="831.2 1157 707.9 1157.1 733.9 1061.1 855.6 1061 856.9 1062.2 856.9 1062.2" clip-rule="evenodd"></polygon>
    <rect width="59.9" height="7.6" x="644.6" y="1158.6" fill="#f16a33" fill-rule="evenodd" clip-rule="evenodd" transform="translate(-1.385 .805)"></rect>
    <polygon fill="#f3764a" fill-rule="evenodd" points="743.5 1160.5 720.4 1160.5 720.4 1157.1 743.5 1157.1" clip-rule="evenodd"></polygon>
    <polygon fill="#f3764a" fill-rule="evenodd" points="822.8 1160.3 803 1160.4 803 1157 822.8 1157" clip-rule="evenodd"></polygon>
    <polygon fill="#fbd9d2" fill-rule="evenodd" points="734.7 1062.3 856.9 1062.2 855.6 1061 733.9 1061.1 707.9 1157.1 709 1157.1" clip-rule="evenodd"></polygon>
    <path fill="#f8a87e" fill-rule="evenodd" d="M741.5,1175.5c3.5,4.4,9.2,6.2,14.7,5.1c2.6-0.5,5.6-1.5,8.7-3.2c2.1-1.2,4.7-3.2,6.5-3.1   c4.6,0.3,6.2-2.9,7.4-3.3c1.1,0.5,2.7,0.9,4.6,0.6c2.4-0.3,4.4-1.3,5.5-2l0,0c4.6-0.2,8.6-0.2,9.9-1.2c2.5-1.9,4.4-19.6-0.1-20.2   c-5.9-0.7-2.4,12.2-7.7,14.8c0,0,3.4-16.6-3.2-17.6c-4.5-0.7-4.6,15.8-9.3,18.9c0,0,3.9-15.4-1-17.7c-5-2.3-4.2,16.1-9.2,16.8   c-1,0.1,3.5-13.2-2.3-13.7c-5.9-0.5-2,15.1-19.2,15.3C739.7,1165.5,737.1,1170,741.5,1175.5z" clip-rule="evenodd"></path>
    <path fill="#224493" fill-rule="evenodd" d="M532.9,1793.5c-0.2,2.6-0.1,5.4-0.6,8.2c-2.4,4.9-8.1,8.1-14.8,10.8c-15.3,6.2-36.6,4.7-46.7-3.7   c-4.2-3.4-6.8-7.4-6-12.7c0.2-1,1.7-3.3,2-4.4c1.2,2.9,2.8,5.6,4.6,7.6c5.9,6.4,13.9,9.1,23.4,9.6c7.8,0.3,15.8-1.5,23.2-4.6   C523.7,1802,529,1797.6,532.9,1793.5z" clip-rule="evenodd"></path>
    <path fill="#fff" fill-rule="evenodd" d="M532.9,1792.3c0.3,0.3,0.3,0.7,0.1,1.1c-4,4.2-9.2,8.5-14.8,10.9c-7.3,3.1-15.3,5-23.2,4.6   c-9.5-0.5-17.5-3.2-23.4-9.6c-1.9-2-3.5-4.7-4.6-7.6c0-0.2,0.1-0.4,0.3-0.4c1.6,4.8,4.5,8.5,8.3,11.2c5.2,3.8,12.1,5.7,19.3,6   c7.3,0.3,15.1-1.1,21.9-4C523.3,1801.8,529,1797.7,532.9,1792.3z" clip-rule="evenodd"></path>
    <path fill="#224493" fill-rule="evenodd" d="M664.6,1254.3c-28.1,4.6-57.9,5.6-88.6,4.4c-0.1,5.5-0.3,11.2-0.5,17c29.9,1.1,60.1,0.3,89.4-4.3   C664.8,1266.1,664.7,1260.3,664.6,1254.3z" clip-rule="evenodd"></path>
    <path fill="#3960ac" fill-rule="evenodd" d="M611.8,1255.2l27.5-1.5c0.8,0,1.5,0.6,1.5,1.4v21.1c0,0.8-0.7,1.6-1.5,1.6l-27.5,1.5c-0.8,0-1.5-0.6-1.5-1.4   v-21.1C610.3,1255.9,611,1255.2,611.8,1255.2z" clip-rule="evenodd"></path>
    <path fill="#3381c3" fill-rule="evenodd" d="M552.2,1043.4c4.9-2.2,6.3,45.7,0.2,45.8C542,1084.3,543.2,1046.3,552.2,1043.4z" clip-rule="evenodd"></path>
    <path fill="#f8a87e" fill-rule="evenodd" d="M593.4,1021.3c-6.2-0.2-16.1,8.5-29.5,18.5c-3.4,2.5-12.9,7.3-15.7,9.4c-7.9,8.4-3,36,3.1,34.2   c9.9-2.9,19.3-14.4,21.6-13.6c13.3,4.9,26.7-7.9,29.2-11.9C605.3,1052.8,593.4,1021.3,593.4,1021.3z" clip-rule="evenodd"></path>
  </g>
</svg>
