<svg xmlns="http://www.w3.org/2000/svg" enable-background="new 0 0 3000 3000" viewBox="0 0 3000 3000" id="man-use-access-control-system">
  <g>
    <g>
      <g>
        <path fill="#f5bf9a" d="M705.38,1218.68L705.38,1218.68c25.27,0,45.75-20.48,45.75-45.75v-56.65h-91.5v56.65
				C659.63,1198.2,680.12,1218.68,705.38,1218.68z"></path>
        <g>
          <path fill="#101527" d="M792.31,1066.7c0,0-1.86,32.54-31.76,66.03c0,0-8.81-19.67-7.76-20.37s20.53-50.21,20.53-50.21
					L792.31,1066.7z"></path>
          <g>
            <path fill="#f5bf9a" d="M619.83,982.19l1.69,66.77c0,0-12,101.06,73.12,110.83c0,0,74.43,4.18,87.91-75.32
						c0,0,29.54-21.19,13.48-45.33l-55.79-59.63l-51.95-5.93L619.83,982.19z"></path>
            <path fill="#343433" d="M716.18,999.04c0,0-37.31,23.01-89.96,15.34l-4.71,34.57l-8.18-26.64c-1.99-6.47-5.18-12.55-9.61-17.66
						c-14.05-16.21-39.69-59.54,68.17-76.39c0,0,77.41-19.53,104.26,37.66c0,0,34.8,18.07,22.94,79.09c0,0-18.41-24-36.19-4.82
						c0,0-7.67,9.07-5.23,25.11h-12.2v-18.67c0-4.55-2.7-8.84-7-10.34C726.29,1032.02,719.06,1019.27,716.18,999.04z"></path>
          </g>
        </g>
      </g>
      <g>
        <path fill="#f5bf9a" d="M199.38,1252.93l-38.45,35.05l-17.63-13.78c0,0-74.28-27.51-32.89-80.36c16.12-20.59,49.46-9.92,50.3,16.22
				c0.01,0.37,0.02,0.74,0.03,1.11c0.02,0.91,1.28,1.11,1.56,0.24l6.68-20.66c1.14-3.52,4.86-5.5,8.41-4.47l0,0
				c3.26,0.94,5.34,4.13,4.88,7.49l-3.05,22.69c-0.68,5.07,0.64,10.21,3.7,14.32L199.38,1252.93z"></path>
        <g>
          <g>
            <rect width="94.38" height="71.28" x="548.71" y="2564.11" fill="#f5bf9a" transform="rotate(-89.897 595.903 2599.752)"></rect>
          </g>
          <g>
            <g>
              <path fill="#343433" d="M551.67,2635.76l-17.1,49.26c-1.43,4.13-1.68,8.31-0.72,12.19l0,0c2.4,9.79,12.08,16.3,24.4,16.42
							l122.92,1.11c10.51,0.1,21.32-1.77,31.67-5.46l0,0c11.36-4.06,18.18-14.59,15.24-23.54l0,0c-1.19-3.64-3.91-6.61-7.72-8.45
							l-82.59-51.31c-1.97-1.23-4.46-1.84-7.13-1.77l-64.57,1.86C559.66,2626.27,553.55,2630.38,551.67,2635.76z"></path>
            </g>
          </g>
        </g>
        <g>
          <g>
            <rect width="94.38" height="71.28" x="335.36" y="2489.23" fill="#f5bf9a" transform="rotate(-37.335 382.6 2524.842)"></rect>
          </g>
          <g>
            <path fill="#343433" d="M327.17,2511.69l-49.5,16.38c-4.15,1.37-7.62,3.72-10.12,6.84l0,0c-6.32,7.86-5.6,19.5,1.8,29.35
						l73.85,98.27c6.31,8.4,14.37,15.85,23.59,21.83l0,0c10.13,6.55,22.64,5.57,27.96-2.21l0,0c2.16-3.16,2.87-7.13,2.01-11.26
						l-9.47-96.77c-0.22-2.31-1.25-4.66-2.93-6.73l-40.73-50.14C339.56,2512.26,332.59,2509.9,327.17,2511.69z"></path>
          </g>
        </g>
        <path fill="#343433" d="M364.26,2482.35l51.45,73.57c41.48-32.34,81.75-65.16,120.82-98.46v0.12l9.38,134.04l99.18,0.12
				l19.23-248.37c70.21-65.76,136.69-132.96,200.17-201.49c24.04-25.85,35.95-60.71,32.82-95.82l-26.81-303.79l-0.48-4.81
				l-143.66-50.73l-209.54,40.99l0.24,20.56l6.25,565.15L364.26,2482.35z M691.62,2121.33l8.78-180.81l18.51,110.24
				c0.84,4.21,0.36,8.66-1.44,12.62L691.62,2121.33z"></path>
        <path fill="#f5bf9a" d="M1142.86,946.88c0.98-25.97,7.08-40.2,20.43-56.79c1.5-1.89,3.06-3.84,4.75-5.76
				c7.66-8.87,12.21-16.9,15.22-24.25c3.51-8.51,5.06-15.86,7.44-22.39c4.43-12.12,3.96-14.32-4.46-10.7
				c-5.6,2.33-8.21,12.56-11.63,18.62c-1.81,3.04-3.81,4.95-6.58,4.22c-4.75-1.23-6.56-14.15-7.16-27.11
				c-0.4-9.24-0.13-18.58,0.18-23.79c0.38-7.86,3.49-16.52,3.68-21.75c0.02-0.12,0-0.31-0.02-0.51c0.01-2.1-0.62-3.57-2.36-4.01
				c-0.12-0.03-0.24-0.05-0.44-0.03c-0.41-0.15-0.92-0.14-1.51-0.08c-8.39,0.9-9.78,15.34-9.92,18.04
				c-0.01-0.83-0.19-0.61-0.19-0.61s-4.15-2.24-7.71,2.13c-0.08,0.05-0.08,0.05-0.1,0.17c-3.36,4.35-3.12,12.22-3.12,12.22
				s-12.24-3.31-13.61,13.42c0,0-17.39,2.8-10.21,31.89c1.75,7.12,0.51,19.17-2.33,33.3c-7.01,35.26-23.67,82.96-26.34,96.04
				c-0.06,0.56-0.19,1.16-0.22,1.6l-0.11,0.8l-0.08,0.68c-0.03,0.12-0.05,0.24-0.05,0.24l-0.06,0.56c0.05,0.08-0.02,0.12-0.02,0.12
				l0.02,0.2l48.91,2.26C1135.26,985.58,1141.81,975.81,1142.86,946.88z"></path>
        <g>
          <rect width="99.14" height="23" x="27.75" y="624.33" fill="#f5b419"></rect>
          <rect width="74.9" height="23.01" x="51.99" y="690.46" fill="#f5b419"></rect>
          <rect width="74.9" height="50.12" x="51.99" y="773.32" fill="#f5b419"></rect>
          <path fill="#ffc431" d="M25,1117.3c0,63,51.25,114.25,114.25,114.25S253.5,1180.3,253.5,1117.3c0-54.22-37.98-99.72-88.74-111.34
					V552.02c0-14.09-11.42-25.51-25.52-25.51s-25.51,11.42-25.51,25.51v453.93C62.98,1017.59,25,1063.08,25,1117.3z M76.03,1117.3
					c0-34.86,28.36-63.22,63.22-63.22s63.22,28.36,63.22,63.22s-28.36,63.22-63.22,63.22S76.03,1152.16,76.03,1117.3z"></path>
          <path fill="#f5b419" d="M25.01,1117.29c0,63.01,51.23,114.27,114.23,114.27c2.75,0,5.5-0.12,8.21-0.31
					c-59.16-4.24-106.03-53.74-106.03-113.96c0-54.21,38-99.71,88.76-111.33V552.02c0-11.23,7.22-20.73,17.31-24.14
					c-2.59-0.9-5.34-1.37-8.24-1.37c-14.09,0-25.52,11.42-25.52,25.52v453.95C62.97,1017.59,25.01,1063.08,25.01,1117.29z"></path>
        </g>
        <path fill="#fa5669" d="M526.7,1382.84l-13.02,236.83l-2.63,45.52l-2.86,53.07c-0.63,11.03,2.63,21.48,8.85,30.05
				c5.31,7.2,12.62,12.85,21.42,15.99c130.92,47.93,241.16,47.47,324.96-15.31c2.63-2,5.03-4.17,7.08-6.69
				c7.43-8.68,11.42-19.88,11.19-31.53l-10.62-349.35l230.6-165.42c14.34-10.34,23.93-26.1,26.33-43.53l35.7-257.39h-59.98
				l-53.86,217.97l-131.78,78.14L751,1176.42c-40.68,27.19-40.68,27.19-91.26-2.75c0,0-148.67-12.49-295.56,173.06l-167.99-108.6
				l-59.09,39.3L299,1431.97c27.69,26.43,69.08,32.41,103.12,14.91L526.7,1382.84z"></path>
      </g>
    </g>
    <path fill="#53b4ed" d="M2958.35,2714.75H1177.46c-9.2,0-16.65-7.46-16.65-16.65V301.9c0-9.2,7.45-16.65,16.65-16.65h1780.89
		c9.2,0,16.65,7.46,16.65,16.65v2396.19C2975,2707.29,2967.54,2714.75,2958.35,2714.75z"></path>
    <circle cx="2067.9" cy="473.44" r="53.37" fill="#2b91cc" transform="rotate(-80.781 2067.911 473.406)"></circle>
    <path fill="#2b91cc" d="M2658.12,2392.48h-1186.1c-49.48,0-89.58-40.11-89.58-89.58V736.95c0-49.48,40.11-89.58,89.58-89.58h1186.1
		c49.48,0,89.58,40.11,89.58,89.58V2302.9C2747.7,2352.37,2707.59,2392.48,2658.12,2392.48z"></path>
    <path fill="#fff" d="M2611.75,2272.07H1518.38c-17.57,0-31.82-14.25-31.82-31.82V782.96c0-17.57,14.25-31.82,31.82-31.82h1093.37
		c17.57,0,31.82,14.25,31.82,31.82v1457.29C2643.57,2257.82,2629.33,2272.07,2611.75,2272.07z"></path>
    <g>
      <g>
        <g>
          <path fill="#a5b1bf" d="M1783.19,1986.15h563.75c13.11,0,23.73-10.63,23.73-23.73v-528.5c0-13.11-10.63-23.73-23.73-23.73h-563.75
					c-13.11,0-23.73,10.63-23.73,23.73v528.5C1759.46,1975.52,1770.09,1986.15,1783.19,1986.15z"></path>
          <path fill="#38424c" d="M1759.45,1919.53v46.71c0,10.98,8.89,19.93,19.92,19.93h571.38c11.03,0,19.93-8.95,19.93-19.93
					c-43.64,1.15-64.33-55.55-64.33-55.55c0,4.88-3.95,8.84-8.78,8.84L1759.45,1919.53z"></path>
          <path fill="#68737e" d="M2306.35,1410.18v500.51c0,0,20.69,56.7,64.33,55.55v-536.08c0-11.03-8.95-19.98-19.98-19.98
					L2306.35,1410.18L2306.35,1410.18z"></path>
        </g>
        <path fill="#38424c" d="M1965.65,1807.28l46.92-162.76c-14.92-9.62-24.83-26.35-24.83-45.43c0-29.85,24.2-54.05,54.05-54.05
				c29.85,0,54.06,24.2,54.06,54.06c0,19.07-9.9,35.81-24.83,45.43l46.92,162.76h-152.29V1807.28z"></path>
      </g>
      <g>
        <path fill="#38424c" d="M1822.58,1410.18h71.36v-88.46c0-96.26,78.31-174.57,174.57-174.57s174.57,78.31,174.57,174.57v88.46h71.36
				v-88.46c0-135.61-110.32-245.93-245.93-245.93s-245.93,110.33-245.93,245.93L1822.58,1410.18L1822.58,1410.18z"></path>
      </g>
    </g>
  </g>
</svg>
