<svg xmlns="http://www.w3.org/2000/svg" id="man-and-woman-working-at-security-service" viewBox="0 0 2400 1800">
  <path d="M660.61,470.26H1739.39A43.71,43.71,0,0,1,1783.09,514v703a0,0,0,0,1,0,0H616.91a0,0,0,0,1,0,0V514A43.71,43.71,0,0,1,660.61,470.26Z" style="fill:#aacaff"></path>
  <path d="M870.33,287.79h675.8a0,0,0,0,1,0,0V1399.48a0,0,0,0,1,0,0H870.33A16.46,16.46,0,0,1,853.87,1383V304.25A16.46,16.46,0,0,1,870.33,287.79Z" style="fill:#295ecc" transform="rotate(90 1200 843.63)"></path>
  <path d="M1999.33,1536H400.62L363,1550.84c0,14.55,18.73,48,42.63,48H1994.3c23.9,0,42.63-33.44,42.63-48Z" style="fill:#aacaff"></path>
  <path d="M375.7,1528.22,616.91,1217H1783.09l241.21,311.21c16.91,16.9,16.91,30.61,0,30.61H375.7C358.79,1558.83,358.79,1545.12,375.7,1528.22Z" style="fill:#c2dcff"></path>
  <path d="M1011,651.57V769.5c0,124.77,74.51,235.27,189,303.36,114.54-68.09,189-178.59,189-303.36V651.57l-189-27.16Z" style="fill:#ff4f79"></path>
  <path d="M1200,961.87c-74.29,0-134.73-60.44-134.73-134.72S1125.71,692.42,1200,692.42s134.73,60.44,134.73,134.73S1274.29,961.87,1200,961.87Zm0-259.45a124.73,124.73,0,1,0,124.73,124.73A124.87,124.87,0,0,0,1200,702.42Z" style="fill:#fff"></path>
  <circle cx="1200" cy="827.15" r="108.84" style="fill:#fff" transform="rotate(-45 1199.995 827.146)"></circle>
  <path d="M1193.91,864.56a10,10,0,0,1-7.07-2.93l-40.31-40.31,14.14-14.15,33.24,33.24,64.28-64.28,14.14,14.14L1201,861.63A10,10,0,0,1,1193.91,864.56Z" style="fill:#130f40"></path>
  <path d="M816.67,1240.05H746.35l-23.88,33.79h74Zm3.69,33.79h74l15.29-33.79H839.34Zm97.89,0h74l10.39-33.79H932.34Zm177.41-33.79h-70.32l-9.19,33.79h74Zm93,0h-70.32l-4.3,33.79h74Zm93,0h-70.32l.59,33.79h74Zm28.17,33.79h74l-9.19-33.79h-70.32Zm97.89,0h74l-14.09-33.79h-70.33Zm152.94-33.79h-70.33l15.29,33.79h74Zm22.67,0,20.18,33.79h74l-23.88-33.79Zm-793.81,45.46h-75.3l-27.48,38.89H766.3ZM792,1324.4h79.57l17.59-38.89H813.8Zm105.22,0h79.57l12-38.89h-75.3Zm191.1-38.89H1013l-10.58,38.89H1082Zm99.59,0h-75.3l-5,38.89h79.56Zm99.58,0h-75.3l.69,38.89h79.56Zm30.61,38.89h79.56L1387,1285.51h-75.3Zm105.21,0h79.57l-16.22-38.89h-75.3Zm-778,58.75H845l20.46-45.25H677.2Zm941-97.64h-75.31l17.59,38.89h79.57Zm-713.52,97.64h86l13.91-45.25h-81Zm207.08-45.25h-81l-12.31,45.25h86Zm107.17,0h-81l-5.75,45.25h86Zm107.18,0h-81l.8,45.25h86Zm33.48,45.25h86l-12.31-45.25h-81Zm113.73,0h86l-18.87-45.25h-81Zm200.44-45.25H1534.59l20.46,45.25h199.72l-69-97.64h-75.3ZM596.41,1452.22H690l31.81-53.28H634.07Zm123.74,0h93.56l24.1-53.28H750.08Zm123.73,0h93.57l16.38-53.28H866.1Zm123.74,0h464.76l-14.49-53.28H982.11Zm494.93,0h93.57l-22.22-53.28h-87.73Zm123.74,0h93.56l-29.93-53.28h-87.73Zm123.73,0h93.57l-37.66-53.28h-87.72Z" style="fill:#aacaff"></path>
  <path d="M394.38 1207.7a2 2 0 0 1-2-1.68l-21.32-131.68a2 2 0 1 1 4-.63l21.32 131.67a2 2 0 0 1-1.65 2.3ZM415.58 1207.7l-.32 0a2 2 0 0 1-1.65-2.3l21.32-131.67a2 2 0 1 1 3.95.63L417.56 1206A2 2 0 0 1 415.58 1207.7ZM405.58 1207.7a2 2 0 0 1-2-2V1015a2 2 0 0 1 4 0V1205.7A2 2 0 0 1 405.58 1207.7Z" style="fill:#c2dcff"></path>
  <path d="M254,1076.75a92.69,92.69,0,0,1,13.44,1.55c6.95,1.34,4.11,11.93-2.78,10.6a82.88,82.88,0,0,0-16.25-1.43,136.15,136.15,0,0,0-7.13,18.8H275c7.06,0,7.06,11,0,11h-36.5a138,138,0,0,0-2.89,28.57h12.44c7.06,0,7.06,11,0,11h-12a136.92,136.92,0,0,0,4.16,24,137.67,137.67,0,0,0,55.93,3.1v-25.65c0-7.06,10.95-7.05,10.95,0v23.54a136.74,136.74,0,0,0,18.39-5.73v-22.6c0-7.06,11-7.06,11,0v17.75a136.25,136.25,0,0,0,36-25.85c.75-.74,1.48-1.5,2.21-2.25,60.94-63.76-33-157.66-96.72-96.72-.76.72-1.51,1.46-2.26,2.2A136.69,136.69,0,0,0,254,1076.75Zm73.34,64.93c-5-5,2.76-12.73,7.74-7.75S332.29,1146.66,327.31,1141.68Zm31.92-29v15.57c0,7.06-11,7.06-11,0v-15.57C348.28,1105.58,359.23,1105.58,359.23,1112.64Zm-53.38-61.77H328c7.07,0,7.06,11,0,11H305.85C298.78,1061.83,298.79,1050.87,305.85,1050.87Z" style="fill:#d9edff"></path>
  <path d="M269.27,1153.67a2,2,0,0,1-1.41-.58,2,2,0,0,1,0-2.83l103.79-103.79a2,2,0,0,1,2.83,2.83L270.69,1153.09A2,2,0,0,1,269.27,1153.67Z" style="fill:#c2dcff"></path>
  <path d="M469.39,910.35a92,92,0,0,1-10.61,8.41c-5.86,4-11.34-5.53-5.53-9.46a83.64,83.64,0,0,0,12.51-10.48,135,135,0,0,0-8.26-18.33l-23.86,23.87c-5,5-12.74-2.76-7.75-7.75L451.7,870.8a138.24,138.24,0,0,0-18.16-22.24l-8.8,8.79c-5,5-12.73-2.75-7.74-7.74l8.46-8.46a136.24,136.24,0,0,0-19.88-14,137.61,137.61,0,0,0-41.74,37.35L382,882.64c5,5-2.75,12.73-7.74,7.74l-16.64-16.64a136.13,136.13,0,0,0-8.95,17l16,16c5,5-2.75,12.74-7.74,7.75L344.31,902a136.53,136.53,0,0,0-7.15,43.72q0,1.57,0,3.15c2,88.18,134.79,88.18,136.78,0,0-1.05,0-2.1,0-3.15A137.3,137.3,0,0,0,469.39,910.35Zm-97.78,5.95c7.06,0,7.05,11,0,11S364.56,916.3,371.61,916.3Zm-2,43.11-11-11c-5-5,2.75-12.74,7.75-7.75l11,11C382.31,956.65,374.56,964.4,369.57,959.41ZM451,965.33,435.33,981c-5,5-12.74-2.75-7.75-7.74l15.67-15.67C448.25,952.59,456,960.34,451,965.33Z" style="fill:#d9edff"></path>
  <path d="M405.58,1017a2,2,0,0,1-2-2V868.19a2,2,0,0,1,4,0V1015A2,2,0,0,1,405.58,1017Z" style="fill:#c2dcff"></path>
  <path d="M467.58,1116.56v-22.43c0-7.06,11-7.06,11,0V1120c2.76.68,5.55,1.24,8.35,1.66V1110.4c0-7.06,11-7.06,11,0v12.25a93.43,93.43,0,0,0,27-3.1,93.19,93.19,0,0,0,3-18.42h-7.62c-7.07,0-7.06-11,0-11h7.64a92.7,92.7,0,0,0-4.57-24H501.7c-7.06,0-7.06-11,0-11h17.08a91.18,91.18,0,0,0-6.8-11.82c-11.82,0-23.63,0-35.45.21-7.06.1-7-10.85,0-11q13.38-.2,26.75-.19c-.82-.89-1.65-1.77-2.51-2.63l-1.53-1.49C456,987,392.28,1050.72,433.62,1094c.49.52,1,1,1.5,1.54A92.32,92.32,0,0,0,467.58,1116.56Zm12.69-58.73c5-5,12.73,2.76,7.74,7.75S475.28,1062.81,480.27,1057.83Zm-38.94,14.82v-4.78a5.48,5.48,0,0,1,10.95,0v4.78a5.48,5.48,0,1,1-10.95,0Z" style="fill:#d9edff"></path>
  <path d="M512,1108.7a2,2,0,0,1-1.42-.58l-77.26-77.27a2,2,0,0,1,2.83-2.82l77.26,77.26a2,2,0,0,1,0,2.83A2,2,0,0,1,512,1108.7Z" style="fill:#c2dcff"></path>
  <polygon points="347.14 1229.3 376.55 1329.05 434.6 1329.05 464.01 1229.3 347.14 1229.3" style="fill:#d9edff"></polygon>
  <rect width="136.49" height="23.6" x="337.33" y="1205.7" style="fill:#d9edff"></rect>
  <path d="M453 1231.3H358.15a2 2 0 1 1 0-4H453a2 2 0 0 1 0 4ZM2073.17 1383.05a2 2 0 0 1-2-2V1175.6a2 2 0 0 1 4 0v205.45A2 2 0 0 1 2073.17 1383.05Z" style="fill:#c2dcff"></path>
  <path d="M2037,1076a57.78,57.78,0,0,1,21.32,29.64,49,49,0,0,1-1,31.89,104.9,104.9,0,0,1-29.62-3.72,74.68,74.68,0,0,1-24.63-11.61,63.3,63.3,0,0,1-7.23-6.2,27.47,27.47,0,0,1-8-16,33.47,33.47,0,0,1,2.39-18.16,25.32,25.32,0,0,1,12.82-13.26c6-2.69,13.75-2.94,22.21.62A62.9,62.9,0,0,1,2037,1076Z" style="fill:#d9edff"></path>
  <path d="M2073.17,1177.27a2,2,0,0,1-1.94-1.52,115.73,115.73,0,0,0-25.48-49.92c-.46-.52-.92-1.06-1.38-1.61-.83-1-1.61-1.9-2.46-2.77l-4.09-4.36-5.27-5.11-5.49-4.87-2.25-1.8-1.61-1.3c-1-.82-2-1.6-3-2.29l-4.84-3.53-4.89-3.22a2,2,0,0,1,2.21-3.34l5,3.27,4.88,3.56c1.09.76,2.14,1.62,3.16,2.45.52.43,1,.85,1.57,1.26l2.34,1.89,5.63,5,5.4,5.25,4.13,4.4c.92.94,1.78,2,2.62,2.94.45.53.89,1.06,1.35,1.57a119.66,119.66,0,0,1,26.35,51.6,2,2,0,0,1-1.48,2.42A1.83,1.83,0,0,1,2073.17,1177.27Z" style="fill:#c2dcff"></path>
  <polygon points="2142.12 1346.13 2107.41 1455.28 2038.92 1455.28 2004.21 1346.13 2142.12 1346.13" style="fill:#d9edff"></polygon>
  <path d="M2153.12,1071.82c-7.73,13-17.76,23.53-29.85,32.71-3.12,2.26-6.12,4.5-9.43,6.58-1.64,1-3.35,2.05-5,3.05s-3.37,2-5.11,2.92-3.53,1.86-5.35,2.74l-2.75,1.3-2.73,1.28c-3.67,1.67-7.48,3.2-11.39,4.58a81,81,0,0,1-7.52-9.9c-.57-.88-1.13-1.78-1.67-2.69s-1-1.81-1.5-2.74c-1-1.86-1.87-3.77-2.72-5.73s-1.62-4-2.33-6-1.25-4.11-1.78-6.24a78.16,78.16,0,0,1-2.16-13.14c-1.54-18,2.76-37.69,13.25-55.22a99.39,99.39,0,0,1,12.57-16.81c9.71-10.19,20.78-14.67,31.11-14.75A41.41,41.41,0,0,1,2146,1004.1a50.81,50.81,0,0,1,15.69,24.44,43.43,43.43,0,0,1-1.6,29.17A101.72,101.72,0,0,1,2153.12,1071.82Z" style="fill:#d9edff"></path>
  <path d="M2073.25,1177.6h-.19a2,2,0,0,1-1.81-2.17,329,329,0,0,1,5.61-37.49l2.08-9.23,3.06-11.46,3.52-11.32,4-11.18,4.42-11,4.86-10.83,5.29-10.61,5.7-10.41,6.09-10.16,5.19-8a2,2,0,1,1,3.35,2.19l-5.15,7.89-6,10-5.63,10.26-5.21,10.48-4.8,10.67-4.36,10.86-3.92,11-3.47,11.17-3,11.31-2.05,9.12a322,322,0,0,0-5.53,37A2,2,0,0,1,2073.25,1177.6Z" style="fill:#c2dcff"></path>
  <path d="M2033,1269.13a40.15,40.15,0,0,1,19.1,15.64,34.18,34.18,0,0,1,5.29,21.2,68.93,68.93,0,0,1-20.29,3.12,49.91,49.91,0,0,1-18.76-3.44,44.82,44.82,0,0,1-6.06-3,18.91,18.91,0,0,1-8.19-9.55,22.15,22.15,0,0,1-1.13-12.52,17.81,17.81,0,0,1,6.59-10.8c3.56-2.71,8.58-4.11,14.64-3.16A42.91,42.91,0,0,1,2033,1269.13Z" style="fill:#d9edff"></path>
  <path d="M2073,1322.62a2,2,0,0,1-1.47-.65,145.74,145.74,0,0,0-11.5-11.26,126,126,0,0,0-12.77-9.74,114.16,114.16,0,0,0-13.89-8,120.35,120.35,0,0,0-14.83-6.12,2,2,0,0,1,1.26-3.8,123.11,123.11,0,0,1,15.32,6.33,118.75,118.75,0,0,1,14.38,8.27,128.45,128.45,0,0,1,13.17,10.06,150.08,150.08,0,0,1,11.81,11.56,2,2,0,0,1-.13,2.83A2,2,0,0,1,2073,1322.62Z" style="fill:#c2dcff"></path>
  <path d="M2125,1242a45.85,45.85,0,0,1-17.74,0,75.9,75.9,0,0,1-18.13-5.87,30.3,30.3,0,0,1,8.11-18.93,37.92,37.92,0,0,1,20.28-11.31,41.19,41.19,0,0,1,8.39-.85c5.61.1,9.91,2.13,12.77,5.14a17.1,17.1,0,0,1,4.59,10.9,20,20,0,0,1-2.78,11.45,17.69,17.69,0,0,1-9.28,7.63A41.29,41.29,0,0,1,2125,1242Z" style="fill:#d9edff"></path>
  <path d="M2073.36,1250.3a2,2,0,0,1-1.39-3.44,94.48,94.48,0,0,1,12.09-9.84,89.19,89.19,0,0,1,13.61-7.62c2.11-1,4.31-1.85,6.44-2.67l.74-.28,3.69-1.26c.82-.28,1.65-.52,2.46-.75l1.26-.37a127.85,127.85,0,0,1,15.2-3.31,2,2,0,1,1,.6,4,123.36,123.36,0,0,0-14.68,3.2l-1.29.38c-.78.22-1.52.43-2.24.68l-4.3,1.49c-2.06.8-4.19,1.62-6.19,2.57a85.48,85.48,0,0,0-13,7.28,92.33,92.33,0,0,0-11.59,9.43A2,2,0,0,1,2073.36,1250.3Z" style="fill:#c2dcff"></path>
  <path d="M2209.88,1174.35c-16.19,3.2-31.76,2.78-48,0a234.77,234.77,0,0,1-24.8-5.77c-8.43-2.42-17.1-5.35-25.81-8.65a73.38,73.38,0,0,1,5-28.11,85,85,0,0,1,16-26,99.37,99.37,0,0,1,25.49-20.47,109,109,0,0,1,56.62-13.91c16.2.49,28.37,6.83,36.12,15.54s11.26,20,11.25,31.14a57.93,57.93,0,0,1-9.4,31.45,49.86,49.86,0,0,1-25.67,20.3A119.49,119.49,0,0,1,2209.88,1174.35Z" style="fill:#d9edff"></path>
  <path d="M2073.53,1202.41a2,2,0,0,1-1.78-2.91,95.23,95.23,0,0,1,12.27-18,135.64,135.64,0,0,1,15.48-15.12,183.23,183.23,0,0,1,36.19-23.29c5.91-2.94,12.35-5.76,19.71-8.63,5.86-2.27,12.33-4.44,20.38-6.84a292.4,292.4,0,0,1,42.06-8.72,2,2,0,0,1,.51,4,287.14,287.14,0,0,0-41.45,8.59c-7.92,2.36-14.3,4.5-20.05,6.73-7.24,2.82-13.58,5.59-19.37,8.47a180.42,180.42,0,0,0-35.41,22.78,130.82,130.82,0,0,0-15,14.67,90.93,90.93,0,0,0-11.76,17.18A2,2,0,0,1,2073.53,1202.41Z" style="fill:#c2dcff"></path>
  <path d="M1970.1,1119.08c1.24.33,2.46.67,3.68,1s2.39.81,3.57,1.24q3.54,1.29,7,2.78a70.82,70.82,0,0,1,6.58,3.29c2.13,1.18,4.2,2.42,6.22,3.7a101,101,0,0,1,11.13,8.62,97.87,97.87,0,0,1,9.27,9.93,77.11,77.11,0,0,1,16.86,46.57,157.58,157.58,0,0,1-44.93,11.72c-14.7,1.54-28.68.86-42.55-2.86-2.46-.61-4.83-1.46-7.19-2.25a67,67,0,0,1-7-2.72,42.88,42.88,0,0,1-20.8-19,51,51,0,0,1-6.37-27.73,39.89,39.89,0,0,1,11.47-26.26c7.23-7.15,18.22-11.8,32.32-11.31,3.42.19,6.87.52,10.35,1A98.54,98.54,0,0,1,1970.1,1119.08Z" style="fill:#d9edff"></path>
  <path d="M2072.66,1227.74a2,2,0,0,1-1.33-.51,347.93,347.93,0,0,0-28.68-22.94,294.53,294.53,0,0,0-31.23-19.2,250.35,250.35,0,0,0-33.52-14.79,245.65,245.65,0,0,0-35.25-9.92,2,2,0,0,1,.78-3.92,249.38,249.38,0,0,1,35.83,10.07,255.71,255.71,0,0,1,34,15A298.52,298.52,0,0,1,2045,1201a352.49,352.49,0,0,1,29,23.22,2,2,0,0,1-1.33,3.49Z" style="fill:#c2dcff"></path>
  <path d="M1766.73,852.86c27.32,0,32.68,17.28,34.45,26.44,0,0,4.41,28.48,4.41,28.48.64,4,5.58,9.41,9.56,9.88,6.25.74,10,6.37,10,12.67,0,17.51-13.48,30.22-57,30.22-34.53,0-50-44.46-37.57-64.76-4.76-3.67-10.67-10.62-10-15.9C1721.93,868.07,1737.68,852.86,1766.73,852.86Z" style="fill:#130f40"></path>
  <path d="M1672.87,1492.19h45.57c2.44-18.06,4.85-45.84,6.91-77.91H1666.4Z" style="fill:#ffb3b3"></path>
  <path d="M1730.86,1283.7c34.5-74.9,77.23-153.89,77.23-227.57h-78.55l-70.93,197.11a61.38,61.38,0,0,0-3.39,26.29l10.27,149.17H1726C1728.29,1391,1730.06,1323,1730.86,1283.7Z" style="fill:#7069e0"></path>
  <path d="M1647.4,1042.3l1.37.32c11.41,2.57,29.51,2.83,50.9-10.5,14.71-9.17,29.21-23.66,43.11-43l-13.7-37.35c-17.55,5.79-25.71,10.76-34.08,20.47-15.56,18-28.59,25.07-35.67,23.48-6.37-1.45-14.27-11.12-20.23-29.68a24.07,24.07,0,1,0-45.8,14.82,129.39,129.39,0,0,0,13.89,30.43C1620.31,1031.68,1636.05,1039.44,1647.4,1042.3Z" style="fill:#ff4f79"></path>
  <path d="M1622.07,924.26,1591.76,932l4.77,24a14.45,14.45,0,0,0,28.58-3.95l-.16-2.05Z" style="fill:#ffb3b3"></path>
  <polygon points="1607.11 919.8 1614.52 926.44 1610.95 931.91 1605.37 926.7 1607.11 919.8" style="fill:#ffb3b3"></polygon>
  <path d="M1599.38 921.48a2.85 2.85 0 0 0-2.55 3.13l1 9.29a3.55 3.55 0 0 0 4 3.15 2.16 2.16 0 0 0 1.79-2.36l-1.1-10.66a2.85 2.85 0 0 0-3.13-2.55ZM1593.89 923.91a2.85 2.85 0 0 0-2.55 3.13l1 9.29a3.55 3.55 0 0 0 4 3.15 2.14 2.14 0 0 0 1.78-2.36L1597 926.45a2.85 2.85 0 0 0-3.13-2.54Z" style="fill:#ffb3b3"></path>
  <path d="M1604.87,919.05a2.85,2.85,0,0,0-2.55,3.13l1,9.29a3.54,3.54,0,0,0,4,3.15,2.16,2.16,0,0,0,1.78-2.36L1608,921.6a2.87,2.87,0,0,0-3.14-2.55Z" style="fill:#ffb3b3"></path>
  <path d="M1606.79,935.15a4,4,0,0,1-4-3.63l-1-9.29,1-.1,1,9.29a3,3,0,0,0,1.16,2.09,3,3,0,0,0,2.31.61,1.65,1.65,0,0,0,1.36-1.81l-.77-7.53,1-.1.78,7.53a2.64,2.64,0,0,1-2.21,2.9A4,4,0,0,1,1606.79,935.15Z" style="fill:#de506d"></path>
  <path d="M1601.3,937.58a4,4,0,0,1-4-3.63l-1-9.29,1-.1,1,9.29a3,3,0,0,0,1.16,2.09,3,3,0,0,0,2.31.61,1.65,1.65,0,0,0,1.36-1.81l1-.1a2.62,2.62,0,0,1-2.2,2.9A4,4,0,0,1,1601.3,937.58Z" style="fill:#de506d"></path>
  <path d="M1595.81,940a4,4,0,0,1-4-3.63l-1-9.29,1-.1,1,9.29a3,3,0,0,0,1.16,2.09,3,3,0,0,0,2.31.61,1.65,1.65,0,0,0,1.36-1.81l1-.1a2.62,2.62,0,0,1-2.21,2.9A4,4,0,0,1,1595.81,940Z" style="fill:#de506d"></path>
  <path d="M1610.42,901.59a2.17,2.17,0,0,1,3,.7l5.93,10.67,2.74,11.3-7.41,3.66-1.7-14.16-3.69-7.29A3.54,3.54,0,0,1,1610.42,901.59Z" style="fill:#ffb3b3"></path>
  <path d="M1606.46,958.49c-.09-9,2.25-15.75,8-19.25l3.5-14.67a3.85,3.85,0,0,1,4.08-2.89,1.85,1.85,0,0,1,1.64,1.62c1.3,6.61,2.57,18.25,1.28,26.75Z" style="fill:#ffb3b3"></path>
  <path d="M1606,958.5c-.1-9.71,2.53-16.11,8-19.57l3.45-14.47a4.36,4.36,0,0,1,4.62-3.28l-.09,1a3.36,3.36,0,0,0-3.56,2.52l-3.54,14.86-.18.11c-5.31,3.23-7.85,9.39-7.75,18.82Z" style="fill:#de506d"></path>
  <path d="M1729.54,1056.13h78.55c-8.62-36,9.18-59.2,1.57-104.41-29.86-8.82-53.22-8.13-80.58,0Z" style="fill:#ff4f79"></path>
  <path d="M1729.59,1009.4a.5.5,0,0,1-.5-.49l-.33-16.1a.5.5,0,1,1,1,0l.33,16.1a.49.49,0,0,1-.49.51Z"></path>
  <path d="M1763.09,965.38c8.75,0,18.24-7.1,21.2-15.85a17.24,17.24,0,0,0,.74-3.11,120.75,120.75,0,0,0-31-.09,20.21,20.21,0,0,0-1.41,3.2C1749.64,958.28,1754.33,965.38,1763.09,965.38Z" style="fill:#ffb3b3"></path>
  <polygon points="1758.1 956.33 1778.67 946.11 1778.67 911.22 1759.87 909.03 1758.1 956.33" style="fill:#ffb3b3"></polygon>
  <polygon points="1758.94 933.86 1770.73 926.09 1759.29 924.65 1758.94 933.86" style="fill:#de506d"></polygon>
  <path d="M1778.64,915.75a5.6,5.6,0,0,0,6.06-4.62l.36-1.81a4.81,4.81,0,0,0-3.33-5.66,5.13,5.13,0,0,0-.9-.19,1.75,1.75,0,0,0-1.93,1.4l-1,4.88a6.06,6.06,0,0,1-3.09-6l.51-4.27c.51-11.39-15.5-8.42-18.11-20.94a17.1,17.1,0,0,0-11.75,14.26l-.63,5.33a76.76,76.76,0,0,0-.34,14.38A16.77,16.77,0,0,0,1759.27,928l3.59.1C1771.73,928.08,1778.64,920.78,1778.64,915.75Z" style="fill:#ffb3b3"></path>
  <polygon points="1758.08 912.53 1753.25 911.79 1755.66 903 1756.63 903.26 1754.51 910.98 1758.23 911.55 1758.08 912.53" style="fill:#de506d"></polygon>
  <path d="M1749.37 905.39a1.29 1.29 0 0 0 1.31-1.25l.06-2.29a1.29 1.29 0 0 0-1.25-1.31 1.28 1.28 0 0 0-1.31 1.25l-.06 2.29A1.28 1.28 0 0 0 1749.37 905.39ZM1765.54 902.22l-.06 2.29a1.28 1.28 0 1 0 2.56.06l.06-2.29a1.3 1.3 0 0 0-1.25-1.31A1.27 1.27 0 0 0 1765.54 902.22ZM1753.23 897h-5.78a1 1 0 1 1 0-2h5.78a1 1 0 0 1 0 2ZM1769.12 897h-7.75a1 1 0 0 1 0-2h7.75a1 1 0 0 1 0 2Z" style="fill:#130f40"></path>
  <path d="M1751.74,916.09c1.57,3.53,6.63,3.71,9.53,0Z" style="fill:#fff"></path>
  <path d="M1760.43,1414.64l6.67,77.55h45.57c2.56-18.86,5.07-45.93,7.19-77.55Z" style="fill:#ffb3b3"></path>
  <path d="M1808.09,1056.13h-78.5l29.86,372.57h61.14C1828,1309.22,1829.55,1108.87,1808.09,1056.13Z" style="fill:#7069e0"></path>
  <path d="M1743.63,1231.81a.51.51,0,0,1-.5-.46l-6-74.3a.5.5,0,0,1,1-.08l6,74.3a.49.49,0,0,1-.46.53Z"></path>
  <path d="M1778.31,1094h-49.53c-4,0-8.22-3.25-9.42-7.25l-23.15-77.27c-1.2-4,1.08-7.24,5.08-7.24h49.53a10.54,10.54,0,0,1,9.41,7.24l23.15,77.27C1784.58,1090.73,1782.31,1094,1778.31,1094Z" style="fill:#130f40"></path>
  <path d="M1721.52,1464.24c-9.68-9.68-22.68,6.17-36.12,6.17l-1.48-7.1c-1.32-6.21-8-10.66-14.33-10.66l-.49,9.7c-4.39,11.94-21.7,28.48-43.91,32.26a11,11,0,0,0-9.26,10.42,10.81,10.81,0,0,0,10.79,11.06h84a10.82,10.82,0,0,0,10.82-10.83Z" style="fill:#ff4f79"></path>
  <path d="M1626.72 1516.09h84a10.82 10.82 0 0 0 10.82-10.83v-11.53h-23.84a36.18 36.18 0 0 0-15.08 3.29l-10.88 5a36.15 36.15 0 0 1-15.08 3.29h-40.71A10.8 10.8 0 0 0 1626.72 1516.09ZM1664.55 1470.5a63.44 63.44 0 0 1-23.2 18.89 10.17 10.17 0 0 0 12.9 1.27 69.31 69.31 0 0 0 15.56-14.42 10 10 0 0 0 2.06-5.74Z" style="fill:#130f40"></path>
  <path d="M1815.86,1464.24c-9.68-9.68-15.62,6.17-29.06,6.17l-1.47-7.1c-2.31-8.8-13.13-10.66-22.35-10.66l.46,9.7c-2.18,11.71-3.77,22-18.46,32.26a11,11,0,0,0-9.26,10.42,10.81,10.81,0,0,0,10.8,11.06H1805a10.83,10.83,0,0,0,10.83-10.83Z" style="fill:#ff4f79"></path>
  <path d="M1746.52 1516.09H1805a10.83 10.83 0 0 0 10.83-10.83v-11.53h-6.15a41.5 41.5 0 0 0-17.27 3.76l-8.8 4a41.28 41.28 0 0 1-17.26 3.77h-30.66A10.8 10.8 0 0 0 1746.52 1516.09ZM1760.54 1490.66a69.31 69.31 0 0 0 15.56-14.42 10 10 0 0 0 2.06-5.74h-16.37c-1.72 7.15-4.54 13.85-12.12 20.46A10.13 10.13 0 0 0 1760.54 1490.66Z" style="fill:#130f40"></path>
  <path d="M1861.3,1105.35H1817a22.14,22.14,0,0,1-22.14-22.14v-28.77h22.88l-21.34-36.89,13.23-65.83c9.88,3,20.27,18.54,24.58,27l49.69,88.45a25.46,25.46,0,0,1-2.88,29.52A26.11,26.11,0,0,1,1861.3,1105.35Z" style="fill:#ff4f79"></path>
  <path d="M1839.7 1054.94h-21.93a.5.5 0 0 1 0-1h21.93a.5.5 0 1 1 0 1ZM1805.7 1034.07a.5.5 0 0 1-.44-.25l-9.26-16a.5.5 0 1 1 .86-.5l9.27 16a.5.5 0 0 1-.18.68A.47.47 0 0 1 1805.7 1034.07Z"></path>
  <path d="M1763.58,1046.53l1.27,23.73h30v-15.82l-21.37-9A10.33,10.33,0,0,0,1763.58,1046.53Z" style="fill:#ffb3b3"></path>
  <path d="M1767.12,1052l-14.75,9.53a4,4,0,0,1-5.59-1.21,2.47,2.47,0,0,1,.74-3.42l16.06-10.38Z" style="fill:#ffb3b3"></path>
  <path d="m1768.05 1059.17-14.74 9.53a4.06 4.06 0 0 1-5.6-1.2 2.48 2.48 0 0 1 .74-3.43l16.06-10.38ZM1774.2 1063l-14.75 9.52a4 4 0 0 1-5.59-1.2 2.48 2.48 0 0 1 .73-3.42l16.07-10.38Z" style="fill:#ffb3b3"></path>
  <path d="M1778.11,1066.83l-12.13,7.84a3.34,3.34,0,0,1-4.61-1,2,2,0,0,1,.61-2.82l13.22-8.54Z" style="fill:#ffb3b3"></path>
  <rect width="19.13" height="1" x="1746.92" y="1058.38" style="fill:#de506d" transform="rotate(-32.88 1756.664 1058.926)"></rect>
  <rect width="19.13" height="1" x="1753.06" y="1062.18" style="fill:#de506d" transform="rotate(-32.89 1762.378 1062.603)"></rect>
  <rect width="15.74" height="1" x="1760.72" y="1066.09" style="fill:#de506d" transform="rotate(-32.89 1768.348 1066.52)"></rect>
  <polygon points="575.79 1484.59 622.31 1484.59 632.71 1440.7 582.53 1440.7 575.79 1484.59" style="fill:#ffb3b3"></polygon>
  <path d="M582.27,1478s5.68-31.75-.94-31.75a14,14,0,0,0-14,14v13.85c-1.63,8.79-3.17,16.74-11.5,24.52a26.12,26.12,0,0,1-7.71,5,10.13,10.13,0,0,0-6.3,9,10,10,0,0,0,10,10.25h62.87a10,10,0,0,0,10-10v-38C618.22,1468.22,593.47,1478,582.27,1478Z" style="fill:#130f40"></path>
  <path d="M551.84,1522.84h62.87a10,10,0,0,0,10-10v-10.7H607.56a38.51,38.51,0,0,0-16,3.49l-8.16,3.74a38.37,38.37,0,0,1-16,3.5H541.82A10,10,0,0,0,551.84,1522.84Z" style="fill:#9897bf"></path>
  <path d="M616.37,1136.07a25.45,25.45,0,0,1-37.13-3c-29-36.83-40.86-68.76-37.1-99.17,3.93-31.77,18.66-59.7,57.37-85.34a75.32,75.32,0,0,1,20.08-10.67l14.07,53.2c-25.55,16.92-38.93,33-40.93,49.07s6.69,36.28,26.46,61.29a25.47,25.47,0,0,1-2.82,34.61Z" style="fill:#fdc00f"></path>
  <path d="M607.79,1125.35a14.66,14.66,0,0,0-10.64,13.92l-.27,21.63-.67-1a8.72,8.72,0,0,0-10.8-2.93l5.52,10.11a8.77,8.77,0,0,0,5.49,4.27l15.49,4a8.74,8.74,0,0,0,8.62-2.57l5-5.45a11.52,11.52,0,0,0,2.79-8.13c0-8.59-.46-16.07-2.19-23.2a14.69,14.69,0,0,0-18.3-10.68Z" style="fill:#ffb3b3"></path>
  <path d="M620.5,1092.6H722.86l-83.69,359.69a16,16,0,0,1-15.55,12.35H594.44a23.51,23.51,0,0,1-23.27-26.83Z" style="fill:#130f40"></path>
  <polygon points="682.49 1444.96 686.38 1484.59 744.23 1484.59 746.03 1444.96 682.49 1444.96" style="fill:#ffb3b3"></polygon>
  <path d="M762.11,1092.6H647.94l28.21,357.33a16,16,0,0,0,15.92,14.71h36.61a17.23,17.23,0,0,0,17.21-16.44C757.5,1308.44,766.91,1176.23,762.11,1092.6Z" style="fill:#130f40"></path>
  <path d="M787.36,1502.92c-17.34-3-31.47-14.29-37.93-24.42v-32.28a13.23,13.23,0,0,0-13,10.53l-5,23.72c-12.47,0-37-14.7-46-5.72v38a10,10,0,0,0,10,10h90.4a10,10,0,0,0,10-10.25A10.22,10.22,0,0,0,787.36,1502.92Z" style="fill:#130f40"></path>
  <path d="M785.94 1522.84h-90.4a10 10 0 0 1-10-10v-10.7h34.63a33.6 33.6 0 0 1 14 3.05l10.09 4.63a33.6 33.6 0 0 0 14 3H796A10 10 0 0 1 785.94 1522.84ZM750.85 1480.55a58.64 58.64 0 0 0 21.52 17.52c-3.19 3.2-12.52 3.73-16.26 1.18-5.8-4-15.39-12.65-16.26-18.7a19.41 19.41 0 0 1 9.58-2Z" style="fill:#9897bf"></path>
  <path d="M666.92,1333.51a.5.5,0,0,1-.5-.46l-10.25-129.83a.5.5,0,0,1,.46-.54.5.5,0,0,1,.54.46L667.42,1333a.5.5,0,0,1-.46.54Z" style="fill:#6860cc"></path>
  <path d="M671,912.85l-2.9-29a13.19,13.19,0,0,1,11.71-15.62L701,866.85a11.49,11.49,0,0,1,11.85,10.31l1.23,12.1,5.21,8.4a2.42,2.42,0,0,1-1.48,3.63l-2.44.59.82,8.08c.59,4.86-3.44,9.66-12.18,8.06l2.75,19.21H671Z" style="fill:#ffb3b3"></path>
  <path d="M711.17,908.54c-1.78,0-3.62-1.43-5.49-4.24l.83-.56c1.67,2.52,3.24,3.8,4.66,3.8,1.18,0,2.3-.91,3.36-2.63l.85.53c-1.25,2-2.65,3.07-4.16,3.09Z" style="fill:#de506d"></path>
  <polygon points="704.02 918.02 697.76 915.94 704.74 923.06 704.02 918.02" style="fill:#de506d"></polygon>
  <path d="M726.94,852.51c-1.64-1.42-4-1.38-6.2-1.37s-4.63-.22-6-1.93c-1.76-2.26-.51-5.72-1.76-8.3a5.54,5.54,0,0,0-4.24-2.88,8.48,8.48,0,0,0-5.13,1.09c-2.9,1.58-5,4.28-7.51,6.38s-6.08,3.63-9.09,2.28c-1.77-.79-3.09-2.49-5-3-2.76-.72-5.44,1.44-7.16,3.71s-3.25,5-5.88,6.1c-1.47.62-3.13.66-4.63,1.2a8.41,8.41,0,0,0-5.13,8.79,10.73,10.73,0,0,0,2.57,5.46,13.48,13.48,0,0,0-2.81,8.75c0,16.83,2.76,18.43,6,23.56,2.55,4,6,8.6,6,14.07h9.76c7.53,0,9.15-9.6,9.15-19.75-1.51-2.85-1.44-5.84.16-6.69s4.28.22,6.26,3.54l.09-14.13-.37-.26c4.14.8,8,.27,10.61-5.31,2.33,1.8,5.27,3.14,8.12,2.45,3.21-.77,5.86-4.46,4.74-7.56-2.42-6.67,3.73-7.09,5.12-7.4C729.35,860.27,729,854.27,726.94,852.51Z" style="fill:#130f40"></path>
  <path d="M707.08 889.16a1.44 1.44 0 0 0-1.49 1.38l-.09 2.2a1.45 1.45 0 0 0 2.89.11l.08-2.2A1.44 1.44 0 0 0 707.08 889.16ZM710.2 885.54h-6.44a1 1 0 0 1 0-2h6.44a1 1 0 0 1 0 2Z" style="fill:#130f40"></path>
  <path d="M748.66,936.65c-33.17-5.23-98.58-6.65-129.07,1.25l.91,154.7H762.11Z" style="fill:#fdc00f"></path>
  <path d="M845.21,1031.46l-7.7-100.11a21.54,21.54,0,1,0-43,3.31l3.23,42-22.46-26.47c-6.58-7.47-15-11.75-26.66-13.58l-10.1,70,69.89,42.12C825.55,1057.8,846.57,1046,845.21,1031.46Z" style="fill:#fdc00f"></path>
  <path d="M755.58 1017.37a.48.48 0 0 1-.26-.07l-17-10.25a.52.52 0 0 1-.17-.69.5.5 0 0 1 .69-.17l17 10.25a.5.5 0 0 1 .17.69A.48.48 0 0 1 755.58 1017.37ZM620 1000.37a.5.5 0 0 1-.5-.5V981.68a.51.51 0 0 1 .5-.5.5.5 0 0 1 .5.5v18.19A.5.5 0 0 1 620 1000.37Z"></path>
  <path d="M824,878.5a2.74,2.74,0,0,1,3.05-2.39,4.47,4.47,0,0,1,3.71,3,2.69,2.69,0,0,1,.49,0,39.36,39.36,0,0,1,7.71,8.72l-.89,9.71A2.74,2.74,0,0,1,835,900a4.5,4.5,0,0,1-3.7-3,2.69,2.69,0,0,1-.49,0,39.74,39.74,0,0,1-7.71-8.73Z" style="fill:#ffb3b3"></path>
  <path d="M798.84,890.93l1.57-16.45a2,2,0,0,1,1.74-1.82,4.24,4.24,0,0,1,4.56,3l2.5,8.82,7.73-3.74L834,894.59l-2.53,16.87a13.32,13.32,0,0,1-15.15,11.21c-6.25-.94-16.08-6.13-16.44-12.44Z" style="fill:#ffb3b3"></path>
  <polygon points="825.81 876.25 815.85 879.52 815.85 890.17 825.75 891.43 825.81 876.25" style="fill:#ffb3b3"></polygon>
  <path d="M811.43,869.22l3.81-14.38a2.73,2.73,0,0,1,3.23-1.9,4.47,4.47,0,0,1,3.2,5.63l-3.38,12.92-1.9,13.9-7.18-.87,1.8-13a19.79,19.79,0,0,1,.39-2.15Z" style="fill:#ffb3b3"></path>
  <rect width="4.58" height="1" x="831.41" y="896.35" style="fill:#de506d" transform="rotate(-81.4 835.12 895.779)"></rect>
  <path d="M1501.94,392.6l-14.73-31-117.68-76.12a47.61,47.61,0,0,0-59.06,5.84L1188,410.37,1229.55,434l108.13-58.67,92.54,73.73c38.11,30.37,92.09-10.59,72.33-55.13C1502.35,393.48,1502.15,393,1501.94,392.6Z" style="fill:#130f40"></path>
  <path d="M1239.92,433.41a5.94,5.94,0,0,0-1.64-8.24l-20.58-13.75a9.93,9.93,0,0,1-3.48-4.06l-5.8-12.42a9.94,9.94,0,0,0-17.27-1.32l-2.44,3.65-48.18-1.93a12.67,12.67,0,0,0-7.55,23.2l72.64,48.55a9.79,9.79,0,0,0,13.59-2.7Z" style="fill:#32b871"></path>
  <path d="m1179.79 432.13-4 5.91 41.94 28a9.33 9.33 0 0 0 1.43-1.68l13.43-20.09-26.16-17.48a9.32 9.32 0 0 0-7-1.38l-13.82 2.74A9.25 9.25 0 0 0 1179.79 432.13ZM1150 411.79l.2.13a8.45 8.45 0 0 0 11.72-2.33l4.11-6.14-3.93-7.25-21.56-.86a12.81 12.81 0 0 0-5 .82l7.29 4.87a8.48 8.48 0 0 1 3.59 5.38A8.48 8.48 0 0 0 1150 411.79ZM1239.92 433.41a5.94 5.94 0 0 0-1.64-8.24l-20.58-13.75a9.93 9.93 0 0 1-3.15-3.45l-3.62 5.27a10.29 10.29 0 0 0 2.77 14.38l20.8 13.9Z" style="fill:#2da364"></path>
  <path d="M1190.26 438.54 1166 428.41l-37.69-25.18a12.68 12.68 0 0 0 4.71 15.31l72.64 48.55a9.79 9.79 0 0 0 13.59-2.7l3-4.49ZM1196.49 402.48l-7.78-5.21-35.3-1.42a12.38 12.38 0 0 0 9.4 9.67l27.45 6.28ZM1487.21 361.59h-.85L1362.62 393c-35.07 9.24-63 38.4-28.53 89.23l98.79 133.84 30.44-29.92a27.72 27.72 0 0 0-.66-20.13L1419 470.26h105.81A55.28 55.28 0 0 0 1580.06 415V361.59Z" style="fill:#130f40"></path>
  <path d="M1362.62,394a1,1,0,0,1-.24-2l89-22.6a1,1,0,1,1,.49,1.94l-89,22.6A1.07,1.07,0,0,1,1362.62,394Z" style="fill:#6860cc"></path>
  <path d="M1464.79,574.77a6.42,6.42,0,0,0-9.09.35l-7,7.61a10.86,10.86,0,0,1-4.94,3l-14.28,4.1a10.77,10.77,0,0,0-4.35,18.26l3.5,3.24-10.25,51.24a13.74,13.74,0,0,0,23.56,12L1495,617.21a10.62,10.62,0,0,0-.58-15Z" style="fill:#32b871"></path>
  <path d="M1460.58,604.58l.59,15.26a10,10,0,0,0,3.22,7l5.66,5.24L1496,604a10.73,10.73,0,0,0-1.56-1.83l-19.22-17.78-12,12.94A10,10,0,0,0,1460.58,604.58Zm-42.24,58a13.76,13.76,0,0,0,0,5.5l6.45-7a9.15,9.15,0,0,1,6.37-2.93,9.15,9.15,0,0,0,6.37-2.93l.17-.19a9.17,9.17,0,0,0-.5-13l-5.88-5.44-8.43,3Zm37.36-87.49-7,7.61a10.7,10.7,0,0,1-4.23,2.78l5,4.77a11.15,11.15,0,0,0,15.86-.52l7.23-7.81-7.76-7.18A6.42,6.42,0,0,0,1455.7,575.12Z" style="fill:#2da364"></path>
  <path d="m1473 616.71-15 24.3-33.36 36.06a13.73 13.73 0 0 0 17.2-2.43L1495 617.21a10.62 10.62 0 0 0-.58-15l-4.3-4ZM1435.48 603.92l-6.89 7.45-7.51 37.54a13.47 13.47 0 0 0 12-8.42l11.37-28.32ZM1493.1 143.54c22.17-30.38 79.06-15.91 66.29 38 1.6 5.06 7.6 6.92 12.68 8.43s11 4.55 11.07 9.85c.08 4.37-4 8.31-3 12.55 1 3.89 5.63 5.44 9.61 5.92s8.55.84 11 4c2.84 3.76 1.18 9.54 3.87 13.41s7.89 4 12.43 4.11 9.93.94 11.87 5c2.07 4.4-1.3 9.37-4.75 12.8a86.13 86.13 0 0 1-64.33 24.56c-5.81-.3-11.84-1.31-16.53-4.74s-7.59-9.88-5.39-15.26c1.08-2.63 3.18-4.68 4.68-7.09s2.34-5.68.73-8c-2.52-3.67-8.28-2.1-12.45-3.69a8.25 8.25 0 0 1-5.16-6.7C1442.52 210.48 1445.92 139.48 1493.1 143.54Z" style="fill:#130f40"></path>
  <path d="M1486.76,223.31c-5.65,2.72-13.48,15.16-17.24,21.94L1454.24,272l40,20.83,18.19-32.05Z" style="fill:#32b871"></path>
  <path d="M1464.74,344.84l29.51-52-40-20.83-26.94,55.89,18.13,28.49C1454.24,356.4,1460.33,352.23,1464.74,344.84Z" style="fill:#ffb3b3"></path>
  <path d="M1407.09,337.15c2.64-4,6.78-9.24,15.54-9.24h24.6l-1.8,28.49h-11.67l-7.18-7.65h-17.84Z" style="fill:#ffb3b3"></path>
  <path d="M1412.05,339.87l-9.52,14.48a4.16,4.16,0,0,1-5.27,1.65,2.1,2.1,0,0,1-.54-3.08l10.37-15.77Z" style="fill:#ffb3b3"></path>
  <path d="M1398.87,356.9a3.87,3.87,0,0,1-1.85-.46l.48-.88a3.66,3.66,0,0,0,4.62-1.49l9.52-14.47.83.55L1403,354.62A5,5,0,0,1,1398.87,356.9Z" style="fill:#de506d"></path>
  <path d="M1416.41,339.87l-9.52,14.48a4.16,4.16,0,0,1-5.27,1.65,2.1,2.1,0,0,1-.55-3.08l10.37-15.77Z" style="fill:#ffb3b3"></path>
  <path d="M1403.23,356.9a3.84,3.84,0,0,1-1.85-.46,2.33,2.33,0,0,1-1.16-1.51,2.86,2.86,0,0,1,.44-2.28L1411,336.88l.83.55-10.37,15.77a1.9,1.9,0,0,0-.3,1.49,1.35,1.35,0,0,0,.67.87,3.65,3.65,0,0,0,4.61-1.49L1416,339.6l.84.55-9.52,14.47A5,5,0,0,1,1403.23,356.9Z" style="fill:#de506d"></path>
  <path d="M1421.25,339.87l-9.52,14.48a4.17,4.17,0,0,1-5.28,1.65,2.1,2.1,0,0,1-.54-3.08l10.37-15.77Z" style="fill:#ffb3b3"></path>
  <path d="M1408.06,356.9a3.87,3.87,0,0,1-1.85-.46,2.35,2.35,0,0,1-1.15-1.51,2.89,2.89,0,0,1,.43-2.28l10.37-15.77.84.55-10.37,15.77a1.9,1.9,0,0,0-.3,1.49,1.3,1.3,0,0,0,.66.87,3.66,3.66,0,0,0,4.62-1.49l9.52-14.47.84.55-9.52,14.47A5,5,0,0,1,1408.06,356.9Z" style="fill:#de506d"></path>
  <path d="m1426.08 339.87-9.52 14.48a4.16 4.16 0 0 1-5.27 1.65 2.1 2.1 0 0 1-.54-3.08l10.37-15.77ZM1437.58 356.4h-15.07a3.2 3.2 0 0 1-3.26-3.29 2.23 2.23 0 0 1 1.49-2c6.56-2.81 18.78-7.46 18.78-7.46Z" style="fill:#ffb3b3"></path>
  <path d="M1412.9,356.9a3.84,3.84,0,0,1-1.85-.46,2.4,2.4,0,0,1-1.16-1.51,2.94,2.94,0,0,1,.44-2.28l10.37-15.77.84.55-10.38,15.77a1.94,1.94,0,0,0-.3,1.49,1.37,1.37,0,0,0,.67.87,3.66,3.66,0,0,0,4.62-1.49l7-10.66.83.55-7,10.66A5,5,0,0,1,1412.9,356.9Z" style="fill:#de506d"></path>
  <rect width="13.89" height="1" x="1426.1" y="345.72" style="fill:#de506d" transform="rotate(-21.36 1432.898 346.2)"></rect>
  <path d="M1487.21,361.59h92.85c0-55.07.08-100.53-14.23-138.28-29.3-8.65-52.23-8-79.07,0Z" style="fill:#32b871"></path>
  <path d="M1486.76,289.45a.5.5,0,0,1-.5-.5V272a.5.5,0,0,1,1,0V289A.5.5,0,0,1,1486.76,289.45Z"></path>
  <path d="M1520.13,236.72c8.59,0,17.91-7,20.81-15.56a17,17,0,0,0,.73-3,119,119,0,0,0-30.46-.09,20.24,20.24,0,0,0-1.38,3.14C1506.93,229.75,1511.54,236.72,1520.13,236.72Z" style="fill:#ffb3b3"></path>
  <polygon points="1515.53 234.38 1532.86 217.29 1527.82 191.28 1508.37 188.3 1515.53 234.38" style="fill:#ffb3b3"></polygon>
  <polygon points="1512.13 212.5 1522.08 202.77 1510.74 203.53 1512.13 212.5" style="fill:#de506d"></polygon>
  <path d="M1527.78,191.29c-1.13-5.32-10.48-27.15-27.68-32a16.85,16.85,0,0,0-8.68,16l.39,5.27a75.14,75.14,0,0,0,2.37,14,16.52,16.52,0,0,0,17.17,12.19l3.49-.57C1523.41,204.51,1528.73,196.14,1527.78,191.29Z" style="fill:#ffb3b3"></path>
  <polygon points="1502.47 192.23 1503.16 183.26 1504.16 183.34 1503.56 191.19 1507.26 191.04 1507.3 192.04 1502.47 192.23" style="fill:#de506d"></polygon>
  <path d="M1497.53 186.75a1.26 1.26 0 0 0 1-1.45l-.38-2.22a1.26 1.26 0 1 0-2.48.42l.37 2.22A1.26 1.26 0 0 0 1497.53 186.75ZM1512.57 180.66l.38 2.22a1.26 1.26 0 0 0 2.48-.42l-.37-2.22a1.26 1.26 0 1 0-2.49.42ZM1491.59 178.57a1 1 0 0 1-.22-2l6.31-1.44a1 1 0 0 1 .44 2l-6.31 1.44A.82.82 0 0 1 1491.59 178.57ZM1517.54 175.45h-9.17a1 1 0 0 1 0-2h9.17a1 1 0 0 1 0 2Z" style="fill:#130f40"></path>
  <path d="M1505.53,199.07a4.93,4.93,0,0,1-4.11-2.12l.82-.57a4,4,0,0,0,3.62,1.68,6,6,0,0,0,4.74-3.41l.89.45a7,7,0,0,1-5.56,4Z" style="fill:#de506d"></path>
  <path d="M1333.74,266.32h108.75a8,8,0,0,1,7.35,6l19.3,83.33a5.69,5.69,0,0,1,.12.78h68.89a2.6,2.6,0,0,1,0,5.19H1355.8a8,8,0,0,1-7.35-6l-19.3-83.33C1328.39,269,1330.44,266.32,1333.74,266.32Z" style="fill:#487be8"></path>
  <path d="M1352.16,361.59h108.76c3.3,0,5.35-2.67,4.59-6l-19.3-83.33a8,8,0,0,0-7.35-6H1330.1c-3.29,0-5.35,2.67-4.58,6l19.29,83.33A8,8,0,0,0,1352.16,361.59Z" style="fill:#6496ff"></path>
  <path d="M1595.12,246.72c-6.61-11.24-14.26-18.38-29.29-23.41l-14.53,29.13,26.83,44.7,35.65-19.34Z" style="fill:#32b871"></path>
  <path d="M1578.13,297.64a.5.5,0,0,1-.43-.25l-15.07-25.11a.49.49,0,0,1,.17-.69.5.5,0,0,1,.68.17l15.08,25.12a.51.51,0,0,1-.43.76Z"></path>
  <path d="M1548.65,361.59h80.88a20.26,20.26,0,0,0,17.37-30.68l-33.12-53.11-35.65,19.34,15.62,23.94-45.1,12.36Z" style="fill:#ffb3b3"></path>
  <path d="M1549.13,333.31l-29.35-5.4a10.17,10.17,0,0,0-8.73,4.48l8.84,16.61c5.62,7.4,15.83,12.59,28.76,12.59Z" style="fill:#ffb3b3"></path>
  <path d="M1516.22,336.16l-10.14,13.93a4,4,0,0,1-5.55.87,2.44,2.44,0,0,1-.53-3.4l11-15.17Z" style="fill:#ffb3b3"></path>
  <path d="M1519.61,342.39l-10.15,13.92a4,4,0,0,1-5.54.88,2.43,2.43,0,0,1-.54-3.4l11-15.17Z" style="fill:#ffb3b3"></path>
  <path d="M1526.57,343.7l-10.14,13.92a4,4,0,0,1-5.55.87,2.43,2.43,0,0,1-.53-3.39l11.05-15.17Z" style="fill:#ffb3b3"></path>
  <path d="M1531.52,345.85l-8.35,11.46a3.27,3.27,0,0,1-4.57.72,2,2,0,0,1-.43-2.79l9.09-12.49Z" style="fill:#ffb3b3"></path>
  <rect width="18.77" height="1" x="1499.52" y="345.71" style="fill:#de506d" transform="rotate(-53.98 1508.925 346.206)"></rect>
  <rect width="18.77" height="1" x="1506.49" y="347.01" style="fill:#de506d" transform="rotate(-53.98 1515.893 347.504)"></rect>
  <rect width="15.44" height="1" x="1514.99" y="348.5" style="fill:#de506d" transform="rotate(-53.98 1522.726 348.993)"></rect>
  <path d="M866.4,972.56A17.63,17.63,0,1,1,884,954.93,17.65,17.65,0,0,1,866.4,972.56Zm0-33.25A15.63,15.63,0,1,0,882,954.93,15.64,15.64,0,0,0,866.4,939.31Z" style="fill:#aacaff"></path>
  <circle cx="912.77" cy="954.93" r="16.63" style="fill:#aacaff" transform="rotate(-45 912.769 954.939)"></circle>
  <path d="M959.13 972.56a17.63 17.63 0 1 1 17.63-17.63A17.65 17.65 0 0 1 959.13 972.56Zm0-33.25a15.63 15.63 0 1 0 15.63 15.62A15.64 15.64 0 0 0 959.13 939.31ZM959.13 926.2a17.63 17.63 0 1 1 17.63-17.63A17.65 17.65 0 0 1 959.13 926.2Zm0-33.26a15.63 15.63 0 1 0 15.63 15.63A15.65 15.65 0 0 0 959.13 892.94ZM912.77 926.2a17.63 17.63 0 1 1 17.62-17.63A17.65 17.65 0 0 1 912.77 926.2Zm0-33.26a15.63 15.63 0 1 0 15.62 15.63A15.65 15.65 0 0 0 912.77 892.94ZM866.4 926.2A17.63 17.63 0 1 1 884 908.57 17.65 17.65 0 0 1 866.4 926.2Zm0-33.26A15.63 15.63 0 1 0 882 908.57 15.65 15.65 0 0 0 866.4 892.94Z" style="fill:#aacaff"></path>
  <circle cx="959.13" cy="862.21" r="16.63" style="fill:#aacaff" transform="rotate(-9.27 959.223 862.312)"></circle>
  <path d="M866.4,879.83A17.63,17.63,0,1,1,884,862.21,17.64,17.64,0,0,1,866.4,879.83Zm0-33.25A15.63,15.63,0,1,0,882,862.21,15.65,15.65,0,0,0,866.4,846.58Z" style="fill:#aacaff"></path>
  <circle cx="912.77" cy="862.21" r="16.63" style="fill:#aacaff" transform="rotate(-45 912.769 862.209)"></circle>
  <path d="M959.13,833.47a17.63,17.63,0,1,1,17.63-17.63A17.65,17.65,0,0,1,959.13,833.47Zm0-33.25a15.63,15.63,0,1,0,15.63,15.62A15.64,15.64,0,0,0,959.13,800.22Z" style="fill:#aacaff"></path>
  <circle cx="866.4" cy="815.84" r="16.63" style="fill:#aacaff" transform="rotate(-58.09 866.392 815.839)"></circle>
  <path d="M912.77,833.47a17.63,17.63,0,1,1,17.62-17.63A17.65,17.65,0,0,1,912.77,833.47Zm0-33.25a15.63,15.63,0,1,0,15.62,15.62A15.64,15.64,0,0,0,912.77,800.22Z" style="fill:#aacaff"></path>
  <path d="M1595.69,866.91h-155a29.8,29.8,0,1,1,0-59.6h155a29.8,29.8,0,0,1,0,59.6Z" style="fill:#fff"></path>
  <path d="M1595.69,868.91h-155a31.8,31.8,0,1,1,0-63.6h155a31.8,31.8,0,0,1,0,63.6Zm-155-59.6a27.8,27.8,0,1,0,0,55.6h155a27.8,27.8,0,0,0,0-55.6Z" style="fill:#c2dcff"></path>
  <rect width="4" height="29.04" x="1456.09" y="822.7" style="fill:#295ecc" transform="rotate(-35.89 1457.9 837.18)"></rect>
  <rect width="29.04" height="4" x="1443.57" y="835.22" style="fill:#295ecc" transform="rotate(-54.13 1458.04 837.213)"></rect>
  <rect width="26.63" height="4" x="1444.78" y="835.22" style="fill:#295ecc"></rect>
  <rect width="4" height="29.04" x="1496.17" y="822.7" style="fill:#295ecc" transform="rotate(-35.89 1498.017 837.192)"></rect>
  <rect width="29.04" height="4" x="1483.65" y="835.22" style="fill:#295ecc" transform="rotate(-53.8 1503.83 833.457)"></rect>
  <rect width="26.63" height="4" x="1484.85" y="835.22" style="fill:#295ecc"></rect>
  <rect width="4" height="29.04" x="1536.24" y="822.7" style="fill:#295ecc" transform="rotate(-35.89 1538.042 837.173)"></rect>
  <rect width="29.04" height="4" x="1523.72" y="835.22" style="fill:#295ecc" transform="rotate(-54.13 1538.187 837.22)"></rect>
  <rect width="26.63" height="4" x="1524.93" y="835.22" style="fill:#295ecc"></rect>
  <rect width="26.63" height="4" x="1565" y="846.98" style="fill:#295ecc"></rect>
  <rect width="91.77" height="91.77" x="1158.61" y="163.18" rx="10.84" style="fill:#c2dcff"></rect>
  <path d="M1234.06,163.18h-4V142.12a25.56,25.56,0,1,0-51.12,0v21.06h-4V142.12a29.56,29.56,0,1,1,59.12,0Z" style="fill:#c2dcff"></path>
  <polygon points="1201.93 226.28 1182.11 206.46 1187.76 200.8 1201.93 214.97 1229.18 187.71 1234.84 193.37 1201.93 226.28" style="fill:#93b9ff"></polygon>
  <path d="M1727.07 598.52c-1.12-1.87-22.11-8.47-28-12.39 8.88-7.77 15-20.65 15-32a31.79 31.79 0 0 0-63.57.24c0 11.35 6.08 24.19 15.19 31.73-6.08 4.12-27.09 10.88-28.2 12.76a77.68 77.68 0 0 0-9.53 25.29h108.73A77.25 77.25 0 0 0 1727.07 598.52ZM2021.65 927.78V911.22l-19.2-2.73a57.84 57.84 0 0 0-9-21.69l11.62-15.49-11.7-11.71-15.49 11.62a58.14 58.14 0 0 0-21.69-9l-2.74-19.19h-16.55l-2.74 19.19a58.14 58.14 0 0 0-21.69 9L1897 859.6l-11.71 11.71 11.63 15.49a57.86 57.86 0 0 0-9 21.69l-19.19 2.73v16.56l19.19 2.73a57.86 57.86 0 0 0 9 21.69l-11.63 15.49L1897 979.4l15.49-11.63a58 58 0 0 0 21.69 9l2.74 19.19h16.55l2.74-19.19a58 58 0 0 0 21.69-9l15.49 11.63 11.7-11.71-11.62-15.49a57.84 57.84 0 0 0 9-21.69Z" style="fill:#c2dcff"></path>
  <path d="M1967.48,923.06a22.55,22.55,0,1,1-25.83-25.83A22.65,22.65,0,0,1,1967.48,923.06Z" style="fill:#fff"></path>
  <path d="M507.29,268.32c-1.17,0-2.33.06-3.48.17a57.66,57.66,0,1,0-112.23-18.6c0,1.62.08,3.23.22,4.82a43.6,43.6,0,1,0-11.34,85.7h48.28v-44H400.61l44.64-44.64,44.64,44.64H461.75v44h45.14a2.67,2.67,0,0,1,.4,0,36,36,0,1,0,0-72.09Z" style="fill:#c2dcff"></path>
  <rect width="300.4" height="232.27" x="450.31" y="373.06" rx="27.57" style="fill:#fff" transform="rotate(180 600.515 489.2)"></rect>
  <path d="M723.14,607.33H477.89a29.61,29.61,0,0,1-29.58-29.57V400.64a29.61,29.61,0,0,1,29.58-29.58H723.14a29.61,29.61,0,0,1,29.58,29.58V577.76A29.61,29.61,0,0,1,723.14,607.33ZM477.89,375.06a25.62,25.62,0,0,0-25.58,25.58V577.76a25.61,25.61,0,0,0,25.58,25.57H723.14a25.6,25.6,0,0,0,25.58-25.57V400.64a25.61,25.61,0,0,0-25.58-25.58Z" style="fill:#c2dcff"></path>
  <path d="M723.14,373.06H477.89a27.58,27.58,0,0,0-27.58,27.58v10.9H750.72v-10.9A27.58,27.58,0,0,0,723.14,373.06Z" style="fill:#c2dcff"></path>
  <rect width="4" height="56.38" x="520.71" y="469.01" style="fill:#c2dcff" transform="rotate(-35.89 522.627 497.166)"></rect>
  <rect width="56.38" height="4" x="494.52" y="495.2" style="fill:#c2dcff" transform="rotate(-54.13 522.685 497.192)"></rect>
  <rect width="51.7" height="4" x="496.86" y="495.2" style="fill:#c2dcff"></rect>
  <rect width="4" height="56.38" x="598.52" y="469.01" style="fill:#c2dcff" transform="rotate(-35.89 600.428 497.167)"></rect>
  <rect width="56.38" height="4" x="572.32" y="495.2" style="fill:#c2dcff" transform="rotate(-54.13 600.488 497.197)"></rect>
  <rect width="51.7" height="4" x="574.67" y="495.2" style="fill:#c2dcff"></rect>
  <rect width="4" height="56.38" x="676.32" y="469.01" style="fill:#c2dcff" transform="rotate(-35.9 675.058 493.137)"></rect>
  <rect width="56.38" height="4" x="650.13" y="495.2" style="fill:#c2dcff" transform="rotate(-54.13 678.296 497.193)"></rect>
  <rect width="51.7" height="4" x="652.47" y="495.2" style="fill:#c2dcff"></rect>
</svg>
