<svg xmlns="http://www.w3.org/2000/svg" enable-background="new 0 0 1920 1080" viewBox="0 0 1920 1080" id="network-engineers-working-on-laptop">
  <path fill="#dcdcff" d="M1554.48 356.37v-20.73c5.24-.23 9.19-1.35 11.83-3.37 2.65-2.02 4.49-5.04 5.53-9.07 1.04-4.03 1.56-10.68 1.56-19.96 0-9.79.47-16.87 1.43-21.25.95-4.38 2.75-7.96 5.4-10.75 2.65-2.79 6.21-4.87 10.67-6.22 4.46-1.35 10.5-2.03 18.1-2.03h4.58v20.73c-7.72 0-12.58.78-14.6 2.33-2.02 1.55-3.02 4.95-3.02 10.19 0 16.07-.98 27.34-2.94 33.82-1.96 6.48-6.39 11.79-13.3 15.94 5.3 2.88 9.31 7.19 12.05 12.91 2.73 5.73 4.1 18.04 4.1 36.93 0 4.49.66 7.4 1.99 8.72 1.32 1.32 2.72 2.29 4.19 2.89 1.47.6 5.31.91 11.53.91v20.65h-4.58c-11.63 0-19.52-1.43-23.67-4.28-4.15-2.85-7.17-6.15-9.07-9.89-1.9-3.74-2.85-12.41-2.85-26 0-9.21-.49-15.81-1.47-19.78-.98-3.97-2.81-7.01-5.49-9.11C1563.77 357.86 1559.78 356.66 1554.48 356.37zM1685.07 262.99h20.07L1640.9 406.3h-20.07L1685.07 262.99zM1771.4 356.37c-5.24.29-9.19 1.44-11.83 3.46-2.65 2.02-4.49 5.04-5.53 9.07-1.04 4.03-1.55 10.68-1.55 19.96 0 13.42-.97 22.14-2.89 26.17-1.93 4.03-5.13 7.37-9.59 10.02-4.46 2.65-12.17 3.97-23.11 3.97h-4.58v-20.65c7.26 0 12.02-.82 14.3-2.46 2.27-1.64 3.41-5 3.41-10.06 0-16.53 1.07-28.03 3.2-34.51 2.13-6.48 6.45-11.59 12.96-15.33-7.08-4.2-11.56-9.65-13.43-16.33-1.87-6.68-2.81-17.82-2.81-33.43 0-5.41-1.07-8.85-3.2-10.32-2.13-1.47-6.94-2.2-14.43-2.2v-20.73h4.58c10.02 0 17.56 1.28 22.63 3.84 5.07 2.56 8.49 6.31 10.28 11.23 1.79 4.92 2.68 13.32 2.68 25.18 0 9.16.49 15.74 1.47 19.74.98 4 2.81 7.06 5.49 9.16 2.68 2.1 6.67 3.27 11.96 3.5V356.37zM96.25 358.65v-12.57c3.21-.14 5.63-.82 7.25-2.04 1.62-1.22 2.75-3.05 3.39-5.5.64-2.44.95-6.48.95-12.1 0-5.93.29-10.23.87-12.88.58-2.65 1.69-4.83 3.31-6.52 1.62-1.69 3.8-2.95 6.54-3.77 2.74-.82 6.43-1.23 11.1-1.23h2.81v12.57c-4.73 0-7.71.47-8.95 1.41-1.24.94-1.85 3-1.85 6.18 0 9.74-.6 16.57-1.8 20.5-1.2 3.93-3.92 7.15-8.16 9.66 3.25 1.75 5.71 4.36 7.39 7.83 1.68 3.47 2.52 10.94 2.52 22.39 0 2.72.41 4.49 1.22 5.29.81.8 1.67 1.39 2.57 1.75.9.37 3.26.55 7.07.55v12.52h-2.81c-7.13 0-11.97-.86-14.51-2.59-2.54-1.73-4.4-3.73-5.56-6-1.16-2.27-1.75-7.52-1.75-15.76 0-5.59-.3-9.58-.9-11.99-.6-2.41-1.72-4.25-3.36-5.52C101.94 359.55 99.5 358.83 96.25 358.65zM176.31 302.04h12.3l-39.38 86.88h-12.3L176.31 302.04zM229.23 358.65c-3.21.18-5.63.87-7.26 2.09-1.62 1.22-2.75 3.06-3.39 5.5-.64 2.44-.95 6.48-.95 12.1 0 8.13-.59 13.42-1.77 15.87-1.18 2.44-3.14 4.47-5.88 6.07-2.74 1.61-7.46 2.41-14.17 2.41h-2.81v-12.52c4.45 0 7.37-.5 8.76-1.49 1.39-.99 2.09-3.03 2.09-6.1 0-10.02.65-16.99 1.96-20.92 1.31-3.93 3.95-7.03 7.94-9.3-4.34-2.55-7.09-5.85-8.23-9.9-1.15-4.05-1.72-10.8-1.72-20.27 0-3.28-.65-5.37-1.96-6.26-1.31-.89-4.25-1.33-8.84-1.33v-12.57h2.81c6.14 0 10.77.78 13.87 2.33 3.11 1.55 5.21 3.82 6.3 6.81 1.09 2.99 1.64 8.07 1.64 15.26 0 5.55.3 9.54.9 11.97.6 2.43 1.72 4.28 3.36 5.55 1.64 1.27 4.09 1.98 7.33 2.12V358.65zM1404.21 191.41c-1.01 0-2 .09-2.96.27.06-.62.1-1.26.1-1.9 0-10.41-8.44-18.84-18.84-18.84-4.95 0-9.46 1.91-12.82 5.04-2.77-15.3-16.15-26.92-32.25-26.92-18.11 0-32.79 14.68-32.79 32.79 0 .01 0 .02 0 .03-.37-.02-.74-.03-1.11-.03-11.92 0-21.58 9.66-21.58 21.58 0 11.92 9.66 21.58 21.58 21.58h100.68c9.28 0 16.8-7.52 16.8-16.8C1421.02 198.94 1413.49 191.41 1404.21 191.41zM435.1 214.57c-1.84 0-3.64.17-5.39.48.11-1.13.17-2.28.17-3.44 0-18.91-15.33-34.24-34.24-34.24-9 0-17.18 3.48-23.29 9.16-5.03-27.81-29.35-48.91-58.61-48.91-32.9 0-59.58 26.67-59.58 59.58 0 .02 0 .03 0 .05-.67-.03-1.35-.05-2.02-.05-21.66 0-39.22 17.56-39.22 39.22 0 21.66 17.56 39.22 39.22 39.22H435.1c16.86 0 30.53-13.67 30.53-30.53C465.63 228.24 451.96 214.57 435.1 214.57zM1630.76 211.34c2.01-2.73 3.59-5.65 4.76-8.66l16.59 3.55 3.04-14.22-17.17-3.67c-.13-4.85-1.21-9.65-3.19-14.11l13.26-7.51-7.17-12.65-14.55 8.25c-1.07-1.01-2.22-1.97-3.43-2.86-3.18-2.34-6.61-4.1-10.17-5.3l3.74-17.49-14.22-3.04-4 18.69c-3.42.24-6.8.96-10.03 2.13l-8.05-14.21-12.65 7.17 8.26 14.58c-1.73 1.59-3.33 3.37-4.78 5.33-2 2.71-3.57 5.6-4.73 8.6l-14.93-3.19-3.04 14.22 15.48 3.31c.09 3.36.62 6.69 1.6 9.9l-14.91 8.45 7.17 12.65 14.62-8.29c1.9 2.29 4.1 4.4 6.61 6.24 2.26 1.66 4.64 3.03 7.11 4.12l-3.02 14.1 14.22 3.04 3-14.03c4.78.09 9.55-.75 14.03-2.47l7.84 13.84 12.65-7.17-8.19-14.46C1628.03 214.72 1629.46 213.11 1630.76 211.34zM1581.48 175.03c7.9-10.72 22.99-13 33.7-5.11 10.72 7.9 13 22.99 5.11 33.7-7.9 10.72-22.99 13-33.7 5.11C1575.86 200.83 1573.58 185.74 1581.48 175.03z"></path>
  <path fill="#dcdcff" d="M1591.57 201.96c6.97 5.14 16.79 3.65 21.93-3.32 5.14-6.97 3.65-16.79-3.32-21.93-6.97-5.14-16.79-3.65-21.93 3.32C1583.11 187 1584.6 196.82 1591.57 201.96zM817.42 310.67c6.74-9.15 12.03-18.91 15.94-29.03l55.57 11.89 10.2-47.63-57.51-12.31c-.44-16.24-4.06-32.32-10.69-47.26l44.42-25.18-24.02-42.37-48.74 27.62c-3.6-3.38-7.43-6.59-11.51-9.6-10.66-7.85-22.16-13.75-34.07-17.76l12.54-58.58-47.63-10.2-13.4 62.61c-11.46.82-22.77 3.21-33.61 7.13l-26.98-47.6-42.37 24.02 27.69 48.85c-5.79 5.33-11.17 11.28-16.02 17.86-6.69 9.08-11.96 18.78-15.86 28.81l-50.01-10.7-10.19 47.63 51.85 11.1c.29 11.24 2.09 22.41 5.36 33.17l-49.94 28.31 24.02 42.37 48.97-27.76c6.36 7.69 13.74 14.73 22.13 20.92 7.57 5.58 15.56 10.16 23.82 13.79l-10.11 47.23 47.63 10.19 10.06-47c16.02.29 32-2.51 47-8.26l26.28 46.36 42.37-24.02-27.45-48.43C808.29 321.98 813.07 316.58 817.42 310.67zM652.32 189.01c26.46-35.9 77.01-43.56 112.91-17.1 35.9 26.46 43.56 77.01 17.1 112.91-26.46 35.9-77.01 43.56-112.91 17.1C633.52 275.47 625.86 224.91 652.32 189.01z"></path>
  <path fill="#dcdcff" d="M686.15 279.22c23.37 17.22 56.26 12.23 73.48-11.13 17.22-23.37 12.23-56.26-11.13-73.48-23.37-17.22-56.26-12.23-73.48 11.13C657.8 229.1 662.79 262 686.15 279.22zM1066.34 278.15c3.12-4.23 5.57-8.76 7.38-13.44l25.73 5.51 4.72-22.05-26.62-5.7c-.21-7.52-1.88-14.96-4.95-21.88l20.56-11.65-11.12-19.62-22.56 12.79c-1.67-1.57-3.44-3.05-5.33-4.44-4.93-3.64-10.26-6.36-15.77-8.22l5.8-27.12-22.05-4.72-6.2 28.99c-5.3.38-10.54 1.49-15.56 3.3l-12.49-22.04-19.62 11.12 12.82 22.61c-2.68 2.47-5.17 5.22-7.41 8.27-3.1 4.2-5.54 8.69-7.34 13.34l-23.15-4.96-4.72 22.05 24.01 5.14c.13 5.2.97 10.37 2.48 15.36l-23.12 13.1 11.12 19.62 22.67-12.85c2.94 3.56 6.36 6.82 10.25 9.68 3.5 2.58 7.2 4.7 11.03 6.39l-4.68 21.87 22.05 4.72 4.66-21.76c7.42.13 14.82-1.16 21.76-3.82l12.16 21.46 19.62-11.12-12.71-22.42C1062.11 283.39 1064.32 280.89 1066.34 278.15zM989.91 221.83c12.25-16.62 35.65-20.17 52.27-7.92 16.62 12.25 20.17 35.65 7.92 52.27-12.25 16.62-35.65 20.17-52.27 7.92C981.21 261.85 977.66 238.45 989.91 221.83z"></path>
  <path fill="#dcdcff" d="M1005.57,263.59c10.82,7.97,26.05,5.66,34.02-5.15c7.97-10.82,5.66-26.05-5.15-34.02
			c-10.82-7.97-26.05-5.66-34.02,5.15C992.45,240.39,994.76,255.62,1005.57,263.59z"></path>
  <ellipse cx="885.46" cy="919.7" fill="#d2d3d0" rx="417.68" ry="29.89"></ellipse>
  <ellipse cx="324.31" cy="945.78" fill="#d2d3d0" rx="248.88" ry="26.87"></ellipse>
  <ellipse cx="844.53" cy="996.39" fill="#d2d3d0" rx="303.35" ry="32.75"></ellipse>
  <ellipse cx="1288.49" cy="973.94" fill="#d2d3d0" rx="303.35" ry="32.75"></ellipse>
  <ellipse cx="1626.44" cy="1002.08" fill="#d2d3d0" rx="174.46" ry="18.83"></ellipse>
  <rect width="236.05" height="537.92" x="164.62" y="386.59" fill="#6d6d6c"></rect>
  <rect width="180.05" height="444.41" x="193.53" y="411.67" fill="#0b1407"></rect>
  <rect width="162.59" height="19.87" x="202.56" y="430.94" fill="#696d72"></rect>
  <rect width="180.05" height="4.22" x="193.53" y="450.82" fill="#32353a"></rect>
  <rect width="56.6" height="12.65" x="205.57" y="438.17" fill="#086614"></rect>
  <rect width="21.23" height="12.65" x="240.95" y="438.17" fill="#19232a"></rect>
  <rect width="162.59" height="19.87" x="202.56" y="455.03" fill="#696d72"></rect>
  <rect width="180.05" height="4.22" x="193.53" y="474.9" fill="#32353a"></rect>
  <rect width="56.6" height="12.65" x="205.57" y="462.26" fill="#086614"></rect>
  <rect width="21.23" height="12.65" x="240.95" y="462.26" fill="#19232a"></rect>
  <rect width="162.59" height="19.87" x="202.56" y="499.59" fill="#696d72"></rect>
  <rect width="180.05" height="4.22" x="193.53" y="519.46" fill="#32353a"></rect>
  <rect width="56.6" height="12.65" x="205.57" y="506.82" fill="#086614"></rect>
  <rect width="21.23" height="12.65" x="240.95" y="506.82" fill="#19232a"></rect>
  <rect width="162.59" height="19.87" x="202.56" y="523.68" fill="#696d72"></rect>
  <rect width="180.05" height="4.22" x="193.53" y="543.55" fill="#32353a"></rect>
  <rect width="56.6" height="12.65" x="205.57" y="530.9" fill="#086614"></rect>
  <rect width="21.23" height="12.65" x="240.95" y="530.9" fill="#19232a"></rect>
  <rect width="162.59" height="19.87" x="202.56" y="574.86" fill="#696d72"></rect>
  <rect width="180.05" height="4.22" x="193.53" y="594.74" fill="#32353a"></rect>
  <rect width="56.6" height="12.65" x="205.57" y="582.09" fill="#086614"></rect>
  <rect width="21.23" height="12.65" x="240.95" y="582.09" fill="#19232a"></rect>
  <rect width="162.59" height="19.87" x="202.56" y="598.95" fill="#696d72"></rect>
  <rect width="180.05" height="4.22" x="193.53" y="618.82" fill="#32353a"></rect>
  <rect width="56.6" height="12.65" x="205.57" y="606.18" fill="#086614"></rect>
  <rect width="21.23" height="12.65" x="240.95" y="606.18" fill="#19232a"></rect>
  <rect width="162.59" height="19.87" x="202.56" y="641.1" fill="#696d72"></rect>
  <rect width="180.05" height="4.22" x="193.53" y="660.98" fill="#32353a"></rect>
  <rect width="56.6" height="12.65" x="205.57" y="648.33" fill="#086614"></rect>
  <rect width="21.23" height="12.65" x="240.95" y="648.33" fill="#19232a"></rect>
  <rect width="162.59" height="19.87" x="202.56" y="665.19" fill="#696d72"></rect>
  <rect width="180.05" height="4.22" x="193.53" y="685.06" fill="#32353a"></rect>
  <rect width="56.6" height="12.65" x="205.57" y="672.42" fill="#086614"></rect>
  <rect width="21.23" height="12.65" x="240.95" y="672.42" fill="#19232a"></rect>
  <rect width="162.59" height="19.87" x="202.56" y="710.69" fill="#696d72"></rect>
  <rect width="180.05" height="4.22" x="193.53" y="730.56" fill="#32353a"></rect>
  <rect width="56.6" height="12.65" x="205.57" y="717.91" fill="#086614"></rect>
  <rect width="21.23" height="12.65" x="240.95" y="717.91" fill="#19232a"></rect>
  <rect width="162.59" height="19.87" x="202.56" y="734.78" fill="#696d72"></rect>
  <rect width="180.05" height="4.22" x="193.53" y="754.65" fill="#32353a"></rect>
  <rect width="56.6" height="12.65" x="205.57" y="742" fill="#086614"></rect>
  <rect width="21.23" height="12.65" x="240.95" y="742" fill="#19232a"></rect>
  <rect width="162.59" height="19.87" x="202.56" y="778.37" fill="#696d72"></rect>
  <rect width="180.05" height="4.22" x="193.53" y="798.24" fill="#32353a"></rect>
  <rect width="56.6" height="12.65" x="205.57" y="785.59" fill="#086614"></rect>
  <rect width="21.23" height="12.65" x="240.95" y="785.59" fill="#19232a"></rect>
  <rect width="162.59" height="19.87" x="202.56" y="802.45" fill="#696d72"></rect>
  <rect width="180.05" height="4.22" x="193.53" y="822.33" fill="#32353a"></rect>
  <rect width="56.6" height="12.65" x="205.57" y="809.68" fill="#086614"></rect>
  <rect width="21.23" height="12.65" x="240.95" y="809.68" fill="#19232a"></rect>
  <rect width="180.05" height="37.34" x="193.53" y="856.08" fill="#4f4f4f"></rect>
  <rect width="5.02" height="31.92" x="200.05" y="861.5" fill="#383a39"></rect>
  <rect width="5.02" height="31.92" x="210.09" y="861.5" fill="#383a39"></rect>
  <rect width="5.02" height="31.92" x="220.93" y="861.5" fill="#383a39"></rect>
  <rect width="5.02" height="31.92" x="230.56" y="861.5" fill="#383a39"></rect>
  <rect width="5.02" height="31.92" x="240.25" y="861.5" fill="#383a39"></rect>
  <rect width="5.02" height="31.92" x="250.28" y="861.5" fill="#383a39"></rect>
  <rect width="5.02" height="31.92" x="261.12" y="861.5" fill="#383a39"></rect>
  <rect width="5.02" height="31.92" x="270.76" y="861.5" fill="#383a39"></rect>
  <rect width="5.02" height="31.92" x="281.34" y="861.5" fill="#383a39"></rect>
  <rect width="5.02" height="31.92" x="291.38" y="861.5" fill="#383a39"></rect>
  <rect width="5.02" height="31.92" x="302.22" y="861.5" fill="#383a39"></rect>
  <rect width="5.02" height="31.92" x="311.86" y="861.5" fill="#383a39"></rect>
  <rect width="5.02" height="31.92" x="321.49" y="861.5" fill="#383a39"></rect>
  <rect width="5.02" height="31.92" x="331.53" y="861.5" fill="#383a39"></rect>
  <rect width="5.02" height="31.92" x="342.37" y="861.5" fill="#383a39"></rect>
  <rect width="5.02" height="31.92" x="352" y="861.5" fill="#383a39"></rect>
  <rect width="5.02" height="31.92" x="362.04" y="861.5" fill="#383a39"></rect>
  <g>
    <rect width="208.85" height="89.21" x="657.17" y="788.37" fill="#121523"></rect>
    <path fill="#232744" d="M920.98 911.69H602.2v-3.16c0-17.1 13.86-30.96 30.96-30.96h256.86c17.1 0 30.96 13.86 30.96 30.96V911.69zM1193.3 800.81H329.88c-8.05 0-14.57-6.52-14.57-14.57V262.02c0-8.05 6.52-14.57 14.57-14.57h863.42c8.05 0 14.57 6.52 14.57 14.57v524.23C1207.87 794.29 1201.35 800.81 1193.3 800.81z"></path>
    <rect width="842.14" height="498.44" x="339.27" y="270.9" fill="#e1e1e1"></rect>
    <rect width="593.25" height="486.03" x="358.99" y="284.94" fill="#121523"></rect>
    <rect width="35.13" height="11.36" x="475.16" y="463.31" fill="#fff"></rect>
    <rect width="38.21" height="11.36" x="432.32" y="463.31" fill="#a5a5a0"></rect>
    <rect width="17.35" height="11.36" x="410.32" y="463.31" fill="#278ab2" transform="rotate(-180 419 468.994)"></rect>
    <rect width="99.96" height="11.36" x="410.32" y="486.21" fill="#fff"></rect>
    <rect width="91.08" height="11.36" x="419.21" y="509.1" fill="#a5a5a0"></rect>
    <rect width="20.4" height="11.36" x="489.89" y="532" fill="#278ab2" transform="rotate(-180 500.088 537.68)"></rect>
    <rect width="48.48" height="11.36" x="437.33" y="532" fill="#fff"></rect>
    <rect width="44.09" height="11.36" x="466.2" y="554.89" fill="#278ab2" transform="rotate(-180 488.245 560.575)"></rect>
    <rect width="31.61" height="11.36" x="478.68" y="577.79" fill="#fff"></rect>
    <rect width="14.54" height="11.36" x="460.31" y="577.79" fill="#a5a5a0"></rect>
    <rect width="57.75" height="11.36" x="452.54" y="602.18" fill="#278ab2" transform="rotate(-180 481.415 607.863)"></rect>
    <rect width="35.89" height="11.36" x="474.4" y="625.08" fill="#278ab2" transform="rotate(-180 492.342 630.759)"></rect>
    <rect width="19.3" height="11.36" x="490.99" y="647.97" fill="#a5a5a0"></rect>
    <rect width="28.01" height="11.36" x="458.35" y="647.97" fill="#fff"></rect>
    <rect width="6.71" height="11.36" x="447.01" y="647.97" fill="#ffd2f1"></rect>
    <rect width="39.19" height="11.36" x="471.1" y="670.45" fill="#278ab2" transform="rotate(-180 490.694 676.129)"></rect>
    <rect width="51.84" height="11.36" x="414.5" y="670.45" fill="#a5a5a0"></rect>
    <rect width="71.6" height="11.36" x="438.68" y="694.84" fill="#fff"></rect>
    <rect width="44.51" height="11.36" x="465.78" y="717.74" fill="#a5a5a0"></rect>
    <rect width="23.93" height="11.36" x="486.36" y="740.63" fill="#278ab2" transform="rotate(-180 498.326 746.313)"></rect>
    <rect width="34.73" height="11.36" x="445.89" y="740.63" fill="#fff"></rect>
    <rect width="8.32" height="11.36" x="431.82" y="740.63" fill="#a5a5a0"></rect>
    <g>
      <rect width="57.75" height="11.36" x="452.54" y="302.12" fill="#278ab2" transform="rotate(-180 481.415 307.798)"></rect>
      <rect width="35.89" height="11.36" x="474.4" y="325.01" fill="#278ab2" transform="rotate(-180 492.342 330.693)"></rect>
      <rect width="19.3" height="11.36" x="490.99" y="347.91" fill="#a5a5a0"></rect>
      <rect width="28.01" height="11.36" x="458.35" y="347.91" fill="#fff"></rect>
      <rect width="6.71" height="11.36" x="447.01" y="347.91" fill="#ffd2f1"></rect>
      <rect width="39.19" height="11.36" x="471.1" y="370.38" fill="#278ab2" transform="rotate(-180 490.694 376.063)"></rect>
      <rect width="51.84" height="11.36" x="414.5" y="370.38" fill="#a5a5a0"></rect>
      <rect width="71.6" height="11.36" x="438.68" y="394.78" fill="#fff"></rect>
      <rect width="44.51" height="11.36" x="465.78" y="417.67" fill="#a5a5a0"></rect>
      <rect width="23.93" height="11.36" x="486.36" y="440.57" fill="#278ab2" transform="rotate(-180 498.326 446.247)"></rect>
      <rect width="34.73" height="11.36" x="445.89" y="440.57" fill="#fff"></rect>
      <rect width="8.32" height="11.36" x="431.82" y="440.57" fill="#a5a5a0"></rect>
    </g>
    <g>
      <rect width="605.22" height="486.03" x="557.65" y="284.94" fill="#1a1f35"></rect>
      <rect width="154.47" height="11.36" x="633.56" y="463.31" fill="#fff"></rect>
      <rect width="168.01" height="11.36" x="808.43" y="463.31" fill="#a5a5a0"></rect>
      <rect width="76.3" height="11.36" x="996.85" y="463.31" fill="#278ab2"></rect>
      <rect width="439.58" height="11.36" x="633.56" y="486.21" fill="#fff"></rect>
      <rect width="400.52" height="11.36" x="633.56" y="509.1" fill="#a5a5a0"></rect>
      <rect width="89.71" height="11.36" x="633.56" y="532" fill="#278ab2"></rect>
      <rect width="213.19" height="11.36" x="741.22" y="532" fill="#fff"></rect>
      <rect width="387.75" height="11.36" x="633.56" y="554.89" fill="#278ab2"></rect>
      <rect width="138.98" height="11.36" x="633.56" y="577.79" fill="#fff"></rect>
      <rect width="183.84" height="11.36" x="789.42" y="577.79" fill="#a5a5a0"></rect>
      <rect width="253.94" height="11.36" x="633.56" y="602.18" fill="#278ab2"></rect>
      <rect width="157.84" height="11.36" x="633.56" y="625.08" fill="#278ab2"></rect>
      <rect width="84.85" height="11.36" x="633.56" y="647.97" fill="#a5a5a0"></rect>
      <rect width="123.17" height="11.36" x="738.79" y="647.97" fill="#fff"></rect>
      <rect width="29.5" height="11.36" x="882.33" y="647.97" fill="#ffd2f1"></rect>
      <rect width="172.33" height="11.36" x="633.56" y="670.45" fill="#278ab2"></rect>
      <rect width="227.95" height="11.36" x="826.82" y="670.45" fill="#a5a5a0"></rect>
      <rect width="314.87" height="11.36" x="633.56" y="694.84" fill="#fff"></rect>
      <rect width="195.71" height="11.36" x="633.56" y="717.74" fill="#a5a5a0"></rect>
      <rect width="105.21" height="11.36" x="633.56" y="740.63" fill="#278ab2"></rect>
      <rect width="152.72" height="11.36" x="764.04" y="740.63" fill="#fff"></rect>
      <rect width="36.58" height="11.36" x="942.02" y="740.63" fill="#a5a5a0"></rect>
      <g>
        <rect width="253.94" height="11.36" x="633.56" y="302.12" fill="#278ab2"></rect>
        <rect width="157.84" height="11.36" x="633.56" y="325.01" fill="#278ab2"></rect>
        <rect width="84.85" height="11.36" x="633.56" y="347.91" fill="#a5a5a0"></rect>
        <rect width="123.17" height="11.36" x="738.79" y="347.91" fill="#fff"></rect>
        <rect width="29.5" height="11.36" x="882.33" y="347.91" fill="#ffd2f1"></rect>
        <rect width="172.33" height="11.36" x="633.56" y="370.38" fill="#278ab2"></rect>
        <rect width="227.95" height="11.36" x="826.82" y="370.38" fill="#a5a5a0"></rect>
        <rect width="314.87" height="11.36" x="633.56" y="394.78" fill="#fff"></rect>
        <rect width="195.71" height="11.36" x="633.56" y="417.67" fill="#a5a5a0"></rect>
        <rect width="105.21" height="11.36" x="633.56" y="440.57" fill="#278ab2"></rect>
        <rect width="152.72" height="11.36" x="764.04" y="440.57" fill="#fff"></rect>
        <rect width="36.58" height="11.36" x="942.02" y="440.57" fill="#a5a5a0"></rect>
      </g>
      <g>
        <rect width="14.76" height="11.36" x="587.44" y="463.31" fill="#515151"></rect>
        <rect width="14.65" height="11.36" x="587.44" y="486.21" fill="#515151"></rect>
        <rect width="14.76" height="11.36" x="587.44" y="509.1" fill="#515151"></rect>
        <rect width="14.65" height="11.36" x="587.44" y="532" fill="#515151"></rect>
        <rect width="14.76" height="11.36" x="587.44" y="554.89" fill="#515151"></rect>
        <rect width="14.65" height="11.36" x="587.44" y="577.79" fill="#515151"></rect>
        <rect width="14.76" height="11.36" x="587.44" y="602.18" fill="#515151"></rect>
        <rect width="14.76" height="11.36" x="587.44" y="625.08" fill="#515151"></rect>
        <rect width="14.65" height="11.36" x="587.44" y="647.97" fill="#515151"></rect>
        <rect width="14.76" height="11.36" x="587.44" y="670.45" fill="#515151"></rect>
        <rect width="14.76" height="11.36" x="587.44" y="694.84" fill="#515151"></rect>
        <rect width="14.65" height="11.36" x="587.44" y="717.74" fill="#515151"></rect>
        <rect width="14.76" height="11.36" x="587.44" y="740.63" fill="#515151"></rect>
      </g>
      <g>
        <rect width="14.76" height="11.36" x="587.44" y="302.12" fill="#515151"></rect>
        <rect width="14.76" height="11.36" x="587.44" y="325.01" fill="#515151"></rect>
        <rect width="14.76" height="11.36" x="587.44" y="347.91" fill="#515151"></rect>
        <rect width="14.76" height="11.36" x="587.44" y="370.38" fill="#515151"></rect>
        <rect width="14.76" height="11.36" x="587.44" y="394.78" fill="#515151"></rect>
        <rect width="14.76" height="11.36" x="587.44" y="417.67" fill="#515151"></rect>
        <rect width="14.76" height="11.36" x="587.44" y="440.57" fill="#515151"></rect>
      </g>
    </g>
  </g>
  <g>
    <rect width="500.15" height="577.32" x="1138.18" y="389.49" fill="#1a1f35"></rect>
    <rect width="282.38" height="577.32" x="1033.42" y="389.49" fill="#2b2f56"></rect>
    <ellipse cx="1158.43" cy="509.09" fill="#8e9abd" rx="84.44" ry="94.08"></ellipse>
    <ellipse cx="1158.43" cy="509.09" fill="#1c2844" rx="67.39" ry="75.08"></ellipse>
    <polygon fill="#8e9abd" points="1218.66 562.81 1203.33 575.8 1093.04 462.9 1108.36 449.91"></polygon>
    <polygon fill="#8e9abd" points="1121.58 575.13 1104.73 563.9 1200.15 439.79 1216.99 451.03"></polygon>
    <ellipse cx="1263.18" cy="620.96" fill="#8e9abd" rx="11.98" ry="13.57"></ellipse>
    <ellipse cx="1263.18" cy="660.15" fill="#8e9abd" rx="11.98" ry="13.57"></ellipse>
    <rect width="232.93" height="14.47" x="1053.36" y="698.45" fill="#8e9abd"></rect>
    <rect width="232.93" height="14.47" x="1053.36" y="726.19" fill="#8e9abd"></rect>
    <rect width="232.93" height="14.47" x="1053.36" y="787.7" fill="#1a1f35"></rect>
    <rect width="232.93" height="14.47" x="1053.36" y="815.44" fill="#1a1f35"></rect>
    <rect width="37.49" height="82.01" x="1058.15" y="867.3" fill="#8e9abd"></rect>
    <rect width="37.49" height="82.01" x="1137.12" y="867.3" fill="#8e9abd"></rect>
    <rect width="37.49" height="82.01" x="1224.07" y="867.3" fill="#8e9abd"></rect>
    <rect width="33.75" height="291.27" x="1368.45" y="646.59" fill="#2b2f56"></rect>
    <rect width="33.75" height="291.27" x="1432.36" y="646.59" fill="#2b2f56"></rect>
    <rect width="33.75" height="291.27" x="1501.12" y="646.59" fill="#2b2f56"></rect>
    <rect width="33.75" height="291.27" x="1563.12" y="646.59" fill="#2b2f56"></rect>
    <rect width="282.38" height="577.32" x="1033.42" y="389.49" fill="none" stroke="#121523" stroke-miterlimit="10" stroke-width="10"></rect>
    <rect width="604.91" height="577.32" x="1033.42" y="389.49" fill="none" stroke="#121523" stroke-miterlimit="10" stroke-width="10"></rect>
  </g>
  <g>
    <rect width="236.05" height="537.92" x="1520.3" y="459.05" fill="#6d6d6c"></rect>
    <rect width="180.05" height="444.41" x="1549.21" y="484.13" fill="#0b1407"></rect>
    <rect width="162.59" height="19.87" x="1558.24" y="503.4" fill="#696d72"></rect>
    <rect width="180.05" height="4.22" x="1549.21" y="523.27" fill="#32353a"></rect>
    <rect width="56.6" height="12.65" x="1561.25" y="510.63" fill="#086614"></rect>
    <rect width="21.23" height="12.65" x="1596.63" y="510.63" fill="#19232a"></rect>
    <rect width="162.59" height="19.87" x="1558.24" y="527.49" fill="#696d72"></rect>
    <rect width="180.05" height="4.22" x="1549.21" y="547.36" fill="#32353a"></rect>
    <rect width="56.6" height="12.65" x="1561.25" y="534.71" fill="#086614"></rect>
    <rect width="21.23" height="12.65" x="1596.63" y="534.71" fill="#19232a"></rect>
    <rect width="162.59" height="19.87" x="1558.24" y="572.05" fill="#696d72"></rect>
    <rect width="180.05" height="4.22" x="1549.21" y="591.92" fill="#32353a"></rect>
    <rect width="56.6" height="12.65" x="1561.25" y="579.28" fill="#086614"></rect>
    <rect width="21.23" height="12.65" x="1596.63" y="579.28" fill="#19232a"></rect>
    <rect width="162.59" height="19.87" x="1558.24" y="596.14" fill="#696d72"></rect>
    <rect width="180.05" height="4.22" x="1549.21" y="616.01" fill="#32353a"></rect>
    <rect width="56.6" height="12.65" x="1561.25" y="603.36" fill="#086614"></rect>
    <rect width="21.23" height="12.65" x="1596.63" y="603.36" fill="#19232a"></rect>
    <rect width="162.59" height="19.87" x="1558.24" y="647.32" fill="#696d72"></rect>
    <rect width="180.05" height="4.22" x="1549.21" y="667.19" fill="#32353a"></rect>
    <rect width="56.6" height="12.65" x="1561.25" y="654.55" fill="#086614"></rect>
    <rect width="21.23" height="12.65" x="1596.63" y="654.55" fill="#19232a"></rect>
    <rect width="162.59" height="19.87" x="1558.24" y="671.41" fill="#696d72"></rect>
    <rect width="180.05" height="4.22" x="1549.21" y="691.28" fill="#32353a"></rect>
    <rect width="56.6" height="12.65" x="1561.25" y="678.64" fill="#086614"></rect>
    <rect width="21.23" height="12.65" x="1596.63" y="678.64" fill="#19232a"></rect>
    <rect width="162.59" height="19.87" x="1558.24" y="713.56" fill="#696d72"></rect>
    <rect width="180.05" height="4.22" x="1549.21" y="733.43" fill="#32353a"></rect>
    <rect width="56.6" height="12.65" x="1561.25" y="720.79" fill="#086614"></rect>
    <rect width="21.23" height="12.65" x="1596.63" y="720.79" fill="#19232a"></rect>
    <rect width="162.59" height="19.87" x="1558.24" y="737.65" fill="#696d72"></rect>
    <rect width="180.05" height="4.22" x="1549.21" y="757.52" fill="#32353a"></rect>
    <rect width="56.6" height="12.65" x="1561.25" y="744.88" fill="#086614"></rect>
    <rect width="21.23" height="12.65" x="1596.63" y="744.88" fill="#19232a"></rect>
    <g>
      <rect width="162.59" height="19.87" x="1558.24" y="783.15" fill="#696d72"></rect>
      <rect width="180.05" height="4.22" x="1549.21" y="803.02" fill="#32353a"></rect>
      <rect width="56.6" height="12.65" x="1561.25" y="790.37" fill="#086614"></rect>
      <rect width="21.23" height="12.65" x="1596.63" y="790.37" fill="#19232a"></rect>
    </g>
    <g>
      <rect width="162.59" height="19.87" x="1558.24" y="807.23" fill="#696d72"></rect>
      <rect width="180.05" height="4.22" x="1549.21" y="827.11" fill="#32353a"></rect>
      <rect width="56.6" height="12.65" x="1561.25" y="814.46" fill="#086614"></rect>
      <rect width="21.23" height="12.65" x="1596.63" y="814.46" fill="#19232a"></rect>
    </g>
    <g>
      <rect width="162.59" height="19.87" x="1558.24" y="850.83" fill="#696d72"></rect>
      <rect width="180.05" height="4.22" x="1549.21" y="870.7" fill="#32353a"></rect>
      <rect width="56.6" height="12.65" x="1561.25" y="858.05" fill="#086614"></rect>
      <rect width="21.23" height="12.65" x="1596.63" y="858.05" fill="#19232a"></rect>
    </g>
    <g>
      <rect width="162.59" height="19.87" x="1558.24" y="874.91" fill="#696d72"></rect>
      <rect width="180.05" height="4.22" x="1549.21" y="894.78" fill="#32353a"></rect>
      <rect width="56.6" height="12.65" x="1561.25" y="882.14" fill="#086614"></rect>
      <rect width="21.23" height="12.65" x="1596.63" y="882.14" fill="#19232a"></rect>
    </g>
    <rect width="180.05" height="37.34" x="1549.21" y="928.54" fill="#4f4f4f"></rect>
    <rect width="5.02" height="31.92" x="1555.73" y="933.96" fill="#383a39"></rect>
    <rect width="5.02" height="31.92" x="1565.77" y="933.96" fill="#383a39"></rect>
    <rect width="5.02" height="31.92" x="1576.61" y="933.96" fill="#383a39"></rect>
    <rect width="5.02" height="31.92" x="1586.24" y="933.96" fill="#383a39"></rect>
    <rect width="5.02" height="31.92" x="1595.93" y="933.96" fill="#383a39"></rect>
    <rect width="5.02" height="31.92" x="1605.96" y="933.96" fill="#383a39"></rect>
    <rect width="5.02" height="31.92" x="1616.8" y="933.96" fill="#383a39"></rect>
    <rect width="5.02" height="31.92" x="1626.44" y="933.96" fill="#383a39"></rect>
    <rect width="5.02" height="31.92" x="1637.03" y="933.96" fill="#383a39"></rect>
    <rect width="5.02" height="31.92" x="1647.06" y="933.96" fill="#383a39"></rect>
    <rect width="5.02" height="31.92" x="1657.9" y="933.96" fill="#383a39"></rect>
    <rect width="5.02" height="31.92" x="1667.54" y="933.96" fill="#383a39"></rect>
    <rect width="5.02" height="31.92" x="1677.17" y="933.96" fill="#383a39"></rect>
    <rect width="5.02" height="31.92" x="1687.21" y="933.96" fill="#383a39"></rect>
    <rect width="5.02" height="31.92" x="1698.05" y="933.96" fill="#383a39"></rect>
    <rect width="5.02" height="31.92" x="1707.68" y="933.96" fill="#383a39"></rect>
    <rect width="5.02" height="31.92" x="1717.72" y="933.96" fill="#383a39"></rect>
  </g>
  <g>
    <path fill="#434370" d="M1459.08,362.47c-2.24,1.32-110.11,27.78-119.19,30.55c0,0-24.18,3.03-29.22-21.22
			c0,0-3.18-26.64,25.93-37.34l102.41-18.14L1459.08,362.47z"></path>
  </g>
  <g>
    <path fill="#60a5ba" d="M1282.12,528.87c0,0,0.02-10.46,15.01-16.42c0,0,14.29-1.75,18.28-11.55c0,0,1.68-4.94,1.91-6.8
			c0,0-0.72-3.41,4.69-2.86c0,0,29.1-1.74,36.36-5.99c0,0,2.99-1.74,3.43,3.09c0,0,2.51,22.9,3.38,27.52c0,0,1.47,4.24-0.66,4.34
			c0,0-65.12,9.52-80.46,11.4C1284.06,531.61,1282.16,532.3,1282.12,528.87z"></path>
    <path fill="#265a66" d="M1285.08,539.11l79.76-11.15c2.11-0.3,3.59-2.25,3.29-4.36l0,0c-0.3-2.11-2.25-3.59-4.36-3.29l-79.76,11.15
			c-2.11,0.3-3.59,2.25-3.29,4.36v0C1281.01,537.93,1282.96,539.41,1285.08,539.11z"></path>
    <path fill="none" stroke="#265a66" stroke-miterlimit="10" stroke-width="2" d="M1303.61 510.8c0 0 10.1-.69 12.29 16.21M1362.76 496.87c0 0-5.05-1.66-10.37 3.15 0 0-10.05 13.05-9.94 23.73"></path>
    <path fill="#265a66" d="M1322.46 499.72 1322.46 499.72c.26-.92-.27-1.89-1.2-2.16l-4.5-1.29c-.92-.26-1.89.27-2.16 1.2l0 0c-.26.92.27 1.89 1.2 2.16l4.5 1.29C1321.22 501.18 1322.19 500.65 1322.46 499.72zM1318.52 506.84 1318.52 506.84c.5-.82.25-1.9-.57-2.4l-3.99-2.46c-.82-.5-1.9-.25-2.4.57l0 0c-.5.82-.25 1.9.57 2.4l3.99 2.46C1316.94 507.91 1318.02 507.65 1318.52 506.84zM1314.57 511.72 1314.57 511.72c.67-.69.65-1.8-.03-2.47l-3.36-3.27c-.69-.67-1.8-.65-2.47.03l0 0c-.67.69-.65 1.8.03 2.47l3.36 3.27C1312.79 512.42 1313.9 512.4 1314.57 511.72z"></path>
  </g>
  <g>
    <path fill="#434370" d="M1368.88,365.82l1.47,121.26c0,0-29,8.67-55.26,7.25l-4.53-128.18c0,0,3.81-20.29,27.26-21.35
			C1337.83,344.81,1360.85,343.24,1368.88,365.82z"></path>
  </g>
  <g>
    <path fill="#60a5ba" d="M1392,542.01c0,0-2.88-9.9,9.64-19.69c0,0,13.03-5.62,14.08-15.99c0,0,0.22-5.14-0.07-6.96
			c0,0-1.63-3.03,3.64-4c0,0,27.04-9.71,32.73-15.74c0,0,2.35-2.48,4.1,1.97c0,0,8.72,20.96,10.82,25.09c0,0,2.56,3.6,0.58,4.29
			c0,0-58.95,27.06-72.94,33.09C1394.6,544.07,1392.99,545.25,1392,542.01z"></path>
    <path fill="#265a66" d="M1397.64,550.88l72.34-32.65c1.92-0.87,2.77-3.12,1.9-5.04l0,0c-0.87-1.92-3.12-2.77-5.04-1.9l-72.34,32.65
			c-1.92,0.87-2.77,3.12-1.9,5.04h0C1393.47,550.9,1395.72,551.75,1397.64,550.88z"></path>
    <path fill="none" stroke="#265a66" stroke-miterlimit="10" stroke-width="2" d="M1407.31 518.97c0 0 9.36-3.45 16.12 11.92M1459.39 489.39c0 0-5.23-.17-8.94 5.85 0 0-5.89 15.13-2.82 25.2"></path>
    <path fill="#265a66" d="M1422.07 503.27 1422.07 503.27c-.01-.95-.78-1.71-1.73-1.71l-4.62.03c-.95.01-1.71.78-1.71 1.73l0 0c.01.95.78 1.71 1.73 1.71l4.62-.03C1421.31 504.99 1422.08 504.21 1422.07 503.27zM1420.32 511.09 1420.32 511.09c.25-.91-.29-1.86-1.2-2.11l-4.45-1.22c-.91-.25-1.86.29-2.11 1.2l0 0c-.25.91.29 1.86 1.2 2.11l4.45 1.22C1419.12 512.54 1420.07 512 1420.32 511.09zM1417.94 516.8 1417.94 516.8c.44-.84.12-1.88-.72-2.32l-4.08-2.16c-.84-.44-1.88-.12-2.32.72l0 0c-.44.84-.12 1.88.72 2.32l4.08 2.16C1416.45 517.96 1417.5 517.63 1417.94 516.8z"></path>
  </g>
  <g>
    <path fill="#efaa9e" stroke="#cd7970" stroke-miterlimit="10" d="M1318.01,295.13c0,0-2.71-1.33-2.52-3.3c0.69-7.06,4.11-9.75,6.13-12.86c4.77-4.99,6.5-7.71,12.5-7.74
			c0,0,15.32,0.07,22.68,17.81c0,0,4.67,11.83-4.27,18.75c0,0-18.09,6.82-24.8,2.44C1327.73,310.24,1310.26,310.68,1318.01,295.13z"></path>
    <path fill="#efaa9e" stroke="#cd7970" stroke-miterlimit="10" d="M1348.55,277.65c0,0-5.51-8.83-16.48-9.31c0,0-5.72-0.18-8.46-4.71c0,0-3.63-4.26-7.67,0.29
			c0,0-5.15,6.21,5.93,11.88c0,0,6.82,5.81,12.25,4.18c0,0-3.81,7.33,6.03,9.86c0,0,9.05,1.83,10.29-2.1
			C1350.46,287.74,1355.39,286.54,1348.55,277.65z"></path>
    <path fill="#efaa9e" stroke="#cd7970" stroke-miterlimit="10" d="M1311.82,283.46c-3.68,5.24-6.46,9.09-2.86,12.16c3.99,3.39,6.79-1.57,10.47-6.8
				c3.68-5.24,4.96-10.68,2.86-12.16C1320.19,275.18,1315.5,278.23,1311.82,283.46z"></path>
    <path fill="#efaa9e" stroke="#cd7970" stroke-miterlimit="10" d="M1319.9,290.25c-5.07,3.91-8.87,6.77-6.33,10.76c2.81,4.42,6.95,0.51,12.02-3.4
				c5.07-3.91,7.9-8.73,6.33-10.76C1330.35,284.82,1324.97,286.34,1319.9,290.25z"></path>
    <path fill="#efaa9e" stroke="#cd7970" stroke-miterlimit="10" d="M1323.62,295.5c-5.07,3.91-8.87,6.77-6.33,10.76c2.81,4.42,6.95,0.51,12.02-3.4
				c5.07-3.91,7.9-8.73,6.33-10.76C1334.06,290.07,1328.68,291.59,1323.62,295.5z"></path>
    <path fill="#efaa9e" d="M1323.28,307.11c-1.21-2.15,1.59-6.75,6.48-10.52c5.07-3.91,10.45-5.43,12.02-3.4
				c0.99,1.28,0.22,3.68-1.75,6.26c2.61,0.53,7.62-1.03,8.78,1.81l2.47,6.4c0,0-22.18,10.58-27.83-0.29
				c-0.01-0.01-0.01-0.01-0.02-0.02c-0.01-0.01-0.01-0.03-0.02-0.04c-0.04-0.06-0.09-0.12-0.13-0.18L1323.28,307.11z"></path>
    <path fill="#cd7970" d="M1329.6,296.38c5.26-4.06,10.7-5.53,12.38-3.35c0.99,1.29,0.43,3.61-1.51,6.25
				c1.21,0.33,6.12-1.45,7.95,1.33c0.76,1.15-1.11-0.94-2.58-1.06c-2.56-0.21-4.63,0.4-5.87,0.15l-0.41-0.08l0.25-0.33
				c1.95-2.54,2.62-4.82,1.75-5.94c-0.69-0.9-2.27-1.01-4.25-0.47c-2.18,0.59-4.85,1.96-7.4,3.92c-4.66,3.6-7.54,8.17-6.41,10.19
				l0.03,0.08c0,0,0.01,0.01,0.01,0.01l0.06,0.08c0.01,0.01,0.01,0.02,0.02,0.03l0.03,0.03c6.84,10.98,25.51,0.63,27.62,0.43
				c-0.04,0.18,0.23,0.34,0.2,0.52c-2.46,0.2-20.87,10.69-28.22-0.62c-0.02-0.01-0.03-0.03-0.04-0.04l-0.08-0.12
				c-0.03-0.04-0.06-0.08-0.08-0.12l-0.09-0.15l0.02-0.03C1321.88,304.73,1324.68,300.18,1329.6,296.38z"></path>
    <path fill="#cd7970" d="M1329.23,307.59c2.08-0.93,3.99-2.19,5.74-3.62c1.75-1.43,3.32-3.06,4.66-4.85l0.78,0.63
					c-1.53,1.75-3.25,3.3-5.14,4.62C1333.39,305.69,1331.38,306.81,1329.23,307.59z"></path>
  </g>
  <g>
    <path fill="#efaa9e" d="M1402.94,249.44c0,0-7.16-3.89-17.89,0.61c0,0-29.86,15.42-39.54,25.27c0,0,11.38,14.51,4.94,31.7
			c0,0,49.97-5.93,60.79-40.72C1411.25,266.31,1413.05,255.13,1402.94,249.44z"></path>
  </g>
  <g>
    <path fill="#6865ac" d="M1516.61,329.4l-30.2-0.06l-23.64-3.07l-70.33,23.01c-17.01,5.46-16.8,21.89-16.57,21.14
			c14.95,38.17,62.38,21.11,62.38,21.11c46.13,1.62,63.62-4.14,63.62-4.14c14.6-7.22,14.87-34.3,14.87-34.3
			C1519.23,339.88,1516.61,329.4,1516.61,329.4z"></path>
  </g>
  <g>
    <path fill="#6865ac" d="M1378.43,393.15c-12.98-40.52,20.44-45.94,20.44-45.94c32.37-2.22,36.88,30.58,36.88,30.58l30.39,101.15
			c-8.55,8.18-52.1,23.59-52.1,23.59C1414.01,498.48,1378.43,393.15,1378.43,393.15z"></path>
  </g>
  <g>
    <path fill="#d68578" d="M1473.54,157.63c0,0-5.76,22.92,2.74,30.41c0,0-6.48,20.12-24.3,15.58c0,0-14.84,0.96-13.33-16.1
			c0,0,7.05-5.78,5.84-21.76C1444.49,165.77,1460.92,165.93,1473.54,157.63z"></path>
  </g>
  <g>
    <path fill="#efaa9e" d="M1435.44,188.99c0,0-15.82-2.55-26.19,13.4c0,0-16.88,20.16-25.52,39.87c0,0-8.39,15.39-0.75,22.55
				c0,0,13.04,17.56,30.55,1.6c0,0,20.78-30.1,28.13-48.9C1441.66,217.51,1446.99,195.22,1435.44,188.99z"></path>
    <path fill="#50babc" d="M1395.31,252.45c5.94,4.15,12.39,8.82,17.84,14.29c0.12-0.11,0.25-0.22,0.37-0.33
				c0,0,20.78-30.1,28.13-48.9c0,0,5.32-22.29-6.22-28.52c0,0-15.82-2.55-26.19,13.4c0,0-16.88,20.16-25.52,39.87
				c0,0-0.56,1.02-1.25,2.66C1386.92,247.13,1391.23,249.6,1395.31,252.45z"></path>
  </g>
  <g>
    <path fill="#a4f9ff" d="M1508.51,193.22c0,0-11.37-6.56-34.64-8.35c0,0-10.78,14.97-23.69,17.49c0,0-10.26-4.87-11.6-17.89
			c0,0-10.08,1.83-15.08,5.7c0,0-11.44,20.29-17.78,104.23c0,0-5.78,14.74-6.19,20.57c0,0,7.57,34.24,106.46,19.95
			c0,0,24.49-0.77,12.24-21.89c0,0-6.24-31.51-1.38-58.03C1516.84,255,1518.4,205.64,1508.51,193.22z"></path>
    <path fill="#267775" d="M1423.49,190.17c-1.45,4.18-2.65,8.43-3.79,12.7c-0.58,2.13-1.13,4.27-1.64,6.42
				c-0.55,2.14-1.01,4.3-1.5,6.45c-1.92,8.62-3.44,17.32-4.8,26.04c-0.61,4.37-1.29,8.73-1.77,13.12c-0.25,2.19-0.54,4.38-0.76,6.57
				l-0.63,6.59l-0.31,3.29l-0.23,3.3l-0.47,6.6c-0.27,4.4-0.43,8.81-0.64,13.21l-0.01,0.24l-0.1,0.23c-0.78,1.73-1.52,3.54-2.2,5.33
				c-0.68,1.8-1.31,3.63-1.87,5.46c-0.56,1.84-1.04,3.69-1.38,5.54c-0.33,1.85-0.54,3.73-0.39,5.48l-0.14-0.47
				c0.47,0.82,1.19,1.79,1.91,2.62c0.73,0.85,1.51,1.67,2.34,2.44c1.66,1.55,3.45,2.97,5.36,4.24c3.81,2.54,7.98,4.56,12.3,6.19
				c4.33,1.62,8.82,2.82,13.37,3.72c4.55,0.9,9.17,1.54,13.81,1.87c9.29,0.78,18.65,0.51,27.97-0.17
				c9.32-0.71,18.61-1.98,27.83-3.63l0.1-0.02l0.14,0c2.5-0.08,5.18-0.54,7.55-1.41c2.37-0.87,4.52-2.27,5.69-4.27
				c1.2-1.98,1.3-4.5,0.75-6.96c-0.54-2.47-1.64-4.88-2.92-7.19l-0.11-0.2l-0.04-0.19c-0.88-4.48-1.52-8.92-2.04-13.4
				c-0.51-4.48-0.87-8.98-1.07-13.48c-0.22-4.5-0.23-9.02-0.06-13.54c0.16-4.51,0.65-9.02,1.26-13.5l-0.01,0.12
				c0.25-5.58,0.35-11.21,0.34-16.82c-0.01-5.61-0.14-11.22-0.45-16.82c-0.31-5.6-0.81-11.18-1.68-16.7
				c-0.44-2.76-0.97-5.5-1.73-8.17c-0.77-2.65-1.73-5.31-3.34-7.47l0.16,0.13c-1.51-0.8-3.13-1.49-4.75-2.13
				c-1.63-0.63-3.29-1.2-4.96-1.72c-1.68-0.5-3.37-0.98-5.07-1.4c-1.7-0.43-3.43-0.78-5.15-1.11c3.49,0.45,6.96,1.08,10.38,1.97
				c1.71,0.45,3.4,0.95,5.08,1.52c1.68,0.58,3.32,1.19,4.96,1.98l0.09,0.04l0.07,0.09c1.83,2.32,2.87,5.04,3.74,7.74
				c0.86,2.72,1.47,5.5,1.99,8.28c1.01,5.58,1.57,11.21,1.99,16.84c0.41,5.63,0.63,11.27,0.73,16.91c0.1,5.64,0.09,11.27-0.07,16.93
				l0,0.04l-0.01,0.08c-0.54,4.4-0.95,8.82-1.03,13.26c-0.11,4.44-0.11,8.88,0.14,13.32c0.22,4.44,0.6,8.88,1.12,13.29
				c0.53,4.41,1.2,8.84,2.07,13.14l-0.15-0.39c1.37,2.46,2.59,5.06,3.23,7.94c0.32,1.43,0.48,2.95,0.34,4.49
				c-0.12,1.53-0.59,3.09-1.39,4.46c-0.8,1.37-1.92,2.51-3.15,3.4c-1.24,0.89-2.58,1.56-3.95,2.07c-2.77,1.01-5.55,1.5-8.5,1.6
				l0.25-0.02c-9.29,1.71-18.67,3.06-28.11,3.83c-9.44,0.79-18.96,0.9-28.43,0.09c-4.74-0.37-9.46-1.05-14.13-2
				c-4.67-0.95-9.29-2.21-13.77-3.92c-4.47-1.71-8.82-3.84-12.82-6.54c-2-1.35-3.9-2.87-5.67-4.54c-0.88-0.84-1.73-1.73-2.52-2.66
				c-0.81-0.96-1.52-1.88-2.21-3.1l-0.12-0.21l-0.02-0.27c-0.18-2.15,0.08-4.19,0.44-6.18c0.37-1.99,0.88-3.92,1.46-5.82
				c0.59-1.9,1.25-3.77,1.96-5.61c0.72-1.85,1.47-3.66,2.31-5.48l-0.11,0.47c0.29-4.42,0.53-8.85,0.87-13.27l0.58-6.62l0.29-3.31
				l0.37-3.3l0.74-6.6c0.26-2.2,0.59-4.39,0.88-6.59c0.55-4.39,1.32-8.76,2-13.14c1.54-8.72,3.36-17.4,5.5-25.99
				C1417.89,206.96,1420.31,198.43,1423.49,190.17z"></path>
    <path fill="#50babc" stroke="#267775" stroke-miterlimit="10" stroke-width="2" d="M1440.85,184.81c0,0,0.1,10.41,9.33,17.55c0,0-12.68,4.22-17.13,11.16c0,0-0.46-18.79,0.51-27.23
			c0,0,2.92-7.09,9.6-6.58L1440.85,184.81z"></path>
    <path fill="#50babc" stroke="#267775" stroke-miterlimit="10" stroke-width="2" d="M1473.86,184.87c0,0-13.15,15.21-23.69,17.49c0,0,14.36,6.09,17.7,15.51c0,0,14.15-19.26,14.12-30.18
			c0,0,1.91-11.08-9.68-13.93C1472.31,173.76,1471.95,180.51,1473.86,184.87z"></path>
  </g>
  <g>
    <path fill="#efaa9e" d="M1424.26,127.29c0,0-1.19,10.66,3.04,27.57c0,0,2.96,16.4,13.79,24.06c0,0,7.22,7.02,12.76,5.86
			c0,0,5.29-0.02,10.69-6.11c0,0,8.67-7.78,9.54-19.86c0,0-0.51-31.4-7.13-41.07c0,0-7.16-9.97-21.49-7.09
			C1445.46,110.64,1426.34,111.92,1424.26,127.29z"></path>
  </g>
  <g>
    <path fill="#ad5d57" d="M1441.8,143.75c0.34,1.27,0.54,2.57,0.67,3.87c0.14,1.3,0.18,2.61,0.14,3.93
				c-0.03,1.32-0.15,2.64-0.42,3.97c-0.27,1.32-0.62,2.67-1.5,3.93l-0.76-1.44c1.4,0.06,2.84,0.1,4.26,0.12
				c1.43,0.01,2.84,0.04,4.3-0.14c-0.63,0.39-1.33,0.66-2.04,0.88c-0.71,0.23-1.43,0.39-2.15,0.52c-1.45,0.27-2.9,0.42-4.39,0.47
				l-1.62,0.06l0.85-1.5c0.52-0.92,0.85-2.11,1.1-3.31c0.24-1.2,0.45-2.44,0.61-3.7l0.46-3.8
				C1441.45,146.33,1441.6,145.05,1441.8,143.75z"></path>
  </g>
  <g>
    <path fill="#57124e" d="M1451.71,143.15c0.15,1.39,0.93,2.44,1.74,2.35c0.81-0.09,1.34-1.29,1.19-2.68
			c-0.15-1.39-0.93-2.44-1.74-2.35C1452.08,140.57,1451.55,141.77,1451.71,143.15z"></path>
  </g>
  <g>
    <path fill="#57124e" d="M1451.2,136.1c0,0-1.51-1.9,1.5-2.75c0,0,3.74-0.8,6.3,4.09c0,0,0.61,2.91-1.67,1.87
			C1457.32,139.3,1454.96,136.2,1451.2,136.1z"></path>
  </g>
  <g>
    <path fill="#57124e" d="M1432.8,145.24c0.15,1.39,0.93,2.44,1.74,2.35c0.81-0.09,1.34-1.29,1.19-2.68
			c-0.15-1.39-0.93-2.44-1.74-2.35C1433.18,142.65,1432.65,143.85,1432.8,145.24z"></path>
  </g>
  <g>
    <path fill="#57124e" d="M1434.69,137.92c0,0,1.06-2.19-2.07-2.36c0,0-3.82,0.03-5.25,5.37c0,0,0.04,2.97,2.04,1.46
			C1429.41,142.38,1431.04,138.84,1434.69,137.92z"></path>
  </g>
  <g>
    <path fill="#57124e" d="M1428.8,127.03c-0.54-0.25-6.05,4.86-4.34,12.61c0,0,0.15,5.15,2.56,14.09l-1.6-0.2
			c0,0-7.14-4.12-5.16-12.78c0,0-3.41,0.39-4.65-7.74c0,0-0.09-6.42,3.67-6.42c0,0-5.74-2.63-3.04-9.4c0,0,1.57-4.85,6.73-4.05
			c0,0-4.12-8.46,4.11-11.7c0,0,6.4-1.63,9.95,3.02c0,0,1.36-5.14,7.81-5.59c0,0,7.86-1.1,7.82,5.9c0,0,1.46-3.34,5.02-2.56
			c0,0,3.83,0.34,3.44,3.99c0,0,1.45-5.66,8.92-2.55c0,0,6.52,3.25,2.52,9.59c0,0,6.13-1.69,7.86,5.07c0,0,2.38,5.8-3.35,8
			c0,0,4.99,0.55,5.54,6.52c0,0,0.22,3.18-2.93,5.17c0,0,5.04,3.39-5.88,11.15l-5.85,1.18c0,0,2.69-6.3-0.11-13.52
			c0,0-8.06-4.55-2.92-12.45c0,0-3.32,0.95-5.68-2.1c0,0,0.55,3.63-5.82,3.98c0,0-2.93,1.07-5.79-4.36c0,0,0.94,2.31-1.75,4.43
			c0,0-4.63,1.46-6.29-3.01C1439.61,123.3,1437.35,131.02,1428.8,127.03z"></path>
    <path fill="#57124e" d="M1479.61 140.07c.86-1.62 1.67-3.2 2.27-4.8.58-1.58.88-3.25.36-4.48-.5-1.22-1.93-2.07-3.52-2.62-1.61-.56-3.36-.89-5.14-1.34 1.8-.38 3.65-.49 5.53-.17.94.17 1.88.45 2.79.97.89.52 1.74 1.33 2.18 2.38.44 1.05.46 2.19.26 3.18-.21 1-.57 1.91-1.05 2.73C1482.34 137.58 1481.1 138.98 1479.61 140.07zM1424.64 112.88c-2.16-.33-4.37-.16-6.04.83-1.67.98-2.64 2.75-3.2 4.67-.52 1.9-.55 3.94.26 5.68.81 1.75 2.51 3.1 4.45 4.17-1.11-.11-2.2-.45-3.22-.99-.51-.27-.99-.62-1.45-1.01-.44-.41-.83-.87-1.17-1.38-.67-1.03-1.04-2.25-1.15-3.45-.08-1.21.03-2.41.38-3.56.08-.28.19-.59.3-.86.12-.27.2-.53.34-.8.24-.54.57-1.06.93-1.55.73-.97 1.72-1.8 2.86-2.26C1420.23 111.42 1422.72 111.82 1424.64 112.88zM1461.08 107.59c.14-.48.21-1.16.18-1.75-.03-.61-.16-1.21-.4-1.76-.24-.56-.59-1.08-1.06-1.5-.45-.45-1.02-.78-1.62-1.08l-.03-.01c-.53-.3-1.18-.51-1.82-.52-.32 0-.64.06-.94.19-.31.12-.56.35-.79.6.19-.28.41-.56.71-.74.3-.19.64-.32 1-.37.36-.05.72-.05 1.07 0 .36.05.7.12 1.06.26l-.03-.01c.69.22 1.39.48 2.01.92.64.41 1.19.99 1.61 1.65.42.66.72 1.41.88 2.17.15.78.22 1.51.12 2.4L1461.08 107.59zM1420.34 139.77c-.71 2.31-.88 4.36-.51 6.36.22.99.52 1.98.96 2.98.2.5.47.99.69 1.52.26.51.54 1.01.76 1.6-.54-.28-1.04-.62-1.53-.99-.43-.42-.91-.82-1.27-1.32-.76-.97-1.31-2.16-1.57-3.41-.24-1.27-.14-2.6.29-3.79C1418.58 141.53 1419.3 140.45 1420.34 139.77zM1459.88 125.97c-.98.97-2.18 1.71-3.51 2.25-1.33.49-2.86.68-4.35.35-1.45-.33-2.97-.97-3.91-2.15-.49-.56-.83-1.21-1.18-1.84-.26-.68-.48-1.37-.58-2.08l.18-.1c.61.43 1.1.89 1.55 1.36.27.2.5.42.74.63.24.21.44.46.7.61.24.19.48.37.7.58.21.22.47.35.7.54l.35.29c.12.08.25.15.38.22.27.12.51.32.8.39 1.11.43 2.39.49 3.65.23 1.26-.23 2.51-.74 3.65-1.44L1459.88 125.97z"></path>
  </g>
  <g>
    <path fill="#efaa9e" d="M1472.53,146.45c0,0,0.57-7.17,7.71-5.59c0,0,5.9,1.71,2.48,10.76c0,0-3.52,9.53-10.04,3.32L1472.53,146.45z
			"></path>
    <path fill="#ad5d57" d="M1475.22,152.29l0.67-0.07c0.21-0.06,0.43-0.08,0.62-0.17c0.4-0.14,0.69-0.43,0.84-0.75
				c0.29-0.68,0.1-1.57-0.16-2.3l0.04,0.08c-0.15-0.21-0.32-0.41-0.49-0.57c-0.18-0.15-0.36-0.28-0.54-0.33
				c-0.18-0.04-0.35-0.03-0.53,0.04c-0.17,0.07-0.39,0.22-0.51,0.34l-1.82,1.94l0.98-2.42c0.24-0.59,0.47-1.17,0.82-1.72
				c0.15-0.28,0.37-0.54,0.56-0.8c0.24-0.23,0.44-0.5,0.74-0.68c0.53-0.41,1.28-0.62,1.94-0.48c0.66,0.14,1.22,0.5,1.6,0.99
				c-0.52-0.33-1.09-0.56-1.65-0.54c-0.56,0-1.04,0.24-1.44,0.61c-0.4,0.36-0.7,0.85-0.97,1.35c-0.26,0.51-0.47,1.06-0.68,1.61
				l-0.84-0.48c0.27-0.3,0.54-0.5,0.9-0.64c0.35-0.14,0.79-0.17,1.17-0.05c0.38,0.11,0.67,0.34,0.93,0.57
				c0.23,0.25,0.42,0.51,0.58,0.78l0.03,0.05l0.01,0.03c0.16,0.49,0.23,0.95,0.23,1.45c0,0.49-0.09,1.02-0.38,1.46
				c-0.29,0.45-0.79,0.74-1.26,0.78c-0.23,0.06-0.47,0.02-0.7,0.04C1475.67,152.38,1475.44,152.32,1475.22,152.29z"></path>
  </g>
  <g>
    <path fill="#57124e" d="M1453.16,162.16c0,0-1.32,4.25-6.04,4.98c0,0-5.53,1.47-8.12-2.88c0,0,1.85,8.96,9.48,7.2
			C1448.48,171.45,1455.51,169.83,1453.16,162.16z"></path>
  </g>
  <g>
    <path fill="#efaa9e" stroke="#ad5d57" stroke-miterlimit="10" d="M1450.91,316.53c0,0,3.51,8.69-10.37,15.22c0,0-6.09,1.29-11.05-1.23c0,0,0.62,13.06-5.26,12.95
			c0,0-4.58,0.8-6.24-3.75c0,0-7.85,4.8-10.33-7.26c0,0-7.63,1.88-7.33-8.68c0,0,1.18-8.6,3.26-11.64c0,0,1.15-2.35,7.36-5.29
			c0,0,14.02-8.26,19.12-9C1430.07,297.84,1448.86,299.71,1450.91,316.53z"></path>
    <path fill="none" stroke="#ad5d57" stroke-miterlimit="10" d="M1422.44 319.19c0 0-5.96 4.64-4.45 20.53M1412.18 314.84c0 0-3.32 4.87-4.53 17.62"></path>
  </g>
  <g>
    <path fill="#efaa9e" d="M1508.65,268.13c0,0-10.84-7.56-38.76,8.54c0,0-23.84,14.37-38.7,21.33c0,0,2.9,14.85,15.77,26.56
			c0,0,49.56-15.8,61.97-25.49C1508.94,299.08,1533.26,284.32,1508.65,268.13z"></path>
  </g>
  <g>
    <path fill="#efaa9e" d="M1512.68,194.84c0,0,12.21,4.51,14.18,19.03c0,0,4.13,25.13-0.69,50.72c0,0-4.52,24.48-11.54,26.85
				c0,0-21.77,8.85-23.64-21.33c0,0-3.3-33.55-1.29-56.63C1489.69,213.49,1491.7,189.21,1512.68,194.84z"></path>
    <path fill="#267775" d="M1524.53,269.05c-2.84-1.08-5.69-2.11-8.57-3.01c-2.88-0.92-5.79-1.7-8.71-2.39
					c-2.93-0.68-5.88-1.19-8.84-1.61l-2.22-0.27c-0.74-0.08-1.49-0.12-2.23-0.18c-1.48-0.16-2.97-0.16-4.45-0.24l-1.15-0.06
					l-0.13-1.13c-0.76-6.79-1.15-13.56-1.34-20.36c-0.19-6.79-0.06-13.6,0.36-20.4c0.1-1.7,0.27-3.39,0.41-5.09
					c0.11-1.74,0.46-3.52,0.89-5.2c0.88-3.39,2.28-6.7,4.45-9.57c1.08-1.42,2.38-2.72,3.87-3.75c1.49-1.03,3.19-1.77,4.94-2.18
					c3.52-0.83,7.13-0.39,10.42,0.6l0.05,0.02l0.01,0c1.39,0.61,2.62,1.34,3.82,2.17c1.19,0.83,2.3,1.78,3.31,2.82
					c2.03,2.07,3.58,4.59,4.42,7.31c-1.09-2.64-2.83-4.93-4.92-6.79c-1.05-0.93-2.18-1.75-3.37-2.48c-1.18-0.72-2.45-1.37-3.71-1.82
					l0.06,0.02c-3.21-0.74-6.57-0.97-9.63-0.08c-3.06,0.87-5.64,2.89-7.46,5.5c-1.84,2.6-3,5.7-3.76,8.85
					c-0.37,1.6-0.65,3.16-0.71,4.8c-0.1,1.68-0.23,3.35-0.28,5.03c-0.32,6.71-0.36,13.44-0.2,20.17c0.06,3.36,0.19,6.73,0.36,10.09
					c0.18,3.36,0.35,6.73,0.65,10.06l-1.28-1.19c3.08,0.18,6.16,0.5,9.18,1.08c3.02,0.56,6.01,1.26,8.93,2.18
					c2.93,0.89,5.8,1.94,8.61,3.12C1519.13,266.25,1521.86,267.61,1524.53,269.05z"></path>
    <path fill="#50babc" d="M1502.57,261.84c7.1,1.36,15.61,3.35,22.56,7.21c0.66-2.68,1.03-4.46,1.03-4.46
				c4.83-25.59,0.69-50.72,0.69-50.72c-1.98-14.52-14.18-19.03-14.18-19.03c-20.99-5.63-22.99,18.65-22.99,18.65
				c-1.32,15.15-0.35,34.81,0.47,46.53C1494.34,260.4,1498.5,261.06,1502.57,261.84z"></path>
  </g>
  <g>
    <rect width="82.56" height="8.12" x="1391.52" y="335.95" fill="#394e54"></rect>
    <polygon fill="#61848c" points="1400.31 344.07 1378.12 258.46 1269.74 258.46 1287.04 344.07"></polygon>
    <polygon fill="#394e54" points="1392.82 344.07 1370.63 258.46 1262.25 258.46 1279.54 344.07"></polygon>
  </g>
  <g>
    <path fill="#fbb553" d="M800.51,950.95c0,0,13.21,23.79,6.95,36.2c0,0-20.16,0.09-32.25,11.97c0,0-16.24-16.31-11.13-41.06
			C764.09,958.06,788.96,959.9,800.51,950.95z"></path>
    <path fill="#fbb553" stroke="#25715e" stroke-miterlimit="10" d="M751.78,957.47c0,0,21.47-7.89,26.38,17.52c0,0,6.26,29.27-14.29,29.27
			C763.87,1004.26,740.84,983.83,751.78,957.47z"></path>
    <path fill="#25715e" d="M751.78 957.15c0 0-11.77 24.68 12.09 47.11 0 0-.65 4.02-6.98 3.78 0 0-22.64-22-11.53-51.65C745.36 956.39 748.74 954.19 751.78 957.15zM777.56 968.03c3.57 3.13 3.95 8.56 3 12.87-.69 3.14 4.13 4.48 4.82 1.33 1.31-5.97.64-13.42-4.29-17.74C778.69 962.38 775.14 965.9 777.56 968.03L777.56 968.03z"></path>
    <path fill="#25715e" d="M785.33,967.83c-1-0.75,0.12,0.15,0.34,0.37c0.51,0.52,0.94,1.08,1.3,1.72c1.36,2.38,1.26,4.93,0.47,7.49
					c-0.95,3.08,3.87,4.4,4.82,1.33c1.71-5.53,0.34-11.67-4.41-15.23C785.28,961.58,782.78,965.91,785.33,967.83L785.33,967.83z"></path>
    <path fill="#25715e" d="M792.37,966.29c0.14,0.09,0.35,0.32-0.13-0.1c0.17,0.15,0.35,0.28,0.51,0.44
					c0.46,0.46,0.88,0.91,1.24,1.45c1.33,2.02,1.21,4.19,0.41,6.4c-1.09,3.03,3.74,4.34,4.82,1.33c1.83-5.1,0.19-10.76-4.34-13.84
					C792.22,960.16,789.72,964.49,792.37,966.29L792.37,966.29z"></path>
    <path fill="none" stroke="#25715e" stroke-miterlimit="10" d="M795.59,988.75c0,0-0.76-10.96,13.56-11.9"></path>
  </g>
  <g>
    <path fill="#182023" d="M854.03,904.67c-1.78,1.94-101.33,58.17-109.51,63.44c0,0-23.36,9.71-37.2-13.12
			c0,0-12.83-25.73,12.75-44.46l106.78-55.36L854.03,904.67z"></path>
  </g>
  <g>
    <path fill="#182023" d="M842.15,851.06c2.54,0.09,107.5,40.49,116.59,43.36c0,0,22.18,11.86,15.2,38.39c0,0-9.68,27.7-39.67,20.24
			l-109.1-46.72L842.15,851.06z"></path>
  </g>
  <g>
    <path fill="#182023" d="M946.68,890.74l-146.07,23.1c0,0-15.06,39.54,7.71,77.16l145.02-35.76c0,0,21.89-10.05,21.83-34.02
			C975.19,921.22,976.39,895.83,946.68,890.74z"></path>
  </g>
  <g>
    <path fill="#ef9c8b" d="M845.48,732.1c0,0,0.95,14.01,6.44,17.1c0,0-3.85,14.82-18.37,14.36c0,0-13.68-2.2-16.72-15.58
			c0,0,7.95-7.9,6.44-17.48C823.27,730.51,832.03,740.54,845.48,732.1z"></path>
  </g>
  <g>
    <path fill="#fbb553" d="M919.24,943.14c0,0-14.6,26.3-7.69,40.02c0,0,22.28,0.1,35.65,13.23c0,0,17.95-18.03,12.3-45.39
			C959.5,951,932,953.03,919.24,943.14z"></path>
    <path fill="#fbb553" stroke="#25715e" stroke-miterlimit="10" d="M973.11,950.35c0,0-23.74-8.72-29.16,19.37c0,0-6.92,32.36,15.8,32.36
			C959.75,1002.08,985.2,979.49,973.11,950.35z"></path>
    <path fill="#25715e" d="M973.11 950c0 0 13.02 27.28-13.37 52.08 0 0 .71 4.44 7.71 4.18 0 0 25.03-24.32 12.75-57.1C980.21 949.16 976.47 946.72 973.11 950zM940.88 958.3c-5.37 4.71-6.1 12.84-4.67 19.35.69 3.14 5.51 1.81 4.82-1.33-1.07-4.86-.64-10.96 3.38-14.49C946.84 959.71 943.29 956.18 940.88 958.3L940.88 958.3z"></path>
    <path fill="#25715e" d="M933.36,957.25c-5.16,3.87-6.6,10.55-4.75,16.54c0.95,3.07,5.77,1.76,4.82-1.33
					c-0.89-2.9-0.99-5.79,0.55-8.48c0.38-0.67,0.84-1.29,1.37-1.85c0.21-0.23,1.55-1.33,0.54-0.56
					C938.43,959.66,935.94,955.32,933.36,957.25L933.36,957.25z"></path>
    <path fill="#25715e" d="M925.58,955.56c-4.91,3.34-6.65,9.48-4.67,15c1.08,3.01,5.91,1.71,4.82-1.33
					c-0.9-2.52-1.02-4.98,0.48-7.28c0.41-0.62,0.89-1.14,1.42-1.66c0.18-0.17,0.37-0.33,0.56-0.49c-0.46,0.39-0.21,0.16-0.09,0.07
					C930.75,958.07,928.25,953.74,925.58,955.56L925.58,955.56z"></path>
    <path fill="none" stroke="#25715e" stroke-miterlimit="10" d="M924.68,984.93c0,0,0.84-12.12-14.99-13.16"></path>
  </g>
  <g>
    <path fill="#2d3c42" d="M737.54,906.06l176.84,9.59c0,0,17.75,33.86-6.8,76.3l-180.11-22.27c0,0-27.19-4.17-24.07-34.39
				C703.4,935.29,706.65,907.43,737.54,906.06z"></path>
    <path fill="#110808" d="M907.58,991.95c3.16-5.87,5.63-12.06,7.64-18.35c1.95-6.31,3.43-12.76,4.04-19.29
					c0.35-3.25,0.5-6.53,0.4-9.78c0-1.63-0.17-3.25-0.28-4.87c-0.21-1.61-0.34-3.23-0.64-4.82c-0.99-6.41-3.17-12.57-6.08-18.32
					l1.59,1.04c-9.88-0.61-19.77-1.14-29.65-1.81l-14.82-0.95l-14.82-1.01l-29.63-2.17c-9.88-0.75-19.75-1.53-29.63-2.41
					c9.92-0.15,19.83-0.03,29.74,0.18c9.91,0.2,19.81,0.56,29.71,0.96l14.85,0.68l14.84,0.81c9.89,0.53,19.77,1.22,29.66,1.89
					l1.11,0.08l0.48,0.97c3.05,6.15,5.14,12.78,6.06,19.55c0.28,1.69,0.39,3.39,0.53,5.09c0.05,1.7,0.16,3.41,0.1,5.11
					c-0.02,3.4-0.31,6.79-0.8,10.14c-1,6.7-2.78,13.24-5.23,19.49C914.32,980.4,911.32,986.43,907.58,991.95z"></path>
  </g>
  <g>
    <path fill="#fbd7cb" d="M871.34,758c0,0,9.97-4.04,19.61,6.02c0,0,33.81,35.61,41.79,47.24c0,0,15.71,18.46,15.78,26.98
				c0,0-16.14,17.53-38.34,0.66c0,0-29.67-32.26-42.58-52.63C867.58,786.27,852.38,769.54,871.34,758z"></path>
    <path fill="#50babc" d="M919,793.01c-12.16-13.69-26.89-29.43-26.89-29.43c-9.64-10.06-20.78-5.57-20.78-5.57
			c-18.95,11.54-3.75,28.27-3.75,28.27c5.51,8.7,13.33,23.11,21.34,32.71C896.09,809.26,908.21,797.65,919,793.01z"></path>
  </g>
  <g>
    <path fill="#fbd7cb" d="M805.6,758.04c0,0-8.33-6.28-19.44,3.53c0,0-35.09,30.46-43.58,40.76c0,0-16.43,16-17.03,24.21
				c0,0,14.59,18.81,37.23,5.1c0,0,30.86-27.7,44.69-45.87C807.48,785.78,823.3,771.39,805.6,758.04z"></path>
    <path fill="#50babc" d="M805.6,758.04c0,0-9.74-6.15-20.84,3.66c0,0-20.29,16.02-35.21,31.5c10.33,6.8,21.39,18.59,27.78,28.92
			c9.97-9.58,22.5-26.29,30.15-36.34C807.48,785.78,823.3,771.39,805.6,758.04z"></path>
  </g>
  <g>
    <path fill="#a4f9ff" d="M882.79,758.32c0,0-29.19-8.51-37.24-7.9c0,0-3.95,6.42-11.86,6.42c0,0-9.87,2.4-16.87-8.85
			c0,0-32.07,9.48-33.74,17.33c0,0,5.62,19.46,3.34,69.62c0,0,0.23,28.04-0.68,32.6c0,0-2.51,6.38,3.42,6.38
			c0,0,45.83,6.16,97.81-4.56c0,0,3.88-0.46,0-7.52c0,0-5.93-27.59-5.24-50.39C881.73,811.45,878.38,764.48,882.79,758.32z"></path>
    <path fill="#267775" d="M880.72,769.69c-0.28,7.55-0.24,15.1,0.13,22.64c0.35,7.54,1.04,15.05,1.77,22.56
				c0.74,7.51,1.63,15,2.53,22.51c0.81,7.54,1.53,15.02,2.91,22.37l-0.05-0.18c0.28,0.84,0.62,1.67,0.97,2.53
				c0.35,0.88,0.7,1.73,1.02,2.72c0.17,0.55,0.29,1.18,0.22,1.89c-0.06,0.71-0.37,1.42-0.78,1.94c-0.83,1.05-1.79,1.56-2.68,2.04
				l-0.08,0.04l-0.13,0.04c-7.88,2.47-16.04,3.83-24.19,4.57c-8.15,0.76-16.33,0.97-24.41,1.27c-2.01,0.04-4,0.26-6.04,0.38
				c-2.03,0.14-4.07,0.27-6.11,0.38c-4.08,0.22-8.16,0.36-12.26,0.37c-8.18,0.04-16.4-0.49-24.51-1.84l-0.21-0.04l-0.18-0.09
				c-0.38-0.19-0.89-0.38-1.41-0.6c-0.53-0.23-1.08-0.46-1.67-0.85c-0.3-0.2-0.62-0.45-0.94-0.84c-0.16-0.22-0.3-0.46-0.4-0.77
				c-0.06-0.14-0.08-0.32-0.1-0.48l-0.02-0.23l0-0.1l0.04-1.63l0.18-6.52l0.45-13c0.32-8.66,0.64-17.33,0.83-25.99
				c0.1-4.33,0.17-8.66,0.19-12.99c0.05-4.33,0.06-8.66,0.01-12.99c-0.1-8.66-0.45-17.32-1.07-25.97
				c1.08,8.61,1.71,17.27,2.12,25.94c0.2,4.34,0.36,8.68,0.45,13.02c0.07,4.34,0.1,8.68,0.1,13.02c-0.01,8.68-0.13,17.36-0.27,26.03
				l-0.22,13l-0.11,6.49l-0.03,1.62l0,0.1c0,0.02,0.01-0.02,0.01-0.03c0-0.03-0.02-0.07-0.02-0.09c-0.02-0.05-0.02-0.06-0.02-0.06
				c0.03,0.03,0.13,0.13,0.28,0.22c0.31,0.2,0.76,0.4,1.24,0.59c0.48,0.2,0.99,0.38,1.59,0.67l-0.39-0.13
				c7.95,1.22,16,1.67,24.06,1.63c4.03-0.03,8.07-0.18,12.1-0.41c2.02-0.11,4.04-0.25,6.06-0.4c2.01-0.12,4.07-0.37,6.12-0.4
				c8.16-0.28,16.24-0.46,24.28-1.18c8.02-0.72,15.99-1.95,23.66-4.25l-0.21,0.08c0.74-0.37,1.44-0.81,1.77-1.24
				c0.16-0.21,0.24-0.38,0.26-0.6c0.03-0.22-0.01-0.52-0.11-0.85c-0.24-0.79-0.58-1.66-0.91-2.51c-0.34-0.86-0.69-1.76-0.99-2.68
				l-0.03-0.09l-0.01-0.08c-1.34-7.52-1.83-15.13-2.5-22.62c-0.73-7.51-1.46-15.04-2.04-22.59c-0.62-7.54-0.95-15.11-1.06-22.68
				C879.82,784.79,880.05,777.22,880.72,769.69z"></path>
    <path fill="#50babc" d="M833.69,756.84c0,0-11.52-7.92-14.97-12.17c0,0-1.74-2-4.11,0.88c0,0-3.95,3.37-4.77,6.74
				c0,0,3.62,10.7,15.47,22.14C825.3,774.43,828.92,762.26,833.69,756.84z"></path>
    <path fill="#267775" d="M833.69,756.84c-1.73-1.04-3.42-2.14-5.09-3.28c-1.67-1.13-3.34-2.28-4.94-3.52
				c-1.61-1.24-3.2-2.5-4.67-3.96c-0.18-0.18-0.36-0.38-0.53-0.57l-0.27-0.29c-0.06-0.07-0.04-0.04-0.07-0.07
				c-0.03-0.02-0.06-0.05-0.09-0.07c-0.28-0.2-0.59-0.3-0.89-0.27c-0.61,0.04-1.29,0.6-1.85,1.29l-0.04,0.04l-0.07,0.06
				c-0.47,0.43-0.96,0.92-1.4,1.41c-0.45,0.5-0.88,1.01-1.27,1.55c-0.78,1.06-1.43,2.21-1.72,3.36l-0.02-0.54
				c0.75,2,1.79,4.03,2.88,5.95c1.1,1.94,2.29,3.83,3.57,5.66c1.32,1.8,2.65,3.61,4.11,5.31c1.43,1.72,2.98,3.35,4.53,4.97
				l-1.28,0.34c1.05-3.15,2.29-6.19,3.73-9.15c0.75-1.47,1.52-2.93,2.41-4.31C831.58,759.34,832.53,758.02,833.69,756.84z
				 M833.69,756.84c-0.98,1.29-1.79,2.74-2.54,4.17c-0.75,1.44-1.38,2.94-1.98,4.45c-0.61,1.5-1.17,3.03-1.68,4.57
				c-0.51,1.54-1.02,3.09-1.45,4.63l-0.34,1.25l-0.94-0.91c-0.82-0.8-1.67-1.57-2.47-2.39c-0.78-0.84-1.6-1.64-2.34-2.52
				c-1.55-1.7-2.97-3.51-4.33-5.36c-1.34-1.87-2.6-3.8-3.73-5.81c-1.12-2.03-2.15-4.05-2.97-6.31l-0.1-0.26l0.07-0.28
				c0.41-1.57,1.23-2.86,2.13-4.01c0.45-0.58,0.93-1.12,1.43-1.65c0.51-0.53,1.01-1.02,1.59-1.51l-0.11,0.11
				c0.38-0.42,0.76-0.84,1.28-1.18c0.5-0.34,1.14-0.62,1.84-0.63c0.71-0.02,1.4,0.25,1.91,0.67c0.07,0.05,0.13,0.11,0.19,0.17
				c0.06,0.05,0.17,0.18,0.19,0.2l0.23,0.28c0.16,0.18,0.31,0.37,0.47,0.55c1.33,1.43,2.81,2.79,4.31,4.11
				c1.52,1.31,3.04,2.62,4.61,3.89L833.69,756.84z"></path>
    <g>
      <path fill="#50babc" d="M833.55,756.84c0,0,11.52-7.92,14.97-12.17c0,0,1.44-2,4.11,0.88c0,0,3.95,3.37,4.77,6.74
				c0,0-3.62,10.7-15.47,22.14C841.94,774.43,838.32,762.26,833.55,756.84z"></path>
      <path fill="#267775" d="M833.55,756.84l4.72-3.78c1.56-1.27,3.09-2.58,4.6-3.88c1.5-1.32,2.98-2.67,4.31-4.11
				c0.16-0.18,0.3-0.36,0.46-0.54l0.23-0.27l0.16-0.19c0.06-0.07,0.13-0.14,0.19-0.19c0.51-0.49,1.27-0.74,1.98-0.68
				c0.71,0.05,1.3,0.34,1.79,0.66c0.5,0.32,0.9,0.71,1.3,1.1l-0.07-0.07c0.58,0.49,1.08,0.98,1.59,1.51
				c0.5,0.52,0.98,1.07,1.43,1.65c0.89,1.16,1.71,2.45,2.13,4.01l0.07,0.28l-0.1,0.26c-0.83,2.26-1.85,4.28-2.97,6.31
				c-1.14,2.01-2.4,3.93-3.73,5.81c-1.36,1.85-2.78,3.66-4.33,5.36c-0.74,0.87-1.56,1.68-2.34,2.52c-0.8,0.82-1.65,1.59-2.47,2.39
				l-0.94,0.91l-0.34-1.25c-0.43-1.54-0.94-3.09-1.45-4.63c-0.52-1.54-1.07-3.06-1.68-4.57c-0.6-1.51-1.23-3.01-1.98-4.45
				C835.34,759.58,834.53,758.13,833.55,756.84z M833.55,756.84c1.16,1.18,2.11,2.51,3,3.91c0.89,1.39,1.66,2.85,2.41,4.31
				c1.45,2.96,2.68,6.01,3.73,9.15l-1.28-0.34c1.55-1.62,3.09-3.25,4.53-4.97c1.46-1.7,2.79-3.5,4.11-5.31
				c1.28-1.83,2.48-3.72,3.57-5.66c1.09-1.92,2.13-3.96,2.88-5.95l-0.02,0.54c-0.29-1.14-0.95-2.29-1.72-3.36
				c-0.39-0.53-0.82-1.05-1.27-1.55c-0.45-0.49-0.93-0.99-1.4-1.41l-0.05-0.05l-0.02-0.02c-0.6-0.66-1.34-1.25-1.96-1.33
				c-0.3-0.04-0.57,0.04-0.81,0.23c-0.03,0.02-0.05,0.05-0.08,0.07l-0.09,0.1l-0.27,0.3c-0.18,0.2-0.36,0.4-0.55,0.59
				c-1.47,1.47-3.06,2.73-4.67,3.96c-1.6,1.24-3.27,2.38-4.94,3.52C836.97,754.7,835.28,755.8,833.55,756.84z"></path>
    </g>
  </g>
  <g>
    <path fill="#fbd7cb" d="M940.79 829.04c0 0-11.33-6.44-24.18-2.89 0 0-14.22 8.81-21.96 14.17 0 0 6.7 20.26 21.54 28.21 0 0 24.26-8.15 29.59-16.07C945.77 852.46 954.88 836.1 940.79 829.04zM890.47 841.8c0 0-7.11-1.96-11.92-8.94 0 0-3.84-4.82-6.67-2.57 0 0-5.84 2.81-3.39 10.06 0 0 1.42 8.81 8.97 9.6C877.47 849.95 895.41 848.13 890.47 841.8z"></path>
    <path fill="#fbd7cb" stroke="#cd7970" stroke-miterlimit="10" d="M916.61,865.17c0,0,1.25,9.77-14.6,12.7c0,0-6.54-0.32-10.91-4.2c0,0-2.86,13.44-8.81,11.76
				c0,0-4.87-0.41-5.34-5.48c0,0-9.26,2.79-8.56-10.14c0,0-8.26-0.13-5.13-10.77c0,0,3.49-8.43,6.42-10.96c0,0,1.8-2.08,8.89-3.42
				c0,0,16.45-4.66,21.84-4.05C900.42,840.6,919.01,847.52,916.61,865.17z"></path>
    <path fill="none" stroke="#cd7970" stroke-miterlimit="10" d="M886.96 860.27c0 0-7.29 3.12-10.01 19.67M877.7 853.11c0 0-4.68 4.06-9.3 16.7"></path>
  </g>
  <g>
    <path fill="#fbd7cb" d="M737.3 814.55c0 0 12.63-3.21 24.08 3.63 0 0 11.38 12.27 17.41 19.49 0 0-11.65 18.88-28.06 22.6 0 0-21.42-15.42-24.45-24.46C726.27 835.81 721.84 817.61 737.3 814.55zM782.42 840.2c0 0 7.38 0 13.86-5.46 0 0 4.99-3.63 7.11-.71 0 0 4.88 4.26.6 10.6 0 0-3.7 8.11-11.19 6.87C792.79 851.51 775.98 845 782.42 840.2z"></path>
    <path fill="#fbd7cb" stroke="#cd7970" stroke-miterlimit="10" d="M751.02,855.8c0,0-3.8,9.08,10.71,16.12c0,0,6.39,1.43,11.63-1.16c0,0-0.81,13.71,5.37,13.67
				c0,0,4.8,0.9,6.6-3.86c0,0,8.19,5.14,10.94-7.5c0,0,8,2.07,7.81-9.03c0,0-1.13-9.05-3.28-12.27c0,0-1.18-2.48-7.67-5.65
				c0,0-14.63-8.85-19.98-9.7C773.15,836.41,753.39,838.15,751.02,855.8z"></path>
    <path fill="none" stroke="#cd7970" stroke-miterlimit="10" d="M780.91 858.94c0 0 6.2 4.95 4.43 21.62M791.74 854.5c0 0 3.43 5.16 4.54 18.57"></path>
  </g>
  <g>
    <path fill="#fbd7cb" d="M860.17,677.95c0,0,2.57,11.44,0,30.32c0,0,0.3,24.2-13.95,31.77c0,0-6.82,5.19-12.99,4.59
			c0,0-4.63,1.37-11.99-4.63c0,0-10.15-4.88-11.43-21.84c0,0-3.21-34.18,2.83-45.48c0,0,6.58-11.69,22.5-10.28
			C835.13,662.4,856.05,661.5,860.17,677.95z"></path>
  </g>
  <g>
    <path fill="#cd7970" d="M837.15,701.87c0.35,1.39,0.66,2.77,0.95,4.14l0.92,4.08c0.32,1.35,0.67,2.68,1.09,3.96
				c0.41,1.27,0.91,2.54,1.62,3.49l1.04,1.39l-1.64,0.12c-1.62,0.12-3.2,0.15-4.81,0.04c-0.8-0.06-1.6-0.13-2.4-0.29
				c-0.79-0.14-1.59-0.34-2.32-0.68c1.6,0.05,3.14-0.13,4.69-0.3c1.54-0.18,3.1-0.39,4.62-0.62l-0.6,1.52
				c-1.08-1.26-1.62-2.68-2.08-4.07c-0.43-1.41-0.76-2.82-0.94-4.24c-0.2-1.42-0.32-2.85-0.34-4.28
				C836.92,704.73,836.96,703.3,837.15,701.87z"></path>
  </g>
  <g>
    <path fill="#57124e" d="M827.32,702.82c0,2.03-0.96,3.68-2.14,3.68s-2.14-1.65-2.14-3.68c0-2.03,0.96-3.68,2.14-3.68
			S827.32,700.78,827.32,702.82z"></path>
  </g>
  <g>
    <path fill="#57124e" d="M848.9,702.64c0,2.03-0.96,3.68-2.14,3.68c-1.18,0-2.14-1.65-2.14-3.68c0-2.03,0.96-3.68,2.14-3.68
			C847.94,698.96,848.9,700.61,848.9,702.64z"></path>
  </g>
  <g>
    <path fill="#57124e" d="M827.32,692.45c0,0,1.54-2.74-2.14-3.43c0,0-4.54-0.51-6.94,6.34c0,0-0.34,3.94,2.23,2.23
			C820.46,697.59,822.86,693.14,827.32,692.45z"></path>
  </g>
  <g>
    <path fill="#57124e" d="M846.12,692.84c0,0-1.54-2.74,2.14-3.43c0,0,4.54-0.51,6.94,6.34c0,0,0.34,3.94-2.23,2.23
			C852.97,697.98,850.58,693.53,846.12,692.84z"></path>
  </g>
  <g>
    <path fill="#57124e" d="M844.62,725.46c0,0-10.1,5.82-19.44-3.08c0,0-0.39,11.63,9.95,11.63
			C839.7,734.01,842.95,731.07,844.62,725.46z"></path>
  </g>
  <g>
    <path fill="#57124e" d="M814.92,674.53c-0.54-0.36,2.27,4.76-2.47,13.1c0,0-3.92,5.66,0,18.43l-4.67-2.53c0,0-11.09-4.47-6-14.16
			c0,0-7.47-1.44-7.06-9.48c0,0,0.73-6.8,7.06-6.8c0,0-5.92-6.59,0-14.22c0,0,2.83-3.5,7.16-2.06c0,0-1.16-8.29,8.35-10.46
			c0,0,7.25-0.72,10.34,4.95c0,0,2.33-5.37,9.44-4.79c0,0,8.75,0.1,7.54,7.73c0,0,2.14-3.4,5.89-1.96c0,0,3.98,1.75,2.95,5.67
			c0,0,2.94-5,9.1-1.55c0,0,7.8,5.15,1,11.33c0,0,6.8-0.41,7.21,5.98c0,0,1.88,7.01-4.73,8.45c0,0,6.96,1.03,6.56,7.62
			c0,0-0.28,3.5-4.05,5.15c0,0,4.93,4.53-7.25,11.13l-4.76,1.21c0,0,3.3-6.82,1.44-15.14c0,0-5.77-10.59-1.24-15.13
			c0,0-3.3,0.82-5.36-2.89c0,0-1.61,4.12-6.78,4.12c0,0-6.09,0.21-8.31-6.18c0,0,0.64,2.68-2.64,4.53c0,0-5.29,0.82-6.35-4.33
			C827.32,672.26,823.58,680.3,814.92,674.53z"></path>
    <path fill="#57124e" d="M868.13 697.18c1.23-1.59 2.4-3.17 3.33-4.81.91-1.63 1.54-3.42 1.17-4.89-.36-1.47-1.82-2.63-3.47-3.49-1.67-.86-3.53-1.49-5.41-2.24 2.01-.07 4.05.13 6.03.8.99.35 1.96.81 2.85 1.52.87.7 1.64 1.71 1.95 2.91.29 1.2.14 2.42-.24 3.46-.39 1.04-.92 1.97-1.57 2.79C871.47 694.87 869.9 696.21 868.13 697.18zM810.87 657.26c-2.43-.8-5.04-.96-7.1 0-1.02.49-1.91 1.2-2.58 2.14-.38.42-.65.96-.96 1.45-.27.46-.49 1.05-.69 1.61-.43 1.12-.71 2.3-.84 3.47-.15 1.17-.13 2.35.11 3.49.5 2.27 2.05 4.28 4.16 5.78-.59-.24-1.21-.46-1.8-.77l-.83-.55-.42-.28c-.13-.11-.25-.23-.37-.34-1.04-.88-1.76-2.12-2.25-3.41-.89-2.67-.54-5.54.35-8.06.25-.63.48-1.25.87-1.88.39-.58.7-1.19 1.21-1.7.9-1.06 2.1-1.96 3.47-2.38 1.35-.46 2.79-.46 4.1-.19C808.61 655.92 809.84 656.47 810.87 657.26zM853.42 658.74c.23-.52.42-1.25.48-1.91.07-.68.02-1.36-.16-2.01-.18-.65-.48-1.29-.93-1.83-.42-.57-1-1.01-1.6-1.44l-.03-.02c-.54-.41-1.21-.74-1.91-.86-.35-.05-.71-.03-1.06.06-.36.09-.67.3-.96.53.25-.27.54-.54.9-.68.35-.15.75-.23 1.14-.23.39.01.78.07 1.16.18.38.12.74.25 1.1.46l-.03-.02c.71.36 1.42.76 2.02 1.34.62.55 1.11 1.27 1.45 2.05.35.78.53 1.64.58 2.49.03.87-.02 1.67-.27 2.6L853.42 658.74zM802.22 688.49c-1.22 2.34-1.79 4.58-1.72 6.86.08 1.13.25 2.28.57 3.44.15.58.37 1.15.53 1.76.21.59.45 1.18.61 1.84-.52-.4-1-.87-1.46-1.35-.38-.53-.83-1.06-1.13-1.66-.65-1.19-1.05-2.55-1.13-3.95-.05-1.41.28-2.83.92-4.05C800.06 690.14 801.01 689.09 802.22 688.49zM848.95 678.53c-1.24.88-2.67 1.48-4.2 1.82-1.53.3-3.21.24-4.76-.37-1.51-.6-3.02-1.56-3.85-2.97-.44-.68-.71-1.44-1-2.17-.18-.77-.32-1.55-.34-2.34l.19-.07c.56.58 1 1.18 1.41 1.77.25.27.46.55.69.82.22.27.39.58.66.8.23.25.46.5.67.76.2.27.47.46.68.71l.34.37c.12.11.26.2.39.3.27.18.51.44.82.56 1.16.65 2.56.92 3.98.83 1.42-.06 2.87-.42 4.22-1L848.95 678.53z"></path>
  </g>
  <g>
    <path fill="#fbd7cb" d="M810.01,704.56c0,0-1.47-7.72-9.05-5.15c0,0-6.2,2.57-1.4,11.99c0,0,4.97,9.94,11.31,2.4L810.01,704.56z"></path>
    <path fill="#cd7970" d="M807.78,711.23c-0.24,0.06-0.47,0.14-0.72,0.2c-0.25,0.01-0.5,0.07-0.76,0.04c-0.52,0-1.09-0.25-1.45-0.7
				c-0.37-0.44-0.52-1-0.58-1.53c-0.06-0.54-0.03-1.05,0.08-1.59l0.01-0.03l0.02-0.05c0.15-0.31,0.32-0.62,0.54-0.91
				c0.25-0.28,0.53-0.56,0.92-0.72c0.39-0.17,0.85-0.19,1.24-0.08c0.4,0.11,0.71,0.29,1.03,0.58l-0.78,0.57
				c-0.3-0.57-0.59-1.14-0.94-1.67c-0.35-0.52-0.75-1.01-1.23-1.36c-0.48-0.36-1.05-0.56-1.66-0.48c-0.61,0.05-1.21,0.38-1.72,0.81
				c0.37-0.56,0.93-1.02,1.63-1.24c0.7-0.23,1.52-0.09,2.14,0.3c0.34,0.16,0.59,0.42,0.88,0.65c0.23,0.26,0.5,0.51,0.7,0.8
				c0.44,0.55,0.76,1.16,1.09,1.77l1.24,2.3l-2.02-1.73c-0.15-0.13-0.41-0.27-0.61-0.33c-0.22-0.06-0.42-0.05-0.61,0.02
				c-0.2,0.07-0.38,0.24-0.56,0.43c-0.17,0.2-0.33,0.44-0.47,0.69l0.03-0.09c-0.2,0.83-0.3,1.84,0.12,2.55
				c0.21,0.34,0.56,0.62,1.02,0.72c0.22,0.08,0.46,0.07,0.7,0.11L807.78,711.23z"></path>
  </g>
  <g>
    <path fill="#fbd7cb" d="M860.33,704.56c0,0,1.47-7.72,9.05-5.15c0,0,6.2,2.57,1.4,11.99c0,0-4.97,9.94-11.31,2.4L860.33,704.56z"></path>
    <path fill="#cd7970" d="M868.56,704.29c-0.51-0.42-1.11-0.75-1.72-0.81c-0.61-0.08-1.18,0.13-1.66,0.48
				c-0.48,0.35-0.88,0.84-1.23,1.36c-0.35,0.53-0.64,1.1-0.94,1.67l-0.78-0.57c0.32-0.28,0.63-0.46,1.03-0.58
				c0.39-0.11,0.85-0.08,1.24,0.08c0.4,0.17,0.68,0.45,0.92,0.72c0.22,0.29,0.39,0.6,0.54,0.91l0.02,0.05l0.01,0.03
				c0.11,0.54,0.14,1.05,0.08,1.59c-0.06,0.53-0.21,1.09-0.58,1.53c-0.36,0.45-0.93,0.7-1.45,0.7c-0.26,0.04-0.51-0.03-0.76-0.04
				c-0.25-0.05-0.48-0.13-0.72-0.2l0.73,0.01c0.24-0.04,0.48-0.03,0.7-0.11c0.45-0.1,0.81-0.38,1.02-0.72
				c0.41-0.71,0.32-1.71,0.12-2.55l0.03,0.09c-0.14-0.25-0.3-0.49-0.47-0.69c-0.18-0.19-0.36-0.36-0.56-0.43
				c-0.2-0.07-0.4-0.08-0.61-0.02c-0.21,0.05-0.46,0.19-0.61,0.32l-2.01,1.71l1.23-2.28c0.33-0.61,0.65-1.21,1.09-1.77
				c0.2-0.29,0.47-0.54,0.7-0.8c0.29-0.22,0.54-0.48,0.88-0.65c0.62-0.38,1.45-0.52,2.14-0.3
				C867.62,703.27,868.19,703.73,868.56,704.29z"></path>
  </g>
  <g>
    <rect width="134.51" height="90.84" x="768.8" y="815.67" fill="#434444"></rect>
    <polygon fill="#7a7a7a" points="903.31 897.78 768.8 897.78 763.56 806.93 907.68 806.93"></polygon>
    <path fill="none" stroke="#434444" stroke-miterlimit="10" stroke-width="2" d="M844.53,855.34c0,5.03-4.08,9.11-9.11,9.11c-5.03,0-9.11-4.08-9.11-9.11c0-5.03,4.08-9.11,9.11-9.11
			C840.45,846.23,844.53,850.31,844.53,855.34z"></path>
  </g>
  <g>
    <path fill="#f9d5c9" stroke="#cb7970" stroke-miterlimit="10" d="M409.85,616.69c0,0-13.69-0.46-18.01,2.12c0,0-4.68,9.45-4.47,19.13c0,0-0.16,4.7,5.06,6.93
			c0,0,5.56,2.6,13.51,0.16C405.96,645.03,421.64,618.69,409.85,616.69z"></path>
  </g>
  <g>
    <path fill="#ed9a89" d="M278.7,515.77c0,0-1.93,23.61-7.79,25.77c0,0,3.45,11.11,17.04,11.76c0,0,14.46,2.08,18.29-10.18
			c0,0-7.43-8.27-5.23-20.9C300.99,522.21,290.63,524.63,278.7,515.77z"></path>
  </g>
  <g>
    <path fill="#f9d5c9" d="M353.67,911.61c-0.12,0.35,0.04,9.85,1.57,13.97c0,0-26.87,4.76-37.71,0.31l-0.37-12.55L353.67,911.61z"></path>
    <path fill="#60a5ba" d="M398.34,957.03c0,0-1.22-10.72-17.27-15.11c0,0-14.85-0.16-20.07-9.75c0,0-2.29-4.87-2.74-6.75
			c0,0,0.35-3.58-5.13-2.39c0,0-30.03,1.56-37.97-1.97c0,0-3.27-1.44-3.16,3.56c0,0,0.05,23.77-0.31,28.61c0,0-1.02,4.51,1.17,4.38
			c0,0,67.87,2.29,83.82,2.45C396.67,960.06,398.7,960.55,398.34,957.03z"></path>
    <path fill="#265a66" d="M396.49,967.87l-83.06-2.28c-2.2-0.06-3.94-1.89-3.88-4.09l0,0c0.06-2.2,1.89-3.94,4.09-3.88l83.06,2.28
			c2.2,0.06,3.94,1.89,3.88,4.09v0C400.52,966.2,398.69,967.93,396.49,967.87z"></path>
    <path fill="none" stroke="#265a66" stroke-miterlimit="10" stroke-width="2" d="M374.24 940.96c0 0-10.44.45-10.75 18.03M311.98 933.47c0 0 4.99-2.28 11 2.04 0 0 11.81 12.23 12.92 23.2"></path>
    <path fill="#265a66" d="M353.64 931.77 353.64 931.77c-.38-.92.06-1.97.98-2.35l4.47-1.84c.92-.38 1.97.06 2.35.98l0 0c.38.92-.06 1.97-.98 2.35l-4.47 1.84C355.07 933.13 354.02 932.69 353.64 931.77zM358.49 938.61 358.49 938.61c-.61-.78-.47-1.92.31-2.53l3.81-2.98c.78-.61 1.92-.47 2.53.31l0 0c.61.78.47 1.92-.31 2.53l-3.81 2.98C360.23 939.53 359.1 939.39 358.49 938.61zM363.1 943.17 363.1 943.17c-.76-.63-.88-1.77-.25-2.53l3.07-3.73c.63-.76 1.77-.88 2.53-.25v0c.76.63.88 1.77.25 2.53l-3.07 3.73C365 943.68 363.86 943.79 363.1 943.17z"></path>
  </g>
  <g>
    <path fill="#182023" d="M289.2,779.47l-2.68,138.43c0,0,30.43,15.21,71.66-2.26l-10.62-140.8c0,0-12.27-24.38-28.84-20.86
			C318.73,753.99,292.51,755.41,289.2,779.47z"></path>
    <path fill="#110808" d="M358.18,915.64c-5.48,2.85-11.32,5-17.28,6.72c-5.97,1.69-12.11,2.9-18.34,3.41
				c-6.22,0.53-12.56,0.45-18.79-0.56c-3.12-0.46-6.21-1.18-9.25-2.08c-3.04-0.9-5.97-2.14-8.86-3.47l-1.11-0.51l0.02-1.28
				c0.12-9.46,0.34-18.92,0.57-28.38c0.19-9.46,0.54-18.92,0.82-28.37c0.35-9.46,0.71-18.91,1.16-28.37
				c0.46-9.45,0.94-18.91,1.61-28.36c0.31,9.47,0.42,18.93,0.51,28.4c0.08,9.46,0.08,18.93,0.06,28.39
				c-0.09,9.46-0.1,18.92-0.28,28.38c-0.14,9.46-0.29,18.92-0.53,28.38l-1.1-1.79c2.69,1.26,5.43,2.45,8.29,3.33
				c2.84,0.92,5.74,1.69,8.7,2.2c1.47,0.31,2.97,0.47,4.45,0.68c1.5,0.15,2.99,0.31,4.5,0.4c3.01,0.21,6.04,0.25,9.06,0.12
				c3.03-0.14,6.06-0.35,9.08-0.74c3.02-0.38,6.03-0.9,9.02-1.5C346.47,919.4,352.41,917.79,358.18,915.64z"></path>
  </g>
  <g>
    <path fill="#182023" d="M276.27,642.46c-0.45,2.87,12.2,130.64,12.85,141.53c0,0,7.05,27.23,32,25.55c0,0,26.56-4.44,26.22-39.87
			l-18.57-133.45L276.27,642.46z"></path>
  </g>
  <g>
    <path fill="#fbd7cb" d="M309.24,543.74c0,0,15.84-0.59,24.01,16.25c0,0,14.02,21.74,20.03,42.04c0,0,6.3,16.05-2.1,22.13
				c0,0-15,15.59-30.17-2.12c0,0-16.61-31.92-21.46-51.18C299.55,570.87,297.13,548.44,309.24,543.74z"></path>
    <path fill="#50babc" d="M314.38,608.58c3.85-3.74,9.97-8.89,14.32-12.16c7.34-5.52,12.25-6.86,20.56-5.65
				c-6.7-16.33-16.01-30.77-16.01-30.77c-8.17-16.84-24.01-16.25-24.01-16.25c-12.11,4.7-9.69,27.12-9.69,27.12
				C302.38,582.08,309.18,597.58,314.38,608.58z"></path>
  </g>
  <g>
    <path fill="#fbd7cb" d="M336.75,610.54c0,0,7.35-10.72,16.37-6.76c0,0,28.93,8.39,37.15,14.89c0,0-10.1,19.49,2.01,27.3
			c0,0-43.67,10.42-60.91-16.69C331.37,629.27,327.8,620.94,336.75,610.54z"></path>
  </g>
  <g>
    <path fill="#2d3c42" d="M238.38,643.05c-8.11,18.63-10.18,121.42-12.43,132.09c0,0-1.49,28.26,23.95,33.31
			c0,0,16.19,7.19,32.16-15.51l21.45-138.51L238.38,643.05z"></path>
  </g>
  <g>
    <path fill="#ed9a89" d="M229.16,904.15c-0.27,0.26-4.54,8.93-5.08,13.37c0,0-26.53-8.19-34.26-17.26l5.5-11.53L229.16,904.15z"></path>
    <path fill="#60a5ba" d="M248.46,966.01c0,0,3.88-10.27-8.6-21.7c0,0-13.36-7.05-13.62-18.15c0,0,0.19-5.47,0.66-7.38
			c0,0,1.98-3.08-3.53-4.55c0,0-27.9-12.56-33.44-19.43c0,0-2.29-2.82-4.52,1.75c0,0-11,21.53-13.58,25.74c0,0-3.02,3.61-0.98,4.51
			c0,0,60.34,33.62,74.69,41.19C245.54,967.97,247.14,969.36,248.46,966.01z"></path>
    <path fill="#265a66" d="M241.74,974.96l-74.09-40.68c-1.96-1.08-2.68-3.54-1.6-5.51l0,0c1.08-1.96,3.54-2.68,5.51-1.6l74.09,40.68
			c1.96,1.08,2.68,3.54,1.6,5.51l0,0C246.17,975.32,243.7,976.04,241.74,974.96z"></path>
    <path fill="none" stroke="#265a66" stroke-miterlimit="10" stroke-width="2" d="M234.12 940.27c0 0-9.66-4.44-18.1 11.32M181.28 904.54c0 0 5.57.26 9 6.96 0 0 5 16.55.9 26.99"></path>
    <path fill="#265a66" d="M219.76 922.38 219.76 922.38c.08-1 .97-1.75 1.98-1.67l4.9.41c1 .08 1.75.97 1.67 1.98l0 0c-.08 1-.97 1.75-1.98 1.67l-4.9-.41C220.42 924.27 219.67 923.38 219.76 922.38zM220.96 930.82 220.96 930.82c-.19-.99.46-1.95 1.45-2.14l4.83-.93c.99-.19 1.95.46 2.14 1.45l0 0c.19.99-.46 1.95-1.45 2.14l-4.83.93C222.12 932.46 221.15 931.81 220.96 930.82zM223.02 937.08 223.02 937.08c-.4-.92.03-2.01.95-2.41l4.51-1.95c.92-.4 2.01.03 2.41.95l0 0c.4.92-.03 2.01-.95 2.41l-4.51 1.95C224.5 938.43 223.42 938.01 223.02 937.08z"></path>
  </g>
  <g>
    <path fill="#2d3c42" d="M281.38,790.87L231.36,906c0,0-36.84,4.33-64.2-21.99l60.6-111.7c0,0,13.11-15.92,33.55-11
			C261.31,761.3,283.21,765.47,281.38,790.87z"></path>
    <path fill="#110808" d="M260.94,837.92c-2.14,5.82-4.45,11.57-6.72,17.33l-3.49,8.6l-3.54,8.58l-7.14,17.12
				c-1.21,2.84-2.4,5.69-3.58,8.54l-1.72,4.27l-0.79,2.12l-0.2,0.53l-0.15,0.46l-0.3,0.9l-0.49,1.5l-1.25,0.1
				c-3.1,0.25-6.02,0.26-9.01,0.16c-2.97-0.11-5.94-0.33-8.88-0.74c-5.88-0.81-11.72-2.08-17.32-4.07c-5.61-1.93-11-4.52-15.96-7.75
				c-4.96-3.21-9.44-7.14-13.24-11.57c4.42,3.83,9.12,7.25,14.22,9.93c5.06,2.76,10.42,4.86,15.91,6.47
				c5.5,1.58,11.14,2.68,16.83,3.28c2.85,0.28,5.7,0.5,8.55,0.56c2.83,0.07,5.76,0.02,8.47-0.23l-1.74,1.61l0.38-1.31l0.2-0.65
				l0.21-0.56l0.85-2.22l1.79-4.32c1.21-2.86,2.44-5.71,3.69-8.54c2.57-5.64,5.09-11.3,7.76-16.88l4-8.38l4.1-8.34
				C255.18,848.9,257.97,843.37,260.94,837.92z"></path>
  </g>
  <g>
    <path fill="#a4f9ff" d="M229.05,554.44c0,0,15.79-8.99,43.66-14.64c0,0,8.54,10.52,18.32,9.58c0,0,10.26,0.81,15.44-8.63
			c0,0,9.8,2.36,14.51,6.5c0,0,9.14,11.07,10.82,95.42c0,0,3.37,4.62-0.33,8.71c0,0-30.76,34.97-98.63,13.91
			c0,0-5.69-3.64-0.83-10.97c0,0,4.86-20.56-2.08-42.53C229.91,611.79,218.65,566.36,229.05,554.44z"></path>
    <path fill="#267775" d="M321.98,549.19c2.68,7.4,4.34,15.14,5.76,22.88c1.41,7.75,2.46,15.57,3.22,23.41
					c0.8,7.84,1.24,15.71,1.61,23.58l0.35,11.81l0.08,11.82l-0.24-0.74c0.44,0.64,0.72,1.18,0.98,1.82
					c0.26,0.62,0.46,1.27,0.57,1.95c0.25,1.35,0.12,2.84-0.42,4.16c-0.27,0.66-0.63,1.27-1.05,1.82c-0.42,0.54-0.84,0.99-1.27,1.43
					c-0.85,0.88-1.74,1.7-2.65,2.5c-3.64,3.17-7.67,5.82-11.88,8.11c-8.46,4.53-17.74,7.39-27.18,8.82
					c-4.72,0.74-9.5,1.07-14.27,1.11c-2.39,0.06-4.77-0.06-7.15-0.14c-1.19-0.06-2.38-0.17-3.56-0.26
					c-1.19-0.09-2.37-0.19-3.55-0.36c-9.46-1.13-18.76-3.23-27.82-6.06l0.46,0.06c-0.5,0-0.78-0.05-1.15-0.14
					c-0.35-0.09-0.69-0.2-1.02-0.36c-0.66-0.32-1.27-0.81-1.71-1.42c-0.9-1.22-1.09-2.61-1.09-3.82c0.05-2.44,0.77-4.56,1.55-6.6
					l-0.06,0.19c0.87-4.02,1.36-8.28,1.61-12.47c0.24-4.21,0.21-8.44-0.1-12.64c-0.34-4.2-0.92-8.38-1.87-12.48
					c-0.22-1.03-0.5-2.04-0.76-3.06l-0.44-1.54l-0.11-0.38l-0.11-0.42l-0.19-0.79c-0.5-2.1-0.95-4.19-1.39-6.3
					c-1.71-8.41-3.06-16.91-3.62-25.51c-0.25-4.3-0.35-8.62,0.13-12.94c0.24-2.15,0.61-4.31,1.25-6.4c0.64-2.09,1.56-4.16,3.05-5.85
					l0.07-0.08l0.09-0.04c4.5-2.03,9.08-3.82,13.71-5.49c4.63-1.66,9.33-3.1,14.07-4.4c-4.69,1.47-9.3,3.14-13.87,4.93
					c-4.56,1.79-9.08,3.72-13.47,5.86l0.16-0.12c-1.3,1.56-2.11,3.52-2.66,5.52c-0.55,2.01-0.84,4.1-1.01,6.2
					c-0.32,4.21-0.19,8.46,0.15,12.69c0.71,8.46,2.2,16.87,4.05,25.18c0.47,2.08,0.96,4.15,1.49,6.2l0.2,0.77l0.1,0.35l0.12,0.38
					l0.48,1.54c0.29,1.04,0.6,2.09,0.85,3.14c1.07,4.21,1.73,8.51,2.1,12.83c0.35,4.32,0.41,8.66,0.19,12.99
					c-0.24,4.34-0.69,8.61-1.6,12.95l-0.02,0.08l-0.04,0.11c-0.71,1.87-1.31,3.82-1.32,5.6c0.01,0.87,0.18,1.67,0.56,2.15
					c0.18,0.25,0.41,0.43,0.69,0.57c0.14,0.07,0.3,0.12,0.46,0.16c0.14,0.04,0.38,0.06,0.41,0.06l0.24-0.01l0.22,0.07
					c8.93,2.73,18.08,4.74,27.32,5.78c1.15,0.16,2.31,0.25,3.47,0.33c1.16,0.08,2.32,0.21,3.48,0.27c2.32,0.09,4.64,0.23,6.96,0.18
					c4.64-0.01,9.29-0.3,13.87-0.99c9.17-1.33,18.15-4.05,26.33-8.36c4.07-2.17,7.97-4.71,11.45-7.7c0.86-0.75,1.72-1.52,2.5-2.33
					c0.39-0.4,0.77-0.81,1.08-1.2c0.3-0.38,0.54-0.79,0.72-1.22c0.36-0.86,0.45-1.81,0.3-2.77c-0.14-0.94-0.56-1.99-1.05-2.74
					l-0.24-0.36l0-0.37l0.14-11.77l-0.13-11.77c-0.22-7.84-0.51-15.69-1.16-23.51c-0.59-7.82-1.34-15.64-2.52-23.4
					c-0.28-1.94-0.63-3.87-0.94-5.81c-0.36-1.93-0.7-3.86-1.11-5.78C324.08,556.77,323.2,552.93,321.98,549.19z"></path>
  </g>
  <g>
    <path fill="#fbd7cb" d="M230.48,553.49c0,0-11.85,3.65-14.39,17.21c0,0-5.08,23.44-1.64,47.77c0,0,2.82,22.19,9.64,23.82
				c0,0,20.51,11.42,23.67-16.89c0,0,4.67-31.41,3.8-53.23C251.56,572.17,250.75,549.22,230.48,553.49z"></path>
    <path fill="#50babc" d="M213.5,606.66c12.17-4.82,24.94-5.22,36.65-1.31c0.99-10.3,1.83-22.82,1.42-33.19
				c0,0-0.81-22.95-21.08-18.68c0,0-11.85,3.65-14.39,17.21c0,0-3.55,16.41-2.7,36.01C213.43,606.69,213.46,606.68,213.5,606.66z"></path>
    <path fill="#267775" d="M213.39,606.71c2.85-1.32,5.82-2.42,8.87-3.23c3.05-0.82,6.19-1.39,9.36-1.66
					c3.17-0.28,6.39-0.26,9.58,0.12c3.19,0.35,6.36,1.09,9.4,2.17l-1.77,0.98c0.78-5.27,1.13-10.79,1.3-16.23
					c0.21-5.46,0.18-10.93,0.09-16.42c-0.09-2.56-0.63-5.23-1.43-7.72c-0.83-2.48-2.04-4.85-3.78-6.73
					c-1.73-1.88-3.99-3.24-6.52-3.83c-2.53-0.6-5.24-0.5-7.89-0.05l0.06-0.02c-1.2,0.36-2.44,0.9-3.6,1.52
					c-1.16,0.63-2.28,1.33-3.32,2.15c-2.08,1.64-3.85,3.71-5.02,6.14c0.93-2.54,2.53-4.84,4.55-6.69c1.01-0.93,2.11-1.77,3.28-2.49
					c1.18-0.72,2.38-1.36,3.73-1.86l0.01,0l0.05-0.01c2.73-0.67,5.64-0.94,8.52-0.41c2.87,0.51,5.65,1.94,7.71,4.06
					c2.09,2.1,3.53,4.71,4.54,7.4c1,2.72,1.6,5.5,1.79,8.44c0.34,5.52,0.38,11.07,0.23,16.62c-0.25,5.56-0.6,11.06-1.69,16.66
					l-0.3,1.54l-1.47-0.56c-2.83-1.07-5.78-1.9-8.79-2.39c-1.51-0.25-3.03-0.43-4.56-0.52c-1.53-0.11-3.07-0.16-4.61-0.12
					C225.55,603.7,219.38,604.82,213.39,606.71z"></path>
  </g>
  <g>
    <path fill="#fbd7cb" d="M307.25,477.09c0,0,3.91,9.6,4.41,26.46c0,0,1.31,22.48-7.55,29.75c0,0-5.2,5.52-10.67,5.9
			c0,0-3.84,1.87-11.14-2.29c0,0-9.56-2.78-13.15-17.4c0,0-7.77-29.35-4.15-40.1c0,0,4.04-11.16,18.14-12.24
			C283.14,467.17,301.27,463.34,307.25,477.09z"></path>
  </g>
  <g>
    <path fill="#cd7970" d="M293.25,496.63c0.54,1.16,1.02,2.31,1.5,3.46l1.43,3.41c0.48,1.13,1,2.22,1.54,3.28
				c0.54,1.04,1.16,2.07,1.88,2.78l1.23,1.22l-1.57,0.38c-1.4,0.34-2.78,0.58-4.21,0.71c-0.71,0.06-1.42,0.1-2.14,0.07
				c-0.72-0.02-1.44-0.09-2.13-0.3c1.4-0.22,2.71-0.63,4.04-1.02c1.31-0.4,2.64-0.82,3.92-1.24l-0.34,1.59
				c-1.16-0.95-1.84-2.12-2.44-3.27c-0.6-1.16-1.06-2.37-1.43-3.59c-0.38-1.22-0.68-2.45-0.89-3.7
				C293.41,499.17,293.26,497.91,293.25,496.63z"></path>
  </g>
  <g>
    <path fill="#57124e" d="M284.8,498.88c0.3,1.77-0.3,3.35-1.33,3.53c-1.03,0.17-2.11-1.13-2.4-2.9s0.3-3.35,1.33-3.53
			C283.43,495.81,284.51,497.11,284.8,498.88z"></path>
  </g>
  <g>
    <path fill="#57124e" d="M303.61,495.59c0.3,1.78-0.3,3.35-1.33,3.53c-1.03,0.17-2.11-1.13-2.4-2.9s0.3-3.35,1.33-3.53
			C302.24,492.52,303.32,493.82,303.61,495.59z"></path>
  </g>
  <g>
    <path fill="#57124e" d="M283.3,489.84c0,0,0.95-2.62-2.37-2.68c0,0-4.04,0.21-5.13,6.54c0,0,0.27,3.49,2.27,1.62
			C278.06,495.32,279.51,491.08,283.3,489.84z"></path>
  </g>
  <g>
    <path fill="#57124e" d="M299.76,487.44c0,0-1.74-2.17,1.37-3.3c0,0,3.89-1.11,6.98,4.52c0,0,0.87,3.39-1.62,2.27
			C306.49,490.93,303.75,487.39,299.76,487.44z"></path>
  </g>
  <g>
    <path fill="#57124e" d="M256.91,474.46c0,0-1.1,8.17,12.56,8.97c0,0,29.57,3.21,41.95-8.22c0,0,4.81-3.41,4.14-7.45
			c0,0-0.35-8.55-23.89-12c0,0-20.08-1.11-27.21,6.84C264.46,462.6,258.16,466.26,256.91,474.46z"></path>
    <path fill="#57124e" d="M305.22 477.77c0 0 5.9 12.18 6.12 21.57 0 0-.25 4.13 2.26-5.05 0 0 1.69-6.25 2.48-9.22 0 0 2.57-12.19-3.63-14.38 0 0-3.69-.54-5.64 1.52C306.82 472.21 303.84 474.64 305.22 477.77zM265.99 479.13c0 0 3.09 2.48.86 10.69 0 0-2.04 7.83-1.06 12.97.97 3.76 1.57 9.12-3.31 2.7 0 0-8.69-5.47-8.6-14.39 0 0-.43-12.86 6.53-12.31C260.4 478.78 264.7 476.85 265.99 479.13z"></path>
    <path fill="#57124e" d="M294.46 483.96c-2.75.91-5.62 1.43-8.51 1.76-2.89.3-5.82.36-8.73.14-.73-.03-1.46-.09-2.19-.18-.73-.09-1.46-.14-2.19-.25-1.44-.26-2.9-.53-4.28-1.03-2.8-.89-5.44-2.27-7.8-4l.09-.18c2.84.73 5.5 1.65 8.26 2.25 2.73.66 5.45 1.43 8.27 1.8 2.8.4 5.66.55 8.51.45 2.85-.06 5.71-.36 8.51-.96L294.46 483.96zM270.12 459.22c3.21-1.87 6.68-3.26 10.26-4.28 3.6-.97 7.34-1.54 11.12-1.46 3.76.05 7.63.59 11.11 2.19 1.73.8 3.4 1.74 4.89 2.9 1.53 1.11 2.86 2.47 4.07 3.89l-.13.15c-3.1-2.04-6.22-3.86-9.58-5.09-3.34-1.22-6.8-2.21-10.41-2.44-3.6-.26-7.25.08-10.82.84-3.57.74-7.1 1.87-10.4 3.48L270.12 459.22z"></path>
    <path fill="#57124e" d="M262.13,478.72c0.93-0.68,2.21-1.05,3.53-0.65c1.33,0.41,2.25,1.6,2.71,2.74c0.5,1.15,0.69,2.35,0.74,3.52
				c0.05,1.17-0.07,2.31-0.19,3.44l-0.01,0.09l-0.01,0.03c-0.72,2.86-1.31,5.79-1.83,8.71c-0.26,1.46-0.51,2.93-0.7,4.4
				c-0.17,1.47-0.34,2.95-0.24,4.42l-0.2,0.03c-0.28-1.49-0.26-3.01-0.22-4.51c0.05-1.5,0.14-3,0.3-4.49
				c0.3-2.99,0.7-5.94,1.17-8.93l-0.02,0.12c0.02-1.08-0.04-2.15-0.12-3.19c-0.08-1.04-0.21-2.05-0.46-2.99
				c-0.28-0.92-0.7-1.72-1.45-2.19c-0.75-0.48-1.85-0.57-2.92-0.37L262.13,478.72z"></path>
  </g>
  <g>
    <path fill="#fbd7cb" d="M267.35,507.6c0,0-2.41-6.52-8.64-3.18c0,0-5.04,3.14,0.52,10.67c0,0,5.78,7.95,10.21,0.45L267.35,507.6z"></path>
    <path fill="#cd7970" d="M260.14,508.56c0.23-0.55,0.66-1.04,1.23-1.34c0.58-0.31,1.33-0.31,1.94-0.07
				c0.33,0.09,0.58,0.28,0.87,0.44c0.24,0.2,0.52,0.38,0.73,0.6c0.47,0.42,0.84,0.9,1.22,1.39l1.58,2.04l-2.25-1.34
				c-0.14-0.08-0.38-0.17-0.56-0.18c-0.19-0.02-0.35,0.01-0.5,0.1c-0.15,0.09-0.28,0.25-0.41,0.44c-0.12,0.2-0.22,0.42-0.31,0.66
				l0.02-0.09c-0.06,0.75,0,1.63,0.44,2.17c0.22,0.26,0.56,0.46,0.97,0.48c0.4,0.05,0.83-0.03,1.26-0.1
				c-0.19,0.09-0.39,0.2-0.6,0.29c-0.22,0.05-0.43,0.14-0.66,0.15c-0.46,0.09-1-0.05-1.39-0.39c-0.4-0.34-0.62-0.81-0.75-1.27
				c-0.13-0.47-0.19-0.92-0.17-1.41l0-0.03l0.02-0.06c0.08-0.29,0.19-0.59,0.34-0.88c0.18-0.28,0.39-0.58,0.72-0.78
				c0.33-0.21,0.74-0.3,1.11-0.26c0.38,0.04,0.68,0.16,1.01,0.37l-0.68,0.69c-0.34-0.45-0.68-0.91-1.05-1.31
				c-0.38-0.4-0.79-0.77-1.25-1c-0.46-0.24-0.97-0.34-1.49-0.19C261.01,507.76,260.54,508.13,260.14,508.56z"></path>
  </g>
  <g>
    <path fill="#57124e" d="M303.45,517.67c0,0-7.97,6.55-17.41,0.14C286.04,517.8,295.38,532.84,303.45,517.67z"></path>
  </g>
  <g>
    <path fill="#f9d5c9" stroke="#cb7970" stroke-miterlimit="10" d="M289.59,622.11c0,0,0.61,5.2,12.22,3.3c0,0,7.47-1.06,9.5-5.24c0,0,7.93,10.12,12.24,6.26
			c0,0,3.93-2.35,2.24-6.8c0,0,8.93-1.47,3.02-12.04c0,0,6.89-3.51-0.12-11.17c0,0-6.4-5.65-9.91-6.58c0,0-2.37-1.01-8.88,0.79
			c0,0-15.75,2.85-20.03,5.58C289.87,596.21,287.69,608.52,289.59,622.11z"></path>
    <path fill="none" stroke="#cb7970" stroke-miterlimit="10" d="M309.28 607.21c0 0 7.42-.37 16.51 12.43M314.12 597.37c0 0 5.61 1.49 14.69 10.21"></path>
  </g>
  <g>
    <path fill="#fbd7cb" d="M219.9,621.86c0,0,3.07-7.29,31.07-15.57c0,0,25.84-7.72,39.49-11.01c0,0,9.73,13.74,0.15,30.12
			c0,0-44.11,20.92-57.35,20.84C233.26,646.25,210.52,648.87,219.9,621.86z"></path>
    <path fill="none" d="M272.99 600.76"></path>
  </g>
  <g>
    <rect width="49.1" height="8.43" x="280.09" y="629.17" fill="#394e54" transform="rotate(-179.037 304.747 633.64)"></rect>
    <polygon fill="#2f4547" points="320.82 637.87 343.1 557.52 445.27 559.24 427.61 639.67"></polygon>
    <polygon fill="#4a6166" points="327.89 637.99 350.17 557.64 452.33 559.36 434.67 639.78"></polygon>
  </g>
  <g>
    <path fill="#f9d5c9" stroke="#cb7970" stroke-miterlimit="10" d="M387.34,638.99c0,0,17.62-3.25,21.05-6.62c0,0-3.46-21.09,1.81-21.99c0,0,1.95,0.15,3.85,3.33
			c0,0,3.33-6.96,9.05,8.98c0,0-0.49-8.48,4.16-8.38c0,0,3.95-0.24,4.33,11.85c0,0,0.78,9.09-3.97,14.08c0,0,2.83-3.5,6.51-3.34
			c0,0,0.44-14.47,5.04-14.48c0,0,5.89-1.06,2.46,17.25c0,0-0.47,4.8-13.56,9.76c0,0-3.18,2.22-34.89-3.97
			C393.18,645.46,387.8,644.76,387.34,638.99z"></path>
    <path fill="none" stroke="#cb7970" stroke-miterlimit="10" d="M413.8 613.09c0 0 5.74 19.67.59 22.35M423.26 623.01c0 0 2.75 13.03-.56 16.57"></path>
  </g>
</svg>
