<svg xmlns="http://www.w3.org/2000/svg" viewBox="0 0 4680 3120" id="product-development-team-conducts-market-research-for-new-product">
  <g>
    <rect width="4680" height="3120" fill="#fff" opacity="0"></rect>
    <path fill="#ede3cc" d="M3599.18,2511.9s185.52-205.13,40.36-425.85,19.37-86.21,165-470.86c189.48-500.5-378.9-1139-882.77-1160.15-844.07-35.5-661.9,522.46-834.61,313.16C1756.63,367.65,1167.4,359.48,1011.52,801c-182.93,518.14,150,800.49-138.29,880-411.75,113.59-382,823.85,80.68,819.61Z"></path>
    <path fill="#fff" d="M2609.82,397.45V1406.66a37.45,37.45,0,0,1-37.45,37.44H1317.6a37.44,37.44,0,0,1-37.45-37.44V397.45A37.45,37.45,0,0,1,1317.6,360H2572.37A37.45,37.45,0,0,1,2609.82,397.45Z"></path>
    <path fill="#299ef7" d="M2609.82,397.45v38.26H1280.15V397.45A37.45,37.45,0,0,1,1317.6,360H2572.37A37.45,37.45,0,0,1,2609.82,397.45Z"></path>
    <circle cx="2421.37" cy="400.98" r="11.1" fill="#fff"></circle>
    <circle cx="2474.71" cy="400.98" r="11.1" fill="#fff"></circle>
    <circle cx="2525.67" cy="400.98" r="11.1" fill="#fff"></circle>
    <rect width="31.01" height="31.01" x="2150.52" y="492.51" fill="#ff9c00"></rect>
    <path fill="#c2daf4" d="M2211,498.7h297.17a.9.9,0,0,1,.9.9v19a.91.91,0,0,1-.91.91H2211a.91.91,0,0,1-.91-.91v-19A.91.91,0,0,1,2211,498.7Z"></path>
    <rect width="31.01" height="31.01" x="2150.52" y="547.52" fill="#ff402c"></rect>
    <path fill="#c2daf4" d="M2211,553.71h297.17a.9.9,0,0,1,.9.9v19a.91.91,0,0,1-.91.91H2211a.91.91,0,0,1-.91-.91v-19A.9.9,0,0,1,2211,553.71Z"></path>
    <path fill="#f68400" d="M1608 541.85a22.32 22.32 0 0 1 4.42 13.95q0 11.94-9.61 18.42T1575 580.71h-49V489.89h46.45q17.37 0 26.46 6.42a20.15 20.15 0 0 1 9.08 17.32 21.61 21.61 0 0 1-3.17 11.61 22.17 22.17 0 0 1-9 8.11A25.46 25.46 0 0 1 1608 541.85Zm-56.56-33.41V526h17.64q13 0 13-8.82t-13-8.7Zm35 44.5q0-9.21-13.5-9.21h-21.53v18.43h21.53Q1586.44 562.16 1586.44 552.94ZM1665.45 556.58h-14v24.13h-25.69V489.89h41.51q12.33 0 21.41 4.09a31.63 31.63 0 0 1 14 11.67 32 32 0 0 1 4.93 17.84 31.6 31.6 0 0 1-4.6 17.19 31.16 31.16 0 0 1-13.17 11.49l19.59 28.54h-27.5Zm12.19-43q-4-3.5-11.93-3.5h-14.27v26.6h14.27q7.9 0 11.93-3.44t4-9.8Q1681.67 517.15 1677.64 513.63ZM1782.6 563.06h-38.4l-7.14 17.65h-26.2L1751 489.89h25.3l40.21 90.82h-26.72Zm-7.52-18.94-11.68-29.06-11.68 29.06ZM1910.14 489.89v90.82H1889l-40.09-48.39v48.39h-25.17V489.89h21.15L1885 538.28V489.89ZM1928.3 489.89h42.94q14.92 0 26.47 5.58a42 42 0 0 1 17.9 15.83q6.36 10.24 6.36 24t-6.36 24a41.91 41.91 0 0 1-17.9 15.83q-11.55 5.58-26.47 5.58H1928.3Zm41.91 70.32q11.67 0 18.74-6.62T1996 535.3q0-11.67-7.07-18.29t-18.74-6.62H1954v49.82Z"></path>
    <circle cx="1639.56" cy="1343.81" r="77.74" fill="#299ef7" transform="rotate(-79.96 1639.432 1343.82)"></circle>
    <path fill="#acd1ff" d="M1711.89,1373.2a77.74,77.74,0,0,0-42.32-101.46l-29.7,72.2Z"></path>
    <path fill="#f4a61d" d="M1640.8,1344.33l35.91-87.3a93.72,93.72,0,0,0-71.94.18Z"></path>
    <rect width="216.33" height="44.9" x="1744.41" y="1311.17" fill="#fc488c"></rect>
    <circle cx="2120.99" cy="1343.81" r="77.74" fill="#299ef7" transform="rotate(-82.1 2121.126 1343.792)"></circle>
    <path fill="#acd1ff" d="M2193.33,1373.2A77.73,77.73,0,0,0,2151,1271.74l-29.7,72.2Z"></path>
    <rect width="216.33" height="44.9" x="2225.85" y="1311.17" fill="#fc488c"></rect>
    <path fill="#f4a61d" d="M2121.3,1343.94l-39.58,82.34s-36.48-20.65-39.92-44.74C2043.17,1377.41,2121.3,1343.94,2121.3,1343.94Z"></path>
    <rect width="372.31" height="228.31" x="1412.48" y="648.49" fill="#acd1ff" rx="51.89"></rect>
    <circle cx="1519.13" cy="762.65" r="67.12" fill="#ffc83e" transform="rotate(-45 1519.128 762.646)"></circle>
    <path fill="#f45252" d="M1571.16,720.26a67,67,0,0,0-52-24.73v67.12Z"></path>
    <path fill="#299ef7" d="M1571.16,720.26l-52,42.39L1552.31,821a67.09,67.09,0,0,0,18.85-100.72Z"></path>
    <path fill="#325681" d="M1481.19,818a67.11,67.11,0,0,0,71.12,3l-33.18-58.33Z"></path>
    <path fill="#fff" d="M1457.17,788.49a67.44,67.44,0,0,0,24,29.52l37.94-55.36Z"></path>
    <rect width="14.46" height="14.46" x="1626.24" y="693.91" fill="#f45252"></rect>
    <path fill="#fefefe" d="M1724.8,705h-73.25a3.85,3.85,0,0,1-3.85-3.85h0a3.85,3.85,0,0,1,3.85-3.85h73.25a3.85,3.85,0,0,1,3.85,3.85h0A3.85,3.85,0,0,1,1724.8,705Z"></path>
    <rect width="14.46" height="14.46" x="1626.24" y="724.66" fill="#2776cc"></rect>
    <path fill="#fefefe" d="M1724.8,735.74h-73.25a3.85,3.85,0,0,1-3.85-3.85h0a3.85,3.85,0,0,1,3.85-3.85h73.25a3.85,3.85,0,0,1,3.85,3.85h0A3.85,3.85,0,0,1,1724.8,735.74Z"></path>
    <rect width="14.46" height="14.46" x="1626.24" y="755.42" fill="#325681"></rect>
    <path fill="#fefefe" d="M1724.8,766.5h-73.25a3.85,3.85,0,0,1-3.85-3.85h0a3.85,3.85,0,0,1,3.85-3.85h73.25a3.85,3.85,0,0,1,3.85,3.85h0A3.85,3.85,0,0,1,1724.8,766.5Z"></path>
    <rect width="14.46" height="14.46" x="1626.24" y="786.17" fill="#fff"></rect>
    <path fill="#fefefe" d="M1724.8,797.25h-73.25a3.85,3.85,0,0,1-3.85-3.85h0a3.85,3.85,0,0,1,3.85-3.85h73.25a3.85,3.85,0,0,1,3.85,3.85h0A3.85,3.85,0,0,1,1724.8,797.25Z"></path>
    <rect width="14.46" height="14.46" x="1626.24" y="816.92" fill="#ffc83e"></rect>
    <path fill="#fefefe" d="M1724.8,828h-73.25a3.84,3.84,0,0,1-3.85-3.84h0a3.85,3.85,0,0,1,3.85-3.85h73.25a3.85,3.85,0,0,1,3.85,3.85h0A3.84,3.84,0,0,1,1724.8,828Z"></path>
    <rect width="533.45" height="589.32" x="1946.24" y="659.8" fill="#acd1ff" rx="29"></rect>
    <path fill="#ed2b47" d="M2415.46,604.12h0a5.9,5.9,0,0,1,10.32-2.74h0a5.89,5.89,0,0,0,9.81-1.21h0a5.9,5.9,0,0,1,10.68.14h0a5.89,5.89,0,0,0,9.77,1.48h0a5.9,5.9,0,0,1,10.24,3h0a5.9,5.9,0,0,0,9,4.06h0a5.9,5.9,0,0,1,9,5.67h0a5.89,5.89,0,0,0,7.58,6.34h0a5.9,5.9,0,0,1,7.18,7.9h0a5.9,5.9,0,0,0,5.6,8.15h0a5.9,5.9,0,0,1,4.78,9.55h0a5.9,5.9,0,0,0,3.19,9.36h0a5.9,5.9,0,0,1,2,10.48h0a5.89,5.89,0,0,0,.54,9.87h0a5.9,5.9,0,0,1-.87,10.64h0a5.9,5.9,0,0,0-2.14,9.66h0a5.9,5.9,0,0,1-3.71,10h0a5.9,5.9,0,0,0-4.67,8.72h0a5.89,5.89,0,0,1-6.27,8.63h0a5.9,5.9,0,0,0-6.85,7.14h0a5.89,5.89,0,0,1-8.37,6.62h0a5.9,5.9,0,0,0-8.52,5h0a5.89,5.89,0,0,1-9.84,4.12h0a5.9,5.9,0,0,0-9.56,2.54h0a5.9,5.9,0,0,1-10.59,1.31h0a5.9,5.9,0,0,0-9.89-.13h0a5.9,5.9,0,0,1-10.56-1.6h0a5.89,5.89,0,0,0-9.48-2.79h0a5.91,5.91,0,0,1-9.74-4.39h0a5.9,5.9,0,0,0-8.38-5.25h0a5.9,5.9,0,0,1-8.19-6.84h0a5.89,5.89,0,0,0-6.65-7.32h0a5.9,5.9,0,0,1-6-8.8h0a5.9,5.9,0,0,0-4.43-8.85h0a5.89,5.89,0,0,1-3.44-10.1h0a5.9,5.9,0,0,0-1.88-9.71h0a5.9,5.9,0,0,1-.59-10.66h0a5.9,5.9,0,0,0,.81-9.86h0a5.9,5.9,0,0,1,2.31-10.42h0a5.89,5.89,0,0,0,3.44-9.27h0a5.9,5.9,0,0,1,5-9.41h0a5.9,5.9,0,0,0,5.81-8h0a5.9,5.9,0,0,1,7.39-7.71h0a5.89,5.89,0,0,0,7.75-6.13h0a5.91,5.91,0,0,1,9.2-5.43h0A5.89,5.89,0,0,0,2415.46,604.12Z"></path>
    <path fill="#fff" d="M2417.55 660.11V692.7H2410l-14.39-17.36V692.7h-9V660.11h7.59l14.38 17.37V660.11ZM2450.23 685.58v7.12h-26.16V660.11h25.56v7.13h-16.44v5.49h14.48v6.89h-14.48v6ZM2506 660.11l-10.57 32.59h-9.87l-6.24-19.83-6.51 19.83h-9.87l-10.57-32.59h9.5l6.56 20.81 6.89-20.81h8.47l6.57 21 6.84-21Z"></path>
    <path fill="#299ef7" fill-rule="evenodd" d="M2356.36,1176.15H2051.08a31.53,31.53,0,0,1,.81-8.51c1.27-6.13,6.26-15.54,11.6-33.8,1.8-6.16,3.65-13.32,5.4-21.7,1.06-5.06,1.83-15.42,2.36-29.44,2.95-78.08-1.78-269.77-8.07-293.1-5.45-20.19-10.06-30.72-11.4-36.5h303.89c-1.34,5.78-6,16.31-11.4,36.5-1.8,6.7-3.48,27.32-4.89,55.15-4.37,86.38-6.09,242.24-.83,267.39,7,33.24,15.31,47.31,17,55.5A31.41,31.41,0,0,1,2356.36,1176.15Z"></path>
    <polygon fill="#0071b8" fill-rule="evenodd" points="2283.69 730.99 2279.69 728.29 2275.7 725.58 2271.7 728.29 2267.7 730.99 2263.7 728.29 2259.7 725.58 2255.7 728.29 2251.7 730.99 2247.71 728.29 2243.71 725.58 2239.71 728.29 2235.71 730.99 2231.71 728.29 2227.71 725.58 2223.72 728.29 2219.72 730.99 2215.72 728.29 2211.72 725.58 2207.72 728.29 2203.72 730.99 2199.72 728.29 2195.73 725.58 2191.73 728.29 2187.73 730.99 2183.73 728.29 2179.73 725.58 2175.73 728.29 2171.74 730.99 2167.74 728.29 2163.74 725.58 2159.74 728.29 2155.74 730.99 2151.74 728.29 2147.74 725.58 2143.74 728.29 2139.75 730.99 2135.75 728.29 2131.75 725.58 2127.75 728.29 2123.75 730.99 2119.75 728.29 2115.76 725.58 2111.76 728.29 2107.76 730.99 2103.76 728.29 2099.76 725.58 2095.76 728.29 2091.76 730.99 2087.77 728.29 2083.77 725.58 2079.77 728.29 2075.77 730.99 2071.77 728.29 2067.77 725.58 2063.78 728.29 2059.78 730.99 2055.78 728.29 2051.78 725.58 2051.78 753.11 2355.67 753.11 2355.67 725.58 2351.67 728.29 2347.67 730.99 2343.67 728.29 2339.67 725.58 2335.67 728.29 2331.68 730.99 2327.68 728.29 2323.68 725.58 2319.68 728.29 2315.68 730.99 2311.68 728.29 2307.68 725.58 2303.69 728.29 2299.69 730.99 2295.69 728.29 2291.69 725.58 2287.69 728.29 2283.69 730.99"></polygon>
    <polygon fill="#0071b8" fill-rule="evenodd" points="2284.39 1198.26 2280.39 1200.97 2276.39 1203.67 2272.39 1200.97 2268.39 1198.26 2264.4 1200.97 2260.4 1203.67 2256.4 1200.97 2252.4 1198.26 2248.4 1200.97 2244.4 1203.67 2240.41 1200.97 2236.41 1198.26 2232.41 1200.97 2228.41 1203.67 2224.41 1200.97 2220.41 1198.26 2216.41 1200.97 2212.42 1203.67 2208.42 1200.97 2204.42 1198.26 2200.42 1200.97 2196.42 1203.67 2192.42 1200.97 2188.43 1198.26 2184.43 1200.97 2180.43 1203.67 2176.43 1200.97 2172.43 1198.26 2168.43 1200.97 2164.43 1203.67 2160.43 1200.97 2156.44 1198.26 2152.44 1200.97 2148.44 1203.67 2144.44 1200.97 2140.44 1198.26 2136.44 1200.97 2132.45 1203.67 2128.45 1200.97 2124.45 1198.26 2120.45 1200.97 2116.45 1203.67 2112.45 1200.97 2108.45 1198.26 2104.46 1200.97 2100.46 1203.67 2096.46 1200.97 2092.46 1198.26 2088.46 1200.97 2084.46 1203.67 2080.46 1200.97 2076.47 1198.26 2072.47 1200.97 2068.47 1203.67 2064.47 1200.97 2060.47 1198.26 2056.47 1200.97 2052.47 1203.67 2052.47 1176.15 2356.36 1176.15 2356.36 1203.67 2352.36 1200.97 2348.36 1198.26 2344.37 1200.97 2340.37 1203.67 2336.37 1200.97 2332.37 1198.26 2328.37 1200.97 2324.37 1203.67 2320.38 1200.97 2316.38 1198.26 2312.38 1200.97 2308.38 1203.67 2304.38 1200.97 2300.38 1198.26 2296.38 1200.97 2292.39 1203.67 2288.39 1200.97 2284.39 1198.26"></polygon>
    <path fill="#fff000" fill-rule="evenodd" d="M2337.36,895.17c-29.31-27.39-78.23-45.33-133.64-45.33s-104.33,17.94-133.63,45.33c1.23,39.06,2,83,2.06,121.24,29.51,26.33,77.45,43.45,131.57,43.45s102.07-17.12,131.58-43.45C2335.36,978.13,2336.12,934.23,2337.36,895.17Z"></path>
    <path fill="#fff000" d="M2228.15 791.56h-37.06a5 5 0 0 1-5-5h0a5 5 0 0 1 5-5h37.06a5 5 0 0 1 5 5h0A5 5 0 0 1 2228.15 791.56ZM2247.46 830.53h-75.68a14.72 14.72 0 0 1-14.72-14.72h0a14.72 14.72 0 0 1 14.72-14.72h75.68a14.72 14.72 0 0 1 14.72 14.72h0A14.72 14.72 0 0 1 2247.46 830.53Z"></path>
    <path fill="#f68b00" fill-rule="evenodd" d="M2158.05,942.2l.24,0,.06-.27a4.34,4.34,0,1,1,8.38,2.25,2.41,2.41,0,0,1-.08.25l.23.1c0-.08.08-.16.13-.24a4.34,4.34,0,1,1,7.51,4.34,1.82,1.82,0,0,1-.15.23l.2.15.19-.2a4.33,4.33,0,0,1,6.13,6.13,1.8,1.8,0,0,1-.2.19l.15.2.23-.15a4.34,4.34,0,1,1,4.34,7.51l-.24.13c0,.08.07.15.1.23l.26-.08a4.34,4.34,0,1,1,2.24,8.38l-.27.06c0,.08,0,.16,0,.24h.27a4.34,4.34,0,1,1,0,8.67h-.27l0,.24.26.07a4.33,4.33,0,1,1-2.24,8.37l-.26-.07-.1.22.24.13a4.34,4.34,0,1,1-4.34,7.51l-.23-.14-.15.19.2.19a4.33,4.33,0,0,1-6.13,6.13,1.8,1.8,0,0,1-.19-.2l-.2.15.15.24a4.33,4.33,0,0,1-7.51,4.33l-.13-.23-.23.09a2.58,2.58,0,0,1,.08.26,4.34,4.34,0,1,1-8.38,2.24l-.06-.26-.24,0c0,.09,0,.18,0,.27a4.34,4.34,0,0,1-8.68,0c0-.09,0-.18,0-.27l-.24,0a2,2,0,0,1-.07.26,4.33,4.33,0,1,1-8.37-2.24c0-.09.05-.17.07-.26l-.22-.09-.13.23a4.33,4.33,0,1,1-7.51-4.33c0-.08.09-.16.14-.24l-.19-.15a1.8,1.8,0,0,1-.19.2,4.33,4.33,0,1,1-6.13-6.13l.2-.19-.15-.19-.24.14a4.33,4.33,0,1,1-4.33-7.51l.24-.13a2.14,2.14,0,0,1-.1-.22l-.26.07a4.33,4.33,0,1,1-2.24-8.37l.26-.07,0-.24h-.27a4.34,4.34,0,0,1,0-8.68h.27l0-.24-.26-.06a4.34,4.34,0,0,1,2.24-8.38l.26.08.09-.23-.23-.13a4.33,4.33,0,1,1,4.33-7.51l.24.15.15-.2a1.8,1.8,0,0,1-.2-.19,4.33,4.33,0,1,1,6.13-6.13l.19.2.19-.15a1.76,1.76,0,0,1-.14-.23,4.34,4.34,0,1,1,7.51-4.34l.13.24.22-.1-.07-.25a4.34,4.34,0,1,1,8.38-2.25l.06.27.24,0c0-.09,0-.18,0-.27a4.34,4.34,0,0,1,8.68,0C2158.06,942,2158.05,942.11,2158.05,942.2Z"></path>
    <path fill="#a95c40" fill-rule="evenodd" d="M2153.72 954a2.26 2.26 0 1 0-2.25-2.25A2.25 2.25 0 0 0 2153.72 954ZM2153.72 965.58a2.26 2.26 0 1 0-2.25-2.26A2.26 2.26 0 0 0 2153.72 965.58ZM2153.72 977.13a2.25 2.25 0 1 0-2.25-2.25A2.25 2.25 0 0 0 2153.72 977.13ZM2135.78 957a2.25 2.25 0 1 1 0 3.18A2.26 2.26 0 0 1 2135.78 957ZM2144 965.12a2.25 2.25 0 1 1 0 3.18A2.26 2.26 0 0 1 2144 965.12ZM2128.35 974.88a2.26 2.26 0 1 1 2.26 2.25A2.26 2.26 0 0 1 2128.35 974.88ZM2139.91 974.88a2.26 2.26 0 1 1 2.25 2.25A2.25 2.25 0 0 1 2139.91 974.88ZM2135.78 992.82a2.26 2.26 0 1 1 3.19 0A2.26 2.26 0 0 1 2135.78 992.82ZM2144 984.65a2.26 2.26 0 1 1 3.19 0A2.26 2.26 0 0 1 2144 984.65ZM2153.72 1000.25A2.26 2.26 0 1 1 2156 998 2.25 2.25 0 0 1 2153.72 1000.25ZM2153.72 988.69a2.26 2.26 0 1 1 2.25-2.25A2.25 2.25 0 0 1 2153.72 988.69ZM2171.66 992.82a2.26 2.26 0 1 1 0-3.19A2.26 2.26 0 0 1 2171.66 992.82ZM2163.48 984.65a2.25 2.25 0 1 1 0-3.19A2.25 2.25 0 0 1 2163.48 984.65ZM2179.08 974.88a2.25 2.25 0 1 1-2.25-2.25A2.24 2.24 0 0 1 2179.08 974.88ZM2167.53 974.88a2.26 2.26 0 1 1-2.25-2.25A2.25 2.25 0 0 1 2167.53 974.88ZM2171.66 957a2.25 2.25 0 1 1-3.19 0A2.25 2.25 0 0 1 2171.66 957ZM2163.48 965.12a2.25 2.25 0 1 1-3.18 0A2.25 2.25 0 0 1 2163.48 965.12Z"></path>
    <path fill="#f68b00" fill-rule="evenodd" d="M2224.32,883.78l.24,0a2.68,2.68,0,0,1,.07-.27,4.33,4.33,0,1,1,8.37,2.25,2.33,2.33,0,0,1-.07.25l.23.1.12-.24a4.34,4.34,0,1,1,7.51,4.34,1.76,1.76,0,0,1-.14.23l.19.15.19-.2a4.33,4.33,0,1,1,6.13,6.13,1.8,1.8,0,0,1-.2.19l.15.2.24-.15a4.33,4.33,0,0,1,4.33,7.51l-.24.13a2.29,2.29,0,0,1,.1.23l.26-.08A4.34,4.34,0,1,1,2254,913l-.26.06,0,.24h.27a4.34,4.34,0,1,1,0,8.67h-.27l0,.25a1.1,1.1,0,0,1,.26.06,4.33,4.33,0,1,1-2.24,8.37l-.26-.07-.09.23.23.12a4.33,4.33,0,1,1-4.33,7.51l-.24-.14-.15.19.2.19a4.33,4.33,0,1,1-6.13,6.13l-.19-.2-.19.15c0,.08.1.16.14.24a4.33,4.33,0,1,1-7.51,4.33l-.13-.23-.22.09c0,.09.05.17.07.26a4.33,4.33,0,1,1-8.37,2.24,2,2,0,0,1-.07-.26l-.24,0a2.44,2.44,0,0,1,0,.27,4.34,4.34,0,1,1-8.67,0v-.27l-.24,0-.06.26a4.34,4.34,0,1,1-8.38-2.24,2.58,2.58,0,0,1,.08-.26l-.23-.09a1.71,1.71,0,0,1-.13.23,4.33,4.33,0,1,1-7.51-4.33l.15-.24-.2-.15a1.8,1.8,0,0,1-.19.2,4.33,4.33,0,0,1-6.13-6.13l.2-.19-.15-.19-.23.14a4.34,4.34,0,1,1-4.34-7.51l.24-.13a2.14,2.14,0,0,0-.1-.22l-.25.07a4.33,4.33,0,1,1-2.25-8.37l.27-.07c0-.08,0-.16,0-.24h-.27a4.34,4.34,0,0,1,0-8.67h.27l0-.24-.27-.06a4.34,4.34,0,1,1,2.25-8.38l.25.08.1-.23-.24-.13a4.34,4.34,0,1,1,4.34-7.51l.23.15.15-.2-.2-.19a4.33,4.33,0,0,1,6.13-6.13l.19.2.2-.15-.15-.23a4.34,4.34,0,1,1,7.51-4.34c.05.08.09.16.13.24l.23-.1a2.41,2.41,0,0,1-.08-.25,4.34,4.34,0,0,1,8.38-2.25l.06.27.24,0v-.27a4.34,4.34,0,1,1,8.67,0A2.44,2.44,0,0,1,2224.32,883.78Z"></path>
    <path fill="#a95c40" fill-rule="evenodd" d="M2220 895.6a2.26 2.26 0 1 0-2.25-2.25A2.26 2.26 0 0 0 2220 895.6ZM2220 907.16a2.26 2.26 0 1 0-2.25-2.26A2.26 2.26 0 0 0 2220 907.16ZM2220 918.71a2.25 2.25 0 1 0-2.25-2.25A2.26 2.26 0 0 0 2220 918.71ZM2202.06 898.53a2.25 2.25 0 1 1 0 3.18A2.25 2.25 0 0 1 2202.06 898.53ZM2210.23 906.7a2.25 2.25 0 1 1 0 3.18A2.26 2.26 0 0 1 2210.23 906.7ZM2194.63 916.46a2.25 2.25 0 1 1 2.25 2.26A2.25 2.25 0 0 1 2194.63 916.46ZM2206.18 916.46a2.26 2.26 0 1 1 2.26 2.26A2.26 2.26 0 0 1 2206.18 916.46Z"></path>
    <circle cx="2203.65" cy="932.8" r="2.25" fill="#a95c40"></circle>
    <path fill="#a95c40" fill-rule="evenodd" d="M2210.23 926.23a2.26 2.26 0 1 1 3.19 0A2.26 2.26 0 0 1 2210.23 926.23ZM2220 941.83a2.26 2.26 0 1 1 2.26-2.26A2.26 2.26 0 0 1 2220 941.83ZM2220 930.27a2.26 2.26 0 1 1 2.26-2.25A2.25 2.25 0 0 1 2220 930.27ZM2237.93 934.4a2.26 2.26 0 1 1 0-3.19A2.26 2.26 0 0 1 2237.93 934.4ZM2229.76 926.23a2.26 2.26 0 1 1 0-3.19A2.26 2.26 0 0 1 2229.76 926.23ZM2245.36 916.46a2.26 2.26 0 1 1-2.26-2.25A2.26 2.26 0 0 1 2245.36 916.46ZM2233.8 916.46a2.25 2.25 0 1 1-2.25-2.25A2.26 2.26 0 0 1 2233.8 916.46ZM2237.93 898.53a2.25 2.25 0 1 1-3.19 0A2.25 2.25 0 0 1 2237.93 898.53ZM2229.76 906.7a2.25 2.25 0 1 1-3.19 0A2.25 2.25 0 0 1 2229.76 906.7Z"></path>
    <path fill="#f68b00" fill-rule="evenodd" d="M2239.58,971.85l.25,0,.06-.27a4.34,4.34,0,0,1,8.38,2.25c0,.09-.05.17-.08.25l.23.1.12-.24a4.34,4.34,0,0,1,7.52,4.34l-.15.23.2.15.18-.2a4.34,4.34,0,0,1,6.14,6.14l-.21.19.15.19.24-.15a4.34,4.34,0,0,1,4.34,7.52l-.24.12.09.23.26-.08a4.34,4.34,0,0,1,2.25,8.38,2.61,2.61,0,0,1-.27.06l0,.25h.28a4.34,4.34,0,0,1,0,8.67h-.28l0,.25.27.06a4.34,4.34,0,0,1-2.25,8.38l-.26-.08-.09.23.24.12a4.34,4.34,0,0,1-4.34,7.52l-.24-.15-.15.2.21.18a4.34,4.34,0,0,1-6.14,6.14l-.19-.21-.19.15.15.24a4.34,4.34,0,0,1-7.52,4.34l-.12-.24-.23.09.08.26a4.34,4.34,0,0,1-8.38,2.25l-.06-.27-.25,0a2.53,2.53,0,0,1,0,.28,4.34,4.34,0,0,1-8.67,0,2.53,2.53,0,0,1,0-.28l-.25,0-.06.27a4.34,4.34,0,0,1-8.38-2.25c0-.09.05-.17.08-.25l-.23-.1c0,.08-.08.16-.13.24a4.34,4.34,0,0,1-7.51-4.34l.15-.24-.2-.14-.19.2a4.34,4.34,0,0,1-6.13-6.14l.21-.19-.15-.19-.24.15a4.34,4.34,0,0,1-4.34-7.52l.24-.12-.09-.23-.26.08a4.34,4.34,0,0,1-2.25-8.38l.27-.06,0-.25h-.28a4.34,4.34,0,0,1,0-8.67h.28l0-.25-.27-.06a4.34,4.34,0,0,1,2.25-8.38l.26.08.09-.23-.24-.12a4.34,4.34,0,0,1,4.34-7.52l.24.15.14-.2-.2-.18a4.34,4.34,0,1,1,6.14-6.14l.19.21.19-.16-.15-.23A4.34,4.34,0,0,1,2222,974l.12.24.23-.09-.08-.26a4.34,4.34,0,0,1,8.38-2.25l.06.27.25,0a2.53,2.53,0,0,1,0-.28,4.34,4.34,0,0,1,8.67,0A2.53,2.53,0,0,1,2239.58,971.85Z"></path>
    <path fill="#a95c40" fill-rule="evenodd" d="M2235.25 983.66a2.25 2.25 0 1 0-2.25-2.25A2.26 2.26 0 0 0 2235.25 983.66ZM2235.25 995.22A2.26 2.26 0 1 0 2233 993 2.26 2.26 0 0 0 2235.25 995.22ZM2235.25 1006.78a2.26 2.26 0 1 0-2.25-2.26A2.26 2.26 0 0 0 2235.25 1006.78ZM2217.32 986.59a2.26 2.26 0 1 1 0 3.19A2.26 2.26 0 0 1 2217.32 986.59ZM2225.49 994.76a2.26 2.26 0 1 1 0 3.19A2.26 2.26 0 0 1 2225.49 994.76ZM2209.89 1004.52a2.26 2.26 0 1 1 2.25 2.26A2.25 2.25 0 0 1 2209.89 1004.52ZM2221.45 1004.52a2.25 2.25 0 1 1 2.25 2.26A2.25 2.25 0 0 1 2221.45 1004.52ZM2217.32 1022.46a2.26 2.26 0 1 1 3.19 0A2.26 2.26 0 0 1 2217.32 1022.46ZM2225.49 1014.29a2.26 2.26 0 1 1 3.19 0A2.26 2.26 0 0 1 2225.49 1014.29ZM2235.25 1029.89a2.26 2.26 0 1 1 2.26-2.25A2.25 2.25 0 0 1 2235.25 1029.89ZM2235.25 1018.33a2.25 2.25 0 1 1 2.26-2.25A2.25 2.25 0 0 1 2235.25 1018.33ZM2253.19 1022.46a2.26 2.26 0 1 1 0-3.19A2.26 2.26 0 0 1 2253.19 1022.46ZM2245 1014.29a2.26 2.26 0 1 1 0-3.19A2.26 2.26 0 0 1 2245 1014.29ZM2260.62 1004.52a2.26 2.26 0 1 1-2.25-2.25A2.26 2.26 0 0 1 2260.62 1004.52ZM2249.06 1004.52a2.25 2.25 0 1 1-2.25-2.25A2.25 2.25 0 0 1 2249.06 1004.52ZM2253.19 986.59a2.26 2.26 0 1 1-3.19 0A2.26 2.26 0 0 1 2253.19 986.59ZM2245 994.76a2.26 2.26 0 1 1-3.19 0A2.26 2.26 0 0 1 2245 994.76Z"></path>
    <rect width="513.7" height="295.95" x="1377.54" y="922.91" fill="#acd1ff"></rect>
    <path fill="none" stroke="#fff" stroke-miterlimit="10" stroke-width="4.69" d="M1373.26 966.84h0ZM1373.26 1001.77h0ZM1373.26 1036.71h0ZM1373.26 1071.65h0ZM1373.26 1106.58h0ZM1373.26 1141.52h0ZM1373.26 1176.46h0Z"></path>
    <rect width="65.78" height="128.91" x="1418.65" y="1089.95" fill="#0071b8"></rect>
    <rect width="58.68" height="128.91" x="1425.75" y="1089.95" fill="#299ef7"></rect>
    <rect width="65.78" height="155.57" x="1511.44" y="1063.29" fill="#00558e"></rect>
    <rect width="59.83" height="155.57" x="1517.39" y="1063.29" fill="#0071b8"></rect>
    <rect width="65.78" height="184.79" x="1597.62" y="1034.07" fill="#0071b8"></rect>
    <rect width="59.42" height="184.79" x="1603.98" y="1034.07" fill="#299ef7"></rect>
    <rect width="65.78" height="162.22" x="1683.81" y="1056.63" fill="#00558e"></rect>
    <rect width="58.84" height="162.22" x="1690.75" y="1056.63" fill="#0071b8"></rect>
    <rect width="65.78" height="251.26" x="1772.3" y="967.6" fill="#0071b8"></rect>
    <rect width="57.4" height="251.26" x="1780.68" y="967.6" fill="#299ef7"></rect>
    <ellipse cx="1651.91" cy="977.24" fill="#f9c438" rx="23.23" ry="25.65"></ellipse>
    <path fill="#fff" d="M1631.34,989.32l21.58-18.8-2.55-3.93,13,2.38.06,14.89-3.24-4.5-22.72,19.79S1631.41,992.8,1631.34,989.32Z"></path>
    <ellipse cx="1521.61" cy="958.19" fill="#651aec" rx="12.32" ry="13.6"></ellipse>
    <path fill="#fff" d="M1510.7,964.59l11.44-10-1.35-2.09,6.88,1.26,0,7.9-1.72-2.39-12,10.49S1510.74,966.44,1510.7,964.59Z"></path>
    <ellipse cx="1569.98" cy="1001.44" fill="#fc488c" rx="16.6" ry="18.33"></ellipse>
    <path fill="#fff" d="m1555.27 1010.07 15.42-13.44-1.82-2.8 9.27 1.69 0 10.65-2.32-3.22-16.23 14.14S1555.32 1012.55 1555.27 1010.07ZM3276.6 380.2V805a20.19 20.19 0 0 1-20.2 20.19H2764A20.19 20.19 0 0 1 2743.84 805V380.19A20.19 20.19 0 0 1 2764 360H3256.4A20.2 20.2 0 0 1 3276.6 380.2Z"></path>
    <path fill="#4a81ff" d="M3061.09,620.86a133.82,133.82,0,1,1-257.27-51.72l123.46,51.72-6.34-133.65c2.07-.12,4.2-.16,6.34-.16A133.82,133.82,0,0,1,3061.09,620.86Z"></path>
    <path fill="#ff402c" d="M2907.62,465.13a134,134,0,0,0-117.11,81.93L2914,598.77Z"></path>
    <rect width="18.38" height="18.38" x="3138.22" y="528.71" fill="#0070fc"></rect>
    <rect width="66.24" height="4.6" x="3168.79" y="535.59" fill="#c2daf4" rx=".2"></rect>
    <rect width="18.38" height="18.38" x="3138.22" y="495.96" fill="#ff9c00"></rect>
    <rect width="66.24" height="4.6" x="3168.79" y="502.85" fill="#c2daf4" rx=".2"></rect>
    <rect width="18.38" height="18.38" x="3138.22" y="561.45" fill="#ff402c"></rect>
    <rect width="66.24" height="4.6" x="3168.79" y="568.33" fill="#c2daf4" rx=".2"></rect>
    <path fill="#c2daf4" d="M3232.73 637.41h-92.21a2.3 2.3 0 0 1-2.3-2.3h0a2.3 2.3 0 0 1 2.3-2.3h92.21a2.3 2.3 0 0 1 2.3 2.3h0A2.3 2.3 0 0 1 3232.73 637.41ZM3232.73 656.31h-92.21a2.3 2.3 0 0 1-2.3-2.3h0a2.31 2.31 0 0 1 2.3-2.31h92.21A2.31 2.31 0 0 1 3235 654h0A2.3 2.3 0 0 1 3232.73 656.31ZM3232.73 675.2h-92.21a2.3 2.3 0 0 1-2.3-2.3h0a2.3 2.3 0 0 1 2.3-2.3h92.21a2.3 2.3 0 0 1 2.3 2.3h0A2.3 2.3 0 0 1 3232.73 675.2ZM3232.73 694.09h-92.21a2.3 2.3 0 0 1-2.3-2.3h0a2.3 2.3 0 0 1 2.3-2.3h92.21a2.3 2.3 0 0 1 2.3 2.3h0A2.3 2.3 0 0 1 3232.73 694.09ZM3232.73 713h-92.21a2.3 2.3 0 0 1-2.3-2.3h0a2.3 2.3 0 0 1 2.3-2.3h92.21a2.3 2.3 0 0 1 2.3 2.3h0A2.3 2.3 0 0 1 3232.73 713ZM3232.73 731.88h-92.21a2.3 2.3 0 0 1-2.3-2.3h0a2.3 2.3 0 0 1 2.3-2.3h92.21a2.3 2.3 0 0 1 2.3 2.3h0A2.3 2.3 0 0 1 3232.73 731.88ZM3232.73 750.78h-92.21a2.3 2.3 0 0 1-2.3-2.31h0a2.3 2.3 0 0 1 2.3-2.3h92.21a2.3 2.3 0 0 1 2.3 2.3h0A2.3 2.3 0 0 1 3232.73 750.78Z"></path>
    <path fill="#299ef7" d="M3276.6,380.2v35.45H2743.84V380.19A20.19,20.19,0,0,1,2764,360H3256.4A20.2,20.2,0,0,1,3276.6,380.2Z"></path>
    <path fill="#fff" d="M3196.6 387.83a9.36 9.36 0 1 1-9.36-9.36A9.36 9.36 0 0 1 3196.6 387.83ZM3226.92 387.83a9.36 9.36 0 1 1-9.36-9.36A9.36 9.36 0 0 1 3226.92 387.83ZM3256 387.83a9.36 9.36 0 1 1-9.35-9.36A9.35 9.35 0 0 1 3256 387.83Z"></path>
    <path fill="#fdd305" d="M3061.09,620.86a133.29,133.29,0,0,1-34.46,89.64l-99.35-89.64-6.34-133.65c2.07-.12,4.2-.16,6.34-.16A133.82,133.82,0,0,1,3061.09,620.86Z"></path>
    <path fill="#fff" d="M3292.15,999.12v424.79A20.19,20.19,0,0,1,3272,1444.1H2778.38a20.19,20.19,0,0,1-20.2-20.19V999.11a20.2,20.2,0,0,1,20.2-20.2H3272A20.2,20.2,0,0,1,3292.15,999.12Z"></path>
    <rect width="18.38" height="18.38" x="3153.78" y="1147.62" fill="#0070fc"></rect>
    <rect width="66.24" height="4.6" x="3184.35" y="1154.51" fill="#c2daf4" rx=".2"></rect>
    <rect width="18.38" height="18.38" x="3153.78" y="1114.87" fill="#ff9c00"></rect>
    <rect width="66.24" height="4.6" x="3184.35" y="1121.76" fill="#c2daf4" rx=".2"></rect>
    <rect width="18.38" height="18.38" x="3153.78" y="1180.36" fill="#ff402c"></rect>
    <rect width="66.24" height="4.6" x="3184.35" y="1187.25" fill="#c2daf4" rx=".2"></rect>
    <path fill="#c2daf4" d="M3248.28 1256.33h-92.2a2.29 2.29 0 0 1-2.3-2.3h0a2.3 2.3 0 0 1 2.3-2.31h92.2a2.31 2.31 0 0 1 2.31 2.31h0A2.31 2.31 0 0 1 3248.28 1256.33ZM3248.28 1275.22h-92.2a2.29 2.29 0 0 1-2.3-2.3h0a2.29 2.29 0 0 1 2.3-2.3h92.2a2.31 2.31 0 0 1 2.31 2.3h0A2.31 2.31 0 0 1 3248.28 1275.22ZM3248.28 1294.11h-92.2a2.29 2.29 0 0 1-2.3-2.3h0a2.29 2.29 0 0 1 2.3-2.3h92.2a2.31 2.31 0 0 1 2.31 2.3h0A2.31 2.31 0 0 1 3248.28 1294.11ZM3248.28 1313h-92.2a2.29 2.29 0 0 1-2.3-2.3h0a2.29 2.29 0 0 1 2.3-2.3h92.2a2.31 2.31 0 0 1 2.31 2.3h0A2.31 2.31 0 0 1 3248.28 1313ZM3248.28 1331.9h-92.2a2.29 2.29 0 0 1-2.3-2.3h0a2.29 2.29 0 0 1 2.3-2.3h92.2a2.31 2.31 0 0 1 2.31 2.3h0A2.31 2.31 0 0 1 3248.28 1331.9ZM3248.28 1350.8h-92.2a2.3 2.3 0 0 1-2.3-2.31h0a2.29 2.29 0 0 1 2.3-2.3h92.2a2.31 2.31 0 0 1 2.31 2.3h0A2.32 2.32 0 0 1 3248.28 1350.8ZM3248.28 1369.69h-92.2a2.29 2.29 0 0 1-2.3-2.3h0a2.29 2.29 0 0 1 2.3-2.3h92.2a2.31 2.31 0 0 1 2.31 2.3h0A2.31 2.31 0 0 1 3248.28 1369.69Z"></path>
    <path fill="#299ef7" d="M3292.15,999.12v35.44h-534V999.11a20.2,20.2,0,0,1,20.2-20.2H3272A20.2,20.2,0,0,1,3292.15,999.12Z"></path>
    <path fill="#fff" d="M3212.15 1006.74a9.36 9.36 0 1 1-9.35-9.36A9.35 9.35 0 0 1 3212.15 1006.74ZM3242.47 1006.74a9.35 9.35 0 1 1-9.35-9.36A9.35 9.35 0 0 1 3242.47 1006.74ZM3271.51 1006.74a9.36 9.36 0 1 1-9.36-9.36A9.36 9.36 0 0 1 3271.51 1006.74Z"></path>
    <rect width="62.82" height="182.55" x="2927.03" y="1205.97" fill="#acd1ff"></rect>
    <path fill="#0071b8" d="M2927,1340.37c22.26-4.67,43.13-13,62.83-22v70.15H2927Z"></path>
    <rect width="62.82" height="131.82" x="2824.35" y="1256.69" fill="#acd1ff"></rect>
    <path fill="#0071b8" d="M2875.55,1343.46q5.88.57,11.63.72v44.33h-62.83V1344.6C2835.47,1342.11,2851.74,1341.1,2875.55,1343.46Z"></path>
    <rect width="62.82" height="237.09" x="3029.72" y="1151.43" fill="#acd1ff"></rect>
    <path fill="#0071b8" d="M3092.54,1281.36v107.15h-62.82v-89C3052.05,1289.27,3072.86,1281.31,3092.54,1281.36Z"></path>
    <path fill="#ff402c" d="M3090,1082.31l-56.7,8.25,15.23,10.12-86.8,60-30.46-20.26-107.72,74.47c-4.11,2.84-4.05,7.41.14,10.19h0a14.43,14.43,0,0,0,15-.09l92.84-64.18,30.45,20.26,101.69-70.3,15.22,10.12Z"></path>
    <rect width="1140.56" height="219.23" x="1435.81" y="1485.86" fill="#fff"></rect>
    <path fill="#d5cfff" d="M2579.68,1708.37H1436.36v-222H2579.68Zm-1140.53-2.79H2576.89V1489.14H1439.15Z" style="mix-blend-mode:multiply"></path>
    <rect width="1140.53" height="2.79" x="1437.76" y="1661.73" fill="#d5cfff" style="mix-blend-mode:multiply"></rect>
    <rect width="1140.53" height="2.79" x="1437.76" y="1617.89" fill="#d5cfff" style="mix-blend-mode:multiply"></rect>
    <rect width="1140.53" height="2.79" x="1437.76" y="1574.04" fill="#d5cfff" style="mix-blend-mode:multiply"></rect>
    <rect width="1140.53" height="2.79" x="1437.76" y="1530.2" fill="#d5cfff" style="mix-blend-mode:multiply"></rect>
    <rect width="2.79" height="219.23" x="2386.8" y="1487.74" fill="#d5cfff" style="mix-blend-mode:multiply"></rect>
    <rect width="2.79" height="219.23" x="2196.72" y="1487.74" fill="#d5cfff" style="mix-blend-mode:multiply"></rect>
    <rect width="2.79" height="219.23" x="2006.63" y="1487.74" fill="#d5cfff" style="mix-blend-mode:multiply"></rect>
    <rect width="2.79" height="219.23" x="1816.54" y="1487.74" fill="#d5cfff" style="mix-blend-mode:multiply"></rect>
    <rect width="2.79" height="219.23" x="1626.45" y="1487.74" fill="#d5cfff" style="mix-blend-mode:multiply"></rect>
    <path fill="#299ef7" d="M1469.08,1672.26c16.58-23.1,20.16-52.85,35-77.17,7.22-11.87,16.79-23.64,30-28.94,22.82-9.15,28.64,20.29,29.13,36.65.71,24-3.28,50.15,16.59,68.21,6.63,6,15.41,9.61,24.36,7.23,10.73-2.85,17.41-12.68,22.72-21.71,15.21-25.86,24.87-55.5,35.44-83.47,5.34-14.12,12.12-32.22,26.1-40.14,19.93-11.28,22.11,13.68,22.06,26.84-.06,14.42.1,28.84.22,43.26.06,6.93-1.37,21.39,6.78,25.25,4.79,2.27,8.59-2.07,11.28-5.56,2.34-3,4-6.57,6.3-9.59,2.2-2.84,4.15-4.56,8.11-4.88,3.64-.31,5.38-.35,7.85,3,1.38,1.87,2,4.5,2.6,6.69,2.87,10.82-.08,23.07,6.05,33.07,3.41,5.56,10.75,11.11,17.65,10,13.92-2.2,17.46-24.89,19.13-35.8,2.24-14.59,4.33-29.09,8.35-43.34s9.29-31.47,20.2-42.2c4.15-4.08,9.87-8.15,16-7.47,9,1,11.78,11.13,14,18.4a175.23,175.23,0,0,1,7.9,50.66c0,11.84-3.45,26.66,4.44,36.9,4.24,5.5,11.42,8.65,18.29,6.94,10.05-2.5,12.47-12.25,14.51-21.09a37.66,37.66,0,0,1,1.38-5.26c2-5,2.73-5.57,8.11-5.79,5.92-.24,6.15,1.15,7.1,6s.46,9.94,2,14.83c1.88,6.18,6.23,11.87,13.38,9.74,6.61-2,10.14-9,12.32-15,6.27-17.16,5.69-36.16,6.63-54.11.61-11.89,1.57-24.67,7.06-35.47,3.58-7,14.13-18.4,22.29-11,10.62,9.65,9.58,33.15,9.83,46.13.52,27.83-4.15,55.78-.26,83.52,1.45,10.38,4.4,25.87,15.91,29.8,16,5.43,27.69-11.93,31.93-24.63,3.37-10.09,4.14-20.66,6.53-31,1.26-5.41,3.19-15.31,10.59-12.22,6.38,2.67,9,11.69,14.62,15.77,18.11,13.17,29.2-12.53,31.33-26.44,3.11-20.33-.1-42.72,7.51-62.18,1.93-4.91,5-10.13,9.47-13.11,11.06-7.28,22,2.8,25.29,13.1,2.53,7.81,2,16.59,2.2,24.7.17,8.81.4,17.61.56,26.42.27,14.54-1,29.39-.1,43.89.65,10.07,4.46,19.25,13.17,24.94,21.85,14.27,47.4-8,61.34-23.63,15.85-17.76,26.51-38.86,34.7-61,4.15-11.2,8.3-22.64,14.78-32.74,3.56-5.54,13.45-18.83,21.57-15.16,5.29,2.39,7.05,12,8.19,16.88a177.09,177.09,0,0,1,3.52,25.35c1.32,16.16,1.41,32.36,1.71,48.57.25,13.72,1.41,34.41,16.66,40,23.81,8.67,35.17-25.43,41.77-41.18,5.46-13,12.11-30.75,24.81-38.5,10.8-6.6,18.31,3.57,22.31,12.62a71.66,71.66,0,0,1,5.92,27.79c.09,6.61-.43,14.89,6.81,18.08,15.8,7,30.19-19.18,36.33-29.48,5.61-9.39,9.86-19.23,14.55-29.09,5.89-12.37,25.21-36,33.23-12.32,3,9,2,18.62,1.38,27.87-.68,10.49-1.43,21-1.1,31.53.38,12.15,2.58,38.66,20.92,35.85,11.11-1.71,22.55-14,30.88-20.89a405.76,405.76,0,0,0,34.62-32.62c1.65-1.74-1-4.37-2.62-2.63a405.79,405.79,0,0,1-34.63,32.62,251.91,251.91,0,0,1-20.24,15.73c-9.17,6.18-18.16,3.38-21.82-6.09-7.19-18.59-2.81-41.58-1.85-60.92.58-11.51-.87-37.83-18.49-34.64-10.56,1.92-17.84,13.3-22.25,22.08-5,10-9.1,20.21-14.73,29.86s-12,21-21.32,27.4c-7,4.85-15.22,2.55-16-6.87-.36-4.3.1-8.58-.4-12.9-1.47-12.47-6.21-33.08-19.72-38.13-18.74-7-32.39,24.53-37.73,36.87-5.45,12.64-9.69,28.83-19.78,38.69-7.12,7-18.67,9.36-25.95,1.32-5.32-5.88-6.66-15.15-7.41-22.71-2.89-29.37,1.49-59.71-6.89-88.51-2.42-8.3-7-18.56-17.29-14.92-17.23,6.1-25.08,28.48-31,43.9-9.38,24.66-19.78,48.25-38.07,67.86-10.55,11.31-25.84,25.28-42.35,24.95-21.67-.44-24.37-22.06-23.75-38.63.61-16.21,0-32.46-.38-48.67-.28-13.06,1.47-28.62-5-40.56-4.11-7.61-12.83-13.68-21.81-12.08-7.63,1.35-13.3,8.54-16.38,15.15-8.3,17.78-6.1,39.24-8,58.27-1.07,10.87-3,29.51-15.73,33.3-16,4.75-16.51-19.3-30-19.76-14.27-.48-14.39,33.79-16.85,42.81-3,11.13-8.84,24.41-21.51,26.82-7.84,1.49-13.07-3.44-16.11-10.18-6.92-15.32-6.07-34.63-5.64-51.06.32-12.26,1.42-24.49,1.63-36.76.23-13.22,2.86-70-22.36-63.93-17.45,4.22-21.92,26.75-23.47,41.67-2.06,19.9-.32,40.28-6,59.71-1.48,5-3.44,10.88-7.67,14.31-4.4,3.58-9.65.52-11.82-4.08-1.48-3.13-1.41-7.06-1.69-10.39-.49-5.66-1.21-14.07-7.51-16.45-7.28-2.74-13.25,4.71-15.45,10.69-2.71,7.41-1.83,17.15-9.35,22.06s-16.42.28-20.06-7c-3.8-7.6-2.43-16.85-2.06-25a155,155,0,0,0-.94-24.84c-1.61-14-4.23-29.34-10-42.29-7.94-17.87-25.62-13.12-36.14-.28-17.86,21.79-22.35,54.92-26.22,81.8-1.24,8.62-2.88,17.57-6.74,25.46-2,4-4.81,8.82-9.62,9.63-8,1.37-14.71-7.91-16.48-14.5-2.87-10.73-.16-48.76-22.48-37.09-6.93,3.63-7.59,12.28-13.5,16.63-9.25,6.8-9.81-8.23-9.88-14-.1-8.73-.15-17.46-.22-26.2-.11-11.72.79-23.89-.64-35.56-.91-7.45-3.18-16.12-10.87-19.19-20.81-8.31-36.33,25.27-41.91,39.35-11.84,29.86-21.33,61.77-38,89.39-9.14,15.17-24.74,26.53-40.4,12.34-11.2-10.15-15.32-25.05-15.61-39.65-.38-19,5.3-57.33-17.44-67.19-19.82-8.59-40.83,18.74-49.21,32.8-14.32,24-18,53.36-34.3,76-1.39,1.95,1.83,3.81,3.21,1.88Z"></path>
    <path fill="#2a926e" d="M3614,1935.76c35.92,63.65,47.66,207.85,48.71,321.57.57,60.46-1.87,112.32-5.31,138.89l60,19.42c.1.31.19.62.28.91.11-.23.21-.47.33-.72,24.29-54.1,135.48-308.3,135.08-427.85a128.67,128.67,0,0,0-2.74-27.79c-25.6-113.37-97.5-223.22-201.13-239.76S3553.82,1829.12,3614,1935.76Z"></path>
    <path fill="#19554f" d="M3724.47 2259.22c2.27.73 4.67.07 5.6-1.64 1.46-2.68 35.73-66.32 37.75-117.35 1.1-27.66-1.41-41.13-3.84-54.15-2.05-11-4-21.4-3.55-40 .27-11.17 2.75-22.37 5.38-34.23 6.72-30.29 14.33-64.62-16.31-106-20.1-27.13-32.29-51.49-42.1-71.07-10.48-20.93-18.76-37.46-31.94-48.85a179.24 179.24 0 0 1-36.07-42.39A5.85 5.85 0 0 0 3633 1741a3.3 3.3 0 0 0-2.21 5c.53.95 13.26 23.4 38.21 45 11.68 10.09 19.6 25.91 29.63 45.94 9.95 19.87 22.33 44.6 42.89 72.36 28.54 38.55 21.59 69.88 14.87 100.18-2.69 12.16-5.24 23.65-5.52 35.42-.46 19.3 1.54 30 3.66 41.39 2.36 12.66 4.8 25.76 3.73 52.69-2 49.59-36.67 114-37 114.69-1 1.87.14 4.29 2.58 5.41C3724 2259.06 3724.25 2259.14 3724.47 2259.22ZM3438.05 2206.91c58.39 21.08 151.31 119.71 204.21 184.41l75.14 24.32c-1.47-4.94-3.45-11.46-5.86-19.23-10-32.27-27.64-86.16-48.85-139.08-25.51-63.69-56.23-126-85.15-147.42-66.76-49.49-156.95-75.5-220.82-36.14S3355.7 2177.16 3438.05 2206.91Z"></path>
    <path fill="#2a926e" d="M3680.43,2396.83c1.8-.61,3-2.18,2.8-3.71-.35-2.41-8.78-59.39-31.79-92.95-12.48-18.19-20.5-25.6-28.25-32.76a133.49,133.49,0,0,1-21.34-23.89c-5.15-7.26-8.9-15.6-12.87-24.43-10.14-22.55-21.63-48.1-60.93-59.94-25.76-7.76-45.16-17.51-60.74-25.35-16.67-8.38-29.84-15-43.68-16a143.21,143.21,0,0,1-43.24-9.89,4.65,4.65,0,0,0-5.31,1.43,2.62,2.62,0,0,0,1,4.21c.79.36,19.61,8.64,45.83,10.52,12.26.89,24.86,7.22,40.8,15.23s35.52,17.86,61.88,25.8c36.6,11,47.09,34.35,57.23,56.91,4.07,9.05,7.92,17.6,13.34,25.26a137.9,137.9,0,0,0,22.06,24.69c7.54,7,15.34,14.17,27.49,31.89,22.36,32.61,30.9,90.33,31,90.9.25,1.68,2.14,2.68,4.23,2.23Z"></path>
    <path fill="#3ecaa1" d="M3711.54,2396.41c-1.29,5.93-2.44,11.35-3.45,16.21l9.31,3c.1.31.19.62.28.91.11-.23.21-.47.33-.72l81.08,26.24c4.31-8,10.58-19.55,18.28-33.6,9.12-16.62,20.25-36.7,32.51-58.4,48.88-86.5,115.8-198.71,145.22-219.76,49.07-35.14,115.49,6.32,174.08-85.61s256.54-121.12,229.4-208.59-255.45-101.54-433.92,18.16C3922.15,1882.79,3885,1931,3853.09,1988,3776.46,2124.74,3730,2311.72,3711.54,2396.41Z"></path>
    <path fill="#2a926e" d="M3758.61,2411.24A4.88,4.88,0,0,0,3765,2407c.08-1,8.27-96.29,23-139,7.14-20.63,28.53-56.23,53.3-97.46,27.17-45.23,58-96.5,80.23-144.68,26.48-57.33,46.76-64.42,83.57-77.3,21.37-7.48,48-16.78,83.72-38.32,95.82-57.7,241-66.92,242.46-67a4.88,4.88,0,1,0-.58-9.75c-1.48.09-149.07,9.46-246.91,68.39-34.91,21-61,30.14-81.91,37.46-38,13.31-61,21.34-89.22,82.42-22,47.71-52.69,98.73-79.73,143.75-25.05,41.7-46.69,77.71-54.16,99.3-15.16,43.85-23.2,137.39-23.53,141.35A4.88,4.88,0,0,0,3758.61,2411.24Z"></path>
    <path fill="#19554f" d="M3782.69,2436.77l34.19,11.06a24.58,24.58,0,0,0,2.8-3.58c10.44-16.42,27.51-41.06,40.79-49.35,20.58-12.85,47.74-14.32,65.26-24.05s47.13-12.45,68.43-24.37,12.56-35.62,36-35.21,58.7,2.57,58.7,2.57,76.44-14.26,77.36-58.31-121.52-46.29-193.42-17.55c-35,14-83,64.23-122.95,112.09C3820.29,2385.49,3795.08,2419.61,3782.69,2436.77Z"></path>
    <path fill="#2a926e" d="M692.66,1324.92c64.48,21.35,162.63,113.22,234.4,190.79,38.17,41.24,68.88,78.45,83.11,98.87l53.43-24.13.76.46-.22-.7c-17.09-52.4-99.4-296.75-174.36-378.75a119.8,119.8,0,0,0-19.24-17.4c-88.44-62-206.53-92.66-288.16-39.3S584.65,1289.14,692.66,1324.92Z"></path>
    <path fill="#19554f" d="M970.74 1478.42c2-.91 3.26-2.87 2.84-4.62-.68-2.76-16.86-68-47.34-104.32-16.53-19.72-26.67-27.41-36.48-34.86-8.28-6.28-16.11-12.23-27.45-25.32-6.79-7.85-12.08-17.11-17.68-26.91-14.3-25-30.51-53.4-77.45-62.73-30.77-6.12-54.38-15.26-73.36-22.6-20.28-7.85-36.31-14.06-52.49-13.66a166.81 166.81 0 0 1-51.3-6.62 5.45 5.45 0 0 0-6 2.25 3.06 3.06 0 0 0 1.58 4.79c1 .32 23.74 7.82 54.38 7.07 14.33-.36 29.67 5.58 49.08 13.09 19.26 7.45 43.23 16.73 74.71 23 43.72 8.69 58.52 34.58 72.82 59.63 5.75 10.05 11.17 19.54 18.33 27.81 11.74 13.57 19.82 19.7 28.37 26.19 9.54 7.24 19.4 14.72 35.49 33.92 29.63 35.35 46 101.37 46.18 102 .47 1.92 2.78 2.86 5.15 2.1A5.7 5.7 0 0 0 970.74 1478.42ZM741 1621.37c53.35-22 178.9-12.17 255.71-.71l66.88-30.21c-4.1-2.48-9.53-5.73-16-9.57-27-15.93-72.83-42-120.49-65.17-57.34-27.87-117.37-51.52-150.68-48.22-76.84 7.66-155.14 46.11-174.49 113.1S665.78 1652.35 741 1621.37Z"></path>
    <path fill="#2a926e" d="M1026.42,1600.61a3.46,3.46,0,0,0-.4-4.3c-1.74-1.44-43.14-35.38-79.93-44.09-20-4.73-30.1-4.81-39.91-4.89a124.58,124.58,0,0,1-29.6-3.1c-8.08-1.78-15.87-5.18-24.12-8.77-21.06-9.18-44.93-19.58-79.36-3.18-22.57,10.75-42,16.17-57.63,20.51-16.7,4.65-29.89,8.32-40,16.29a133,133,0,0,1-35.92,20.21,4.33,4.33,0,0,0-2.76,4.29,2.44,2.44,0,0,0,3.29,2.31,138.31,138.31,0,0,0,38.1-21.39c9-7.06,21.61-10.57,37.59-15s35.59-9.91,58.68-20.91c32.07-15.27,53.86-5.78,74.93,3.4,8.46,3.69,16.44,7.17,25,9a127.92,127.92,0,0,0,30.6,3.21c9.54.08,19.4.17,38.83,4.77,35.77,8.46,77.69,42.83,78.11,43.18,1.22,1,3.14.51,4.29-1.11C1026.24,1600.91,1026.33,1600.76,1026.42,1600.61Z"></path>
    <path fill="#3ecaa1" d="M1047.55,1580.88c2.82,4.89,5.42,9.33,7.76,13.31l8.29-3.74.76.46-.22-.7,72.18-32.61c-2-8.18-4.94-20.06-8.42-34.54-4.11-17.13-9-37.89-14.12-60.48-20.41-90-44.47-209-37.39-241.91,11.81-54.83,83.41-67.8,66.29-167.65s100.82-243.59,27.5-286.82S931,855.93,883,1049.78c-11.43,46.18-6.84,102.57,6.77,161.68C922.5,1353.42,1007.32,1511.11,1047.55,1580.88Z"></path>
    <path fill="#2a926e" d="M1089.2,1561.68a4.27,4.27,0,0,0,.89-.53,4.54,4.54,0,0,0,.85-6.36c-.54-.71-54.46-71.41-71-110-8-18.65-15.51-56.51-24.23-100.35-9.56-48.09-20.4-102.6-35.19-149.66-17.59-56-8.07-73.53,9.21-105.39,10-18.49,22.51-41.5,33.66-78.66,29.87-99.55,124-196.6,124.94-197.57a4.53,4.53,0,1,0-6.48-6.34c-1,1-96.65,99.63-127.15,201.3-10.88,36.27-23.12,58.82-33,76.95-17.85,32.91-28.63,52.78-9.88,112.43,14.64,46.59,25.43,100.85,34.94,148.71,8.82,44.34,16.43,82.63,24.79,102.15,16.95,39.63,69.86,109,72.1,111.94A4.54,4.54,0,0,0,1089.2,1561.68Z"></path>
    <path fill="#19554f" d="M1121.72,1564.2l30.43-13.75a22.33,22.33,0,0,0-.31-4.22c-3.08-17.81-6.72-45.43-2.77-59.43,6.14-21.69,23.9-39.67,29.87-57.31s24.65-38,31.86-59.51-13.62-32.36,2.79-46.74,42-34.9,42-34.9,43.69-57.57,16.8-88.44-112.51,44.06-144,108.76c-15.35,31.51-17,96-14.56,153.92C1115.55,1505.43,1119.52,1544.65,1121.72,1564.2Z"></path>
    <ellipse cx="2893.05" cy="2515.59" fill="#9f845a" rx="1304.44" ry="180.85"></ellipse>
    <ellipse cx="1102.97" cy="2495.85" fill="#9f845a" rx="824.09" ry="180.85"></ellipse>
    <path fill="#f68400" fill-rule="evenodd" d="M1721.15,2042c-7.88,14.26-22.72,30.62-42.81,37.91-10.72,3.89-25.69,2.51-36.68,0-23.56-5.38-48.29-24-64.83-36.7-20.25-15.5-46.31-51.23-61.64-65.71,7.49,41,20.26,99,26.75,141.06-29.78,9.77-60.53,18-91.37,26.7-28.41-70-50.89-138.26-69.42-219.46-18.65-81.72-29.32-168.41-41.58-258,13-27.4,28.23-99,28.14-113.08,22.31,3.85,116.37,32.62,166.73,60.6,10,5.54,18.21,11,23.87,16.32.93.87,1.86,1.76,2.78,2.64,61,59.1,68.67,139.8,109.92,221.86,10.07,20,21.08,44.17,31.8,68.49,10.51,23.89,25,48.08,26.9,73.38C1731,2015.78,1726.71,2031.88,1721.15,2042Z"></path>
    <path fill="#fff" fill-rule="evenodd" d="M1261.29,1599.21c8.2,26.87,33.94,49,50.42,71.65-26.47,49.45-51.15,139.35-74.87,208.42-17.88,52-34.78,104.56-56.26,152.88-7.25,16.28-16,31.74-20.8,48.92,94-3.22,139.07,52.33,193.24,93,35.44-8.19,69.12-20.81,103.19-30.36-1.48-9.67-7.49-13.56-11.46-22.23-11.55-25.22-19.22-53.2-28.13-81.94-32.81-105.86-55.36-228.68-68.49-357.13-.58-5.72-2.7-11.8-2.44-15.9.47-7.53,5.46-18.51,7.33-29.35,1.93-11.15,8.33-47.67,9.51-58.43-5,22.27-19.87,44.25-30.3,48.65C1308.38,1637.4,1275.42,1614.93,1261.29,1599.21Z"></path>
    <path fill="#f68400" fill-rule="evenodd" d="M1232.61,1537.06c-100.1,9.57-182.76,38.23-245.27,85.39,3.65,14.32,10.2,18.27,15.9,31.8,21.68,51.43,34.39,127.6,29.35,200.57-4.81,69.72-20.76,135-44,187.12-24.94,55.92-52.59,101.51-81.94,150.43-19.71,32.85-39.62,77.54-50.14,123.53-3.87,16.9-8.24,36.1-7.34,50.14,1.88,29.37,60.91,115.26,110.07,123.53-6.17-77.06,21-173.84,44-215.25,13.31-24,33.16-43.72,51.37-63.6,18.43-20.14,37.1-39,55-58.71,36.34-39.9,62.24-87.71,85.61-143.09,22.84-54.11,42.18-110.21,61.15-167.55,18.29-55.25,32.64-114.76,55.31-170.51-5.8-11.14-10.81-15.83-18.62-25.18-27.6-33.07-40.3-60.9-53.81-99.06C1239.34,1544.53,1234.15,1537.56,1232.61,1537.06Z"></path>
    <path fill="#c66505" fill-rule="evenodd" d="M1515.19,1977.45s-59.71-188.16,19.25-362.23c10,5.54,18.21,11,23.87,16.32.93.87,1.86,1.76,2.78,2.64l3.05,4.15C1494.6,1823.67,1515.19,1977.45,1515.19,1977.45Z"></path>
    <path fill="#c66505" d="M988.56,1621.65c6.89-5.08,15.65-11,22.64-15.34,56.82,68.56,69.16,263.69,54.77,378.77-7.41,2.45-13.78,4.48-18.7,5.93C1056.14,1850.43,1029.13,1664.23,988.56,1621.65Z"></path>
    <path fill="#003d82" fill-rule="evenodd" d="M1416.23,1863.59c.06,13,9.25,24.38,20.52,25.37l67.75-5.78c11.28,1,20.36-8.75,20.3-21.76L1524,1696c-.07-13-9.25-24.36-20.54-25.36l-67.72,5.77c-11.28-1-20.37,8.75-20.31,21.76Z"></path>
    <path fill="#002c6b" d="M1433.77 1676.37c-4.77 4-7.81 10.52-7.78 18.16l.84 169.43c.05 11 6.52 20.9 15.3 24.54l-5.37.46c-11.28-1-20.47-12.35-20.53-25.37l-.8-165.4c-.06-12.26 8-21.59 18.34-21.82ZM1503.93 1701a9.69 9.69 0 0 0-2.81-19.12l-2.84.21a9.69 9.69 0 0 0 1.43 19.32l2.84-.21a8.06 8.06 0 0 0 1.38-.2Z"></path>
    <path fill="#f19a6d" fill-rule="evenodd" d="M1565.24,1894.37c-23.12-5.53-49.22,3.7-49.22,3.7a33.34,33.34,0,0,0-8.33-27.94c-8.66-4.72-18-19.3-17.8-33.14,0-4.5,2.39-8.08,2.29-11.93-5.67-3.1-12.09-2.42-20.67-2.71-5.43-.18-18.13.22-20-4.48-2.53-6.22,7.18-12.18,11.52-13.8,11.87-4.42,21.42-2.47,29.37-1.17,2,.33,5.89,1.51,6.32-.56.55-2.6-7-3.65-10.8-4.21s-8.54-1.27-12.81-1.52c-6.76-.39-22.11,1.61-23.61-5.72-1.14-5.55,9.17-10.88,14.06-12.29,11.36-3.27,24.21-1.19,32.56.7,3.09.69,8.93,2.81,9.51,1.29,1-2.71-15.29-6.72-25.78-7.85-5.41-.58-25.55.56-26.91-5.94-.68-3.24,3.95-7.42,7.89-9.07,13.35-5.62,30.9-3.25,40.9-.41,5.07,1.45,14.51,6.55,15.75,4.54,1.48-2.4-13.11-15.42-21.61-20.81-3.44-2.19-7.61-4-12.6-7-3.55-2.08-10.93-5.3-10.5-11.3.27-3.82,8.3-6.19,11.47-5.68,34.08,5.5,61.7,32.08,74.67,73.36,9.9,31.49,8.84,61,6.17,88C1566.5,1883.85,1565.88,1889.15,1565.24,1894.37Z"></path>
    <path fill="#ef7c59" fill-rule="evenodd" d="M1455.92 1808.41c-2.83 2.69-5.86 5.24-4.63 9 1.85 5.54 12.83 4.67 20.19 5 8.82.39 15 .77 20.8 3.22a57.3 57.3 0 0 0-1.82 7.49c-2.15 14.15 7.62 31.75 17.69 36.93-3.07-6.11-7.61-12.5-9.69-20.67-2.66-10.47-1.09-20.93.48-29.26-8.21.09-37.69 2.81-43-11.66ZM1490.74 1717.75c-10.06-2.93-21.7 1.26-13.83 11.48 2.76 3.6 11.32 7 15.92 9.34a110.72 110.72 0 0 1 17.86 11.93c-4.21-6-9.32-9.23-15.6-13.59-7.45-5.18-20.34-14.46-4.35-19.16ZM1462.92 1762.55c-1.62-2.23-.65-3.69 1.13-5.27-7.06 2.35-12.59 9.36-7.26 12.8 4.21 2.72 12 2.3 19.52 2.47 8 .17 17 2 22.19 3.13-8.53-4.5-28.69-3.67-35.58-13.13ZM1457.35 1782.61c-2 1.08-7.41 5.22-5.27 9.26 2.84 5.36 14.38 5.16 22.57 5.39 9.55.26 18.59.93 23.28 3.12-3.77-6-29-4.22-39.7-12.33a3.92 3.92 0 0 1-.88-5.44Z"></path>
    <path fill="#f68400" fill-rule="evenodd" d="M1580.51,1830.36c-13.76,12.54-69.72,73.38-69.72,73.38,6,24.66,28.45,68.83,39.14,86.84,16.48,27.74,36.66,55.44,55,70.93,15.29,12.9,45.82,29.15,73.37,18.35,31.1-12.2,59.79-44.87,50.69-92.86-7.89-41.61-45.66-71.49-73.92-96.71C1629.26,1867.22,1604.7,1846.73,1580.51,1830.36Z"></path>
    <path fill="#c66505" d="M1524.54,1888.88c7.69,25.27,27.59,64.25,37.48,80.9,16.48,27.74,36.66,55.44,55,70.94,15.3,12.89,45.83,29.15,73.38,18.34a85.67,85.67,0,0,0,35-25.61c-8.8,22.78-27.46,38.7-47.13,46.41-27.55,10.8-58.08-5.45-73.37-18.35-18.38-15.49-38.56-43.19-55-70.93-10.69-18-33.13-62.18-39.14-86.84C1510.79,1903.74,1516.42,1897.62,1524.54,1888.88Z"></path>
    <path fill="#ef7c59" fill-rule="evenodd" d="M1330.39,1899.47a67.66,67.66,0,0,1,12.91-25.74c11.79-14.9,27.5-28,41.25-43.88,6.76-7.82,16.11-23.87,21.4-22.17,9.29,3-2.46,36.51-8.64,42.43-6,5.7-18.17,9.14-27.58,14.91-16,9.84-27.89,23.12-39.34,34.45Z"></path>
    <path fill="#f19a6d" fill-rule="evenodd" d="M1362.86,1976c-5.78,2-13.27,1-17.55,4-7.06,4.88-21.23,2.88-32.36,16.38a234.61,234.61,0,0,1-14.82-40.07,61.77,61.77,0,0,0-11.76-23.69c18.1-13.14,31.23-22.68,35.78-26.77,12.11-10.9,21.76-24.69,34.4-34.47,16.19-12.55,36.86-23.45,57.32-28.62,30.27-7.62,52.13-19.83,62.44-17.25,8.12,9.36-32.48,27.07-51.59,40.88,8.93.58,24.27,3.26,31.69,4.57,7,1.23,49.31,10.26,49.55,19.26.17,5.69-16,4-23.09,3.73-22.32-.76-37-5.91-61.48,1.82,4.46,5.1,37.89,14.17,51.91,19.62,6.27,2.45,18.9,7,17.78,12.12-2.13,9.52-31.38-.78-46.68-3-15.13-2.25-11.94,0-27.63.64,17.59,11.8,51.49,18.89,49.26,31.85-.87,5-31.07-2.76-41.37-3.93-10.53-1.21-19.49,4.26-30.28,4C1381.76,1965.51,1373,1972.46,1362.86,1976Z"></path>
    <path fill="#f68400" fill-rule="evenodd" d="M1324.89,1896.83c-48.26,12.57-229.45,80-277.62,94.18,8.93-141.62-17.63-328.61-58.71-369.36-72.48,43.68-96.32,143.89-111.29,254.39a982.69,982.69,0,0,0-8.57,148c1,50.55,9.38,95.45,36.7,118.64,68.77,58.37,222.7-22.52,280.07-52.59,44-23.09,168.78-108.85,168.78-108.85S1332.41,1916.81,1324.89,1896.83Z"></path>
    <path fill="#c66505" d="M877.27,1876c9.5-70.09,22.58-136,49.36-186-16,43.48-25.34,94.63-32.6,148.22a981.51,981.51,0,0,0-8.56,148c1,50.54,9.37,95.45,36.69,118.63,68.77,58.38,222.7-22.52,280.07-52.59,31.93-16.73,106.25-66.4,144.72-92.46,4.23,12.36,7.3,21.41,7.3,21.41s-124.74,85.76-168.78,108.85c-57.37,30.07-211.3,111-280.07,52.59-27.32-23.19-35.69-68.09-36.7-118.64A982.69,982.69,0,0,1,877.27,1876Z"></path>
    <path fill-rule="evenodd" d="M1649.2 2082.58a92.2 92.2 0 0 0 10.37.39c20.48 0 36.55-11.34 46.75-21 4.16-1.55 7-2.58 11.16-4.14 39.15-14.71 95.82-28.8 127.2-35-33.51 11.23-56.59 41.7-79.5 68.06s-42.94 53.46-62.37 78.28c-20.78 26.53-43.24 51.56-62.38 78.27-20.12 28.08-37.78 57.12-59.92 81.94-41.32-22.69-79.49-50.08-118.64-75.83-38.78-25.49-78.15-51.29-111.29-83.16C1458.56 2145.47 1554.18 2116.22 1649.2 2082.58ZM1185.47 2457.77c60.72 16.13 148.28 13.51 203-6.12-55.12-14.59-106.55-32.87-145.54-63.59-1-.23-1.15.48-1.22 1.22-14.35 16.65-23.53 38.51-39.14 53.81C1197.08 2448.49 1188.86 2450.06 1185.47 2457.77Z"></path>
    <path fill="#003d82" fill-rule="evenodd" d="M1697.92,2483.45c68.74,17.46,187.34,14.68,223.81-30.57,12-15,11.63-33.21,0-48.92-17.67-23.85-68.15-36.13-96.62-40.36-7.73,3.18-12.09,13.78-18.35,20.79-15.86,17.78-36.41,33.52-55,50.14-9.41,8.4-17.55,17.95-26.91,25.68S1703.38,2472.91,1697.92,2483.45Z"></path>
    <path fill="#002c6b" fill-rule="evenodd" d="M1824.13,2363.6l-129.31,121.79S1844.68,2456.46,1824.13,2363.6Z"></path>
    <path fill="#262626" fill-rule="evenodd" d="M1579.28,2325.68c-23.06,38-46,75.35-74.6,110.07-7.88,9.59-21.68,28.53-31.8,30.58-6.49,1.32-18.17-2.26-28.13-3.67-68.18-9.71-127.51-24.92-173.67-52.59-25.14,23.86-51.33,47-84.39,66-32.68,18.87-70.23,36.19-117.41,33-41-2.76-73.65-24.21-91.72-48.93-23.76-32.48-28.16-73.29-22-117.4,11.07-79.4,49.38-147.71,93-195.69,22.44-24.71,52.5-49.64,82-62.37,17.72-7.66,49.82-10.11,67.26-7.34,27.22,4.32,50.62,15,72.15,28.38,11.44,7.09,22.35,14.94,33,23,30.64,23.09,58.58,49.22,86.83,70.94C1453.09,2248.41,1514,2287.91,1579.28,2325.68Z"></path>
    <path fill="#404040" d="M955.54,2342.81c11.07-79.39,49.38-147.71,93-195.69,22.44-24.71,52.5-49.64,81.94-62.37,17.72-7.66,49.82-10.11,67.27-7.34,27.27,4.33,50.68,15.06,72.25,28.46a173.37,173.37,0,0,0-43-12.82c-17.45-2.77-49.54-.32-67.26,7.34-29.45,12.73-59.5,37.66-82,62.37-43.57,48-81.88,116.3-92.95,195.69-6.14,44.11-1.74,84.92,22,117.4a115.82,115.82,0,0,0,25.85,25.39c-23.82-8.93-42.86-24.22-55.15-41C953.8,2427.73,949.39,2386.92,955.54,2342.81Z"></path>
    <path fill-rule="evenodd" d="M1271.08,2410.07C1133.42,2388,1119,2292.91,1119,2292.91,1181.83,2363.25,1271.08,2410.07,1271.08,2410.07Z"></path>
    <path fill="#003d82" fill-rule="evenodd" d="M1438.64,2498.13c-9.18,5.48-14.68,10.59-24.47,14.67-23.31,9.74-64.07,9.82-70.93,30.58-4.15,12.57-.13,29.71,6.11,40.36,9.42,16.05,30.22,27.39,40.36,45.25,5.75,10.11,8.13,20.33,11,31.8,5,19.86,9.68,41.63,22,56.26,13.63,16.17,41.16,33.6,59.92,39.13,19.15,5.66,46.73,7.21,48.92-11,1.07-8.89-4.66-16.28-9.78-24.46-14.37-23-41.24-61.57-24.46-95.4,6-12.13,11.36-20.49,27.06-30.36C1503.73,2554.88,1485.59,2511.91,1438.64,2498.13Z"></path>
    <path fill="#002c6b" d="M1343.24 2543.38c3-9 12.39-14.14 24-17.85a18.67 18.67 0 0 0-2.75 5.11c-4.15 12.57-.13 29.71 6.12 40.36 9.41 16.05 30.21 27.39 40.36 45.25 5.74 10.11 8.13 20.33 11 31.8 5 19.86 9.67 41.63 22 56.26 13.64 16.17 41.16 33.6 59.93 39.13 8.41 2.49 18.44 4.17 27.24 3.75-4 16-30.09 14.42-48.48 9-18.76-5.53-46.29-23-59.92-39.13-12.34-14.63-17-36.4-22-56.26-2.88-11.47-5.26-21.69-11-31.8-10.14-17.86-30.94-29.2-40.36-45.25C1343.11 2573.09 1339.09 2556 1343.24 2543.38ZM1523.92 2595.19s-76.68-40.42-85.28-97.06c0 0 76.12 27.4 86.74 97.06Z"></path>
    <path fill="#262626" fill-rule="evenodd" d="M1933.45,2211.5h0c-.86,1.81-1.73,3.61-2.63,5.38h0c-.9,1.79-1.8,3.55-2.71,5.31s-1.83,3.49-2.75,5.22-1.85,3.45-2.77,5.15c-.47.86-.93,1.7-1.39,2.56l-.69,1.26a474.92,474.92,0,0,1-42.8,64.83c-47.51,60.75-99.47,116.42-159,165.1-59.23,48.43-125.68,94-194.79,128.86a.8.8,0,0,0-.08-.16c-11.6-27.37-26.57-53-47.34-72.34a126.59,126.59,0,0,0-37.86-24.56s10.81-7.49,14.67-11c32.62-29.7,58.73-65,84.39-101.51,28.4-40.46,57.14-82.28,88.06-123.53,45.38-60.53,90.75-120.37,140.65-177.33,16.56-18.92,35.22-41.26,53.81-52.59,10.91-6.65,25.91-11.85,41.57-9.79,24.78,3.28,43,24,57.49,41.58,12.3,14.93,23.61,33.32,28.13,51.38C1956.58,2152,1946.86,2183.46,1933.45,2211.5Z"></path>
    <path fill="#404040" d="M1933.45 2211.5h0c-.86 1.8-1.74 3.6-2.63 5.38h0c-.9 1.79-1.8 3.55-2.71 5.31s-1.83 3.49-2.75 5.22-1.85 3.45-2.77 5.15c-.47.86-.93 1.7-1.39 2.56l-.69 1.26a474.92 474.92 0 0 1-42.8 64.83c-47.51 60.75-99.47 116.42-159 165.1-59.23 48.43-125.68 94-194.79 128.86a.8.8 0 0 0-.08-.16c-11.6-27.37-26.57-53-47.34-72.34 105.22-55.07 359.12-193.2 401.2-247a474.92 474.92 0 0 0 42.8-64.83c12.9-23.59 26.57-49.62 29.78-79.3C1953.51 2161.37 1944.82 2187.7 1933.45 2211.5ZM1579.28 2325.68l-106.4 140.65s63.28-107.64 37.91-130.08c-11.31-10-171.72-180.71-240.83-230.39l-.11-.07c11.44 7.09 22.35 14.94 33 23 30.64 23.09 58.58 49.22 86.83 70.94C1453.09 2248.41 1514 2287.91 1579.28 2325.68Z"></path>
    <circle cx="1226.99" cy="1804.75" r="13.26" fill="#dbe7e9"></circle>
    <circle cx="1200.46" cy="1886.2" r="13.26" fill="#dbe7e9"></circle>
    <path fill="#f19a6d" d="M1237.77,1459.19c5.14,46.14-4.43,70.32-12.57,116.24-1.65,9.29,12,40.82,22.94,46.19,30.16,14.82,68.64,21.37,104.82,17.55,18.39-1.94,31.3-13.81,29.77-26.82a579.39,579.39,0,0,1-3.59-89.07C1343.13,1491.25,1293.13,1471.68,1237.77,1459.19Z"></path>
    <path fill="#ef7c59" d="M1378.61,1495.71c-36-32-86-51.6-141.37-64.09,2.19,19.67,11.51,29.3,11.28,49,25,48.11,62,104.07,123.1,124.07,7.28-5.07,11.48-12.28,10.57-19.94A580.66,580.66,0,0,1,1378.61,1495.71Z"></path>
    <path fill="#871b19" fill-rule="evenodd" d="M1267.68 1707.55c8.5-17.62 19.89-37.91 44-36.69-5.23-10.93-14.52-19.58-22-29.35-17.4-22.7-35.32-49.46-46.48-80.72a171.24 171.24 0 0 1-8.35-33.77c.34-2-1.23-3-3.88-1.7-41.18 21.45-52 90.38-32.55 124 12 20.81 29.76 35.94 30.57 64.82C1229.31 1724.85 1263.67 1715.86 1267.68 1707.55ZM1368.05 1547.31a1059.42 1059.42 0 0 1-28.48 120.39c6.57 8 18.68 7 26.25 13.54 15.44 13.38 23.54 43.67 44.06 53.62-13.84-31 3.21-62.19-.35-96.33-3.33-31.8-14.46-75.67-25.58-90C1380.39 1544 1374.65 1544.2 1368.05 1547.31Z"></path>
    <path fill="#f19a6d" d="M1442.09,1465.32c-3,28.62-12.36,54.72-30.86,71.78-54.45,50.23-161.08.84-177.28-93.43-17-99.05,89-232.63,174.44-125.81,15.36,19.18,29,58,33.36,98.85A231.83,231.83,0,0,1,1442.09,1465.32Z"></path>
    <path fill="#ef7c59" d="M1387.64,1461.87a2.07,2.07,0,0,1-1.44-3.57c8.62-8.29,17.4-19.24,16.57-22.48-.73-2.83-12.94-4.27-23.44-3.8a2,2,0,0,1-2-1.31c-7.25-18.18-5.67-49.07-5.6-50.37a2.08,2.08,0,0,1,4.15.22c0,.31-1.52,29.71,4.79,47.25,7.26-.21,24.35,0,26.14,7s-13.09,22.08-17.71,26.51A2.05,2.05,0,0,1,1387.64,1461.87Z"></path>
    <path fill="#151515" d="M1344.67 1409c1.07 4.63-1.26 9.12-5.21 10s-8-2.1-9.08-6.73 1.26-9.12 5.21-10S1343.6 1404.38 1344.67 1409ZM1418.11 1403.12c1.07 4.62-1.26 9.11-5.21 10s-8-2.1-9.08-6.73 1.26-9.12 5.21-10S1417 1398.49 1418.11 1403.12Z"></path>
    <path fill="#ef7c59" d="M1348 1444.32c1.17 13.62-11.47 25.83-28.22 27.27s-31.29-8.43-32.46-22 11.46-25.83 28.22-27.27S1346.78 1430.7 1348 1444.32ZM1442.09 1465.32c-13.23-1.66-23.64-10.46-24.63-21.9-1.06-12.52 9.54-23.85 24.29-26.71A231.83 231.83 0 0 1 1442.09 1465.32Z"></path>
    <path fill="#343434" d="M1307.69 1387.15a2.06 2.06 0 0 1-1-.24 2.08 2.08 0 0 1-.85-2.81c14.59-27.43 43.22-13.36 43.5-13.22a2.08 2.08 0 1 1-1.87 3.71h0c-1-.51-25.29-12.35-38 11.46A2.1 2.1 0 0 1 1307.69 1387.15ZM1429.87 1379.75a2.06 2.06 0 0 1-1.68-.85c-15.91-21.88-38.25-6.72-39.19-6.07a2.08 2.08 0 1 1-2.37-3.41c.26-.18 26.64-18.1 44.92 7a2.08 2.08 0 0 1-1.68 3.3Z"></path>
    <path fill="#242424" d="M1213.86,1426.37c-34-36.25-26-98.74-1.65-138.67a136.56,136.56,0,0,1,62.49-53.78c13.06-5.58,27.3-9.35,41.53-10,12.1-.58,26.09,4.22,38.08,3.33,19.08,2,36,5.49,49.08,9.86,29.65,9.94,66.48,40.56,63,75.31-1.73,17.35-14,32.94-30.69,36.94-32.52,7.77-68.48-4-95.3-22.16a42.86,42.86,0,0,1,8.81,16.94c.39,1.53.67,3.27-.17,4.61-1.26,2-4.13,1.92-6.45,1.57a144.35,144.35,0,0,1-54.14-19.86c11.77,14.14,3.4,39.76-4.55,53.63-9.84,17.19-10.29,33.71-19.56,47.09Z"></path>
    <path fill="#242424" d="M1398.33 1239.94a113.31 113.31 0 0 1 17.9 4.23 111.41 111.41 0 0 1 17.69 7.42 94.52 94.52 0 0 1 16 10.47 68.56 68.56 0 0 1 12.71 13.52 56.81 56.81 0 0 1 4.67 8c.71 1.5 1.16 2.54 1.73 4.08s1 3 1.43 4.51.76 3.12 1 4.7c.07.36.12.72.18 1.08.08.53.07.48.14 1.07.08.78.15 1.56.19 2.35a40.46 40.46 0 0 1 0 4.8c0 .79-.13 1.58-.22 2.36l0 .24c0-.32 0 0 0 0s0 .38-.08.57c-.06.4-.13.79-.2 1.19a41 41 0 0 1-1.11 4.53c-.21.72-.45 1.43-.7 2.13-.13.35-.26.7-.4 1-.06.17-.13.34-.2.51l-.12.3c-.11.26.11-.25 0 0a44.07 44.07 0 0 1-4.46 8l-.64.9-.33.44s-.18.23 0 .06l-.14.18c-.45.57-.92 1.13-1.4 1.69-1 1.14-2 2.22-3.14 3.26-.55.51-1.12 1-1.69 1.5l-.84.69-.43.33-.21.17c-1.2.89-2.44 1.73-3.72 2.5a41.17 41.17 0 0 1-4 2.07l-.91.4c-.27.12.34-.13.07 0l-.22.08c-.19.08-.37.16-.57.23-.69.27-1.38.52-2.08.75a35.68 35.68 0 0 1-4.29 1.14c-.73.15-1.46.27-2.19.38.41-.06.07 0-.14 0l-.54.06-1.15.11a36.36 36.36 0 0 1-4.43 0c-.76 0-1.51-.11-2.27-.2-.54-.06.22 0-.16 0l-.55-.08-1.19-.2a44.29 44.29 0 0 1-9.22-2.76l-.24-.1-.65-.29-1.05-.5a21.79 21.79 0 0 1-2.39-1.13c-1.35-.89-2.6 1.28-1.26 2.16.75.49 1.41 1.17 2.18 1.67s1.43.92 2.17 1.34a31.94 31.94 0 0 0 4.83 2.22 34.2 34.2 0 0 0 9.65 2 38.4 38.4 0 0 0 18.45-3.66 44.18 44.18 0 0 0 14.69-11.25 46.34 46.34 0 0 0 9.23-16.8 43.36 43.36 0 0 0 1.14-19.77 53.81 53.81 0 0 0-6.77-18.25 65.57 65.57 0 0 0-12.23-14.88 86.67 86.67 0 0 0-16-11.54 111.15 111.15 0 0 0-18.19-8.09 115.31 115.31 0 0 0-18.54-4.72c-1.49-.25-3-.46-4.49-.65-.81-.1-1 1.31-.19 1.44ZM1253.06 1248.64a75.21 75.21 0 0 0-18.23 7.82 89.19 89.19 0 0 0-16.1 12.33 103.33 103.33 0 0 0-13.43 16 120.73 120.73 0 0 0-10.45 18.55 132.57 132.57 0 0 0-7.41 20.7 128.14 128.14 0 0 0-3.79 21.74 114.17 114.17 0 0 0 .11 21.32 101.61 101.61 0 0 0 4.3 21.06 87.91 87.91 0 0 0 8.89 19.36A66.78 66.78 0 0 0 1211 1424a19.26 19.26 0 0 0 4.79 3.31l-.71-.42.16.14a1.67 1.67 0 0 0 2.27 0 1.62 1.62 0 0 0 0-2.28c-.6-.49-1.21-1.35-1.82-2s-1.31-1.3-1.94-2c-1.22-1.27-2.4-2.57-3.59-3.87s-2.34-2.66-3.44-4l-.37-.47c-.11-.14-.36-.47-.1-.14l-.84-1.11c-.51-.69-1-1.37-1.52-2.06a80.43 80.43 0 0 1-5.51-8.83q-1.2-2.24-2.27-4.54c-.37-.8-.72-1.6-1.07-2.41-.11-.25 0 .1 0 .12s-.07-.18-.11-.27l-.22-.54-.51-1.27a95.29 95.29 0 0 1-5.3-19.91c-.06-.42-.13-.85-.19-1.27 0-.2 0-.4-.08-.59.07.5 0-.21 0-.37-.1-.85-.2-1.71-.29-2.56-.18-1.76-.32-3.51-.41-5.27-.19-3.51-.21-7-.08-10.53s.43-7.06.87-10.56c0-.2 0-.4.08-.6s0-.2 0-.31c-.06.44 0 .08 0 0 .06-.44.12-.87.19-1.31.13-.9.27-1.8.43-2.7q.45-2.61 1-5.19a129.58 129.58 0 0 1 6.15-20.47c.32-.81.65-1.62 1-2.43l.12-.28s-.11.26 0 0 .18-.43.28-.65c.17-.4.34-.8.52-1.2q1.08-2.43 2.26-4.82c1.55-3.12 3.23-6.19 5-9.17a104 104 0 0 1 12.09-16.27 93.29 93.29 0 0 1 14.51-13.15 74.28 74.28 0 0 1 16.82-9.14q2.23-.85 4.53-1.55a1.3 1.3 0 0 0-.69-2.51Z"></path>
    <path fill="#f19a6d" d="M1258.61,1402.23c-6.11-25.89-32.64-21.08-39.71-15.65-5.1,3.91-7.11,10.68-7.71,17.08a56.73,56.73,0,0,0,15.62,44.19c4,4.13,8.82,7.7,14.37,9.23,15.62,4.28,25.65-7.72,25.69-21.2Z"></path>
    <path fill="#ef7c59" d="M1250.73,1448.08a14.54,14.54,0,0,1-6.36-1.51c-9.67-4.69-16.45-19-18.65-30.27-1.15-5.93-.4-10.75,2.23-14.34a14.3,14.3,0,0,1,9.2-5.45,2.08,2.08,0,0,1,.47,4.13,10.18,10.18,0,0,0-6.35,3.82c-1.89,2.61-2.39,6.33-1.47,11,2.07,10.64,8.37,23.44,16.39,27.33a9.79,9.79,0,0,0,9.28-.12,2.08,2.08,0,0,1,1.91,3.7A14.53,14.53,0,0,1,1250.73,1448.08Z"></path>
    <path fill="#393939" d="M1407.25,1496.28a25.88,25.88,0,0,1-2.94,3.52c-7.19,7.22-18.86,11.11-29.68,9.47a32.88,32.88,0,0,1-13.1-5c-6.15-4.13-10.67-10.13-12-16.75-.76-3.8,0-8.57,4.06-10.24a9.57,9.57,0,0,1,3-.55,34.61,34.61,0,0,1,5.6.78,79.19,79.19,0,0,0,30.49.09,28.84,28.84,0,0,1,9.94-.65c3,.43,5.28,1.61,6.6,4C1411.91,1485.75,1410.37,1491.64,1407.25,1496.28Z"></path>
    <path fill="#fff" d="M1402.59,1476.94c-.12,2.57-.7,5.14-2.4,6.93-1.85,2-4.6,2.8-7.26,3.28a66.57,66.57,0,0,1-29.19-.6c-2.26-.57-4.68-1.37-6.08-3.22s-1.44-4.27-1.1-6.61a34.61,34.61,0,0,1,5.6.78,79.19,79.19,0,0,0,30.49.09A28.84,28.84,0,0,1,1402.59,1476.94Z"></path>
    <path fill="#ef7c59" d="M1404.31,1499.8c-7.19,7.22-18.86,11.11-29.68,9.47a32.88,32.88,0,0,1-13.1-5c3.8-4.86,10.3-7.63,16.61-8.65C1387,1494.1,1396.57,1495.33,1404.31,1499.8Z"></path>
    <path fill="#003d82" d="M3558.85,2285.57l-580.46,3.35s-272.58-171.84-353.47-81.18-1.35,259.68,206.81,263.86h683.69Z"></path>
    <path fill="#003d82" d="M3231.11,2531l-132,.95-5.22-132.12-.42-10.51s187.83-41.28,255-72.52c58.5-27.22,244.82-90.37,299-8.93a97,97,0,0,1,8.22,15.11C3692.07,2407.12,3607,2544.65,3231.11,2531Z"></path>
    <path fill="#fff" d="M3093.88,2399.83l-140.31,10.69s-24.82-31.24-53-17.85-22.57,27.89-55.29,41.28-134.15,61.92-112.71,94.27,142-19.52,366-10.6Z"></path>
    <polygon fill="#ccc" points="3093.88 2399.84 3075.37 2516.86 3098.54 2517.62 3093.88 2399.84"></polygon>
    <polygon fill="#ebebeb" points="3058.85 2402.5 2984.36 2364.59 2971.36 2409.17 3058.85 2402.5"></polygon>
    <path fill="#002c6b" d="M2971.36,2409.17l15.21-52.18L2747.3,2232.3s213.8,134.23,216.92,145.94S2971.36,2409.17,2971.36,2409.17Z"></path>
    <path fill="#332a97" d="M2831.73,1868.68s-23.7,81.44-3.39,134.43,58.67,49.65,58.67,49.65l43.64-25-73.34-183.21Z"></path>
    <path fill="#f19a6d" d="M2883.05,2013.22l-66,30.3s-83.49,38.24-104.93-26.75c-17.91-54.3-35.67-248.22-41-310.45,18.18-8.85,51.22-24.79,74.38-36.69l86.22,199C2862.73,1891.11,2877,1966.16,2883.05,2013.22Z"></path>
    <path fill="#f7a18a" d="M2883.05,2013.22l-42.63,19.58c7.08-68.47-8.69-164.12-8.69-164.12C2862.73,1891.11,2877,1966.16,2883.05,2013.22Z"></path>
    <path fill="#e43864" d="M3588.18,2083.44l-135.1-20.51s-1.86,7.2-4.55,18.22c-7,28.63-19.65,83.08-19.92,104.25-.33,25.78,18.78,98.06,18.78,98.06s-26.13-.48-63.8,3.52c-39.14,4.15-90.74,13.12-138.45,32.45-93.65,37.92-221.1,33.94-301.19-46.39l44.14-278.21L2887,2052.76s-1.65-27.45-7.13-61.52c-2.45-15.23-5.67-31.78-9.85-47.79-8.38-32.07-20.62-62-38.3-74.77L2973.51,1735s33.08-41.43,99.65-46.16c0,0,17.5-2,37.4-5.11,8-1.23,16.33-2.62,24.09-4.1l18.56-37.48s10.71-10.38,77-10.38,81,9.93,81,9.93l15.77,31.86c9.2,1,19.7,2.19,30.68,3.32,16.3,1.67,33.66,3.29,49.44,4.42,62,4.47,88,18.41,132,117.7s61.57,151.9,96.46,212.53C3635.57,2011.48,3659.83,2055.55,3588.18,2083.44Z"></path>
    <path fill="#b92357" d="M3447.39,2283.46s-26.13-.48-63.8,3.52c-9.07-66.31-45.62-215.89-12.79-245.9,34.46-31.51,1.43-158.59.94-161.31l46.35,158.88c6.4,18.43,29.25,23.29,35,24.28-7,28.63-24.2,101.3-24.47,122.47C3428.28,2211.18,3447.39,2283.46,3447.39,2283.46Z" opacity=".54"></path>
    <path fill="#b92357" d="M3614.55,2069.86a126.7,126.7,0,0,1-26.37,13.57l-74.68,12.24s-154.5-10.33-71.7-81.4c0,0,61.25-42.45,151.8-17.19a251.58,251.58,0,0,1,42.91,16.45C3639.57,2021,3647.23,2047.23,3614.55,2069.86Z"></path>
    <path fill="#121a63" d="M3311.21,1641.65s-20.93,43.65-71,52.51h-42.91S3146,1664,3153.21,1642.1c0,0,10.71-10.38,77-10.38S3311.21,1641.65,3311.21,1641.65Z"></path>
    <path fill="#212121" d="M3110.27,1412.31a58.38,58.38,0,0,0-44.38,38.23c-5.45,16.38-4.37,36.63-17.66,47.63-12.7,10.52-31.45,6.62-47.73,9.21-28.66,4.57-51,33.7-48.34,62.59s29.53,53.39,58.55,53.72c6.3.07,13.11-.73,18.45,2.61,4.54,2.84,6.92,8,9.52,12.72,11.35,20.47,29.65,35.18,53,39,20.16,3.25,47,.5,64.72-9.74,32.92-19,77.34-21.46,113.45-12,18.08,4.76,35.2,12.62,53.15,17.82,20.72,6,49.34,10.23,78.35-2,19.86-8.41,25.83-13.84,34.68-33.5,8.12-18,6.75-39.19.43-57.92s-17.18-35.54-28-52.08c-6.81-10.4-13.89-21-24.13-28.08-13.33-9.16-30.41-11.11-44.45-19.15a57.94,57.94,0,0,1-23.26-25c-2.65-5.49-4.42-11.41-7.48-16.68s-7.83-10-13.84-11.07Z"></path>
    <path fill="#212121" d="M3303,1520.35c-19.51,2.14-35.93-15.54-42.79-33.92s-7.82-38.68-15.67-56.67a79.4,79.4,0,0,0-128.66-24.67c-22.35,22.15-29.48,55-35.59,85.83-42.06-46-26-120.44,50.93-152.53,3.58-1.49,7.78,1.11,11.57.31,4.49-.93,8.2-3.94,11.91-6.63a112.22,112.22,0,0,1,84.94-19.37c42.45,7.73,92.93,49.44,106.82,90.53,3.9,11.54,6.59,24.8,16.58,31.76,6.55,4.56,14.88,5.35,22.54,7.57,28.48,8.28,47.76,40.33,41.72,69.38-1.79,8.6-5.4,17.92-1.38,25.74,2.62,5.09,7.89,8.15,12.74,11.21,14.83,9.37,28.72,22.29,33.11,39.28,8.24,31.83-19.89,62-49.58,76.1-14.07,6.7-29.56,11.56-45.06,10-24.45-2.52-44.94-21-56.52-42.66s-15.77-46.43-19.8-70.67Z"></path>
    <path fill="#212121" d="M3298.71 1365.87c-4.26-15.78-3.42-33.52 5.25-47.38s29.35-18.86 45.18-14.8c27.58 7.07 53.59 40.2 33 70.64-13.29 19.58-56.19 26.47-76.93 9.29ZM3149.79 1343.46c9.75-6.32 13.1-19.93 9.51-31s-12.9-19.53-23.36-24.58c-9.29-4.49-20-6.62-30-4.5a43.82 43.82 0 0 0-16.39 7.46c-20.14 14.51-27.05 44.62-15.25 66.46s40.78 32.56 64 23.66ZM3166.9 1379.66a63.22 63.22 0 0 1 30.76 12.81 90.06 90.06 0 0 1 22.67 26.17c6.17 10.46 10.54 21.83 14.09 33.41 1.8 5.84 3.4 11.76 5.75 17.41a47.17 47.17 0 0 0 9.45 14.91 42.6 42.6 0 0 0 29.24 12.89 17.55 17.55 0 0 0 4.15-.4 1.34 1.34 0 0 0 1-1.49 1.37 1.37 0 0 0-1.33-1.17c-.66-.06-1.33-.19-2-.2s-1.33 0-2-.06-1.33-.1-2-.17-1-.12-1.79-.25a45.29 45.29 0 0 1-7.8-2 39 39 0 0 1-7-3.28 37.9 37.9 0 0 1-6.22-4.54 40.47 40.47 0 0 1-9.69-13.37c-2.58-5.5-4.25-11.38-6-17.17a161.18 161.18 0 0 0-14.15-33.71 103.84 103.84 0 0 0-10.41-14.9 79.09 79.09 0 0 0-12.45-11.81c-8.83-6.75-19.15-11.77-30.19-13.52-1.36-.22-2.72-.38-4.09-.5-.6-.06-.58.87 0 .93ZM3164.05 1379.62c-8.25 0-15.59 4.23-21.91 9.18a212.56 212.56 0 0 0-19.36 17.51c-5.8 5.82-11.36 11.88-16.8 18s-10.61 12.24-15.94 18.35q-4.14 4.76-8.35 9.44c-3 3.35-6.15 6.58-8.92 10.12-.73.93-1.46 1.86-2.17 2.81a1.18 1.18 0 0 0 .31 1.55 1.23 1.23 0 0 0 1.58-.09c1.77-1.46 3.5-3 5.13-4.56s3-3.21 4.51-4.83c2.87-3.14 5.68-6.34 8.46-9.55 5.24-6.06 10.4-12.19 15.63-18.25s10.65-12.15 16.25-18c6-6.23 12.18-12.3 18.63-18a82.26 82.26 0 0 1 9.46-7.38 30.74 30.74 0 0 1 10.58-4.6 21.89 21.89 0 0 1 2.91-.4c.84-.07.87-1.34 0-1.33Z"></path>
    <path fill="#212121" d="M3326.6,1374.56a81.13,81.13,0,0,0,45.68,54c10.55,4.65,21.73,7.63,32.41,12,9.93,4,19.67,9.64,25.41,19,6.33,10.33,6.48,22.87,6.21,34.6-.27,12-1.3,24.48,2.37,36.09a41.32,41.32,0,0,0,9.61,16.07c4.6,4.85,10,8.88,14.53,13.77a52.52,52.52,0,0,1,13.65,33.09,50.23,50.23,0,0,1-10.45,33.54,53.82,53.82,0,0,1-13.15,12,58.32,58.32,0,0,1-15.79,7.42,48.59,48.59,0,0,1-8.63,1.6c-1.83.17-1.89,3,0,2.9a54.86,54.86,0,0,0,51.32-44.54,58.3,58.3,0,0,0-5.46-36.6,57.09,57.09,0,0,0-11.84-15.48c-4.93-4.63-10.45-8.8-14.54-14.24-7.42-9.85-8.14-22.47-8-34.35.16-12.29,1.38-25-1.93-37-3.13-11.34-10.72-20.1-20.77-26s-21.21-9-32-12.73a127,127,0,0,1-16.07-6.49,81.27,81.27,0,0,1-15.66-10.42,83.13,83.13,0,0,1-22.31-29.84,77.52,77.52,0,0,1-3.22-8.74.69.69,0,0,0-1.33.37Z"></path>
    <path fill="#212121" d="M3328.25 1397.23a29.49 29.49 0 0 0 20.88 9.61 29 29 0 0 0 11.52-1.79 31.74 31.74 0 0 0 10.45-6.62c6.09-5.72 10.14-13.34 12.94-21.12 3.34-9.27 5.08-19.41 3-29.17-1.74-8-6.33-15.79-13.26-20.18a27 27 0 0 0-2.63-1.46 1.36 1.36 0 0 0-1.37 2.34 26.38 26.38 0 0 1 4.37 3.37c.7.66 1.37 1.36 2 2.09a22.44 22.44 0 0 1 1.58 2 37 37 0 0 1 2.89 5c.21.42.4.86.59 1.29 0 0 .15.34 0 .07 0 .09.07.17.1.26l.32.8c.33.89.63 1.79.89 2.7 2.48 8.59 1.45 17.79-1.1 26.33-.63 2.09-1.34 4.16-2.15 6.2-.08.21-.17.41-.25.62l-.15.36s-.14.34 0 .07c-.2.47-.41.94-.62 1.41q-.6 1.32-1.26 2.61a53.66 53.66 0 0 1-2.95 5.08 36.49 36.49 0 0 1-3.34 4.39 30.77 30.77 0 0 1-8.63 7c-.39.22-.78.42-1.18.61l-.67.32-.34.14c.18-.07 0 0-.07 0a25.1 25.1 0 0 1-2.65.91 23.37 23.37 0 0 1-2.63.62l-.71.13-.35 0q-.72.09-1.44.15a29.85 29.85 0 0 1-5.51-.11l-1.09-.15-1.34-.25c-.91-.2-1.82-.43-2.71-.71a27.89 27.89 0 0 1-9.3-5q-1.05-.87-2-1.83c-1.17-1.18-2.88.58-1.81 1.81ZM3338.19 1307.82a35 35 0 0 0-18.59-5.42 39.27 39.27 0 0 0-19 4.71 35 35 0 0 0-13.9 13.91 39.43 39.43 0 0 0-4.64 19.51 35.37 35.37 0 0 0 5.85 19 14.08 14.08 0 0 0 1.77 2 1.61 1.61 0 0 0 2.51-1.94c-.35-.68-.65-1.41-1-2.07s-.78-1.4-1.13-2.12c-.16-.32-.31-.64-.46-1l-.22-.49-.15-.32s-.16-.38-.07-.17l-.14-.33-.19-.49q-.23-.59-.42-1.17a35.37 35.37 0 0 1-1.23-4.54c-.16-.76-.28-1.52-.39-2.28.05.39 0 .06 0-.13s0-.36-.07-.53c-.05-.42-.09-.83-.13-1.24a37.79 37.79 0 0 1-.12-4.64c0-.8.08-1.6.16-2.4 0-.36.08-.71.11-1.07s0 .11 0 .14 0-.24.05-.36l.09-.62a38.72 38.72 0 0 1 1-4.51c.23-.77.48-1.53.76-2.28.12-.33.25-.66.38-1 0-.09.07-.17.1-.25.12-.3-.14.31 0 0s.17-.38.25-.56a34.61 34.61 0 0 1 2.17-4.08c.43-.67.87-1.34 1.35-2 .1-.15.21-.29.31-.43l0 .07.16-.21c.26-.33.53-.65.8-1a30.88 30.88 0 0 1 3.22-3.25c.28-.25.57-.5.87-.74l.41-.33s.25-.19.07 0 .16-.13.2-.16c.61-.45 1.24-.88 1.87-1.3a36.63 36.63 0 0 1 4-2.22l1-.49.48-.21c.21-.09-.05 0-.08 0l.41-.16c.71-.29 1.42-.55 2.14-.79a37.74 37.74 0 0 1 4.41-1.18c.78-.16 1.56-.29 2.34-.41-.33 0 .08 0 .2 0l.52-.06 1.23-.11a36.53 36.53 0 0 1 4.56-.07c.79 0 1.58.1 2.36.19l.52.06c.21 0 0 0 0 0l.27 0c.4.06.81.11 1.21.18a32.8 32.8 0 0 1 8.59 2.55c.69.32 1.37.66 2 1a1.35 1.35 0 0 0 1.36-2.34ZM3086.35 1298.18a32.49 32.49 0 0 0-11.54 4 37.91 37.91 0 0 0-9.46 8 46.21 46.21 0 0 0-10.65 25.19 58.92 58.92 0 0 0 .31 15 68.15 68.15 0 0 0 3.35 13.66c3.13 8.7 8.17 16.83 15.74 22.32a31.21 31.21 0 0 0 12.17 5.29 25.74 25.74 0 0 0 13.38-.53 25.17 25.17 0 0 0 3.21-1.37c1.82-.91.56-4-1.4-3.32a22.3 22.3 0 0 1-3 .82l-.76.14c-.12 0-.25 0-.38.06l-.1 0c.27 0-.13 0-.19 0l-.76.1-.19 0-.28 0a25.82 25.82 0 0 1-6.15-.07c.46.06-.09 0-.26 0l-.76-.14q-.77-.14-1.53-.33a31.15 31.15 0 0 1-3-.9l-1.37-.53c.5.2-.19-.09-.33-.15l-.8-.37c-.94-.46-1.86-1-2.76-1.49s-1.72-1.07-2.54-1.66l-.63-.47c.46.35-.19-.16-.27-.23-.42-.33-.83-.68-1.22-1a38.6 38.6 0 0 1-4.38-4.66l-.25-.32c.06.07.28.37 0 0-.13-.19-.28-.37-.41-.56-.34-.46-.66-.93-1-1.4-.6-.89-1.16-1.8-1.7-2.73s-1-1.82-1.47-2.76c-.23-.45-.44-.9-.66-1.36l-.33-.74-.16-.37-.12-.28-.08-.19-.15-.37c-.09-.22-.18-.44-.26-.66-.21-.53-.41-1.07-.61-1.61-.36-1-.7-2-1-3.08a67.33 67.33 0 0 1-1.65-6.58c-.23-1.16-.43-2.34-.6-3.51 0-.15-.05-.29-.07-.44 0 .1.06.4 0-.06 0-.29-.07-.59-.11-.88-.06-.6-.12-1.19-.17-1.78a64.8 64.8 0 0 1-.19-7.11c0-1.17.1-2.35.2-3.53.05-.55.11-1.1.18-1.64 0-.11 0-.22 0-.33 0 .33 0 0 0-.09l.15-1a47.26 47.26 0 0 1 1.65-6.86c.34-1.07.72-2.12 1.14-3.16.05-.11.09-.22.14-.34-.13.31 0 0 0 0 .1-.22.2-.45.31-.67.2-.45.42-.9.64-1.34a41.46 41.46 0 0 1 3-5.09c.27-.38.54-.76.82-1.13l.14-.18.14-.18.53-.66c.63-.76 1.29-1.5 2-2.21a37.79 37.79 0 0 1 4.13-3.72 35 35 0 0 1 10-5.46c.93-.3 1.88-.56 2.83-.78a1.16 1.16 0 1 0-.61-2.23ZM3067.78 1396a69.11 69.11 0 0 0-18.65 28.53 74 74 0 0 0-3.71 17c-.6 6.23-.41 12.49-.88 18.73-.43 5.81-1.54 11.66-4.46 16.78a32.81 32.81 0 0 1-9.24 10.14c-8.14 5.92-18 9-27.73 11.11-10.34 2.29-20.89 3.73-30.9 7.33s-19.49 9.5-25 18.91-6.6 20.85-4.35 31.38c2.32 10.88 8.48 20.53 16.6 28a83.06 83.06 0 0 0 29 16.88c12.69 4.46 26 6.45 39.36 7.75a91.51 91.51 0 0 0 9.65.56c2.08 0 2.65-3.26.5-3.72-6.42-1.38-13-1.85-19.53-2.85s-13-2.1-19.4-3.74c-11-2.82-21.6-7.16-30.83-13.88-8.34-6.07-15.55-14.35-19.1-24.14-3.47-9.55-3.87-20.42 0-29.92 8.26-20.21 32.55-23.8 51.37-27.59 9.79-2 19.7-4.67 28.39-9.73a41.42 41.42 0 0 0 11-9 35 35 0 0 0 7.23-14.5c2.75-11.75.69-24 3-35.82a74.42 74.42 0 0 1 13.68-30.59 82.25 82.25 0 0 1 5.28-6.35.88.88 0 0 0-1.25-1.25ZM3006.58 1612.71c5.25 10 10.8 19.83 16.31 29.68 4.88 8.71 10.17 17.41 17.28 24.51 7.29 7.29 16.41 12.27 26 15.82 10.22 3.78 21.3 6.16 32.24 5.13a47.3 47.3 0 0 0 13.84-3.47 31.6 31.6 0 0 0 6.4-3.45 47.73 47.73 0 0 0 5.52-4.53c.81-.79 1.59-1.62 2.32-2.49a1.53 1.53 0 1 0-2.16-2.16 33 33 0 0 1-5 4.19 46.6 46.6 0 0 1-6 3.18l-1.46.67c-.39.17-.11 0 0 0l-.37.16-.94.37c-1.06.4-2.14.76-3.24 1.09a46.36 46.36 0 0 1-6.59 1.44l-.19 0-.19 0-.89.11c-.59.06-1.17.13-1.75.17-1.33.12-2.67.18-4 .19a60.86 60.86 0 0 1-7.87-.43l-.46-.06-.39-.05-.28 0-.47-.07c-.66-.09-1.32-.2-2-.32-1.31-.24-2.63-.51-3.93-.82q-3.91-.91-7.74-2.18c-2.4-.79-4.78-1.67-7.12-2.63l-.4-.17c.09 0 .35.15-.06 0l-.8-.35-1.79-.8c-1.13-.52-2.24-1.06-3.33-1.63a69.35 69.35 0 0 1-6.28-3.7c-1-.68-2-1.4-3-2.14l-.08-.06-.34-.27-.68-.55c-.5-.41-1-.83-1.49-1.26-7.36-6.48-12.42-14.36-17.55-22.7-5.71-9.27-11.12-18.73-17-27.92l-2.26-3.56a1.06 1.06 0 0 0-1.83 1.07Z"></path>
    <path fill="#525252" d="M3337.21,1407.29c1.59,11.33,3.25,22.74,6.85,33.64a68,68,0,0,0,16.67,27.57c7.12,7,15.49,12.61,22.79,19.44a54.25,54.25,0,0,1,9.33,11A39.35,39.35,0,0,1,3398,1513c1.79,10.55.54,21.35,1.84,31.94a43.7,43.7,0,0,0,4.34,15.1c2.64,5,6.73,8.92,10.73,12.86s7.53,8.26,9.37,13.76a49,49,0,0,1,2.17,16.63,70,70,0,0,1-6.86,28.35c-8.42,17.7-23.54,32.13-42.06,38.79-2.3.83-4.5,1.78-6.73,2.78-1.27.57-.63,2.68.7,2.6a26.3,26.3,0,0,0,7.51-1.44,77.76,77.76,0,0,0,7.18-3,74.36,74.36,0,0,0,12.64-7.75,82.15,82.15,0,0,0,20.38-22.47,77.23,77.23,0,0,0,10.51-28c1.73-10.83,1.56-22.94-3.62-32.85-2.73-5.22-7.09-9.16-11.21-13.27-3.89-3.87-7.13-8.06-8.91-13.32-3.48-10.26-2.39-21.36-3-32a63.09,63.09,0,0,0-2.56-15.92,42.6,42.6,0,0,0-7.32-13.38c-6.24-7.88-14.6-13.72-22.33-20a99.51,99.51,0,0,1-11.23-10.29,63,63,0,0,1-9.37-13.93c-5.21-10.26-8-21.59-10.2-32.81-.56-2.8-1.09-5.6-1.61-8.41-.13-.75-1.22-.41-1.12.31Z"></path>
    <path fill="#525252" d="M3355 1486.67a67.4 67.4 0 0 1 25.38 56.81c-.6 8.6-3.8 17-3.06 25.72.72 8.38 5.55 15.19 9.81 22.16a57.62 57.62 0 0 1 7.24 17.68 63 63 0 0 1-3.08 35.91 63.83 63.83 0 0 1-22 28.46q-1.83 1.33-3.77 2.54a1.35 1.35 0 0 0 1.36 2.32c11.68-5.45 20.54-15.71 26-27.26a67.84 67.84 0 0 0 6-37.59 57.83 57.83 0 0 0-5.58-18.38c-3.49-7-8.93-13-11.48-20.41-3-8.8 0-17.85 1.13-26.7a65.32 65.32 0 0 0-.95-22 67.84 67.84 0 0 0-22.05-37.14c-1.36-1.16-2.78-2.26-4.23-3.31-.73-.52-1.38.66-.69 1.19ZM3313.3 1353.69a59.51 59.51 0 0 0 26.6 21.67 38.17 38.17 0 0 0 8.81 2.62 15.26 15.26 0 0 0 9.69-1.49c5.26-2.83 8.64-8.39 11-13.67a47.37 47.37 0 0 0 3.55-10.62 52.31 52.31 0 0 0 .76-5.58q.12-1.33.15-2.67a17.38 17.38 0 0 0-.27-3 1.41 1.41 0 0 0-2.7 0c-.49 3.13-.67 6.12-1.35 9.2a58.46 58.46 0 0 1-2.58 8.9 45.38 45.38 0 0 1-3.92 7.78 27.1 27.1 0 0 1-2.23 3c-.42.49-.86 1-1.31 1.4-.23.22-.46.44-.7.65l-.36.3-.3.25a11.12 11.12 0 0 1-7.28 2.45 30.65 30.65 0 0 1-8.71-1.9 57 57 0 0 1-27.8-19.93c-.47-.64-1.56 0-1.09.64Z"></path>
    <path fill="#525252" d="M3316.93 1360.14a28.79 28.79 0 0 0 23.91 2.72 26.88 26.88 0 0 0 10.4-6.3 29.7 29.7 0 0 0 6.63-10.09 23.39 23.39 0 0 0 1.33-13.23c-.26-1.34-2.34-1-2.34.32 0 7.14-2.18 14.39-6.9 19.75a25 25 0 0 1-8.72 6.46 26.26 26.26 0 0 1-11 2.15 25.87 25.87 0 0 1-12.35-3.36.92.92 0 0 0-.93 1.58ZM3087.92 1307.06a44 44 0 0 0-3.84 15.47 32.81 32.81 0 0 0 2.91 15.29 22.76 22.76 0 0 0 9.15 10.07 24.23 24.23 0 0 0 12.64 3.34 19.22 19.22 0 0 0 6.9-1.4 13.05 13.05 0 0 0 5.87-4.74 1.5 1.5 0 0 0-.39-2 1.55 1.55 0 0 0-2 .11l-.31.25c-.23.19.3-.2-.1.08l-.5.35c-.42.28-.84.57-1.27.84a24.05 24.05 0 0 1-2.41 1.27l-.35.15c-.27.14.45-.16 0 0l-.57.21a14.84 14.84 0 0 1-1.44.43c-.45.12-.89.21-1.34.29-.18 0-.68.09-.24 0l-.76.08a20.75 20.75 0 0 1-3 0l-.62 0c-.11 0-.93-.11-.42 0-.47-.07-.93-.15-1.4-.24a22.84 22.84 0 0 1-2.91-.81l-.6-.21-.37-.15c-.1 0-.44-.18-.06 0-.46-.2-.92-.41-1.37-.64a23.4 23.4 0 0 1-2.55-1.51l-.52-.37-.18-.14c.23.18-.19-.14-.19-.14q-.58-.48-1.14-1a21.39 21.39 0 0 1-2-2.15l-.2-.24c.24.3 0 0 0-.06-.17-.23-.34-.47-.5-.71-.35-.51-.68-1-1-1.57a23.66 23.66 0 0 1-2.55-6.35c-.14-.56-.26-1.13-.38-1.7l-.15-.85-.06-.39s-.08-.54-.05-.31a33.71 33.71 0 0 1-.27-3.62 46.22 46.22 0 0 1 2.5-16.11c.4-1.15-1.5-2-2-.84ZM3217.09 1367.26a64.41 64.41 0 0 1 52.25 37.73c5.25 12 6.15 25.44 9.38 38a63.68 63.68 0 0 0 7.3 18.07 51.46 51.46 0 0 0 11.6 13c1.11.88 2.26 1.75 3.7 2.72 1.18.78 2.39 1.53 3.63 2.22a56.79 56.79 0 0 0 8.05 3.69 52 52 0 0 0 17.18 3.2c.68 0 1.36 0 2 0a11.33 11.33 0 0 0 2.51-.53 1.81 1.81 0 0 0 1.3-2 1.85 1.85 0 0 0-1.77-1.56l-.56-.07c.44 0-.15 0-.19 0a9 9 0 0 0-1.47-.14c-.74 0-1.48 0-2.22 0-1.41 0-2.83-.1-4.23-.25l-.92-.1-.16 0-.55-.08c-.73-.11-1.46-.23-2.19-.38-1.38-.27-2.76-.6-4.12-1s-2.71-.83-4-1.32q-1-.36-1.89-.75c.43.18-.13-.06-.18-.08l-.51-.23-1-.46a53 53 0 0 1-7.52-4.34c-.56-.39-1.11-.78-1.65-1.19l-.44-.33c-.48-.36.18.14-.1-.08s-.63-.49-.94-.75q-1.65-1.35-3.18-2.82c-1-1-2-2-2.92-3.08-.45-.5-.88-1-1.3-1.55l-.35-.43c-.37-.48.22.29-.14-.19l-.72-1a54.66 54.66 0 0 1-7.87-16.66c-3.83-12.73-4.79-26.26-9.88-38.63a66.78 66.78 0 0 0-51.67-40c-1.41-.2-2.82-.35-4.24-.44-1.11-.08-1.09 1.63 0 1.72Z"></path>
    <path fill="#525252" d="M3265.46 1462.26c4.69 8.08 9.93 16.12 17.08 22.25 6.91 5.91 15.6 9.74 24.82 9.4a23.76 23.76 0 0 0 10.85-2.74 16.07 16.07 0 0 0 3.16-2.28c1.33-1.17-.37-3.23-1.85-2.4-.91.52-1.87.92-2.8 1.39l-.68.32-.34.15c-.51.21-1 .41-1.57.58-1 .31-1.91.58-2.88.8-.49.11-1 .2-1.48.28l-.37.06c-.05 0-.36 0-.07 0l-.84.09a30.39 30.39 0 0 1-6.18-.08l-.38 0h-.1l-.76-.12c-.54-.09-1.08-.2-1.62-.32-1-.22-2.07-.5-3.08-.81-8.23-2.53-15.06-8.47-20.53-15.11a118.86 118.86 0 0 1-8.71-12.39 1 1 0 0 0-1.67 1ZM3066.57 1498.68c-4.4 10.22-14.09 16.66-24 20.81a147.25 147.25 0 0 1-17.53 5.64 149.66 149.66 0 0 0-18.75 6.2 76 76 0 0 0-29.38 22.94c-7.4 9.36-13 21.13-11.47 33.35a36 36 0 0 0 11.11 21.74 27.15 27.15 0 0 0 6.83 4.93 19.72 19.72 0 0 0 4 1.16 1.63 1.63 0 0 0 1.25-3l-.84-.55-.37-.26c-.49-.31.26.23-.18-.12a20.15 20.15 0 0 0-1.86-1.45c-1.07-.68-2.14-1.38-3.16-2.15-.09-.06-.57-.44-.1-.07l-.29-.22-.7-.58c-.54-.45-1.06-.92-1.56-1.4a33 33 0 0 1-2.67-2.88c-.2-.23-.39-.47-.58-.7 0 0-.38-.49-.15-.2s-.14-.18-.15-.19c-.4-.54-.78-1.09-1.15-1.65a33.76 33.76 0 0 1-2-3.4c-.29-.57-.56-1.15-.82-1.73-.17-.39 0 0 0 0l-.21-.5-.39-1a33.42 33.42 0 0 1-1.09-3.66c-.14-.63-.27-1.25-.38-1.88q-.09-.5-.15-1c0 .08.06.49 0 .06 0-.24-.06-.48-.08-.72a31.93 31.93 0 0 1-.13-4q0-1 .12-2c0-.33.07-.67.11-1 .07-.67-.07.45 0-.22 0-.2 0-.4.09-.6a37.91 37.91 0 0 1 1-4.35 40.9 40.9 0 0 1 1.38-4c.07-.19.15-.38.23-.57s.16-.38 0-.05c.13-.32.27-.63.41-.94.32-.72.67-1.43 1-2.13a57.43 57.43 0 0 1 4.59-7.5c.43-.6.86-1.18 1.3-1.76.24-.31-.29.37.12-.16l.39-.49.78-1q1.38-1.68 2.85-3.28a89 89 0 0 1 6.66-6.52 66.83 66.83 0 0 1 15.15-10.07 136.19 136.19 0 0 1 17.85-6.53c6-1.89 12-3.7 17.74-6.14 9.78-4.14 19.48-10.55 24.52-20.2a33.39 33.39 0 0 0 1.58-3.57c.22-.58-.77-1-1-.43Z"></path>
    <path fill="#525252" d="M3032.34 1542a138.7 138.7 0 0 0-20.25 13.1 67.56 67.56 0 0 0-15.88 17.62 48.77 48.77 0 0 0-7.19 22.55 35.61 35.61 0 0 0 5.27 20.48c3.59 5.78 9 11 15.71 12.81a22.85 22.85 0 0 0 2.47.46 1.56 1.56 0 0 0 1.84-1 1.53 1.53 0 0 0-1-1.84 31.16 31.16 0 0 1-4.05-2c-.69-.41-1.38-.79-2-1.22-.3-.19-.59-.39-.88-.59l-.51-.36-.21-.16-.14-.1c.31.23-.37-.29-.28-.21l-.36-.28c.3.23 0 0-.12-.1l-1-.8c-.6-.53-1.17-1.08-1.73-1.66s-1.1-1.18-1.61-1.8l-.34-.41c-.07-.1-.15-.19-.22-.28s.21.28.07.08-.5-.67-.74-1a32.53 32.53 0 0 1-2.45-4.09c-.18-.35-.35-.71-.52-1.06-.08-.19-.17-.39-.26-.58s-.07-.16-.11-.25c-.13-.3.14.33 0 0-.3-.76-.59-1.52-.85-2.29a33.75 33.75 0 0 1-1.19-4.73c-.07-.38-.14-.77-.19-1.15 0-.08-.09-.61-.05-.33s0 0 0-.07 0-.24 0-.36c-.1-.91-.16-1.83-.19-2.76a38.94 38.94 0 0 1 .23-5.61c0-.2 0-.41.07-.62s0 .29 0-.06c0-.1 0-.21 0-.31q.11-.72.24-1.44c.17-.92.38-1.84.61-2.75a46.92 46.92 0 0 1 1.68-5.28l.51-1.27c.09-.2 0 0 0 0 .05-.13.11-.26.17-.39s.19-.45.3-.67c.39-.87.81-1.72 1.25-2.56a65 65 0 0 1 13.92-17.73 132.94 132.94 0 0 1 18.39-13.8l2.47-1.57a.86.86 0 0 0-.87-1.49ZM3091.22 1594.69c-5.88 6.4-10.14 14.09-14.15 21.74-4.17 8-8 16.24-8.94 25.26a34 34 0 0 0 3.67 19.09 38.44 38.44 0 0 0 13.12 14.55 37.8 37.8 0 0 0 9.26 4.39 28.1 28.1 0 0 0 10.64 1.45 12.72 12.72 0 0 0 2.94-.48c1.33-.41 1.52-2.58 0-2.89-1-.19-1.88-.28-2.85-.38l-.65-.08-.28 0c.37 0 .05 0 0 0-.54-.08-1.08-.15-1.63-.21l-.36 0s.35 0 .11 0l-.63-.1-1.33-.2c-.82-.13-1.64-.3-2.44-.49a34.88 34.88 0 0 1-4.66-1.45l-.55-.22c-.39-.15.25.11-.13 0l-1.17-.53c-.71-.34-1.42-.71-2.11-1.1a35.19 35.19 0 0 1-4-2.61c-.14-.1-.39-.3-.11-.08l-.45-.36c-.33-.26-.65-.53-1-.8-.58-.51-1.15-1-1.7-1.57a38.35 38.35 0 0 1-3.07-3.43c-.06-.07-.24-.31 0 0a2.43 2.43 0 0 0-.14-.2c-.12-.15-.23-.3-.34-.46s-.45-.61-.66-.93c-.43-.62-.84-1.26-1.23-1.91a42.62 42.62 0 0 1-2.08-4.1c-.1-.21 0 .11 0 .13s-.08-.2-.13-.3l-.17-.45c-.15-.37-.29-.75-.42-1.12-.24-.71-.47-1.42-.67-2.13a34 34 0 0 1-.92-4.35c0-.29 0 .36 0 .06l0-.23-.06-.56c0-.39-.07-.78-.1-1.18 0-.74-.06-1.48-.05-2.22a41.19 41.19 0 0 1 2.06-11.71 96.78 96.78 0 0 1 4.7-11.81c1.76-3.84 3.57-7.67 5.44-11.46a83.58 83.58 0 0 1 6.33-10.92c.6-.86 1.23-1.71 1.88-2.53s-.39-1.75-1-1ZM3154.31 1376.73a51.64 51.64 0 0 0-15.15.32 64 64 0 0 0-14.64 4.34 73.26 73.26 0 0 0-24.05 16.94 99 99 0 0 0-16.73 23.88 85.19 85.19 0 0 0-8.75 28.53 62.74 62.74 0 0 0 0 14.3 52.64 52.64 0 0 0 1.3 7.37 32.8 32.8 0 0 0 2.77 6.88 24.93 24.93 0 0 0 1.81 3 1.3 1.3 0 0 0 1.62.53 1.29 1.29 0 0 0 .75-1.52 134.53 134.53 0 0 1-3.38-13.5c-.11-.57-.2-1.14-.28-1.71l-.06-.4c0 .09.06.43 0 0l-.12-1q-.18-1.71-.27-3.45a59.69 59.69 0 0 1 .05-7c.07-1.17.17-2.33.3-3.49 0-.28.07-.55.1-.83s0-.27 0-.41c0 .41 0 .06 0 0 .09-.62.18-1.23.28-1.85.39-2.36.9-4.71 1.51-7s1.3-4.57 2.08-6.81c.39-1.13.81-2.24 1.24-3.35l.67-1.65s.16-.38 0-.06l.17-.39q.19-.48.42-1a98.72 98.72 0 0 1 6.67-12.46 91.24 91.24 0 0 1 8.21-11.21 76.24 76.24 0 0 1 21.76-17.86 61.65 61.65 0 0 1 28-7.32c1.22 0 2.44 0 3.66.08a.94.94 0 1 0 0-1.88Z"></path>
    <path fill="#525252" d="M3075.56,1401.84c-6.62,9.54-9.16,21.21-9.84,32.63-.7,11.68.9,23.74,6.77,34a37.54,37.54,0,0,0,12.07,13c1.2.77,2.65-1,1.54-2a49.63,49.63,0,0,1-15.5-25.47,67.12,67.12,0,0,1-2-17.46,89.28,89.28,0,0,1,1.69-16.72,51.91,51.91,0,0,1,6.54-17.28c.5-.82-.74-1.52-1.27-.75Z"></path>
    <path fill="#f19a6d" d="M3295.87,1664.8s-41.26,60.12-87.82,56.16c-47.44-4-46.1-26.8-46.1-26.8l16.37-96.93,104.32-44.55Z"></path>
    <path fill="#f19a6d" d="M3308.22,1516.28c-12.17,34.09-48,70.21-99.92,85.78-23.94,7.18-46.62,6.39-60.69-3.45-17.61-12.26-27.35-30.5-31.83-51.49-2.87-13.91-3.48-29.06-2.53-44.43,2.76-42,17.45-86.21,29.56-114.42C3223.83,1300.64,3323.57,1473.41,3308.22,1516.28Z"></path>
    <path fill="#ef7c59" d="M3256,1580.12c-1.63,4.62-28.83,78.68-85.43,76.46l6.45-49.28,1.57.2a90,90,0,0,0,53.6-9.11C3247.6,1590.38,3254.92,1581.38,3256,1580.12Z"></path>
    <path fill="#f19a6d" d="M3281.61,1510.9c7.32-21.16,29.14-14.87,34.6-9.72,3.94,3.71,5.05,9.55,5,15a47.78,47.78,0,0,1-16.85,35.7c-3.72,3.11-8.05,5.69-12.83,6.5-13.45,2.25-20.83-8.66-19.71-20Z"></path>
    <path fill="#ef7c59" d="M3161.74,1549.64a2,2,0,0,1-1.45-.64c-4.25-4.6-17.93-20.15-15.74-26.91s18.91-5.86,25.95-5.22c7.22-16.79,7.49-45.69,7.49-46a2,2,0,0,1,2-2h0a2,2,0,0,1,2,2c0,1.28-.28,31.56-8.43,48.9a2,2,0,0,1-2,1.13c-10.26-1.08-22.31-.38-23.2,2.37-1,3.14,6.93,14.39,14.88,23a2,2,0,0,1-1.45,3.32Z"></path>
    <path fill="#151515" d="M3206.75 1500.54c-1.32 4.46.69 9 4.5 10.11s8-1.58 9.28-6-.7-9-4.51-10.12S3208.06 1496.08 3206.75 1500.54ZM3135.29 1490.45c-1.32 4.46.7 9 4.5 10.11s8-1.58 9.28-6-.7-9-4.5-10.12S3136.61 1486 3135.29 1490.45Z"></path>
    <path fill="#ef7c59" d="M3176.09 1570.83c-6.23 0-13.45-1.84-21-7.42a2 2 0 1 1 2.34-3.18c19.58 14.46 36.32.85 36.49.71a2 2 0 0 1 2.53 3A34.72 34.72 0 0 1 3176.09 1570.83ZM3201.46 1534.87c-1.95 13.25 9.69 25.93 26 28.33s31.09-6.4 33-19.65-9.68-25.93-26-28.33S3203.41 1521.63 3201.46 1534.87ZM3132 1529.11c-1.24 8.39-7.57 15-16.17 18-2.87-13.91-3.48-29.06-2.53-44.43C3125.57 1507.17 3133.62 1518 3132 1529.11Z"></path>
    <path fill="none" stroke="#343434" stroke-linecap="round" stroke-linejoin="round" stroke-width="4.67" d="M3205.22 1464.85s27.12-11.72 39.1 14.47ZM3166.8 1461s-23.2-18.31-41.5 3.92Z"></path>
    <path fill="#212121" d="M3275.9,1513.7c-14-6.29-57.62-52.25-63.82-93.88-37.59-17.1-108.47,19.23-121.55,65.68-37.69-86.45,23.89-137.79,53.82-153.79,22.44-12,48.83-17.11,74.05-13.28,12.2,1.85,23.44,6.18,35.65,8,13.73,2,27.2,5.51,38.4,14.09,17.68,13.54,29,34,32.08,56a190.07,190.07,0,0,1,1.36,23.39c.22,12.42.43,24.91-1.5,37.18C3318.35,1495.42,3336.63,1540.94,3275.9,1513.7Z"></path>
    <path fill="#525252" d="M3194.93,1391.2a128.49,128.49,0,0,0-16.39,1.27,114.42,114.42,0,0,0-16,3.3,121,121,0,0,0-29.92,13.37,104.15,104.15,0,0,0-41,48,92.87,92.87,0,0,0-4.92,15,64.64,64.64,0,0,0-2,15.89c0,1.27.08,2.53.16,3.79a1.75,1.75,0,1,0,3.5,0c.07-.63.14-1.26.22-1.89l.06-.5c0-.06.05-.4,0-.07l.15-1.07c.06-.42.13-.83.18-1.25-.07.54,0-.27.07-.5l.06-.5c0-.13,0-.26,0-.39-.06.43,0,.08,0,0,.06-.4.11-.79.17-1.18.38-2.49.75-5,1.25-7.45a100.33,100.33,0,0,1,4.2-14.74c.45-1.22.92-2.43,1.42-3.63l.19-.46c0,.08-.19.44,0,0s.26-.61.4-.91c.26-.61.54-1.22.82-1.83q1.59-3.43,3.45-6.77c1.26-2.27,2.62-4.49,4-6.66.7-1.06,1.42-2.11,2.16-3.14.35-.49.7-1,1.06-1.45l.6-.8.24-.32.13-.17a103.68,103.68,0,0,1,10.33-11.43q2.88-2.75,6-5.3l1.45-1.18.73-.58.41-.32.23-.18c1-.8,2.11-1.58,3.19-2.35a116,116,0,0,1,28.16-14.6,137.28,137.28,0,0,1,31.2-7.35c1.32-.14,2.64-.26,4-.37.81-.06.83-1.28,0-1.26Z"></path>
    <path fill="#525252" d="M3108.86 1376.12a88.35 88.35 0 0 0-15.51 17 133.34 133.34 0 0 0-13.61 23.55 117.58 117.58 0 0 0-8.56 26.82 68.56 68.56 0 0 0 0 26.36 45 45 0 0 0 4.2 11.63 32 32 0 0 0 7.67 9.78 14.18 14.18 0 0 0 2.84 1.89 1.6 1.6 0 0 0 1.87-.24 1.56 1.56 0 0 0 .25-1.88c-.7-.92-1.43-1.77-2.2-2.63s-1.37-1.49-2-2.26c-.31-.37-.62-.74-.93-1.13 0 0-.3-.4-.09-.11s0-.08-.08-.11c-.17-.22-.33-.44-.49-.67-.58-.81-1.15-1.64-1.69-2.48a38.65 38.65 0 0 1-2.75-5.16c-.05-.1-.09-.2-.14-.31s-.07-.4 0 .08a3.75 3.75 0 0 0-.25-.63c-.2-.49-.38-1-.56-1.47-.33-.93-.63-1.87-.89-2.81a48.77 48.77 0 0 1-1.27-5.85c0-.24-.07-.47-.1-.7-.07-.5.06.5 0 0 0-.14 0-.29-.05-.43-.07-.52-.12-1-.17-1.56-.1-1-.16-2-.21-3-.09-2.14-.07-4.27 0-6.4.06-1.08.14-2.15.24-3.22.05-.53.1-1.06.16-1.58 0-.28.06-.56.1-.83a2.91 2.91 0 0 1 0-.31c0-.11.1-.8 0-.21a115.35 115.35 0 0 1 7-26.26c.22-.55.43-1.1.66-1.64l.3-.75.16-.37c0-.06.23-.56.1-.25.46-1.09.93-2.16 1.42-3.24.94-2.08 1.89-4.16 2.91-6.2q3-6 6.46-11.6a103.69 103.69 0 0 1 14.12-18.43c.56-.57 1.14-1.13 1.72-1.67s-.21-1.07-.68-.68ZM3232.45 1427a190.37 190.37 0 0 0 6 21.08 162.57 162.57 0 0 0 8.91 20.93 133.27 133.27 0 0 0 11.84 19.07 108.39 108.39 0 0 0 15 16.34 73.28 73.28 0 0 0 18 11.9 23.82 23.82 0 0 0 2.69.94 1.4 1.4 0 0 0 1.08-2.55c-3-1.76-6.08-3.42-9.06-5.26q-2.25-1.38-4.39-2.91c-1.53-1.09-2.59-1.9-4-3a102.75 102.75 0 0 1-15.12-15.38 146.2 146.2 0 0 1-12.33-18.22 186.43 186.43 0 0 1-10-20 188.67 188.67 0 0 1-7.36-20.49c-.25-.85-.49-1.69-.73-2.54a.28.28 0 0 0-.54.15Z"></path>
    <path fill="#525252" d="M3266.7,1463.13a175.41,175.41,0,0,0,20.76,45.81q1.88,2.93,3.94,5.7a35.18,35.18,0,0,0,2.4,3,35.79,35.79,0,0,0,2.62,2.46,1.45,1.45,0,0,0,2.27-1.75,45,45,0,0,0-3-5.36c-1.15-1.74-2.27-3.5-3.42-5.24-2.26-3.46-4.41-7-6.42-10.62s-3.86-7.23-5.61-10.94c-.87-1.86-1.7-3.73-2.51-5.62-.06-.13-.12-.27-.17-.4s-.15-.35-.06-.13-.22-.54-.17-.4l-.2-.48-.13-.31c-.15-.34.12.3,0,0l-.34-.81c-.39-1-.78-1.9-1.15-2.85q-2.57-6.51-4.62-13.18a2.18,2.18,0,1,0-4.21,1.16Z"></path>
    <path fill="#525252" d="M3263.43,1378.39a165.13,165.13,0,0,0-3.88,33.08,174.89,174.89,0,0,0,2.82,33.41,181.27,181.27,0,0,0,4.26,18.27,2.26,2.26,0,1,0,4.36-1.2,181,181,0,0,1-6.79-31.88,197.42,197.42,0,0,1-1.11-32.88,168.91,168.91,0,0,1,1.91-18.37c.16-1-1.34-1.47-1.57-.43Z"></path>
    <path fill="#b92357" d="M3182.57 1735.36s-46.32 1.84-72-51.68c8-1.23 16.33-2.62 24.09-4.1C3140.29 1719.74 3182.57 1735.36 3182.57 1735.36ZM3357.67 1676.83A150.45 150.45 0 0 0 3340 1699c-45.17 68-104.39 43.61-104.39 43.61 79-8.93 91.37-69.12 91.37-69.12C3336.19 1674.55 3346.69 1675.7 3357.67 1676.83Z" opacity=".54"></path>
    <path fill="#f19a6d" d="M3183.89,2228.73c13-23.66,50.66-59.2,50.66-59.2s8.86-13.71,34.07,9.62c19,17.6,43.56,36.49,43.56,36.49l152.64-105.25s45.83-62.71,145.66-49.71c0,0,17.2,47.38,25.8,84.11s-168.16,130.84-294.48,148.45c0,0-45.21,13.2-64.72-4.84l-13.28-12.93s-19.34,18.14-44.66,22.06a47.79,47.79,0,0,1-32.68-6.31,18.72,18.72,0,0,1-8.8-13.38C3176.09,2266.67,3174.78,2245.36,3183.89,2228.73Z"></path>
    <path fill="#ef7c59" d="M3263.8 2277.08a1.57 1.57 0 0 1-1.1-.44 1.6 1.6 0 0 1-.06-2.27l11.07-11.66a1.61 1.61 0 1 1 2.33 2.22L3265 2276.58A1.57 1.57 0 0 1 3263.8 2277.08ZM3207.37 2299.59a1.64 1.64 0 0 1-1.1-.43 1.61 1.61 0 0 1-.08-2.28l51.39-55.22a1.61 1.61 0 1 1 2.35 2.19l-51.39 55.22A1.55 1.55 0 0 1 3207.37 2299.59ZM3186.46 2292.82a1.6 1.6 0 0 1-1.23-2.64l65.44-77.71a1.61 1.61 0 0 1 2.47 2.08l-65.45 77.7A1.59 1.59 0 0 1 3186.46 2292.82ZM3176.56 2265.51a1.6 1.6 0 0 1-1.22-2.66l66-75.52a1.61 1.61 0 0 1 2.43 2.12l-66 75.51A1.6 1.6 0 0 1 3176.56 2265.51Z"></path>
    <path fill="#ef7c59" d="M3268.84,2250.55a1.63,1.63,0,0,1-1.36-.75c-15.49-24.38-30.25-73.55-30.4-74a1.61,1.61,0,1,1,3.09-.92c.14.49,14.78,49.23,30,73.23a1.61,1.61,0,0,1-1.36,2.48Z"></path>
    <ellipse cx="3202.31" cy="1779.12" fill="#fff" rx="13.98" ry="13.82"></ellipse>
    <path fill="#b92357" d="M3015.53,1992.39l-135.65-1.15c-2.45-15.23-5.67-31.78-9.85-47.79,33.81-14.31,131.87-102.2,131.87-102.2,1.58,29.86-11.78,38.51-17.28,70.72s10,56.32,10,56.32Z" opacity=".54"></path>
    <path fill="#f19a6d" d="M2761.39,1707.17l-32-84.7s-13.66-28.78-38.24-50.5c-30-26.54-66.6-70.88-66.6-70.88s-18.19,5.29-7,24.18l29.72,52-31.31,11.59c-12.23,3.92-17.35,19.13-9.11,29,.43.52.9,1,1.4,1.53,0,0-10.46,15.11,4,27.9a19.49,19.49,0,0,0,6.61,20.59c10.59,8.64,33.56,6.76,33.56,6.76s-13.29,20.31,13,43.33l9.36,27.41Z"></path>
    <path fill="#ef7c59" d="M2694.05,1603.59l-72.35-28.67s-12.95,18.42,4.76,28.63a390.63,390.63,0,0,1,35.06,23.34s-11.63,28.39,15.27,44.81Z"></path>
    <path fill="#ef7c59" d="M2676.79,1673.15a1.35,1.35,0,0,1-.75-.21c-24.64-15-18.05-40.06-16.24-45.53a392.86,392.86,0,0,0-34.06-22.61c-5.3-3-8.55-7.12-9.65-12.09-2.05-9.28,4.15-18.25,4.42-18.63a1.44,1.44,0,0,1,1.72-.51l59.55,23.59a1.45,1.45,0,0,1-1.07,2.7l-58.43-23.15c-1.42,2.41-4.77,9-3.35,15.39.92,4.13,3.7,7.56,8.26,10.19a398.2,398.2,0,0,1,35.21,23.44,1.48,1.48,0,0,1,.47,1.71c-.46,1.11-10.82,27.46,14.68,43a1.46,1.46,0,0,1,.48,2A1.44,1.44,0,0,1,2676.79,1673.15Z"></path>
    <path fill="#ef7c59" d="M2656.66 1628.39c-11.42 0-39.33-.74-49.29-7.79a1.45 1.45 0 0 1 1.68-2.37c11.6 8.21 52 7.22 52.43 7.21a1.45 1.45 0 1 1 .08 2.9C2661.23 1628.35 2659.43 1628.39 2656.66 1628.39ZM2637.22 1653.2c-8 0-17.08-1.07-25.59-4.55a1.45 1.45 0 0 1 1.1-2.69c20.91 8.54 46.47 1.69 46.72 1.62a1.45 1.45 0 1 1 .77 2.8A94.8 94.8 0 0 1 2637.22 1653.2ZM2652.35 1676.11a1.45 1.45 0 0 1-.51-2.81c5.19-1.94 13.54-6.32 13.83-9.8a1.46 1.46 0 0 1 2.9.25c-.55 6.42-14.16 11.69-15.71 12.27A1.52 1.52 0 0 1 2652.35 1676.11Z"></path>
    <path d="M3225.4,2296.25l-.68-4.33h149.42a3.36,3.36,0,0,1,3.38,3.35h0a20.41,20.41,0,0,1-20.52,20.29H3208.68A16.8,16.8,0,0,0,3225.4,2296.25Z"></path>
    <path fill="#404040" d="M3208.68,2315.56H2898.83l-50.21-26.37-9.59-61-34-216.29a16.8,16.8,0,0,1,16.72-19.31h332.72a27,27,0,0,1,26.76,22.66l44.17,281A16.79,16.79,0,0,1,3208.68,2315.56Z"></path>
    <path fill="#262626" d="M2997.26,2078.77c0,84.25-58.86,152.55-131.47,152.55a114.67,114.67,0,0,1-26.76-3.16l-34-216.29a16.8,16.8,0,0,1,16.72-19.31h152.52C2988.77,2017.09,2997.26,2046.78,2997.26,2078.77Z" opacity=".51"></path>
    <path d="M3211.86,2296.25l-44.17-281a27,27,0,0,0-26.75-22.66h13.54a27,27,0,0,1,26.75,22.66l44.17,281a16.8,16.8,0,0,1-16.72,19.31h-13.54A16.79,16.79,0,0,0,3211.86,2296.25Z"></path>
    <ellipse cx="2981.3" cy="2153.83" fill="#ff9000" rx="20.87" ry="31.24" transform="rotate(-25.3 2980.891 2153.65)"></ellipse>
    <path fill="#002c6b" d="M3231.11,2531l-132,.95-5.22-132.12s41.67,95.84,91.11,96.86c35,.73,410.43-.11,470.41-173.08l.22-.63C3692.07,2407.12,3607,2544.65,3231.11,2531Z"></path>
    <path fill="#f19a6d" d="M3636.64,2138.22l-160,22.46-34.83-146.41s61.25-42.45,151.8-17.19l21,72.78Z"></path>
    <path fill="#ef7c59" d="M3464.82,2110.39s27.82-13.43,70.77,3.86c0,0-53,6.69-95.5,30.36-34.93,19.48-127.91,71-127.91,71Z"></path>
    <path fill="#ffd900" d="M3626.66,1070.73c.73-1.72,1.45-3.44,2.24-5.15a163.13,163.13,0,1,1,296,137.33c-.79,1.71-1.65,3.37-2.49,5h0s-37.56,83.53-139.61,113.72c0,0-31.94,6.18-56.92,60l-32.66-15.16-39.78-18.46-32.66-15.15c25-53.83,9.07-82.22,9.07-82.22-42.84-97.41-3.3-180-3.3-180Z" opacity=".54"></path>
    <path fill="#fff" d="M3719.8,1290q12.69-25.53,23.73-43.17l-31.09-14.43q-6.34,19.8-17.65,46c-15.42,35.72-32.42,67.73-32.59,68l-7.76-4.13c12.48-23.45,37.51-74.66,50-113.63l-8.5-3.94-.72-.42c-11-7.89-10.43-24.43-6.65-36.2,3-9.32,9.14-19.3,17.41-19.32,4,0,9.49,2.33,13.16,13.56,2.76,8.43,1.38,22.34-4.1,41.55l33.35,15.47c11.13-16.58,20.86-26.61,29.07-30,11-4.45,16.31-1.76,18.87,1.29,5.32,6.33,1.67,17.47-3.52,25.78-6.55,10.48-18.84,21.56-31.94,18.28l-9.28-4.22c-21.71,34.67-44.66,86.85-54.51,111.52l-8.17-3.26C3689,1358.49,3702.49,1324.85,3719.8,1290Zm-9-104.92c-2-5.94-4-7.51-4.79-7.5-2,0-6.33,4.71-9.06,13.22-3.06,9.52-3.25,21.21,3.11,26.14l6.95,3.23C3711.27,1205,3713.12,1192.34,3710.76,1185.09Zm74.56,46.75c4.74-7.58,5.52-13.95,4.25-15.46-.51-.62-3-1.16-8.83,1.2-7,2.86-15.5,12.43-24.35,25.53l7,3.23C3771.22,1248,3780,1240.32,3785.32,1231.84Z"></path>
    <path fill="#231f20" d="M3630.12,1432.71l.36-.78,6.62,3.55,7,2.76-.37.79,15.37,8.24s-10.29,11.73-14,10l-8.06-3.74-13.61-6.32-8.07-3.74c-3.74-1.74-1.42-17.17-1.42-17.17Z"></path>
    <path fill="#a3a6a8" d="M3601.83,1395.46s.62,4.52.79,10.35a73.3,73.3,0,0,1-.81,14.33,6.3,6.3,0,0,0,3.56,6.76l58.8,27.28a6.24,6.24,0,0,0,7.43-1.66,73.71,73.71,0,0,1,10.42-9.86c4.59-3.62,8.41-6.08,8.41-6.08Z"></path>
    <path fill="#a3a6a8" d="M3601.83,1395.46s.62,4.52.79,10.35a73.3,73.3,0,0,1-.81,14.33,6.3,6.3,0,0,0,3.56,6.76l22.46,10.42a210.62,210.62,0,0,0,4-23.23l-5-7.06Z" opacity=".5" style="mix-blend-mode:multiply"></path>
    <path fill="#a3a6a8" d="M3601.83,1395.46s.62,4.52.79,10.35l79.4,36.85c4.59-3.62,8.41-6.08,8.41-6.08Z" opacity=".5" style="mix-blend-mode:multiply"></path>
    <path fill="#f19f4d" d="M3626.66,1070.73c.73-1.72,1.45-3.44,2.24-5.15a163.19,163.19,0,0,1,162.31-93.87,176.26,176.26,0,0,0-122,98c-.86,1.85-1.63,3.71-2.42,5.58l-.14-.07s-42.79,89.43,3.58,194.87c0,0,15.92,28.45-7,82.51l-9.85-4.58-32.66-15.15c25-53.83,9.07-82.22,9.07-82.22-42.84-97.41-3.3-180-3.3-180Z" opacity=".54"></path>
    <path fill="#e6e7e8" d="M3593.05,1396.11l102.57,47.6a14.82,14.82,0,0,0,19.62-7.19h0a14.81,14.81,0,0,0-7.19-19.62l-102.57-47.59a14.81,14.81,0,0,0-19.61,7.18h0A14.81,14.81,0,0,0,3593.05,1396.11Z"></path>
    <path fill="#a3a6a8" d="M3605.48,1369.31l38.75,18a17.34,17.34,0,0,0-13.77,9.89h0a17.35,17.35,0,0,0,1.34,16.91l-38.75-18a14.77,14.77,0,0,1,12.43-26.8Z" opacity=".5" style="mix-blend-mode:multiply"></path>
    <path fill="#a3a6a8" d="M3590,1371.25,3716.58,1430a14.64,14.64,0,0,0-.88-4.77,14.87,14.87,0,0,0-7.64-8.33l-102.59-47.6A14.78,14.78,0,0,0,3590,1371.25Z" opacity=".5" style="mix-blend-mode:multiply"></path>
    <path fill="#e6e7e8" d="M3597.16,1352.12a14.81,14.81,0,0,0,7.18,19.62l102.59,47.6a14.81,14.81,0,0,0,19.61-7.18,14.58,14.58,0,0,0,1.35-6.52,14.39,14.39,0,0,0-.89-4.77,14.8,14.8,0,0,0-7.64-8.33l-102.58-47.6a14.86,14.86,0,0,0-19.62,7.18Z"></path>
    <path fill="#a3a6a8" d="M3616.79,1344.94l38.75,18a17.32,17.32,0,0,0-13.77,9.89h0a17.35,17.35,0,0,0,1.33,16.91l-38.75-18a14.77,14.77,0,0,1,12.44-26.8Z" opacity=".5" style="mix-blend-mode:multiply"></path>
    <path fill="#a3a6a8" d="M3601.27,1346.89l126.62,58.75a14.39,14.39,0,0,0-.89-4.77,14.8,14.8,0,0,0-7.64-8.33l-102.58-47.6A14.8,14.8,0,0,0,3601.27,1346.89Z" opacity=".5" style="mix-blend-mode:multiply"></path>
    <path fill="#e6e7e8" d="M3615.66,1347.37l102.57,47.6a14.81,14.81,0,0,0,19.62-7.19h0a14.82,14.82,0,0,0-7.18-19.62l-102.57-47.59a14.82,14.82,0,0,0-19.62,7.18h0A14.82,14.82,0,0,0,3615.66,1347.37Z"></path>
    <path fill="#a3a6a8" d="M3628.1,1320.57l38.75,18a17.39,17.39,0,0,0-13.78,9.89h0a17.35,17.35,0,0,0,1.34,16.9l-38.75-18a14.77,14.77,0,0,1,12.44-26.8Z" opacity=".5" style="mix-blend-mode:multiply"></path>
    <path fill="#fff" d="M3847,1115.06c6.21,26.55,25.66,44.7,43.42,40.54s27.13-29.06,20.91-55.61-25.66-44.7-43.43-40.53S3840.82,1088.51,3847,1115.06Z" style="mix-blend-mode:screen"></path>
    <path fill="#23536a" d="M3744.46,850.33l11.59,69.61Z"></path>
    <path fill="#ffd900" d="M3755.83,929.12a9.17,9.17,0,0,1-8.83-7.67l-11.59-69.61a9.18,9.18,0,1,1,18.11-3l11.59,69.6a9.2,9.2,0,0,1-7.55,10.57A10.14,10.14,0,0,1,3755.83,929.12Z"></path>
    <path fill="#23536a" d="M3657.41,965.24l-46.25-52.63Z"></path>
    <path fill="#ffd900" d="M3657.2,974.42a9.15,9.15,0,0,1-6.68-3.12l-46.25-52.62a9.18,9.18,0,0,1,13.79-12.13l46.25,52.63a9.19,9.19,0,0,1-7.11,15.24Z"></path>
    <path fill="#23536a" d="M3583.14,1075.64l-56.89-24.24Z"></path>
    <path fill="#ffd900" d="M3582.92 1084.82a9 9 0 0 1-3.38-.74l-56.89-24.23a9.18 9.18 0 1 1 7.2-16.89l56.88 24.23a9.18 9.18 0 0 1-3.81 17.63ZM4011.39 974.19l-60.64 36.1ZM3950.55 1019.47a9.18 9.18 0 0 1-4.49-17.07l60.63-36.1a9.18 9.18 0 1 1 9.39 15.78l-60.63 36.1A9.26 9.26 0 0 1 3950.55 1019.47ZM3979.85 1114.86l70.05 1.34ZM3979.64 1124a9.18 9.18 0 0 1 .39-18.35l70 1.34h0a9.18 9.18 0 0 1-.39 18.36l-70-1.34ZM3943.5 1242.86l55.24 27.79ZM3998.52 1279.83a9.19 9.19 0 0 1-3.91-1l-55.23-27.79a9.18 9.18 0 0 1 8.25-16.41l55.23 27.8a9.18 9.18 0 0 1-4.34 17.38Z"></path>
    <path fill="#23536a" d="M3894.26,886.38l-28.45,61.32Z"></path>
    <path fill="#ffd900" d="M3865.6,956.88A9.31,9.31,0,0,1,3862,956a9.2,9.2,0,0,1-4.47-12.2l28.46-61.32a9.18,9.18,0,0,1,16.65,7.73l-28.45,61.32A9.19,9.19,0,0,1,3865.6,956.88Z"></path>
    <path fill="#fff" d="M627.5,2203.54c8.43-70.83,29.19-437.35,90.93-540.71a80.31,80.31,0,0,0,2.86-45.6c-4.43-19.22-17.27-41.29-48.71-59.5-72.77-42.21-210.59-4.64-220.41,62.46,2.16,4.67,4.39,9.82,6.66,15.36,43.61,105.45,108.72,359.78,44.77,508.18C527,2147.33,602.84,2176.4,627.5,2203.54Z"></path>
    <path fill="#c9c9c9" d="M627.5,2203.54c8.43-70.83,29.19-437.35,90.93-540.71a80.31,80.31,0,0,0,2.86-45.6c-50.94-52.78-135.7-64-193.32-45.86-42,13.21-60.83,42.37-69.14,64.18,37.38,90.39,90.56,290.15,64.71,438.83-6.75,38.87,14,77.34,49.65,94.15C595.35,2179,616.51,2191.45,627.5,2203.54Z" style="mix-blend-mode:multiply"></path>
    <path fill="#fff" d="M554.5,1801l95.76-41.13-11.42-93.44a87,87,0,0,0,1.28-12.07c.89-20.28-3.06-59.91-46-69.3-48.31-10.6-89.08,22.19-91.36,67.24a84.12,84.12,0,0,0,3.84,29.35C546.29,1745.81,554.5,1801,554.5,1801Z"></path>
    <path fill="#e3e3e3" d="M554.5,1801l95.76-41.13-11.42-93.44a87,87,0,0,0,1.28-12.07c-9.4-9.75-22-18-38.71-23.59-55.93-18.72-84.72,2.28-98.63,21.53a84.12,84.12,0,0,0,3.84,29.35C546.29,1745.81,554.5,1801,554.5,1801Z" style="mix-blend-mode:multiply"></path>
    <path fill="#ccc" d="M584.9,1657.93s-16.52,10.32,1.86,18,36.22,4.35,52.91-9.2c1.66,20.11,10.57,93.22,10.57,93.22l-72.07,30.94S553,1637.24,584.9,1657.93Z" style="mix-blend-mode:multiply"></path>
    <path fill="#fff" d="M672.94,2261.82c-1.52-112-29.39-400,45.49-599-14.41,19.59-30.18,35.07-46.53,46.68-63.4,45.15-134.76,31.62-165.26-27.79.79,2.07,27.84,74.7,43.68,183.09,9.66,65.84,15.11,144.86,8,229.26a835.73,835.73,0,0,1-15.82,107.2c7,24.73,20.52,42.29,37.76,53.25C605.94,2270.86,639.85,2272.64,672.94,2261.82Z"></path>
    <path fill="#e3e3e3" d="M672.94,2261.82c-1.52-112-29.39-400,45.49-599-14.41,19.59-30.18,35.07-46.53,46.68-.11,32.11-9.69,83.82-58.66,136.62-19.92,21.46-41.58,25.17-62.92,18.68,9.66,65.84,15.11,144.86,8,229.26,17.93,4,50.57,19.91,45.55,82.71-3.17,39.72-13.45,63.57-23.61,77.74C605.94,2270.86,639.85,2272.64,672.94,2261.82Z" style="mix-blend-mode:multiply"></path>
    <path fill="#fff" d="M672.94,2261.82c87.66-26.33,93.71-77.83,93.71-77.83s-13.11-39.16-21.44-95.53C736.58,2030.4,733,1954,754,1883.39c41.38-139.13,91.19-175.86,91.19-175.86a31.71,31.71,0,0,0,3.9-5.68c4.95-8.81,10.68-26.93-8.11-47-26.53-28.39-74.3-40.73-101.46-22.28-.58,1.35-1.86,4-3.66,7.81-18.87,39.78-98.1,207.85-103,393.54C630.93,2109.42,641.26,2187.87,672.94,2261.82Z"></path>
    <path fill="#c9c9c9" d="M745.21,2088.46C736.58,2030.4,733,1954,754,1883.39c41.38-139.13,91.19-175.86,91.19-175.86a31.71,31.71,0,0,0,3.9-5.68c-4.65-13.51-16-32.24-43.23-46.18-33.6-17.18-58.27-17-70-15.34-18.87,39.78-98.1,207.85-103,393.54Z" style="mix-blend-mode:multiply"></path>
    <path fill="#fff" d="M781.64,1734.22s10.33-20.06,29.09-50.3c-22.48-37.24-44.71-36-60.22-27.26-12.82,7.21-21,19.54-21,19.54C726.45,1699.57,781.64,1734.22,781.64,1734.22Z"></path>
    <path fill="#e3e3e3" d="M781.64,1734.22s10.33-20.06,29.09-50.3c-22-20.78-43.47-26.78-60.22-27.26-12.82,7.21-21,19.54-21,19.54C726.45,1699.57,781.64,1734.22,781.64,1734.22Z" style="mix-blend-mode:multiply"></path>
    <path fill="#ccc" d="M773.38,1670.75s20.38,28.81,37.35,13.17c-4.57,20.56-29.09,50.3-29.09,50.3l-24.36-17.83S758.58,1689.62,773.38,1670.75Z" style="mix-blend-mode:multiply"></path>
    <path fill="#fff" d="M756.19,1992.92c.28,43.69,13.85,81.34,46.89,134.21l-9,88h0c-17.41,26.21-31.5,41.75-58.63,47.2-15.53,3.11-35.36,2.93-62.56-.5-8.11-51.51-12.72-107.09-14-163.19-.83-35.31-.35-70.84,1.39-105.71,2.56-51.44,7.88-101.46,15.8-147.25,12-69.41,29.93-129.14,53.35-169.47,24.61,35.22,67.73,44.34,100.4,36.58a80.61,80.61,0,0,0,15.35-5.25s-48.09,76.79-73.4,182.13C761.84,1931.19,756,1963.44,756.19,1992.92Z"></path>
    <path fill="#e3e3e3" d="M756.19,1992.92c.28,43.69,13.85,81.34,46.89,134.21l-9,88c-17.41,26.21-31.49,41.76-58.63,47.21,6-34.92,9.4-88.77-10.75-141.93-18.46-48.73-45.27-39.91-65.83-21.76-.83-35.31-.35-70.84,1.39-105.71,2.56-51.44,7.88-101.46,15.8-147.25,4.07,11.12,11.35,20.09,23,25.54,53,24.88,107.78-98.61,130.78-158.43a80.61,80.61,0,0,0,15.35-5.25s-48.09,76.79-73.4,182.13C761.84,1931.19,756,1963.44,756.19,1992.92Z" style="mix-blend-mode:multiply"></path>
    <path fill="#e43864" d="M816.74,1992.92l-13.66,134.21-9,88h0L766,2491.54a41.82,41.82,0,0,1-41.59,37.39H548.51a41.83,41.83,0,0,1-41.66-38.11l-44.33-497.9Z"></path>
    <path fill="#b92357" d="M816.74,1992.92l-13.66,134.21-9,88h0L766,2491.54a41.82,41.82,0,0,1-41.59,37.39H548.51a41.83,41.83,0,0,1-41.66-38.11c66.44-9.76,126.77-54.41,158.74-99.49,47.74-67.32,47.61-307.83,45.62-398.41Z"></path>
  </g>
</svg>
