<svg xmlns="http://www.w3.org/2000/svg" enable-background="new 0 0 2048 2048" viewBox="0 0 2048 2048" id="ReduceBusinessRisk">
  <path fill="#52cc99" d="M447.37 1614.12H280c-13.255 0-24-10.745-24-24V782.43c0-13.255 10.745-24 24-24h167.37c13.255 0 24 10.745 24 24v807.69C471.37 1603.375 460.625 1614.12 447.37 1614.12zM304 1566.12h119.37V806.43H304V1566.12zM777.76 1614.12H609.77c-13.255 0-24-10.745-24-24V921.69c0-13.255 10.745-24 24-24h167.99c13.255 0 24 10.745 24 24v668.43C801.76 1603.375 791.015 1614.12 777.76 1614.12zM633.77 1566.12h119.99V945.69H633.77V1566.12zM1107.84 1614.109H939.85c-13.255 0-24-10.745-24-24v-529.17c0-13.255 10.745-24 24-24h167.99c13.255 0 24 10.745 24 24v529.17C1131.84 1603.364 1121.095 1614.109 1107.84 1614.109zM963.85 1566.109h119.99v-481.17H963.85V1566.109zM1437.92 1614.12h-167.99c-13.255 0-24-10.745-24-24V1200.2c0-13.255 10.745-24 24-24h167.99c13.255 0 24 10.745 24 24v389.92C1461.92 1603.375 1451.175 1614.12 1437.92 1614.12zM1293.93 1566.12h119.99V1224.2h-119.99V1566.12zM1768 1614.12h-167.99c-13.255 0-24-10.745-24-24v-250.66c0-13.255 10.745-24 24-24H1768c13.255 0 24 10.745 24 24v250.66C1792 1603.375 1781.255 1614.12 1768 1614.12zM1624.01 1566.12H1744v-202.66h-119.99V1566.12z" class="color231f20 svgShape"></path>
  <g fill="#000000" class="color000000 svgShape">
    <path fill="#52cc99" d="M1683.992,1189.385c-3.54,0-7.132-0.785-10.526-2.445L353.447,541.41
			c-11.907-5.823-16.84-20.196-11.017-32.104c5.823-11.907,20.195-16.84,32.104-11.017l1320.02,645.529
			c11.906,5.823,16.839,20.196,11.016,32.104C1701.406,1184.437,1692.87,1189.385,1683.992,1189.385z" class="color231f20 svgShape"></path>
    <path fill="#52cc99" d="M1600.752,1219.696c-9.804,0-19.006-6.051-22.554-15.797c-4.534-12.455,1.887-26.228,14.342-30.762
			l60.707-22.1l-22.099-60.697c-4.535-12.455,1.886-26.229,14.341-30.763c12.457-4.533,26.229,1.887,30.763,14.341l30.31,83.25
			c2.178,5.981,1.89,12.583-0.8,18.353c-2.689,5.769-7.561,10.233-13.542,12.41l-83.26,30.31
			C1606.25,1219.228,1603.478,1219.696,1600.752,1219.696z" class="color231f20 svgShape"></path>
  </g>
  <g fill="#000000" class="color000000 svgShape">
    <path fill="#52cc99" d="M1514.49,819.98h-321.12c-19.522,0-37.006-10.095-46.768-27.004
			c-9.76-16.907-9.759-37.093,0.004-53.998l160.56-278.098c9.755-16.903,27.232-26.997,46.75-27c0.003,0,0.009,0,0.011,0
			c19.522,0,37.003,10.091,46.767,26.998l160.561,278.102c9.762,16.903,9.763,37.089,0.003,53.996
			C1551.495,809.885,1534.013,819.98,1514.49,819.98z M1353.926,481.88c-1.579,0-3.76,0.52-5.188,2.995
			c-0.001,0.002-0.002,0.003-0.004,0.005l-160.561,278.1c-1.432,2.479-0.79,4.63,0,5.998c0.79,1.37,2.334,3.002,5.196,3.002h321.12
			c2.862,0,4.405-1.632,5.196-3.001c0.789-1.368,1.431-3.519,0-5.997l-160.56-278.102
			C1357.693,482.4,1355.507,481.879,1353.926,481.88z M1327.95,472.88h0.01H1327.95z" class="color231f20 svgShape"></path>
    <path fill="#52cc99" d="M1353.93 696.35c-13.255 0-24-10.745-24-24v-94.87c0-13.255 10.745-24 24-24s24 10.745 24 24v94.87C1377.93 685.605 1367.185 696.35 1353.93 696.35zM1353.93 759.55c-13.255 0-24-10.745-24-24v-2.58c0-13.255 10.745-24 24-24s24 10.745 24 24v2.58C1377.93 748.805 1367.185 759.55 1353.93 759.55z" class="color231f20 svgShape"></path>
  </g>
</svg>
