<svg xmlns="http://www.w3.org/2000/svg" xml:space="preserve" id="smart-businessman-holding-floating-cloud-padlock-with-security-key" x="0" y="0" enable-background="new 0 0 3000 3000" version="1.1" viewBox="0 0 3000 3000">
  <path fill="#414042" d="M2350.9,2106.4H539.7v-839.1c0-499.4,406.3-905.6,905.6-905.6s905.6,406.3,905.6,905.6V2106.4z
				 M727.9,1918.1h1434.8v-650.9c0-395.6-321.8-717.4-717.4-717.4s-717.4,321.8-717.4,717.4V1918.1z"></path>
  <path fill="#414042" d="M2713.4,2115.3H2604c0.4-7.7,0.7-15.5,0.7-23.3c0-230.3-186.7-417-417-417c-67.7,0-131.5,16.2-188,44.8
						c-92.2-208.2-300.5-353.5-542.8-353.5c-261.3,0-483,168.9-562.3,403.5c-59.1-32.1-126.7-50.3-198.6-50.3
						c-224,0-406.7,176.7-416.5,398.2c-127.5,17.5-225.8,126.8-225.8,259.1v0c0,144.5,117.1,261.6,261.6,261.6h2398.2
						c144.5,0,261.6-117.1,261.6-261.6v0C2975,2232.4,2857.9,2115.3,2713.4,2115.3z"></path>
  <path fill="#ffa726" d="M2684.8,2077h-109.5c0.4-7.7,0.7-15.5,0.7-23.3c0-230.3-186.7-417-417-417c-67.7,0-131.5,16.2-188,44.8
						c-92.2-208.2-300.5-353.5-542.8-353.5c-261.3,0-483,168.9-562.3,403.5c-59.1-32.1-126.7-50.3-198.6-50.3
						c-224,0-406.7,176.7-416.5,398.2C123.3,2097,25,2206.3,25,2338.6v0c0,144.5,117.1,261.6,261.6,261.6h2398.2
						c144.5,0,261.6-117.1,261.6-261.6v0C2946.3,2194.2,2829.2,2077,2684.8,2077z"></path>
  <g>
    <path fill="#414042" d="M1616.4,2284.6l-61-346.1c30.6-21.8,50.7-57.5,50.7-98c0-66.5-53.9-120.3-120.3-120.3
					s-120.3,53.9-120.3,120.3c0,40.5,20,76.2,50.7,98l-61,346.1H1616.4z"></path>
    <path fill="#58595b" d="M1439.6,1938.5l-61,346h-23.7l61.1-346c-30.6-21.9-50.6-57.5-50.6-98c0-66.5,53.8-120.3,120.2-120.3
					c4,0,7.9,0.2,11.9,0.7c-61,5.8-108.5,57.1-108.5,119.7C1389,1881,1409.1,1916.7,1439.6,1938.5z"></path>
  </g>
  <g>
    <rect width="51.7" height="79.7" x="1580.8" y="1662" fill="#f7c19b" transform="translate(2.882 -2.716)"></rect>
    <path fill="#333" d="M1584.3,1755.5l-7.6,10.5l-2,3.4c-1.2,2-1.7,4.2-1.6,6.5l0.4,8.9c0.1,2.2,2,3.9,4.2,3.8l9.9-0.4l-0.1-2.5
					l5.3-0.2l0.1,2.5l11.9-0.2l-0.1-2.1l5.6-0.2l0.1,2.2l13.3-0.6l6.5-9c10.7,2.7,20.4,6,28.7,10.4c0.4,0.3,13.8-0.2,13.9-0.6
					l-0.1-2l5.2-0.2l0.1,2c4.3,0.1,8.6,0,12.8-0.5l-0.1-2.1l5.1-0.2l0.1,1.7c4.5-0.2,8.4-0.8,11.8-1.9l-0.1-1.6l5.1-0.9l0.1,1.5
					c3-0.5,5.7-1.5,8.3-2.6l-0.3-1.7l4.5-2.1l1,1.6c4.9-2.2,9.3-4.5,13.1-7c0,0,0.5-6.8-3.7-7l-54.3-3.8l-69.8-6.7L1584.3,1755.5z"></path>
    <path fill="#58595b" d="M1574,1751c0.1,3.3,0.6,6.6,1.5,9.9l1.3,5.1c20.8-1.2,40.2-0.4,57.7,3.2c3.6,0.8,7.2,1.6,10.6,2.7
					c29.6,8.9,59.8,6.1,90.5-7l-0.2-4.9c-0.1-3.6-2.8-6.6-6.4-7.2l-23.3-3.8c-4.2-0.7-8.3-1.2-12.5-1.8
					c-11.7-1.7-22.6-5.9-32.9-12.2c-0.6-0.4-1.1-0.7-1.7-1.1c-0.3-0.2-0.7-0.4-1-0.7c-0.4,5.1-5,11.5-5.3,11.8
					c-0.1,0.2-0.4,0.3-0.6,0.3c-0.1,0-0.2-0.1-0.3-0.1c-0.3-0.2-0.4-0.6-0.1-0.9c1.6-2.3,5.2-8.1,5.1-11.9c-0.2-0.2-0.5-0.3-0.7-0.5
					c-4.1-1-10.9,0.9-13.7,1.9c-0.3,0.1-0.7,0-0.8-0.4c-0.1-0.3,0-0.7,0.4-0.8c0.4-0.1,6.7-2.4,11.9-2.3c-0.8-0.6-1.7-1.2-2.5-1.9
					c-0.5-0.4-1-0.8-1.6-1.2c-1.1-0.9-2.2-1.8-3.3-2.8c-0.4-0.4-0.9-0.8-1.3-1.2c-1.6-1.4-3.2-2.9-4.8-4.4c-3.3,0.4-7.3,2.8-9,4
					c-0.3,0.2-0.7,0.1-0.9-0.2c-0.2-0.3-0.1-0.7,0.1-0.9c0.3-0.2,4.6-3.3,8.7-4.1c-0.6-0.6-1.3-1.3-1.9-1.9c-1-1.1-2.4-1.7-3.9-1.7
					l-54,0.2c-2,0-3.5,1.7-3.4,3.7l0.5,6.3c0.3,4.7,0,9.4-1.1,14C1574.2,1742.6,1573.8,1746.8,1574,1751z"></path>
    <path fill="#231f20" d="M1651.5 1745.3c.1.1.2.1.3.1.2 0 .4-.1.6-.3.2-.3 4.9-6.8 5.3-11.8-.4-.3-.8-.6-1.3-.9.1 3.9-3.4 9.7-5.1 11.9C1651.1 1744.7 1651.2 1745.1 1651.5 1745.3zM1641.2 1733.5c.1.3.5.5.8.4 2.8-1 9.5-2.9 13.7-1.9-.7-.5-1.4-1-2.2-1.6-5.2-.2-11.6 2.1-11.9 2.3C1641.3 1732.8 1641.1 1733.2 1641.2 1733.5z"></path>
    <path fill="#303030" d="M1630.2,1722.8c0.2,0.3,0.6,0.4,0.9,0.2c1.7-1.2,5.8-3.7,9-4c-0.4-0.4-0.8-0.7-1.1-1.1
					c-4.1,0.9-8.4,3.9-8.7,4.1C1630,1722.1,1629.9,1722.5,1630.2,1722.8z"></path>
    <path fill="#414042" d="M1574,1751c0.1,3.3,0.6,6.6,1.5,9.9l1.3,5.1c20.8-1.2,40.2-0.4,57.7,3.2l25.9-19.5c1.5-1.1,1.7-3.3,0.5-4.7
					l-27.6-30.8l-54,0.2c-2,0-3.5,1.7-3.4,3.7l0.5,6.3c0.3,4.7,0,9.4-1.1,14C1574.2,1742.6,1573.8,1746.8,1574,1751z"></path>
    <polygon fill="#58595b" points="1632.3 1716.7 1632.7 1716.3 1632.4 1715.9 1631.8 1715.9 1631.8 1716.5 1632.1 1716.5"></polygon>
    <path fill="#58595b" d="M1577.9,1762.2l0.6-0.1l0.2,0.8l-0.6,0.1L1577.9,1762.2z M1577.5,1760.7l0.6-0.1l0.2,0.8l-0.6,0.1
								L1577.5,1760.7z M1577.1,1759.1l0.6-0.1c0.1,0.3,0.1,0.5,0.2,0.8l-0.6,0.1C1577.3,1759.7,1577.2,1759.4,1577.1,1759.1z
								 M1576.8,1757.6l0.6-0.1c0.1,0.3,0.1,0.5,0.2,0.8l-0.6,0.1C1576.9,1758.1,1576.9,1757.9,1576.8,1757.6z M1576.5,1756.1
								l0.6-0.1c0,0.3,0.1,0.5,0.1,0.8l-0.6,0.1C1576.6,1756.6,1576.6,1756.3,1576.5,1756.1z M1576.3,1754.5l0.6-0.1
								c0,0.3,0.1,0.5,0.1,0.8l-0.6,0.1C1576.4,1755,1576.4,1754.8,1576.3,1754.5z M1576.2,1753l0.6,0c0,0.3,0,0.5,0.1,0.8l-0.6,0.1
								C1576.2,1753.5,1576.2,1753.2,1576.2,1753z M1576,1751.4l0.6,0c0,0.3,0,0.5,0,0.8l-0.6,0
								C1576.1,1751.9,1576.1,1751.6,1576,1751.4z M1576,1750.6c0-0.3,0-0.5,0-0.8l0.6,0c0,0.3,0,0.5,0,0.8L1576,1750.6z M1576,1749
								c0-0.3,0-0.5,0-0.8l0.6,0c0,0.3,0,0.5,0,0.8H1576z M1576,1747.5c0-0.3,0-0.5,0-0.8l0.6,0c0,0.3,0,0.5,0,0.8L1576,1747.5z
								 M1576.1,1745.9c0-0.3,0-0.5,0.1-0.8l0.6,0c0,0.3,0,0.5-0.1,0.8L1576.1,1745.9z M1576.2,1744.3c0-0.3,0.1-0.5,0.1-0.8
								l0.6,0.1c0,0.3-0.1,0.5-0.1,0.8L1576.2,1744.3z M1576.4,1742.8c0-0.3,0.1-0.5,0.1-0.8l0.6,0.1c0,0.3-0.1,0.5-0.1,0.8
								L1576.4,1742.8z M1576.6,1741.2c0-0.3,0.1-0.5,0.1-0.8l0.6,0.1c0,0.3-0.1,0.5-0.1,0.8L1576.6,1741.2z M1576.9,1739.7
								c0.1-0.3,0.1-0.5,0.2-0.8l0.6,0.1c-0.1,0.3-0.1,0.5-0.2,0.8L1576.9,1739.7z M1577.3,1738.2c0.1-0.3,0.1-0.5,0.2-0.8l0.6,0.1
								c-0.1,0.3-0.1,0.5-0.2,0.8L1577.3,1738.2z M1577.6,1736.7c0-0.3,0.1-0.5,0.1-0.8l0.6,0.1c0,0.3-0.1,0.5-0.1,0.8
								L1577.6,1736.7z M1577.8,1735.1c0-0.3,0.1-0.5,0.1-0.8l0.6,0.1c0,0.3-0.1,0.5-0.1,0.8L1577.8,1735.1z M1578,1733.6
								c0-0.3,0.1-0.5,0.1-0.8l0.6,0.1c0,0.3-0.1,0.5-0.1,0.8L1578,1733.6z M1578.2,1732c0-0.3,0-0.5,0.1-0.8l0.6,0
								c0,0.3,0,0.5-0.1,0.8L1578.2,1732z M1578.3,1730.5c0-0.3,0-0.5,0-0.8l0.6,0c0,0.3,0,0.5,0,0.8L1578.3,1730.5z M1578.4,1729
								c0-0.3,0-0.5,0-0.8l0.6,0c0,0.3,0,0.5,0,0.8L1578.4,1729z M1578.4,1727.4c0-0.3,0-0.5,0-0.8l0.6,0c0,0.3,0,0.5,0,0.8
								L1578.4,1727.4z M1578.3,1725.1l0.6,0c0,0.3,0,0.5,0,0.8l-0.6,0C1578.3,1725.6,1578.3,1725.3,1578.3,1725.1z M1578.2,1723.5
								l0.6,0l0.1,0.8l-0.6,0L1578.2,1723.5z M1578.1,1722l0.6,0l0.1,0.8l-0.6,0L1578.1,1722z M1577.9,1720.4l0.6,0l0.1,0.8l-0.6,0
								L1577.9,1720.4z M1577.8,1718.9l0.6,0l0.1,0.8l-0.6,0L1577.8,1718.9z M1630.3,1716.5l0-0.6l0.8,0l0,0.6L1630.3,1716.5z
								 M1628.7,1716.5l0-0.6l0.8,0l0,0.6L1628.7,1716.5z M1627.2,1716.5l0-0.6l0.8,0l0,0.6L1627.2,1716.5z M1625.6,1716.6l0-0.6
								l0.8,0l0,0.6L1625.6,1716.6z M1624,1716.6l0-0.6l0.8,0l0,0.6L1624,1716.6z M1622.5,1716.6l0-0.6l0.8,0l0,0.6L1622.5,1716.6z
								 M1620.9,1716.6l0-0.6l0.8,0l0,0.6L1620.9,1716.6z M1619.4,1716.6l0-0.6l0.8,0l0,0.6L1619.4,1716.6z M1617.8,1716.6v-0.6
								l0.8,0l0,0.6L1617.8,1716.6z M1616.2,1716.6l0-0.6l0.8,0l-0.1,0.6L1616.2,1716.6z M1577.8,1718c0-0.3,0.1-0.6,0.3-0.9
								l0.5,0.3c-0.1,0.2-0.2,0.4-0.2,0.6L1577.8,1718z M1614.7,1716.6l0-0.6l0.8,0l0,0.6L1614.7,1716.6z M1613.1,1716.6l0-0.6
								l0.8,0l0,0.6L1613.1,1716.6z M1611.6,1716.6l0-0.6l0.8,0l-0.1,0.6L1611.6,1716.6z M1610,1716.6l0-0.6l0.8,0l-0.1,0.6
								L1610,1716.6z M1608.4,1716.6l0-0.6l0.8,0l0,0.6L1608.4,1716.6z M1606.9,1716.6l0-0.6l0.8,0l0,0.6L1606.9,1716.6z
								 M1605.3,1716.6l0-0.6l0.8,0l0,0.6L1605.3,1716.6z M1603.8,1716.6v-0.6l0.8,0l0,0.6L1603.8,1716.6z M1602.2,1716.6l0-0.6
								l0.8,0l0,0.6L1602.2,1716.6z M1600.6,1716.6l0-0.6l0.8,0l0,0.6L1600.6,1716.6z M1599.1,1716.6l0-0.6l0.8,0l0,0.6
								L1599.1,1716.6z M1597.5,1716.6l0-0.6l0.8,0l0,0.6L1597.5,1716.6z M1596,1716.7l0-0.6l0.8,0l0,0.6L1596,1716.7z
								 M1594.4,1716.7l0-0.6l0.8,0l0,0.6L1594.4,1716.7z M1592.8,1716.7l0-0.6l0.8,0l0,0.6L1592.8,1716.7z M1591.3,1716.7l0-0.6
								l0.8,0l0,0.6L1591.3,1716.7z M1589.7,1716.7l0-0.6l0.8,0l0,0.6L1589.7,1716.7z M1588.2,1716.7l0-0.6l0.8,0l0,0.6
								L1588.2,1716.7z M1586.6,1716.7l0-0.6l0.8,0l0,0.6L1586.6,1716.7z M1578.7,1716.5c0.2-0.2,0.5-0.3,0.8-0.4l0.1,0.6
								c-0.2,0-0.4,0.1-0.6,0.3L1578.7,1716.5z M1585,1716.7l0-0.6l0.8,0l0,0.6L1585,1716.7z M1583.5,1716.7l0-0.6l0.8,0l0,0.6
								L1583.5,1716.7z M1581.9,1716.7v-0.6l0.8,0l0,0.6L1581.9,1716.7z M1580.3,1716.7l0-0.6l0.8,0l0,0.6L1580.3,1716.7z"></path>
    <polygon fill="#58595b" points="1578.4 1764.2 1579.1 1764.2 1579 1763.6 1578.9 1763.6 1578.8 1763.5 1578.3 1763.6"></polygon>
    <path fill="#58595b" d="M1631.8,1766.9l0.1-0.6l0.8,0.1l-0.1,0.6L1631.8,1766.9z M1630.3,1766.7l0.1-0.6l0.8,0.1l-0.1,0.6
								L1630.3,1766.7z M1628.8,1766.4l0.1-0.6l0.8,0.1l-0.1,0.6L1628.8,1766.4z M1627.3,1766.1l0.1-0.6l0.8,0.1l-0.1,0.6
								L1627.3,1766.1z M1625.8,1765.9l0.1-0.6l0.8,0.1l-0.1,0.6L1625.8,1765.9z M1624.3,1765.7l0.1-0.6l0.8,0.1l-0.1,0.6
								L1624.3,1765.7z M1622.7,1765.5l0.1-0.6l0.8,0.1l-0.1,0.6L1622.7,1765.5z M1621.2,1765.3l0.1-0.6l0.8,0.1l-0.1,0.6
								L1621.2,1765.3z M1619.7,1765.1l0.1-0.6l0.8,0.1l-0.1,0.6L1619.7,1765.1z M1618.2,1764.9l0.1-0.6l0.8,0.1l-0.1,0.6
								L1618.2,1764.9z M1616.6,1764.8l0.1-0.6l0.8,0.1l-0.1,0.6L1616.6,1764.8z M1615.1,1764.6l0.1-0.6l0.8,0.1l-0.1,0.6
								L1615.1,1764.6z M1613.6,1764.5l0-0.6l0.8,0.1l-0.1,0.6L1613.6,1764.5z M1612.1,1764.4l0-0.6l0.8,0.1l0,0.6L1612.1,1764.4z
								 M1610.5,1764.2l0-0.6l0.8,0.1l0,0.6L1610.5,1764.2z M1609,1764.2l0-0.6l0.8,0l0,0.6L1609,1764.2z M1607.5,1764.1l0-0.6
								l0.8,0l0,0.6L1607.5,1764.1z M1605.9,1764l0-0.6l0.8,0l0,0.6L1605.9,1764z M1604.4,1763.9l0-0.6l0.8,0l0,0.6L1604.4,1763.9z
								 M1602.9,1763.9l0-0.6l0.8,0l0,0.6L1602.9,1763.9z M1601.3,1763.8l0-0.6l0.8,0l0,0.6L1601.3,1763.8z M1599.8,1763.8l0-0.6
								l0.8,0l0,0.6L1599.8,1763.8z M1598.2,1763.8l0-0.6l0.8,0l0,0.6L1598.2,1763.8z M1596.7,1763.7l0-0.6l0.8,0l0,0.6
								L1596.7,1763.7z M1595.2,1763.7l0-0.6l0.8,0l0,0.6L1595.2,1763.7z M1593.6,1763.7l0-0.6l0.8,0v0.6L1593.6,1763.7z
								 M1592.1,1763.8l0-0.6l0.8,0l0,0.6L1592.1,1763.8z M1590.6,1763.8l0-0.6l0.8,0l0,0.6L1590.6,1763.8z M1589,1763.8l0-0.6
								l0.8,0l0,0.6L1589,1763.8z M1587.5,1763.8l0-0.6l0.8,0l0,0.6L1587.5,1763.8z M1586,1763.9l0-0.6l0.8,0l0,0.6L1586,1763.9z
								 M1579.8,1763.6l0.8,0l0,0.6l-0.8,0L1579.8,1763.6z M1584.4,1763.9l0-0.6l0.8,0l0,0.6L1584.4,1763.9z M1581.3,1763.5l0.8,0
								l0,0.6l-0.8,0L1581.3,1763.5z M1582.9,1764l0-0.6l0.8,0l0,0.6L1582.9,1764z"></path>
    <polygon fill="#58595b" points="1633.8 1767.3 1634.3 1767 1633.9 1766.6 1633.7 1766.7 1633.5 1766.7 1633.3 1767.2"></polygon>
    <path fill="#58595b" d="M1634.5,1766.1l0.6-0.5l0.3,0.5l-0.6,0.5L1634.5,1766.1z M1635.7,1765.2l0.6-0.5l0.3,0.5l-0.6,0.5
								L1635.7,1765.2z M1637,1764.3l0.6-0.5l0.3,0.5l-0.6,0.5L1637,1764.3z M1638.2,1763.3l0.6-0.5l0.3,0.5l-0.6,0.5L1638.2,1763.3
								z M1639.4,1762.4l0.6-0.5l0.3,0.5l-0.6,0.5L1639.4,1762.4z M1640.7,1761.5l0.6-0.5l0.3,0.5l-0.6,0.5L1640.7,1761.5z
								 M1641.9,1760.6l0.6-0.5l0.3,0.5l-0.6,0.5L1641.9,1760.6z M1643.1,1759.6l0.6-0.5l0.3,0.5l-0.6,0.5L1643.1,1759.6z
								 M1644.3,1758.7l0.6-0.5l0.3,0.5l-0.6,0.5L1644.3,1758.7z M1645.6,1757.8l0.6-0.5l0.4,0.5l-0.6,0.5L1645.6,1757.8z
								 M1646.8,1756.9l0.6-0.5l0.3,0.5l-0.6,0.5L1646.8,1756.9z M1648,1756l0.6-0.5l0.3,0.5l-0.6,0.5L1648,1756z M1649.3,1755
								l0.6-0.5l0.3,0.5l-0.6,0.5L1649.3,1755z M1650.5,1754.1l0.6-0.5l0.3,0.5l-0.6,0.5L1650.5,1754.1z M1651.7,1753.2l0.6-0.5
								l0.3,0.5l-0.6,0.5L1651.7,1753.2z M1652.9,1752.3l0.6-0.5l0.3,0.5l-0.6,0.5L1652.9,1752.3z M1654.2,1751.3l0.6-0.5l0.3,0.5
								l-0.6,0.5L1654.2,1751.3z M1655.4,1750.4l0.6-0.5l0.3,0.5l-0.6,0.5L1655.4,1750.4z M1656.6,1749.5l0.6-0.5l0.3,0.5l-0.6,0.5
								L1656.6,1749.5z M1657.8,1748.6l0.6-0.5l0.3,0.5l-0.6,0.5L1657.8,1748.6z M1658.9,1747.6c0.1-0.1,0.1-0.3,0.1-0.5
								c0,0,0-0.1,0-0.1l0.6,0c0,0.1,0,0.1,0,0.2c0,0.2-0.1,0.5-0.2,0.7L1658.9,1747.6z M1658.7,1746.1l-0.2-0.3l0.4-0.4l0.2,0.3
								c0.1,0.1,0.2,0.3,0.3,0.4l-0.5,0.3C1658.8,1746.3,1658.8,1746.2,1658.7,1746.1z M1657.4,1744.7l0.4-0.4l0.5,0.6l-0.4,0.4
								L1657.4,1744.7z M1656.4,1743.6l0.4-0.4l0.5,0.6l-0.4,0.4L1656.4,1743.6z M1655.4,1742.4l0.4-0.4l0.5,0.6l-0.4,0.4
								L1655.4,1742.4z M1654.3,1741.3l0.4-0.4l0.5,0.6l-0.4,0.4L1654.3,1741.3z M1653.3,1740.2l0.4-0.4l0.5,0.6l-0.4,0.4
								L1653.3,1740.2z M1652.3,1739l0.4-0.4l0.5,0.6l-0.4,0.4L1652.3,1739z M1651.3,1737.9l0.4-0.4l0.5,0.6l-0.4,0.4L1651.3,1737.9
								z M1650.2,1736.7l0.4-0.4l0.5,0.6l-0.4,0.4L1650.2,1736.7z M1649.2,1735.6l0.4-0.4l0.5,0.6l-0.4,0.4L1649.2,1735.6z
								 M1648.2,1734.4l0.4-0.4l0.5,0.6l-0.4,0.4L1648.2,1734.4z M1647.2,1733.3l0.4-0.4l0.5,0.6l-0.4,0.4L1647.2,1733.3z
								 M1646.1,1732.2l0.4-0.4l0.5,0.6l-0.4,0.4L1646.1,1732.2z M1645.1,1731l0.4-0.4l0.5,0.6l-0.4,0.4L1645.1,1731z
								 M1644.1,1729.9l0.4-0.4l0.5,0.6l-0.4,0.4L1644.1,1729.9z M1643,1728.7l0.4-0.4l0.5,0.6l-0.4,0.4L1643,1728.7z M1642,1727.6
								l0.4-0.4l0.5,0.6l-0.4,0.4L1642,1727.6z M1641,1726.4l0.4-0.4l0.5,0.6l-0.4,0.4L1641,1726.4z M1640,1725.3l0.4-0.4l0.5,0.6
								l-0.4,0.4L1640,1725.3z M1638.9,1724.2l0.4-0.4l0.5,0.6l-0.4,0.4L1638.9,1724.2z M1637.9,1723l0.4-0.4l0.5,0.6l-0.4,0.4
								L1637.9,1723z M1636.9,1721.9l0.4-0.4l0.5,0.6l-0.4,0.4L1636.9,1721.9z M1635.9,1720.7l0.4-0.4l0.5,0.6l-0.4,0.4
								L1635.9,1720.7z M1634.8,1719.6l0.4-0.4l0.5,0.6l-0.4,0.4L1634.8,1719.6z M1633.8,1718.4l0.4-0.4l0.5,0.6l-0.4,0.4
								L1633.8,1718.4z M1632.8,1717.3l0.4-0.4l0.5,0.6l-0.4,0.4L1632.8,1717.3z"></path>
    <g>
      <path fill="#e6e7e8" d="M1648.6 1744.5c.1-1.6 1.6-2.9 3.2-2.7 1.6.1 2.9 1.6 2.7 3.2-.1 1.6-1.6 2.9-3.2 2.7C1649.7 1747.6 1648.5 1746.1 1648.6 1744.5zM1649.6 1744.6c-.1 1.1.8 2.1 1.9 2.2 1.1.1 2.1-.8 2.2-1.9.1-1.1-.8-2.1-1.9-2.2C1650.7 1742.6 1649.7 1743.4 1649.6 1744.6zM1638.2 1733.6c.1-1.6 1.6-2.9 3.2-2.7 1.6.1 2.9 1.6 2.7 3.2-.1 1.6-1.6 2.9-3.2 2.7C1639.3 1736.7 1638.1 1735.2 1638.2 1733.6zM1639.1 1733.7c-.1 1.1.8 2.1 1.9 2.2 1.1.1 2.1-.8 2.2-1.9s-.8-2.1-1.9-2.2C1640.2 1731.7 1639.2 1732.5 1639.1 1733.7z"></path>
      <g>
        <path fill="#231f20" d="M1651.3,1744.4c-0.2,0.3-0.2,0.7,0.1,0.9c0.1,0.1,0.2,0.1,0.3,0.1c0.2,0,0.4-0.1,0.6-0.3
								c0.2-0.3,4.9-6.8,5.3-11.8c0-0.2,0-0.3,0-0.5c0-0.6,0-1.1-0.1-1.6c-0.1-0.6-0.3-1.1-0.6-1.6c-1.2-1.9-3.7-2.7-7.5-2.4
								c0.5,0.4,1,0.8,1.6,1.2c2.4,0,4.1,0.6,4.8,1.8c0.1,0.1,0.1,0.2,0.2,0.3c0.2,0.4,0.3,0.9,0.3,1.4c0,0.1,0,0.2,0,0.3
								C1656.5,1736.3,1653,1742.1,1651.3,1744.4z"></path>
        <path fill="#231f20" d="M1641.2,1733.5c0.1,0.3,0.5,0.5,0.8,0.4c2.8-1,9.5-2.9,13.7-1.9c0.2,0.1,0.5,0.1,0.7,0.2
								c0.5,0.2,0.9,0.4,1.3,0.7c0.2,0.1,0.3,0.3,0.4,0.4c0.2,0.2,0.4,0.5,0.5,0.7c0.6,0.4,1.1,0.7,1.7,1.1c-0.2-1.1-0.6-2-1.2-2.7
								c-0.4-0.4-0.9-0.8-1.5-1.1c-0.5-0.2-1-0.4-1.5-0.5c-0.8-0.2-1.6-0.3-2.5-0.3c-5.2-0.2-11.6,2.1-11.9,2.3
								C1641.3,1732.8,1641.1,1733.2,1641.2,1733.5z"></path>
      </g>
    </g>
    <g>
      <path fill="#e6e7e8" d="M1627.7,1722.6c-0.1-1.6,1.2-3,2.9-3.1c1.6-0.1,3,1.2,3.1,2.9c0.1,1.6-1.2,3-2.9,3.1
							C1629.1,1725.5,1627.8,1724.2,1627.7,1722.6z M1628.6,1722.5c0,1.1,1,2,2.1,2c1.1,0,2-1,2-2.1c0-1.1-1-2-2.1-2
							C1629.5,1720.4,1628.6,1721.4,1628.6,1722.5z"></path>
      <path fill="#231f20" d="M1630.2,1722.8c0.2,0.3,0.6,0.4,0.9,0.2c1.7-1.2,5.8-3.7,9-4c1.1-0.1,2.1,0,2.9,0.4c1.1,0.6,1.8,2,1.9,4
							c0.4,0.4,0.9,0.8,1.3,1.2c0-3.2-0.8-5.3-2.6-6.3c-1.3-0.8-3-0.8-4.6-0.4c-4.1,0.9-8.4,3.9-8.7,4.1
							C1630,1722.1,1629.9,1722.5,1630.2,1722.8z"></path>
    </g>
    <g>
      <rect width="51.7" height="79.7" x="1727.1" y="1621.7" fill="#f7c19b" transform="rotate(-9.009 1752.644 1661.234)"></rect>
      <path fill="#333" d="M1739.4,1718l-5.8,11.5l-1.4,3.7c-0.8,2.1-1,4.5-0.6,6.7l1.8,8.7c0.4,2.2,2.5,3.6,4.7,3.1l9.7-2l-0.5-2.5
					l5.2-1.1l0.5,2.4l11.7-2.1l-0.4-2l5.5-1.1l0.4,2.2l13-2.7l5-9.9c11,0.9,21.1,2.7,30,5.7c0.4,0.2,13.6-2.4,13.6-2.7l-0.4-2l5.1-1
					l0.4,2c4.3-0.6,8.5-1.4,12.6-2.5l-0.4-2.1l5-1l0.3,1.7c4.4-0.9,8.2-2.2,11.3-3.8l-0.3-1.6l4.9-1.6l0.3,1.4
					c2.9-1,5.4-2.3,7.8-3.9l-0.6-1.6l4.1-2.7l1.2,1.4c4.5-3,8.5-5.9,11.8-9c0,0-0.5-6.8-4.7-6.3l-54.2,4.9l-69.9,4.4L1739.4,1718z"></path>
      <path fill="#58595b" d="M1728.5,1715.2c0.7,3.3,1.7,6.4,3,9.5l2.1,4.8c20.3-4.5,39.6-6.8,57.5-5.9c3.7,0.2,7.3,0.5,10.9,1
					c30.6,4.1,60-3.4,88.3-21.2l-1-4.8c-0.7-3.5-3.8-6.1-7.4-6.1l-23.7,0c-4.2,0-8.4,0.1-12.6,0.2c-11.8,0.2-23.3-2.2-34.4-6.9
					c-0.6-0.3-1.2-0.5-1.8-0.8c-0.4-0.2-0.7-0.3-1.1-0.5c0.4,5.1-3.2,12.1-3.3,12.5c-0.1,0.2-0.3,0.3-0.5,0.4c-0.1,0-0.2,0-0.3-0.1
					c-0.3-0.2-0.4-0.5-0.3-0.9c1.3-2.5,3.8-8.8,3.1-12.6c-0.3-0.1-0.5-0.2-0.8-0.4c-4.2-0.3-10.6,2.6-13.2,4.1
					c-0.3,0.2-0.7,0.1-0.9-0.2c-0.2-0.3-0.1-0.7,0.2-0.9c0.4-0.2,6.2-3.5,11.4-4.1c-0.9-0.5-1.8-1-2.7-1.5c-0.6-0.3-1.2-0.6-1.7-1
					c-1.2-0.7-2.5-1.4-3.7-2.2c-0.5-0.3-1-0.6-1.5-0.9c-1.8-1.2-3.6-2.4-5.4-3.6c-3.2,0.9-6.8,4-8.3,5.4c-0.3,0.3-0.7,0.3-0.9,0
					c-0.3-0.2-0.3-0.7,0-0.9c0.2-0.2,4-3.9,7.9-5.4c-0.7-0.5-1.4-1-2.1-1.6c-1.2-0.9-2.7-1.3-4.1-1l-53.2,8.7
					c-1.9,0.3-3.2,2.2-2.8,4.1l1.5,6.2c1.1,4.6,1.5,9.3,1.1,14C1727.4,1706.9,1727.7,1711.1,1728.5,1715.2z"></path>
      <path fill="#231f20" d="M1804.1 1697.3c.1.1.2.1.3.1.2 0 .4-.2.5-.4.2-.4 3.7-7.4 3.3-12.5-.5-.2-.9-.4-1.4-.6.7 3.8-1.9 10.1-3.1 12.6C1803.6 1696.8 1803.8 1697.2 1804.1 1697.3zM1792.1 1687.3c.2.3.6.4.9.2 2.6-1.4 9-4.4 13.2-4.1-.8-.4-1.6-.8-2.4-1.2-5.2.7-11.1 3.9-11.4 4.1C1792 1686.6 1791.9 1687 1792.1 1687.3z"></path>
      <path fill="#303030" d="M1779.5,1678.5c0.2,0.3,0.7,0.3,0.9,0c1.5-1.5,5.1-4.5,8.3-5.4c-0.4-0.3-0.9-0.6-1.3-0.9
					c-3.9,1.5-7.7,5.2-7.9,5.4C1779.3,1677.9,1779.3,1678.3,1779.5,1678.5z"></path>
      <path fill="#414042" d="M1728.5,1715.2c0.7,3.3,1.7,6.4,3,9.5l2.1,4.8c20.3-4.5,39.6-6.8,57.5-5.9l22.5-23.3
					c1.3-1.3,1.2-3.5-0.3-4.7l-32.1-26l-53.2,8.7c-1.9,0.3-3.2,2.2-2.8,4.1l1.5,6.2c1.1,4.6,1.5,9.3,1.1,14
					C1727.4,1706.9,1727.7,1711.1,1728.5,1715.2z"></path>
      <polygon fill="#58595b" points="1780.6 1672.2 1781 1671.7 1780.6 1671.4 1780.1 1671.5 1780.2 1672.1 1780.4 1672"></polygon>
      <path fill="#58595b" d="M1734.1,1725.7l0.5-0.2l0.3,0.7l-0.5,0.2L1734.1,1725.7z M1733.5,1724.2l0.5-0.2l0.3,0.7l-0.5,0.2
								L1733.5,1724.2z M1732.9,1722.8l0.5-0.2c0.1,0.2,0.2,0.5,0.3,0.7l-0.5,0.2C1733.1,1723.3,1733,1723,1732.9,1722.8z
								 M1732.3,1721.3l0.5-0.2c0.1,0.2,0.2,0.5,0.3,0.7l-0.5,0.2C1732.5,1721.8,1732.4,1721.6,1732.3,1721.3z M1731.8,1719.8
								l0.6-0.2c0.1,0.2,0.2,0.5,0.2,0.7l-0.5,0.2C1732,1720.3,1731.9,1720.1,1731.8,1719.8z M1731.4,1718.3l0.6-0.2
								c0.1,0.2,0.1,0.5,0.2,0.7l-0.6,0.2C1731.5,1718.8,1731.4,1718.6,1731.4,1718.3z M1731,1716.8l0.6-0.1
								c0.1,0.3,0.1,0.5,0.2,0.7l-0.6,0.2C1731.1,1717.3,1731,1717.1,1731,1716.8z M1730.6,1715.3l0.6-0.1c0.1,0.3,0.1,0.5,0.2,0.8
								l-0.6,0.1C1730.7,1715.8,1730.6,1715.6,1730.6,1715.3z M1730.4,1714.5c-0.1-0.3-0.1-0.5-0.1-0.8l0.6-0.1
								c0,0.3,0.1,0.5,0.1,0.8L1730.4,1714.5z M1730.2,1713c0-0.3-0.1-0.5-0.1-0.8l0.6-0.1c0,0.3,0.1,0.5,0.1,0.8L1730.2,1713z
								 M1729.9,1711.4c0-0.3-0.1-0.5-0.1-0.8l0.6-0.1c0,0.3,0.1,0.5,0.1,0.8L1729.9,1711.4z M1729.8,1709.9c0-0.3,0-0.5-0.1-0.8
								l0.6,0c0,0.3,0,0.5,0.1,0.8L1729.8,1709.9z M1729.6,1708.3c0-0.3,0-0.5,0-0.8l0.6,0c0,0.3,0,0.5,0,0.8L1729.6,1708.3z
								 M1729.6,1706.7c0-0.3,0-0.5,0-0.8l0.6,0c0,0.3,0,0.5,0,0.8L1729.6,1706.7z M1729.6,1705.2c0-0.3,0-0.5,0-0.8l0.6,0
								c0,0.3,0,0.5,0,0.8L1729.6,1705.2z M1729.6,1703.6c0-0.3,0-0.5,0-0.8l0.6,0c0,0.3,0,0.5,0,0.8L1729.6,1703.6z M1729.7,1702.1
								c0-0.3,0-0.5,0-0.8l0.6,0c0,0.3,0,0.5,0,0.8L1729.7,1702.1z M1729.8,1700.5c0-0.3,0-0.5,0-0.8l0.6,0c0,0.3,0,0.5,0,0.8
								L1729.8,1700.5z M1729.8,1699c0-0.3,0-0.5,0-0.8l0.6,0c0,0.3,0,0.5,0,0.8L1729.8,1699z M1729.7,1697.4c0-0.3,0-0.5,0-0.8
								l0.6,0c0,0.3,0,0.5,0,0.8L1729.7,1697.4z M1729.7,1695.9c0-0.3,0-0.5-0.1-0.8l0.6-0.1c0,0.3,0,0.5,0.1,0.8L1729.7,1695.9z
								 M1729.5,1694.3c0-0.3-0.1-0.5-0.1-0.8l0.6-0.1c0,0.3,0.1,0.5,0.1,0.8L1729.5,1694.3z M1729.3,1692.8c0-0.3-0.1-0.5-0.1-0.8
								l0.6-0.1c0,0.3,0.1,0.5,0.1,0.8L1729.3,1692.8z M1729.1,1691.3c0-0.3-0.1-0.5-0.1-0.8l0.6-0.1c0,0.3,0.1,0.5,0.1,0.8
								L1729.1,1691.3z M1728.6,1689l0.6-0.1c0.1,0.3,0.1,0.5,0.2,0.8l-0.6,0.1C1728.7,1689.5,1728.7,1689.2,1728.6,1689z
								 M1728.3,1687.5l0.6-0.1l0.2,0.8l-0.6,0.1L1728.3,1687.5z M1727.9,1685.9l0.6-0.1l0.2,0.8l-0.6,0.1L1727.9,1685.9z
								 M1727.6,1684.4l0.6-0.1l0.2,0.8l-0.6,0.1L1727.6,1684.4z M1727.2,1682.9l0.6-0.1l0.2,0.8l-0.6,0.1L1727.2,1682.9z
								 M1778.6,1672.3l-0.1-0.6l0.8-0.1l0.1,0.6L1778.6,1672.3z M1777.1,1672.6l-0.1-0.6l0.8-0.1l0.1,0.6L1777.1,1672.6z
								 M1775.6,1672.8l-0.1-0.6l0.8-0.1l0.1,0.6L1775.6,1672.8z M1774,1673.1l-0.1-0.6l0.8-0.1l0.1,0.6L1774,1673.1z
								 M1772.5,1673.3l-0.1-0.6l0.8-0.1l0.1,0.6L1772.5,1673.3z M1770.9,1673.6l-0.1-0.6l0.8-0.1l0.1,0.6L1770.9,1673.6z
								 M1769.4,1673.8l-0.1-0.6l0.8-0.1l0.1,0.6L1769.4,1673.8z M1767.9,1674.1l-0.1-0.6l0.8-0.1l0.1,0.6L1767.9,1674.1z
								 M1766.3,1674.3l-0.1-0.6l0.8-0.1l0.1,0.6L1766.3,1674.3z M1764.8,1674.6l-0.1-0.6l0.8-0.1l0,0.6L1764.8,1674.6z
								 M1727.1,1682.1c0-0.3,0-0.6,0.1-0.9l0.5,0.2c-0.1,0.2-0.1,0.4-0.1,0.6L1727.1,1682.1z M1763.2,1674.8l-0.1-0.6l0.8-0.1
								l0.1,0.6L1763.2,1674.8z M1761.7,1675.1l-0.1-0.6l0.8-0.1l0.1,0.6L1761.7,1675.1z M1760.2,1675.3l-0.1-0.6l0.8-0.1l0,0.6
								L1760.2,1675.3z M1758.6,1675.6l-0.1-0.6l0.8-0.1l0,0.6L1758.6,1675.6z M1757.1,1675.8l-0.1-0.6l0.8-0.1l0.1,0.6
								L1757.1,1675.8z M1755.5,1676.1l-0.1-0.6l0.8-0.1l0.1,0.6L1755.5,1676.1z M1754,1676.3l-0.1-0.6l0.8-0.1l0.1,0.6L1754,1676.3
								z M1752.5,1676.6l-0.1-0.6l0.8-0.1l0.1,0.6L1752.5,1676.6z M1750.9,1676.8l-0.1-0.6l0.8-0.1l0.1,0.6L1750.9,1676.8z
								 M1749.4,1677.1l-0.1-0.6l0.8-0.1l0.1,0.6L1749.4,1677.1z M1747.8,1677.3l-0.1-0.6l0.8-0.1l0.1,0.6L1747.8,1677.3z
								 M1746.3,1677.6l-0.1-0.6l0.8-0.1l0.1,0.6L1746.3,1677.6z M1744.8,1677.9l-0.1-0.6l0.8-0.1l0.1,0.6L1744.8,1677.9z
								 M1743.2,1678.1l-0.1-0.6l0.8-0.1l0.1,0.6L1743.2,1678.1z M1741.7,1678.4l-0.1-0.6l0.8-0.1l0.1,0.6L1741.7,1678.4z
								 M1740.1,1678.6l-0.1-0.6l0.8-0.1l0.1,0.6L1740.1,1678.6z M1738.6,1678.9l-0.1-0.6l0.8-0.1l0.1,0.6L1738.6,1678.9z
								 M1737.1,1679.1l-0.1-0.6l0.8-0.1l0.1,0.6L1737.1,1679.1z M1735.5,1679.4l-0.1-0.6l0.8-0.1l0.1,0.6L1735.5,1679.4z
								 M1727.7,1680.5c0.2-0.2,0.5-0.4,0.8-0.5l0.2,0.5c-0.2,0.1-0.4,0.2-0.5,0.4L1727.7,1680.5z M1734,1679.6l-0.1-0.6l0.8-0.1
								l0.1,0.6L1734,1679.6z M1732.4,1679.9l-0.1-0.6l0.8-0.1l0.1,0.6L1732.4,1679.9z M1730.9,1680.1l-0.1-0.6l0.8-0.1l0.1,0.6
								L1730.9,1680.1z M1729.3,1680.4l-0.1-0.6l0.8-0.1l0.1,0.6L1729.3,1680.4z"></path>
      <polygon fill="#58595b" points="1735 1727.6 1735.6 1727.4 1735.5 1726.9 1735.3 1726.9 1735.3 1726.8 1734.7 1727"></polygon>
      <path fill="#58595b" d="M1788.1,1721.8l0-0.6l0.8,0l0,0.6L1788.1,1721.8z M1786.6,1721.8l0-0.6l0.8,0l0,0.6L1786.6,1721.8z
								 M1785.1,1721.8l0-0.6l0.8,0l0,0.6L1785.1,1721.8z M1783.5,1721.8l0-0.6l0.8,0l0,0.6L1783.5,1721.8z M1782,1721.8l0-0.6
								l0.8,0l0,0.6L1782,1721.8z M1780.5,1721.8l0-0.6l0.8,0l0,0.6L1780.5,1721.8z M1778.9,1721.8l0-0.6l0.8,0l0,0.6L1778.9,1721.8
								z M1777.4,1721.9l0-0.6l0.8,0l0,0.6L1777.4,1721.9z M1775.9,1721.9l0-0.6l0.8,0l0,0.6L1775.9,1721.9z M1774.3,1722l0-0.6
								l0.8,0l0,0.6L1774.3,1722z M1772.8,1722.1l0-0.6l0.8,0l0,0.6L1772.8,1722.1z M1771.3,1722.2l0-0.6l0.8,0l0,0.6L1771.3,1722.2
								z M1769.7,1722.3l0-0.6l0.8-0.1l0,0.6L1769.7,1722.3z M1768.2,1722.4l0-0.6l0.8-0.1l0,0.6L1768.2,1722.4z M1766.7,1722.5
								l-0.1-0.6l0.8-0.1l0.1,0.6L1766.7,1722.5z M1765.1,1722.7l-0.1-0.6l0.8-0.1l0.1,0.6L1765.1,1722.7z M1763.6,1722.8l-0.1-0.6
								l0.8-0.1l0.1,0.6L1763.6,1722.8z M1762.1,1723l-0.1-0.6l0.8-0.1l0.1,0.6L1762.1,1723z M1760.6,1723.2l-0.1-0.6l0.8-0.1
								l0.1,0.6L1760.6,1723.2z M1759,1723.4l-0.1-0.6l0.8-0.1l0.1,0.6L1759,1723.4z M1757.5,1723.6l-0.1-0.6l0.8-0.1l0.1,0.6
								L1757.5,1723.6z M1756,1723.8l-0.1-0.6l0.8-0.1l0.1,0.6L1756,1723.8z M1754.5,1724l-0.1-0.6l0.8-0.1l0.1,0.6L1754.5,1724z
								 M1753,1724.2l-0.1-0.6l0.8-0.1l0.1,0.6L1753,1724.2z M1751.4,1724.5l-0.1-0.6l0.8-0.1l0.1,0.6L1751.4,1724.5z
								 M1749.9,1724.7l-0.1-0.6l0.8-0.1l0.1,0.6L1749.9,1724.7z M1748.4,1725l-0.1-0.6l0.8-0.1l0.1,0.6L1748.4,1725z
								 M1746.9,1725.2l-0.1-0.6l0.8-0.1l0.1,0.6L1746.9,1725.2z M1745.4,1725.5l-0.1-0.6l0.8-0.1l0.1,0.6L1745.4,1725.5z
								 M1743.9,1725.8l-0.1-0.6l0.8-0.1l0.1,0.6L1743.9,1725.8z M1742.4,1726.1l-0.1-0.6l0.8-0.1l0.1,0.6L1742.4,1726.1z
								 M1736.2,1726.7l0.8-0.2l0.1,0.6l-0.8,0.2L1736.2,1726.7z M1740.9,1726.4l-0.1-0.6l0.8-0.1l0.1,0.6L1740.9,1726.4z
								 M1737.7,1726.4l0.8-0.2l0.1,0.6l-0.8,0.2L1737.7,1726.4z M1739.4,1726.7l-0.1-0.6l0.8-0.2l0.1,0.6L1739.4,1726.7z"></path>
      <polygon fill="#58595b" points="1790.2 1721.9 1790.5 1721.5 1790.1 1721.1 1790 1721.3 1789.7 1721.3 1789.7 1721.9"></polygon>
      <path fill="#58595b" d="M1790.7,1720.6l0.5-0.6l0.4,0.4l-0.5,0.6L1790.7,1720.6z M1791.7,1719.5l0.5-0.6l0.4,0.4l-0.5,0.6
								L1791.7,1719.5z M1792.8,1718.4l0.5-0.6l0.4,0.4l-0.5,0.6L1792.8,1718.4z M1793.9,1717.3l0.5-0.6l0.4,0.4l-0.5,0.6
								L1793.9,1717.3z M1794.9,1716.2l0.5-0.6l0.4,0.4l-0.5,0.6L1794.9,1716.2z M1796,1715.1l0.5-0.6l0.4,0.4l-0.5,0.6L1796,1715.1
								z M1797.1,1713.9l0.5-0.6l0.4,0.4l-0.5,0.6L1797.1,1713.9z M1798.1,1712.8l0.5-0.6l0.4,0.4l-0.5,0.6L1798.1,1712.8z
								 M1799.2,1711.7l0.5-0.6l0.4,0.4l-0.5,0.6L1799.2,1711.7z M1800.3,1710.6l0.5-0.6l0.4,0.4l-0.5,0.6L1800.3,1710.6z
								 M1801.3,1709.5l0.5-0.6l0.4,0.4l-0.5,0.6L1801.3,1709.5z M1802.4,1708.4l0.5-0.6l0.4,0.4l-0.5,0.6L1802.4,1708.4z
								 M1803.5,1707.3l0.5-0.6l0.4,0.4l-0.5,0.6L1803.5,1707.3z M1804.5,1706.2l0.5-0.6l0.4,0.4l-0.5,0.6L1804.5,1706.2z
								 M1805.6,1705.1l0.5-0.6l0.4,0.4l-0.5,0.6L1805.6,1705.1z M1806.7,1704l0.5-0.6l0.4,0.4l-0.5,0.6L1806.7,1704z
								 M1807.7,1702.9l0.5-0.6l0.4,0.4l-0.5,0.6L1807.7,1702.9z M1808.8,1701.8l0.5-0.6l0.4,0.4l-0.5,0.6L1808.8,1701.8z
								 M1809.9,1700.7l0.5-0.6l0.4,0.4l-0.5,0.6L1809.9,1700.7z M1810.9,1699.6l0.5-0.6l0.4,0.4l-0.5,0.6L1810.9,1699.6z
								 M1811.8,1698.5c0.1-0.2,0.1-0.3,0.1-0.5c0,0,0-0.1,0-0.1l0.6-0.1c0,0.1,0,0.1,0,0.2c0,0.2,0,0.5-0.1,0.7L1811.8,1698.5z
								 M1811.4,1697l-0.3-0.2l0.4-0.5l0.3,0.2c0.1,0.1,0.2,0.2,0.3,0.3l-0.5,0.3C1811.5,1697.2,1811.5,1697.1,1811.4,1697z
								 M1809.9,1695.9l0.4-0.5l0.6,0.5l-0.4,0.5L1809.9,1695.9z M1808.7,1694.9l0.4-0.5l0.6,0.5l-0.4,0.5L1808.7,1694.9z
								 M1807.5,1693.9l0.4-0.5l0.6,0.5l-0.4,0.5L1807.5,1693.9z M1806.3,1693l0.4-0.5l0.6,0.5l-0.4,0.5L1806.3,1693z M1805.1,1692
								l0.4-0.5l0.6,0.5l-0.4,0.5L1805.1,1692z M1803.9,1691l0.4-0.5l0.6,0.5l-0.4,0.5L1803.9,1691z M1802.7,1690.1l0.4-0.5l0.6,0.5
								l-0.4,0.5L1802.7,1690.1z M1801.5,1689.1l0.4-0.5l0.6,0.5l-0.4,0.5L1801.5,1689.1z M1800.3,1688.1l0.4-0.5l0.6,0.5l-0.4,0.5
								L1800.3,1688.1z M1799.1,1687.2l0.4-0.5l0.6,0.5l-0.4,0.5L1799.1,1687.2z M1797.9,1686.2l0.4-0.5l0.6,0.5l-0.4,0.5
								L1797.9,1686.2z M1796.8,1685.2l0.4-0.5l0.6,0.5l-0.4,0.5L1796.8,1685.2z M1795.6,1684.3l0.4-0.5l0.6,0.5l-0.4,0.5
								L1795.6,1684.3z M1794.4,1683.3l0.4-0.5l0.6,0.5l-0.4,0.5L1794.4,1683.3z M1793.2,1682.3l0.4-0.5l0.6,0.5l-0.4,0.5
								L1793.2,1682.3z M1792,1681.4l0.4-0.5l0.6,0.5l-0.4,0.5L1792,1681.4z M1790.8,1680.4l0.4-0.5l0.6,0.5l-0.4,0.5L1790.8,1680.4
								z M1789.6,1679.4l0.4-0.5l0.6,0.5l-0.4,0.5L1789.6,1679.4z M1788.4,1678.5l0.4-0.5l0.6,0.5l-0.4,0.5L1788.4,1678.5z
								 M1787.2,1677.5l0.4-0.5l0.6,0.5l-0.4,0.5L1787.2,1677.5z M1786,1676.5l0.4-0.5l0.6,0.5l-0.4,0.5L1786,1676.5z
								 M1784.8,1675.6l0.4-0.5l0.6,0.5l-0.4,0.5L1784.8,1675.6z M1783.6,1674.6l0.4-0.5l0.6,0.5l-0.4,0.5L1783.6,1674.6z
								 M1782.4,1673.6l0.4-0.5l0.6,0.5l-0.4,0.5L1782.4,1673.6z M1781.2,1672.7l0.4-0.5l0.6,0.5l-0.4,0.5L1781.2,1672.7z"></path>
      <g>
        <path fill="#e6e7e8" d="M1801.2 1697c-.1-1.6 1.1-3.1 2.7-3.2 1.6-.1 3.1 1.1 3.2 2.7.1 1.6-1.1 3.1-2.7 3.2C1802.8 1699.9 1801.3 1698.6 1801.2 1697zM1802.1 1696.9c.1 1.1 1.1 2 2.2 1.9 1.1-.1 2-1.1 1.9-2.2-.1-1.1-1.1-2-2.2-1.9C1802.9 1694.8 1802 1695.8 1802.1 1696.9zM1789.1 1687.9c-.1-1.6 1.1-3.1 2.7-3.2 1.6-.1 3.1 1.1 3.2 2.7.1 1.6-1.1 3.1-2.7 3.2C1790.7 1690.8 1789.3 1689.5 1789.1 1687.9zM1790.1 1687.8c.1 1.1 1.1 2 2.2 1.9 1.1-.1 2-1.1 1.9-2.2-.1-1.1-1.1-2-2.2-1.9C1790.8 1685.7 1790 1686.7 1790.1 1687.8z"></path>
        <g>
          <path fill="#231f20" d="M1803.8,1696.5c-0.2,0.3,0,0.7,0.3,0.9c0.1,0.1,0.2,0.1,0.3,0.1c0.2,0,0.4-0.2,0.5-0.4
								c0.2-0.4,3.7-7.4,3.3-12.5c0-0.2,0-0.3,0-0.5c-0.1-0.5-0.2-1.1-0.4-1.5c-0.2-0.5-0.5-1-0.8-1.4c-1.5-1.7-4.1-2.1-7.8-1.2
								c0.6,0.3,1.2,0.7,1.7,1c2.4-0.4,4.1,0,5,1.1c0.1,0.1,0.2,0.2,0.2,0.3c0.3,0.4,0.4,0.9,0.6,1.4c0,0.1,0,0.2,0.1,0.3
								C1807.6,1687.7,1805.1,1694,1803.8,1696.5z"></path>
          <path fill="#231f20" d="M1792.1,1687.3c0.2,0.3,0.6,0.4,0.9,0.2c2.6-1.4,9-4.4,13.2-4.1c0.2,0,0.5,0,0.7,0.1
								c0.5,0.1,1,0.2,1.4,0.5c0.2,0.1,0.3,0.2,0.5,0.3c0.2,0.2,0.4,0.4,0.6,0.6c0.6,0.3,1.2,0.5,1.8,0.8c-0.3-1-0.9-1.9-1.7-2.5
								c-0.5-0.4-1-0.6-1.7-0.8c-0.5-0.2-1-0.2-1.6-0.3c-0.8-0.1-1.7,0-2.5,0.1c-5.2,0.7-11.1,3.9-11.4,4.1
								C1792,1686.6,1791.9,1687,1792.1,1687.3z"></path>
        </g>
      </g>
      <g>
        <path fill="#e6e7e8" d="M1777,1678.7c-0.3-1.6,0.7-3.2,2.3-3.5c1.6-0.3,3.2,0.7,3.5,2.3c0.3,1.6-0.7,3.2-2.3,3.5
							C1778.9,1681.3,1777.4,1680.3,1777,1678.7z M1777.9,1678.5c0.2,1.1,1.3,1.8,2.4,1.6c1.1-0.2,1.8-1.3,1.6-2.4
							c-0.2-1.1-1.3-1.8-2.4-1.6C1778.5,1676.3,1777.7,1677.4,1777.9,1678.5z"></path>
        <path fill="#231f20" d="M1779.5,1678.5c0.2,0.3,0.7,0.3,0.9,0c1.5-1.5,5.1-4.5,8.3-5.4c1.1-0.3,2.1-0.4,2.9,0
							c1.2,0.5,2,1.7,2.5,3.7c0.5,0.3,1,0.6,1.5,0.9c-0.5-3.2-1.7-5.1-3.5-5.8c-1.4-0.5-3-0.3-4.6,0.3c-3.9,1.5-7.7,5.2-7.9,5.4
							C1779.3,1677.9,1779.3,1678.3,1779.5,1678.5z"></path>
      </g>
    </g>
    <path fill="#333" d="M1572,1704.2l-24-275.4c-1.1-12.3-9-22.9-20.5-27.4l-146.6-57.9c-46.1-18.2-74.8-64.5-70.4-113.9l2.5-29.1
			l107.5,22.3l117.9-22.1l140.9,74.7c31.8,16.9,53.9,47.6,59.8,83.1l50,300.2l-71.9,9.7l-54.5-249.6c-5.5-26.2-21.7-48.9-44.6-62.6
			l0,0l4.4,11.8c6.7,17.9,10.4,36.8,11,56l8.5,278L1572,1704.2z"></path>
    <g>
      <path fill="#f7c19b" d="M1450.5,849.7c-21.1,36-40.2,32.4-57.4-8.6l-1.2-41.4l55.1,3.6L1450.5,849.7z"></path>
      <path fill="#f7c19b" d="M1488.3,737.6c0,0,9.4,58.2-13.9,86.3c-12.1,14.6-33.4,17.4-49.2,7c-12.1-7.9-29.4-22.2-41.1-43.8
				c-1-1.9,11.6-50.7,11.6-50.7l14.8-14.8l46.2,1.9L1488.3,737.6z"></path>
      <path fill="#333" d="M1432.7,774.3l-3.4-20.4c0,0,5.5,3.3,12.5,5.7c10.2,3.5,21.2-2.1,24.7-12.3l0.9-2.5c0,0,43.8,5.5,37.4-34.6
				c-1.6-10.2-9.1-18.5-19.2-20.7c-8.9-1.9-22.1-1.8-41.3,4.3c-7.2,2.3-15,0.1-21.5-3.8c-7-4.2-18.7-5.9-30.5,15
				c-2,3.6-4.6,6.9-7.7,9.7c-8.7,7.7-28.8,46.5,7.3,95.4c1.6,2.1,4.9,0.9,4.7-1.7c-1.2-16.1-1.7-48.6,14.2-46.2
				c3.8,0.6,7,3.2,8.8,6.6l4.3,8.3c1.2,2.3,3.9,3.2,6.3,2.1l0,0C1432,778.5,1433.1,776.4,1432.7,774.3z"></path>
      <path fill="#f7c19b" d="M1751.9,948.3l10.6-17.8c1.7-2.8,2.1-6.2,1.2-9.4l-3.9-13.7c-0.7-2.6,0.7-5.3,3.3-6.1l0,0
				c2.1-0.7,4.4,0.2,5.6,2l6.9,10.6c1.8,2.8,5.7,3.4,8.3,1.2l25.8-22.1c2-1.7,5-1.5,6.8,0.4l0,0c1.7,1.9,1.7,4.9-0.1,6.7l-13.4,13.6
				l15.2-15.3c2.2-2.2,5.8-2.1,7.8,0.3l0,0c1.8,2.1,1.7,5.4-0.4,7.3l-23,22l18.2-17.7c2.1-2.1,5.5-2,7.5,0.2l0,0
				c2,2.1,1.9,5.5-0.3,7.5l-24.9,23.1l18.8-17.6c2.1-2,5.4-1.9,7.4,0.2l0,0c1.9,2,2,5.2,0.1,7.2c-14,15.5-31.6,30.5-51.2,45.1
				L1751.9,948.3z"></path>
      <path fill="#f1f2f2" d="M1381.1,863.9l11.9-22.7c16.2,22.6,35.2,26.5,57.4,8.6l60.2,95l-20.3,43.3l-4,155.5l-19.1,73.6
					c-13.2,19.2-34.3,21.6-59.8,14.6l-28.5-19.8l-38.8-155.4l0-65.4c0,0,13.2-45.8,15.3-48.1
					C1357.6,940.7,1381.1,863.9,1381.1,863.9z"></path>
      <path fill="#1e88e5" d="M1749.5,940c0,0-119.4,70.4-124.4,67.9c-13.5-6.6-22.7-22.8-30.5-34.9c-18.4-28.3-39.4-57.4-65.5-79.2
						c-8.1-6.7-16.5-13.1-25.3-18.8c-7.9-5.2-16.2-9.8-24.7-14c-4.5-2.2-9.1-4.2-13.7-6.1c-1.7-0.7-13.6-4.5-14.8-5.3
						c2.7,13.4,5.5,26.8,8.2,40.2c5.1,25.3,7.3,49.7,5,75.5c-1.9,20.7-5,41.3-5.2,62.1c-0.2,24.3,5.3,47.7,8.2,71.6
						c5.5,44.6,1.3,90.1,0.2,134.9c-0.2,6.4,5.4,11.5,11.8,10.7c25.3-3.2,46.6-13.1,63.8-30.1c1.9-1.8,2.8-4.4,2.5-7
						c-3.4-29.7-7.3-59.3-11.6-88.9c-4.7-32.3-12.1-115.3-6.5-116.5c5-1.1,9.2,8.2,12.3,12.6c15.1,21.8,33.7,49,51.4,63.4
						c1.8,1.2,3.8,3.1,5.8,3.9c18.2,12.2,42.4,9.7,57.8-5.8L1786.4,975L1749.5,940z"></path>
      <path fill="#1e88e5" d="M1498.4,1200.9l40-46.9l-155.2-115.8l-61.1-27.7l-14.1,252.9c0,2.8,2.3,5,5.1,4.9
						c17.2-0.6,78-2.3,94.5-36.6c1.5-3.2-0.2-7.7-0.8-10.9c-1.1-5.4-1.9-10.8-2.7-16.3c-8.5-65,7.5-129.7,6.2-194.7
						c-1-52-10.5-104-15.8-155.7c-0.1-0.7-1.4-13.1-1.4-13.1c-2.1,1.8-7.8,2.5-10.6,3.4c-3.4,1.2-6.7,2.3-10.1,3.6
						c-5.9,2.2-11.8,4.7-17.5,7.4c-9.2,4.4-18.1,9.6-25.9,16.3c-13.3,11.5-21.2,26.8-25.6,43.6c-4.4,16.6-5.9,33.7-8.1,50.6
						c-3.1,23.6-6.7,46.3-3.8,70.1c1.7,13.7,4.1,26.1,13,37.1c3.8,4.7,9,8.9,14.9,13L1498.4,1200.9z"></path>
      <path fill="#f7c19b" d="M1524.6,1159.7l17.3,4.4c3.1,1.1,6.5,0.9,9.5-0.6l12.7-6.4c2.4-1.2,5.3-0.3,6.6,2.1l0,0c1,2,0.7,4.4-0.9,5.9
				l-9.1,8.8c-2.4,2.3-2.2,6.3,0.4,8.4l26.6,21.1c2.1,1.6,2.5,4.7,0.9,6.8l0,0c-1.6,2.1-4.5,2.6-6.6,1.1l-15.9-10.6l17.9,12
				c2.6,1.7,3.1,5.3,1.2,7.8l0,0c-1.8,2.2-4.9,2.7-7.2,1l-26-18.3l20.8,14.5c2.4,1.7,3,5,1.3,7.4l0,0c-1.7,2.4-5,2.9-7.4,1.2
				l-27.5-20l20.8,15.1c2.3,1.7,2.9,4.9,1.2,7.3l0,0c-1.6,2.3-4.7,2.9-7.1,1.5c-17.9-10.8-36-25.2-54.1-41.6L1524.6,1159.7z"></path>
      <polygon fill="#1e88e5" points="1466.7 1099.1 1538.4 1159.4 1498.4 1200.9 1429.1 1156.5 1443.9 1119.6"></polygon>
      <path fill="#eab896" d="M1449.5,837.1c0,0-24,0.5-43.8-18.1c0,0,12.9,23.3,44.4,25.7L1449.5,837.1z"></path>
    </g>
    <g>
      <polygon fill="#58595b" points="1510.8 1263.1 1425.2 1225.5 1425.2 1218.5 1513 1257"></polygon>
      <polygon fill="#bdbdbd" points="1425.2 1218.5 1554.1 1218.6 1544.1 1249.5 1513 1257"></polygon>
      <path fill="#bdbdbd" d="M1829.7,1107.1l-57.8,150.1l-2.3,6.1l-258.7-0.2l2.2-6.1l57.2-157.6c0.7-1.9,2.6-3.3,4.7-3.2l250.4,4.3
						C1828.6,1100.5,1830.9,1103.9,1829.7,1107.1z"></path>
      <polygon fill="#aaa" points="1771.9 1257.2 1769.5 1263.3 1510.8 1263.1 1513 1257"></polygon>
      <path fill="#f5f5f5" d="M1697.1,1178.2c-3.2,11-12.8,17.8-21.6,15.3c-8.7-2.5-13.3-13.5-10.1-24.5c3.2-11,12.8-17.8,21.6-15.3
				C1695.7,1156.2,1700.2,1167.2,1697.1,1178.2z"></path>
    </g>
  </g>
</svg>
