<svg xmlns="http://www.w3.org/2000/svg" xml:space="preserve" enable-background="new 0 0 800 600" viewBox="0 0 800 600" id="team-working-for-creative-idea">
  <g>
    <ellipse cx="400" cy="301.22" fill="#defaff" rx="400" ry="276.12"></ellipse>
    <g>
      <g>
        <linearGradient id="a" x1="267.235" x2="371.888" y1="509.959" y2="509.959" gradientUnits="userSpaceOnUse">
          <stop offset="0" stop-color="#5b62c2"></stop>
          <stop offset="1" stop-color="#5a3e9e"></stop>
        </linearGradient>
        <path fill="url(#a)" d="M267.24,491.94c7.58,21.6,29.77,37.18,52.66,36.98c22.89-0.2,44.8-16.17,52-37.9L267.24,491.94z"></path>
        <linearGradient id="b" x1="153.201" x2="485.618" y1="252.406" y2="252.406" gradientUnits="userSpaceOnUse">
          <stop offset="0" stop-color="#f6858b"></stop>
          <stop offset="1" stop-color="#fecba7"></stop>
        </linearGradient>
        <path fill="url(#b)" d="M482.67,237.89
				c-10.14,57.25-44.77,104.25-83.71,148.7c-14.65,16.73-11.9,28.25-12.94,48.69c-0.13,2.59-0.33,5.37-2.01,7.41
				c-2.21,2.69-6.18,3.21-9.74,3.53c-36.61,3.25-73.96,6.47-109.83-1.33c-3.29-0.72-6.93-1.78-8.55-4.61
				c-1.39-2.41-0.87-5.35-0.52-8.08c4.33-32.91-28.8-51.97-47.85-74.22c-71.6-83.62-81.55-218.17,25.92-280.24
				C291.35,44.29,370,48.55,425,86.27c42.5,29.15,62.7,77.26,60.44,126.54C485.05,221.39,484.11,229.74,482.67,237.89z"></path>
        <path fill="#fff" d="M299.22,438.56c1.22-13.92,1.93-27.95,2.08-42.11c0.15-13.7-0.22-27.52-1.17-41.5
				c-1.55-22.74-7.99-48.61-11.88-70.68c-2.58-14.54-6.24-29.57-15.07-41.99c-2.79-3.91-7-6.34-11.45-6.4
				c-3.7-0.06-7.48,1.68-10.18,5.26c-2.22,2.89-3.2,6.43-3.24,9.93c-0.02,2.09,0.29,4.17,0.9,6.15c1.62,5.24,5.02,9.54,8.76,13.09
				c9.93,9.41,23.1,14.56,36.35,16.71c4.95,0.8,10.22,1.24,15.66,1.3c22.76,0.22,48.49-6.02,65.39-19.99
				c8.17-6.79,14.24-16.79,14.37-27.76c0.02-2.36-0.36-4.89-1.38-7.19c-1-2.28-2.76-4.41-5.44-5.36c-0.94-0.34-1.91-0.5-2.85-0.51
				c-3.85,0-7.11,2.15-9.58,4.39c-11.65,10.72-13.61,27.15-16.47,41.48c-6.15,31.31-9.31,60-9.62,87.99
				c-0.29,26.09,1.91,51.58,6.45,77.99c0.2,1.19,1.33,1.98,2.52,1.78c1.19-0.2,1.98-1.33,1.78-2.52
				c-4.5-26.19-6.67-51.39-6.39-77.21c0.3-27.69,3.43-56.1,9.53-87.2c2.82-14.6,5-29.95,15.14-39.1c2.01-1.87,4.62-3.31,6.6-3.24
				l1.42,0.25c1.28,0.46,2.22,1.47,2.93,3.04c0.69,1.54,1.02,3.54,1,5.37c-0.08,9.32-5.4,18.32-12.8,24.45
				c-15.66,13.03-40.63,19.25-62.56,18.99c-5.24-0.06-10.3-0.48-15.01-1.24c-12.62-2.04-24.96-6.95-34.05-15.57
				c-3.43-3.25-6.31-7.01-7.6-11.22c-0.48-1.55-0.72-3.2-0.71-4.82c0.03-2.72,0.8-5.32,2.35-7.33c2.01-2.6,4.31-3.55,6.68-3.55
				c2.83,0.02,5.87,1.65,7.94,4.57c8.19,11.49,11.8,25.86,14.33,40.22c3.94,22.27,10.32,48.04,11.82,70.21
				c0.94,13.86,1.31,27.57,1.16,41.15c-0.15,14.05-0.86,27.97-2.07,41.78c-0.1,1.2,0.78,2.26,1.98,2.36
				C298.06,440.65,299.11,439.76,299.22,438.56L299.22,438.56z"></path>
        <linearGradient id="c" x1="243.282" x2="396.819" y1="444.206" y2="444.206" gradientUnits="userSpaceOnUse">
          <stop offset="0" stop-color="#5b62c2"></stop>
          <stop offset="1" stop-color="#5a3e9e"></stop>
        </linearGradient>
        <path fill="url(#c)" d="M396.75,451.39
				c0.31-5.55-0.57-12.32-0.85-15.76c-0.58-7.21-2.94-11.82-10.64-11.91c-14.3-0.16-28.67,0.58-42.97,0.87
				c-26.28-0.29-52.52,1.13-78.82,0.82c-4.73-0.06-9.72-0.04-13.81,2.44c-8.15,4.94-8.57,26.51-0.87,31.79
				c4.26,2.92,9.61,3.39,14.71,3.7c40.62,2.43,82.26,1.48,122.79-1.45c3.04-0.22,6.42-0.62,8.43-3.01
				C396.01,457.35,396.58,454.57,396.75,451.39z"></path>
        <linearGradient id="d" x1="246.541" x2="400" y1="480.161" y2="480.161" gradientUnits="userSpaceOnUse">
          <stop offset="0" stop-color="#5b62c2"></stop>
          <stop offset="1" stop-color="#5a3e9e"></stop>
        </linearGradient>
        <path fill="url(#d)" d="M246.65,488.18
				c-0.4-5.54,0.38-12.33,0.6-15.77c0.47-7.22,2.76-11.88,10.45-12.08c14.3-0.38,28.67,0.13,42.98,0.19
				c26.27-0.7,52.53,0.3,78.82-0.42c4.73-0.13,9.72-0.19,13.84,2.22c8.23,4.82,8.99,26.38,1.38,31.78
				c-4.22,2.98-9.56,3.54-14.65,3.93c-40.58,3.07-82.22,2.78-122.8,0.49c-3.05-0.17-6.43-0.52-8.47-2.88
				C247.48,494.12,246.88,491.35,246.65,488.18z"></path>
      </g>
      <g>
        <g>
          <g>
            <linearGradient id="e" x1="822.653" x2="697.846" y1="515.235" y2="528.287" gradientUnits="userSpaceOnUse">
              <stop offset="0" stop-color="#f86"></stop>
              <stop offset=".995" stop-color="#fcf7bd"></stop>
            </linearGradient>
            <polygon fill="url(#e)" points="726.34 518.35 576.19 516.71 575.85 548 726 549.64"></polygon>
          </g>
          <g>
            <linearGradient id="f" x1="573.409" x2="723.899" y1="502.044" y2="502.044" gradientUnits="userSpaceOnUse">
              <stop offset="0" stop-color="#f6858b"></stop>
              <stop offset="1" stop-color="#fecba7"></stop>
            </linearGradient>
            <polygon fill="url(#f)" points="723.9 487.22 573.75 485.58 573.41 516.87 723.56 518.51"></polygon>
          </g>
          <g>
            <linearGradient id="g" x1="816.261" x2="691.455" y1="454.12" y2="467.171" gradientUnits="userSpaceOnUse">
              <stop offset="0" stop-color="#f86"></stop>
              <stop offset=".995" stop-color="#fcf7bd"></stop>
            </linearGradient>
            <polygon fill="url(#g)" points="729.04 456.29 578.89 454.65 578.55 485.93 728.7 487.57"></polygon>
          </g>
        </g>
        <g>
          <g>
            <linearGradient id="h" x1="661.414" x2="536.608" y1="515.235" y2="528.287" gradientUnits="userSpaceOnUse">
              <stop offset="0" stop-color="#f86"></stop>
              <stop offset=".995" stop-color="#fcf7bd"></stop>
            </linearGradient>
            <polygon fill="url(#h)" points="565.1 518.35 414.95 516.71 414.61 548 564.76 549.64"></polygon>
          </g>
          <g>
            <linearGradient id="i" x1="412.171" x2="562.661" y1="502.044" y2="502.044" gradientUnits="userSpaceOnUse">
              <stop offset="0" stop-color="#f6858b"></stop>
              <stop offset="1" stop-color="#fecba7"></stop>
            </linearGradient>
            <polygon fill="url(#i)" points="562.66 487.22 412.51 485.58 412.17 516.87 562.32 518.51"></polygon>
          </g>
          <g>
            <linearGradient id="j" x1="655.023" x2="530.217" y1="454.12" y2="467.171" gradientUnits="userSpaceOnUse">
              <stop offset="0" stop-color="#f86"></stop>
              <stop offset=".995" stop-color="#fcf7bd"></stop>
            </linearGradient>
            <polygon fill="url(#j)" points="567.8 456.29 417.65 454.65 417.31 485.93 567.46 487.57"></polygon>
          </g>
        </g>
        <g>
          <g>
            <linearGradient id="k" x1="589.527" x2="740.016" y1="440.467" y2="440.467" gradientUnits="userSpaceOnUse">
              <stop offset="0" stop-color="#f6858b"></stop>
              <stop offset="1" stop-color="#fecba7"></stop>
            </linearGradient>
            <polygon fill="url(#k)" points="740.02 425.64 589.87 424 589.53 455.29 739.67 456.93"></polygon>
          </g>
          <g>
            <linearGradient id="l" x1="809.964" x2="685.157" y1="393.897" y2="406.948" gradientUnits="userSpaceOnUse">
              <stop offset="0" stop-color="#f86"></stop>
              <stop offset=".995" stop-color="#fcf7bd"></stop>
            </linearGradient>
            <polygon fill="url(#l)" points="737.58 394.51 587.43 392.87 587.09 424.16 737.24 425.8"></polygon>
          </g>
          <g>
            <linearGradient id="m" x1="592.226" x2="742.716" y1="378.401" y2="378.401" gradientUnits="userSpaceOnUse">
              <stop offset="0" stop-color="#f6858b"></stop>
              <stop offset="1" stop-color="#fecba7"></stop>
            </linearGradient>
            <polygon fill="url(#m)" points="742.72 363.58 592.57 361.94 592.23 393.22 742.37 394.86"></polygon>
          </g>
        </g>
      </g>
      <g>
        <linearGradient id="n" x1="676.593" x2="719.518" y1="159.107" y2="159.107" gradientUnits="userSpaceOnUse">
          <stop offset="0" stop-color="#e36723"></stop>
          <stop offset="1" stop-color="#f5cc98"></stop>
        </linearGradient>
        <polygon fill="url(#n)" points="719.52 161.55 676.59 142.95 685.08 168.95 711.55 175.27"></polygon>
        <linearGradient id="o" x1="600.866" x2="639.445" y1="175.005" y2="175.005" gradientUnits="userSpaceOnUse">
          <stop offset="0" stop-color="#e36723"></stop>
          <stop offset="1" stop-color="#f5cc98"></stop>
        </linearGradient>
        <polygon fill="url(#o)" points="605.62 188.05 639.45 178.22 635.16 161.96 600.87 172.92"></polygon>
        <path fill="#070c25" d="M648.61 362.77c.05-.55.4-1.02.91-1.22 3.28-1.25 15.14-6.14 16.26-11.61.05-.23.09-.45.13-.67 1.15-5.81.95-7.6.95-7.6l14.74 4.81-.81 12.49c-.2 3.01-2.69 5.35-5.71 5.35h-25.04C649.2 364.33 648.54 363.61 648.61 362.77L648.61 362.77zM724.55 347.08l10.19-2.41 3.02 5.98c0 0 0 .01-.01.02l3.58 7.47c1.38 2.87-.72 6.19-3.9 6.19h-7.92c-1.93 0-3.63-1.28-4.16-3.14l.04-6.67C725.42 352.01 725.13 349.51 724.55 347.08L724.55 347.08z"></path>
        <path fill="#1b568e" d="M687,278.9L687,278.9c3.07,14.58,3.16,29.63,0.26,44.25l-4.77,24.09H664.3l1.63-69.67L687,278.9z"></path>
        <circle cx="676.47" cy="278.24" r="10.55" fill="#1b568e" transform="rotate(-5.789 676.314 278.315)"></circle>
        <path fill="#1b568e" d="M665.94,277.58l3.89-76.06l20.65-5.56c0,0,3.94,5.41,2.42,26.55c-0.65,9-1.56,37.51-5.9,56.4
				c-0.37,5.82-5.38,10.23-11.19,9.87C669.99,288.4,665.57,283.39,665.94,277.58z"></path>
        <polygon fill="#1b568e" points="725.44 277.04 738.54 344.26 720.96 348.91 704.74 281.14"></polygon>
        <circle cx="715.09" cy="279.09" r="10.55" fill="#1b568e" transform="rotate(-47.934 715.081 279.08)"></circle>
        <path fill="#1b568e" d="M707.74,201.23c0,0,4.41,4.58,8.37,23.95c1.8,8.84,5.67,33.95,9.33,51.87c1.13,5.72-2.59,11.27-8.3,12.4
				c-5.72,1.13-11.27-2.59-12.4-8.3c-10.83-21.43-19.24-80.25-19.24-80.25L707.74,201.23z"></path>
        <linearGradient id="p" x1="628.214" x2="708.339" y1="184.296" y2="184.296" gradientUnits="userSpaceOnUse">
          <stop offset="0" stop-color="#e36723"></stop>
          <stop offset="1" stop-color="#f5cc98"></stop>
        </linearGradient>
        <path fill="url(#p)" d="M653.45,146.09l19.46-4.09
				c2.57-0.54,5.17,0.75,6.29,3.12l3.62,7.64c2.76,5.82,4.33,12.13,4.64,18.57l0.2,4.35c0.33,7.05,4.19,13.45,10.26,17.05l1.67,0.99
				c1.23,0.73,9.12,6.91,8.75,8.28c0,0-38.81,26.72-39.77,24.61c0,0-17.21-28.04-22.99-33.08l-2.97-2.59
				c-3.85-3.36-7.31-7.13-10.31-11.26l-3.13-4.3c-1.19-1.64-1.26-3.83-0.17-5.54l7.72-12.14
				C640.5,151.73,646.53,147.55,653.45,146.09z"></path>
        <g>
          <g>
            <path fill="#ffac9c" d="M709.78,162.95c-3.01,3.18-2.87,8.2,0.31,11.21c3.18,3.01,8.2,2.87,11.21-0.31
						c3.01-3.18,2.87-8.2-0.31-11.21C717.81,159.63,712.79,159.77,709.78,162.95z"></path>
          </g>
        </g>
        <g>
          <g>
            <path fill="#ffac9c" d="M611.15,179.91c-0.31-4.37-4.11-7.66-8.48-7.34c-4.37,0.31-7.66,4.11-7.34,8.48
						c0.31,4.37,4.11,7.66,8.48,7.34C608.18,188.08,611.47,184.28,611.15,179.91z"></path>
          </g>
        </g>
        <g>
          <g>
            <path fill="#f38f6f" d="M573.21,161.6l0.01-0.02l32.24,11.29c0.29,0.08,0.58,0.18,0.86,0.3c4.04,1.7,5.93,6.35,4.23,10.39
						c-1.7,4.04-6.35,5.93-10.39,4.23c-0.28-0.12-0.55-0.26-0.82-0.4l-30.61-15.15l0.01-0.02c-0.55-0.23-1.07-0.52-1.55-0.93
						c-2.42-2.09-2.68-5.74-0.6-8.16C568.28,161.18,570.96,160.66,573.21,161.6z"></path>
          </g>
          <path fill="#f38f6f" d="M569.33,172.4l-11.61-2.86c-1.19-0.29-1.16-1.99,0.03-2.25l0,0c0.2-0.04,0.23-0.31,0.05-0.4l-0.67-0.32
					c-1.3-0.63-0.87-2.58,0.57-2.6l0,0l0,0c-1.01-1.14,0.06-2.9,1.54-2.54l1.97,0.48l-4.37-3.81c-0.45-0.39-0.01-1.1,0.54-0.89
					l8,3.14l-1.08-3.93c-0.25-0.9,0.79-1.61,1.54-1.04l8.99,6.77L569.33,172.4z"></path>
        </g>
        <path fill="#f38f6f" d="M643.8,127.57c0.98-0.03,1.92,0.52,2.49,1.32c0.57,0.8,0.78,1.81,0.71,2.79
				c-0.09,1.32-0.68,2.6-1.62,3.53c1.67,1.69,2.89,4.1,4.26,6.04c1.37,1.94,3.13,3.78,5.43,4.38c-0.18,6.3-1.06,12.07-4.38,17.43
				c-0.86,1.39-1.91,2.79-3.43,3.39c-1.8,0.7-3.89,0.1-5.44-1.06c-1.54-1.16-2.65-2.79-3.72-4.39c-6.63-3.27-11.92-9.5-15.46-15.99
				c-1.08-0.16-1.8-0.92-2.32-1.88c-0.48-0.88-0.55-1.92-0.62-2.92c-0.13-2-0.26-4-0.39-6l12.68-9.23
				C635.51,125.7,640.22,127.68,643.8,127.57z"></path>
        <path fill="#f38f6f" d="M646.48,129.4c-1.2-1.65-3.51-2.01-5.16-0.81c-1.65,1.2-2.01,3.51-0.81,5.16
				c1.2,1.65,3.51,2.01,5.16,0.81C647.31,133.36,647.68,131.05,646.48,129.4z"></path>
        <g>
          <path fill="#f38f6f" d="M725.56,201.77l-0.02,0.01l-17.06-29.59c-0.16-0.25-0.32-0.51-0.45-0.79
					c-1.95-3.92-0.35-8.68,3.57-10.64c3.92-1.95,8.68-0.35,10.64,3.57c0.14,0.28,0.25,0.56,0.35,0.84l13.31,31.46l-0.02,0.01
					c0.26,0.53,0.47,1.1,0.57,1.71c0.47,3.16-1.71,6.1-4.87,6.57C729.03,205.3,726.65,203.95,725.56,201.77z"></path>
        </g>
        <path fill="#f38f6f" d="M736.52,198.93l4,16.27c0.13,0.52-0.56,0.85-0.88,0.41l-3.35-4.52l0.71,6.92
				c0.05,0.51-0.65,0.71-0.87,0.24l-2.47-5.25l-0.94,4.53c-0.12,0.59-0.97,0.58-1.08-0.01l-1.3-6.85l-1.66,5.55
				c-0.17,0.57-1,0.47-1.03-0.12l-0.45-8.59l-3.13,2.61c-0.72,0.6-1.79-0.06-1.58-0.97l2.37-10.36L736.52,198.93z"></path>
        <path fill="#193653" d="M610.4,131.26c-0.95-2.8,0.05-6.15,2.38-7.97c1.24-0.97,2.85-1.59,3.66-2.95
				c0.94-1.6,0.44-3.69,1.13-5.41c0.76-1.92,2.96-3.02,5.02-2.9c2.06,0.12,3.95,1.27,5.38,2.76c1.43,1.49,2.46,3.31,3.47,5.1
				c2.53-3.2,6.98-4.75,10.96-3.81c3.97,0.94,7.26,4.32,8.08,8.32c-1.96,2.3-2.63,5.63-1.72,8.5c0.46,1.46,1.31,2.98,0.81,4.42
				c-0.6,1.74-2.99,2.31-4.65,1.51c-1.66-0.79-4.77-2.55-5.46-4.25c-0.69-1.71,0.92-3.48-0.09-5.02c-1.47-2.22-4.07-3.65-6.74-3.69
				c-2.66-0.04-2.86,3.51-4.4,5.69c-0.8,1.13-3.75,0.24-4.56,1.36C620.18,137.75,612.4,137.14,610.4,131.26z"></path>
      </g>
      <g>
        <path fill="#193653" d="M83.16,275.57c-0.79-1.18-1.02-2.67-1.83-3.83c-0.82-1.16-2.74-1.79-3.59-0.66
				c-0.56-2.09-2.54-3.71-4.7-3.85c-2.16-0.14-4.33,1.21-5.16,3.21c-1.58-1.59-4.13-2.12-6.21-1.29c-2.08,0.83-3.57,2.97-3.62,5.21
				c-1.84,1.14-3.72,1.39-5.6,1.88c-1.53,0.4-2.17,2.2-1.25,3.48c0.5,0.69,1.01,1.34,1.48,1.56c-0.95,0-1.87,0.59-2.26,1.46
				c-0.39,0.87-0.22,1.95,0.41,2.66c0.55,0.62,1.46,1.03,0.74,2.37c-0.16,0.3-0.39,0.54-0.65,0.76c-1.08,0.93-1.31,2.61-0.62,3.83
				c0.59,1.05,1.83,1.69,3.02,1.57c-0.65,1.78,0.11,3.73,0.87,5.46c0.41,0.95,0.83,1.9,1.24,2.85c0.33,0.75,0.66,1.51,1.11,2.19
				c1.57,2.37,4.65,3.61,7.43,3.01c-1.01-3.82-0.54-8.02,1.3-11.52c1.66-3.16,4.36-5.69,7.34-7.66c1.86-1.23,3.87-2.34,5.92-3.23
				c1.49-0.65,2.97-0.54,4.45-1.03c1.59-0.53,3.12-2.19,3.1-3.93C86.07,278.08,84.15,277.05,83.16,275.57z"></path>
        <path fill="#070c25" d="M116.53 544.64c-.05-.57-.42-1.07-.96-1.28-3.44-1.32-15.88-6.44-17.06-12.17-.05-.24-.09-.47-.14-.7-1.21-6.09-.99-7.97-.99-7.97l-15.45 5.04.85 13.1c.2 3.16 2.83 5.61 5.99 5.61h26.26C115.91 546.27 116.6 545.52 116.53 544.64L116.53 544.64zM36.89 528.18l-10.69-2.53-3.17 6.28c0 0 0 .01.01.02l-3.75 7.83c-1.44 3.01.75 6.49 4.09 6.49h8.3c2.03 0 3.81-1.35 4.36-3.3l-.04-7C35.98 533.35 36.28 530.73 36.89 528.18L36.89 528.18z"></path>
        <path fill="#1b568e" d="M76.27,456.69L76.27,456.69c-3.22,15.29-3.31,31.07-0.28,46.4l5,25.27h19.07l-1.71-73.06L76.27,456.69z"></path>
        <circle cx="87.31" cy="455.99" r="11.07" fill="#1b568e" transform="rotate(-24.581 87.302 455.963)"></circle>
        <path fill="#1b568e" d="M98.35,455.3l-4.08-79.76l-21.66-5.83c0,0-4.13,5.68-2.54,27.84c0.68,9.44,1.64,39.34,6.19,59.14
				c0.38,6.1,5.64,10.73,11.74,10.35C94.11,466.65,98.74,461.4,98.35,455.3z"></path>
        <polygon fill="#1b568e" points="35.95 454.73 22.22 525.23 40.65 530.1 57.66 459.03"></polygon>
        <circle cx="46.81" cy="456.88" r="11.07" fill="#1b568e" transform="rotate(-13.369 46.783 456.83)"></circle>
        <path fill="#1b568e" d="M54.51,375.23c0,0-4.63,4.8-8.78,25.12c-1.89,9.27-5.95,35.61-9.78,54.39c-1.19,5.99,2.71,11.82,8.71,13
				c5.99,1.19,11.82-2.71,13-8.71c11.36-22.47,20.17-84.16,20.17-84.16L54.51,375.23z"></path>
        <g>
          <g>
            <path fill="#ffac9c" d="M31.34,370.47c4.5-0.93,8.9,1.97,9.83,6.47c0.93,4.5-1.97,8.9-6.47,9.83c-4.5,0.93-8.9-1.97-9.83-6.47
						C23.94,375.79,26.84,371.39,31.34,370.47z"></path>
          </g>
        </g>
        <g>
          <g>
            <g>
              <g>
                <g>
                  <path fill="#ffac9c" d="M109.84,346.15c2.16-4.05,7.2-5.59,11.26-3.43c4.05,2.16,5.59,7.2,3.43,11.26
									c-2.16,4.05-7.2,5.59-11.26,3.43C109.21,355.25,107.68,350.21,109.84,346.15z"></path>
                </g>
              </g>
              <linearGradient id="q" x1="24.699" x2="122.68" y1="351.682" y2="351.682" gradientUnits="userSpaceOnUse">
                <stop offset="0" stop-color="#e36723"></stop>
                <stop offset="1" stop-color="#f5cc98"></stop>
              </linearGradient>
              <path fill="url(#q)" d="M95.07,344.92
							c0.17-0.74,0.32-1.48,0.47-2.23l16.15,13.62l11-12.49l-22.87-21.6c-0.37-0.45-0.77-0.88-1.22-1.27
							c-1.75-1.54-3.84-2.43-6.01-2.72l-13.04-5.13c-6.9-2.72-14.6-2.53-21.36,0.5l-17.48,7.85c-5.18,1.15-9.12,5.56-9.27,10.95
							c0,0.04,0,0.07,0,0.11l-6.74,45.86l16.63,0.48l6.25-18.84c3.94,6.14,4.58,13.85,1.69,20.56l-0.8,1.87
							c-0.59,1.37-1.67,7.53-0.5,8.47c0,0,47.6,2.64,47.11,0.27c0,0-2.71-34.39-0.93-42.24L95.07,344.92z"></path>
            </g>
            <g>
              <path fill="#f38f6f" d="M142.22,322.55l-0.02-0.02L112.8,343c-0.27,0.17-0.53,0.35-0.78,0.55c-3.6,2.85-4.21,8.08-1.36,11.69
							c2.85,3.6,8.08,4.21,11.69,1.36c0.25-0.2,0.49-0.41,0.71-0.64l26.67-23.91l-0.02-0.02c0.49-0.39,0.94-0.83,1.3-1.37
							c1.86-2.79,1.1-6.55-1.69-8.41C147.08,320.75,144.22,320.97,142.22,322.55z"></path>
            </g>
          </g>
          <path fill="#f38f6f" d="M149.17,332.37l15.77-7.75c0.51-0.25,0.31-1.02-0.26-0.98l-5.9,0.35l6.04-4.09
					c0.45-0.3,0.13-1-0.39-0.86l-5.89,1.56l3-3.81c0.39-0.5-0.19-1.17-0.74-0.86l-6.38,3.58l3.34-5.08c0.34-0.52-0.3-1.12-0.79-0.75
					l-7.2,5.42l-0.02-4.28c0-0.98-1.25-1.4-1.85-0.62l-6.72,8.89L149.17,332.37z"></path>
        </g>
        <path fill="#f38f6f" d="M54.94,291.95c-0.85,0.58-1.31,1.63-1.3,2.65c0.01,1.03,0.46,2.02,1.12,2.8
				c0.89,1.06,2.18,1.79,3.55,1.99c-0.37,2.46,0.08,5.26,0.11,7.75c0.04,2.49-0.32,5.14-1.9,7.06c4.04,5.23,8.35,9.59,14.47,12.07
				c1.59,0.65,3.34,1.19,5,0.75c1.96-0.51,3.36-2.32,3.96-4.25c0.6-1.93,0.52-4,0.44-6.02c3.61-6.86,4.25-15.41,3.24-23.1
				c0.81-0.8,0.96-1.9,0.8-3.03c-0.14-1.04-0.72-1.97-1.28-2.86c-1.12-1.78-2.25-3.55-3.37-5.33H63.32
				C60.81,285.24,58.04,289.83,54.94,291.95z"></path>
        <path fill="#193653" d="M64.01,299.47v-15.4v-1.2h15.98c-0.23,0.65,0.32,1.53,0.94,1.83c0.62,0.3,1.45,0.07,1.82-0.51
				c0.46-0.72,0.19-1.67-0.17-2.44c-1.64-3.56-4.87-6.35-8.63-7.44c-1.75-0.51-3.57-0.67-5.39-0.82c-1.49-0.13-3.04-0.24-4.42,0.31
				c-1.42,0.56-2.48,1.75-3.48,2.9c-1.54,1.76-3.08,3.52-4.61,5.28c-1.66,1.9-3.38,3.91-3.95,6.37c-0.47,2.06-0.09,4.21,0.3,6.29
				c0.21,1.1,0.46,2.29,1.3,3.03c0.84,0.74,2.46,0.63,2.8-0.43l4.66-3.54"></path>
        <path fill="#f38f6f" d="M53.8,295.15c0-2.14,1.73-3.87,3.87-3.87c2.14,0,3.87,1.73,3.87,3.87c0,2.14-1.73,3.87-3.87,3.87
				C55.53,299.03,53.8,297.29,53.8,295.15z"></path>
        <g>
          <path fill="#81e2ad" d="M176.82,230.29c-34.08,24.74-41.65,72.43-16.91,106.52c24.74,34.08,72.43,41.65,106.52,16.91
					c34.08-24.74,41.65-72.43,16.91-106.52C258.59,213.12,210.9,205.55,176.82,230.29z M185.89,242.78
					c27.18-19.73,65.22-13.7,84.95,13.49s13.7,65.22-13.49,84.95c-27.18,19.73-65.22,13.7-84.95-13.49
					C152.67,300.55,158.71,262.52,185.89,242.78z"></path>
          <rect width="20.09" height="171.12" x="85.52" y="297.5" fill="#81e2ad" transform="rotate(-125.98 95.561 383.061)"></rect>
        </g>
        <g>
          <path fill="#f38f6f" d="M57.21,405.98l0.02-0.01l-16.96-31.56c-0.13-0.29-0.28-0.57-0.45-0.84c-2.42-3.91-7.55-5.11-11.45-2.69
					c-3.91,2.42-5.11,7.55-2.69,11.45c0.17,0.27,0.36,0.53,0.55,0.78l20.69,29.24l0.02-0.01c0.33,0.53,0.71,1.03,1.21,1.45
					c2.56,2.16,6.38,1.85,8.55-0.71C58.45,411.02,58.56,408.16,57.21,405.98z"></path>
        </g>
        <path fill="#f38f6f" d="M48.63,414.18l12.29,12.55c0.4,0.41,1.06-0.03,0.85-0.55l-2.18-5.49l5.78,4.46
				c0.43,0.33,0.99-0.19,0.7-0.64l-3.32-5.11l4.56,1.66c0.59,0.22,1.06-0.54,0.59-0.97l-5.39-4.94l5.87,1.59
				c0.6,0.16,0.97-0.63,0.46-0.99l-7.4-5.15l4.06-1.35c0.93-0.31,0.94-1.63,0.01-1.95l-10.54-3.61L48.63,414.18z"></path>
      </g>
      <g>
        <g>
          <path fill="#174c77" d="M467.89,433.24l60.63-0.55l5.39,17.85c0,0-4.12,3.74-20.98,3.51c-7.18-0.1-29.88,0.58-45.1-2.25
					c-4.64-0.02-8.39-4.19-8.37-9.32C459.47,437.36,463.25,433.22,467.89,433.24z"></path>
          <g>
            <path fill="#070c25" d="M410.31,488.26c0.29-0.37,0.74-0.52,1.16-0.4c2.7,0.8,12.63,3.46,15.91,0.15
						c0.14-0.14,0.27-0.27,0.4-0.41c3.46-3.54,4.17-4.92,4.17-4.92l7.25,11.04l-6.36,8.47c-1.53,2.04-4.24,2.42-6.18,0.86
						L410.5,490.1C409.96,489.67,409.87,488.82,410.31,488.26L410.31,488.26z"></path>
            <path fill="#174c77" d="M461.32,436.55c2.96-3.95,8.25-4.51,11.83-1.24c3.58,3.27,4.08,9.12,1.12,13.07
						c-4.84,11.97-11.83,22.73-20.53,31.64l-14.34,14.69l-11.72-9.4L461.32,436.55z"></path>
            <path fill="#070c25" d="M510.08,520c-0.23-0.41-0.24-0.93-0.01-1.34c1.48-2.62,6.66-12.35,4.75-16.78
						c-0.08-0.19-0.16-0.36-0.24-0.54c-2.06-4.69-3.05-5.84-3.05-5.84l11.66-4.45l5.48,9.19c1.32,2.22,0.86,5.19-1.05,6.79
						l-15.9,13.3C511.2,520.77,510.44,520.62,510.08,520L510.08,520z"></path>
            <path fill="#174c77" d="M480.16,451c-2.56-4.28-1.5-10.04,2.37-12.87c3.87-2.83,9.08-1.66,11.64,2.62
						c8.95,8.6,16.24,19.12,21.42,30.91l8.55,19.44l-11.54,9.66L480.16,451z"></path>
            <path fill="#174c77" d="M487.86,438.71l60.27-7.29l0,0c4.1,10.07-1.89,21.67-11.83,22.81c-0.56,0.06-1.14,0.13-1.74,0.18
						c-7.15,0.7-29.68,3.91-45.07,2.79c-4.62,0.5-8.73-3.24-9.17-8.34C479.86,443.75,483.24,439.21,487.86,438.71z"></path>
          </g>
        </g>
        <path fill="#193653" d="M514.43,337.28c1.64-1.41,3.29-2.81,4.93-4.22c2.08-1.78,4.23-3.6,6.8-4.53
				c2.58-0.93,5.73-0.79,7.75,1.07c1.72,1.58,2.56,4.26,4.78,4.97c1.49,0.48,3.25-0.1,4.6,0.69c1.04,0.61,1.52,1.88,1.57,3.08
				c0.05,1.2-0.24,2.39-0.37,3.58c-0.34,3.13,0.44,6.37,2.19,8.99c1.67,2.51,4.19,4.49,5.31,7.29c1.39,3.48,0.08,7.85-3,9.99
				c-2.23,1.54-5.05,1.92-7.75,2.06c-10.21,0.56-20.55-1.5-29.77-5.93c-1.1-0.53-2.21-1.11-3.04-2c-1-1.07-0.97-2.77-0.76-4.22
				c0.35-2.37,1.56-4.54,3.12-6.35c1.56-1.81,3.46-3.29,5.39-4.7L514.43,337.28z"></path>
        <g>
          <g>
            <g>
              <g>
                <path fill="#cee0e3" d="M521.04,381.83c2.86,3.82,8.18,4.67,11.88,1.9c3.7-2.77,4.38-8.12,1.52-11.94
								c-2.86-3.82-8.18-4.67-11.88-1.9C518.86,372.66,518.18,378.01,521.04,381.83z"></path>
              </g>
            </g>
          </g>
          <linearGradient id="r" x1="486.008" x2="532.684" y1="378.043" y2="378.043" gradientUnits="userSpaceOnUse">
            <stop offset="0" stop-color="#e36723"></stop>
            <stop offset="1" stop-color="#f5cc98"></stop>
          </linearGradient>
          <path fill="url(#r)" d="M532.59,371.09
					c1.14,3.8-8.35,10-21.19,13.83c-12.84,3.84-24.17,3.87-25.3,0.07c-1.14-3.8,8.35-10,21.19-13.83
					C520.13,367.32,531.45,367.29,532.59,371.09z"></path>
          <path fill="#f38f6f" d="M491.21,387.71c3.14-0.43,5.25-3.41,4.65-6.52c-2.52-12.88-7.82-31.27-7.82-31.27l-3.93,0.54
					c0,0-0.51,22.24,0.87,32.22C485.41,385.81,488.07,388.14,491.21,387.71z"></path>
        </g>
        <path fill="#f38f6f" d="m484.1 357.81-4.95-7.85c-.43-.68-.28-1.58.35-2.09l.76-.61c-.44-1.21 1.15-2.11 1.96-1.11l0 0 0 0c-.05-1.27 1.69-1.69 2.22-.53l.78 1.69-.23-6.13c.02-.47.68-.55.82-.1l2.44 8.06 1.91-2.6c.44-.6 1.39-.3 1.4.44l-1.76 10.06L484.1 357.81zM541.57 351.26c0-1.79-1.45-3.25-3.25-3.25-1.79 0-3.25 1.45-3.25 3.25 0 1.79 1.45 3.25 3.25 3.25C540.12 354.51 541.57 353.05 541.57 351.26z"></path>
        <path fill="#f38f6f" d="M536.4,348.55c-3.97-1.96-7.66-5.1-10.32-8.64c-2.83,1.99-5.85,3.92-8.68,5.92
				c-0.91,3.74-1.67,7.61-1.12,11.41c0.55,3.81,2.65,7.59,6.14,9.22c1.36,0.64,3.02,0.71,4.41,0.17c-0.65,2.13,0.57,4.65,2.64,5.46
				c1.34,0.53,2.88,0.37,4.22-0.18s2.75-1.43,3.82-2.4v-12.02L536.4,348.55z"></path>
        <linearGradient id="s" x1="508.743" x2="548.737" y1="400.492" y2="400.492" gradientUnits="userSpaceOnUse">
          <stop offset="0" stop-color="#e36723"></stop>
          <stop offset="1" stop-color="#f5cc98"></stop>
        </linearGradient>
        <path fill="url(#s)" d="M523.49,368.54l-7.93,17.34
				c-1.76,3.14-1.82,6.96-0.18,10.16l0,0c1,1.94,1.38,4.13,1.1,6.29l-7.74,31.41l39.99-0.56l-1.2-7.69
				c-3.49-16.47-5.73-31.03-3.22-47.68l0.84-5.56l-7.64-5.01l-1.9,1.96c-3.12,2.51-7.01,1.88-8.95-1.62L523.49,368.54z"></path>
        <g>
          <linearGradient id="t" x1="538.878" x2="564.835" y1="392.574" y2="392.574" gradientUnits="userSpaceOnUse">
            <stop offset="0" stop-color="#e36723"></stop>
            <stop offset="1" stop-color="#f5cc98"></stop>
          </linearGradient>
          <path fill="url(#t)" d="M540.54,371.11
					c3.51-1.85,11.42,6.26,17.67,18.11c6.25,11.85,8.47,22.96,4.96,24.81c-3.51,1.85-11.42-6.26-17.67-18.11
					C539.25,384.07,537.03,372.96,540.54,371.11z"></path>
          <path fill="#f38f6f" d="M564.85,408.5c-1.03-3-4.37-4.5-7.3-3.3c-10.23,4.18-23.9,11.04-27.98,13.1
					c-0.69,0.35-1.01,1.15-0.76,1.88l0.85,2.48c0,0,21.92-3.79,31.45-7.08C564.1,414.55,565.87,411.5,564.85,408.5z"></path>
        </g>
        <path fill="#f38f6f" d="M529,421.68L529,421.68c-1.25,0.34-2.02-1.32-0.96-2.06l1.73-1.2l-2.9-0.97
				c-0.67-0.22-0.67-1.17-0.01-1.39l8.95-0.25l2.5,4.14l-3.12,4.85c-1.18,1.21-3.17,1.06-4.16-0.31L529,421.68z"></path>
      </g>
      <linearGradient id="u" x1="450.44" x2="581.747" y1="99.499" y2="99.499" gradientUnits="userSpaceOnUse">
        <stop offset="0" stop-color="#5db285"></stop>
        <stop offset="1" stop-color="#2d846b"></stop>
      </linearGradient>
      <path fill="url(#u)" d="M564.78,96.65
			c4.4,0.37,8.3,2.23,11.29,5.03l5.68-43.93l-42.28-5.47c1.68-2.54,2.76-5.52,3.04-8.77c0.88-10.36-6.81-19.48-17.17-20.36
			c-10.36-0.88-19.48,6.81-20.36,17.17c-0.23,2.66,0.12,5.24,0.92,7.62l-42.28-5.47l-13.03,100.74c-1.24,9.61,5.54,18.4,15.15,19.65
			l100.74,13.03l5.68-43.92c-3.12,1.69-6.75,2.53-10.56,2.21c-10.36-0.88-18.05-9.99-17.17-20.36
			C545.3,103.46,554.42,95.77,564.78,96.65z"></path>
    </g>
  </g>
</svg>
