<svg xmlns="http://www.w3.org/2000/svg" viewBox="0 0 512 512" id="Backup">
  <path d="M160 256h16v16h-16zM192 256h16v16h-16zM224 256h16v16h-16zM160 192h16v16h-16zM192 192h16v16h-16zM224 192h16v16h-16z" fill="#ffffff" class="color000000 svgShape"></path>
  <path d="M384 184a24.028 24.028 0 0 0-24-24H152a24.028 24.028 0 0 0-24 24v32a23.9 23.9 0 0 0 6.131 16A23.9 23.9 0 0 0 128 248v32a23.9 23.9 0 0 0 6.131 16A23.9 23.9 0 0 0 128 312v32a24.028 24.028 0 0 0 24 24h208a24.028 24.028 0 0 0 24-24v-32a23.9 23.9 0 0 0-6.131-16A23.9 23.9 0 0 0 384 280v-32a23.9 23.9 0 0 0-6.131-16A23.9 23.9 0 0 0 384 216Zm-80 160a8.009 8.009 0 0 1-8 8H152a8.009 8.009 0 0 1-8-8v-32a8.009 8.009 0 0 1 8-8h144a8.009 8.009 0 0 1 8 8Zm0-64a8.009 8.009 0 0 1-8 8H152a8.009 8.009 0 0 1-8-8v-32a8.009 8.009 0 0 1 8-8h144a8.009 8.009 0 0 1 8 8Zm0-64a8.009 8.009 0 0 1-8 8H152a8.009 8.009 0 0 1-8-8v-32a8.009 8.009 0 0 1 8-8h144a8.009 8.009 0 0 1 8 8Zm64 128a8.009 8.009 0 0 1-8 8h-41.376a23.889 23.889 0 0 0 1.376-8v-32a23.889 23.889 0 0 0-1.376-8H360a8.009 8.009 0 0 1 8 8Zm0-64a8.009 8.009 0 0 1-8 8h-41.376a23.889 23.889 0 0 0 1.376-8v-32a23.889 23.889 0 0 0-1.376-8H360a8.009 8.009 0 0 1 8 8Zm0-64a8.009 8.009 0 0 1-8 8h-41.376a23.889 23.889 0 0 0 1.376-8v-32a23.889 23.889 0 0 0-1.376-8H360a8.009 8.009 0 0 1 8 8Z" fill="#ffffff" class="color000000 svgShape"></path>
  <path d="M160 320h16v16h-16zM192 320h16v16h-16zM224 320h16v16h-16zM232.848 41.226A219.207 219.207 0 0 1 256 40V24a235.533 235.533 0 0 0-24.848 1.315Z" fill="#ffffff" class="color000000 svgShape"></path>
  <path d="m376.187 57.516 14.968-29.938a8 8 0 0 0-8.372-11.485l-104 16a8 8 0 0 0-5.938 11.485l48 96a8 8 0 0 0 14.31 0L351 107.9A176.769 176.769 0 0 1 432 256c0 97.047-78.953 176-176 176S80 353.047 80 256A176.319 176.319 0 0 1 217.737 84.188l-3.474-15.618A192.319 192.319 0 0 0 64 256c0 105.869 86.131 192 192 192s192-86.131 192-192a191.542 191.542 0 0 0-26.585-97.4 193.61 193.61 0 0 0-67.048-67.449 8 8 0 0 0-13.5 1.222l-.269.53c-.046.092-.091.185-.134.277L328 118.111l-35.937-71.873 77.863-11.978-11.4 22.8a8 8 0 0 0 3.233 10.549 215.976 215.976 0 1 1-144.34-24.174l-2.838-15.747a232 232 0 1 0 161.606 29.828Z" fill="#ffffff" class="color000000 svgShape"></path>
</svg>
