<svg xmlns="http://www.w3.org/2000/svg" viewBox="0 0 1792 1792" id="Cloud">
  <path d="M1194.667 904.8q0-13.067-8.4-21.467L857.733 554.8q-8.4-8.4-21.466-8.4-13.067 0-21.467 8.4L487.2 882.4q-9.333 11.2-9.333 22.4 0 13.067 8.4 21.467 8.4 8.4 21.466 8.4H716.8V1263.2q0 12.133 8.867 21 8.866 8.867 21 8.867h179.2q12.133 0 21-8.867 8.866-8.867 8.866-21V934.667H1164.8q12.133 0 21-8.867t8.867-21zM1792 1173.6q0 148.4-105 253.4t-253.4 105H418.133q-172.666 0-295.4-122.733Q0 1286.533 0 1113.867q0-121.334 65.333-224 65.334-102.667 175.467-154-1.867-28-1.867-40.134 0-197.866 140-337.866 140-140 337.867-140 145.6 0 266.467 81.2 120.866 81.2 175.933 215.6 66.267-57.867 154.933-57.867 98.934 0 168.934 70t70 168.933q0 70.934-38.267 128.8Q1636.133 853.467 1714.067 951 1792 1048.533 1792 1173.6Z" fill="#ffffff" class="color000000 svgShape"></path>
</svg>
