<svg xmlns="http://www.w3.org/2000/svg" enable-background="new 0 0 64 64" viewBox="0 0 64 64" id="CloudSecurity">
  <path d="M52.9,17.4C51,9.5,43.9,3.9,35.7,3.9c-6.6,0-12.5,3.5-15.6,9.3c-0.7-0.2-1.5-0.3-2.2-0.3c-4.8,0-8.7,3.9-8.7,8.7
		c0,0.7,0.1,1.4,0.2,2C4.2,24,0,28.5,0,33.8C0,39.4,4.6,44,10.2,44h6.5v13.5c0,1.4,1.1,2.5,2.5,2.5h24.4c1.4,0,2.5-1.1,2.5-2.5V44
		h4.5C58,44,64,38,64,30.6C64,24.1,59.3,18.5,52.9,17.4z M43.6,58.1H19.2c-0.3,0-0.6-0.3-0.6-0.6V38.8c0-0.3,0.3-0.6,0.6-0.6h24.4
		c0.3,0,0.6,0.3,0.6,0.6V43c0,0,0,0,0,0c0,0,0,0,0,0v14.5C44.1,57.9,43.9,58.1,43.6,58.1z M40.8,36.3h-1.9V31c0-4.1-3.3-7.4-7.4-7.4
		S24.2,27,24.2,31v5.2h-1.9V31c0-5.1,4.2-9.3,9.3-9.3c5.1,0,9.3,4.2,9.3,9.3V36.3z M26.1,31c0-3,2.4-5.4,5.4-5.4S37,28.1,37,31v5.3
		H26.1V31z M50.6,42.1h-4.5v-3.2c0-1.4-1.1-2.5-2.5-2.5h-0.8V31c0-6.2-5-11.2-11.2-11.2s-11.2,5-11.2,11.2v5.3h-1.1
		c-1.4,0-2.5,1.1-2.5,2.5v3.2h-6.5c-4.6,0-8.3-3.7-8.3-8.2c0-4.6,3.7-8.3,8.3-8.3c0.1,0,0.2,0,0.3,0l0.2,0c0.3,0,0.7-0.1,0.8-0.4
		c0.2-0.3,0.2-0.6,0.1-0.9c-0.4-0.8-0.5-1.7-0.5-2.6c0-3.7,3-6.7,6.7-6.7c0.8,0,1.6,0.1,2.4,0.4c0.5,0.2,1,0,1.2-0.5
		c2.6-5.5,8.1-9,14.2-9c7.5,0,14,5.3,15.4,12.6c0.1,0.4,0.4,0.7,0.8,0.8c5.7,0.7,10.1,5.6,10.1,11.4C62.1,36.9,56.9,42.1,50.6,42.1z
		" fill="#ffffff" class="color000000 svgShape"></path>
  <path d="M35.6,45.1c0-2.3-1.9-4.2-4.2-4.2c-2.3,0-4.2,1.9-4.2,4.2c0,1.4,0.7,2.6,1.7,3.4l-0.5,3c0,0.3,0,0.6,0.2,0.8
		c0.2,0.2,0.5,0.3,0.7,0.3h4.2c0.3,0,0.6-0.1,0.7-0.3c0.2-0.2,0.3-0.5,0.2-0.8l-0.5-3.1C35,47.6,35.6,46.4,35.6,45.1z M32.4,47.1
		c-0.4,0.2-0.6,0.6-0.5,1l0.5,2.6h-1.9l0.4-2.5c0.1-0.4-0.1-0.9-0.5-1c-0.8-0.4-1.3-1.2-1.3-2c0-1.2,1-2.2,2.3-2.2
		c1.2,0,2.3,1,2.3,2.2C33.6,45.9,33.2,46.7,32.4,47.1z" fill="#ffffff" class="color000000 svgShape"></path>
  <g fill="#ffffff" class="color000000 svgShape">
    <path d="M52.9,17.4C51,9.5,43.9,3.9,35.7,3.9c-6.6,0-12.5,3.5-15.6,9.3c-0.7-0.2-1.5-0.3-2.2-0.3c-4.8,0-8.7,3.9-8.7,8.7
		c0,0.7,0.1,1.4,0.2,2C4.2,24,0,28.5,0,33.8C0,39.4,4.6,44,10.2,44h6.5v13.5c0,1.4,1.1,2.5,2.5,2.5h24.4c1.4,0,2.5-1.1,2.5-2.5V44
		h4.5C58,44,64,38,64,30.6C64,24.1,59.3,18.5,52.9,17.4z M43.6,58.1H19.2c-0.3,0-0.6-0.3-0.6-0.6V38.8c0-0.3,0.3-0.6,0.6-0.6h24.4
		c0.3,0,0.6,0.3,0.6,0.6V43c0,0,0,0,0,0c0,0,0,0,0,0v14.5C44.1,57.9,43.9,58.1,43.6,58.1z M40.8,36.3h-1.9V31c0-4.1-3.3-7.4-7.4-7.4
		S24.2,27,24.2,31v5.2h-1.9V31c0-5.1,4.2-9.3,9.3-9.3c5.1,0,9.3,4.2,9.3,9.3V36.3z M26.1,31c0-3,2.4-5.4,5.4-5.4S37,28.1,37,31v5.3
		H26.1V31z M50.6,42.1h-4.5v-3.2c0-1.4-1.1-2.5-2.5-2.5h-0.8V31c0-6.2-5-11.2-11.2-11.2s-11.2,5-11.2,11.2v5.3h-1.1
		c-1.4,0-2.5,1.1-2.5,2.5v3.2h-6.5c-4.6,0-8.3-3.7-8.3-8.2c0-4.6,3.7-8.3,8.3-8.3c0.1,0,0.2,0,0.3,0l0.2,0c0.3,0,0.7-0.1,0.8-0.4
		c0.2-0.3,0.2-0.6,0.1-0.9c-0.4-0.8-0.5-1.7-0.5-2.6c0-3.7,3-6.7,6.7-6.7c0.8,0,1.6,0.1,2.4,0.4c0.5,0.2,1,0,1.2-0.5
		c2.6-5.5,8.1-9,14.2-9c7.5,0,14,5.3,15.4,12.6c0.1,0.4,0.4,0.7,0.8,0.8c5.7,0.7,10.1,5.6,10.1,11.4C62.1,36.9,56.9,42.1,50.6,42.1z
		" fill="#ffffff" class="color000000 svgShape"></path>
    <path d="M35.6,45.1c0-2.3-1.9-4.2-4.2-4.2c-2.3,0-4.2,1.9-4.2,4.2c0,1.4,0.7,2.6,1.7,3.4l-0.5,3c0,0.3,0,0.6,0.2,0.8
		c0.2,0.2,0.5,0.3,0.7,0.3h4.2c0.3,0,0.6-0.1,0.7-0.3c0.2-0.2,0.3-0.5,0.2-0.8l-0.5-3.1C35,47.6,35.6,46.4,35.6,45.1z M32.4,47.1
		c-0.4,0.2-0.6,0.6-0.5,1l0.5,2.6h-1.9l0.4-2.5c0.1-0.4-0.1-0.9-0.5-1c-0.8-0.4-1.3-1.2-1.3-2c0-1.2,1-2.2,2.3-2.2
		c1.2,0,2.3,1,2.3,2.2C33.6,45.9,33.2,46.7,32.4,47.1z" fill="#ffffff" class="color000000 svgShape"></path>
  </g>
</svg>
