<svg xmlns="http://www.w3.org/2000/svg" width="32" height="32" fill="none" viewBox="0 0 32 32" id="cloud-migrate">
  <g>
    <g>
      <path fill="#000" fill-rule="evenodd" d="M17 6.99988V7.35564C18.2367 8.07643 19 9.534 19 10.9999C19 13.1321 17.3863 14.9999 15.2308 14.9999H6.00541L6 14.9999C3.23858 14.9999 1 12.7613 1 9.99988C1 7.50293 2.8303 5.43348 5.22246 5.05998C6.03723 2.69351 8.2974 0.999878 10.9495 0.999878C14.2816 0.999878 17 3.67672 17 6.99988ZM6.24079 6.9707C6.53122 6.89845 6.77966 6.69758 6.90787 6.4197C6.94208 6.34585 6.96754 6.26712 6.98293 6.18484C7.36223 4.37311 8.98928 2.99988 10.9495 2.99988C13.196 2.99988 15 4.80019 15 6.99988V7.97661C14.9981 8.05753 15.0061 8.13749 15.0232 8.21492C15.0501 8.33749 15.0994 8.45165 15.1667 8.55286C15.2649 8.70111 15.403 8.82404 15.5715 8.90369C15.6172 8.92536 15.6647 8.94367 15.7138 8.95832C16.3762 9.17301 17 9.99665 17 10.9999C17 12.1813 16.134 12.9999 15.2308 12.9999H6L5.99516 12.9999C4.34053 12.9973 3 11.6551 3 9.99988C3 8.34851 4.33427 7.00877 5.98356 6.99992C6.07151 7.00147 6.15786 6.99133 6.24079 6.9707Z" clip-rule="evenodd"></path>
      <path fill="#000" d="M26 13C26 13.5523 26.4477 14 27 14 27.5523 14 28 13.5523 28 13V11.5C28 10.9477 27.5523 10.5 27 10.5 26.4477 10.5 26 10.9477 26 11.5V13zM26 8.5C26 9.05228 26.4477 9.5 27 9.5 27.5523 9.5 28 9.05228 28 8.5V7C28 5.34315 26.6569 4 25 4H23.5C22.9477 4 22.5 4.44771 22.5 5 22.5 5.55228 22.9477 6 23.5 6H25C25.5523 6 26 6.44772 26 7V8.5zM20.5 6C21.0523 6 21.5 5.55228 21.5 5 21.5 4.44771 21.0523 4 20.5 4H19C18.4477 4 18 4.44771 18 5 18 5.55228 18.4477 6 19 6H20.5zM6 17C6 16.4477 5.55228 16 5 16 4.44772 16 4 16.4477 4 17V18.5C4 19.0523 4.44772 19.5 5 19.5 5.55228 19.5 6 19.0523 6 18.5V17zM6 21.5C6 20.9477 5.55228 20.5 5 20.5 4.44772 20.5 4 20.9477 4 21.5V23C4 24.6569 5.34315 26 7 26H8.5C9.05228 26 9.5 25.5523 9.5 25 9.5 24.4477 9.05228 24 8.5 24H7C6.44772 24 6 23.5523 6 23V21.5zM11.5 24C10.9477 24 10.5 24.4477 10.5 25 10.5 25.5523 10.9477 26 11.5 26H13C13.5523 26 14 25.5523 14 25 14 24.4477 13.5523 24 13 24H11.5z"></path>
      <path fill="#000" fill-rule="evenodd" d="M18 15C16.3431 15 15 16.3431 15 18V24C15 25.6569 16.3431 27 18 27H20.1667L19.3333 29.0001L18 29.0001C17.4477 29.0001 17 29.4478 17 30.0001C17 30.5524 17.4477 31.0001 18 31.0001L19.9915 31.0001C19.9944 31.0001 19.9972 31.0001 20 31.0001H26C26.0049 31.0001 26.0099 31.0001 26.0148 31L28 31C28.5523 31 29 30.5523 29 30C29 29.4477 28.5523 29 28 29L26.6666 29L25.8333 27H28C29.6569 27 31 25.6569 31 24V18C31 16.3431 29.6569 15 28 15H18ZM24.5 29L23.6667 27H22.3333L21.5 29.0001L24.5 29ZM18 25C17.4477 25 17 24.5523 17 24V18C17 17.4477 17.4477 17 18 17H28C28.5523 17 29 17.4477 29 18V24C29 24.5523 28.5523 25 28 25H18Z" clip-rule="evenodd"></path>
    </g>
  </g>
</svg>
