<svg xmlns="http://www.w3.org/2000/svg" xml:space="preserve" id="Cloud" x="0" y="0" version="1.1" viewBox="0 0 24 24" enable-background="new 0 0 24 24">
  <g fill="#000000" class="color000000 svgShape">
    <linearGradient id="SVGID_1_" x1="12" x2="12" y1="17.254" y2="1.883" gradientUnits="userSpaceOnUse">
      <stop offset="0" stop-color="#d1d1d1" class="stopColora4c0ff svgShape"></stop>
      <stop offset="1" stop-color="#ffffff" class="stopColore6efff svgShape"></stop>
    </linearGradient>
    <path d="M19.86,9.47c-0.24,0-0.48,0.03-0.71,0.07c0.05-0.32,0.08-0.64,0.08-0.97c0-3.69-2.99-6.69-6.69-6.69
		c-3.51,0-6.39,2.71-6.66,6.16c-0.31-0.07-0.64-0.1-0.97-0.1c-2.57,0-4.66,2.09-4.66,4.66s2.09,4.66,4.66,4.66h14.95
		c2.15,0,3.89-1.74,3.89-3.89C23.75,11.21,22.01,9.47,19.86,9.47z" fill="url(#SVGID_1_)"></path>
    <linearGradient id="SVGID_00000168107150345292626570000011562203457390700209_" x1="12" x2="12" y1="22.117" y2="9.133" gradientUnits="userSpaceOnUse">
      <stop offset="0" stop-color="#656565" class="stopColor675873 svgShape"></stop>
      <stop offset="1" stop-color="#7c7c7c" class="stopColor827187 svgShape"></stop>
    </linearGradient>
    <path d="M18.49,16.39v-1.52l-1.76-0.35
		c-0.12-0.52-0.33-1.01-0.6-1.45l1-1.49l-1.08-1.08l-1.49,1c-0.44-0.27-0.93-0.48-1.45-0.6l-0.35-1.76h-1.52l-0.35,1.76
		c-0.52,0.12-1.01,0.33-1.45,0.6l-1.49-1l-1.08,1.08l1,1.49c-0.27,0.44-0.48,0.93-0.6,1.45l-1.76,0.35v1.52l1.76,0.35
		c0.12,0.52,0.33,1.01,0.6,1.45l-1,1.49l1.08,1.08l1.49-1c0.44,0.27,0.93,0.48,1.45,0.6l0.35,1.76h1.52l0.35-1.76
		c0.52-0.12,1.01-0.33,1.45-0.6l1.49,1l1.08-1.08l-1-1.49c0.27-0.44,0.48-0.93,0.6-1.45L18.49,16.39z M12,18.26
		c-1.45,0-2.63-1.18-2.63-2.63c0-1.45,1.18-2.63,2.63-2.63c1.45,0,2.63,1.18,2.63,2.63C14.63,17.08,13.45,18.26,12,18.26z" fill="url(#SVGID_00000168107150345292626570000011562203457390700209_)"></path>
  </g>
</svg>
