<svg xmlns="http://www.w3.org/2000/svg" xml:space="preserve" width="512" height="512" id="cloud-computing">
  <g fill-rule="evenodd" clip-rule="evenodd">
    <path fill="#63C6C4" d="M87.747 235.178c6.698-2.007 13.396-3.731 20.094-5.261-7.462-17.318-11.962-37.89-12.44-59.991H62.584c.86 24.877 10.238 47.552 25.163 65.252zm27.748-6.985c8.419-1.625 16.841-2.871 25.164-3.827-2.584-15.977-4.114-34.541-4.305-54.44H103.15c.482 21.719 4.978 41.717 12.345 58.267zm32.913-4.496c7.462-.573 14.83-.86 22.292-.765 6.984 0 13.874.287 20.858.86 2.584-15.69 4.114-34.159 4.305-53.867h-51.856c.191 19.709 1.721 38.082 4.401 53.772zm50.804.765c8.422.956 16.84 2.202 25.163 3.827 7.466-16.55 11.962-36.644 12.44-58.363H203.52c-.095 19.9-1.724 38.559-4.308 54.536zm32.821 5.455c6.79 1.529 13.488 3.253 20.188 5.261 14.925-17.796 24.207-40.471 25.067-65.252h-32.819c-.477 22.197-4.973 42.769-12.436 59.991zm14.447 11.577c-5.933-1.724-11.866-3.158-17.701-4.4a135.796 135.796 0 0 1-5.551 9.757c-5.261 8.23-11.29 15.215-17.892 20.761 15.403-5.45 29.277-14.254 40.566-25.544l.578-.574zm-25.549-6.029a319.219 319.219 0 0 0-23.057-3.444 211.279 211.279 0 0 1-3.158 13.778c-2.775 10.524-6.315 19.037-10.238 25.161 12.345-4.4 23.443-14.445 32.244-28.224a128.325 128.325 0 0 0 4.209-7.271zm-30.806-4.114c-6.411-.478-12.918-.765-19.424-.765-6.985-.095-13.966.191-20.951.669a175.27 175.27 0 0 0 2.868 12.535c4.882 18.37 11.099 29.754 17.318 29.754 6.316 0 12.44-11.384 17.414-29.754a250.117 250.117 0 0 0 2.775-12.439zm-48.033.67c-7.75.765-15.403 1.915-23.153 3.349 1.338 2.584 2.775 4.978 4.305 7.367 8.709 13.778 19.807 23.823 32.244 28.224-4.018-6.124-7.462-14.637-10.333-25.161a165.166 165.166 0 0 1-3.063-13.779zm-30.998 4.977c-5.837 1.338-11.771 2.772-17.605 4.496l.478.574c11.385 11.29 25.163 20.094 40.662 25.448-6.698-5.45-12.723-12.435-17.892-20.666-2.007-3.158-3.826-6.408-5.643-9.852zM94.158 89.937c5.838 1.628 11.672 3.158 17.414 4.403a116.273 116.273 0 0 1 5.165-8.995c5.169-8.228 11.194-15.212 17.892-20.667a107.78 107.78 0 0 0-40.471 25.259zm25.259 6.029c7.654 1.437 15.212 2.584 22.77 3.349.959-4.592 1.915-8.896 2.967-12.918 2.871-10.426 6.315-19.039 10.333-25.163-12.437 4.499-23.535 14.447-32.244 28.226a107.094 107.094 0 0 0-3.826 6.506zm30.523 4.018c6.889.478 13.874.765 20.76.669 6.411 0 12.822-.287 19.233-.765a170.814 170.814 0 0 0-2.584-11.481c-4.974-18.37-11.098-29.755-17.414-29.755-6.22 0-12.437 11.385-17.318 29.755-.956 3.636-1.912 7.463-2.677 11.577zm47.743-.765c7.559-.765 15.212-1.912 22.771-3.349a85.563 85.563 0 0 0-3.731-6.411c-8.801-13.778-19.899-23.727-32.244-28.226 3.923 6.124 7.463 14.737 10.238 25.163 1.051 4.022 2.106 8.327 2.966 12.823zm30.618-4.974a272.493 272.493 0 0 0 17.411-4.308c-11.29-11.194-25.067-19.995-40.375-25.259 6.602 5.456 12.631 12.44 17.892 20.667 1.724 2.871 3.444 5.838 5.072 8.9zm23.346 2.007c-6.7 2.011-13.302 3.636-20 5.168 7.657 17.414 12.345 38.269 12.822 60.852h32.819c-.86-25.163-10.429-48.128-25.641-66.02zm-27.654 6.698c-8.323 1.628-16.646 2.967-24.972 3.827 2.68 16.267 4.404 35.21 4.5 55.495h33.295c-.479-22.101-5.169-42.481-12.823-59.322zm-32.626 4.496c-6.889.577-13.778.864-20.667.864-7.367.095-14.734-.191-22.197-.768-2.68 15.884-4.305 34.637-4.496 54.73h51.856c-.191-20.189-1.816-38.846-4.496-54.826zm-50.517-.573c-8.323-.86-16.649-2.103-24.972-3.827-7.654 16.745-12.246 37.125-12.727 59.227h33.203c.19-20.286 1.815-39.229 4.496-55.4zm-32.626-5.452a265.648 265.648 0 0 1-19.903-5.168c-15.308 17.892-24.781 40.856-25.737 66.02h32.817c.478-22.487 5.168-43.438 12.823-60.852z"></path>
    <path fill="#2D4873" d="M276.811 101.994c45.544 0 82.379 36.835 82.379 82.284 0 6.985-.86 13.683-2.393 20.09a81.4 81.4 0 0 1 18.851-2.198c45.544 0 82.379 36.835 82.379 82.377 0 45.449-36.835 82.38-82.379 82.38H183.523c-45.544 0-82.379-36.931-82.379-82.38 0-45.542 36.835-82.377 82.379-82.377 4.496 0 8.896.382 13.109 1.051-1.437-6.029-2.202-12.437-2.202-18.943 0-45.448 36.93-82.284 82.381-82.284z"></path>
    <path fill="#63C6C4" d="M236.242 344.156v50.9h-30.905v-50.9h-39.515c-1.434 0-2.489-1.055-2.489-2.393 0-.479.096-.86.382-1.243l54.921-92.616c.574-1.15 2.103-1.628 3.253-1.055.478.287.86.577 1.147 1.055l55.015 92.807c.577 1.146.096 2.581-1.146 3.157-.287.191-.67.287-1.052.287h-39.611zM373.541 352.097v-50.9h-30.997v50.9h-39.519c-1.339 0-2.485 1.147-2.485 2.394 0 .478.191.86.382 1.242l54.919 92.617c.669 1.243 2.106 1.721 3.349 1.052.478-.191.86-.573 1.052-1.052l55.017-92.809c.67-1.15.096-2.584-1.051-3.157-.386-.191-.769-.191-1.15-.191v-.096h-39.517z"></path>
  </g>
</svg>
