<svg xmlns="http://www.w3.org/2000/svg" viewBox="0 0 512 512" id="Cost">
  <path d="M298.565 161.369c10.174 0 18.452-8.278 18.452-18.452v-41.024c0-10.174-8.277-18.452-18.452-18.452H68.621c-10.174 0-18.452 8.277-18.452 18.452v41.024c0 10.174 8.277 18.452 18.452 18.452h229.944zM66.169 142.917v-41.024c0-1.329 1.123-2.452 2.452-2.452h229.944c1.329 0 2.452 1.123 2.452 2.452v41.024c0 1.329-1.123 2.452-2.452 2.452H68.621c-1.329 0-2.452-1.123-2.452-2.452zm51.12 52.229H78.224c-10.174 0-18.452 8.277-18.452 18.452v13.588c0 10.174 8.277 18.452 18.452 18.452h39.065c10.174 0 18.452-8.278 18.452-18.452v-13.588c0-10.174-8.278-18.452-18.452-18.452zm2.452 32.04c0 1.329-1.123 2.452-2.452 2.452H78.224c-1.329 0-2.452-1.123-2.452-2.452v-13.588c0-1.329 1.123-2.452 2.452-2.452h39.065c1.329 0 2.452 1.123 2.452 2.452v13.588zm161.852 155.013c.959 7.895-1.166 15.11-6.145 20.867-5.432 6.28-14.214 10.597-24.25 12.089v6.064a8 8 0 0 1-16 0v-6.188c-15.183-2.645-26.892-12.597-30.383-26.602a8 8 0 0 1 15.524-3.871c2.878 11.545 14.674 15.385 23.914 15.162 8.022-.191 15.517-2.986 19.093-7.121 2.029-2.346 2.78-5.038 2.363-8.473-.685-5.636-3.999-12.521-23.72-15.757-27.313-4.486-33.684-18.581-34.219-29.614-.742-15.273 9.876-28.058 26.422-31.81.333-.076.668-.147 1.006-.215v-6.313a8 8 0 0 1 16 0v6.244c11.162 2.106 21.952 8.905 27.477 22.064a8 8 0 0 1-14.752 6.194c-4.85-11.549-16.651-14.538-26.191-12.37-7.043 1.597-14.415 6.489-13.98 15.43.149 3.083.546 11.271 20.831 14.602 8.431 1.385 34.094 5.597 37.01 29.618zm-38.395-124.83c-57.042 0-103.45 46.407-103.45 103.45s46.408 103.45 103.45 103.45c57.043 0 103.451-46.407 103.451-103.45s-46.408-103.45-103.451-103.45zm0 190.901c-48.22 0-87.45-39.229-87.45-87.45s39.23-87.45 87.45-87.45c48.221 0 87.451 39.229 87.451 87.45s-39.231 87.45-87.451 87.45zM512 228.365c0-15.615-12.704-28.319-28.319-28.319H367.187V71.647c0-29.481-23.985-53.466-53.466-53.466H53.466C23.985 18.181 0 42.166 0 71.647v332.374c0 29.481 23.985 53.466 53.466 53.466h98.483c23.834 22.51 55.956 36.333 91.249 36.333 32.041 0 61.471-11.39 84.456-30.332v2.013c0 15.615 12.704 28.319 28.318 28.319h127.709c15.615 0 28.319-12.704 28.319-28.319v-14.917c0-7.963-3.304-15.169-8.612-20.319 5.309-5.15 8.612-12.355 8.612-20.318V395.03c0-7.963-3.304-15.168-8.612-20.318 5.309-5.15 8.612-12.356 8.612-20.319v-14.917c0-7.963-3.304-15.168-8.612-20.318 5.309-5.15 8.612-12.355 8.612-20.318v-14.918c0-7.963-3.304-15.168-8.612-20.318 5.309-5.15 8.612-12.355 8.612-20.318v-14.921zM16 404.021V71.647c0-20.659 16.807-37.466 37.466-37.466h260.255c20.659 0 37.466 16.807 37.466 37.466v128.812c-13.343 2.281-23.533 13.923-23.533 27.907v14.917c0 7.955 3.297 15.154 8.596 20.303-.394.383-.776.78-1.148 1.186a133.604 133.604 0 0 0-34.038-23.689c3.882-3.385 6.351-8.353 6.351-13.896v-13.588c0-10.174-8.277-18.452-18.452-18.452h-39.065c-10.174 0-18.452 8.277-18.452 18.452v13.588c0 .387.013.772.037 1.156-3.399.298-6.762.724-10.084 1.275a18.37 18.37 0 0 0 .179-2.43V213.6c0-10.174-8.277-18.452-18.452-18.452h-39.065c-10.174 0-18.452 8.277-18.452 18.452v13.588c0 10.174 8.278 18.452 18.452 18.452h12.697a134.02 134.02 0 0 0-41.415 37.454c-1.757-8.357-9.183-14.652-18.054-14.652H78.224c-10.174 0-18.452 8.277-18.452 18.452v13.589c0 10.174 8.277 18.451 18.452 18.451h38.739a131.813 131.813 0 0 0-5.389 22.803h-33.35c-10.174 0-18.452 8.277-18.452 18.452v13.588c0 10.175 8.277 18.452 18.452 18.452h35.731c4.412 18.153 12.557 34.859 23.576 49.259H53.466C32.807 441.486 16 424.68 16 404.021zm231.568-176.122a2.38 2.38 0 0 1-.121-.713v-13.588c0-1.329 1.123-2.452 2.452-2.452h39.065c1.329 0 2.452 1.123 2.452 2.452v13.588c0 1.329-1.123 2.452-2.452 2.452H265.13a133.244 133.244 0 0 0-17.562-1.739zm-44.442 1.739h-39.065c-1.329 0-2.452-1.123-2.452-2.452v-13.588c0-1.329 1.123-2.452 2.452-2.452h39.065c1.329 0 2.452 1.123 2.452 2.452v13.588c0 1.329-1.123 2.452-2.452 2.452zm-92.03 146.59H78.224c-1.329 0-2.452-1.123-2.452-2.452v-13.588c0-1.329 1.123-2.452 2.452-2.452h32.014a137.5 137.5 0 0 0-.039 3.084c-.001 5.211.311 10.351.897 15.408zm6.193-73.295H78.224c-1.329 0-2.452-1.122-2.452-2.451v-13.589c0-1.329 1.123-2.452 2.452-2.452h39.065c1.329 0 2.452 1.123 2.452 2.452v13.589c0 1.329-1.123 2.451-2.452 2.451zm125.909 174.886c-64.514 0-117-52.486-117-117s52.486-117 117-117 117 52.486 117 117-52.487 117-117 117zM496 465.5c0 6.793-5.526 12.319-12.319 12.319H355.972c-6.792 0-12.318-5.526-12.318-12.319v-14.917c0-1.087.144-2.156.426-3.191a133.501 133.501 0 0 0 6.11-7.662 12.158 12.158 0 0 1 5.783-1.467v.001h127.709v-.001c6.792 0 12.319 5.526 12.319 12.319V465.5zm0-55.555c0 6.792-5.526 12.318-12.319 12.318l-.019.001H361.124a131.942 131.942 0 0 0 13.261-39.555H483.68c6.792 0 12.319 5.526 12.319 12.318v14.918zm0-55.554c0 6.793-5.526 12.319-12.319 12.319H376.06c.086-1.954.137-3.916.137-5.891 0-11.627-1.504-22.908-4.321-33.664H483.68c6.792 0 12.319 5.526 12.319 12.318v14.918zm0-55.554c0 6.792-5.526 12.318-12.319 12.318H366.57a133.125 133.125 0 0 0-20.49-34.525c2.295-3.077 5.964-5.03 9.892-5.03h127.709c6.792 0 12.319 5.526 12.319 12.318v14.919zm0-55.555c0 6.792-5.526 12.318-12.319 12.318H355.972c-6.792 0-12.318-5.526-12.318-12.318v-14.917c0-6.793 5.526-12.319 12.318-12.319h127.709c6.792 0 12.319 5.526 12.319 12.319v14.917z" fill="#ffffff" class="color000000 svgShape"></path>
</svg>
