<svg xmlns="http://www.w3.org/2000/svg" viewBox="0 0 64 64" id="costeffectiveness">
  <path d="M38,35.5c0-2.48145-2.01855-4.5-4.5-4.5h-3c-3.29489-.08489-3.29681-4.91441.00008-5-.00008,0,6.49992,0,6.49992,0,.55225,0,1-.44775,1-1s-.44775-1-1-1h-4v-1c0-.55225-.44775-1-1-1s-1,.44775-1,1v1c-6.28631-.3253-6.77329,8.70162-.49993,9.00004-.00007-.00004,2.99993-.00004,2.99993-.00004,1.37842,0,2.5,1.12158,2.5,2.5s-1.12158,2.5-2.5,2.5c0,0-6.5,0-6.5,0-1.31.01811-1.31695,1.97938.00005,2-.00005,0,3.99995,0,3.99995,0v1c0,.55225.44775,1,1,1s1-.44775,1-1v-1c2.6456.2272,5.01481-1.80935,5-4.5Z" fill="#ffffff" class="color000000 svgShape"></path>
  <path d="M58,28h-2.33936c-.60303-3.56885-2.0083-6.96045-4.10254-9.90088l1.65869-1.65186c.78174-.78125.78174-2.05322,0-2.83447,0,0-2.82959-2.82959-2.82959-2.82959-.78174-.78174-2.05322-.78125-2.83594.00146,0,0-1.65039,1.65723-1.65039,1.65723-2.94043-2.09424-6.33203-3.49951-9.90088-4.10254,0,0,0-2.33936,0-2.33936,0-1.10303-.89697-2-2-2h-4c-1.10303,0-2,.89697-2,2v2.33936c-3.56885.60303-6.96045,2.0083-9.90088,4.10254l-1.65186-1.65869c-.78174-.78174-2.05371-.78076-2.83447,0l-2.82959,2.82959c-.78174.78125-.78174,2.05322.00146,2.83594l1.65723,1.65039c-2.09424,2.94043-3.49951,6.33203-4.10254,9.90088h-2.33936c-1.10303,0-2,.89697-2,2v4c0,1.10303.89697,2,2,2h2.33936c.60303,3.56885,2.0083,6.96045,4.10254,9.90088l-1.65869,1.65186c-.78174.78125-.78174,2.05322,0,2.83447l2.82959,2.82959c.78174.78174,2.05322.78125,2.83594-.00146l1.65039-1.65723c2.94043,2.09424,6.33203,3.49951,9.90088,4.10254v2.33936c0,1.10303.89697,2,2,2h4c1.10303,0,2-.89697,2-2v-2.66846c.14551-.21436.20898-.48291.15381-.75439-.2105-1.20431-2.17886-.96928-2.15381.22268,0-.00003,0,3.20017,0,3.20017,0,0-4,0-4,0,0,0,0-3.2002,0-3.2002,0-.50195-.37207-.92627-.86963-.9917-3.83105-.50342-7.46875-2.01123-10.52051-4.36035-.39941-.30713-.96436-.27002-1.31836.08691l-2.26465,2.26807s-2.83105-2.83447-2.83105-2.83447l2.26953-2.25977c.35645-.35498.39404-.91992.08691-1.31836-2.34912-3.05176-3.85693-6.68945-4.36035-10.52051-.06543-.49756-.48975-.86963-.9917-.86963,0,0-3.2002,0-3.2002,0v-4h3.2002c.50195,0,.92627-.37207.9917-.86963.50342-3.83105,2.01123-7.46875,4.36035-10.52051.30713-.39844.26953-.96338-.08691-1.31836l-2.26807-2.26465s2.83447-2.83105,2.83447-2.83105l2.25977,2.26953c.354.35596.91895.39355,1.31836.08691,3.05176-2.34912,6.68945-3.85693,10.52051-4.36035.49756-.06543.86963-.48975.86963-.9917v-3.2002h4v3.2002c0,.50195.37207.92627.86963.9917,3.83105.50342,7.46875,2.01123,10.52051,4.36035.39893.30664.96387.26904,1.31836-.08691l2.26465-2.26807,2.83105,2.83447-2.26953,2.25977c-.35645.35498-.39404.91992-.08691,1.31836,2.34912,3.05176,3.85693,6.68945,4.36035,10.52051.06543.49756.48975.86963.9917.86963,0,0,3.2002,0,3.2002,0v4s-3.2002,0-3.2002,0c-.47803,0-.88916.33838-.98145.80762-.28308.89202.70678,1.71804,1.50443,1.19235-.00004.00003,2.67721.00003,2.67721.00003,1.10303,0,2-.89697,2-2v-4c0-1.10303-.89697-2-2-2Z" fill="#ffffff" class="color000000 svgShape"></path>
  <path d="M18.93555 21.07666c-.44336-.32812-1.06982-.23584-1.39893.20752-2.31348 3.11865-3.53662 6.82422-3.53662 10.71582 0 9.92529 8.07471 18 18 18 1.04795-.09835 3.04667.29431 2.99274-1.24212-.28091-1.43921-1.97281-.62549-2.99272-.75794-12.99248.11042-20.68856-15.17356-12.85674-25.52445.32888-.44326.23611-1.06973-.20774-1.39883zM48.75781 34.99268c1.53746.06008 1.13791-1.95075 1.24224-2.99263.12412-14.61691-17.07046-23.27495-28.71598-14.46318-.44374.32885-.53651.95532-.20741 1.39868.32959.44434.95605.53711 1.39893.20752 10.35515-7.83223 25.63414-.13375 25.5243 12.85714.13762 1.02282-.68538 2.71246.75793 2.99247zM49 38c-6.06543 0-11 4.93457-11 11 .60422 14.593 21.39801 14.58875 22.00002-.00008-.00002-6.06535-4.93459-10.99992-11.00002-10.99992zM49 58c-4.9624 0-9-4.0376-9-9 .49468-11.93967 17.50714-11.9362 18.00002.00007-.00002 4.96233-4.03761 8.99993-9.00002 8.99993z" fill="#ffffff" class="color000000 svgShape"></path>
  <path d="M51.29297,46.29297l-3.29297,3.29297-1.29297-1.29297c-.92677-.92055-2.33587.48544-1.41401,1.4141-.00005-.00004,1.99995,1.99996,1.99995,1.99996.39062.39062,1.02344.39062,1.41406,0l4-4c.91916-.92691-.48412-2.33596-1.41406-1.41406Z" fill="#ffffff" class="color000000 svgShape"></path>
</svg>
