<svg xmlns="http://www.w3.org/2000/svg" fill-rule="evenodd" stroke-linejoin="round" stroke-miterlimit="2" clip-rule="evenodd" viewBox="0 0 48 48" id="expertise">
  <path d="M24,3c-2.163,0 -4.08,1.123 -5.102,2.686c-1.827,-0.383 -3.977,0.18 -5.505,1.709c-1.529,1.528 -2.09,3.676 -1.707,5.503c-1.563,1.021 -2.686,2.939 -2.686,5.102c0,2.163 1.122,4.08 2.686,5.102c-0.384,1.826 0.178,3.975 1.707,5.503c0.755,0.755 1.663,1.275 2.607,1.561l0,13.834c0,0.356 0.19,0.686 0.498,0.865c0.308,0.179 0.689,0.179 0.998,0.002l6.504,-3.715l6.504,3.715c0.309,0.177 0.69,0.177 0.998,-0.002c0.308,-0.179 0.498,-0.509 0.498,-0.865l-0,-13.834c0.944,-0.286 1.85,-0.806 2.605,-1.561c1.529,-1.528 2.092,-3.676 1.709,-5.503c1.563,-1.021 2.686,-2.939 2.686,-5.102c-0,-2.163 -1.122,-4.08 -2.686,-5.102c0.384,-1.826 -0.18,-3.975 -1.709,-5.503c-1.528,-1.529 -3.676,-2.092 -5.503,-1.709c-1.021,-1.563 -2.939,-2.686 -5.102,-2.686Zm-0,2c1.666,0 3.14,0.963 3.686,2.264c0.211,0.506 0.793,0.746 1.3,0.539c1.306,-0.535 3.028,-0.174 4.205,1.004c1.178,1.178 1.541,2.901 1.006,4.207c-0.207,0.507 0.033,1.089 0.539,1.3c1.301,0.546 2.264,2.02 2.264,3.686c-0,1.666 -0.963,3.14 -2.264,3.686c-0.506,0.211 -0.746,0.793 -0.539,1.3c0.535,1.306 0.172,3.029 -1.006,4.207c-1.177,1.178 -2.899,1.539 -4.205,1.004c-0.507,-0.207 -1.089,0.033 -1.3,0.539c-0.546,1.301 -2.02,2.264 -3.686,2.264c-1.666,-0 -3.14,-0.963 -3.686,-2.264c-0.211,-0.506 -0.793,-0.746 -1.3,-0.539c-1.306,0.535 -3.03,0.174 -4.207,-1.004c-1.178,-1.178 -1.539,-2.901 -1.004,-4.207c0.207,-0.507 -0.033,-1.089 -0.539,-1.3c-1.301,-0.546 -2.264,-2.02 -2.264,-3.686c-0,-1.666 0.963,-3.14 2.264,-3.686c0.506,-0.211 0.746,-0.793 0.539,-1.3c-0.535,-1.306 -0.174,-3.029 1.004,-4.207c1.177,-1.178 2.901,-1.539 4.207,-1.004c0.507,0.207 1.089,-0.033 1.3,-0.539c0.546,-1.301 2.02,-2.264 3.686,-2.264Zm-0,3c-5.519,0 -10,4.481 -10,10c-0,5.519 4.481,10 10,10c5.519,0 10,-4.481 10,-10c0,-5.519 -4.481,-10 -10,-10Zm0,2c4.415,0 8,3.585 8,8c0,4.415 -3.585,8 -8,8c-4.415,0 -8,-3.585 -8,-8c0,-4.415 3.585,-8 8,-8Zm0,3c-0.366,0 -0.704,0.2 -0.879,0.521l-1.017,1.868l-2.092,0.392c-0.36,0.067 -0.655,0.326 -0.768,0.674c-0.113,0.348 -0.026,0.73 0.225,0.996l1.463,1.545l-0.276,2.111c-0.047,0.363 0.109,0.723 0.405,0.938c0.296,0.215 0.686,0.251 1.017,0.094l1.922,-0.912l1.922,0.912c0.331,0.157 0.721,0.121 1.017,-0.094c0.296,-0.215 0.452,-0.575 0.405,-0.938l-0.276,-2.111l1.463,-1.545c0.251,-0.266 0.338,-0.648 0.225,-0.996c-0.113,-0.348 -0.408,-0.607 -0.768,-0.674l-2.092,-0.392l-1.017,-1.868c-0.175,-0.321 -0.513,-0.521 -0.879,-0.521Zm-0,3.09l0.367,0.674c0.144,0.263 0.401,0.449 0.695,0.504l0.756,0.14l-0.529,0.561c-0.207,0.218 -0.303,0.516 -0.264,0.814l0.098,0.764c-0.001,-0 -0.693,-0.33 -0.693,-0.33c-0.272,-0.129 -0.588,-0.129 -0.86,-0l-0.693,0.33c-0.001,-0 0.098,-0.764 0.098,-0.764c0.039,-0.298 -0.057,-0.596 -0.264,-0.814l-0.529,-0.561l0.755,-0.14c0.295,-0.055 0.552,-0.241 0.696,-0.504l0.367,-0.674Zm-5.102,14.224c0.86,1.317 2.359,2.318 4.102,2.602l-0,6.504l-5,2.857l-0,-11.853c0.305,-0.013 0.606,-0.048 0.898,-0.11Zm10.204,0c0.292,0.062 0.593,0.097 0.898,0.11l-0,11.853l-5,-2.857l-0,-6.504c1.743,-0.284 3.241,-1.284 4.102,-2.602Z" fill="#ffffff" class="color000000 svgShape"></path>
</svg>
