<svg xmlns="http://www.w3.org/2000/svg" viewBox="0 0 64 64" id="MoneyManagement">
  <path fill="#000000" d="M32 31a4.495 4.495 0 0 1 1 8.88V41a1 1 0 0 1-2 0v-1.12a4.502 4.502 0 0 1-3.5-4.38 1 1 0 0 1 2 0A2.5 2.5 0 1 0 32 33a4.495 4.495 0 0 1-1-8.88V23a1 1 0 0 1 2 0v1.12a4.502 4.502 0 0 1 3.5 4.38 1 1 0 0 1-2 0A2.5 2.5 0 1 0 32 31Zm16 1c-.876 21.22-31.12 21.226-32 0a16 16 0 0 1 32 0Zm-2 0c-.766-18.568-27.231-18.573-28 0a14 14 0 0 0 28 0Zm14-4.431v8.862a1 1 0 0 1-.903.995l-5.953.578a21.812 21.812 0 0 1-1.948 4.701l3.801 4.618a1 1 0 0 1-.065 1.343l-6.266 6.266a.999.999 0 0 1-1.343.065l-4.618-3.8a21.812 21.812 0 0 1-4.7 1.947l-.579 5.953a1 1 0 0 1-.995.903H27.57a1 1 0 0 1-.995-.903l-.578-5.953a21.812 21.812 0 0 1-4.701-1.948l-4.618 3.801a.999.999 0 0 1-1.343-.065l-6.266-6.267a1 1 0 0 1-.065-1.342l3.8-4.618a21.812 21.812 0 0 1-1.947-4.7l-5.953-.579A1 1 0 0 1 4 36.431V27.57a1 1 0 0 1 .903-.995l5.953-.578a21.812 21.812 0 0 1 1.948-4.701l-3.801-4.618a1 1 0 0 1 .065-1.343l6.266-6.266a.999.999 0 0 1 1.343-.065l4.618 3.8a21.812 21.812 0 0 1 4.7-1.947l.579-5.953A1 1 0 0 1 27.569 4h8.862a1 1 0 0 1 .995.903l.578 5.953a21.812 21.812 0 0 1 4.701 1.948l4.618-3.801a.999.999 0 0 1 1.343.065l6.266 6.266a1 1 0 0 1 .065 1.343l-3.8 4.618a21.812 21.812 0 0 1 1.947 4.7l5.953.579a1 1 0 0 1 .903.995Zm-2 .908-5.74-.558a.999.999 0 0 1-.874-.754 19.854 19.854 0 0 0-2.26-5.453 1 1 0 0 1 .085-1.151l3.665-4.454-4.983-4.983-4.454 3.665a1 1 0 0 1-1.15.084 19.854 19.854 0 0 0-5.454-2.26.999.999 0 0 1-.754-.873L35.523 6h-7.046l-.558 5.74a.999.999 0 0 1-.754.874c-8.129 2.14-3.59 4.619-11.058-1.49l-4.983 4.983 3.665 4.454a1 1 0 0 1 .084 1.15 19.854 19.854 0 0 0-2.26 5.454.999.999 0 0 1-.873.754L6 28.477v7.046l5.74.558a.999.999 0 0 1 .874.754c2.14 8.13 4.619 3.59-1.49 11.058l4.983 4.983 4.454-3.665a1 1 0 0 1 1.15-.084 19.854 19.854 0 0 0 5.454 2.26.999.999 0 0 1 .754.873l.558 5.74h7.046l.558-5.74a.999.999 0 0 1 .754-.874c8.129-2.14 3.59-4.619 11.058 1.49l4.983-4.983c-6.073-7.441-3.664-2.898-1.49-11.058a.999.999 0 0 1 .874-.754l5.74-.558Z" class="color1237a1 svgShape"></path>
</svg>
