<svg xmlns="http://www.w3.org/2000/svg" viewBox="0 0 68 68" id="Automation">
  <path d="m48.8 34.6 4.3 2.7 4.1-4.1-2.7-4.3c.5-1 1-2 1.3-3.1l4.9-1.1v-5.8l-4.9-1.1c-.3-1-.7-2.1-1.3-3.1l2.7-4.3-4.1-4.1L48.8 9c-1-.5-2-1-3.1-1.3l-1.2-4.9h-5.9l-1.2 4.9c-1.1.3-2.1.7-3.1 1.3L30 6.3l-4.1 4.1 2.7 4.3c-.5 1-1 2-1.3 3.1l-4.9 1.1v5.8l4.9 1.1c.3 1.1.7 2.1 1.3 3.1l-2.7 4.3 4.1 4.1 4.3-2.7c1 .5 2 1 3.1 1.3l1.2 4.9h5.9l1.2-4.9c1.1-.3 2.2-.7 3.1-1.3zm-7.1-5.5c-4.1 0-7.4-3.3-7.4-7.4 0-4.1 3.3-7.4 7.4-7.4 4.1 0 7.4 3.3 7.4 7.4 0 4.1-3.3 7.4-7.4 7.4zm-8.2 16.4 2-3.3-3.3-3.3-3.3 2c-.7-.4-1.4-.7-2.2-.9l-.9-3.7h-4.7l-.7 3.7c-.8.2-1.5.5-2.2.9l-3.3-2-3.3 3.3 2 3.3c-.4.7-.7 1.4-.9 2.2l-3.7.8v4.7l3.7.9c.2.8.5 1.5.9 2.2l-2 3.3 3.3 3.3 3.3-2c.7.4 1.4.7 2.2.9l.9 3.7H26l.9-3.7c.8-.2 1.5-.5 2.2-.9l3.3 2 3.3-3.3-2-3.3c.4-.7.7-1.4.9-2.2l3.7-.9v-4.7l-3.7-.9c-.4-.7-.7-1.4-1.1-2.1zm-9.9 10.8c-3 0-5.4-2.4-5.4-5.4s2.4-5.4 5.4-5.4 5.4 2.4 5.4 5.4-2.4 5.4-5.4 5.4zm40.6-17.2c0-.3-.1-.5-.3-.7s-.5-.3-.7-.3l-4.7.2c-.6 0-1 .5-1 1 0 .6.5 1 1 1l2.3-.1c-4.1 4.3-9.5 7.1-15.4 7.9-.5.1-.9.6-.8 1.1.1.5.5.9 1 .9h.1c6.3-.9 12.1-3.9 16.5-8.5l.1 2.2c0 .5.5 1 1 1 .6 0 1-.5 1-1l-.1-4.7zm-45.5-7.4-1.2 2.1c-.3.5-.1 1.1.4 1.4.2.1.3.1.5.1.3 0 .7-.2.9-.5l2.4-4c.3-.5.1-1.1-.4-1.4l-4-2.4c-.5-.3-1.1-.1-1.4.4-.3.5-.1 1.1.4 1.4l1.8 1.1c-6.3 1.7-11.5 6-14.2 12.1-.2.5 0 1.1.5 1.3.1.1.3.1.4.1.4 0 .7-.2.9-.6 2.3-5.6 7.2-9.6 13-11.1z" fill="#ffffff" class="color000000 svgShape"></path>
</svg>
