<svg xmlns="http://www.w3.org/2000/svg" viewBox="0 0 24 24" id="Performance">
  <path d="M16.5 4h-8A4.505 4.505 0 0 0 4 8.5v8A4.505 4.505 0 0 0 8.5 21h8a4.505 4.505 0 0 0 4.5-4.5v-8A4.505 4.505 0 0 0 16.5 4ZM20 16.5a3.5 3.5 0 0 1-3.5 3.5h-8A3.5 3.5 0 0 1 5 16.5v-8A3.5 3.5 0 0 1 8.5 5h8A3.5 3.5 0 0 1 20 8.5Zm-1-4a.5.5 0 0 1-.5.5h-2.691l-1.862 3.724a.5.5 0 0 1-.906-.027l-2.482-5.791-.585 1.752A.5.5 0 0 1 9.5 13h-3a.5.5 0 0 1 0-1h2.64l.886-2.658a.5.5 0 0 1 .933-.039l2.576 6.01 1.518-3.037A.5.5 0 0 1 15.5 12h3a.5.5 0 0 1 .5.5Z" fill="#ffffff" class="color000000 svgShape"></path>
</svg>
