<svg xmlns="http://www.w3.org/2000/svg" enable-background="new 0 0 68 68" viewBox="0 0 68 68" id="Reliability">
  <path d="M19.4 14.1c.3.5.9.6 1.4.4.5-.3.6-.9.4-1.4l-.5-.9c-.3-.5-.9-.6-1.4-.4-.5.3-.6.9-.4 1.4L19.4 14.1zM12.3 20.6l.9.5c.4.3 1.1.1 1.4-.4.3-.5.1-1.1-.4-1.4l-.9-.5c-.5-.3-1.1-.1-1.4.4C11.6 19.7 11.8 20.3 12.3 20.6zM45.4 28.9c0 .5.4 1 1 1h1c.6 0 1-.5 1-1 0-.6-.4-1-1-1h-1C45.9 27.9 45.4 28.3 45.4 28.9zM12.1 28.9c0-.6-.4-1-1-1h-1.1c-.6 0-1 .4-1 1 0 .5.4 1 1 1h1.1C11.7 29.9 12.1 29.4 12.1 28.9zM39.3 12.1c-.5-.3-1.1-.1-1.4.4l-.5.9c-.3.5-.1 1.1.4 1.4.5.3 1.1.1 1.4-.4l.5-.9C40 13 39.8 12.4 39.3 12.1zM20.8 44.1c-.5-.3-1.1-.1-1.4.4l-.5.9c-.3.5-.1 1.1.4 1.4.4.3 1.1.1 1.4-.4l.5-.9C21.5 45 21.3 44.4 20.8 44.1zM45.3 21.3l.9-.5c.5-.3.6-.9.4-1.4s-.9-.6-1.4-.4l-.9.5c-.5.3-.6.9-.4 1.4C44.2 21.4 44.9 21.5 45.3 21.3zM13.2 37.5L12.3 38c-.5.3-.6.9-.4 1.4.3.5.9.7 1.4.4l.9-.5c.5-.3.6-.9.4-1.4C14.3 37.4 13.7 37.2 13.2 37.5zM29.4 46.1c-.6 0-1 .5-1 1v1.1c0 .5.4 1 1 1 .6 0 1-.5 1-1v-1.1C30.4 46.6 29.9 46.1 29.4 46.1zM29.4 12.2c.6 0 1-.5 1-1v-1.1c0-.5-.4-1-1-1-.6 0-1 .5-1 1v1.1C28.4 11.8 28.8 12.2 29.4 12.2zM37.9 33.5l-5.2-3.4v0c.2-.5.3-.9.3-1.4 0-1.7-1.1-3.2-2.6-3.8v-8.7c0-.5-.4-1-1-1-.6 0-1 .5-1 1v8.5c-2 .3-3.5 2-3.5 4 0 .9.3 1.8.8 2.4l-7.1 7.8c-.3.3-.3.8.1 1.1.3.3.8.3 1.1-.1l7.1-7.8c.6.4 1.4.6 2.1.6 1 0 1.9-.4 2.6-1l5.3 3.4c.5.3 1.1.2 1.4-.3C38.5 34.4 38.3 33.8 37.9 33.5z" fill="#ffffff" class="color000000 svgShape"></path>
  <path d="M63.5,35.7c-2.9-0.2-5.2-1-7-1.8c0.3-1.5,0.4-3.1,0.4-4.7C56.9,14,44.5,1.6,29.4,1.6C14.2,1.6,1.8,14,1.8,29.2c0,15.2,12.4,27.5,27.5,27.5c3.3,0,6.6-0.6,9.6-1.7c0.8,1.8,1.8,3.5,3,4.9c2.4,3,5.3,5.1,8.7,6.3c0.6,0.2,1.3,0.2,1.9,0c3.4-1.2,6.3-3.3,8.7-6.2c3.2-3.9,4.9-9,5-14.4l0-7.1C66.2,37.1,65,35.8,63.5,35.7z M51.2,64.3c-3-1.1-5.7-3-7.8-5.6c-2.7-3.3-4.4-7.9-4.4-13.1c0-0.1,0-7.5,0-7.1c0-0.5,0.4-0.9,0.9-0.9c5.5-0.4,9.3-2.6,11.1-3.9c0.5-0.3,0.8-0.3,1.1-0.1c3.1,2.3,7.2,3.7,11.2,4c0.5,0,0.9,0.4,0.9,0.9l0,7c0,4.9-1.6,9.6-4.5,13.1c-2.2,2.6-4.8,4.5-7.8,5.6C51.6,64.4,51.4,64.4,51.2,64.3z M37,38.5l0,7c0,1.4,0.1,2.9,0.4,4.3c-2.5,1-5.2,1.5-8,1.5c-12.2,0-22.1-9.9-22.1-22.1S17.2,7,29.4,7S51.5,17,51.5,29.2c0,0.8,0,1.6-0.1,2.4c-0.5,0-1,0.2-1.4,0.5c-1.6,1.2-5.1,3.2-10.2,3.6C38.2,35.7,37,37,37,38.5z" fill="#ffffff" class="color000000 svgShape"></path>
  <path d="M52.2,40.6c-4.3-0.4-8.4,3.1-8.4,7.8v0.1c0.1,4.2,3.5,7.7,7.8,7.7c4.3,0,7.8-3.5,7.8-7.8C59.4,44.1,55.9,40.8,52.2,40.6z M54.5,47.6l-3,3c-0.4,0.4-1,0.4-1.4,0c-1.4-1.4-1.4-1.4-1.6-1.7c-0.2-0.4-0.1-0.8,0.2-1.1c0.3-0.3,0.8-0.4,1.1-0.2c0.3,0.1,0.4,0.3,1,0.9c0.1-0.1,2.5-2.5,2.3-2.3c0.4-0.4,1-0.4,1.4,0C54.9,46.6,54.9,47.2,54.5,47.6z" fill="#ffffff" class="color000000 svgShape"></path>
</svg>
