<svg xmlns="http://www.w3.org/2000/svg" viewBox="0 0 64 64" id="scalability">
  <path d="M10 22c.55 0 1-.45 1-1v-8.72c0-.7.57-1.28 1.28-1.28h32.72c.55 0 1-.45 1-1s-.45-1-1-1H12.28c-1.81 0-3.28 1.47-3.28 3.28v8.72c0 .55.45 1 1 1zM54 18c-.55 0-1 .45-1 1v32.72c0 .7-.57 1.28-1.28 1.28h-8.72c-.55 0-1 .45-1 1s.45 1 1 1h8.72c1.81 0 3.28-1.47 3.28-3.28V19c0-.55-.45-1-1-1zM40 38v-10c0-2.21-1.79-4-4-4H6c-2.21 0-4 1.79-4 4v10c0 1.86 1.28 3.41 3 3.86v2.28c-1.72.45-3 2-3 3.86v10c0 2.21 1.79 4 4 4h30c2.21 0 4-1.79 4-4v-10c0-1.86-1.28-3.41-3-3.86v-2.28c1.72-.45 3-2 3-3.86zm-11-6c0-.55.45-1 1-1s1 .45 1 1v2c0 .55-.45 1-1 1s-1-.45-1-1v-2zm-4 0c0-.55.45-1 1-1s1 .45 1 1v2c0 .55-.45 1-1 1s-1-.45-1-1v-2zm-10-1c1.1 0 2 .9 2 2s-.9 2-2 2-2-.9-2-2 .9-2 2-2zm-6 0c1.1 0 2 .9 2 2s-.9 2-2 2-2-.9-2-2 .9-2 2-2zm0 24c-1.1 0-2-.9-2-2s.9-2 2-2 2 .9 2 2-.9 2-2 2zm6 0c-1.1 0-2-.9-2-2s.9-2 2-2 2 .9 2 2-.9 2-2 2zm12-1c0 .55-.45 1-1 1s-1-.45-1-1v-2c0-.55.45-1 1-1s1 .45 1 1v2zm4 0c0 .55-.45 1-1 1s-1-.45-1-1v-2c0-.55.45-1 1-1s1 .45 1 1v2zm4 0c0 .55-.45 1-1 1s-1-.45-1-1v-2c0-.55.45-1 1-1s1 .45 1 1v2zm0-10H7v-2h28v2zm0-10c0 .55-.45 1-1 1s-1-.45-1-1v-2c0-.55.45-1 1-1s1 .45 1 1v2z" fill="#ffffff" class="color000000 svgShape"></path>
  <path d="m61,2h-10c-.4,0-.77.24-.92.62-.15.37-.07.8.22,1.09l2.82,2.82-13.82,13.82c-.39.39-.39,1.02,0,1.41l2.95,2.95c.2.2.45.29.71.29s.51-.1.71-.29l13.82-13.82,2.82,2.82c.29.29.71.37,1.09.22.37-.15.62-.52.62-.92V3c0-.55-.45-1-1-1Z" fill="#ffffff" class="color000000 svgShape"></path>
</svg>
