<svg xmlns="http://www.w3.org/2000/svg" fill-rule="evenodd" clip-rule="evenodd" image-rendering="optimizeQuality" shape-rendering="geometricPrecision" text-rendering="geometricPrecision" viewBox="0 0 1707 1707" id="Reliability">
  <path fill="#000000" d="M853 1723c-1,0 -3,0 -5,0 -498,-134 -669,-513 -724,-808 -60,-318 -1,-608 -1,-611 4,-17 18,-16 28,-16 411,0 686,-263 688,-266 8,-7 20,-7 28,0 10,10 279,266 697,266 9,0 18,7 19,16 1,3 59,293 0,611 -56,295 -226,674 -725,808 -1,0 -3,0 -5,0zm-694 -1395c-10,64 -46,312 5,580 77,411 309,671 689,775 381,-104 613,-364 690,-775 51,-268 15,-516 4,-580 -374,-3 -632,-209 -694,-264 -61,55 -319,261 -694,264z" class="color000002 svgShape"></path>
  <path fill="#000000" d="M853 1568c-2,0 -4,0 -5,-1 -326,-99 -526,-331 -593,-691 -26,-138 -33,-313 -17,-459 1,-9 9,-17 18,-17 209,-20 413,-100 586,-224 7,-5 16,-5 23,0 173,124 377,204 586,224 9,0 17,8 18,17 15,146 9,321 -17,459 -68,360 -267,592 -593,691 -2,1 -4,1 -6,1zm-577 -1130c-13,138 -6,302 18,430 64,342 253,564 559,659 307,-95 495,-317 560,-659 24,-128 31,-292 18,-430 -206,-23 -405,-101 -578,-221 -172,120 -371,198 -577,221z" class="color000002 svgShape"></path>
  <path fill="#000000" d="M853 1568c-11,0 -20,-9 -20,-20l0 -387c0,-26 40,-26 40,0l0 387c0,11 -9,20 -20,20zm0 -969c-11,0 -20,-9 -20,-20l0 -387c0,-26 40,-26 40,0l0 387c0,11 -9,20 -20,20z" class="color000002 svgShape"></path>
  <path fill="#000000" d="M853 1181c-171,0 -311,-139 -311,-311 0,-171 140,-311 311,-311 172,0 311,140 311,311 0,172 -139,311 -311,311zm0 -582c-149,0 -271,122 -271,271 0,150 122,271 271,271 150,0 271,-121 271,-271 0,-149 -121,-271 -271,-271z" class="color000002 svgShape"></path>
  <path fill="#000000" d="M800 1025c-14,0 -28,-5 -38,-15l-97 -98c-51,-51 27,-125 76,-76l59 59 165 -165c50,-49 127,25 77,76l-204 204c-10,10 -23,15 -38,15zm-97 -165c-12,0 -18,15 -10,24l98 97c5,5 14,5 19,0l203 -203c14,-13 -7,-32 -19,-20l-180 180c-7,8 -20,8 -28,0 -12,-12 -71,-78 -83,-78z" class="color000002 svgShape"></path>
</svg>
