<svg xmlns="http://www.w3.org/2000/svg" enable-background="new 0 0 75 75" viewBox="0 0 75 75" id="ShareKnowledge">
  <g fill="#000000" class="color000000 svgShape">
    <path fill="#ffffff" d="M33.1112938,26.6955929c0.3369141,0.2910156,0.5302734,0.7080078,0.5302734,1.1425781
		c0,0.4140625,0.3359375,0.75,0.75,0.75s0.75-0.3359375,0.75-0.75c0-0.8710938-0.3823242-1.7011719-1.0493164-2.2773438
		c-2.7413845-2.3699188-2.7166233-6.680584,0.1381836-9.0214844c3.1981697-2.6239061,8.3228645-1.2520552,9.434082,2.9619141
		c0.5932617,2.2490234-0.0961914,4.5644531-1.7993164,6.0429688c-0.6713867,0.5830078-1.0561523,1.4111328-1.0561523,2.2724609
		v0.0214844c0,0.4140625,0.3359375,0.7392578,0.75,0.7392578s0.75-0.3466797,0.75-0.7607422
		c0-0.4267578,0.1967773-0.8417969,0.5395508-1.1396484c2.1381836-1.8554688,3.0068359-4.7519531,2.2661133-7.5585938
		c-1.3846359-5.2513456-7.7789917-7.0643358-11.8354492-3.7392578C29.6925945,18.31991,29.6780949,23.7300854,33.1112938,26.6955929
		z" class="color030303 svgShape"></path>
    <path fill="#ffffff" d="M36.7084618 17.4680538c-.9926758.21875-2.8369141 1.3251953-2.7143555 3.9462891.0200729.4341965.4048462.7442131.7841797.7138672.4135742-.0195313.7333984-.3701172.7138672-.7841797-.0913086-1.9580078 1.3759766-2.3710938 1.5454102-2.4130859.4008789-.0917969.6533203-.4892578.5644417-.8916016C37.512661 17.635046 37.1132469 17.3811398 36.7084618 17.4680538zM37.2196922 8.4670773v2.8496094c0 .4140625.3359375.75.75.75s.75-.3359375.75-.75V8.4670773c0-.4140625-.3359375-.7500005-.75-.7500005S37.2196922 8.0530148 37.2196922 8.4670773zM44.0868797 12.744421l1.3935547-2.4853516c.2026367-.3613281.0737305-.8183594-.2875977-1.0214844-.3608398-.2041016-.8178711-.0742188-1.0209961.2871094L42.778286 12.010046c-.2026367.3613281-.0737305.8183594.2875977 1.0214844C43.4180527 13.2306471 43.8806725 13.1115017 44.0868797 12.744421zM49.2035789 15.1106319c.3642578-.1962891.5-.6523438.3027344-1.0166016-.1972656-.3632813-.6538086-.5-1.0166016-.3017578l-2.5063477 1.3564453c-.6798363.3663454-.4217644 1.4091797.3574219 1.4091797.1206055 0 .2431641-.0292969.3564453-.0908203L49.2035789 15.1106319zM31.9833641 13.1272335c.5670853 0 .9355927-.6147289.6538086-1.1171875L31.243618 9.5246944c-.2026367-.3613281-.6616211-.4882813-1.0209961-.2871094-.3613281.203125-.4902344.6601563-.2875977 1.0214844l1.3935547 2.4853516C31.4662743 12.9895382 31.7211571 13.1272335 31.9833641 13.1272335zM26.2118797 15.1106319c2.4487877 1.2924156 2.5200195 1.4472656 2.862793 1.4472656.7786694 0 1.0379105-1.0424833.3574219-1.4091797l-2.5063477-1.3564453c-.3632813-.1982422-.8198242-.0615234-1.0166016.3017578C25.7118797 14.4582882 25.8476219 14.9143429 26.2118797 15.1106319zM37.602005 36.0305519c1.0708542-.0262222 1.9979668.1752548 2.7138786-.5224609.5029297-.4892578.7270508-1.2783203.7270508-2.5576172 0-.4140625-.3359375-.75-.75-.75h-4.6459961c-.4140625 0-.75.3359375-.75.75 0 1.2792969.2241211 2.0683594.7270508 2.5576172C36.1802444 36.0494041 36.8697548 36.0487099 37.602005 36.0305519zM35.290493 30.7668819h5.3588867c.4140625 0 .75-.3359375.75-.75s-.3359375-.75-.75-.75H35.290493c-.4140625 0-.75.3359375-.75.75S34.8764305 30.7668819 35.290493 30.7668819zM26.149868 50.4485207c-1.6262074-.0936165-3.2934704-1.3145828-4.5170898-2.1982422l-.5366211-.3857422c-.5602131-.400322-.8545647-.5846939-1.1118164-.7578125-.3427734-.2314453-.8095703-.140625-1.0410156.203125s-.140625.8095703.203125 1.0410156l.4169922.2773438c1.9266338 1.2872276 4.1966 3.3242188 6.722168 3.3242188.7353516 0 1.3935547-.2138672 1.871582-.6113281.5517578-.4609375.9482422-1.2099609 1.0610352-2.0048828.0710526-.5005684-.1394596-.8654022-.184082-1.0566406-.0835018-.353096.0179577-.6540298.2607422-.8857422.3823242-.3623047.4760742-.9267578.2431641-1.4072266.3525391-.2402344.5668945-.6630859.534668-1.1220703l-.0498047-.6347656.9960938-.9033203c.4819336-.4521484.6206055-1.1582031.3447266-1.7558594l-1.8041992-3.9199219c.2615166-.7802582.5328808-1.0674133.2988281-2.8769531-.1479492-1.1513672-.3193359-1.8710938-.8911133-2.8486309-.2099609-.3583984-.6713867-.4775391-1.0258789-.2685547-.3579102.2089844-.4780273.6689434-.269043 1.0263653.4672852.7988281.5761719 1.3330078.6987305 2.2822266.1885681 1.4736252-.0181847 1.561882-.2348633 2.2119141-.1235352.3740234-.0996094.7861328.0620117 1.1210938l1.8037109 3.9257813-.9868164.8945313c-.3427734.3115234-.5292969.7763672-.4970703 1.2685547l.0405273.4082031c-.5951862.3112373-.840147 1.0612068-.4716797 1.6962891-1.0420456 1.2210617-.3653011 2.5095024-.3540039 2.6337891-.059082.4179688-.2749023.8457031-.5361328 1.0634766C26.9677391 50.3782082 26.587368 50.4739113 26.149868 50.4485207z" class="color030303 svgShape"></path>
    <path fill="#ffffff" d="M5.5009432,66.3616104c0.3554688,0,0.6708984-0.2539063,0.7368164-0.6162109
		c0.0084839-0.0452881,0.8442383-4.4509926,4.1811523-10.2408485l8.237792,6.6031494
		c0.6448288,0.5171738,1.5881271,0.4448166,2.1459961-0.1660156l0.9130859-0.9990234
		c0.2792969-0.3056641,0.2578125-0.7802734-0.0478516-1.0595703c-0.3056641-0.2802734-0.7802734-0.2587891-1.0595703,0.0478516
		l-0.9125977,0.9990234c-0.0948334,0.1000061,0.4017544,0.3699532-8.6235342-6.8238525
		c1.1889038-3.5355225,1.2457886-6.8895874,0.1411133-9.9710693c-1.1650743-3.2498398-3.2318835-4.7023735-2.3022461-9.4628906
		c0.480957-2.4589844,1.8027344-4.5087872,3.6269531-5.6240215c1.8774414-1.1474609,4.1118155-1.1835938,6.2338858-1.1152344
		c2.3528767,0.0720787,4.8603401-0.043623,7.0839844,0.6748047c0.3638668,0.1172943,1.1473427,0.4365501,1.1264648,0.8212891
		c-0.015625,0.2685547-0.4155273,0.7949219-1.2587891,1.3154297c-1.7132282,1.0577469-2.9472961,0.9825287-4.046875,2.060545
		c-1.1750278,1.1539841-0.7048988,2.3944969-1.4775391,6.1796875c-0.0478611,0.2761955-0.0758152,0.4393921-0.1044922,0.5410156
		c-0.4879513-0.1774368-1.7698593-1.2650223-3.1381836-1.3359375c-0.9921865-0.046875-1.831542,0.4804688-2.2978506,1.3847656
		c-0.5541992,0.8310547-1.0043945,2.921875,1.2592773,4.8867188c0.5131826,0.4453125,0.6254873,1.1757813,0.2617178,1.6982422
		c-0.5512686,0.7929688-1.20996,1.1943359-1.9575186,1.1943359c-0.4140625,0-0.75,0.3359375-0.75,0.75s0.3359375,0.75,0.75,0.75
		c1.2495117,0,2.3520498-0.6357422,3.1889639-1.8369141c0.8027344-1.1542969,0.5834961-2.7402344-0.5097656-3.6884766
		c-1.7744131-1.5400391-1.0742178-2.7939453-0.9536123-2.9912109c0.2348623-0.4492188,0.5419912-0.6738281,0.9316397-0.6494141
		c0.5660305,0.029644,1.4410477,0.5289764,1.8544922,0.7939453c0.4970703,0.3164063,1.3276367,0.8466797,2.1303711,0.3867188
		c0.4698868-0.2692757,0.6533203-0.687748,0.8046875-1.5839844c1.0478535-5.1356773-0.1191177-5.2431793,2.7207031-6.2617188
		c0.1087475-0.0449982,0.982317-0.2978897,2.1220703-1.0029297c0.706543-0.435545,1.9018555-1.341795,1.9682617-2.5058575
		c0.0681705-1.2110004-1.0005302-1.9563484-2.1625977-2.3339844c-2.0244141-0.6533203-4.1352539-0.6865234-6.1762695-0.7197266
		c-2.8433189-0.0438881-5.7545109-0.2999477-8.385253,1.3085938c-2.1821289,1.3330078-3.7553711,3.7441406-4.3164063,6.616209
		c-1.042448,5.3255081,1.252964,7.1642647,2.3618164,10.2558594c1.0507689,2.9316406,0.9516602,6.0253906-0.3164063,9.4824219
		c-3.7773438,6.3232422-4.6860352,11.151371-4.7226563,11.354496C4.6792431,65.9328461,5.0264864,66.3616104,5.5009432,66.3616104z" class="color030303 svgShape"></path>
    <path fill="#ffffff" d="M26.0356102 62.7463722l.25.3232422c.7910156 1.0156288 1.7749023 2.2793007 1.6533203 3.3798866-.0454102.4111328.2514648.7822266.6630745.8271484.3821068.0527039.7804909-.2326355.8281364-.6630859.1884766-1.7060547-1.0541992-3.3007851-1.9609375-4.4658241-.3676949-.4309959-.2761383-.4802399-1.671875-1.8759766-.7138672-.7138672-1.3881836-1.3876953-1.8164063-2.2236328-.7878151-1.537365-.6996555-3.179821-.0620117-4.2529297.2094727-.3574219.0898438-.8164063-.2670898-1.0263672-.3554688-.2089844-.815918-.0898438-1.0268555.2666016-.904789 1.5532227-.990757 3.7224045.0209961 5.6962891C23.5207767 60.4398842 25.0061283 61.405529 26.0356102 62.7463722zM47.3276024 32.6828957c.2089844-.3574219.0888672-.8173809-.269043-1.0263653-.3554688-.2070313-.8164063-.0888672-1.0258789.2685547-.5722656.9785137-.7431641 1.6982403-.890625 2.8476543-.2586288 1.9847603.1396484 2.3146095.2983398 2.8964844l-1.8046875 3.9013672c-.2758789.5986328-.1367188 1.3037109.3549805 1.7646484l.9985352.9052734-.0629883.6435547c-.0317383.4423828.1816406.8613281.5336914 1.1015625-.2324219.4736328-.1401367 1.0439453.2431641 1.40625.1416016.1347656.2426758.3125.2773438.4863281.0959587.4798012-.2904091.8121147-.1987305 1.4580078.112793.7949219.5097656 1.5449219 1.0615234 2.0048828.4687462.3901443 1.17239.6533852 2.0947266.6054688 2.4686394-.1474953 4.489315-1.9638023 6.9150391-3.5947266.34375-.2314453.4355469-.6972656.2045898-1.0410156s-.6972656-.4345703-1.0405273-.2050781c-.2099419.1414375-.5776291.3780022-1.1123047.7578125-.4627037.257576-2.9225388 2.4621429-5.0537109 2.5849609-.4360352.0273438-.8178711-.0693359-1.0473633-.2597656-.2617188-.2177734-.4775391-.6455078-.5366211-1.0585938.0019531-.0263672.0317383-.1103516.0541992-.1708984.3364105-.9335327.1681747-1.790184-.4067383-2.4667969.3534546-.5956078.1508675-1.3712082-.4726563-1.6972656-.0120773-.1443176.2674637-1.0178185-.456543-1.6767578l-.987793-.9189453 1.7993164-3.890625c.3973732-.8273697-.1408539-1.4706345-.2099609-1.9560547-.0639648-.4462891-.0107422-.9755859.0424805-1.3876953C46.7514305 34.01688 46.8598289 33.4817238 47.3276024 32.6828957z" class="color030303 svgShape"></path>
    <path fill="#ffffff" d="M65.1991882 44.6409035c.7264404-2.0254021 2.2380447-3.9606743 2.5307617-6.3378906.4813309-3.9214211-1.0241699-8.4200001-4.4858437-10.5341778-2.6283989-1.6067562-5.5874214-1.3517799-8.3852539-1.3085938-1.9205666.0312424-5.8805084.1041164-7.4736328 1.3583984-2.26017 1.7796841.1305313 4.0870724 3.03125 5.1337872 3.090374 1.1102791 1.8279991 1.0049248 2.9145508 6.3330078l.0292969.1621094c.0678711.4042969.1816406 1.0800781.7753906 1.4208984.8743668.5023766 1.6923256-.1389961 2.4794922-.5947266 1.1507874-.6313629 1.8907433-.9730339 2.4780273.1328125.0087776.0136719.8486328 1.3222656-.9946289 2.921875-1.0932617.9492188-1.3120117 2.5351563-.5092773 3.6884766.8369141 1.2011719 1.9394531 1.8369141 3.1884766 1.8369141.4140625 0 .75-.3359375.75-.75s-.3359375-.75-.75-.75c-.7470703 0-1.4057617-.4013672-1.9570313-1.1943359-.3642578-.5224609-.2519531-1.2529297.2612305-1.6982422 2.2636719-1.9648438 1.8134766-4.0556641 1.300293-4.8173828-.5078125-.9736328-1.3525391-1.5039063-2.3398438-1.4541016-1.3872414.0721092-2.6617126 1.163208-3.1367188 1.3359375-.0346565-.1228142-.4002609-1.935482-.5751953-3.5634766-.0870132-.958149-.1255836-2.2929573-1.0078125-3.1572266-1.0565147-1.0373898-2.4065018-1.0499725-4.0463867-2.060545-.7708397-.4760818-1.6774521-1.1850166-.9628906-1.7470703 1.4176674-1.1136684 6.6821861-1.026701 7.9145508-1.0644531 2.1264648-.0683594 4.3569336-.0322266 6.2338867 1.1152344 2.9295464 1.790493 4.1923714 5.7114506 3.7788124 9.0712872-.1523438 1.2421875-.7436523 2.4072266-1.3701172 3.640625-.3876953.7636719-.7890625 1.5537109-1.0834999 2.375-1.1582031 3.2304688-1.0551758 6.7568359.3071327 10.4804688.0298462.0808105.0707397.1608276.1144409.2390137-4.0210609 2.7405396-7.3541298 2.4581299-7.4088783 2.4523926-.4121094-.0488281-.7797852.2529297-.824707.6650391-.0449219.4111328.2524414.78125.6640625.8261719.0327148.0039063.2177734.0224609.5297852.0224609 1.1911011 0 4.2401733-.2862549 7.7818031-2.6671753 3.0230713 5.4528809 3.8032837 9.5493813 3.8114624 9.5929604.0664063.3613281.3818359.6152344.7368164.6152344.4682999 0 .8226547-.4235077.7387695-.8837891-.0366211-.203125-.9448242-5.0312538-4.7348633-11.3789101C64.2470398 50.6672707 64.1479187 47.5735207 65.1991882 44.6409035zM49.2026024 60.2727394c-1.3599052 1.3571777-1.3898048 1.5443687-1.671875 1.875-.9067383 1.1650391-2.1494141 2.7597694-1.9609375 4.4658241.0473442.4277115.4436378.7161179.828125.6630859.4116211-.0449219.7084961-.4160156.6630859-.8271484-.121582-1.1005859.8623047-2.3642578 1.6533203-3.3798866.3138771-.3687286.2425575-.4314041 1.5488281-1.7363281.7646484-.7646484 1.5556641-1.5556641 2.0913086-2.6015625 1.0150146-1.9802437.9228973-4.1471863.0205078-5.6962891-.2109375-.3564453-.6699219-.4755859-1.0268555-.2666016-.3569336.2099609-.4765625.6689453-.2670898 1.0263672.6358719 1.0701256.7288589 2.710556-.0615234 4.2529297C50.5912743 58.8840675 49.9164696 59.5578957 49.2026024 60.2727394z" class="color030303 svgShape"></path>
  </g>
</svg>
