<svg xmlns="http://www.w3.org/2000/svg" viewBox="0 0 512 512" id="TimeSaving">
  <path d="M479.293 332.607a38.673 38.673 0 0 0-35.682-4.329l-21.538 8.17a191.978 191.978 0 0 0-.93-194.277l13.2-13.2a24.028 24.028 0 0 0 0-33.942l-17.372-17.373a24.028 24.028 0 0 0-33.942 0l-10.138 10.138A191.276 191.276 0 0 0 296 52.204V40a24.027 24.027 0 0 0-24-24h-32a24.027 24.027 0 0 0-24 24v12.203C129.266 70.657 64 147.845 64 240a190.07 190.07 0 0 0 30.515 103.922C93.72 343.969 16 344 16 344v16h76.118a55.636 55.636 0 0 0 39.598-16.401l11.883-11.883A39.732 39.732 0 0 1 171.882 320H260a20 20 0 0 1 0 40H152v16h45.897l39.463 28.43a39.893 39.893 0 0 0 37.56 4.95l174.367-66.143A22.673 22.673 0 0 1 480 364.44a22.75 22.75 0 0 1-13.108 20.557l-184.57 85.866a104.033 104.033 0 0 1-72.155 5.785L137.108 456H16v16h118.892l70.923 20.045a120.052 120.052 0 0 0 83.255-6.674l184.57-85.866a38.677 38.677 0 0 0 5.653-66.898Zm-84.95-243.636a8.008 8.008 0 0 1 11.313 0l17.373 17.373a8.008 8.008 0 0 1 0 11.312l-10.825 10.825a193.576 193.576 0 0 0-26.995-30.376ZM232 40a8.01 8.01 0 0 1 8-8h32a8.01 8.01 0 0 1 8 8v9.497a193.094 193.094 0 0 0-48 0Zm159.398 308.084-27.682-27.683-11.315 11.315 22.592 22.591-105.746 40.112a23.927 23.927 0 0 1-22.533-2.97L225.27 376H260a36 36 0 0 0 0-72h-88.118a55.636 55.636 0 0 0-39.598 16.401l-11.883 11.883a40.123 40.123 0 0 1-9.652 7.13A173.928 173.928 0 0 1 80.182 248H120v-16H80.19a175.117 175.117 0 0 1 38.514-101.981l29.58 29.58 11.315-11.315-30.307-30.306A175.523 175.523 0 0 1 248 64.19V104h16V64.19a175.523 175.523 0 0 1 118.708 53.788l-28.365 28.365 11.314 11.314 27.639-27.638A175.117 175.117 0 0 1 431.81 232H392v16h39.818a174.101 174.101 0 0 1-35.473 98.208Z" fill="#ffffff" class="color000000 svgShape"></path>
  <path d="M331.074 108.593a17.874 17.874 0 0 0-22.48 5.448l-70.715 96.652-79.189 12.183a17.325 17.325 0 0 0-.021 34.244l91.626 14.36q.734.133 1.478.232l.03.005v-.001a31.905 31.905 0 0 0 33.47-18.814l.01.004 54.135-120.96a17.884 17.884 0 0 0-8.344-23.353ZM161.124 241.31a1.325 1.325 0 0 1 0-2.62l64.943-9.99a31.904 31.904 0 0 0 .08 22.8ZM256 256a16 16 0 1 1 16-16 16.018 16.018 0 0 1-16 16Zm68.814-130.59-42.898 95.852a32.006 32.006 0 0 0-22.388-13.063l61.979-84.71a1.923 1.923 0 0 1 3.307 1.921Z" fill="#ffffff" class="color000000 svgShape"></path>
</svg>
