<svg xmlns="http://www.w3.org/2000/svg" viewBox="0 0 512 512" id="collaboration">
  <path fill="#7986bf" fill-rule="evenodd" d="M193.123,452.438c-1.446,0-2.892-.448-4.145-1.378l-20.148-14.932c-1.783-1.321-2.844-3.403-2.844-5.62s1.06-4.304,2.844-5.625l20.148-14.932c3.085-2.299,7.471-1.649,9.785,1.456,2.314,3.104,1.639,7.49-1.446,9.794l-3.133,2.304h54.804v-25.382c0-3.866,3.133-7.004,6.989-7.004,3.904,0,7.037,3.138,7.037,7.004v32.386c0,3.866-3.133,6.999-7.037,6.999h-61.793l3.133,2.309c3.085,2.304,3.76,6.685,1.446,9.789-1.398,1.855-3.47,2.834-5.639,2.834h0Zm237.387-106.446c-2.217,0-4.29-1.046-5.639-2.829l-14.894-20.138c-2.314-3.109-1.687-7.49,1.446-9.794,3.085-2.304,7.471-1.648,9.785,1.456l2.314,3.114v-54.804h-25.402c-3.856,0-6.989-3.133-6.989-7.004s3.133-6.999,6.989-6.999h32.391c3.856,0,6.989,3.133,6.989,6.999v61.807l2.314-3.114c2.314-3.104,6.7-3.76,9.785-1.456,3.133,2.304,3.759,6.685,1.446,9.794l-14.894,20.138c-1.35,1.783-3.422,2.829-5.639,2.829h0ZM255.976,120.867c-3.856,0-6.989-3.133-6.989-6.999v-32.386c0-3.866,3.133-6.999,6.989-6.999h61.841l-3.133-2.309c-3.085-2.304-3.76-6.685-1.446-9.794,2.314-3.104,6.7-3.755,9.785-1.451l20.148,14.927c1.784,1.326,2.844,3.408,2.844,5.625s-1.06,4.304-2.844,5.625l-20.148,14.927c-3.085,2.304-7.471,1.653-9.785-1.451-2.314-3.104-1.639-7.49,1.446-9.794l3.133-2.309h-54.804v25.387c0,3.866-3.133,6.999-7.037,6.999h0ZM113.881,262.996h-32.391c-3.856,0-6.989-3.133-6.989-7.004v-61.803l-2.314,3.114c-2.314,3.104-6.7,3.755-9.785,1.456-3.133-2.304-3.76-6.685-1.446-9.794l14.894-20.138c1.35-1.783,3.422-2.834,5.639-2.834s4.29,1.051,5.591,2.834l14.942,20.138c2.314,3.109,1.639,7.49-1.446,9.794-3.085,2.299-7.471,1.649-9.785-1.456l-2.314-3.114v54.804h25.402c3.856,0,6.989,3.133,6.989,6.999s-3.133,7.004-6.989,7.004Z"></path>
  <circle cx="256" cy="255.995" r="82.583" fill="#ff6b72"></circle>
  <circle cx="256" cy="255.995" r="48.804" fill="#f3f3ff"></circle>
  <path fill="#fb545c" fill-rule="evenodd" d="M256,269.768c7.586,0,13.773-6.187,13.773-13.773s-6.187-13.773-13.773-13.773-13.773,6.187-13.773,13.773,6.187,13.773,13.773,13.773Z"></path>
  <path fill="#e8333c" fill-rule="evenodd" d="M249,300.494c0-3.866,3.134-7,7-7s7,3.134,7,7v55.548c0,3.866-3.134,7-7,7s-7-3.134-7-7v-55.548h0Zm51.499-37.499c-3.866,0-7-3.134-7-7s3.134-7,7-7h55.548c3.866,0,7,3.134,7,7s-3.134,7-7,7h-55.548Zm-37.499-51.499c0,3.866-3.134,7-7,7s-7-3.134-7-7v-55.548c0-3.866,3.134-7,7-7s7,3.134,7,7v55.548h0Zm-51.499,37.499c3.866,0,7,3.134,7,7s-3.134,7-7,7h-55.548c-3.866,0-7-3.134-7-7s3.134-7,7-7h55.548Z"></path>
  <path fill="#f2671f" fill-rule="evenodd" d="M81.489,436.644c36.93,0,67.249,28.278,70.5,64.361H10.989c3.251-36.083,33.571-64.361,70.5-64.361Z"></path>
  <path fill="#ff8748" fill-rule="evenodd" d="M132.351,501.005H10.989c3.055-33.909,30.016-60.923,63.902-64.056,30.256,5.799,53.787,31.735,57.461,64.056Z"></path>
  <circle cx="81.489" cy="402.7" r="33.716" fill="#fdb0a0" transform="rotate(-2.597 81.49 402.724)"></circle>
  <path fill="#ffcec0" fill-rule="evenodd" d="M74.663,435.725c-15.349-3.156-26.89-16.742-26.89-33.024s11.541-29.869,26.89-33.024c15.349,3.156,26.891,16.742,26.891,33.024s-11.542,29.868-26.891,33.024Z"></path>
  <path fill="#8bbd00" fill-rule="evenodd" d="M430.511,436.644c36.93,0,67.249,28.278,70.5,64.361h-141c3.251-36.083,33.57-64.361,70.5-64.361Z"></path>
  <path fill="#a8e304" fill-rule="evenodd" d="M481.373,501.005h-121.362c3.055-33.909,30.016-60.923,63.902-64.056,30.256,5.799,53.787,31.735,57.461,64.056Z"></path>
  <path fill="#fdb0a0" fill-rule="evenodd" d="M430.511,436.416c18.57,0,33.715-15.146,33.715-33.716s-15.146-33.716-33.715-33.716-33.716,15.146-33.716,33.716,15.146,33.716,33.716,33.716Z"></path>
  <path fill="#ffcec0" fill-rule="evenodd" d="M423.686,435.725c-15.349-3.156-26.89-16.742-26.89-33.024s11.542-29.869,26.89-33.024c15.349,3.156,26.891,16.742,26.891,33.024s-11.542,29.868-26.891,33.024Z"></path>
  <path fill="#2a92fa" fill-rule="evenodd" d="M430.511,78.654c36.93,0,67.249,28.278,70.5,64.361h-141c3.251-36.083,33.57-64.361,70.5-64.361Z"></path>
  <path fill="#4eb1fc" fill-rule="evenodd" d="M481.373,143.015h-121.362c3.055-33.909,30.016-60.923,63.902-64.056,30.256,5.799,53.787,31.735,57.461,64.056Z"></path>
  <path fill="#fdb0a0" fill-rule="evenodd" d="M430.511,78.426c18.57,0,33.715-15.146,33.715-33.715s-15.146-33.716-33.715-33.716-33.716,15.145-33.716,33.716,15.146,33.715,33.716,33.715Z"></path>
  <path fill="#ffcec0" fill-rule="evenodd" d="M423.686,77.734c-15.349-3.156-26.89-16.742-26.89-33.024s11.542-29.869,26.89-33.025c15.349,3.156,26.891,16.742,26.891,33.025s-11.542,29.868-26.891,33.024Z"></path>
  <path fill="#f9ac00" fill-rule="evenodd" d="M81.489,78.654c36.93,0,67.249,28.278,70.5,64.361H10.989c3.251-36.083,33.571-64.361,70.5-64.361Z"></path>
  <path fill="#fdc72e" fill-rule="evenodd" d="M132.351,143.015H10.989c3.055-33.909,30.016-60.923,63.902-64.056,30.256,5.799,53.787,31.735,57.461,64.056Z"></path>
  <circle cx="81.489" cy="44.71" r="33.716" fill="#fdb0a0" transform="rotate(-2.382 81.478 44.714)"></circle>
  <path fill="#ffcec0" fill-rule="evenodd" d="M74.663,77.734c-15.349-3.156-26.89-16.742-26.89-33.024s11.541-29.869,26.89-33.025c15.349,3.156,26.891,16.742,26.891,33.025s-11.542,29.868-26.891,33.024Z"></path>
</svg>
