<svg xmlns="http://www.w3.org/2000/svg" viewBox="0 0 512 512" id="customer-satisfaction">
  <path fill="#7986bf" fill-rule="evenodd" d="M171.036,227.082v-17.898l21.617-4.263,9.493-22.885-12.28-18.311,25.312-25.312,18.311,12.28,22.886-9.493,4.262-21.617h35.797l4.262,21.617,22.885,9.493,18.311-12.28,25.313,25.312-12.28,18.311,9.493,22.885,21.617,4.263v17.898h-46.714c0-33.571-27.215-60.785-60.786-60.785s-60.785,27.215-60.785,60.785h-46.714Z"></path>
  <path fill="#909cd1" fill-rule="evenodd" d="M375.587,209.184l-21.617-4.263-9.493-22.885,12.28-18.311-21.118-21.118-16.051,10.763-29.341-12.171-4.262-21.617h-25.347l-4.262,21.617-29.342,12.171-16.05-10.763-21.118,21.118,12.28,18.311-9.493,22.885-21.617,4.263v17.898h46.714c0-33.571,27.215-60.785,60.785-60.785s60.786,27.215,60.786,60.785h36.265v-17.898Z"></path>
  <path fill="#7986bf" fill-rule="evenodd" d="M210.103,227.082h7.648c0-32.286,25.172-58.689,56.961-60.662-1.265-.079-2.539-.123-3.824-.123-33.571,0-60.785,27.215-60.785,60.785Z"></path>
  <path fill="#2a92fa" fill-rule="evenodd" d="M278.544,256.691c34.31,0,62.48,26.273,65.5,59.797H213.044c3.02-33.524,31.19-59.797,65.5-59.797Z"></path>
  <path fill="#4eb1fc" fill-rule="evenodd" d="M325.799,316.488h-112.755c2.838-31.504,27.887-56.603,59.37-59.513,28.11,5.388,49.972,29.484,53.386,59.513Z"></path>
  <circle cx="278.544" cy="225.155" r="31.324" fill="#fdb0a0" transform="rotate(-13.283 278.531 225.15)"></circle>
  <path fill="#ffcec0" fill-rule="evenodd" d="M272.202,255.837c-14.26-2.932-24.983-15.555-24.983-30.682s10.723-27.751,24.983-30.683c14.26,2.932,24.984,15.555,24.984,30.683s-10.724,27.75-24.984,30.682Z"></path>
  <polygon fill="#fcdb35" fill-rule="evenodd" points="278.536 11.05 290.837 37.231 319.536 40.839 298.439 60.627 303.876 89.037 278.536 75.086 253.197 89.037 258.635 60.627 237.536 40.839 266.237 37.231 278.536 11.05"></polygon>
  <polygon fill="#ffeb87" fill-rule="evenodd" points="297.032 85.269 278.536 75.086 274.684 72.965 254.105 84.295 258.635 60.627 237.536 40.839 266.237 37.231 275.585 17.333 284.563 36.442 313.263 40.05 292.165 59.838 297.032 85.269"></polygon>
  <polygon fill="#fcdb35" fill-rule="evenodd" points="127.144 73.765 154.354 83.58 177.199 65.837 176.273 94.748 200.207 110.992 172.425 119.045 164.371 146.828 148.127 122.894 119.216 123.82 136.959 100.975 127.144 73.765"></polygon>
  <polygon fill="#ffeb87" fill-rule="evenodd" points="192.703 113.167 172.424 119.045 168.2 120.27 161.66 142.833 148.127 122.894 119.216 123.82 136.959 100.975 129.499 80.295 149.36 87.459 172.205 69.716 171.279 98.627 192.703 113.167"></polygon>
  <polygon fill="#fcdb35" fill-rule="evenodd" points="64.44 225.162 90.62 212.862 94.228 184.162 114.016 205.26 142.426 199.822 128.476 225.162 142.426 250.501 114.016 245.063 94.228 266.162 90.62 237.462 64.44 225.162"></polygon>
  <polygon fill="#ffeb87" fill-rule="evenodd" points="138.658 206.666 128.476 225.162 126.355 229.015 137.684 249.594 114.016 245.063 94.228 266.162 90.62 237.462 70.722 228.113 89.832 219.135 93.439 190.435 113.227 211.533 138.658 206.666"></polygon>
  <polygon fill="#fcdb35" fill-rule="evenodd" points="429.933 73.755 420.118 100.965 437.861 123.81 408.95 122.883 392.706 146.817 384.653 119.035 356.87 110.982 380.805 94.738 379.878 65.827 402.723 83.57 429.933 73.755"></polygon>
  <polygon fill="#ffeb87" fill-rule="evenodd" points="390.531 139.313 384.653 119.035 383.428 114.811 360.866 108.271 380.805 94.738 379.878 65.827 402.723 83.57 423.403 76.11 416.239 95.971 433.982 118.816 405.071 117.89 390.531 139.313"></polygon>
  <polygon fill="#fcdb35" fill-rule="evenodd" points="492.648 225.147 466.467 237.447 462.859 266.147 443.071 245.049 414.661 250.486 428.612 225.147 414.661 199.808 443.071 205.245 462.859 184.147 466.467 212.847 492.648 225.147"></polygon>
  <polygon fill="#ffeb87" fill-rule="evenodd" points="418.429 243.642 428.612 225.147 430.733 221.294 419.403 200.715 443.071 205.245 462.859 184.147 466.467 212.847 486.365 222.195 467.256 231.173 463.648 259.873 443.86 238.775 418.429 243.642"></polygon>
  <path fill="#fdb0a0" fill-rule="evenodd" d="M307.374,385.685c7.654-12.878-2.042-29.191-17.011-28.626-123.019,0-123.237-100.03-238.309,47.959l60.895,63.84c27.123-27.353,59.365-28.616,94.928-26.488,19.398,1.16,42.547,3.961,63.786,3.492,29.676-.656,47.863-8.711,73.922-22.515,29.668-15.716,81.232-47.017,90.227-58.842,12.873-16.925-3.747-32.864-23.383-21.528-23.094,13.333-84.241,42.496-115.743,51.282,4.767-2.067,8.491-4.876,10.688-8.574Z"></path>
  <path fill="#ffcec0" fill-rule="evenodd" d="M307.374,385.685c7.654-12.878-2.042-29.191-17.011-28.626-123.019,0-123.237-100.03-238.309,47.959l47.005,49.278c28.419-28.027,62.111-29.317,99.237-27.095,20.449,1.223,44.853,4.176,67.243,3.681,31.284-.691,50.457-9.183,77.929-23.735,30.967-16.404,84.556-48.913,94.816-61.653-4.257-6.531-14.555-9.041-25.855-2.517-23.094,13.333-84.241,42.496-115.743,51.282,4.767-2.067,8.491-4.876,10.688-8.574Z"></path>
  <path fill="#fdb0a0" fill-rule="evenodd" d="M307.374,385.685c5.97-10.046,1.383-22.181-8.029-26.765,6.812,7.462,2.243,18.054-8.442,21.941-5.913,2.151-13.882,3.168-22.541,3.38-22.617,.553-48.639-4.753-58.928-10.108-3.627-1.886-8.097-.474-9.983,3.154s-.474,8.097,3.154,9.983c11.89,6.188,41.162,12.338,66.104,11.728,10.302-.252,20.046-1.682,27.976-4.738,4.767-2.067,8.491-4.876,10.688-8.574Z"></path>
  <path fill="#2a93fc" fill-rule="evenodd" d="M19.352,413.801l28.192-28.192c5.534-5.534,14.591-5.534,20.125,0l67.024,67.023c5.534,5.534,5.534,14.59,0,20.125l-28.192,28.193L19.352,413.801Z"></path>
  <path fill="#4eb1fc" fill-rule="evenodd" d="M19.352,413.801l28.192-28.192c5.532-5.532,14.582-5.534,20.117-.007l.007,.007,52.783,52.783c5.534,5.534,5.534,14.59,0,20.125l-28.192,28.192L19.352,413.801Z"></path>
</svg>
