<svg xmlns="http://www.w3.org/2000/svg" viewBox="0 0 512 512" id="ethics">
  <path fill="#ffcec0" fill-rule="evenodd" d="M53.996 178.947l50.436-104.828c1.424-2.977 4.992-4.236 7.969-2.813 1.282.613 2.245 1.623 2.812 2.813h0l50.436 104.828h-13.262l-42.564-88.468-42.564 88.468h-13.262zM346.351 178.947l50.436-104.828c1.424-2.977 4.992-4.236 7.969-2.813 1.282.613 2.245 1.623 2.812 2.813h0l50.436 104.828h-13.262l-42.564-88.468-42.565 88.468h-13.262z"></path>
  <path fill="#a34f41" fill-rule="evenodd" d="M264.794,69.92l8.766,139.061c.184,2.925,.267,5.726,.245,8.474h-35.609c-.022-2.749,.06-5.549,.245-8.474l8.766-139.061h17.588Z"></path>
  <path fill="#873f30" fill-rule="evenodd" d="M264.794,69.92l8.766,139.061c.184,2.925,.267,5.726,.245,8.474h-17.804V69.92h8.794Z"></path>
  <path fill="#a34f41" fill-rule="evenodd" d="M256,11.024c6.684,0,12.152,5.469,12.152,12.153v46.744h-24.305V23.177c0-6.684,5.468-12.153,12.153-12.153Z"></path>
  <path fill="#873f30" fill-rule="evenodd" d="M256,11.024c6.684,0,12.152,5.469,12.152,12.153v46.744h-12.152V11.024Z"></path>
  <path fill="#ffcec0" fill-rule="evenodd" d="M256,80.365c56.977-39.808,82.245,5.343,146.178-14.227v-14.439c-48.752,19.347-90.509-35.972-146.178,.748-55.669-36.721-97.425,18.599-146.178-.748v14.439c63.933,19.57,89.201-25.581,146.178,14.227Z"></path>
  <path fill="#873f30" fill-rule="evenodd" d="M459.046,176.233c0,31.407-25.461,56.868-56.868,56.868s-56.868-25.461-56.868-56.868h113.736Z"></path>
  <path fill="#a34f41" fill-rule="evenodd" d="M392.277,232.24c-26.688-4.685-46.968-27.977-46.968-56.007h93.936c0,28.03-20.281,51.322-46.968,56.007Z"></path>
  <path fill="#873f30" fill-rule="evenodd" d="M166.69,176.233c0,31.407-25.461,56.868-56.868,56.868s-56.868-25.461-56.868-56.868h113.736Z"></path>
  <circle cx="256" cy="60.974" r="23.03" fill="#2a92fa" transform="rotate(-13.283 255.991 60.974)"></circle>
  <path fill="#4eb1fc" fill-rule="evenodd" d="M249.85,83.173c-9.733-2.691-16.88-11.61-16.88-22.199s7.147-19.508,16.88-22.199c9.733,2.691,16.88,11.61,16.88,22.199s-7.147,19.508-16.88,22.199Z"></path>
  <path fill="#7986bf" fill-rule="evenodd" d="M108.5,353.476v24.558l29.661,5.849,13.025,31.401-16.849,25.125,34.73,34.731,25.125-16.849,31.401,13.026,5.849,29.66h49.116l5.849-29.66,31.4-13.026,25.125,16.849,34.731-34.731-16.849-25.125,13.025-31.401,29.66-5.849v-24.558h-64.096c0,46.062-37.341,83.403-83.404,83.403s-83.403-37.341-83.403-83.403H108.5Z"></path>
  <path fill="#909cd1" fill-rule="evenodd" d="M389.162,378.034l-29.66,5.849-13.025,31.401,16.85,25.125-28.975,28.975-22.023-14.768-40.258,16.7-5.848,29.66h-34.779l-5.849-29.66-40.26-16.7-22.022,14.768-28.975-28.975,16.849-25.125-13.025-31.401-29.661-5.849v-24.558h64.096c0,46.062,37.341,83.403,83.403,83.403s83.404-37.341,83.404-83.403h49.758v24.558Z"></path>
  <path fill="#7986bf" fill-rule="evenodd" d="M162.103,353.476h10.494c0,44.299,34.539,80.526,78.156,83.234-1.736,.108-3.484,.169-5.247,.169-46.062,0-83.403-37.341-83.403-83.403Z"></path>
  <path fill="#2a92fa" fill-rule="evenodd" d="M256.873,256.25c43.739,0,79.65,33.493,83.5,76.23H173.373c3.85-42.737,39.761-76.23,83.5-76.23Z"></path>
  <path fill="#4eb1fc" fill-rule="evenodd" d="M317.114,332.48H173.373c3.618-40.162,35.55-72.157,75.685-75.867,35.835,6.868,63.706,37.587,68.056,75.867Z"></path>
  <circle cx="256.873" cy="216.048" r="39.933" fill="#fdb0a0" transform="rotate(-67.5 256.873 216.047)"></circle>
  <path fill="#ffcec0" fill-rule="evenodd" d="M248.789,255.161c-18.179-3.738-31.848-19.829-31.848-39.114s13.67-35.376,31.848-39.114c18.179,3.738,31.85,19.829,31.85,39.114s-13.671,35.376-31.85,39.114Z"></path>
  <circle cx="402.177" cy="60.974" r="15.723" fill="#4eb1fc"></circle>
  <circle cx="109.823" cy="60.974" r="15.723" fill="#4eb1fc" transform="rotate(-85.935 109.823 60.974)"></circle>
  <path fill="#a34f41" fill-rule="evenodd" d="M99.922,232.24c-26.688-4.685-46.968-27.977-46.968-56.007h93.936c0,28.03-20.28,51.322-46.968,56.007Z"></path>
</svg>
