<svg xmlns="http://www.w3.org/2000/svg" enable-background="new 0 0 66 66" viewBox="0 0 66 66" id="knowledge">
  <rect width="9.5" height="38.1" x="14.7" y="21.7" fill="#81D6F7"></rect>
  <rect width="9.5" height="3.7" x="14.7" y="28.9" fill="#E8EFF7"></rect>
  <rect width="9.5" height="3.7" x="14.7" y="28.9" fill="none" stroke="#3F456B" stroke-linecap="round" stroke-linejoin="round" stroke-miterlimit="10" stroke-width="1.5"></rect>
  <rect width="9.5" height="38.1" x="14.7" y="21.7" fill="none" stroke="#3F456B" stroke-linecap="round" stroke-linejoin="round" stroke-miterlimit="10" stroke-width="1.5"></rect>
  <circle cx="19.4" cy="52.6" r="1.7" fill="#E8EFF7"></circle>
  <circle cx="19.4" cy="52.6" r="1.7" fill="none" stroke="#3F456B" stroke-linecap="round" stroke-linejoin="round" stroke-miterlimit="10" stroke-width="1.5"></circle>
  <g>
    <rect width="9.5" height="38.1" x="24.2" y="21.7" fill="#F5B78E"></rect>
    <rect width="9.5" height="38.1" x="24.2" y="21.7" fill="none" stroke="#3F456B" stroke-linecap="round" stroke-linejoin="round" stroke-miterlimit="10" stroke-width="1.5"></rect>
    <circle cx="28.9" cy="52.6" r="1.7" fill="#E8EFF7"></circle>
    <circle cx="28.9" cy="52.6" r="1.7" fill="none" stroke="#3F456B" stroke-linecap="round" stroke-linejoin="round" stroke-miterlimit="10" stroke-width="1.5"></circle>
    <line x1="27.6" x2="30.3" y1="28.6" y2="28.6" fill="none" stroke="#3F456B" stroke-linecap="round" stroke-linejoin="round" stroke-miterlimit="10" stroke-width="1.5"></line>
    <line x1="27.6" x2="30.3" y1="31.5" y2="31.5" fill="none" stroke="#3F456B" stroke-linecap="round" stroke-linejoin="round" stroke-miterlimit="10" stroke-width="1.5"></line>
    <line x1="27.6" x2="30.3" y1="34.4" y2="34.4" fill="none" stroke="#3F456B" stroke-linecap="round" stroke-linejoin="round" stroke-miterlimit="10" stroke-width="1.5"></line>
    <line x1="27.6" x2="30.3" y1="37.3" y2="37.3" fill="none" stroke="#3F456B" stroke-linecap="round" stroke-linejoin="round" stroke-miterlimit="10" stroke-width="1.5"></line>
    <line x1="27.6" x2="30.3" y1="40.2" y2="40.2" fill="none" stroke="#3F456B" stroke-linecap="round" stroke-linejoin="round" stroke-miterlimit="10" stroke-width="1.5"></line>
  </g>
  <g>
    <rect width="8.5" height="34" x="33.7" y="25.8" fill="#EF726C"></rect>
    <rect width="8.5" height="3" x="33.7" y="49.7" fill="#E8EFF7"></rect>
    <rect width="8.5" height="3" x="33.7" y="49.7" fill="none" stroke="#3F456B" stroke-linecap="round" stroke-linejoin="round" stroke-miterlimit="10" stroke-width="1.5"></rect>
    <rect width="8.5" height="3" x="33.7" y="43.5" fill="#E8EFF7"></rect>
    <rect width="8.5" height="3" x="33.7" y="43.5" fill="none" stroke="#3F456B" stroke-linecap="round" stroke-linejoin="round" stroke-miterlimit="10" stroke-width="1.5"></rect>
    <rect width="8.5" height="34" x="33.7" y="25.8" fill="none" stroke="#3F456B" stroke-linecap="round" stroke-linejoin="round" stroke-miterlimit="10" stroke-width="1.5"></rect>
    <circle cx="37.9" cy="31.3" r="1.5" fill="#E8EFF7"></circle>
    <circle cx="37.9" cy="31.3" r="1.5" fill="none" stroke="#3F456B" stroke-linecap="round" stroke-linejoin="round" stroke-miterlimit="10" stroke-width="1.5"></circle>
  </g>
  <g>
    <polygon fill="#FEBC5B" points="11 59.8 4 58.8 7.6 30.7 14.7 31.6"></polygon>
    <polygon fill="#E8EFF7" points="11.7 54.4 14 37 6.9 36 4.7 53.5"></polygon>
    <polygon fill="none" stroke="#3F456B" stroke-linecap="round" stroke-linejoin="round" stroke-miterlimit="10" stroke-width="1.5" points="11.7 54.4 14 37 6.9 36 4.7 53.5"></polygon>
    <polygon fill="none" stroke="#3F456B" stroke-linecap="round" stroke-linejoin="round" stroke-miterlimit="10" stroke-width="1.5" points="11 59.8 4 58.8 7.6 30.7 14.7 31.6"></polygon>
    <line x1="8.3" x2="11" y1="42.9" y2="43.2" fill="none" stroke="#3F456B" stroke-linecap="round" stroke-linejoin="round" stroke-miterlimit="10" stroke-width="1.5"></line>
    <line x1="7.9" x2="10.6" y1="45.7" y2="46.1" fill="none" stroke="#3F456B" stroke-linecap="round" stroke-linejoin="round" stroke-miterlimit="10" stroke-width="1.5"></line>
    <line x1="7.5" x2="10.2" y1="48.6" y2="49" fill="none" stroke="#3F456B" stroke-linecap="round" stroke-linejoin="round" stroke-miterlimit="10" stroke-width="1.5"></line>
  </g>
  <g>
    <polygon fill="#8088A0" stroke="#3F456B" stroke-linecap="round" stroke-linejoin="round" stroke-miterlimit="10" stroke-width="1.5" points="43.2 10.5 20.8 6.7 35.6 24.1 58.1 27.8"></polygon>
    <path fill="#9398AB" stroke="#3F456B" stroke-linecap="round" stroke-linejoin="round" stroke-miterlimit="10" stroke-width="1.5" d="M43.3,31.3c0.4,0.4,1,0.3,1.2-0.2l4-7.1C50.4,20.7,30.8,9.6,29,12.9l-4,7.2c-0.3,0.5,0,1,0.5,1.2c0.8,0.2,1.9,0.5,2.3,0.8c1.7,1.1,4.5,3.9,6.3,4.9c1.8,1,5.7,1.9,7.5,2.9C42,30,42.7,30.7,43.3,31.3z"></path>
  </g>
  <g>
    <path fill="#FEBC5B" d="M61.1,40.6c0.5,2.3-0.4,4.5-1.9,5.9c-0.8,0.8-1.4,1.8-1.4,2.9v1.3c0,0.5-0.4,1-0.9,1h-3.6c-0.5,0-0.9-0.4-0.9-1v-1c0-1.3-0.6-2.5-1.5-3.4c-1.2-1.1-1.9-2.7-1.9-4.4c0-3.9,3.6-6.9,7.6-6C58.8,36.4,60.7,38.3,61.1,40.6z"></path>
    <path fill="#FEBC5B" d="M61.1,40.6c0.5,2.3-0.4,4.5-1.9,5.9c-0.8,0.8-1.4,1.8-1.4,2.9v1.3c0,0.5-0.4,1-0.9,1h-3.6c-0.5,0-0.9-0.4-0.9-1v-1c0-1.3-0.6-2.5-1.5-3.4c-1.2-1.1-1.9-2.7-1.9-4.4c0-3.9,3.6-6.9,7.6-6C58.8,36.4,60.7,38.3,61.1,40.6z"></path>
    <path fill="#8088A0" stroke="#3F456B" stroke-miterlimit="10" stroke-width="1.5" d="M56.7,51.7v0.5c0,0.9-0.7,1.6-1.6,1.6h0c-0.9,0-1.6-0.7-1.6-1.6v-0.5"></path>
    <line x1="64.1" x2="64.5" y1="42.1" y2="42.1" fill="#FEBC5B" stroke="#3F456B" stroke-linecap="round" stroke-miterlimit="10" stroke-width="1.5"></line>
    <line x1="45.7" x2="46.1" y1="42.1" y2="42.1" fill="#FEBC5B" stroke="#3F456B" stroke-linecap="round" stroke-miterlimit="10" stroke-width="1.5"></line>
    <line x1="64.1" x2="64.5" y1="42.1" y2="42.1" fill="#FEBC5B" stroke="#3F456B" stroke-linecap="round" stroke-miterlimit="10" stroke-width="1.5"></line>
    <line x1="45.7" x2="46.1" y1="42.1" y2="42.1" fill="#FEBC5B" stroke="#3F456B" stroke-linecap="round" stroke-miterlimit="10" stroke-width="1.5"></line>
    <g>
      <line x1="55.1" x2="55.1" y1="32.7" y2="33.1" fill="#FEBC5B" stroke="#3F456B" stroke-linecap="round" stroke-miterlimit="10" stroke-width="1.5"></line>
      <line x1="55.1" x2="55.1" y1="32.7" y2="33.1" fill="#FEBC5B" stroke="#3F456B" stroke-linecap="round" stroke-miterlimit="10" stroke-width="1.5"></line>
    </g>
    <g>
      <line x1="61.5" x2="61.7" y1="48.5" y2="48.8" fill="#FEBC5B" stroke="#3F456B" stroke-linecap="round" stroke-miterlimit="10" stroke-width="1.5"></line>
      <line x1="48.5" x2="48.7" y1="35.5" y2="35.8" fill="#FEBC5B" stroke="#3F456B" stroke-linecap="round" stroke-miterlimit="10" stroke-width="1.5"></line>
      <g>
        <line x1="61.5" x2="61.7" y1="48.5" y2="48.8" fill="#FEBC5B" stroke="#3F456B" stroke-linecap="round" stroke-miterlimit="10" stroke-width="1.5"></line>
        <line x1="48.5" x2="48.7" y1="35.5" y2="35.8" fill="#FEBC5B" stroke="#3F456B" stroke-linecap="round" stroke-miterlimit="10" stroke-width="1.5"></line>
      </g>
      <g>
        <line x1="48.7" x2="48.5" y1="48.5" y2="48.8" fill="#FEBC5B" stroke="#3F456B" stroke-linecap="round" stroke-miterlimit="10" stroke-width="1.5"></line>
        <line x1="61.7" x2="61.5" y1="35.5" y2="35.8" fill="#FEBC5B" stroke="#3F456B" stroke-linecap="round" stroke-miterlimit="10" stroke-width="1.5"></line>
        <g>
          <line x1="48.7" x2="48.5" y1="48.5" y2="48.8" fill="#FEBC5B" stroke="#3F456B" stroke-linecap="round" stroke-miterlimit="10" stroke-width="1.5"></line>
          <line x1="61.7" x2="61.5" y1="35.5" y2="35.8" fill="#FEBC5B" stroke="#3F456B" stroke-linecap="round" stroke-miterlimit="10" stroke-width="1.5"></line>
        </g>
      </g>
    </g>
    <g>
      <circle cx="53.6" cy="42.5" r="1.5" fill="none" stroke="#FCAE47" stroke-miterlimit="10" stroke-width="1.5"></circle>
      <circle cx="56.6" cy="42.5" r="1.5" fill="none" stroke="#FCAE47" stroke-miterlimit="10" stroke-width="1.5"></circle>
    </g>
    <line x1="55.1" x2="55.1" y1="42.5" y2="51.3" fill="none" stroke="#FCAE47" stroke-miterlimit="10" stroke-width="1.5"></line>
    <g>
      <path fill="none" d="M61.1,40.6c0.5,2.3-0.4,4.5-1.9,5.9c-0.8,0.8-1.4,1.8-1.4,2.9v1.3c0,0.5-0.4,1-0.9,1h-3.6c-0.5,0-0.9-0.4-0.9-1v-1c0-1.3-0.6-2.5-1.5-3.4c-1.2-1.1-1.9-2.7-1.9-4.4c0-3.9,3.6-6.9,7.6-6C58.8,36.4,60.7,38.3,61.1,40.6z"></path>
      <path fill="none" stroke="#3F456B" stroke-miterlimit="10" stroke-width="1.5" d="M61.1,40.6c0.5,2.3-0.4,4.5-1.9,5.9c-0.8,0.8-1.4,1.8-1.4,2.9v1.3c0,0.5-0.4,1-0.9,1h-3.6c-0.5,0-0.9-0.4-0.9-1v-1c0-1.3-0.6-2.5-1.5-3.4c-1.2-1.1-1.9-2.7-1.9-4.4c0-3.9,3.6-6.9,7.6-6C58.8,36.4,60.7,38.3,61.1,40.6z"></path>
    </g>
  </g>
  <g>
    <path fill="none" stroke="#3F456B" stroke-linecap="round" stroke-linejoin="round" stroke-miterlimit="10" stroke-width="1.5" d="M12,18.6c-0.6,0.3-1.2,0.6-1.8,0.7L10,21l-2.4,0l-0.1-1.7c-0.6-0.1-1.2-0.4-1.8-0.7l-1.3,1.1L2.8,18l1.1-1.3c-0.4-0.6-0.6-1.2-0.7-1.8l-1.6-0.1l0-2.4l1.7-0.1c0.1-0.6,0.4-1.2,0.7-1.8L2.8,9.3l1.7-1.7l1.2,1.1C6.3,8.3,6.9,8,7.5,7.9l0.1-1.7l2.4,0l0.1,1.7C10.8,8,11.4,8.3,12,8.6l1.3-1.1l1.7,1.7l-1.1,1.3c0.4,0.6,0.6,1.2,0.7,1.8l1.6,0.1l0,2.4l-1.7,0.1c-0.1,0.6-0.4,1.2-0.7,1.8l1.1,1.2l-1.7,1.7L12,18.6z"></path>
    <circle cx="8.9" cy="13.6" r="2.5" fill="none" stroke="#3F456B" stroke-linecap="round" stroke-linejoin="round" stroke-miterlimit="10" stroke-width="1.5"></circle>
  </g>
</svg>
