<svg xmlns="http://www.w3.org/2000/svg" viewBox="0 0 512 512" id="quality">
  <polygon fill="#f2671f" fill-rule="evenodd" points="378.894 179.205 427.827 282.517 393.165 279.439 371.106 306.056 332.51 198.454 378.894 179.205"></polygon>
  <polygon fill="#ff8748" fill-rule="evenodd" points="378.894 179.205 423.202 272.752 397.846 270.5 377.731 293.404 342.228 194.421 378.894 179.205"></polygon>
  <polygon fill="#f2671f" fill-rule="evenodd" points="278.292 179.022 229.36 282.334 264.022 279.256 286.081 305.873 324.677 198.271 278.292 179.022"></polygon>
  <polygon fill="#ff8748" fill-rule="evenodd" points="278.293 179.022 233.985 272.568 259.341 270.316 279.456 293.221 314.959 194.238 278.293 179.022"></polygon>
  <path fill="#f9ac00" fill-rule="evenodd" d="M304.448,24.182c-6.513,9.171-17.019,13.523-28.109,11.644-10.31-1.748-18.932,.137-26.519,7.724-7.59,7.589-9.47,16.206-7.724,26.519,1.879,11.09-2.473,21.596-11.643,28.109-8.527,6.057-13.291,13.482-13.291,24.214s4.764,18.157,13.291,24.214c9.17,6.513,13.522,17.02,11.643,28.11-1.748,10.31,.137,18.932,7.724,26.519,7.589,7.59,16.206,9.47,26.519,7.724,11.09-1.879,21.596,2.472,28.109,11.643,6.056,8.527,13.482,13.29,24.213,13.29s18.157-4.764,24.214-13.29c6.513-9.171,17.019-13.522,28.109-11.644,10.31,1.748,18.932-.136,26.519-7.723,7.59-7.59,9.47-16.206,7.724-26.519-1.879-11.09,2.473-21.596,11.643-28.11,8.527-6.056,13.291-13.482,13.291-24.214s-4.764-18.157-13.291-24.214c-9.17-6.513-13.522-17.019-11.643-28.109,1.748-10.31-.137-18.932-7.724-26.519-7.589-7.59-16.206-9.47-26.519-7.724-11.09,1.879-21.596-2.473-28.109-11.643-6.056-8.527-13.482-13.29-24.214-13.29s-18.157,4.764-24.213,13.29Z"></path>
  <path fill="#fcdb35" fill-rule="evenodd" d="M304.448,24.182c-6.513,9.171-17.019,13.523-28.11,11.644-10.31-1.748-18.931,.136-26.518,7.723-7.59,7.589-9.47,16.207-7.724,26.519,1.879,11.09-2.473,21.596-11.643,28.11-8.527,6.056-13.29,13.482-13.29,24.213s4.764,18.157,13.29,24.213c9.171,6.513,13.523,17.02,11.644,28.11-1.748,10.31,.136,18.931,7.723,26.518,7.589,7.59,16.206,9.47,26.519,7.724,11.09-1.879,21.596,2.473,28.11,11.643,4.801,6.759,10.463,11.154,17.95,12.685,7.487-1.531,13.149-5.926,17.95-12.685,6.513-9.17,17.019-13.523,28.109-11.644,.476,.081,.948,.153,1.417,.218,3.542-.773,7.291-.865,11.111-.218l.144,.023c5.017-1.034,9.595-3.495,13.847-7.747,7.59-7.589,9.47-16.206,7.725-26.519-1.879-11.09,2.472-21.597,11.643-28.11,8.527-6.056,13.291-13.482,13.291-24.213s-4.764-18.157-13.291-24.213c-9.17-6.514-13.523-17.02-11.643-28.11,1.748-10.31-.136-18.931-7.724-26.518-4.254-4.254-8.831-6.714-13.849-7.748l-.142,.023c-3.819,.647-7.569,.555-11.11-.218-.469,.065-.941,.138-1.418,.218-11.09,1.879-21.596-2.473-28.109-11.643-4.801-6.759-10.463-11.153-17.95-12.685-7.487,1.532-13.149,5.926-17.95,12.685Z"></path>
  <circle cx="317.261" cy="122.392" r="60" fill="#f9ac00"></circle>
  <circle cx="328.662" cy="122.392" r="60" fill="#f3f3ff"></circle>
  <path fill="#fdb0a0" fill-rule="evenodd" d="M346.228,366.952c8.908-14.989-2.376-33.976-19.799-33.317-143.181,0-143.435-116.425-277.366,55.819l70.875,74.303c31.569-31.835,69.095-33.306,110.486-30.83,22.577,1.351,49.521,4.611,74.24,4.064,34.54-.763,55.708-10.138,86.037-26.205,34.53-18.291,94.545-54.723,105.015-68.485,14.983-19.699-4.361-38.25-27.216-25.056-26.879,15.518-98.048,49.461-134.712,59.687,5.548-2.406,9.882-5.675,12.44-9.979Z"></path>
  <path fill="#ffcec0" fill-rule="evenodd" d="M346.228,366.952c8.908-14.989-2.376-33.976-19.799-33.317-143.181,0-143.435-116.425-277.366,55.819l54.709,57.355c33.077-32.621,72.291-34.121,115.501-31.536,23.801,1.424,52.205,4.86,78.264,4.284,36.412-.805,58.727-10.688,90.7-27.625,36.043-19.093,98.415-56.929,110.356-71.757-4.954-7.601-16.941-10.522-30.093-2.93-26.879,15.518-98.048,49.461-134.712,59.687,5.548-2.406,9.882-5.675,12.44-9.979Z"></path>
  <path fill="#fdb0a0" fill-rule="evenodd" d="M346.228,366.952c6.949-11.692,1.61-25.817-9.345-31.152,7.929,8.685,2.61,21.013-9.825,25.537-6.883,2.504-16.157,3.687-26.235,3.933-26.323,.644-56.61-5.532-68.587-11.764-4.222-2.195-9.424-.551-11.619,3.671-2.195,4.222-.551,9.425,3.671,11.619,13.838,7.202,47.908,14.36,76.938,13.65,11.991-.294,23.332-1.958,32.561-5.515,5.548-2.406,9.882-5.675,12.44-9.979Z"></path>
  <path fill="#2a93fc" fill-rule="evenodd" d="M11,399.676l32.812-32.813c6.441-6.441,16.981-6.441,23.423,0l78.009,78.008c6.441,6.441,6.441,16.982,0,23.423l-32.813,32.813L11,399.676Z"></path>
  <path fill="#4eb1fc" fill-rule="evenodd" d="M11,399.676l32.813-32.813c6.438-6.439,16.972-6.441,23.414-.008l.008,.008,61.434,61.434c6.441,6.441,6.441,16.982,0,23.423l-32.812,32.813L11,399.676Z"></path>
  <path fill="#99d100" fill-rule="evenodd" d="M317.9,145.741c-.308,0-.607-.019-.921-.063-2.15-.28-4.058-1.552-5.148-3.437l-11.163-19.338c-1.928-3.35-.791-7.63,2.559-9.563,3.355-1.938,7.635-.786,9.563,2.559l6.608,11.438,26.24-26.245c2.743-2.733,7.172-2.733,9.9,0,2.738,2.733,2.738,7.167,0,9.9l-32.689,32.694c-1.321,1.326-3.109,2.053-4.95,2.053Z"></path>
</svg>
