<svg xmlns="http://www.w3.org/2000/svg" viewBox="0 0 512 512" id="reliability">
  <path fill="#ffcec0" fill-rule="evenodd" d="M401.548,167.152h51.892v168.941l-23.539,2.203c-31.803,2.494-71.923,8.685-102.977,3.03-23.047-4.197-28.964-11.092-61.923-11.092-.956,0-7.396-.031-13.006-.039V181.744c87.806-5.727,105.036-43.943,98.511-121.402-.409-4.855,3.127-9.162,7.968-9.706,58.908-6.622,46.712,88.263,43.074,116.516Z"></path>
  <path fill="#fdb0a0" fill-rule="evenodd" d="M453.44,167.152c-.611,17.667-4.736,50.875-48.55,51.293-8.546,15.658-21.788,28.367-41.312,34.793-4.194,1.38-8.713-.9-10.094-5.094-1.381-4.194,.9-8.713,5.094-10.094,15.262-5.023,25.621-14.971,32.312-27.231,7.037-12.895,10.188-28.406,10.771-43.667h51.779Z"></path>
  <rect width="87.264" height="43.812" x="405.323" y="167.153" fill="#fdb0a0" rx="21.906" ry="21.906"></rect>
  <path fill="#ffcec0" fill-rule="evenodd" d="M427.229,167.153h43.452c12.048,0,21.906,9.858,21.906,21.906h-87.264c0-12.048,9.858-21.906,21.906-21.906Z"></path>
  <path fill="#2a92fa" fill-rule="evenodd" d="M243.427,342.133h17.902c6.692,0,12.166-5.475,12.166-12.167V181.973c0-6.692-5.474-12.167-12.166-12.167h-35.804c-6.692,0-12.166,5.475-12.166,12.167v147.993c0,6.692,5.474,12.167,12.166,12.167h17.902Z"></path>
  <path fill="#4eb1fc" d="M225.525,169.806h10.438c6.715,0,12.166,5.451,12.166,12.166v147.993c0,6.715-5.452,12.167-12.167,12.167h-10.438c-6.715,0-12.166-5.452-12.166-12.166V181.973c0-6.715,5.452-12.167,12.167-12.167Z"></path>
  <path fill="#fdb0a0" fill-rule="evenodd" d="M418.728,210.965h57.916c12.049,0,21.906,9.857,21.906,21.906h0c0,12.048-9.857,21.906-21.906,21.906h-57.916c-12.049,0-21.906-9.858-21.906-21.906h0c0-12.048,9.857-21.906,21.906-21.906Z"></path>
  <path fill="#ffcec0" fill-rule="evenodd" d="M418.728,210.965h57.916c12.049,0,21.906,9.857,21.906,21.906h-101.729c0-12.048,9.857-21.906,21.906-21.906Z"></path>
  <path fill="#fdb0a0" fill-rule="evenodd" d="M420.477,254.777h49.889c12.048,0,21.906,9.858,21.906,21.906h0c0,12.048-9.858,21.906-21.906,21.906h-49.889c-12.048,0-21.906-9.858-21.906-21.906h0c0-12.048,9.858-21.906,21.906-21.906Z"></path>
  <path fill="#ffcec0" fill-rule="evenodd" d="M420.477,254.777h49.889c12.048,0,21.906,9.858,21.906,21.906h-93.7c0-12.048,9.858-21.906,21.906-21.906Z"></path>
  <path fill="#fdb0a0" fill-rule="evenodd" d="M429.901,298.589h30.851c10.92,0,19.854,8.934,19.854,19.853h0c0,10.92-8.934,19.854-19.854,19.854h-30.851c-10.92,0-19.854-8.934-19.854-19.854h0c0-10.92,8.934-19.853,19.854-19.853Z"></path>
  <path fill="#ffcec0" fill-rule="evenodd" d="M429.901,298.589h30.851c10.92,0,19.854,8.934,19.854,19.853h-70.559c0-10.92,8.934-19.853,19.854-19.853Z"></path>
  <circle cx="368.744" cy="439.674" r="61.28" fill="#99d100" transform="rotate(-80.783 368.741 439.673)"></circle>
  <path fill="#a8e304" fill-rule="evenodd" d="M359.594,500.272c-29.503-4.417-52.129-29.865-52.129-60.599s22.626-56.181,52.129-60.599c29.504,4.417,52.129,29.865,52.129,60.599s-22.626,56.181-52.129,60.599Z"></path>
  <path fill="#9cf" fill-rule="evenodd" d="M273.449,118.148V11.047h-55.87l-9.711,49.248-52.137,21.627-41.717-27.975-57.667,57.666,27.976,41.717-21.628,52.138-49.247,9.711v81.552l49.247,9.71,21.628,52.137-27.976,41.717,57.667,57.667,41.717-27.977,52.137,21.627,9.711,49.248h55.87v-107.07c-4.949,.535-9.974,.818-15.066,.818-76.568,0-138.639-62.071-138.639-138.639s62.071-138.639,138.639-138.639c5.092,0,10.117,.283,15.066,.818Z"></path>
  <path fill="#b6dbff" fill-rule="evenodd" d="M243.99,118.074c.232-.024,.464-.048,.696-.071V11.048h-27.107l-9.711,49.247-69.909,29-35.492-23.802-46.12,46.12,27.976,41.717-21.628,52.138-49.247,9.711v81.552l49.247,9.71,21.628,52.137-27.976,41.717,46.12,46.121,35.492-23.802,69.909,28.999,9.711,49.248h27.107v-106.925c-.232-.023-.464-.047-.696-.071-4.724,.487-9.517,.744-14.37,.744-76.568,0-138.639-62.071-138.639-138.639S153.052,117.33,229.62,117.33c4.853,0,9.646,.257,14.37,.744Z"></path>
  <path fill="#f3f3ff" fill-rule="evenodd" d="M356.478,465.299c-.299,0-.607-.024-.911-.063-2.159-.284-4.058-1.557-5.148-3.442l-12.72-22.028c-1.933-3.35-.781-7.63,2.559-9.563,3.35-1.933,7.63-.786,9.573,2.559l8.146,14.132,30.805-30.795c2.728-2.738,7.167-2.738,9.896,0,2.733,2.733,2.733,7.163,0,9.9l-37.249,37.245c-1.321,1.321-3.099,2.053-4.95,2.053Z"></path>
</svg>
