<svg xmlns="http://www.w3.org/2000/svg" viewBox="0 0 70 70" id="Automation">
  <path d="M66.405 28.77c-1.608-8.196-6.244-15.287-13.086-20.056l2.724-.538c.54-.107.893-.634.787-1.176a1.003 1.003 0 0 0-1.176-.787l-5.112 1.01a1.002 1.002 0 0 0-.787 1.177l1.01 5.112c.262 1.311 2.218.908 1.963-.389l-.547-2.765c6.404 4.46 10.753 11.11 12.262 18.797 1.545 7.872-.067 15.88-4.539 22.553A29.84 29.84 0 0 1 47.19 62.403a1 1 0 0 0 .81 1.829 31.834 31.834 0 0 0 13.566-11.41c4.768-7.116 6.486-15.658 4.839-24.052zM18.062 55.715a1.002 1.002 0 0 0-.787 1.176l.53 2.68C11.67 54.807 7.57 49.626 5.771 41.627c-1.89-7.951-.33-16.452 4.277-23.322 3.175-4.738 7.554-8.44 12.66-10.707a1 1 0 0 0-.81-1.828c-5.453 2.42-10.125 6.369-13.512 11.422-4.917 7.33-6.579 16.406-4.563 24.885 1.7 7.567 5.955 14.204 12.933 19.21l-2.795.552a1.002 1.002 0 0 0-.787 1.176c.107.54.631.892 1.175.787l5.113-1.01c.54-.108.893-.635.787-1.177l-1.011-5.113a1.003 1.003 0 0 0-1.176-.787z" fill="#4f75ff" class="color000000 svgShape"></path>
  <path d="M50.58 48.766c-.43-1.11-.34-2.39.38-3.46a3.807 3.807 0 0 1 3.03-1.69c1.33-.03 2.54-.87 2.93-2.13.04-.09.06-.16.07-.26.45-1.51.75-3.04.88-4.57.11-1.34-.72-2.52-1.93-3.09-.18-.09-.36-.19-.53-.3-.79-.53-1.42-1.37-1.61-2.39-.02-.14-.05-.26-.06-.41-.07-.87.16-1.74.62-2.43.1-.14.21-.28.33-.41.9-1 1.26-2.43.64-3.63-.76-1.45-1.68-2.82-2.75-4.09-.84-1-2.27-1.29-3.5-.83-1.1.41-2.38.32-3.46-.39-.08-.06-.15-.11-.22-.17a3.728 3.728 0 0 1-1.45-3.19c.05-1.05-.84-2.19-1.84-2.5-.3-.1-.59-.18-.9-.27-1.42-.4-2.88-.68-4.05-.78-1.38-.14-2.66.66-3.25 1.92-.09.18-.19.36-.3.52-.53.79-1.36 1.4-2.38 1.6l-.06.01c-.27.06-.52.07-.77.08a3.92 3.92 0 0 1-2.04-.66c-.14-.09-.29-.19-.41-.31-1.05-.94-2.51-1.24-3.75-.57-.62.32-1.22.66-1.79 1.05-.73.46-1.42.97-2.09 1.53-1.04.87-1.44 2.3-.93 3.58.44 1.11.33 2.4-.38 3.46-.58.86-1.41 1.4-2.36 1.58-.21.07-.45.1-.69.1-1.355 0-2.563.946-2.97 2.25-.35 1.12-.61 2.26-.76 3.4-.06.38-.1.77-.13 1.16a3.18 3.18 0 0 0 1.87 3.22c1.08.47 1.92 1.45 2.17 2.7l.01.06a3.792 3.792 0 0 1-.94 3.23c-.94 1.04-1.21 2.5-.56 3.74a21.66 21.66 0 0 0 2.6 3.87c.89 1.07 2.34 1.41 3.63.93.99-.38 2.15-.31 3.13.23.04.01.08.04.12.06l.23.15.03.03c1.05.7 1.61 1.81 1.64 2.96.05 1.42.95 2.61 2.28 3.01 1.49.46 3.01.74 4.55.89 1.4.13 2.63-.69 3.23-1.98a3.677 3.677 0 0 1 2.68-2.07c1.25-.25 2.47.13 3.35.96a3.16 3.16 0 0 0 3.67.49c1.36-.73 2.65-1.59 3.87-2.57 1.04-.89 1.42-2.34.92-3.62zm-15.85-6.48c.65.67 1.52 1.05 2.46 1.06h.04c1.91 0 3.48-1.55 3.5-3.46.01-.87-.31-1.66-.83-2.28l1.09-1.83h6.71c-.19 2.07-.88 4.13-2.12 5.98-3.91 5.83-11.83 7.41-17.68 3.5-.11-.08-.21-.14-.31-.23a12.647 12.647 0 0 1-3.6-3.95h5.94c.55 0 1-.45 1-1s-.45-1-1-1h-6.88c-.19-.53-.36-1.06-.48-1.6-.15-.62-.23-1.25-.28-1.89h7.25c.35 0 .67-.19.85-.49l1.35-2.24c.3.09.62.15.95.16h.04c1.91 0 3.48-1.55 3.5-3.46a3.504 3.504 0 0 0-3.46-3.54c-1.91.01-3.52 1.53-3.54 3.46-.01.87.32 1.66.84 2.28l-1.1 1.83h-6.69c.17-2.09.86-4.17 2.11-6.03a12.62 12.62 0 0 1 8.49-5.48c3-.51 6.17.04 8.9 1.77.12.06.21.12.32.2 1.76 1.18 3.13 2.73 4.08 4.47h-5.96c-.55 0-1 .45-1 1s.45 1 1 1h6.83c.36 1.05.58 2.15.66 3.26h-7.29c-.35 0-.67.18-.85.48l-1.35 2.25c-.3-.09-.62-.16-.95-.16h-.04c-1.91 0-3.48 1.54-3.5 3.46-.01.93.34 1.81 1 2.48z" fill="#4f75ff" class="color000000 svgShape"></path>
</svg>
