<svg xmlns="http://www.w3.org/2000/svg" viewBox="0 0 512 512" id="Automation">
  <path d="m421.987,359.991l-13.14-22.763c5.254-9.824,9.532-20.139,12.754-30.747l25.35-6.783c9.625-2.582,16.092-11.003,16.092-20.956v-45.609c0-9.952-6.467-18.374-16.096-20.957l-25.346-6.782c-3.203-10.541-7.474-20.853-12.73-30.74l13.116-22.741c4.981-8.628,3.596-19.158-3.447-26.201l-32.241-32.27c-7.062-7.023-17.589-8.402-26.191-3.435l-22.741,13.143c-9.862-5.244-20.173-9.521-30.735-12.751l-6.786-25.362c-2.588-9.604-11.009-16.058-20.955-16.058h-45.609c-9.984,0-18.408,6.462-20.955,16.062l-6.811,25.356c-10.564,3.23-20.876,7.508-30.738,12.752l-22.744-13.144c-8.619-4.976-19.136-3.59-26.172,3.448l-32.259,32.258c-7.029,7.028-8.417,17.554-3.445,26.203l13.139,22.736c-5.224,9.792-9.5,20.105-12.748,30.741l-25.355,6.785c-9.625,2.582-16.092,11.003-16.092,20.956v45.609c0,9.952,6.467,18.374,16.096,20.957l25.352,6.784c3.258,10.676,7.534,20.989,12.747,30.743l-13.146,22.746c-4.964,8.636-3.576,19.162,3.453,26.19l32.259,32.258c7.035,7.036,17.555,8.423,26.172,3.447l22.768-13.143c9.835,5.24,20.14,9.519,30.715,12.751l6.806,25.339c2.552,9.618,10.976,16.08,20.96,16.08h45.581c9.985,0,18.409-6.462,20.956-16.062l6.81-25.356c10.636-3.248,20.95-7.525,30.744-12.75l22.739,13.141c8.618,4.974,19.136,3.589,26.172-3.447l32.258-32.258c7.037-7.037,8.422-17.555,3.447-26.172Zm-11.926,17.693l-32.258,32.258c-3.145,3.145-7.847,3.765-11.696,1.542l-25.653-14.825c-1.832-1.059-4.085-1.074-5.927-.041-10.861,6.077-22.454,10.884-34.455,14.29-2.029.576-3.606,2.175-4.153,4.212l-7.687,28.619c-1.154,4.352-4.833,7.165-9.371,7.165h-45.581c-4.537,0-8.216-2.812-9.375-7.182l-7.682-28.602c-.547-2.037-2.124-3.637-4.153-4.212-11.921-3.382-23.505-8.191-34.431-14.292-.908-.508-1.916-.761-2.923-.761-1.035,0-2.07.268-2.997.803l-25.682,14.825c-3.852,2.223-8.555,1.604-11.699-1.541l-32.259-32.258c-3.194-3.195-3.797-7.802-1.543-11.725l14.825-25.654c1.06-1.833,1.073-4.087.038-5.933-6.059-10.801-10.865-22.391-14.286-34.448-.576-2.031-2.179-3.609-4.218-4.155l-28.598-7.653c-4.379-1.175-7.209-4.854-7.209-9.375v-45.609c0-4.521,2.83-8.2,7.205-9.374l28.602-7.653c2.039-.546,3.642-2.124,4.218-4.155,3.405-12.002,8.213-23.594,14.29-34.455,1.032-1.845,1.017-4.097-.042-5.927l-14.817-25.641c-2.263-3.936-1.659-8.542,1.535-11.737l32.259-32.259c3.146-3.146,7.848-3.765,11.696-1.542l25.653,14.825c1.827,1.056,4.074,1.073,5.917.047,10.965-6.107,22.561-10.917,34.465-14.295,2.029-.576,3.606-2.176,4.153-4.212l7.687-28.619c1.154-4.352,4.833-7.165,9.37-7.165h45.609c4.45,0,8.219,2.888,9.374,7.177l7.654,28.602c.545,2.039,2.123,3.642,4.154,4.218,11.902,3.378,23.498,8.188,34.465,14.295,1.842,1.026,4.089,1.009,5.917-.047l25.65-14.824c3.852-2.223,8.569-1.6,11.724,1.538l32.233,32.262c3.201,3.201,3.807,7.804,1.54,11.729l-14.796,25.653c-1.053,1.826-1.07,4.07-.045,5.912,6.125,10.998,10.924,22.589,14.264,34.453.573,2.037,2.177,3.62,4.221,4.167l28.599,7.652c4.379,1.175,7.209,4.854,7.209,9.375v45.609c0,4.52-2.83,8.2-7.205,9.374l-28.603,7.654c-2.044.547-3.647,2.13-4.221,4.167-3.365,11.952-8.171,23.538-14.283,34.436-1.035,1.845-1.021,4.099.036,5.93l14.825,25.683c2.259,3.912,1.654,8.504-1.541,11.699Zm-153.99-234.254c-62.029,0-112.493,50.477-112.493,112.521s50.464,112.493,112.493,112.493,112.492-50.464,112.492-112.493-50.464-112.521-112.492-112.521Zm0,213.024c-55.417,0-100.503-45.085-100.503-100.502s45.086-100.531,100.503-100.531,100.502,45.098,100.502,100.531-45.085,100.502-100.502,100.502Zm136.509,104.156c1.771,2.798.938,6.501-1.861,8.272-2.903,1.837-5.742,3.556-8.679,5.254-38.823,22.414-81.909,33.864-125.563,33.864-21.885,0-43.911-2.877-65.616-8.694-64.999-17.418-119.327-59.109-152.977-117.391C4.234,323.634-4.705,255.736,12.714,190.727c15.265-56.969,49.172-105.739,96.548-139.576l-19.487,1.8c-3.301.31-6.218-2.121-6.521-5.418-.305-3.297,2.121-6.216,5.418-6.521l43.881-4.054c.034-.003.067,0,.102-.003.192-.014.383-.02.575-.015.062.001.124,0,.185.004.234.012.467.035.698.074.027.005.053.012.08.017.206.038.408.088.609.147.062.018.124.039.185.059.181.06.358.128.532.204.043.019.086.035.128.055.22.103.435.217.642.347.009.006.018.012.026.018.191.121.375.256.553.399.041.033.082.068.122.102.152.13.298.267.438.413.032.033.066.065.097.099.163.178.318.366.461.567.004.007.01.012.015.019.02.029.035.06.054.089.083.122.167.245.243.375.025.043.044.088.067.132.037.067.07.135.104.204.08.16.151.322.215.486.022.058.047.115.067.173.163.458.267.926.314,1.397.005.052.008.103.012.155.014.19.02.38.016.57,0,.058,0,.116-.004.174-.012.237-.033.473-.073.706-.001.008-.004.017-.006.025-.039.223-.093.443-.157.661-.019.063-.04.126-.06.189-.061.183-.129.363-.207.54-.014.032-.022.065-.037.097l-18.454,40.025c-1.012,2.194-3.181,3.486-5.448,3.486-.84,0-1.693-.177-2.506-.552-3.008-1.386-4.321-4.948-2.935-7.955l9.944-21.569c-46.633,32.291-80.006,79.546-94.854,134.956-16.59,61.915-8.076,126.583,23.972,182.091,66.154,114.584,213.194,153.986,327.771,87.834,2.795-1.616,5.5-3.254,8.269-5.005,2.797-1.771,6.502-.937,8.271,1.861Zm84.379-48.08c1.146,3.106-.443,6.554-3.55,7.7l-40.704,15.02c-.842.421-1.752.658-2.672.658-1.362,0-2.709-.488-3.816-1.411-.015-.012-.031-.019-.045-.031-.015-.013-.027-.028-.042-.04-.11-.096-.232-.171-.337-.276-.062-.062-.104-.135-.163-.199-.193-.207-.373-.424-.533-.653-.068-.099-.124-.201-.185-.303-.143-.233-.27-.474-.38-.723-.023-.055-.051-.108-.072-.164-.414-1.019-.556-2.145-.363-3.266l7.455-43.427c.561-3.264,3.651-5.455,6.924-4.895,3.263.56,5.454,3.66,4.895,6.923l-4.04,23.531c64.817-76.552,75.448-186.853,24.544-275.021C408.139,39.402,290.599-6.47,184.392,26.878c-3.162.992-6.524-.765-7.516-3.924-.992-3.159.765-6.524,3.924-7.516C234.579-1.449,293.351.413,346.29,20.679c53.712,20.562,99.159,59.372,127.969,109.28,52.788,91.432,42.538,205.531-23.298,285.775l18.298-6.752c3.107-1.146,6.553.442,7.7,3.549Zm-220.888-230.804c-40.928,0-74.226,33.297-74.226,74.225s33.298,74.197,74.226,74.197,74.225-33.285,74.225-74.197-33.297-74.225-74.225-74.225Zm0,136.432c-34.316,0-62.235-27.906-62.235-62.207s27.919-62.235,62.235-62.235,62.234,27.918,62.234,62.235-27.918,62.207-62.234,62.207Zm36.157-90.03c2.342,2.341,2.342,6.137,0,8.479l-47.169,47.168c-1.132,1.132-2.66,1.756-4.239,1.756-.26,0-.521-.017-.783-.051-1.848-.243-3.478-1.333-4.409-2.947l-16.639-28.828c-1.655-2.868-.672-6.534,2.195-8.189,2.87-1.655,6.535-.672,8.189,2.195l12.732,22.061,41.644-41.643c2.342-2.341,6.137-2.342,8.479,0Z" fill="#4f75ff" class="color000000 svgShape"></path>
</svg>
