<svg xmlns="http://www.w3.org/2000/svg" enable-background="new 0 0 66 66" viewBox="0 0 66 66" id="CloudManagement">
  <path d="M52.52,38.06l-3.62-0.52c-0.35-1.29-0.86-2.53-1.53-3.71l2.19-2.92c0.3-0.4,0.26-0.96-0.09-1.31l-4.12-4.11
		c-0.35-0.35-0.91-0.39-1.31-0.09l-2.91,2.19c-1.18-0.67-2.43-1.18-3.72-1.54l-0.52-3.61c-0.07-0.49-0.49-0.86-0.99-0.86H30.1
		c-0.5,0-0.92,0.37-0.99,0.86l-0.52,3.62c-1.3,0.36-2.54,0.87-3.71,1.53l-2.92-2.19c-0.4-0.3-0.95-0.26-1.31,0.09l-4.11,4.11
		c-0.35,0.35-0.39,0.91-0.09,1.31l2.19,2.92c-0.67,1.18-1.19,2.42-1.54,3.71l-3.62,0.52c-0.49,0.07-0.86,0.49-0.86,0.99v5.81
		c0,0.5,0.37,0.92,0.86,0.99l3.62,0.52c0.35,1.29,0.86,2.53,1.53,3.71l-2.19,2.92c-0.3,0.4-0.26,0.95,0.09,1.31l4.11,4.11
		c0.35,0.35,0.91,0.39,1.31,0.09l2.92-2.19c1.17,0.66,2.41,1.17,3.71,1.53l0.52,3.62c0.07,0.49,0.49,0.86,0.99,0.86h5.81
		c0.5,0,0.92-0.37,0.99-0.86l0.52-3.61c1.29-0.36,2.54-0.87,3.72-1.54l2.91,2.19c0.4,0.3,0.96,0.26,1.31-0.09l4.12-4.11
		c0.35-0.35,0.39-0.91,0.09-1.31l-2.19-2.92c0.67-1.18,1.18-2.42,1.53-3.71l3.62-0.52c0.49-0.07,0.86-0.49,0.86-0.99v-5.81
		C53.38,38.56,53.01,38.13,52.52,38.06z M51.38,44l-3.42,0.49c-0.41,0.06-0.74,0.37-0.83,0.77c-0.34,1.53-0.95,2.99-1.8,4.36
		c-0.22,0.35-0.2,0.8,0.05,1.13l2.07,2.76l-2.89,2.88l-2.76-2.07c-0.33-0.25-0.78-0.27-1.13-0.05c-1.37,0.85-2.84,1.46-4.38,1.81
		c-0.4,0.09-0.71,0.42-0.76,0.83l-0.49,3.41h-4.08l-0.49-3.42c-0.06-0.41-0.36-0.74-0.76-0.83c-1.56-0.36-3.02-0.97-4.37-1.8
		c-0.35-0.22-0.8-0.2-1.13,0.05l-2.76,2.07l-2.88-2.88l2.07-2.76c0.25-0.33,0.27-0.78,0.05-1.13c-0.85-1.36-1.46-2.83-1.8-4.36
		c-0.09-0.41-0.42-0.71-0.83-0.77L14.63,44v-4.08l3.42-0.49c0.41-0.06,0.74-0.37,0.83-0.77c0.35-1.54,0.95-3,1.81-4.36
		c0.22-0.35,0.2-0.8-0.05-1.13l-2.08-2.76l2.88-2.88l2.76,2.07c0.33,0.25,0.78,0.26,1.13,0.05c1.34-0.84,2.81-1.44,4.37-1.8
		c0.4-0.09,0.71-0.42,0.76-0.83l0.49-3.42h4.08L35.53,27c0.06,0.41,0.36,0.74,0.76,0.83c1.53,0.35,3.01,0.97,4.38,1.81
		c0.35,0.22,0.8,0.2,1.13-0.05l2.76-2.07l2.89,2.88l-2.07,2.76c-0.25,0.33-0.27,0.78-0.05,1.13c0.85,1.37,1.46,2.83,1.8,4.36
		c0.09,0.41,0.42,0.71,0.83,0.77l3.42,0.49V44z" fill="#4f75ff" class="color000000 svgShape"></path>
  <path d="M33.01,32.24c-5.36,0-9.72,4.36-9.72,9.72s4.36,9.72,9.72,9.72s9.72-4.36,9.72-9.72S38.37,32.24,33.01,32.24z M33.01,49.68
		c-4.26,0-7.72-3.46-7.72-7.72s3.46-7.72,7.72-7.72s7.72,3.46,7.72,7.72S37.26,49.68,33.01,49.68z" fill="#4f75ff" class="color000000 svgShape"></path>
  <path d="M54.3,19.2c-0.48-4.91-4.64-8.76-9.67-8.76c-1.75,0-3.42,0.46-4.9,1.33c-2.8-4.96-7.99-8.11-13.51-8.11
		c-8.53,0-15.47,7.02-15.53,15.67C5.19,20.28,1,25.15,1,30.82C1,36,4.49,40.61,9.48,42.03c0.09,0.03,0.18,0.04,0.27,0.04
		c0.44,0,0.84-0.29,0.96-0.73c0.15-0.53-0.16-1.08-0.69-1.23C5.89,38.93,3,35.11,3,30.82c0-4.96,3.86-9.18,8.79-9.61
		c0.53-0.05,0.93-0.54,0.91-1.07c-0.01-0.23-0.02-0.46-0.02-0.69c0-7.6,6.07-13.78,13.53-13.78c5.12,0,9.92,3.14,12.23,7.99
		c0.13,0.27,0.38,0.47,0.67,0.54c0.29,0.07,0.6,0,0.84-0.18c1.34-1.03,2.95-1.58,4.66-1.58c4.26,0,7.72,3.46,7.72,7.72
		c0,0.55,0.45,1,1,1c5.32,0,9.66,4.33,9.66,9.66c0,4.29-2.89,8.11-7.02,9.28c-0.53,0.15-0.84,0.7-0.69,1.23
		c0.15,0.53,0.7,0.84,1.23,0.69C61.52,40.61,65,36,65,30.82C65,24.71,60.28,19.69,54.3,19.2z" fill="#4f75ff" class="color000000 svgShape"></path>
</svg>
