<svg xmlns="http://www.w3.org/2000/svg" viewBox="0 0 64 64" id="CloudCheck">
  <path d="M54 30.16v-.28a19.88 19.88 0 0 0-39.28-4.38h-.47a14.25 14.25 0 0 0 0 28.5H52a12 12 0 0 0 2-23.84ZM52 50H14.25a10.25 10.25 0 0 1 0-20.5 9.83 9.83 0 0 1 1.75.15 2 2 0 0 0 2.36-1.72A15.88 15.88 0 0 1 50 29.88a15.51 15.51 0 0 1-.11 1.86 2 2 0 0 0 2 2.26H52a8 8 0 0 1 0 16Z" fill="#4f75ff" class="color000000 svgShape"></path>
  <path d="m29 38.67-7.09-7.08-2.82 2.82 8.5 8.5a2 2 0 0 0 2.82 0l14.5-14.5-2.82-2.82Z" fill="#4f75ff" class="color000000 svgShape"></path>
</svg>
