<svg xmlns="http://www.w3.org/2000/svg" xml:space="preserve" viewBox="0 0 512 512" id="continuous">
  <path fill="#a79ba7" fill-rule="evenodd" d="M256 24a8 8 0 0 1 0-16c52.934 0 102.012 16.604 142.312 44.892 36.279 25.465 65.428 60.434 83.851 101.305l2.802-16.2a7.989 7.989 0 1 1 15.75 2.688l-7.762 44.883a7.989 7.989 0 0 1-12.317 5.298l-34.74-21.68a7.986 7.986 0 0 1 8.438-13.562l15.222 9.5c-17.082-40.089-45.148-74.402-80.432-99.169C351.461 39.518 305.554 24 256 24zm-118.003 3.035a7.989 7.989 0 1 1 2.688-15.75l44.884 7.762a7.989 7.989 0 0 1 5.298 12.317l-21.68 34.739a7.986 7.986 0 0 1-13.563-8.438l9.5-15.223c-40.061 17.071-74.353 45.107-99.113 80.352C39.54 160.475 24 206.412 24 256a8 8 0 0 1-16 0c0-52.97 16.626-102.078 44.948-142.393 25.462-36.243 60.408-65.363 101.247-83.771l-16.198-2.801zM27.035 374.003a7.989 7.989 0 1 1-15.75-2.688l7.762-44.883a7.988 7.988 0 0 1 12.316-5.298l34.739 21.681a7.986 7.986 0 1 1-8.437 13.562l-15.21-9.493c16.96 39.812 44.719 73.913 79.599 98.613C159.855 472.267 206.067 488 256 488a8 8 0 0 1 0 16c-53.277 0-102.664-16.843-143.134-45.503-35.909-25.43-64.756-60.165-83.031-100.686l-2.8 16.192zm346.968 110.962a7.989 7.989 0 1 1-2.688 15.75l-44.883-7.762a7.989 7.989 0 0 1-5.298-12.317l21.68-34.739a7.986 7.986 0 0 1 13.562 8.438l-9.497 15.217c40.508-17.26 75.109-45.714 99.914-81.482C472.775 350.607 488 305.095 488 256a8 8 0 0 1 16 0c0 52.417-16.287 101.055-44.081 141.133-25.545 36.835-60.822 66.416-102.112 85.032l16.196 2.8z" clip-rule="evenodd"></path>
  <path fill="#ffe177" fill-rule="evenodd" d="M286.784 135.951a123.12 123.12 0 0 1 32.322 13.403l40.458-29.293 32.374 32.374-29.293 40.459a123.232 123.232 0 0 1 13.401 32.321l49.308 7.893v45.784l-49.305 7.892a123.187 123.187 0 0 1-13.403 32.322l29.293 40.458-32.374 32.374-40.459-29.293a123.232 123.232 0 0 1-32.321 13.401l-7.893 49.308h-45.784l-7.892-49.305a123.201 123.201 0 0 1-32.322-13.403l-40.459 29.293-32.374-32.374 29.293-40.459a123.232 123.232 0 0 1-13.401-32.321l-49.308-7.893v-45.784l49.309-7.893a123.167 123.167 0 0 1 13.4-32.321l-29.293-40.459 32.374-32.374 40.457 29.292a123.192 123.192 0 0 1 32.324-13.402l7.892-49.306h45.784l7.892 49.306z" clip-rule="evenodd"></path>
  <path fill="#ffd064" fill-rule="evenodd" d="m350.675 126.497 8.89-6.436 32.374 32.374-29.293 40.459a123.232 123.232 0 0 1 13.401 32.321l49.308 7.893v45.784l-49.305 7.892a123.187 123.187 0 0 1-13.403 32.322l29.293 40.458-32.374 32.374-8.89-6.436 25.938-25.938-29.293-40.458a123.133 123.133 0 0 0 13.403-32.322l49.305-7.892v-45.784l-49.308-7.893a123.218 123.218 0 0 0-13.401-32.321l29.293-40.459-25.938-25.938zm-204.676 0 6.436-6.436 40.457 29.292a123.43 123.43 0 0 0-8.78 4.74l-38.113-27.596zm140.785 9.454a123.125 123.125 0 0 1 31.976 13.199c.112.077.227.146.347.204l-6.547 4.74c-9.96-5.907-29.598-15.202-41.102-18.143l-7.892-49.306h15.327l7.891 49.306zm31.933 226.925a123.176 123.176 0 0 1-31.932 13.171l-7.893 49.308h-15.327l7.893-49.308c11.502-2.943 31.142-12.233 41.102-18.14l6.545 4.74a3.108 3.108 0 0 0-.388.229zm-125.823-.229-40.459 29.293-6.436-6.436 38.115-27.596a124.642 124.642 0 0 0 8.78 4.739z" clip-rule="evenodd"></path>
  <circle cx="256" cy="256" r="82.567" fill="#eceff1" fill-rule="evenodd" clip-rule="evenodd" transform="rotate(-45.001 255.998 256.004)"></circle>
  <path fill="#d1d1d6" fill-rule="evenodd" d="M256 173.433c2.164 0 4.309.084 6.431.248-42.595 3.282-76.136 38.883-76.136 82.319s33.541 79.038 76.136 82.32a83.454 83.454 0 0 1-6.431.248c-45.601 0-82.567-36.967-82.567-82.567S210.4 173.433 256 173.433z" clip-rule="evenodd"></path>
</svg>
