<svg xmlns="http://www.w3.org/2000/svg" viewBox="0 0 128 128" id="flowchart">
  <path fill="#2d4356" d="M100 59h22a6.005 6.005 0 0 0 6-6v-6a6.005 6.005 0 0 0-6-6h-22a6.005 6.005 0 0 0-6 6v1h-5V36a3.999 3.999 0 0 0-4-4h-4v-1a6.005 6.005 0 0 0-6-6H53a6.005 6.005 0 0 0-6 6v1h-5a3.999 3.999 0 0 0-4 4v26h-4v-1a6.005 6.005 0 0 0-6-6H6a6.005 6.005 0 0 0-6 6v6a6.005 6.005 0 0 0 6 6h22a6.005 6.005 0 0 0 6-6v-1h4v26a3.999 3.999 0 0 0 4 4h5v1a6.005 6.005 0 0 0 6 6h22a6.005 6.005 0 0 0 6-6v-1h4a3.999 3.999 0 0 0 4-4V82h5v1a6.005 6.005 0 0 0 6 6h22a6.005 6.005 0 0 0 6-6v-6a6.005 6.005 0 0 0-6-6h-22a6.005 6.005 0 0 0-6 6v1h-5a3.999 3.999 0 0 0-4 4v10h-4v-1a6.005 6.005 0 0 0-6-6H53a6.005 6.005 0 0 0-6 6v1h-5V66h5v1a6.005 6.005 0 0 0 6 6h22a6.005 6.005 0 0 0 6-6v-6a6.005 6.005 0 0 0-6-6H53a6.005 6.005 0 0 0-6 6v1h-5V36h5v1a6.005 6.005 0 0 0 6 6h22a6.005 6.005 0 0 0 6-6v-1h4v12a3.999 3.999 0 0 0 4 4h5v1a6.005 6.005 0 0 0 6 6Zm-2-12a2.006 2.006 0 0 1 2-2h22a2.006 2.006 0 0 1 2 2v6a2.006 2.006 0 0 1-2 2h-22a2.006 2.006 0 0 1-2-2ZM30 67a2.006 2.006 0 0 1-2 2H6a2.006 2.006 0 0 1-2-2v-6a2.006 2.006 0 0 1 2-2h22a2.006 2.006 0 0 1 2 2Zm68 10a2.006 2.006 0 0 1 2-2h22a2.006 2.006 0 0 1 2 2v6a2.006 2.006 0 0 1-2 2h-22a2.006 2.006 0 0 1-2-2ZM51 91a2.006 2.006 0 0 1 2-2h22a2.006 2.006 0 0 1 2 2v6a2.006 2.006 0 0 1-2 2H53a2.006 2.006 0 0 1-2-2Zm0-30a2.006 2.006 0 0 1 2-2h22a2.006 2.006 0 0 1 2 2v6a2.006 2.006 0 0 1-2 2H53a2.006 2.006 0 0 1-2-2Zm26-24a2.006 2.006 0 0 1-2 2H53a2.006 2.006 0 0 1-2-2v-6a2.006 2.006 0 0 1 2-2h22a2.006 2.006 0 0 1 2 2Z"></path>
  <rect width="26" height="10" x="98" y="75" fill="#e1ebf4" rx="2" ry="2"></rect>
  <rect width="26" height="10" x="98" y="45" fill="#e1ebf4" rx="2" ry="2"></rect>
  <rect width="26" height="10" x="51" y="89" fill="#81d9e3" rx="2" ry="2"></rect>
  <rect width="26" height="10" x="51" y="29" fill="#fc785e" rx="2" ry="2"></rect>
  <rect width="26" height="10" x="51" y="59" fill="#ffdb80" rx="2" ry="2"></rect>
  <rect width="26" height="10" x="4" y="59" fill="#e1ebf4" rx="2" ry="2"></rect>
  <path fill="#fff" d="M124 47v2a2.006 2.006 0 0 0-2-2h-22a2.006 2.006 0 0 0-2 2v-2a2.006 2.006 0 0 1 2-2h22a2.006 2.006 0 0 1 2 2Z" opacity=".5"></path>
  <path fill="#9fa5aa" d="M124 51v2a2.006 2.006 0 0 1-2 2h-22a2.006 2.006 0 0 1-2-2v-2a2.006 2.006 0 0 0 2 2h22a2.006 2.006 0 0 0 2-2Z" opacity=".5"></path>
  <path fill="#fff" d="M124 77v2a2.006 2.006 0 0 0-2-2h-22a2.006 2.006 0 0 0-2 2v-2a2.006 2.006 0 0 1 2-2h22a2.006 2.006 0 0 1 2 2Z" opacity=".5"></path>
  <path fill="#9fa5aa" d="M124 81v2a2.006 2.006 0 0 1-2 2h-22a2.006 2.006 0 0 1-2-2v-2a2.006 2.006 0 0 0 2 2h22a2.006 2.006 0 0 0 2-2Z" opacity=".5"></path>
  <path fill="#0f423c" d="M77 95v2a2.006 2.006 0 0 1-2 2H53a2.006 2.006 0 0 1-2-2v-2a2.006 2.006 0 0 0 2 2h22a2.006 2.006 0 0 0 2-2Z" opacity=".3"></path>
  <path fill="#e8fbfc" d="M77 91v2a2.006 2.006 0 0 0-2-2H53a2.006 2.006 0 0 0-2 2v-2a2.006 2.006 0 0 1 2-2h22a2.006 2.006 0 0 1 2 2Z" opacity=".4"></path>
  <path fill="#ad9359" d="M77 65v2a2.006 2.006 0 0 1-2 2H53a2.006 2.006 0 0 1-2-2v-2a2.006 2.006 0 0 0 2 2h22a2.006 2.006 0 0 0 2-2Z" opacity=".45"></path>
  <path fill="#f9edd2" d="M77 61v2a2.006 2.006 0 0 0-2-2H53a2.006 2.006 0 0 0-2 2v-2a2.006 2.006 0 0 1 2-2h22a2.006 2.006 0 0 1 2 2Z" opacity=".5"></path>
  <path fill="#a54b3f" d="M77 35v2a2.006 2.006 0 0 1-2 2H53a2.006 2.006 0 0 1-2-2v-2a2.006 2.006 0 0 0 2 2h22a2.006 2.006 0 0 0 2-2Z" opacity=".5"></path>
  <path fill="#f9dbd7" d="M77 31v2a2.006 2.006 0 0 0-2-2H53a2.006 2.006 0 0 0-2 2v-2a2.006 2.006 0 0 1 2-2h22a2.006 2.006 0 0 1 2 2Z" opacity=".3"></path>
  <path fill="#fff" d="M30 61v2a2.006 2.006 0 0 0-2-2H6a2.006 2.006 0 0 0-2 2v-2a2.006 2.006 0 0 1 2-2h22a2.006 2.006 0 0 1 2 2Z" opacity=".5"></path>
  <path fill="#9fa5aa" d="M30 65v2a2.006 2.006 0 0 1-2 2H6a2.006 2.006 0 0 1-2-2v-2a2.006 2.006 0 0 0 2 2h22a2.006 2.006 0 0 0 2-2Z" opacity=".5"></path>
</svg>
