<svg xmlns="http://www.w3.org/2000/svg" enable-background="new 0 0 48 48" viewBox="0 0 48 48" id="Integration">
  <path fill="#bb2c0f" d="M41.2,26.5h-5.1V8.6L38,7c0.2-0.2,0.3-0.4,0.3-0.7l-0.7-5.7c0-0.4-0.4-0.7-0.7-0.7h-3.2
		C33.3,0,33,0.3,33,0.7l-0.7,5.7c0,0.3,0.1,0.5,0.3,0.7l2,1.5v17.9h-5.1c-0.4,0-0.8,0.3-0.8,0.8c0,0.4,0.3,0.8,0.8,0.8h1.1v15.3
		c0,2.6,2.1,4.7,4.7,4.7c2.6,0,4.8-2.1,4.8-4.7V28h1.1c0.4,0,0.8-0.3,0.8-0.8C41.9,26.8,41.6,26.5,41.2,26.5z M36,30.4
		c0-0.4,0.3-0.8,0.8-0.8c0.4,0,0.8,0.3,0.8,0.8v12.5c0,0.4-0.3,0.8-0.8,0.8c-0.4,0-0.8-0.3-0.8-0.8V30.4z M33.1,30.4
		c0-0.4,0.3-0.8,0.8-0.8c0.4,0,0.8,0.3,0.8,0.8v12.5c0,0.4-0.3,0.8-0.8,0.8c-0.4,0-0.8-0.3-0.8-0.8V30.4z" class="color0f76bb svgShape"></path>
  <path fill="#ff8066" d="M18.8,32.2V15.8c3-1.5,4.9-4.5,4.9-7.9s-1.9-6.4-4.9-7.9C18.6,0,18.3,0,18,0.1c-0.2,0.1-0.4,0.4-0.4,0.6
		v5.1l-2.8,1.7L12,5.8V0.8c0-0.3-0.1-0.5-0.4-0.6c-0.2-0.1-0.5-0.2-0.7,0c-3,1.5-4.9,4.5-4.9,7.9c0,3.4,1.9,6.4,4.9,7.9v16.4
		c-3,1.5-4.9,4.5-4.9,7.9c0,3.3,1.9,6.4,4.9,7.9C11,48,11.2,48,11.3,48c0.1,0,0.3,0,0.4-0.1c0.2-0.1,0.4-0.4,0.4-0.6v-5.1l2.8-1.7
		l2.8,1.7v5.1c0,0.3,0.1,0.5,0.4,0.6c0.2,0.1,0.5,0.1,0.7,0c3-1.5,4.9-4.5,4.9-7.9C23.6,36.7,21.7,33.7,18.8,32.2z M15.6,30.4
		c0,0.4-0.3,0.8-0.8,0.8c-0.4,0-0.8-0.3-0.8-0.8V17.6c0-0.4,0.3-0.8,0.8-0.8c0.4,0,0.8,0.3,0.8,0.8V30.4z" class="color2d3d4f svgShape"></path>
</svg>
