<svg xmlns="http://www.w3.org/2000/svg" viewBox="0 0 64 64" id="MagnifyingGlass">
  <path fill="#52cc99" d="M7.85,7.85a20.89,20.89,0,1,0,29.54,0A20.91,20.91,0,0,0,7.85,7.85ZM34.46,34.46a16.75,16.75,0,1,1,0-23.69A16.77,16.77,0,0,1,34.46,34.46Z" class="color333333 svgShape"></path>
  <path fill="#52cc99" d="M44.73 39.84l-3.62-3.62a23.15 23.15 0 0 1-4.9 4.9l3.62 3.62-1.64 1.64L52.37 60.56a5.79 5.79 0 1 0 8.19-8.19L46.38 38.19zM58.25 58.25a1 1 0 0 1-.32 1.65 3.73 3.73 0 0 1-4.09-.79l-12-12 1.46-1.46 12 12a1.66 1.66 0 0 0 1.79.36 1 1 0 0 1 1.12.21zM14.11 13.73A12.33 12.33 0 0 0 12 16.39a.54.54 0 0 0 .85.64l.09-.09a13 13 0 0 1 20.61 3 .54.54 0 0 0 1-.39 12.31 12.31 0 0 0-20.43-5.86z" class="color333333 svgShape"></path>
</svg>
