<svg xmlns="http://www.w3.org/2000/svg" viewBox="0 0 64 64" id="Optimisation">
  <circle cx="57" cy="41" r="3" fill="#8f70db" class="color000000 svgShape"></circle>
  <path d="M58 44h-2a4 4 0 0 0-4 4v5l2 1v8h6v-8l2-1v-5a4 4 0 0 0-4-4z" fill="#8f70db" class="color000000 svgShape"></path>
  <circle cx="45" cy="41" r="3" fill="#8f70db" class="color000000 svgShape"></circle>
  <path d="M40 48v5l2 1v8h6v-8l2-1v-5a4 4 0 0 0-4-4h-2a4 4 0 0 0-4 4zm2-34v-4h-2.262a7.968 7.968 0 0 0-.852-2.058l1.599-1.599-2.828-2.828-1.599 1.599A7.968 7.968 0 0 0 34 4.262V2h-4v2.262a7.968 7.968 0 0 0-2.058.852l-1.599-1.599-2.828 2.828 1.599 1.599A7.968 7.968 0 0 0 24.262 10H22v4h2.262c.189.732.477 1.422.852 2.058l-1.599 1.599 2.828 2.828 1.599-1.599a7.953 7.953 0 0 0 2.058.852V22h4v-2.262a7.968 7.968 0 0 0 2.058-.852l1.599 1.599 2.828-2.828-1.599-1.599A7.953 7.953 0 0 0 39.738 14H42zm-10 2a4 4 0 1 1 0-8 4 4 0 0 1 0 8z" fill="#8f70db" class="color000000 svgShape"></path>
  <path d="m57 26 4-10H50l2 3-21 10-6-4L3 35l3 5 19-9 6 4 24-12zM2 52h8v10H2zM14 46h8v16h-8zM26 39h8v23h-8z" fill="#8f70db" class="color000000 svgShape"></path>
</svg>
