<svg xmlns="http://www.w3.org/2000/svg" width="512" height="512" fill-rule="evenodd" clip-rule="evenodd" image-rendering="optimizeQuality" shape-rendering="geometricPrecision" text-rendering="geometricPrecision" viewBox="0 0 512 512" id="security-check">
  <path fill="#e1e6e9" d="M256 512c-1,0 -2,0 -2,-1 -91,-39 -141,-87 -167,-121 -28,-36 -34,-64 -35,-65 0,0 0,-1 0,-1l0 -241c0,-2 2,-5 4,-6l198 -77c1,0 3,0 4,0l198 77c2,1 4,4 4,6l0 241c0,0 0,1 0,1 -1,1 -7,29 -35,65 -26,34 -76,82 -167,121 0,1 -1,1 -2,1z"></path>
  <path fill="#35b79e" d="M256 454c-1,0 -2,0 -2,0 -70,-31 -109,-68 -129,-94 -22,-28 -27,-50 -27,-50 0,-1 0,-1 0,-2l0 -185c0,-3 1,-5 4,-6l152 -59c1,0 3,0 4,0l152 59c3,1 4,3 4,6l0 185c0,1 0,1 0,2 0,0 -5,22 -27,50 -20,26 -59,63 -129,94 0,0 -1,0 -2,0z"></path>
  <path fill="#e1e6e9" d="M323 249c-2,0 -4,-1 -5,-2 -14,-21 -37,-33 -62,-33 -25,0 -48,12 -62,33 -2,2 -4,3 -7,2 -2,-1 -4,-3 -4,-6l0 -35c0,-41 33,-73 73,-73 40,0 73,32 73,73l0 35c0,3 -2,5 -4,6 -1,0 -1,0 -2,0zm-67 -47c23,0 45,9 61,25l0 -19c0,-34 -27,-61 -61,-61 -34,0 -61,27 -61,61l0 19c16,-16 38,-25 61,-25z"></path>
  <path fill="#fcb73e" d="M256 377c-48,0 -88,-39 -88,-87 0,-49 40,-88 88,-88 48,0 88,39 88,88 0,48 -40,87 -88,87z"></path>
  <path fill="#3bb3e3" d="M256 344c-30,0 -55,-24 -55,-54 0,-30 25,-55 55,-55 30,0 55,25 55,55 0,30 -25,54 -55,54z"></path>
  <path fill="#fff" d="M245 312c-1,0 -3,-1 -4,-2l-11 -11c-2,-2 -2,-6 0,-8 2,-3 6,-3 9,0l6 6 28 -28c3,-2 7,-2 9,0 2,3 2,7 0,9l-32 32c-1,1 -3,2 -5,2z"></path>
</svg>
