<svg xmlns="http://www.w3.org/2000/svg" viewBox="0 0 512 512" id="training">
  <path fill="#b6dbff" d="M197.675,11H482.685c10.108,0,18.315,8.207,18.315,18.315v238.043c0,10.109-8.207,18.316-18.316,18.316H197.675c-10.109,0-18.316-8.207-18.316-18.316V29.315c0-10.108,8.207-18.315,18.315-18.315Z"></path>
  <path fill="#e3f1ff" d="M197.675,11H466.935c10.108,0,18.315,8.207,18.315,18.315v238.044c0,10.109-8.207,18.316-18.316,18.316H197.675c-10.109,0-18.316-8.207-18.316-18.316V29.315c0-10.108,8.207-18.315,18.315-18.315Z"></path>
  <path fill="#909cd1" fill-rule="evenodd" d="M395.53,62.516c-3.866,0-7-3.134-7-7s3.134-7,7-7h60.75c3.866,0,7,3.134,7,7s-3.134,7-7,7h-60.75Zm18,54.749c-3.866,0-7-3.134-7-7s3.134-7,7-7h42.75c3.866,0,7,3.134,7,7s-3.134,7-7,7h-42.75Zm-35.25-27.375c-3.866,0-7-3.134-7-7s3.134-7,7-7h78c3.866,0,7,3.134,7,7s-3.134,7-7,7h-78Z"></path>
  <path fill="#f9ac00" fill-rule="evenodd" d="M420.087,156.174l7.401-4.963c1.206-.808,2.776-.655,3.802,.371l11.455,11.455c1.026,1.026,1.18,2.597,.371,3.802l-4.963,7.401,6.296,15.196,8.742,1.724c1.424,.281,2.426,1.499,2.426,2.951v16.2c0,1.452-1.002,2.671-2.426,2.951l-8.742,1.723-6.296,15.196,4.963,7.401c.808,1.206,.655,2.776-.371,3.802l-11.455,11.454c-1.026,1.026-2.597,1.18-3.802,.372l-7.401-4.964-15.196,6.295-1.724,8.742c-.281,1.424-1.5,2.426-2.951,2.426h-16.199c-1.451,0-2.671-1.002-2.951-2.426l-1.724-8.742-15.195-6.295-7.402,4.964c-1.205,.808-2.776,.655-3.802-.372l-11.455-11.454c-1.026-1.026-1.18-2.597-.371-3.802l4.963-7.401-6.295-15.196-8.742-1.723c-1.424-.281-2.426-1.5-2.426-2.951v-16.2c0-1.452,1.002-2.67,2.427-2.951l8.742-1.724,6.295-15.196-4.963-7.401c-.809-1.206-.655-2.776,.371-3.802l11.455-11.455c1.026-1.026,2.597-1.179,3.802-.371l7.402,4.963,15.196-6.295,1.724-8.742c.281-1.424,1.5-2.426,2.951-2.426h16.199c1.451,0,2.671,1.002,2.951,2.426l1.724,8.742,15.196,6.295Z"></path>
  <path fill="#fcdb35" fill-rule="evenodd" d="M420.087,156.174l5.371-3.602,12.213,12.213-6.341,9.455,6.295,15.196,11.168,2.202v21.146l-11.168,2.202-6.295,15.196,6.341,9.455-12.213,12.212-10.9-7.309-15.809,6.55-2.883,14.621h-11.85c-1.451,0-2.67-1.002-2.951-2.426l-1.724-8.742-20.851-8.638-7.472,5.011-9.531-9.531c-1.026-1.026-1.18-2.597-.371-3.802l4.963-7.401-6.295-15.196-8.742-1.723c-1.424-.281-2.426-1.5-2.426-2.951v-16.2c0-1.452,1.002-2.671,2.426-2.951l8.742-1.724,6.295-15.196-4.963-7.401c-.809-1.206-.655-2.777,.371-3.803l9.531-9.53,7.472,5.011,5.656-2.343,15.196-6.295,1.724-8.741c.281-1.424,1.5-2.426,2.951-2.426h11.85l2.883,14.621,15.809,6.55,5.529-3.707Z"></path>
  <circle cx="386.945" cy="202.21" r="32.565" fill="#f9ac00" transform="rotate(-22.5 386.946 202.21)"></circle>
  <circle cx="392.117" cy="202.21" r="32.565" fill="#e3f1ff"></circle>
  <path fill="#5d689e" fill-rule="evenodd" d="M316.213,48.428l7.401-4.963c1.206-.808,2.776-.655,3.802,.371l11.455,11.455c1.026,1.026,1.179,2.597,.371,3.802l-4.963,7.401,6.296,15.196,8.742,1.724c1.424,.281,2.426,1.499,2.426,2.951v16.199c0,1.452-1.002,2.671-2.426,2.951l-8.742,1.723-6.296,15.196,4.963,7.401c.808,1.206,.655,2.776-.371,3.802l-11.455,11.454c-1.026,1.026-2.597,1.18-3.802,.372l-7.401-4.964-15.196,6.295-1.724,8.742c-.281,1.424-1.5,2.426-2.951,2.426h-16.199c-1.451,0-2.671-1.002-2.952-2.426l-1.723-8.742-15.195-6.295-7.402,4.964c-1.205,.808-2.776,.655-3.802-.372l-11.455-11.454c-1.026-1.026-1.18-2.597-.371-3.802l4.963-7.401-6.296-15.196-8.742-1.723c-1.424-.281-2.426-1.5-2.426-2.951v-16.199c0-1.452,1.002-2.67,2.426-2.951l8.742-1.724,6.296-15.196-4.963-7.401c-.809-1.206-.655-2.776,.371-3.802l11.455-11.455c1.026-1.026,2.597-1.179,3.802-.371l7.402,4.963,15.196-6.296,1.723-8.742c.281-1.424,1.5-2.426,2.952-2.426h16.199c1.451,0,2.67,1.002,2.951,2.426l1.724,8.742,15.196,6.296Z"></path>
  <path fill="#909cd1" fill-rule="evenodd" d="M316.213,48.428l5.371-3.602,12.213,12.213-6.341,9.455,6.295,15.196,11.168,2.202v21.146l-11.168,2.202-6.295,15.196,6.341,9.455-12.213,12.212-10.9-7.309-15.809,6.55-2.883,14.621h-11.85c-1.451,0-2.67-1.002-2.951-2.426l-1.723-8.742-20.851-8.638-7.472,5.011-9.531-9.531c-1.026-1.026-1.18-2.597-.371-3.802l4.963-7.401-6.296-15.196-8.742-1.723c-1.424-.281-2.426-1.5-2.426-2.951v-16.199c0-1.452,1.002-2.671,2.426-2.951l8.742-1.724,6.296-15.196-4.963-7.401c-.808-1.206-.655-2.776,.371-3.803l9.531-9.53,7.472,5.011,5.656-2.343,15.196-6.296,1.723-8.742c.281-1.424,1.5-2.426,2.951-2.426h11.85l2.883,14.621,15.809,6.55,5.529-3.707Z"></path>
  <circle cx="283.071" cy="94.464" r="32.565" fill="#5d689e"></circle>
  <circle cx="288.243" cy="94.464" r="32.565" fill="#e3f1ff"></circle>
  <path fill="#4eb1fc" fill-rule="evenodd" d="M51.425,326.854c0,11.117-9.096,20.213-20.212,20.213s-20.213-9.096-20.213-20.213v-72.86c0-25.409,20.724-46.132,46.132-46.132h57.163c15.74,0,29.284-5.611,40.414-16.74l49.3-49.3c7.861-7.861,20.724-7.861,28.585,0,7.861,7.861,7.861,20.724,0,28.585l-78.143,78.143c-7.33,7.329-11.025,16.25-11.025,26.616v67.213l13.323,158.621h-41.706l-13.141-119.16c-.253-2.293-2.169-4.01-4.476-4.01s-4.223,1.717-4.477,4.01l-13.141,119.16H38.103l13.323-158.621v-15.524Z"></path>
  <path fill="#85caff" fill-rule="evenodd" d="M51.425,326.854c0,11.117-9.096,20.213-20.212,20.213s-20.213-9.096-20.213-20.213v-72.86c0-25.409,20.724-46.132,46.132-46.132h57.163c15.74,0,29.284-5.611,40.414-16.74l49.3-49.3c1.996-1.996,4.316-3.484,6.793-4.466,2.477,.982,4.796,2.47,6.792,4.466,7.861,7.861,7.86,20.724,0,28.585l-78.143,78.143c-7.33,7.329-11.024,16.25-11.024,26.616v67.213l13.322,158.621h-26.705l-13.141-119.16c-.253-2.293-2.169-4.01-4.476-4.01s-4.223,1.717-4.477,4.01l-13.141,119.16H38.103l13.323-158.621v-15.524Z"></path>
  <circle cx="97.427" cy="155.445" r="38.139" fill="#fdb0a0" transform="rotate(-45 97.427 155.446)"></circle>
  <path fill="#ffcec0" fill-rule="evenodd" d="M89.177,192.687c-17.097-3.771-29.889-19.011-29.889-37.242s12.792-33.471,29.889-37.242c17.097,3.771,29.889,19.011,29.889,37.242s-12.792,33.471-29.889,37.242Z"></path>
  <path fill="#2a93fc" fill-rule="evenodd" d="M51.425,326.854c0,11.116-9.096,20.213-20.213,20.213h0c-2.458,0-4.816-.445-7-1.258,7.694-2.863,13.213-10.295,13.213-18.955v-67.941c0-3.85,3.15-7,7-7s7,3.15,7,7v67.941Z"></path>
  <path fill="#a34f41" fill-rule="evenodd" d="M143.427,326.854v15.524l13.323,158.621h-41.706l-13.141-119.16c-.253-2.293-2.169-4.01-4.476-4.01s-4.223,1.717-4.477,4.01l-13.141,119.16H38.103l13.323-158.621v-15.524h92.002Z"></path>
  <path fill="#c86f5c" fill-rule="evenodd" d="M141.749,501h-26.705l-13.141-119.16c-.253-2.293-2.169-4.01-4.476-4.01s-4.223,1.717-4.477,4.01l-13.141,119.16H38.103l13.323-158.621v-15.524h77.002v15.524l13.322,158.621Z"></path>
  <path fill="#4eb1fc" fill-rule="evenodd" d="M279.86,417.95c38.501,0,70.111,29.482,73.5,67.1v15.722H206.361v-15.722c3.389-37.618,34.999-67.1,73.5-67.1Z"></path>
  <path fill="#85caff" fill-rule="evenodd" d="M333.679,500.772h-127.319v-15.722c3.096-34.357,29.733-61.923,63.659-66.444,33.927,4.521,60.564,32.087,63.66,66.444v15.722Z"></path>
  <circle cx="279.861" cy="380.708" r="37.004" fill="#fdb0a0" transform="rotate(-10.519 279.851 380.7)"></circle>
  <path fill="#ffcec0" fill-rule="evenodd" d="M271.167,416.683c-16.242-3.911-28.311-18.532-28.311-35.974s12.069-32.064,28.311-35.974c16.242,3.911,28.311,18.532,28.311,35.974s-12.069,32.063-28.311,35.974Z"></path>
  <path fill="#4eb1fc" fill-rule="evenodd" d="M427.287,417.95c38.501,0,70.111,29.482,73.5,67.1v15.722h-147v-15.722c3.389-37.618,34.999-67.1,73.499-67.1Z"></path>
  <path fill="#85caff" fill-rule="evenodd" d="M481.105,500.772h-127.319v-15.722c3.096-34.357,29.733-61.923,63.659-66.444,33.926,4.521,60.564,32.087,63.66,66.444v15.722Z"></path>
  <circle cx="427.287" cy="380.708" r="37.004" fill="#fdb0a0" transform="rotate(-80.783 427.283 380.708)"></circle>
  <path fill="#ffcec0" fill-rule="evenodd" d="M418.594,416.683c-16.242-3.911-28.311-18.532-28.311-35.974s12.069-32.064,28.311-35.974c16.242,3.911,28.311,18.532,28.311,35.974s-12.069,32.063-28.311,35.974Z"></path>
</svg>
