<svg xmlns="http://www.w3.org/2000/svg" viewBox="0 0 512 512" id="wealth-management">
  <path d="M422.809 172.372v28.581a14.41 14.41 0 0 1-10.123 13.756l-25.123 7.826a14.26 14.26 0 0 0-9.247 8.819q-2.025 5.752-4.569 11.246a14.34 14.34 0 0 0 .886 13.612l12.89 20.614a14.41 14.41 0 0 1-2.028 17.827l-20.21 20.21a14.41 14.41 0 0 1-16.884 2.569L325.1 305.2a14.27 14.27 0 0 0-12.79-.3q-5.454 2.616-11.18 4.725a14.33 14.33 0 0 0-8.983 10.246l-5.461 23.688a14.41 14.41 0 0 1-14.04 11.171h-28.58a14.41 14.41 0 0 1-13.756-10.122l-7.827-25.124a14.26 14.26 0 0 0-8.819-9.247q-5.753-2.025-11.246-4.569a14.34 14.34 0 0 0-13.612.886l-20.613 12.891a14.41 14.41 0 0 1-17.828-2.029l-20.209-20.209a14.41 14.41 0 0 1-2.569-16.885l12.232-23.3a14.27 14.27 0 0 0 .295-12.79q-2.616-5.454-4.725-11.18a14.33 14.33 0 0 0-10.246-8.983l-23.687-5.46a14.41 14.41 0 0 1-11.171-14.04v-28.58a14.41 14.41 0 0 1 10.122-13.756l25.123-7.826a14.26 14.26 0 0 0 9.248-8.819q2.025-5.753 4.568-11.246a14.34 14.34 0 0 0-.886-13.612l-12.89-20.614a14.41 14.41 0 0 1 2.03-17.827l20.209-20.21a14.41 14.41 0 0 1 16.886-2.569l23.3 12.233a14.27 14.27 0 0 0 12.79.294q5.454-2.615 11.18-4.724a14.33 14.33 0 0 0 8.983-10.246l5.461-23.688a14.41 14.41 0 0 1 14.04-11.171h28.58a14.41 14.41 0 0 1 13.754 10.122l7.827 25.123a14.26 14.26 0 0 0 8.819 9.248q5.753 2.025 11.246 4.569a14.34 14.34 0 0 0 13.612-.886L344.9 57.493a14.406 14.406 0 0 1 17.827 2.029l20.209 20.209a14.41 14.41 0 0 1 2.57 16.885l-12.233 23.3a14.27 14.27 0 0 0-.3 12.791q2.616 5.452 4.725 11.18a14.33 14.33 0 0 0 10.246 8.983l23.687 5.46a14.41 14.41 0 0 1 11.178 14.042" style="fill:#365e7d;fill-rule:evenodd"></path>
  <path d="M353.11 188.471a96.565 96.565 0 1 1-96.564-96.564 96.564 96.564 0 0 1 96.564 96.564" style="fill:#ffdf40"></path>
  <path d="M110.413 467.479c-17.15 7-22.319 8.741-31.632 12.439-4.546 1.805-9.864-.749-11.93-5.736L13.894 346.334c-2.1-5.061-.047-10.7 4.554-12.564 13.227-5.357 21.141-8.248 31.572-12.421 4.551-1.82 9.883.73 11.952 5.727l52.959 127.854c2.091 5.048.069 10.677-4.518 12.549" style="fill:#6cf;fill-rule:evenodd"></path>
  <path d="M486.154 396.16c-75.236 40.779-184.424 125.286-269.47 81.262-68.994-35.715-85.436-37.357-104.619-29.411L65.576 335.776l86.408-26.113a82.67 82.67 0 0 1 62.645 6.084c37.194 19.716 99.447 54.079 134.276 80.821l6.323-2.849 93.128-38.551c13.558-5.612 25.446-5.931 36.178 4.074 12.995 12.114 23.804 24.894 1.62 36.918" style="fill:#ffd9b3;fill-rule:evenodd"></path>
  <path d="M274.768 238.621a41 41 0 0 1-10.595 3.9v11.712a8 8 0 1 1-16 0v-11.312a40.3 40.3 0 0 1-8.948-2.591c-9.032-3.816-15.577-10.779-17.957-19.105a8 8 0 1 1 15.383-4.4c1.428 4.994 6.127 7.635 8.8 8.765a25.8 25.8 0 0 0 21.745-1.066c5.79-3.11 9.068-9.523 7.974-15.6-1.479-8.2-10.133-13.971-23.743-15.834-13.4-1.834-23.249-9.184-27.037-20.165a28.39 28.39 0 0 1 6.446-28.784 34.85 34.85 0 0 1 17.335-9.431v-11.677a8 8 0 0 1 16 0v11.459a37.42 37.42 0 0 1 21.933 13.321 8 8 0 0 1-12.42 10.087 21.61 21.61 0 0 0-15.994-8.119c-5.914-.267-11.817 1.849-15.374 5.513a12.26 12.26 0 0 0-2.8 12.422c1.774 5.145 6.774 8.529 14.079 9.529 20.621 2.822 34.571 13.606 37.32 28.847a30.83 30.83 0 0 1-16.147 32.529" style="fill:#ff9100"></path>
</svg>
