<svg xmlns="http://www.w3.org/2000/svg" enable-background="new 0 0 66 66" viewBox="0 0 66 66" id="BrickWall">
  <path d="M51.7352257,18.0515881c-5.182579,0-9.4547768,0-11.4403915,0v-5.5062313c2.1474075,0,7.8153,0,11.4403915,0V18.0515881z
		 M51.7352257,32.2128105c-5.182579,0-9.4547768,0-11.4403915,0v-5.5062313c2.1474075,0,7.8153,0,11.4403915,0V32.2128105z
		 M51.7352257,46.3740311c-0.2181511,0-11.5414581,0-11.4403915,0v-5.5062294c2.1474075,0,7.8153,0,11.4403915,0V46.3740311z
		 M43.058712,53.4546432c-2.1331367,0-17.1421661,0-20.1169109,0V47.94841c-0.1003017,0,3.9664307,0,20.1169109,0V53.4546432z
		 M14.2652864,40.8678017c0.2181501,0,11.5414591,0,11.4403925,0v5.5062294c-2.1474075,0-7.8153,0-11.4403925,0V40.8678017z
		 M38.7204514,46.3740311H27.2800598v-5.5062294h11.4403915V46.3740311z M43.058712,39.2934189
		c-2.9890938,0-17.9875507,0-20.1169109,0v-5.5062294c0.1006947,0,4.459343,0,4.3382587,0c5.8056946,0,10.180748,0,15.7786522,0
		V39.2934189z M14.2652864,26.7065792c5.1825781,0,9.4547777,0,11.4403925,0v5.5062313c-2.1474075,0-7.8153,0-11.4403925,0
		V26.7065792z M38.7204514,32.2128105H27.2800598v-5.5062313h11.4403915V32.2128105z M43.058712,25.1321983
		c-0.3842125,0-20.9019032,0-20.1169109,0V19.625967c2.1331367,0,17.142168,0,20.1169109,0V25.1321983z M14.2652864,12.5453568
		c5.1825781,0,9.4547777,0,11.4403925,0v5.5062313c-2.1474075,0-7.8153,0-11.4403925,0V12.5453568z M38.7204514,18.0515881
		H27.2800598v-5.5062313h11.4403915V18.0515881z M22.9418011,5.464746H43.058712v5.5062308c-7.0488739,0-13.0458965,0-20.1169109,0
		V5.464746z M1.25,5.464746h20.1174221v5.5062308c-2.8537331,0-17.2975235,0-20.1174221,0V5.464746z M1.25,12.5453568h11.4409056
		v5.5062313H1.25V12.5453568z M1.25,19.625967c0.6809936,0,21.4317303,0,20.1174221,0v5.5062313
		c-2.8537331,0-17.2975235,0-20.1174221,0V19.625967z M1.25,26.7065792h11.4409056v5.5062313H1.25V26.7065792z M1.25,33.7871895
		c0.6809936,0,21.4317303,0,20.1174221,0v5.5062294c-6.7915554,0-11.228322,0-20.1174221,0V33.7871895z M1.25,40.8678017h11.4409056
		v5.5062294H1.25V40.8678017z M1.25,47.94841c7.0951777,0,12.4855213,0,20.1174221,0v5.5062332
		c-6.7915554,0-11.228322,0-20.1174221,0V47.94841z M12.6909056,60.5352516H1.25v-5.5062294h11.4409056V60.5352516z
		 M25.7056789,60.5352516H14.2652864v-5.5062294c0.1524897,0,9.1403856,0,8.6765146,0h2.7638779V60.5352516z M38.7204514,60.5352516
		H27.2800598v-5.5062294h11.4403915V60.5352516z M51.7352257,60.5352516H40.2948341v-5.5062294c2.1474075,0,7.8153,0,11.4403915,0
		V60.5352516z M64.75,60.5352516H53.3096085v-5.5062294H64.75V60.5352516z M64.75,53.4546432c-7.0982208,0-12.4779015,0-20.116909,0
		V47.94841c0.1524887,0,9.1403847,0,8.6765175,0H64.75V53.4546432z M64.75,46.3740311H53.3096085v-5.5062294H64.75V46.3740311z
		 M64.75,39.2934189c-7.0982208,0-12.4779015,0-20.116909,0v-5.5062294c6.7913818,0,11.228035,0,20.116909,0V39.2934189z
		 M64.75,32.2128105H53.3096085v-5.5062313H64.75V32.2128105z M64.75,25.1321983c-4.1264496,0-12.7730408,0-20.116909,0V19.625967
		c7.3596649,0,15.9930878,0,20.116909,0V25.1321983z M64.75,18.0515881H53.3096085v-5.5062313H64.75V18.0515881z
		 M44.633091,10.9709768V5.464746H64.75v5.5062308C57.6517792,10.9709768,52.2720985,10.9709768,44.633091,10.9709768z" fill="#767fad" class="color000000 svgShape"></path>
</svg>
