<svg xmlns="http://www.w3.org/2000/svg" xml:space="preserve" id="financial-stock-market-fluctuations" x="0" y="0" enable-background="new 0 0 2950 2950" version="1.1" viewBox="0 0 2950 2950">
  <path fill="#2a9d90" d="M1877.19,2178.81c-23.49,0-46.72-8.68-64.59-26.55l-535.35-535.61l-525.91,526.42
				c-34.21,33.7-94.97,33.7-129.18,0L26.81,1547.72c-35.74-35.74-35.74-93.95,0-129.69s93.44-35.74,129.18,0l530.76,531.01
				l525.91-526.42c34.21-33.7,94.97-33.7,129.18,0l535.35,535.61l757.46-757.72c35.74-35.74,93.44-35.74,129.18,0
				c35.74,35.74,35.74,93.95,0,129.69l-822.05,822.05C1923.9,2170.12,1900.67,2178.81,1877.19,2178.81z"></path>
  <polygon fill="#2a9d90" points="2822.54 1490.66 2950 1014.79 2474.07 1142.18"></polygon>
  <g>
    <rect width="26.8" height="23.45" x="1479.73" y="1346.75" fill="#f4c99a" transform="rotate(-39.258 1493.105 1358.5)"></rect>
    <path fill="#353434" d="m1462.78 1365.25 39.32 48.11c.59.72 1.5.68 2.51.24 3.82-1.66 5.06-6.49 2.9-10.05-4.03-6.64-5.21-23.22-6.05-36.75-10.04-5.28-17.9-8.78-15.8-18.31.08-.35-.31-.61-.61-.42l-21.84 14.28C1462.24 1363.01 1462.05 1364.35 1462.78 1365.25zM1609.63 1181.79c.42 2.74 2.69 79.85 2.69 79.85l-124.26 80.11 21.84 30.32 168.43-84.09 6.86-73.7L1609.63 1181.79z"></path>
    <path fill="#d2d8d5" d="M1434.89,1513.85c-63.31-51.38-73.02-144.68-21.64-207.99c51.38-63.31,144.68-73.02,207.99-21.64
				c63.31,51.38,73.02,144.68,21.64,207.99C1591.5,1555.52,1498.2,1565.22,1434.89,1513.85z M1604.92,1304.33
				c-52.22-42.38-129.18-34.36-171.55,17.85c-42.37,52.21-34.37,129.17,17.85,171.55c52.22,42.38,129.18,34.36,171.55-17.85
				C1665.14,1423.67,1657.14,1346.71,1604.92,1304.33z"></path>
    <polygon fill="#5facf2" points="1524.83 1393.44 1592.31 1183.98 1604.65 1187.93 1537.16 1397.39"></polygon>
    <path fill="#5facf2" d="M1501.65,1431.58c-19.95-16.19-23.01-45.58-6.83-65.52c16.18-19.94,45.57-23,65.52-6.81
				c19.94,16.18,23,45.57,6.82,65.51C1550.98,1444.7,1521.59,1447.76,1501.65,1431.58z M1552.18,1369.31
				c-14.4-11.68-35.62-9.49-47.3,4.91c-11.68,14.4-9.47,35.62,4.93,47.3c14.4,11.68,35.61,9.48,47.29-4.92
				C1568.79,1402.2,1566.58,1380.99,1552.18,1369.31z"></path>
    <rect width="12.97" height="94.99" x="1580.61" y="1352.91" fill="#5facf2" transform="rotate(-40.474 1587.18 1400.45)"></rect>
    <path fill="#353434" d="M1618.04,1082.93c0,0,171.2,137.33,176.46,162.42c5.26,25.09-190.89,110.91-190.89,110.91l-17.18-29.15
			l117.33-80.94c0,0-95.23-36.24-118.45-91.32C1571.96,1123.2,1618.04,1082.93,1618.04,1082.93z"></path>
    <rect width="12.96" height="102.27" x="1465.01" y="1337.43" fill="#5facf2" transform="rotate(-42.033 1471.37 1388.472)"></rect>
    <rect width="26.8" height="23.45" x="1573.02" y="1335.35" fill="#f4c99a" transform="rotate(-39.258 1586.395 1347.1)"></rect>
    <path fill="#353434" d="m1556.07 1353.85 39.32 48.11c.59.72 1.5.68 2.51.24 3.82-1.66 5.06-6.49 2.9-10.05-4.03-6.64-5.21-23.22-6.05-36.75-10.04-5.28-17.9-8.78-15.8-18.31.08-.35-.31-.61-.61-.42l-21.84 14.28C1555.53 1351.61 1555.34 1352.95 1556.07 1353.85zM1603.71 1156.57c-4.21-2.21-47.53-13.95-37.43 9.86 10.1 23.81 92.38 46.74 92.38 46.74L1603.71 1156.57z"></path>
    <circle cx="1530.99" cy="1395.42" r="12.04" fill="#5facf2"></circle>
    <path fill="#f4c99a" d="M1739.28,830.61l14.29-28.56c0,0,15.8-2.05,14.65-9.54c-1.15-7.49-4.44-13.63-4.44-13.63s0.27-6.45-3.76-7.42
			c-4.03-0.97-4.25,1.01-4.25,1.01s-4.44-3.51-7.19,1.43c0,0-4.57-1.3-5.53,3.99c0,0-4.15,0.28-6.34,7c0,0,1.62,10.63,0.17,12.12
			c-0.88,0.9-17.16,24.01-17.16,24.01L1739.28,830.61z"></path>
    <g>
      <path fill="#f4c99a" d="M1930.31,990.17l25-19.86c0,0-1.24-15.89,6.32-16.3c7.57-0.41,14.26,1.54,14.26,1.54s6.26-1.59,8.03,2.15
				c1.78,3.75-0.11,4.37-0.11,4.37s4.35,3.63,0.08,7.33c0,0,2.21,4.2-2.77,6.23c0,0,0.58,4.12-5.54,7.65c0,0-10.73,0.61-11.89,2.33
				c-0.7,1.04-19.96,21.74-19.96,21.74L1930.31,990.17z"></path>
      <path fill="#e63a48" d="M1945.67,974.46l-53.17,37.43c-2.48,1.63-51.6,6.26-64.07,0.57c-0.66-0.45-1.27-0.87-1.93-1.32
				c-9.34-8.65-18.56-16.73-27.68-24.22c-16.48-15.73-35.95-31.4-58-47.01c-0.58-0.55-1.11-1.07-1.69-1.62
				c-8.14-11.03-12.08-63.28-11-66.05l23.35-59.9l-20.16-12.35l-38.44,68.6c-4.06,6.22,8.83,92.05,12.26,98.58
				c-0.46,0.49-81.39,106.17-92.64,119.82c-0.73,0.89-0.57,2.18,0.33,2.93l97.84,70.87c0.94,0.78,2.28,0.67,3-0.28
				c27.38-36.2,90.69-109.18,90.69-109.18c7.93,2.11,92.44-0.43,97.69-5.69l59.85-54.01L1945.67,974.46z"></path>
    </g>
    <g>
      <path fill="#f4c99a" d="M1796.59,981.26c1.44-2.14,2.47-3.68,2.47-3.68s11.93,4.51,13.28,4.61c2.68,0.21,9.91-5.03,14.86-13.32
				c4.94-8.29,9.01-17.22,10.67-20.92c1.65-3.7,8.32-18.64-2.13-31.1c-10.45-12.46-31.53-15.14-43.26-4.4
				c-11.73,10.74-15.22,22.03-14.87,27.4c0.35,5.37-1.44,13.54-2.62,16.44c-0.47,1.14-2.44,4.55-4.67,8.28
				c-4.18,6.99-2.26,16.01,4.39,20.7l0,0C1781.85,990.32,1791.72,988.5,1796.59,981.26z"></path>
      <path fill="#323131" d="M1791.13,932.02c0.23,2.06-0.3,6.27-0.3,6.27c3.42-1.32,14.9-16.03,15.19-21.39
				c-0.65,3.4,25.19,11.43,32.16,13.01c1.45,0.33,2.86,1.73,2.91,3.47c0.06,1.88-1.61,9.93-2.12,11.97
				c1.66-2.48,2.91-5.07,4.35-7.67c1.36-2.46,14.21-7.74,13.32-14.29c-1.3-9.51-32.33-21.34-36.23-22.46
				c-4.29-1.24-18.84-2.95-22.65,2.08c-5.58-0.03-10.05,1.06-13.94,9.72c-1.87,4.17-3.59,8.45-5.32,12.69
				c-1.72,4.21-2.12,8.32-2.76,12.8c-0.55,3.83-0.76,7.68-1.18,11.52c-0.07,0.68-0.76,6.25,0.5,6.44c0.21,0.03,3.6-3.41,4.45-4.31
				c1.35-1.42,2.16-3.14,3.06-4.83c0.34-0.63,0.86-1.3,0.88-2.04c0.02-1.16-1.17-1.61-1.91-2.28c-2.34-2.12-2.31-5.54-1.38-8.33
				c1.01-3.02,3.08-6.62,6.78-6.25c1.93,0.19,3.75,1.64,4.16,3.57C1791.1,931.81,1791.12,931.91,1791.13,932.02z"></path>
    </g>
  </g>
</svg>
