<svg xmlns="http://www.w3.org/2000/svg" xml:space="preserve" id="growth" x="0" y="0" enable-background="new 0 0 48 48" version="1.1" viewBox="0 0 48 48">
  <g id="layer1" fill="#8f70db" class="color000000 svgShape">
    <path id="path186" d="M37.033,6.088c-0.578-0.021-1.261,0.451-1.445,1c-0.184,0.547,0.074,1.337,0.547,1.67l2.639,1.859   l-10.912,9.785l-5.797-4.504c-0.002,0.003-0.003,0.003-0.006,0.006c-0.507-0.402-1.218-0.5-1.836-0.188L2.939,24.479   c-0.847,0.43-1.181,1.456-0.752,2.303s1.454,1.182,2.301,0.752l16.32-8.271l6.08,4.725c0.476,0.37,1.08,0.449,1.607,0.268   c0.002,0,0.004-0.001,0.006-0.002c0.013-0.004,0.024-0.013,0.037-0.018c0.092-0.034,0.182-0.075,0.268-0.125h0.002   c0.006-0.003,0.012-0.008,0.018-0.012c0.086-0.052,0.169-0.111,0.246-0.18c0.006-0.005,0.012-0.009,0.018-0.014l11.852-10.631   l1.287,2.678c0.25,0.521,0.986,0.908,1.557,0.816c0.572-0.092,1.15-0.687,1.225-1.26l0.979-7.494   c0.049-0.369-0.065-0.795-0.293-1.09c0,0-0.002-0.001-0.002-0.002c-0.02-0.026-0.033-0.044-0.047-0.061   c-0.006-0.004-0.01-0.009-0.016-0.014c-0.256-0.287-0.664-0.481-1.047-0.494c0,0,0,0.001,0,0.002L37.033,6.088z M43.309,19.326   c-0.232,0.008-0.463,0.05-0.682,0.127l-2.65,0.938c-0.896,0.314-1.547,1.232-1.549,2.182v2.76v2.674v1.25v0.086v1.246v1.428v2.582   v0.092v2.674v2.58c0,1.091,0.878,1.969,1.969,1.969h3.344c1.091,0,1.969-0.878,1.969-1.969v-3.867v-1.479v-0.93v-1.652v-1.02   v-1.654v-1.02v-0.316v-2.357v-1.336v-2.674c0-0.621-0.262-1.237-0.709-1.668S43.929,19.303,43.309,19.326z M19.248,26.01   c-0.232,0.008-0.463,0.051-0.682,0.127l-2.65,0.938c-0.896,0.314-1.544,1.232-1.547,2.182v2.76v2.582V34.6v0.002v2.762v2.58   c0,1.091,0.878,1.969,1.969,1.969h3.344c1.091,0,1.969-0.878,1.969-1.969v-3.867v-2.408v-2.939v-2.406   c0-0.621-0.264-1.237-0.711-1.668S19.868,25.986,19.248,26.01z M31.277,28.682c-0.232,0.008-0.463,0.053-0.682,0.129l-2.648,0.938   c-0.896,0.314-1.547,1.23-1.549,2.18v2.762v2.674v2.58c0,1.091,0.878,1.969,1.969,1.969h3.344c1.091,0,1.969-0.878,1.969-1.969   v-3.867v-2.408v-2.672c0-0.621-0.264-1.237-0.711-1.668S31.897,28.658,31.277,28.682z M7.219,31.355   c-0.232,0.008-0.463,0.053-0.682,0.129l-2.65,0.936c-0.896,0.314-1.546,1.232-1.549,2.182v2.762v2.58   c0,1.091,0.878,1.969,1.969,1.969H7.65c1.091,0,1.969-0.878,1.969-1.969v-3.867v-2.408c0-0.621-0.262-1.235-0.709-1.666   S7.839,31.332,7.219,31.355z" fill="#8f70db" class="color000000 svgShape"></path>
  </g>
</svg>
