<svg xmlns="http://www.w3.org/2000/svg" width="163.839" height="163.839" fill-rule="evenodd" clip-rule="evenodd" image-rendering="optimizeQuality" shape-rendering="geometricPrecision" text-rendering="geometricPrecision" viewBox="0 0 1707 1707" id="person-with-a-wrench-for-skills">
  <g>
    <path fill="#ebebeb" d="M1390 500c-97,0 -182,-54 -224,-139l-625 0c-42,85 -128,139 -224,139 -104,0 -195,-62 -233,-158 -3,-9 -2,-20 3,-28 6,-8 15,-13 25,-13l166 0 0 -101 -166 0c-10,0 -19,-5 -25,-14 -5,-8 -6,-18 -3,-27 38,-97 129,-159 233,-159 96,0 182,54 224,140l625 0c42,-86 127,-140 224,-140 103,0 194,62 232,159 4,9 3,19 -3,27 -5,9 -15,14 -25,14l-165 0 0 101 165 0c10,0 20,5 25,13 6,8 7,19 3,28 -38,96 -129,158 -232,158z"></path>
    <path fill="#bfbfbf" d="M1579 341l-190 0 0 -181 190 0c-35,-74 -107,-120 -189,-120 -81,0 -153,45 -188,117l-11 23 -675 0 -11 -23c-35,-72 -108,-117 -188,-117 -82,0 -155,46 -190,120l191 0 0 181 -191 0c35,73 108,119 190,119 80,0 153,-45 188,-117l11 -22 675 0 11 22c35,72 107,117 188,117 82,0 154,-46 189,-119z"></path>
    <g>
      <path fill="#25738b" d="M1172 1071l-107 0c-14,0 -25,-11 -25,-25l0 -61c-6,-2 -13,-5 -19,-8l-43 44c-10,9 -25,9 -35,0l-76 -76c-10,-10 -10,-26 0,-35l43 -43c-3,-7 -5,-13 -8,-20l-61 0c-13,0 -24,-10 -24,-24l0 -107c0,-14 11,-25 24,-25l61 0c3,-7 5,-13 8,-19l-43 -43c-10,-10 -10,-26 0,-35l76 -76c9,-9 25,-9 35,0l43 43c6,-3 13,-6 19,-8l0 -61c0,-13 11,-24 25,-24l107 0c14,0 25,11 25,24l0 61c6,2 13,5 19,8l43 -43c10,-10 25,-10 35,0l76 76c4,5 7,11 7,17 0,7 -3,13 -7,18l-43 43c2,6 5,12 8,19l60 0c14,0 25,11 25,24l0 108c0,13 -11,24 -25,24l-60 0c-3,7 -6,13 -8,20l43 43c9,9 9,25 0,35l-76 76c-10,9 -25,9 -35,0l-43 -44c-6,3 -13,6 -19,8l0 61c0,14 -11,25 -25,25z"></path>
      <path fill="#1e5e71" d="M1118 908c-76,0 -139,-62 -139,-139 0,-76 63,-139 139,-139 77,0 139,63 139,139 0,77 -62,139 -139,139z"></path>
      <path fill="#fff" d="M1118 878c-60,0 -108,-49 -108,-109 0,-60 48,-108 108,-108 60,0 109,48 109,108 0,60 -49,109 -109,109z"></path>
    </g>
    <g>
      <path fill="#1d81ce" d="M449 1707l-418 0c-15,0 -28,-13 -28,-28l0 -139c0,-122 99,-221 221,-221l50 0c70,0 280,0 350,0l50 0c122,0 221,99 221,221l0 139c0,15 -12,28 -28,28l-418 0z"></path>
      <path fill="#1768a7" d="M227 1707l-38 0 0 -140c0,-11 9,-19 19,-19 10,0 19,8 19,19l0 140zm482 0l-37 0 0 -140c0,-11 8,-19 18,-19 11,0 19,8 19,19l0 140z"></path>
      <path fill="#ffc06d" d="M449 1404c-7,0 -14,-2 -20,-8l-122 -119c-5,-5 -8,-13 -8,-20l0 -81c0,-16 13,-28 28,-28 36,0 209,0 244,0 16,0 28,12 28,28l0 81c0,7 -3,15 -8,20l-122 119c-6,6 -13,8 -20,8z"></path>
      <path fill="#333" d="M505 1491l-78 -97c-9,-12 -7,-30 5,-39 10,-9 116,-117 125,-122 13,-8 30,-4 38,10l53 90c6,10 5,22 -2,31l-97 127c-11,14 -33,15 -44,0z"></path>
      <path fill="#333" d="M349 1491l-97 -127c-7,-9 -7,-21 -2,-31l53 -90c8,-14 25,-18 38,-10 10,5 114,113 126,122 12,9 14,27 4,39l-78 98c-11,14 -33,13 -44,-1z"></path>
      <path fill="#ffc67c" d="M449 1235c-48,0 -96,-13 -139,-37 -61,-35 -91,-77 -116,-130 -20,-43 -49,-122 -25,-182 6,-15 22,-22 36,-16 1,0 2,1 3,1 43,-40 182,-132 476,2 2,-1 4,-2 6,-3 13,-8 30,-3 38,11 51,95 -44,233 -70,262 -54,58 -130,92 -209,92z"></path>
      <path fill="#633" d="M195 924c-6,0 -12,-2 -17,-6 -42,-31 -42,-149 -15,-230 39,-116 130,-167 249,-136 42,11 62,22 78,30 22,12 37,21 123,26 100,5 136,30 138,94 0,24 4,42 9,59 11,46 15,82 -34,150 -5,7 -13,11 -22,11 -8,1 -16,-3 -22,-10 -14,-16 -41,-24 -81,-24 -29,0 -60,4 -90,8 -29,3 -56,6 -79,6 -27,0 -46,-4 -60,-13 -32,-19 -64,-38 -84,-38 -18,0 -36,16 -71,62 -4,6 -11,10 -18,11 -2,0 -3,0 -4,0z"></path>
    </g>
    <g>
      <path fill="#25738b" d="M1438 1707l-116 0c-15,0 -27,-12 -27,-26l0 -66c-7,-2 -14,-5 -20,-9l-47 47c-10,10 -27,10 -37,0l-82 -82c-10,-10 -10,-27 0,-37l46 -47c-3,-7 -6,-13 -8,-21l-66 0c-15,0 -26,-11 -26,-26l0 -116c0,-14 11,-26 26,-26l66 0c2,-7 5,-14 8,-21l-46 -46c-10,-11 -10,-27 0,-38l82 -82c10,-9 27,-9 37,0l47 47c6,-3 13,-6 20,-9l0 -65c0,-15 12,-27 27,-27l116 0c14,0 26,12 26,27l0 65c7,3 14,6 21,9l46 -47c11,-10 27,-10 38,0l81 82c5,5 8,12 8,19 0,7 -3,14 -8,19l-46 46c3,7 6,14 9,21l65 0c15,0 27,12 27,26l0 116c0,15 -12,26 -27,26l-65 0c-3,8 -6,14 -9,21l46 47c11,10 11,27 0,37l-81 82c-11,10 -27,10 -38,0l-46 -47c-7,4 -14,6 -21,9l0 66c0,14 -12,26 -26,26z"></path>
      <path fill="#1e5e71" d="M1380 1532c-83,0 -150,-67 -150,-150 0,-82 67,-150 150,-150 82,0 150,68 150,150 0,83 -68,150 -150,150z"></path>
      <path fill="#fff" d="M1380 1499c-65,0 -117,-52 -117,-117 0,-64 52,-117 117,-117 64,0 117,53 117,117 0,65 -53,117 -117,117z"></path>
    </g>
  </g>
</svg>
