<svg xmlns="http://www.w3.org/2000/svg" viewBox="0 0 512 512" id="puzzle">
  <path fill="#7566da" d="M290.73,313.31a40.56,40.56,0,0,0,5.49,19.95,26.32,26.32,0,0,1-24.8,39.21,26.33,26.33,0,0,1-21-39.28,40.37,40.37,0,0,0,5.45-19.88H185.54v70.33a40.38,40.38,0,0,1-19.89-5.45,26.33,26.33,0,1,0-.06,45.8,40.5,40.5,0,0,1,19.95-5.48v70.33h70.33A40.37,40.37,0,0,0,250.42,469a26.33,26.33,0,1,1,45.8-.07,40.56,40.56,0,0,0-5.49,19.95h70.34V313.31Z"></path>
  <path fill="#ff9497" d="M244.7,223.66a26.33,26.33,0,0,0-39.28-21,40.47,40.47,0,0,1-19.88,5.45V137.77H115.2a40.46,40.46,0,0,0,5.49,19.95,26.33,26.33,0,1,1-45.8-.07,40.44,40.44,0,0,0,5.45-19.88H10V313.31H80.34a40.51,40.51,0,0,0-5.45-19.89,26.32,26.32,0,1,1,45.8-.06,40.43,40.43,0,0,0-5.49,19.95h70.34V243a40.39,40.39,0,0,1,19.94,5.49,26.34,26.34,0,0,0,39.22-24.8Z"></path>
  <path fill="#ffdf5a" d="M151,374.8a26.33,26.33,0,0,1,14.7,3.39,40.38,40.38,0,0,0,19.89,5.45V313.31H115.2a40.43,40.43,0,0,1,5.49-19.95,26.34,26.34,0,1,0-45.8.06,40.51,40.51,0,0,1,5.45,19.89H10v70.33a40.37,40.37,0,0,0,19.88-5.45A26.33,26.33,0,1,1,30,424,40.55,40.55,0,0,0,10,418.51v70.33H185.54V418.51A40.5,40.5,0,0,0,165.59,424,26.33,26.33,0,1,1,151,374.8Z"></path>
  <path fill="#46def2" d="M356.33,23.16,317.08,81.53a40.52,40.52,0,0,0,19.54,6.57,26.33,26.33,0,1,1-25.49,38,40.55,40.55,0,0,0-13.5-15.68l-39.24,58.37,58.37,39.24a40.5,40.5,0,0,1-15.62,13.46,26.33,26.33,0,1,0,38,25.61,40.41,40.41,0,0,1,6.58-19.61l58.37,39.24L443.3,208.4a40.55,40.55,0,0,0-19.61-6.58A26.32,26.32,0,0,1,405,159.36a26.32,26.32,0,0,1,44.31,4.5,40.48,40.48,0,0,0,13.46,15.61L502,121.1Z"></path>
</svg>
