<svg xmlns="http://www.w3.org/2000/svg" viewBox="0 0 512 512" id="ruler">
  <path fill="#f9d59b" d="M376 24 24 376l112 112 352-352ZM213.657 373.657l-11.314-11.314 160-160 11.314 11.314Z"></path>
  <path fill="#ffc866" d="m372 212 1.657 1.657-160 160L212 372a107.48 107.48 0 0 1-152 0l-16-16-20 20 112 112 352-352-20-20Z"></path>
  <path fill="#2e4859" d="m26.344 314.34 16-15.999 11.314 11.315-16 15.999zM58.342 282.338l144.005-143.995 11.313 11.314L69.655 293.652z"></path>
  <path fill="#6f8b7b" d="M176 16h64v48h-64z"></path>
  <path fill="#ba763e" d="m176 64 32 80 32-80h-64z"></path>
  <path fill="#b9bec1" d="m208 144 19.2-48h-38.4l19.2 48z"></path>
  <path fill="#2e4859" d="M214.4 96h-25.6l19.2 48 12.8-32-6.4-16z"></path>
  <path fill="#a5662d" d="m176 64 12.8 32h24L200 64h-24z"></path>
  <path fill="#e2a23b" d="m42.343 357.657 11.314-11.314 32 32-11.313 11.314zM66.343 333.657l11.314-11.314 24 24-11.314 11.313zM138.343 261.657l11.314-11.314 32 32-11.313 11.314zM114.343 285.657l11.314-11.314 24 24-11.314 11.313zM186.343 213.657l11.314-11.314 32 32-11.313 11.314zM162.343 237.657l11.314-11.314 24 24-11.314 11.313zM234.343 165.657l11.314-11.314 32 32-11.313 11.314zM210.343 189.657l11.314-11.314 24 24-11.314 11.313zM282.343 117.657l11.314-11.314 32 32-11.313 11.314zM258.343 141.657l11.314-11.314 24 24-11.314 11.313zM330.343 69.657l11.314-11.314 32 32-11.313 11.314zM306.343 93.657l11.314-11.314 24 24-11.314 11.313zM90.343 309.657l11.314-11.314 32 32-11.313 11.314z"></path>
  <path fill="#516b5b" d="M176 16h24v48h-24z"></path>
</svg>
