<svg xmlns="http://www.w3.org/2000/svg" viewBox="0 0 1024 1024" id="Security">
  <path d="M492 85.3v375.6c-.1 10.4-.3 20.8-.3 31.1H175.3c-8.4-.1-16.9-.3-25.4-.3l-.6-3.9V487.1c-.2-1.8-.5-3.7-.7-5.5-.4-3.2-.7-6.3-1.1-9.5-1.3-12.8-2.2-25.6-2.6-38.5-.3-8.1-.3-16.2-.3-24.3V192c116-12 228.9-45.4 332.6-99 5-2.5 9.9-5.1 14.8-7.7zM879.4 192v214.1c0 6 0 11.9-.1 17.9-.2 14.2-1 28.3-2.3 42.4-.6 6.5-1.3 13-2.1 19.4v.6c-.1 1-.4 2.9-.4 3.1-.1.8-.2 1.5-.3 2.3h-320l-22.2-.3V102.6c0-5.8.1-11.7.2-17.5 30 15.8 60.5 30.6 92.1 43.5 55.4 22.7 113 39.8 171.8 51.1 27.5 5.4 55.4 9.4 83.3 12.3zm-12.8 340.2c-3.8 17-8.3 33.7-13.6 50.3-4 12.5-8.4 24.8-13.3 36.9-1.1 2.8-2.3 5.6-3.4 8.4 0 .1-.1.2-.1.3v.1c-.1.1-.1.2-.2.3l-2.1 4.8c-2.6 6-5.4 11.9-8.2 17.8-11.2 23.3-24 45.8-38.3 67.3-7.2 10.9-14.9 21.5-22.8 31.9 0 .1-.1.1-.1.2l-.1.1-.1.1-.3.3c-.9 1.2-1.9 2.4-2.8 3.5-2 2.6-4.1 5.1-6.2 7.6-4.2 5-8.4 10-12.8 14.9-17.3 19.5-36 37.9-55.8 54.9-5 4.3-10.2 8.5-15.3 12.7-1.2 1-2.4 1.9-3.6 2.8-.1.1-.3.2-.4.4-.1.1-.2.2-.4.3-2.9 2.2-5.7 4.3-8.6 6.5-10.6 7.8-21.4 15.2-32.5 22.3-18.8 12-37.8 23.9-56.6 35.8-12.3 7.8-24.7 15.3-37 23V562.2c.1-10 .3-20.1.3-30.2H853.5c4.4.1 8.7.2 13.1.2zm-374.6 0V921.4c0 4.9-.1 9.8-.2 14.7-8.6-5.5-17.3-10.9-25.9-16.4-21.7-13.7-43.5-27.5-65.2-41.2-6.5-4.1-12.9-8.3-19.2-12.6-5.3-3.6-10.5-7.4-15.7-11.2-2.7-2-5.3-4-8-6l-.2-.2-.1-.1-.1-.1-.1-.1h-.1l-.2-.1-4.2-3.3c-20.5-16.3-39.8-34-57.8-53-9-9.5-17.7-19.3-26.1-29.5-1.9-2.3-3.8-4.7-5.7-7-.9-1.2-1.9-2.4-2.8-3.5-.5-.6-.9-1.2-1.4-1.8 0-.1-.1-.1-.1-.2-.1-.1-.1-.2-.2-.2 0 0 0-.1-.1-.1-3.7-4.9-7.4-9.8-11-14.8-15-21-28.6-43.1-40.6-66-6.1-11.5-11.7-23.3-17-35.3-.6-1.4-1.2-2.8-1.8-4.1l-.9-2.1v-.1c.2.5.5 1.2.6 1.3-1.9-2.6-2.8-6.8-4-9.8-2.3-5.8-4.5-11.7-6.7-17.6-8.1-22.6-14.8-45.7-20-69.1H465c9.1.1 18 .2 27 .3z" fill="#ffbf66" class="color000000 svgShape"></path>
</svg>
