<svg xmlns="http://www.w3.org/2000/svg" viewBox="0 0 64 64" id="TechnicalSupport">
  <path fill="#0a75c3" d="M63.03 45.84h-2.32v-33.2c0-2.37-1.93-4.3-4.3-4.3H7.58c-2.37 0-4.3 1.93-4.3 4.3v33.2H.97a.97.97 0 0 0-.97.97v.6c0 4.55 3.69 8.24 8.24 8.24h47.52c4.55 0 8.24-3.69 8.24-8.24v-.6a.97.97 0 0 0-.97-.97zm-26.44 3.87h-9.17c-1.21 0-2.24-.81-2.55-1.93h14.27a2.643 2.643 0 0 1-2.55 1.93zm21.21-3.87H6.2V16.12h51.6v29.72z" class="color22386f svgShape"></path>
  <path fill="#0a75c3" d="M23.64 33.03c.22.87.56 1.69 1 2.42.09.16.09.35 0 .51l-1.45 2.36 1.47 1.47 2.37-1.45a.52.52 0 0 1 .25-.07c.09 0 .18.02.25.07.75.46 1.57.8 2.42 1.01.18.04.32.18.35.36l.65 2.69h2.08l.65-2.7c.04-.17.17-.3.35-.35.85-.21 1.67-.55 2.41-1 .08-.05.18-.07.27-.07.09 0 .18.02.25.07l2.36 1.45 1.47-1.47-1.45-2.36a.534.534 0 0 1 0-.52c.45-.72.79-1.54 1.01-2.43.04-.16.17-.3.35-.34l2.7-.65v-2.08l-2.71-.65a.452.452 0 0 1-.34-.35c-.22-.88-.56-1.69-1-2.41a.515.515 0 0 1 0-.51l1.45-2.37-1.47-1.47-2.36 1.45c-.08.05-.17.07-.27.07-.09 0-.17-.02-.25-.07-.76-.46-1.57-.79-2.41-1a.462.462 0 0 1-.35-.36l-.65-2.7h-2.08l-.65 2.71c-.04.17-.18.31-.35.35-.84.2-1.66.54-2.42 1a.52.52 0 0 1-.25.07.43.43 0 0 1-.25-.07l-2.37-1.45-1.47 1.47 1.45 2.37c.09.16.09.35 0 .51a9.05 9.05 0 0 0-1.01 2.42c-.04.17-.17.3-.35.34l-2.7.65v2.08l2.69.65c.18.03.32.17.36.35zM32 25.69c2.91 0 5.29 2.37 5.29 5.28s-2.37 5.29-5.29 5.29-5.29-2.37-5.29-5.29c0-2.91 2.38-5.28 5.29-5.28z" class="color22386f svgShape"></path>
</svg>
