<svg xmlns="http://www.w3.org/2000/svg" enable-background="new 0 0 32 32" viewBox="0 0 32 32" id="assess">
  <g>
    <path d="M21.91992,21.47313l-1.46973,1.46973l-0.46973-0.46973c-0.29297-0.29297-0.76758-0.29297-1.06055,0
		s-0.29297,0.76758,0,1.06055c0,0,0.9981,0.99811,1,1c0.27697,0.27697,0.76894,0.29161,1.06055,0l2-2
		c0.29297-0.29297,0.29297-0.76758,0-1.06055C22.6875,21.18016,22.21289,21.18016,21.91992,21.47313z"></path>
    <circle cx="9" cy="14.003" r=".75"></circle>
    <path d="M21.75,14.00341c0-0.41406-0.33594-0.75-0.75-0.75h-9.5c-0.41406,0-0.75,0.33594-0.75,0.75s0.33594,0.75,0.75,0.75H21
		C21.41406,14.75341,21.75,14.41747,21.75,14.00341z"></path>
    <circle cx="9" cy="17.003" r=".75"></circle>
    <path d="M11.5,16.25341c-0.41406,0-0.75,0.33594-0.75,0.75s0.33594,0.75,0.75,0.75H17c0.41406,0,0.75-0.33594,0.75-0.75
		s-0.33594-0.75-0.75-0.75H11.5z"></path>
    <path d="M26.53027,27.47313l-1.69354-1.69354c0.56824-0.78284,0.91327-1.73706,0.91327-2.77618
		c0-1.08801-0.38232-2.07953-1-2.88129V4.00341c0-0.41406-0.33594-0.75-0.75-0.75h-6c-0.41406,0-0.75,0.33594-0.75,0.75
		s0.33594,0.75,0.75,0.75h5.25v14.09277c-0.67285-0.36584-1.43176-0.59277-2.25-0.59277c-2.61914,0-4.75,2.13086-4.75,4.75
		c0,0.8183,0.22699,1.57715,0.59283,2.25H12.75v-5.25c0-0.41406-0.33594-0.75-0.75-0.75H6.75v-14.5H12
		c0.41406,0,0.75-0.33594,0.75-0.75s-0.33594-0.75-0.75-0.75H6c-0.41406,0-0.75,0.33594-0.75,0.75v17
		c0,0.19873,0.0791,0.38965,0.21973,0.53027l5,5C10.61035,26.6743,10.80078,26.75341,11,26.75341h7.11871
		c0.80176,0.61768,1.79327,1,2.88129,1c1.03912,0,1.99335-0.34503,2.77618-0.91327c0,0,1.68656,1.68657,1.69352,1.69352
		c0.27633,0.27633,0.7692,0.29139,1.06057,0.00002C26.82324,28.24071,26.82324,27.7661,26.53027,27.47313z M6.81055,20.75341H11.25
		v4.43945L6.81055,20.75341z M17.75,23.00341c0-1.79199,1.45801-3.25,3.25-3.25s3.25,1.45801,3.25,3.25s-1.45801,3.25-3.25,3.25
		S17.75,24.7954,17.75,23.00341z"></path>
    <path d="M21.75,7.00341c0-0.41406-0.33594-0.75-0.75-0.75H9c-0.41406,0-0.75,0.33594-0.75,0.75v4c0,0.41406,0.33594,0.75,0.75,0.75
		h12c0.41406,0,0.75-0.33594,0.75-0.75V7.00341z M9.75,7.75341h4.5v2.5h-4.5V7.75341z M20.25,10.25341h-4.5v-2.5h4.5V10.25341z"></path>
    <circle cx="15" cy="4.003" r=".75"></circle>
  </g>
</svg>
