<svg xmlns="http://www.w3.org/2000/svg" xml:space="preserve" id="Backup" x="0" y="0" version="1.1" viewBox="0 0 32 32" enable-background="new 0 0 32 32">
  <g fill="#000000" class="color000000 svgShape">
    <path d="M16,0C11.4,0,7,2,3.9,5.5L2.5,4.1l-0.7,5l5-0.7L5.3,6.9l0,0C8,3.8,11.9,2,16,2c7.7,0,14,6.3,14,14   s-6.3,14-14,14C8.3,30,2,23.7,2,16H0c0,8.8,7.2,16,16,16c8.8,0,16-7.2,16-16S24.8,0,16,0z" fill="#ffffff" class="color34485c svgShape"></path>
    <path d="M24,20v-8c0-2.6-4-4-8-4c-4,0-8,1.4-8,4v8c0,2.6,4,4,8,4C20,24,24,22.6,24,20z M16,10c3.7,0,6,1.3,6,2   s-2.3,2-6,2c-3.7,0-6-1.3-6-2S12.3,10,16,10z M10,14.7c1.5,0.8,3.8,1.3,6,1.3c2.2,0,4.5-0.4,6-1.3V16c0,0.7-2.3,2-6,2   c-3.7,0-6-1.3-6-2V14.7z M10,20v-1.3c1.5,0.8,3.8,1.3,6,1.3c2.2,0,4.5-0.4,6-1.3V20c0,0.7-2.3,2-6,2C12.3,22,10,20.7,10,20z" fill="#ffffff" class="color34485c svgShape"></path>
  </g>
</svg>
