<svg xmlns="http://www.w3.org/2000/svg" width="48" height="48" enable-background="new 0 0 48 48" viewBox="0 0 48 48" id="optimisation">
  <path d="M37.307,2c-0.314,0-0.628,0.11-0.85,0.332C36.318,2.471,36.214,2.7,36.17,2.857
		c-0.004,0.011-0.009,0.021-0.014,0.031c-0.025,0.086-0.039,0.138-0.047,0.232c-0.002,0.019-0.004,0.037-0.006,0.055l0.002,0.008
		c-0.002,0.004-0.002,0.009-0.004,0.014c0,0.003-0.002,0.006-0.002,0.01c0.002,0.004,0.004,0.008,0.006,0.012L36.104,5.91h-7.109
		H11.973c-3.876,0-6.998,3.122-6.998,6.998v5.73v13.168v0.262h0.027c0.127,0.866,0.861,1.529,1.764,1.529s1.639-0.663,1.766-1.529
		h0.025v-0.262V18.639v-5.732c0-1.954,1.46-3.414,3.414-3.414h17.023h7.109l-0.002,2.678c0,0.003,0,0.006,0,0.01
		c0,0.005,0,0.014,0,0.016c-0.002,0.001-0.002,0.002-0.004,0.004c0,0.007,0,0.003,0,0.01c0,0.01,0.004,0.019,0.004,0.014
		c0.002,0.057,0.003,0.087,0,0.076l0.01,0.033c0.001,0.007,0.007,0.026,0.008,0.033c0.005,0.029,0.008,0.059,0.029,0.141
		c0.002,0.005,0.006,0.01,0.008,0.016c0.043,0.173,0.141,0.412,0.289,0.561c0.443,0.443,1.263,0.446,1.703,0.006l4.527-4.525
		c0.227-0.226,0.35-0.548,0.35-0.85c0-0.285-0.123-0.629-0.346-0.852l-4.523-4.529C37.936,2.11,37.621,2,37.307,2z M23.941,11.637
		c-0.355,0.001-0.709,0.023-1.063,0.055c-0.762,0.022-1.393,0.619-1.451,1.379l-0.26,2.389c-0.417,0.138-0.824,0.307-1.217,0.504
		l-1.875-1.5c-0.579-0.496-1.448-0.471-2.002,0.053c-0.272,0.228-0.536,0.465-0.787,0.715c-0.014,0.014-0.028,0.025-0.041,0.039
		l-0.002,0.002l-0.002,0.002c-0.014,0.014-0.026,0.027-0.039,0.041c-0.25,0.252-0.484,0.519-0.711,0.791
		c-0.522,0.556-0.546,1.422-0.049,2l1.508,1.871c-0.192,0.385-0.357,0.783-0.492,1.191l-2.389,0.26
		c-0.76,0.058-1.354,0.689-1.377,1.451c-0.031,0.354-0.053,0.708-0.055,1.063c0,0.019,0,0.038,0,0.057V24v0.002
		c0,0.019,0,0.038,0,0.057c0.001,0.355,0.024,0.709,0.055,1.063c0.021,0.762,0.617,1.393,1.377,1.451l2.389,0.26
		c0.138,0.418,0.307,0.824,0.504,1.217l-1.5,1.875c-0.496,0.579-0.471,1.448,0.053,2.002c0.228,0.271,0.465,0.535,0.715,0.787
		c0.014,0.014,0.024,0.027,0.039,0.041c0,0,0.003,0.002,0.004,0.002v0.002c0.014,0.014,0.028,0.025,0.041,0.039
		c0.252,0.25,0.518,0.484,0.791,0.711c0.556,0.522,1.422,0.547,2,0.049l1.871-1.508c0.385,0.192,0.783,0.357,1.191,0.492l0.26,2.389
		c0.058,0.76,0.689,1.356,1.451,1.379c0.354,0.031,0.708,0.053,1.063,0.055c0.018,0,0.038,0,0.057,0H24h0.002
		c0.018,0,0.038,0,0.057,0c0.355-0.002,0.709-0.023,1.063-0.055c0.762-0.022,1.393-0.619,1.451-1.379l0.26-2.389
		c0.418-0.139,0.824-0.307,1.217-0.504l1.875,1.5c0.579,0.496,1.448,0.471,2.002-0.053c0.271-0.228,0.535-0.465,0.787-0.715
		c0.014-0.014,0.028-0.025,0.041-0.039l0.002-0.002l0.002-0.002c0.014-0.014,0.026-0.027,0.039-0.041
		c0.25-0.252,0.484-0.519,0.711-0.791c0.521-0.556,0.547-1.422,0.049-2l-1.508-1.871c0.192-0.385,0.357-0.783,0.492-1.191
		l2.389-0.26c0.76-0.059,1.354-0.689,1.377-1.451c0.031-0.354,0.053-0.708,0.055-1.063c0-0.019,0-0.038,0-0.057V24v-0.002
		c0-0.019,0-0.038,0-0.057c-0.002-0.355-0.024-0.709-0.055-1.063c-0.021-0.762-0.617-1.393-1.377-1.451l-2.389-0.26
		c-0.139-0.417-0.307-0.824-0.504-1.217l1.5-1.875c0.496-0.579,0.471-1.448-0.053-2.002c-0.228-0.272-0.465-0.536-0.715-0.787
		c-0.014-0.014-0.023-0.027-0.039-0.041h-0.002c0,0-0.002-0.003-0.002-0.004c-0.014-0.014-0.028-0.025-0.041-0.039
		c-0.252-0.25-0.519-0.484-0.791-0.711c-0.556-0.522-1.422-0.546-2-0.049l-1.871,1.508c-0.385-0.192-0.783-0.357-1.191-0.492
		l-0.26-2.389c-0.059-0.76-0.689-1.354-1.451-1.377c-0.354-0.032-0.708-0.055-1.063-0.057c-0.021,0-0.038,0-0.057,0H24h-0.002
		C23.977,11.637,23.96,11.637,23.941,11.637z M41.234,14.402c-0.902,0-1.639,0.663-1.766,1.529h-0.025v0.262v13.168v5.732
		c0,1.954-1.46,3.414-3.414,3.414H24.826h-12.93l0.002-2.678c0-0.002,0-0.006,0-0.008c0-0.006,0-0.016,0-0.018
		c0.001-0.002,0.002-0.002,0.004-0.004c0-0.007,0-0.001,0-0.008c0-0.01-0.003-0.019-0.004-0.014c-0.002-0.057-0.003-0.088,0-0.076
		l-0.01-0.035c-0.001-0.007-0.007-0.026-0.008-0.033c-0.005-0.029-0.007-0.059-0.029-0.141c-0.002-0.006-0.005-0.01-0.008-0.016
		c-0.043-0.174-0.141-0.412-0.289-0.561c-0.443-0.443-1.263-0.446-1.703-0.006l-4.527,4.525c-0.226,0.226-0.349,0.548-0.35,0.85
		c0,0.285,0.123,0.629,0.346,0.852l4.523,4.529c0.442,0.443,1.256,0.443,1.699,0c0.139-0.139,0.243-0.368,0.287-0.525
		c0.004-0.011,0.009-0.021,0.014-0.031c0.026-0.086,0.039-0.139,0.047-0.232c0.001-0.019,0.003-0.037,0.006-0.055l-0.002-0.008
		c0.001-0.004,0.002-0.01,0.004-0.014c0-0.004,0.001-0.006,0.002-0.01c-0.002-0.004-0.004-0.006-0.006-0.01l0.002-2.693h12.93
		h11.201c3.877,0,6.998-3.121,6.998-6.998v-5.73V16.193v-0.262h-0.027C42.871,15.065,42.137,14.402,41.234,14.402z M23.922,19.084
		c0.014,0,0.029,0,0.043,0c0.012,0,0.025,0,0.037,0c2.715,0,4.916,2.201,4.916,4.916c0,2.716-2.2,4.918-4.916,4.918
		s-4.917-2.2-4.918-4.916c0,0,0-0.001,0-0.002C19.084,21.315,21.238,19.127,23.922,19.084z"></path>
</svg>
