<svg xmlns="http://www.w3.org/2000/svg" fill-rule="evenodd" clip-rule="evenodd" image-rendering="optimizeQuality" shape-rendering="geometricPrecision" text-rendering="geometricPrecision" viewBox="0 0 1707 1707" id="expand">
  <path fill="#1c40ba" fill-rule="nonzero" d="M196 1239l0 -1102 -60 59c-37,38 -94,-19 -57,-56l124 -124c3,-5 8,-9 14,-11 12,-7 26,-7 37,0 6,2 11,6 14,11l124 124c37,37 -19,94 -57,56l-59 -59 0 178 1059 0 116 -116 -147 0c-53,0 -53,-80 0,-80l237 0c6,-1 12,0 18,2 13,4 23,14 27,27 2,5 2,12 1,18l0 237c0,53 -80,53 -80,0l0 -147 -116 116 0 1059 179 0 -60 -60c-37,-37 20,-93 57,-56l123 123c6,4 9,9 12,14 6,12 6,26 0,38 -3,5 -6,10 -12,14l-123 123c-37,38 -94,-19 -57,-56l60 -60 -1102 0c-7,45 -28,89 -66,127 -148,148 -402,42 -402,-167 0,-116 85,-213 196,-232zm176 39l219 -219 -315 0 0 180c36,6 68,20 96,39zm299 -299l267 -267 -662 0 0 267 395 0zm347 -347l237 -237 -979 0 0 237 742 0zm293 -180l-236 237 0 742 236 0 0 -979zm-316 317l-267 266 0 396 267 0 0 -662zm-347 346l-220 220c20,29 33,62 39,96l181 0 0 -316zm-302 246c-98,-98 -266,-28 -266,110 0,138 168,208 266,110 60,-61 60,-159 0,-220z" class="color404040 svgShape"></path>
  <path fill="#bbc8fe" d="M276 1239c36 6 68 20 96 39l219-219-315 0 0 180zM648 1115l-220 220c20 29 33 62 39 96l181 0 0-316z" class="colore6f7db svgShape"></path>
  <polygon fill="#bbc8fe" points="1075 689 1075 1431 1311 1431 1311 452" class="colore6f7db svgShape"></polygon>
  <polygon fill="#bbc8fe" points="1018 632 1255 395 276 395 276 632" class="colore6f7db svgShape"></polygon>
</svg>
