<svg xmlns="http://www.w3.org/2000/svg" id="Expenses" enable-background="new 0 0 95 95" viewBox="0 0 95 95">
  <path fill="#95b9b4" d="M87.7 47.7c0 4.9-4.2 8.9-8.7 10.5-4.5 1.6-9.5 1.5-14.3 2-4.8.4-10.4 4.9-13.8 8.4-2.2 2.3-3.3 5.4-4.9 8.2-1.6 2.8-3.8 5.5-6.9 6.2-3.4.7-6.9-1.5-8.9-4.3-2-2.9-2.9-6.4-3.9-9.8-1-3.4-1.5-10.1-3.9-12.7-2.1-2.2-4.9-3.6-7.6-5-2.7-1.4-5.5-2.9-7.2-5.4-1.8-2.5-2.3-6.1-.4-8.5 2.4-3 6.8-2.6 10.6-2.9 7.1-.6 13.7-4.9 17.3-11 1.3-2.3 2.2-4.8 3.7-7.1 1.5-2.2 3.6-4.2 6.3-4.5 3.7-.4 6.8 2.6 9.4 5.3 4.9 5.2 9.6 11.8 16 15.2C76.7 35.7 87.6 38.7 87.7 47.7zM13.4 24.7c-.1.4-.5.6-.9.6l-1-.2-.2 1c-.1.4-.5.6-.9.6-.4-.1-.6-.5-.6-.9l.2-1-1-.2c-.4-.1-.6-.5-.6-.9.1-.4.5-.6.9-.6l1 .2.2-1c.1-.4.5-.6.9-.6.4.1.6.5.6.9l-.2 1 1 .2C13.2 23.9 13.5 24.3 13.4 24.7zM59.8 79.9c-.1.4-.5.6-.9.6l-1-.2-.2 1c-.1.4-.5.6-.9.6-.4-.1-.6-.5-.6-.9l.2-1-1-.2c-.4-.1-.6-.5-.6-.9.1-.4.5-.6.9-.6l1 .2.2-1c.1-.4.5-.6.9-.6.4.1.6.5.6.9l-.2 1 1 .2C59.6 79.1 59.8 79.5 59.8 79.9z" class="colore8f0fd svgShape"></path>
  <path fill="#ffffff" d="M66.2,69.9l-0.2,5H24l0-22.6v-6.5l0-18l-4-9.4h41.5c2.5,0,4.5,2.1,4.5,4.8l-0.3,10.9l0.1,9.7L66.2,69.9z" class="colorffffff svgShape"></path>
  <path fill="#95b9b4" d="M66.2,69.9l-0.2,5h-4.8l0.2-5L61,34.2l0.4-10.9c0-2.7-2-4.8-4.6-4.8h4.8c2.5,0,4.6,2.1,4.6,4.8l-0.4,10.9
					L66.2,69.9z" class="colore8f0fd svgShape"></path>
  <path fill="#add6d2" d="M66.2,69.9l-0.2,5h-9.9c-0.6-1-1-2.2-1-3.5v-21c0-3.6,2.9-6.5,6.5-6.5h4.3L66.2,69.9z" opacity=".3" class="colorcedbf0 svgShape"></path>
  <path fill="#95b9b4" d="M61.1,43.2c0,0.5-0.4,1-1,1H30c-0.5,0-1-0.5-1-1s0.5-1,1-1h30.1C60.7,42.2,61.1,42.6,61.1,43.2z" class="colore8f0fd svgShape"></path>
  <path fill="#add6d2" d="M46.8,72.8c0,0.7-0.2,1.5-0.5,2.1H24l0-22.6l17.7,0c1.3,0,2.6,0.5,3.6,1.5c1,1,1.5,2.2,1.5,3.6L46.8,72.8
							z" opacity=".3" class="colorcedbf0 svgShape"></path>
  <path fill="#95b9b4" d="M61.1 60.3c0 .6-.4 1-1 1H30c-.5 0-1-.4-1-1 0-.5.5-1 1-1h30.1C60.7 59.3 61.1 59.8 61.1 60.3zM61.1 51.8c0 .5-.4 1-1 1H30c-.5 0-1-.5-1-1 0-.6.5-1 1-1h30.1C60.7 50.8 61.1 51.2 61.1 51.8zM61.1 68.9c0 .5-.4 1-1 1H30c-.5 0-1-.5-1-1 0-.6.5-1 1-1h30.1C60.7 67.9 61.1 68.3 61.1 68.9zM29 34.6c0-.5.5-1 1-1h30.1c.6 0 1 .5 1 1s-.4 1-1 1H30C29.4 35.6 29 35.2 29 34.6zM29 27.3c0-.5.5-1 1-1h16.2c.6 0 1 .5 1 1 0 .6-.4 1-1 1H30C29.4 28.3 29 27.8 29 27.3z" class="colore8f0fd svgShape"></path>
  <g fill="#000000" class="color000000 svgShape">
    <path fill="#95b9b4" d="M24,22.5v11h-4v-11c0-1.1-0.4-2.1-1.2-2.8c-0.2-0.2-0.5-0.4-0.8-0.6c0.6-0.3,1.2-0.5,2-0.5
					c1.1,0,2.1,0.5,2.8,1.2C23.6,20.4,24,21.4,24,22.5z" class="colore8f0fd svgShape"></path>
  </g>
  <g fill="#000000" class="color000000 svgShape">
    <path fill="#ffffff" d="M81.9,50.4v21c0,1.9-1.6,3.5-3.5,3.5H61.6c-1.9,0-3.5-1.6-3.5-3.5v-21c0-1.9,1.6-3.5,3.5-3.5h16.8
						C80.3,46.9,81.9,48.5,81.9,50.4z" class="colorffffff svgShape"></path>
    <path fill="#ffffff" d="M81.9,50.4v21c0,1.9-1.6,3.5-3.5,3.5H61.6c-1.9,0-3.5-1.6-3.5-3.5v-21c0-1.9,1.6-3.5,3.5-3.5h16.8
						C80.3,46.9,81.9,48.5,81.9,50.4z" class="colorffffff svgShape"></path>
    <path fill="#95b9b4" d="M61.8 55.5V51c0-.7.6-1.3 1.3-1.3h13.7c.7 0 1.3.6 1.3 1.3v4.5c0 .7-.6 1.3-1.3 1.3H63.1C62.4 56.7 61.8 56.2 61.8 55.5zM78.1 59.5v1.9c0 .7-.6 1.3-1.3 1.3h-2.6c-.7 0-1.3-.6-1.3-1.3v-1.9c0-.7.6-1.3 1.3-1.3h2.6C77.5 58.3 78.1 58.8 78.1 59.5zM61.8 61.5v-2.3c0-.5.4-.8.8-.8h2.4c.5 0 .8.4.8.8v2.3c0 .5-.4.8-.8.8h-2.4C62.2 62.3 61.8 62 61.8 61.5zM61.8 66.2v-2.3c0-.5.4-.8.8-.8h2.4c.5 0 .8.4.8.8v2.3c0 .5-.4.8-.8.8h-2.4C62.2 67.1 61.8 66.7 61.8 66.2zM61.8 71v-2.3c0-.5.4-.8.8-.8h2.4c.5 0 .8.4.8.8V71c0 .5.1.8-.4.8h-2.4C62.7 71.9 61.8 71.5 61.8 71z" class="colore8f0fd svgShape"></path>
    <g fill="#000000" class="color000000 svgShape">
      <path fill="#95b9b4" d="M67.6 61.6v-2.3c0-.5.4-.8.8-.8h2.4c.5 0 .8.4.8.8v2.3c0 .5-.4.8-.8.8h-2.4C68 62.4 67.6 62 67.6 61.6zM67.6 66.3V64c0-.5.4-.8.8-.8h2.4c.5 0 .8.4.8.8v2.3c0 .5-.4.8-.8.8h-2.4C68 67.1 67.6 66.8 67.6 66.3zM67.6 71.2v-2.3c0-.5.4-.8.8-.8h2.4c.5 0 .8.4.8.8v2.3c0 .5-.4.8-.8.8h-2.4C68 72 67.6 71.6 67.6 71.2z" class="colore8f0fd svgShape"></path>
    </g>
  </g>
  <g fill="#000000" class="color000000 svgShape">
    <path fill="#ffffff" d="M13.8,74.9c-1.1,0-2.1-0.9-2.1-2.1l0-15.5c0-1.1,0.9-2.1,2.1-2.1l27.9,0c1.1,0,2.1,0.9,2.1,2.1l0,15.5
						c0,1.1-0.9,2.1-2.1,2.1L13.8,74.9z" class="colorffffff svgShape"></path>
    <path fill="#95b9b4" d="M43.8,72.8c0,1.1-0.9,2.1-2.1,2.1h-2.1c1.1,0,2.1-0.9,2.1-2.1l0-15.5c0-1.1-0.9-2-2-2.1h2
						c1.1,0,2.1,0.9,2.1,2.1L43.8,72.8z" class="colore8f0fd svgShape"></path>
    <path fill="#95b9b4" d="M14.8,69.1l0-8.1c1.2,0,2.1-1.3,2.1-2.9l21.8,0c0,1.6,0.9,2.9,2.1,2.9l0,8.1c-1.2,0-2.1,1.3-2.1,2.9
						l-21.8,0C16.9,70.4,15.9,69.1,14.8,69.1z" class="colore8f0fd svgShape"></path>
    <path fill="#ffffff" d="M23.5 65.2c0 1.4-1.2 2.5-2.6 2.5s-2.5-1.2-2.5-2.6c0-1.4 1.2-2.5 2.6-2.5S23.5 63.8 23.5 65.2zM37.1 65c0 1.4-1.2 2.5-2.6 2.5-1.4 0-2.5-1.2-2.5-2.6 0-1.4 1.2-2.5 2.6-2.5C36.1 62.5 37.2 63.6 37.1 65z" class="colorffffff svgShape"></path>
    <g fill="#000000" class="color000000 svgShape">
      <path fill="#4f706e" d="M76.6 23.7l1-.2.2 1c.1.4.5.6.9.5.4-.1.6-.5.6-.9l-.2-1 1-.2c.4-.1.6-.5.5-.9-.1-.4-.5-.6-.9-.5l-1 .2-.2-1c-.1-.4-.5-.6-.9-.5-.4.1-.6.5-.5.9l.2 1-1 .2c-.4.1-.6.5-.5.9C75.8 23.5 76.2 23.7 76.6 23.7zM94.2 62c-.1-.4-.5-.6-.9-.5l-1 .2-.2-1c-.1-.4-.5-.6-.9-.5-.4.1-.6.5-.5.9l.2 1-1 .2c-.4.1-.6.5-.5.9.1.4.5.6.9.6l1-.2.2 1c.1.4.5.6.9.5.4-.1.6-.5.6-.9l-.2-1 1-.2C94 62.7 94.3 62.4 94.2 62zM85.2 74L82 74c.5-.7.8-1.6.8-2.6v-21c0-2.5-2-4.5-4.5-4.5H67.1V23.3c0-3.2-2.5-5.8-5.5-5.8H20.1c0 0 0 0-.1 0-2.7 0-4.9 2.2-4.9 4.9v11c0 .6.4 1 1 1H23l0 19.8-9.2 0c-.8 0-1.6.3-2.2.9-.6.6-.9 1.3-.9 2.2l0 15.5c0 .4.1.7.2 1.1l-9.2 0h0c-.6 0-1 .4-1 1 0 .6.4 1 1 1l18.2 0h0c.1 0 .1 0 .2 0h0c0 0 .1 0 .1 0 0 0 0 0 .1 0 .5-.1.8-.5.8-1 0-.6-.4-1-1-1h0c-3.8 0-2.6 0-6.4 0-.6 0-1.1-.5-1.1-1.1l0-15.5c0-.3.1-.5.3-.7.2-.2.5-.3.7-.3l27.9 0h0c.6 0 1.1.5 1.1 1.1l0 15.5c0 .6-.5 1.1-1.1 1.1l-15.7 0c-.6 0-1 .4-1 1s.4 1 1 1h0l.9 0c0 0 .1 0 .1 0h.6c.1 0 .1 0 .2 0l57.5 0h0c.6 0 1-.4 1-1C86.2 74.4 85.8 74 85.2 74zM80.9 50.4v21c0 1.4-1.1 2.5-2.5 2.5-6.3 0-10.9 0-16.8 0-1.4 0-2.5-1.1-2.5-2.5v-21c0-1.4 1.1-2.5 2.5-2.5h16.8C79.7 47.9 80.9 49.1 80.9 50.4zM17.1 32.5v-10c0-1.6 1.3-2.9 2.9-2.9s2.9 1.3 2.9 2.9c0 13.7 0 9 0 10H17.1zM41.7 54.2C41.7 54.2 41.7 54.2 41.7 54.2l-16.7 0c0-5.7 0-26.2 0-31.8 0-1.1-.4-2.1-1-2.9h37.5c2 0 3.5 1.7 3.5 3.8v22.6h-3.5c-2.5 0-4.5 2-4.5 4.5v21c0 .9.3 1.8.8 2.5H44.6c.1-.3.2-.7.2-1.1l0-15.5C44.8 55.6 43.4 54.2 41.7 54.2zM91.8 74l-1.1 0h0c-.6 0-1 .4-1 1 0 .6.4 1 1 1l1.1 0h0c.6 0 1-.4 1-1C92.8 74.4 92.3 74 91.8 74z" class="color1369f0 svgShape"></path>
      <path fill="#4f706e" d="M50.2 30.4h8.9c.6 0 1-.4 1-1v-3.9c0-.6-.4-1-1-1h-8.9c-.6 0-1 .4-1 1v3.9C49.2 30 49.6 30.4 50.2 30.4zM74.2 72.1h2.6c.7 0 1.3-.6 1.3-1.3v-5.4c0-.7-.6-1.3-1.3-1.3h-2.6c-.7 0-1.3.6-1.3 1.3v5.4C72.9 71.5 73.5 72.1 74.2 72.1zM26.1 67c0 0-.1 0-.2 0-.1 0-.2 0-.3.1-.1.1-.1.2-.1.2 0 .1 0 .1.1.2 0 .1.1.1.2.1.5.2 1 .3 1.6.4l.2 0 0 .6c0 .1 0 .1.1.1 0 0 .1.1.1 0 .1 0 .1 0 .1-.1 0 0 .1-.1.1-.1l0-.6.2 0c.3 0 .6-.1.8-.2.3-.1.5-.3.7-.6.2-.2.2-.5.2-.8 0-.4-.1-.7-.3-.9-.2-.2-.4-.4-.7-.5-.2-.1-.5-.2-.8-.3l-.1 0 0-1.9.2 0c.3 0 .7.1 1 .2.1 0 .1 0 .2 0 .1 0 .1 0 .2-.1.1-.1.1-.2.1-.2 0-.2-.1-.3-.2-.3-.4-.1-.8-.2-1.3-.2l-.2 0 0-.6c0-.1 0-.1-.1-.1 0 0-.1-.1-.1-.1-.1 0-.1 0-.1.1 0 0-.1.1-.1.1l0 .6-.2 0c-.3 0-.6.1-.9.3-.3.2-.5.4-.6.6-.1.2-.2.5-.2.8 0 .3.1.6.3.8.2.2.4.4.7.5.2.1.5.2.8.3l.1 0 0 1.8-.2 0C26.9 67.3 26.5 67.2 26.1 67zM28.2 65.6c.3.1.5.2.6.2.2.1.3.3.3.5 0 .5-.3.8-.9.9l-.2 0 0-1.8L28.2 65.6zM27.3 64.6c-.3-.1-.5-.2-.6-.3-.2-.1-.3-.3-.3-.6 0-.3.1-.5.3-.6.2-.1.4-.2.6-.3l.2 0 0 1.8L27.3 64.6z" class="color1369f0 svgShape"></path>
    </g>
  </g>
</svg>
