<svg xmlns="http://www.w3.org/2000/svg" xmlns:xlink="http://www.w3.org/1999/xlink" xml:space="preserve" id="Expenses" x="0" y="0" version="1.1" viewBox="0 0 136 136">
  <pattern id="New_Pattern_Swatch_1" width="21.5" height="21.5" x="-292" y="-1606" overflow="visible" patternUnits="userSpaceOnUse" viewBox="0 -21.5 21.5 21.5">
    <path fill="none" d="M0-21.5h21.5V0H0z"></path>
    <path d="M0-21.5h21.5V0H0z" fill="#ffffff" class="colorffffff svgShape"></path>
  </pattern>
  <path fill="#5a78f3" d="M124.8 68c0 31.7-25.7 57.5-57.5 57.5-11.9 0-23.5-3.6-33.4-10.7-1.7-1.2-3.3-2.5-4.8-3.9-5-4.4-9.3-10-12-14.9-4.1-6.7-7.3-17.3-7.3-28 0-31.7 25.7-57.5 57.5-57.5 31.6 0 57.5 25.7 57.5 57.5z" class="colorf37c5a svgShape"></path>
  <path d="M99.2 70.2H132V88H99.2z" fill="#7f97fd" class="colorfdda7f svgShape"></path>
  <path d="M108.7 64.7h13.8v28.8h-13.8z" transform="rotate(90 115.621 79.083)" fill="#5373f6" class="colorf6bb53 svgShape"></path>
  <circle cx="115.6" cy="79.1" r="5.7" fill="#7f97fd" class="colorfdda7f svgShape"></circle>
  <circle cx="115.6" cy="79.1" r="4.9" fill="#5373f6" class="colorf6bb53 svgShape"></circle>
  <path d="M115.4 82.4v-.6c-.7-.1-1.4-.4-1.9-.9l.6-.7c.4.4.9.6 1.4.7v-1.5c-.6-.1-1-.3-1.3-.6-.3-.2-.4-.6-.4-1s.2-.8.5-1.1c.3-.3.7-.4 1.2-.5v-.4h.5v.4c.6 0 1.1.2 1.6.6l-.5.7c-.3-.2-.7-.4-1.1-.5v1.5c.6.1 1.1.3 1.3.6.3.2.4.6.4 1.1 0 .5-.2.8-.5 1.1-.3.3-.8.4-1.3.5v.6h-.5zm-.5-5.1c-.1.1-.2.3-.2.4s.1.3.2.4c.1.1.3.2.6.3V77c-.3.1-.5.1-.6.3zm1.7 3.4c.1-.1.2-.3.2-.5s-.1-.3-.2-.4c-.1-.1-.3-.2-.6-.3v1.4c.2 0 .4-.1.6-.2zM122.3 77.5h6.8v3.2h-6.8zM123 76.1h5.3v.7H123zM123 81.4h5.3v.7H123zM102.2 77.5h6.8v3.2h-6.8zM102.9 76.1h5.3v.7h-5.3zM102.9 81.4h5.3v.7h-5.3z" fill="#7f97fd" class="colorfdda7f svgShape"></path>
  <circle cx="31.8" cy="109.4" r="5.7" fill="#7f97fd" class="colorfdda7f svgShape"></circle>
  <circle cx="31.8" cy="109.4" r="4.5" fill="#5373f6" class="colorf6bb53 svgShape"></circle>
  <pattern xlink:href="#New_Pattern_Swatch_1" id="SVGID_1_" patternTransform="translate(10.935 3.909)"></pattern>
  <path fill="url(#SVGID_1_)" d="M31.6 112.6v-.6c-.7-.1-1.4-.4-1.9-.9l.6-.7c.4.4.9.6 1.4.7v-1.5c-.6-.1-1-.3-1.3-.6-.3-.2-.4-.6-.4-1s.2-.8.5-1.1c.3-.3.7-.4 1.2-.5v-.4h.5v.4c.6 0 1.1.2 1.6.6l-.5.7c-.3-.2-.7-.4-1.1-.5v1.5c.6.1 1.1.3 1.3.6.3.2.4.6.4 1.1 0 .5-.2.8-.5 1.1-.3.3-.8.4-1.3.5v.6h-.5zm-.5-5.1c-.1.1-.2.3-.2.4 0 .2.1.3.2.4.1.1.3.2.6.3v-1.4c-.3.2-.5.2-.6.3zm1.6 3.5c.1-.1.2-.3.2-.5s-.1-.3-.2-.4c-.1-.1-.3-.2-.6-.3v1.4c.3 0 .5-.1.6-.2z"></path>
  <circle cx="43.1" cy="92.7" r="5.7" fill="#7f97fd" class="colorfdda7f svgShape"></circle>
  <circle cx="43.1" cy="92.7" r="4.5" fill="#5373f6" class="colorf6bb53 svgShape"></circle>
  <pattern xlink:href="#New_Pattern_Swatch_1" id="SVGID_2_" patternTransform="translate(10.935 3.909)"></pattern>
  <path fill="url(#SVGID_2_)" d="M42.9 95.9v-.6c-.7-.1-1.4-.4-1.9-.9l.6-.7c.4.4.9.6 1.4.7V93c-.6-.1-1-.3-1.3-.6-.3-.2-.4-.6-.4-1s.2-.8.5-1.1c.3-.3.7-.4 1.2-.5v-.4h.5v.4c.6 0 1.1.2 1.6.6l-.5.7c-.3-.2-.7-.4-1.1-.5v1.5c.6.1 1.1.3 1.3.6.3.2.4.6.4 1.1 0 .5-.2.8-.5 1.1-.3.3-.8.4-1.3.5v.6h-.5zm-.6-5.1c-.1.1-.2.3-.2.4 0 .2.1.3.2.4.1.1.3.2.6.3v-1.4c-.3.1-.4.2-.6.3zm1.7 3.5c.1-.1.2-.3.2-.5s-.1-.3-.2-.4c-.1-.1-.3-.2-.6-.3v1.4c.2 0 .4-.1.6-.2z"></path>
  <path d="M94.2 50.3H127v17.8H94.2z" fill="#7f97fd" class="colorfdda7f svgShape"></path>
  <path d="M103.7 44.7h13.8v28.8h-13.8z" transform="rotate(90 110.604 59.14)" fill="#5373f6" class="colorf6bb53 svgShape"></path>
  <circle cx="110.6" cy="59.1" r="5.7" fill="#7f97fd" class="colorfdda7f svgShape"></circle>
  <circle cx="110.6" cy="59.1" r="4.9" fill="#5373f6" class="colorf6bb53 svgShape"></circle>
  <path d="M110.4 62.4v-.6c-.7-.1-1.4-.4-1.9-.9l.6-.7c.4.4.9.6 1.4.7v-1.5c-.6-.1-1-.3-1.3-.6-.3-.2-.4-.6-.4-1s.2-.8.5-1.1c.3-.3.7-.4 1.2-.5v-.4h.5v.4c.6 0 1.1.2 1.6.6l-.5.7c-.3-.2-.7-.4-1.1-.5v1.5c.6.1 1.1.3 1.3.6.3.2.4.6.4 1.1 0 .5-.2.8-.5 1.1-.3.3-.8.4-1.3.5v.6h-.5zm-.5-5.1c-.1.1-.2.3-.2.4 0 .2.1.3.2.4.1.1.3.2.6.3V57c-.3.1-.5.2-.6.3zm1.6 3.5c.1-.1.2-.3.2-.5s-.1-.3-.2-.4c-.1-.1-.3-.2-.6-.3V61c.3 0 .5-.1.6-.2zM117.3 57.6h6.8v3.2h-6.8zM118 56.1h5.3v.7H118zM118 61.4h5.3v.7H118zM97.2 57.6h6.8v3.2h-6.8zM97.9 56.1h5.3v.7h-5.3zM97.9 61.4h5.3v.7h-5.3z" fill="#7f97fd" class="colorfdda7f svgShape"></path>
  <path d="M26.6 59.4h52.8V25.7c0-4.6-3.8-8.4-8.4-8.4H18.2V51c0 4.7 3.8 8.4 8.4 8.4z" fill="#f3f3f3" class="colorf3f3f3 svgShape"></path>
  <path d="M11.1 17.3c3.9 0 7.1 3.2 7.1 7.1H4c0-3.9 3.2-7.1 7.1-7.1z" fill="#bbc8fe" class="colordad9d8 svgShape"></path>
  <path d="M11.1 17.3c3.9 0 7.1 3.2 7.1 7.1v-7.1h-7.1z" fill="#f3f3f3" class="colorf3f3f3 svgShape"></path>
  <path d="M24 22.6h49.7v2H24zM24 28h49.7v2H24zM24 33.4h49.7v2H24zM24 38.9h49.7v2H24zM24 44.3h49.7v2H24zM24 49.7h49.7v2H24z" fill="#1c40ba" class="color474f59 svgShape"></path>
  <pattern xlink:href="#New_Pattern_Swatch_1" id="SVGID_3_" patternTransform="translate(10.935 3.909)"></pattern>
  <path fill="url(#SVGID_3_)" d="M55.1 114.4H108V45.6c0-4.6-3.8-8.4-8.4-8.4H46.7V106c0 4.7 3.8 8.4 8.4 8.4z"></path>
  <path d="M53.9 114.4h54c3.9 0 7.1-3.2 7.1-7.1H61c0 4-3.2 7.1-7.1 7.1z" fill="#f3f3f3" class="colorf3f3f3 svgShape"></path>
  <path d="M39.6 37.2c3.9 0 7.1 3.2 7.1 7.1v-7.1h-7.1z" fill="#ffffff" class="colorffffff svgShape"></path>
  <path d="M25.4 59.4c3.9 0 7.1-3.2 7.1-7.1v-7.9c0-3.9 3.2-7.1 7.1-7.1 3.9 0 7.1 3.2 7.1 7.1v15.1H25.4z" fill="#bbc8fe" class="colordad9d8 svgShape"></path>
  <path d="M54.1 46.7h46.6v11.2H54.1z" fill="#7d8fdc" class="color7dcedc svgShape"></path>
  <pattern xlink:href="#New_Pattern_Swatch_1" id="SVGID_4_" patternTransform="translate(10.935 3.909)"></pattern>
  <path fill="url(#SVGID_4_)" d="M69.8 56.1h-3.3v-7.5h2.9c.5 0 1 .1 1.3.2.4.1.6.3.8.5.3.4.5.8.5 1.3 0 .6-.2 1-.6 1.3-.1.1-.2.2-.3.2-.1 0-.1.1-.3.1.5.1.8.3 1.1.6.3.3.4.7.4 1.2s-.2 1-.5 1.4c-.3.5-1 .7-2 .7zm-2.1-4.4h1.6c.9 0 1.4-.3 1.4-.9 0-.4-.1-.6-.3-.8s-.6-.2-1-.2h-1.6v1.9zm0 3.2h2c.5 0 .8-.1 1.1-.2.2-.1.4-.4.4-.8 0-.7-.5-1-1.6-1h-1.8v2z"></path>
  <pattern xlink:href="#New_Pattern_Swatch_1" id="SVGID_5_" patternTransform="translate(10.935 3.909)"></pattern>
  <path fill="url(#SVGID_5_)" d="M74.1 48.6h1.3v7.5h-1.3v-7.5z"></path>
  <pattern xlink:href="#New_Pattern_Swatch_1" id="SVGID_6_" patternTransform="translate(10.935 3.909)"></pattern>
  <path fill="url(#SVGID_6_)" d="M77.4 56.1v-7.5h1.3v6.3h3.4v1.2h-4.7z"></path>
  <pattern xlink:href="#New_Pattern_Swatch_1" id="SVGID_7_" patternTransform="translate(10.935 3.909)"></pattern>
  <path fill="url(#SVGID_7_)" d="M83.5 56.1v-7.5h1.3v6.3h3.4v1.2h-4.7z"></path>
  <path d="M54.1 62.7h21.7v1.8H54.1z" fill="#7f97fd" class="colorfdda7f svgShape"></path>
  <path d="M78.9 62.7h21.7v1.8H78.9zM54.1 66.7h21.7v1.8H54.1z" fill="#f3f3f3" class="colorf3f3f3 svgShape"></path>
  <path d="M78.9 66.7h21.7v1.8H78.9z" fill="#7f97fd" class="colorfdda7f svgShape"></path>
  <path d="M63.4 72.7h37.2v1.8H63.4z" fill="#7d8fdc" class="color7dcedc svgShape"></path>
  <path d="M58.8 76.2h-5.2V71h5.2v5.2zm-4.3-.9h3.4v-3.4h-3.4v3.4z" fill="#f3f3f3" class="colorf3f3f3 svgShape"></path>
  <path d="m56.3 74.4-1.5-1.6.6-.6.9.9 3.2-3.2.7.7z" fill="#7d8fdc" class="color7dcedc svgShape"></path>
  <path d="M54.1 80.1h21.7v1.8H54.1z" fill="#1c40ba" class="color474f59 svgShape"></path>
  <path d="M78.9 80.1h21.7v1.8H78.9zM54.1 84.1h21.7v1.8H54.1z" fill="#f3f3f3" class="colorf3f3f3 svgShape"></path>
  <path d="M78.9 84.1h21.7v1.8H78.9z" fill="#1c40ba" class="color474f59 svgShape"></path>
  <path d="M63.4 90.1h37.2v1.8H63.4z" fill="#7d8fdc" class="color7dcedc svgShape"></path>
  <path d="M58.8 93.6h-5.2v-5.2h5.2v5.2zm-4.3-.9h3.4v-3.4h-3.4v3.4z" fill="#f3f3f3" class="colorf3f3f3 svgShape"></path>
  <path d="m56.3 91.8-1.5-1.6.6-.6.9.9 3.2-3.2.7.7z" fill="#7d8fdc" class="color7dcedc svgShape"></path>
  <path d="M101.1 104.6H74v-9.7h27.1v9.7zm-26.2-.9h25.3v-7.9H74.9v7.9z" fill="#f3f3f3" class="colorf3f3f3 svgShape"></path>
  <path d="M41.6 68.4H9.2c-1.2 0-2.2 1-2.2 2.2v19.3c0 1.2 1 2.2 2.2 2.2h32.4c1.2 0 2.2-1 2.2-2.2V70.5c-.1-1.2-1-2.1-2.2-2.1z" fill="#1c40ba" class="color474f59 svgShape"></path>
  <path fill="#252a3b" d="M7 70.8h36.7v5.1H7z" class="color25313b svgShape"></path>
  <pattern xlink:href="#New_Pattern_Swatch_1" id="SVGID_8_" patternTransform="translate(10.935 3.909)"></pattern>
  <path fill="url(#SVGID_8_)" d="M16.3 78.2h18.2v4.6H16.3z"></path>
  <path d="M9.9 85.4h11.6v1.5H9.9zM9.9 88.1h15.5v1.5H9.9zM26.1 88.1h7v1.5h-7zM33.9 88.1h7v1.5h-7z" fill="#7d8fdc" class="color7dcedc svgShape"></path>
</svg>
