<svg xmlns="http://www.w3.org/2000/svg" xml:space="preserve" version="1.0" viewBox="0 0 24 24" id="Monitoring">
  <path fill="#bbc8fe" d="M21.5 14.5h-2c0-4.1-3.4-7.5-7.5-7.5s-7.5 3.4-7.5 7.5h-2C2.5 9.3 6.8 5 12 5s9.5 4.3 9.5 9.5z" class="color7b94ff svgShape"></path>
  <path fill="#bbc8fe" d="M13.4 14.5c.1-.2.1-.3.1-.5 0-.8-.7-1.5-1.5-1.5s-1.5.7-1.5 1.5c0 .2 0 .3.1.5H.5v2c0 .6.4 1 1 1h8v4h5v-4h8c.6 0 1-.4 1-1v-2H13.4z" class="color7b94ff svgShape"></path>
  <path fill="#1c40ba" d="M22.5 2h-21C.7 2 0 2.7 0 3.5v13c0 .8.7 1.5 1.5 1.5H9v3H7.5c-.3 0-.5.2-.5.5s.2.5.5.5h9c.3 0 .5-.2.5-.5s-.2-.5-.5-.5H15v-3h7.5c.8 0 1.5-.7 1.5-1.5v-13c0-.8-.7-1.5-1.5-1.5zM14 21h-4v-3h4v3zm9-4.5c0 .3-.2.5-.5.5h-21c-.3 0-.5-.2-.5-.5V15h22v1.5zM12 12c-1.1 0-2 .9-2 2H5c.3-3.6 3.3-6.5 7-6.5 1.2 0 2.2.3 3.2.8l-2.7 3.8c-.1-.1-.3-.1-.5-.1zm-1 2c0-.6.4-1 1-1s1 .4 1 1h-2zm2.4-1.4L16 8.8c1.7 1.2 2.8 3.1 2.9 5.2h-5c.1-.6-.1-1.1-.5-1.4zM20 14c-.3-4.2-3.7-7.5-8-7.5S4.3 9.8 4 14H3c.3-4.7 4.2-8.5 9-8.5s8.7 3.8 9 8.5h-1zm3 0h-1c-.3-5.3-4.6-9.5-10-9.5-5.3 0-9.7 4.2-10 9.5H1V3.5c0-.3.2-.5.5-.5h21c.3 0 .5.2.5.5V14z" class="color2a2c51 svgShape"></path>
  <path fill="#1c40ba" d="M5.5 5h-3c-.3 0-.5-.2-.5-.5s.2-.5.5-.5h3c.3 0 .5.2.5.5s-.2.5-.5.5zM3.5 7h-1c-.3 0-.5-.2-.5-.5s.2-.5.5-.5h1c.3 0 .5.2.5.5s-.2.5-.5.5zM21.5 5h-3c-.3 0-.5-.2-.5-.5s.2-.5.5-.5h3c.3 0 .5.2.5.5s-.2.5-.5.5zM21.5 7h-1c-.3 0-.5-.2-.5-.5s.2-.5.5-.5h1c.3 0 .5.2.5.5s-.2.5-.5.5z" class="color2a2c51 svgShape"></path>
</svg>
