<svg xmlns="http://www.w3.org/2000/svg" enable-background="new 0 0 492 492" viewBox="0 0 492 492" id="Scalable">
  <path fill="#95b9b4" fill-rule="evenodd" d="M442.18 220.85H50.34c-10.52 0-19.12 8.6-19.12 19.12v48.42c0 10.52 8.6 19.12 19.12 19.12h119.65 152.55 119.65c10.52 0 19.12-8.6 19.12-19.12v-48.42C461.3 229.46 452.7 220.85 442.18 220.85zM322.53 373.84H169.99 50.34c-10.52 0-19.12 8.6-19.12 19.12v48.42c0 10.52 8.6 19.12 19.12 19.12h391.84c10.52 0 19.12-8.6 19.12-19.12v-48.42c0-10.52-8.6-19.12-19.12-19.12H322.53z" clip-rule="evenodd" class="color4e95fb svgShape"></path>
  <polygon fill="#add6d2" fill-rule="evenodd" points="283.85 145.73 321.94 183.82 385.84 119.92 405.99 140.07 434.69 32.97 327.59 61.67 347.75 81.83" clip-rule="evenodd" class="colorf8bd40 svgShape"></polygon>
  <polygon fill="#add6d2" fill-rule="evenodd" points="170.58 183.82 208.67 145.73 144.77 81.83 164.93 61.67 57.83 32.97 86.53 140.07 106.68 119.92" clip-rule="evenodd" class="colorf8bd40 svgShape"></polygon>
  <path d="M442.18,312.32H50.34c-13.19,0-23.92-10.73-23.92-23.92v-48.42c0-13.19,10.73-23.92,23.92-23.92h391.84
				c13.19,0,23.92,10.73,23.92,23.92v48.42C466.1,301.59,455.37,312.32,442.18,312.32z M50.34,225.65c-7.9,0-14.32,6.42-14.32,14.32
				v48.42c0,7.9,6.42,14.32,14.32,14.32h391.84c7.9,0,14.32-6.42,14.32-14.32v-48.42c0-7.9-6.42-14.32-14.32-14.32H50.34z" fill="#4f706e" class="color000000 svgShape"></path>
  <path d="M132.11 268.98H90.87c-2.65 0-4.8-2.15-4.8-4.8s2.15-4.8 4.8-4.8h41.24c2.65 0 4.8 2.15 4.8 4.8S134.76 268.98 132.11 268.98zM221.96 268.98h-41.24c-2.65 0-4.8-2.15-4.8-4.8s2.15-4.8 4.8-4.8h41.24c2.65 0 4.8 2.15 4.8 4.8S224.61 268.98 221.96 268.98zM311.8 268.98h-41.24c-2.65 0-4.8-2.15-4.8-4.8s2.15-4.8 4.8-4.8h41.24c2.65 0 4.8 2.15 4.8 4.8S314.45 268.98 311.8 268.98zM401.65 268.98h-41.24c-2.65 0-4.8-2.15-4.8-4.8s2.15-4.8 4.8-4.8h41.24c2.65 0 4.8 2.15 4.8 4.8S404.3 268.98 401.65 268.98zM442.18 465.31H50.34c-13.19 0-23.92-10.73-23.92-23.92v-48.42c0-13.19 10.73-23.92 23.92-23.92h391.84c13.19 0 23.92 10.73 23.92 23.92v48.42C466.1 454.58 455.37 465.31 442.18 465.31zM50.34 378.64c-7.9 0-14.32 6.42-14.32 14.32v48.42c0 7.9 6.42 14.32 14.32 14.32h391.84c7.9 0 14.32-6.42 14.32-14.32v-48.42c0-7.9-6.42-14.32-14.32-14.32H50.34z" fill="#4f706e" class="color000000 svgShape"></path>
  <path d="M132.11 421.97H90.87c-2.65 0-4.8-2.15-4.8-4.8s2.15-4.8 4.8-4.8h41.24c2.65 0 4.8 2.15 4.8 4.8S134.76 421.97 132.11 421.97zM221.96 421.97h-41.24c-2.65 0-4.8-2.15-4.8-4.8s2.15-4.8 4.8-4.8h41.24c2.65 0 4.8 2.15 4.8 4.8S224.61 421.97 221.96 421.97zM311.8 421.97h-41.24c-2.65 0-4.8-2.15-4.8-4.8s2.15-4.8 4.8-4.8h41.24c2.65 0 4.8 2.15 4.8 4.8S314.45 421.97 311.8 421.97zM401.65 421.97h-41.24c-2.65 0-4.8-2.15-4.8-4.8s2.15-4.8 4.8-4.8h41.24c2.65 0 4.8 2.15 4.8 4.8S404.3 421.97 401.65 421.97zM169.99 378.64c-2.65 0-4.8-2.15-4.8-4.8v-66.32c0-2.65 2.15-4.8 4.8-4.8s4.8 2.15 4.8 4.8v66.32C174.79 376.49 172.64 378.64 169.99 378.64zM322.53 378.64c-2.65 0-4.8-2.15-4.8-4.8v-66.32c0-2.65 2.15-4.8 4.8-4.8s4.8 2.15 4.8 4.8v66.32C327.33 376.49 325.18 378.64 322.53 378.64zM170.58 188.62c-1.23 0-2.46-.47-3.39-1.41l-60.5-60.5-16.76 16.76c-1.21 1.21-2.98 1.69-4.64 1.24-1.66-.44-2.95-1.74-3.39-3.39l-28.7-107.1c-.44-1.66.03-3.42 1.24-4.64 1.21-1.21 2.98-1.69 4.64-1.24l107.1 28.7c1.66.44 2.95 1.74 3.39 3.39.44 1.66-.03 3.42-1.24 4.64l-16.76 16.76 60.5 60.5c1.87 1.87 1.87 4.91 0 6.79l-38.09 38.09C173.04 188.15 171.81 188.62 170.58 188.62zM106.68 115.12c1.23 0 2.46.47 3.39 1.41l60.5 60.5 31.3-31.3-60.5-60.5c-1.87-1.87-1.87-4.91 0-6.79l14.28-14.28L64.62 39.76l24.39 91.04 14.28-14.28C104.23 115.59 105.45 115.12 106.68 115.12zM321.94 188.62c-1.23 0-2.46-.47-3.39-1.41l-38.09-38.09c-.9-.9-1.41-2.12-1.41-3.39s.51-2.49 1.41-3.39l60.5-60.5L324.2 65.06c-1.21-1.21-1.69-2.98-1.24-4.64.44-1.66 1.74-2.95 3.39-3.39l107.1-28.7c1.65-.44 3.42.03 4.64 1.24 1.21 1.21 1.69 2.98 1.24 4.64l-28.7 107.1c-.44 1.66-1.74 2.95-3.39 3.39-1.66.44-3.42-.03-4.64-1.24l-16.76-16.76-60.5 60.5C324.4 188.15 323.17 188.62 321.94 188.62zM290.64 145.73l31.3 31.3 60.5-60.5c.9-.9 2.12-1.41 3.39-1.41l0 0c1.27 0 2.49.51 3.39 1.41l14.28 14.28 24.39-91.04-91.04 24.39 14.28 14.28c1.87 1.87 1.87 4.91 0 6.79L290.64 145.73z" fill="#4f706e" class="color000000 svgShape"></path>
</svg>
