<svg xmlns="http://www.w3.org/2000/svg" viewBox="0 0 520 520" id="SecurityVulnerable">
  <path fill="#ffffff" d="M360 30c-60.3 0-110.22 44.49-118.72 102.43-.84 5.73-1.28 11.6-1.28 17.57 0 18.67 4.26 36.34 11.86 52.1a120.62 120.62 0 0 0 45.19 50.08c17.811 10.999 38.7 17.47 61.09 17.8.62.02 1.24.02 1.86.02 66.27 0 120-53.73 120-120S426.27 30 360 30z" class="colorffffff svgShape"></path>
  <circle cx="455" cy="335" r="15" fill="#ffffff" class="colorffffff svgShape"></circle>
  <circle cx="70" cy="240" r="20" fill="#ffffff" class="colorffffff svgShape"></circle>
  <circle cx="160" cy="90" r="30" fill="#ffffff" class="colorffffff svgShape"></circle>
  <path fill="#bbc8fe" d="M462.99 451.58c9.18 15.9-2.3 35.78-20.66 35.78H77.67c-18.36 0-29.84-19.88-20.65-35.78l184.26-319.15c-.84 5.73-1.28 11.6-1.28 17.57 0 18.67 4.26 36.34 11.86 52.1L133.23 407.58c-9.19 15.9 2.29 35.78 20.65 35.78h212.24c18.36 0 29.84-19.88 20.649-35.78l-89.72-155.4c17.811 10.999 38.7 17.47 61.09 17.8l104.851 181.6zM356.44 91.23c15.899 0 28.79 15.04 28.79 33.58 0 .71-.03 1.4-.07 2.1-8.15-6.61-18.04-10.49-28.72-10.49-10.681 0-20.57 3.88-28.721 10.49-.04-.7-.06-1.39-.06-2.1.001-18.54 12.891-33.58 28.781-33.58z" class="colora7c7fc svgShape"></path>
  <path fill="#bbc8fe" d="M307.54 189.3c-.96-4.52-1.47-9.25-1.47-14.11 0-19.93 8.5-37.55 21.51-48.17.05-.04.09-.07.11-.08.02-.01.029-.02.029-.02v-.01c8.15-6.61 18.04-10.49 28.721-10.49 10.68 0 20.569 3.88 28.72 10.49v.01s.01.01.03.02c.02.01.06.04.109.08 11.15 9.1 18.98 23.34 21 39.77.34 2.74.51 5.55.51 8.4 0 32.45-22.55 58.76-50.369 58.76-23.65 0-43.49-19.01-48.9-44.65z" class="colora7c7fc svgShape"></path>
  <circle cx="470" cy="40" r="10" fill="#1c40ba" class="color4d80c9 svgShape"></circle>
  <circle cx="460" cy="280" r="10" fill="#1c40ba" class="color4d80c9 svgShape"></circle>
  <circle cx="260" cy="410" r="10" fill="#1c40ba" class="color4d80c9 svgShape"></circle>
  <circle cx="230" cy="50" r="10" fill="#1c40ba" class="color4d80c9 svgShape"></circle>
  <circle cx="150" cy="190" r="10" fill="#1c40ba" class="color4d80c9 svgShape"></circle>
  <circle cx="80" cy="100" r="10" fill="#1c40ba" class="color4d80c9 svgShape"></circle>
  <circle cx="80" cy="320" r="10" fill="#1c40ba" class="color4d80c9 svgShape"></circle>
  <path fill="#1c40ba" d="M385.16 136.915c-5.522 0-10-4.472-10-9.995v-.01c0-.19.006-.381.017-.571a26.7 26.7 0 0 0 .054-1.529c0-13.002-8.429-23.58-18.79-23.58-10.355 0-18.78 10.578-18.78 23.58 0 .517.014 1.02.043 1.529.011.19.017.38.017.571 0 5.523-4.478 10.005-10 10.005-5.376 0-9.762-4.238-9.99-9.558a45.751 45.751 0 0 1-.069-2.547c0-24.03 17.396-43.58 38.78-43.58 21.389 0 38.79 19.55 38.79 43.58 0 .991-.043 1.903-.083 2.6-.261 5.291-4.633 9.505-9.989 9.505z" class="color4d80c9 svgShape"></path>
  <path fill="#1c40ba" d="M356.44 243.95c-28.02 0-52.152-21.624-58.685-52.586a78.056 78.056 0 0 1-1.686-16.174c0-22.139 9.415-43.042 25.186-55.916 4.28-3.492 10.578-2.855 14.071 1.423 3.492 4.278 2.855 10.578-1.424 14.07-11.166 9.116-17.833 24.227-17.833 40.423 0 4.074.421 8.122 1.252 12.032 4.563 21.63 20.648 36.728 39.118 36.728 22.26 0 40.369-21.873 40.369-48.76 0-2.437-.146-4.849-.434-7.169-1.655-13.463-7.996-25.58-17.399-33.253-4.278-3.492-4.916-9.791-1.424-14.07 3.492-4.278 9.791-4.916 14.07-1.425 13.358 10.902 22.325 27.777 24.603 46.297a78.57 78.57 0 0 1 .584 9.62c.002 37.915-27.08 68.76-60.368 68.76z" class="color4d80c9 svgShape"></path>
  <path fill="#1c40ba" d="M327.683 136.942a9.95 9.95 0 0 1-4.376-1.015c-4.964-2.421-7.025-8.408-4.603-13.372a10.035 10.035 0 0 1 2.72-3.41l-.002-.002c10.263-8.324 22.372-12.724 35.02-12.724 12.646 0 24.756 4.4 35.019 12.724l-.001.002c1.029.831 1.9 1.867 2.544 3.066a10.003 10.003 0 0 1-15.372 12.279c-6.608-5.281-14.274-8.07-22.189-8.07-7.912 0-15.576 2.788-22.183 8.065a10.048 10.048 0 0 1-6.577 2.457zm50.347 48.248c-5.523 0-10-4.477-10-10 0-8.234-5.308-15.19-11.59-15.19-5.522 0-10-4.477-10-10s4.478-10 10-10c17.419 0 31.59 15.786 31.59 35.19 0 5.523-4.477 10-10 10zm11.99-92.35c-5.522 0-10-4.477-10-10a6.743 6.743 0 0 0-1.99-4.798 6.744 6.744 0 0 0-4.799-1.992 6.798 6.798 0 0 0-6.79 6.79c0 5.523-4.478 10-10 10s-10-4.477-10-10c0-14.772 12.018-26.79 26.79-26.79 7.152 0 13.879 2.788 18.94 7.849 5.06 5.061 7.849 11.788 7.849 18.941 0 5.523-4.478 10-10 10z" class="color4d80c9 svgShape"></path>
  <path fill="#1c40ba" d="M356.44 101.23c-5.522 0-10-4.477-10-10v-8.39a6.798 6.798 0 0 0-6.79-6.79 6.74 6.74 0 0 0-4.799 1.992 6.743 6.743 0 0 0-1.991 4.798c0 5.523-4.478 10-10 10s-10-4.477-10-10c0-7.153 2.788-13.88 7.85-18.941 5.06-5.061 11.788-7.849 18.94-7.849 14.772 0 26.79 12.018 26.79 26.79v8.39c0 5.523-4.477 10-10 10zm49.672 42.468c-9.734 0-19.19-3.617-26.327-8.336a9.132 9.132 0 0 1-.411-.287 10.064 10.064 0 0 1-1.455-1.258c-3.809-3.999-3.654-10.329.345-14.138 3.512-3.345 8.821-3.633 12.643-.945l.094.066c2.299 1.478 16.033 9.654 25.795.738 4.077-3.725 10.402-3.439 14.127.637 3.726 4.077 3.44 10.402-.637 14.128-7.42 6.778-15.897 9.395-24.174 9.395zm-26.236-8.287zm-73.106 8.285c-8.277 0-16.752-2.614-24.174-9.392-4.078-3.724-4.365-10.049-.642-14.127 3.724-4.08 10.05-4.366 14.128-.641 9.766 8.917 23.51.734 25.8-.738l.076-.054c3.823-2.699 9.141-2.415 12.657.935 3.999 3.809 4.153 10.139.345 14.138-.443.466-.938.893-1.469 1.269-.13.095-.263.188-.397.276-7.133 4.717-16.591 8.333-26.324 8.334zm26.148-8.232zm95.433 74.909a10.005 10.005 0 0 1-9.376-6.522c-2.059-5.545-12.357-4.615-12.462-4.605-5.475.658-10.432-3.244-11.096-8.727-.665-5.482 3.275-10.471 8.759-11.136 9.607-1.167 27.496 1.208 33.549 17.506 1.922 5.177-.717 10.933-5.895 12.855a9.95 9.95 0 0 1-3.479.629zm-143.822 0a9.974 9.974 0 0 1-3.487-.631c-5.176-1.927-7.811-7.685-5.884-12.86 5.554-14.919 21.471-18.765 33.413-17.529.234.024.468.057.7.098 4.722.8 8.318 4.91 8.318 9.859 0 5.523-4.477 10-10 10-.395 0-.794-.025-1.193-.073-1.137-.086-10.547-.612-12.494 4.621a10.005 10.005 0 0 1-9.373 6.515zM432 176.79h-25.7c-5.523 0-10-4.477-10-10s4.477-10 10-10H432c5.522 0 10 4.477 10 10s-4.478 10-10 10zm-125.93 0h-25.18c-5.522 0-10-4.477-10-10s4.478-10 10-10h25.181c5.523 0 10 4.477 10 10-.001 5.523-4.478 10-10.001 10z" class="color4d80c9 svgShape"></path>
  <path fill="#1c40ba" d="M442.33 497.36H77.67c-12.241 0-23.201-6.33-29.319-16.933-6.117-10.601-6.113-23.256.012-33.852l184.226-319.092c2.63-4.63 8.472-6.413 13.255-3.964 4.915 2.518 6.864 8.534 4.347 13.449l-.01.02a9.402 9.402 0 0 1-.24.441L65.68 456.58c-2.507 4.339-2.509 9.515-.007 13.852 2.504 4.339 6.988 6.929 11.997 6.929h364.66c5.008 0 9.493-2.59 11.998-6.929 2.504-4.338 2.505-9.516.002-13.852l-104.851-181.6c-2.762-4.782-1.123-10.898 3.66-13.66 4.782-2.762 10.898-1.121 13.66 3.66l104.851 181.6c6.118 10.598 6.118 23.253-.002 33.852-6.12 10.6-17.08 16.928-29.318 16.928z" class="color4d80c9 svgShape"></path>
  <path fill="#1c40ba" d="M366.12 453.36H153.88c-12.241 0-23.201-6.33-29.319-16.933-6.117-10.601-6.113-23.256.012-33.852L243.2 197.1a9.995 9.995 0 0 1 1.589-2.071c3.904-3.905 10.24-3.912 14.147-.005a10 10 0 0 1 1.419 12.361L141.89 412.58c-2.507 4.339-2.509 9.515-.007 13.852 2.503 4.339 6.988 6.929 11.997 6.929h212.24c5.009 0 9.493-2.59 11.997-6.929 2.502-4.336 2.5-9.513-.006-13.848L288.39 257.18c-2.762-4.783-1.123-10.898 3.66-13.66 4.783-2.761 10.898-1.122 13.66 3.66l89.72 155.4c6.122 10.592 6.127 23.247.01 33.848-6.119 10.602-17.079 16.932-29.32 16.932z" class="color4d80c9 svgShape"></path>
  <path fill="#1c40ba" d="M260 390c-5.523 0-10-4.478-10-10V280c0-5.522 4.477-10 10-10 5.522 0 10 4.478 10 10v100c0 5.522-4.478 10-10 10zm100-110c-.696 0-1.394-.002-2.09-.022-23.402-.36-46.263-7.029-66.115-19.29a130.254 130.254 0 0 1-48.938-54.237C234.324 188.759 230 169.768 230 150a131.5 131.5 0 0 1 1.386-19.02c4.484-30.568 19.848-58.635 43.261-79.032A129.913 129.913 0 0 1 360 20c71.683 0 130 58.318 130 130s-58.317 130-130 130zm0-240c-54.19 0-100.975 40.36-108.826 93.882A111.499 111.499 0 0 0 250 150c0 16.735 3.656 32.803 10.867 47.756a110.278 110.278 0 0 0 41.436 45.915c16.806 10.378 36.164 16.019 55.984 16.311l.168.004c.516.017 1.028.014 1.545.015 60.654 0 110-49.346 110-110S420.654 40 360 40zM70 270c-16.542 0-30-13.458-30-30s13.458-30 30-30 30 13.458 30 30-13.458 30-30 30zm0-40c-5.514 0-10 4.486-10 10s4.486 10 10 10 10-4.486 10-10-4.486-10-10-10zm385 130c-13.785 0-25-11.215-25-25s11.215-25 25-25 25 11.215 25 25-11.215 25-25 25zm0-30c-2.757 0-5 2.243-5 5s2.243 5 5 5 5-2.243 5-5-2.243-5-5-5zM160 130c-22.056 0-40-17.944-40-40s17.944-40 40-40 40 17.944 40 40-17.944 40-40 40zm0-60c-11.028 0-20 8.972-20 20s8.972 20 20 20 20-8.972 20-20-8.972-20-20-20zm50 330h-30c-5.523 0-10-4.478-10-10s4.477-10 10-10h30c5.523 0 10 4.478 10 10s-4.477 10-10 10zm130 0h-30c-5.523 0-10-4.478-10-10s4.477-10 10-10h30c5.522 0 10 4.478 10 10s-4.478 10-10 10z" class="color4d80c9 svgShape"></path>
</svg>
