<svg xmlns="http://www.w3.org/2000/svg" viewBox="0 0 110 110" id="troubleshooting">
  <g fill="#000000" class="color000000 svgShape">
    <circle cx="51" cy="59" r="50" fill="#e7ecff" class="colore7efff svgShape"></circle>
    <circle cx="13" cy="4" r="3" fill="#002ec9" class="color00c99f svgShape"></circle>
    <circle cx="106" cy="15" r="3" fill="#4d70ff" class="colorff4d69 svgShape"></circle>
    <circle cx="95" cy="102" r="3" fill="#002ec9" class="color00c99f svgShape"></circle>
    <circle cx="4" cy="99" r="3" fill="#0031ff" class="colorffa100 svgShape"></circle>
    <path fill="#bbc8fe" d="M98,85v2a2,2,0,0,1-2,2H11a48.32,48.32,0,0,1-3.87-6H96A2,2,0,0,1,98,85Z" class="colora5bced svgShape"></path>
    <path fill="#8fa5ff" d="M73,25V65H13V26.52A48,48,0,0,1,18.52,21H69A4,4,0,0,1,73,25Z" class="color8fa2ff svgShape"></path>
    <path fill="#7f8fd1" d="M91,89a50,50,0,0,1-80,0Z" class="color7f96d1 svgShape"></path>
    <path fill="#4e76ff" d="M13,65H73a0,0,0,0,1,0,0v4a4,4,0,0,1-4,4H17a4,4,0,0,1-4-4V65A0,0,0,0,1,13,65Z" class="color4e6aff svgShape"></path>
    <rect width="52" height="36" x="17" y="25" fill="#ffffff" rx="1" class="colorffffff svgShape"></rect>
    <path fill="#1c40ba" d="M51,80H35c2.16-2.16,2-4.32,2-7H49v2.17A6.82,6.82,0,0,0,51,80Z" class="color323fd4 svgShape"></path>
    <path fill="#4e76ff" d="M32,80H54a2,2,0,0,1,2,2v1a0,0,0,0,1,0,0H30a0,0,0,0,1,0,0V82A2,2,0,0,1,32,80Z" class="color4e6aff svgShape"></path>
    <path fill="#1c40ba" d="M90,45H78V27a6,6,0,0,1,12,0Z" class="color323fd4 svgShape"></path>
    <rect width="16" height="4" x="76" y="45" fill="#4e76ff" rx="1" class="color4e6aff svgShape"></rect>
    <polygon fill="#8fa5ff" points="86 70 86 49 82 49 82 70 80 74 83 79 85 79 88 74 86 70" class="color8fa2ff svgShape"></polygon>
    <path fill="#ffffff" d="M47,70H39a1,1,0,0,1,0-2h8a1,1,0,0,1,0,2Z" class="colorffffff svgShape"></path>
    <path fill="#4d70ff" d="M52.88,55H33.12a4.12,4.12,0,0,1-3.51-6.27L39.1,33.19a4.58,4.58,0,0,1,7.8,0l9.5,15.54A4.13,4.13,0,0,1,52.88,55Z" class="colorff4d69 svgShape"></path>
    <path fill="#ffffff" d="M43,45h0a1.12,1.12,0,0,1-1.11-1l-.67-6A1.79,1.79,0,0,1,43,36h0a1.79,1.79,0,0,1,1.78,2l-.67,6A1.12,1.12,0,0,1,43,45Z" class="colorffffff svgShape"></path>
    <circle cx="43" cy="49" r="2" fill="#ffffff" class="colorffffff svgShape"></circle>
    <circle cx="84" cy="27" r="2" fill="#ffffff" class="colorffffff svgShape"></circle>
  </g>
</svg>
