<svg xmlns="http://www.w3.org/2000/svg" viewBox="0 0 100 100" id="Troubleshooting">
  <polygon fill="#ffffff" points="91.904 81.753 73.089 65.329 70.185 68.233 86.407 87.197 91.904 81.753" class="colorffffff svgShape"></polygon>
  <path fill="#4f706e" d="M94.028,79.89l-19.221-16.778c-1.024-.91-2.588-.866-3.563.103l-.686.686-2.044-2.044c4.543-5.176,7.143-12.062,6.724-19.465-.07-1.24-.231-2.453-.461-3.64-1.016-.034-2.002-.176-2.952-.414.321,1.363.535,2.768.617,4.213.762,13.429-9.544,24.974-22.972,25.736-13.42.771-24.973-9.546-25.736-22.974-.76-13.429,9.546-24.974,22.974-25.735,5.32-.306,10.342,1.135,14.518,3.816.091-1.009.283-1.989.576-2.926-4.463-2.618-9.714-3.999-15.252-3.686-14.969.849-26.458,13.719-25.611,28.69.821,14.45,12.838,25.656,27.136,25.655.515,0,1.034-.015,1.554-.044,6.564-.373,12.458-3.057,16.936-7.216l2.013,2.014-.497.497s-.001.001-.002.002c-.963.966-1.015,2.53-.127,3.55l16.581,19.384c.448.513,1.092.821,1.766.846.028.001.057.002.086.002.644,0,1.273-.259,1.736-.718l6.014-5.956c.482-.479.749-1.138.732-1.81-.017-.672-.317-1.319-.838-1.787ZM86.407,87.197l-16.223-18.964,2.905-2.903,18.815,16.424-5.497,5.444Z" class="color494949 svgShape"></path>
  <path fill="#ffffff" d="M71.825,38.337c-6.124-1.535-10.664-7.059-10.664-13.659,0-.434.026-.861.065-1.285-4.176-2.681-9.199-4.122-14.518-3.816-13.428.761-23.734,12.306-22.974,25.735.763,13.428,12.315,23.746,25.736,22.974,13.428-.763,23.734-12.308,22.972-25.736-.082-1.445-.296-2.85-.617-4.213Z" class="colorffffff svgShape"></path>
  <path fill="#add6d2" fill-rule="evenodd" d="M48.873 71.104c-.267.008-.535.023-.799.023-14.049.001-25.889-10.822-27.075-24.908-.51.233-1.013.478-1.5.749l-2.856-2.874c-1.555.97-3.014 2.108-4.34 3.433-1.325 1.323-2.477 2.773-3.455 4.316l2.863 2.878c-.797 1.406-1.437 2.923-1.883 4.515l-4.053-.008c-.414 1.778-.634 3.617-.641 5.49 0 1.872.212 3.719.627 5.495l4.039.012c.439 1.592 1.069 3.113 1.861 4.526l-2.843 2.827c1.943 3.129 4.581 5.813 7.74 7.807l2.861-2.844c1.405.8 2.919 1.434 4.51 1.884l-.011 4.057c1.792.419 3.625.634 5.491.634 1.878.006 3.716-.207 5.501-.616l.009-4.049c1.594-.437 3.113-1.071 4.523-1.861l2.857 2.874c1.555-.966 3.011-2.112 4.34-3.431 1.327-1.324 2.479-2.775 3.453-4.322l-2.861-2.876c.666-1.171 1.214-2.425 1.641-3.73zM21.471 38.374c1.7-8.127 7.057-15.003 14.35-18.704-.561-1.298-1.329-2.475-2.289-3.472l1.455-2.883c-1.915-1.735-4.288-2.947-6.899-3.475l-1.449 2.881c-.691-.088-1.395-.126-2.118-.083-.72.043-1.421.156-2.1.321l-1.763-2.702c-2.528.823-4.754 2.291-6.463 4.228l1.775 2.704c-.86 1.121-1.503 2.395-1.897 3.771l-3.231.187c-.263 1.248-.391 2.55-.311 3.881.068 1.333.342 2.612.75 3.823l3.22-.177c.555 1.32 1.344 2.513 2.314 3.528l-1.452 2.885c1.72 1.554 3.812 2.687 6.108 3.286z" class="colorb3ccff svgShape"></path>
  <path fill="#ffffff" fill-rule="evenodd" d="M24.216,56.94c-1.557,1.043-2.824,2.552-3.549,4.431-1.883,4.867.541,10.335,5.403,12.213,4.54,1.756,9.599-.232,11.788-4.461-5.8-2.366-10.636-6.688-13.642-12.184Z" class="colorffffff svgShape"></path>
  <polygon fill="#95b9b4" points="66.739 55.314 48.647 22.435 30.555 55.314 66.739 55.314" class="color4080ff svgShape"></polygon>
  <rect width="4" height="11.135" x="46.647" y="33.736" fill="#ffffff" class="colorffffff svgShape"></rect>
  <rect width="4.045" height="4.045" x="46.624" y="47.112" fill="#ffffff" class="colorffffff svgShape"></rect>
  <path fill="#ffffff" fill-rule="evenodd" d="M25.558,28.732c1.193-1.764,2.586-3.385,4.153-4.825-.034-.531-.147-1.064-.377-1.577-1.029-2.294-3.737-3.323-6.029-2.288-2.306,1.037-3.321,3.733-2.294,6.032.817,1.818,2.67,2.82,4.547,2.66Z" class="colorffffff svgShape"></path>
  <path fill="#95b9b4" d="M89.356,24.678c0,7.787-6.312,14.098-14.096,14.098s-14.099-6.311-14.099-14.098,6.31-14.097,14.099-14.097,14.096,6.312,14.096,14.097Z" class="color4080ff svgShape"></path>
  <polygon fill="#ffffff" points="83.452 18.625 81.963 17.506 74.385 25.646 69.46 22.62 68.295 24.025 72.181 28.515 75.485 32.349 83.452 18.625" class="colorffffff svgShape"></polygon>
</svg>
